<?xml version="1.0" encoding="UTF-8" standalone="no"?>
<svg
   xmlns:dc="http://purl.org/dc/elements/1.1/"
   xmlns:cc="http://creativecommons.org/ns#"
   xmlns:rdf="http://www.w3.org/1999/02/22-rdf-syntax-ns#"
   xmlns:svg="http://www.w3.org/2000/svg"
   xmlns="http://www.w3.org/2000/svg"
   xmlns:sodipodi="http://sodipodi.sourceforge.net/DTD/sodipodi-0.dtd"
   xmlns:inkscape="http://www.inkscape.org/namespaces/inkscape"
   version="1.1"
   id="body"
   width="213.59238"
   height="36.44508"
   viewBox="0 0 0.29665608 0.050618166"
   preserveAspectRatio="none"
   inkscape:version="0.48.3.1 r9886"
   sodipodi:docname="ch1-Z-G-19.svg">
  <metadata
     id="metadata63">
    <rdf:RDF>
      <cc:Work
         rdf:about="">
        <dc:format>image/svg+xml</dc:format>
        <dc:type
           rdf:resource="http://purl.org/dc/dcmitype/StillImage" />
      </cc:Work>
    </rdf:RDF>
  </metadata>
  <defs
     id="defs61" />
  <sodipodi:namedview
     pagecolor="#ffffff"
     bordercolor="#666666"
     borderopacity="1"
     objecttolerance="10"
     gridtolerance="10"
     guidetolerance="10"
     inkscape:pageopacity="0"
     inkscape:pageshadow="2"
     inkscape:window-width="640"
     inkscape:window-height="480"
     id="namedview59"
     showgrid="false"
     inkscape:zoom="0.32777778"
     inkscape:cx="382.07032"
     inkscape:cy="459.17307"
     inkscape:window-x="0"
     inkscape:window-y="24"
     inkscape:window-maximized="0"
     inkscape:current-layer="body" />
  <title
     id="title3">SVG drawing</title>
  <desc
     id="desc5">This was produced by version 4.4 of GNU libplot, a free library for exporting 2-D vector graphics.</desc>
  <g
     id="content"
     transform="matrix(0.0017361,0,0,-0.0017361,-5.9678437e-4,0.05164897)"
     xml:space="preserve"
     stroke-miterlimit="10.433"
     font-style="normal"
     font-variant="normal"
     font-weight="normal"
     font-stretch="normal"
     font-size-adjust="none"
     letter-spacing="normal"
     word-spacing="normal"
     style="font-style:normal;font-variant:normal;font-weight:normal;font-stretch:normal;letter-spacing:normal;word-spacing:normal;text-anchor:start;fill:none;stroke:#000000;stroke-linecap:butt;stroke-linejoin:miter;stroke-miterlimit:10.43299961;stroke-opacity:1;stroke-dasharray:none;stroke-dashoffset:0">
<path
   d="M 3.2188,15.082 3.2441,15.077 3.2704,15.073 3.2976,15.068 3.3254,15.062 3.3539,15.057 3.3829,15.052 3.4421,15.04 3.5024,15.028 3.5629,15.016 3.6229,15.004 3.6816,14.992 3.7103,14.986 3.7384,14.981 3.7657,14.975 3.7923,14.97 3.818,14.965 3.8428,14.96 3.8664,14.955 3.8889,14.95 3.9102,14.946 3.93,14.942 3.9485,14.938 3.9654,14.935 3.9806,14.932 3.9941,14.93 4.0058,14.927 4.0156,14.926 c 0.2032,-0.063 0.9219,-0.313 0.9219,-1.078 0,-0.485 -0.4531,-1.782 -2.2969,-1.782 -0.3281,0 -1.5156,0.047 -1.84372,0.922 C 1.4375,12.91 1.75,13.41 1.75,13.754 c 0,0.328 -0.2188,0.515 -0.5312,0.515 -0.35942,0 -0.81255,-0.281 -0.81255,-1 0,-0.937 0.95315,-1.515 2.21875,-1.515 2.4219,0 3.1406,1.781 3.1406,2.609 0,0.235 0,0.672 -0.5156,1.188 -0.3906,0.375 -0.7812,0.453 -1.6406,0.64 C 3.1875,16.285 2.5,16.426 2.5,17.145 c 0,0.312 0.2812,1.453 1.7969,1.453 0.6719,0 1.3281,-0.25 1.4843,-0.828 -0.7031,0 -0.7343,-0.594 -0.7343,-0.61 0,-0.344 0.2969,-0.437 0.4375,-0.437 0.2344,0 0.6718,0.172 0.6718,0.843 0,0.672 -0.6093,1.36 -1.8437,1.36 -2.0781,0 -2.6406,-1.641 -2.6406,-2.297 0,-1.203 1.1875,-1.453 1.5469,-1.547 z"
   id="path9"
   inkscape:connector-curvature="0"
   style="fill:#000000;stroke-width:0" />
<path
   d="m 11.441,14.176 0,0.008 0,0.009 -0.001,0.008 -10e-4,0.008 -0.002,0.008 -0.002,0.008 -0.002,0.007 -0.003,0.008 -0.003,0.007 -0.003,0.007 -0.003,0.006 -0.004,0.006 -0.004,0.006 -0.005,0.006 -0.005,0.006 -0.005,0.005 -0.005,0.005 -0.005,0.005 -0.006,0.004 -0.006,0.004 -0.007,0.004 -0.006,0.004 -0.007,0.003 -0.007,0.003 -0.007,0.002 -0.008,0.003 -0.007,0.002 -0.008,0.001 -0.008,10e-4 -0.009,10e-4 -0.008,0.001 -0.009,0 c -0.141,0 -0.156,-0.047 -0.25,-0.328 -0.406,-1.438 -1.0623,-1.938 -1.578,-1.938 -0.1875,0 -0.4218,0.047 -0.4218,0.532 0,0.421 0.1875,0.906 0.375,1.375 l 1.1088,2.953 c 0.047,0.14 0.157,0.422 0.157,0.719 0,0.671 -0.469,1.281 -1.2502,1.281 -1.4688,0 -2.0625,-2.313 -2.0625,-2.438 0,-0.062 0.0781,-0.14 0.1875,-0.14 0.1406,0 0.1562,0.062 0.2187,0.281 0.375,1.344 0.9844,1.969 1.6094,1.969 0.1406,0 0.4063,-0.016 0.4063,-0.516 0,-0.422 -0.2032,-0.937 -0.3282,-1.297 L 8.3477,13.832 c -0.1094,-0.25 -0.2032,-0.5 -0.2032,-0.797 0,-0.719 0.5,-1.281 1.2657,-1.281 1.4528,0 2.0308,2.312 2.0308,2.422 z"
   id="path11"
   inkscape:connector-curvature="0"
   style="fill:#000000;stroke-width:0" />
<path
   d="m 11.316,21.832 0,0.022 -0.002,0.022 -0.003,0.023 -0.003,0.022 -0.005,0.023 -0.006,0.023 -0.007,0.022 -0.009,0.022 -0.009,0.023 -0.01,0.021 -0.011,0.022 -0.013,0.021 -0.013,0.021 -0.015,0.02 -0.016,0.02 -0.016,0.019 -0.018,0.018 -0.019,0.018 -0.02,0.016 -0.021,0.016 -0.021,0.015 -0.023,0.014 -0.024,0.013 -0.025,0.012 -0.026,0.011 -0.028,0.009 -0.028,0.008 -0.029,0.007 -0.03,0.006 -0.031,0.003 -0.032,0.003 -0.034,10e-4 c -0.359,0 -0.7807,-0.344 -0.7807,-0.766 0,-0.391 0.3437,-0.516 0.5307,-0.516 0.422,0 0.797,0.407 0.797,0.766 z"
   id="path13"
   inkscape:connector-curvature="0"
   style="fill:#000000;stroke-width:0" />
<path
   d="m 15.543,16.566 0.004,0.011 0.006,0.015 0.008,0.019 0.01,0.022 0.012,0.025 0.014,0.029 0.016,0.032 0.018,0.034 0.02,0.037 0.022,0.04 0.023,0.042 0.025,0.045 0.027,0.046 0.029,0.048 0.031,0.049 0.032,0.051 0.034,0.053 0.035,0.053 0.037,0.054 0.039,0.055 0.04,0.055 0.041,0.056 0.043,0.056 0.045,0.056 0.046,0.055 0.047,0.055 0.049,0.055 0.05,0.054 0.051,0.053 0.053,0.052 0.054,0.051 0.055,0.049 c 0.406,0.375 0.953,0.625 1.562,0.625 0.641,0 0.859,-0.469 0.859,-1.11 0,-0.906 -0.64,-2.719 -0.968,-3.578 -0.141,-0.375 -0.219,-0.578 -0.219,-0.875 0,-0.719 0.5,-1.281 1.25,-1.281 1.484,0 2.047,2.328 2.047,2.422 0,0.093 -0.078,0.156 -0.172,0.156 -0.141,0 -0.156,-0.047 -0.234,-0.328 -0.36,-1.297 -0.969,-1.938 -1.594,-1.938 -0.156,0 -0.406,0.016 -0.406,0.532 0,0.39 0.171,0.875 0.265,1.093 0.328,0.875 0.985,2.657 0.985,3.563 0,0.953 -0.547,1.672 -1.766,1.672 -1.406,0 -2.156,-1 -2.437,-1.406 -0.047,0.906 -0.704,1.406 -1.407,1.406 -0.5,0 -0.859,-0.313 -1.125,-0.844 -0.281,-0.578 -0.515,-1.531 -0.515,-1.594 0,-0.062 0.078,-0.14 0.187,-0.14 0.125,0 0.141,0.015 0.235,0.375 0.25,0.968 0.531,1.875 1.171,1.875 0.375,0 0.5,-0.25 0.5,-0.735 0,-0.343 -0.156,-0.968 -0.281,-1.453 l -0.437,-1.719 c -0.063,-0.297 -0.235,-1.015 -0.313,-1.297 -0.125,-0.421 -0.297,-1.171 -0.297,-1.25 0,-0.218 0.172,-0.39 0.422,-0.39 0.188,0 0.406,0.094 0.531,0.328 0.032,0.078 0.188,0.641 0.266,0.953 l 0.344,1.438 z"
   id="path15"
   inkscape:connector-curvature="0"
   style="fill:#000000;stroke-width:0" />
<path
   d="m 31.773,18.395 -0.046,-0.01 -0.044,-0.011 -0.042,-0.013 -0.041,-0.014 -0.04,-0.016 -0.037,-0.017 -0.036,-0.018 -0.034,-0.019 -0.033,-0.021 -0.031,-0.021 -0.03,-0.023 -0.028,-0.023 -0.026,-0.025 -0.025,-0.025 -0.024,-0.026 -0.022,-0.027 -0.02,-0.027 -0.019,-0.028 -0.018,-0.029 -0.016,-0.029 -0.015,-0.029 -0.013,-0.03 -0.012,-0.03 -0.011,-0.03 -0.01,-0.03 -0.008,-0.031 -0.006,-0.03 -0.006,-0.03 -0.004,-0.03 -0.003,-0.03 -0.002,-0.03 -0.001,-0.03 c 0,-0.375 0.313,-0.5 0.532,-0.5 0.468,0 0.812,0.407 0.812,0.844 0,0.656 -0.766,0.969 -1.437,0.969 -0.969,0 -1.5,-0.953 -1.641,-1.266 -0.375,1.203 -1.359,1.266 -1.641,1.266 -1.625,0 -2.484,-2.094 -2.484,-2.438 0,-0.062 0.062,-0.14 0.172,-0.14 0.125,0 0.156,0.093 0.187,0.156 0.547,1.766 1.61,2.094 2.078,2.094 0.704,0 0.86,-0.657 0.86,-1.047 0,-0.344 -0.094,-0.719 -0.297,-1.469 L 27.68,13.894 c -0.25,-0.953 -0.703,-1.828 -1.547,-1.828 -0.078,0 -0.469,0 -0.813,0.203 0.578,0.125 0.703,0.594 0.703,0.782 0,0.328 -0.234,0.515 -0.546,0.515 -0.375,0 -0.797,-0.343 -0.797,-0.843 0,-0.672 0.75,-0.969 1.437,-0.969 0.766,0 1.297,0.594 1.641,1.25 0.25,-0.938 1.047,-1.25 1.64,-1.25 1.61,0 2.469,2.078 2.469,2.422 0,0.093 -0.062,0.156 -0.156,0.156 -0.141,0 -0.156,-0.078 -0.203,-0.219 -0.438,-1.39 -1.36,-2.047 -2.063,-2.047 -0.562,0 -0.859,0.422 -0.859,1.063 0,0.359 0.062,0.609 0.312,1.656 l 0.563,2.156 c 0.234,0.954 0.766,1.657 1.5,1.657 0.031,0 0.484,0 0.812,-0.203 z"
   id="path17"
   inkscape:connector-curvature="0"
   style="fill:#000000;stroke-width:0" />
<path
   d="m 48.273,17.066 0.042,0 0.043,0.001 0.043,0.001 0.021,10e-4 0.022,0.002 0.021,0.002 0.021,0.002 0.021,0.003 0.021,0.003 0.02,0.004 0.02,0.005 0.019,0.005 0.018,0.007 0.018,0.007 0.018,0.007 0.016,0.009 0.016,0.01 0.015,0.011 0.014,0.012 0.012,0.013 0.012,0.014 0.005,0.008 0.006,0.008 0.004,0.008 0.005,0.008 0.004,0.009 0.004,0.009 0.004,0.01 0.003,0.01 0.003,0.01 0.002,0.011 0.002,0.011 0.002,0.011 0.002,0.012 0.001,0.012 0,0.013 0,0.013 c 0,0.297 -0.265,0.297 -0.5,0.297 h -9.375 c -0.218,0 -0.5,0 -0.5,-0.282 0,-0.297 0.266,-0.297 0.5,-0.297 z"
   id="path19"
   inkscape:connector-curvature="0"
   style="fill:#000000;stroke-width:0" />
<path
   d="m 48.273,14.098 0.042,0 0.043,0 0.043,0.002 0.021,0.001 0.022,10e-4 0.021,0.002 0.021,0.003 0.021,0.003 0.021,0.003 0.02,0.005 0.02,0.005 0.019,0.005 0.018,0.007 0.018,0.007 0.018,0.009 0.016,0.009 0.016,0.01 0.015,0.012 0.014,0.012 0.012,0.014 0.012,0.015 0.005,0.008 0.006,0.008 0.004,0.009 0.005,0.009 0.004,0.009 0.004,0.01 0.004,0.01 0.003,0.011 0.003,0.01 0.002,0.012 0.002,0.011 0.002,0.012 0.002,0.013 0.001,0.013 0,0.013 0,0.013 c 0,0.297 -0.265,0.297 -0.5,0.297 h -9.375 c -0.218,0 -0.5,0 -0.5,-0.281 0,-0.312 0.266,-0.312 0.5,-0.312 z"
   id="path21"
   inkscape:connector-curvature="0"
   style="fill:#000000;stroke-width:0" />
<path
   d="m 57.031,17.613 -0.012,0 -0.012,-0.001 -0.012,-10e-4 -0.011,-0.001 -0.011,0 -0.011,-10e-4 -0.011,-0.001 -0.01,-0.001 -0.02,-10e-4 -0.019,-0.002 -0.017,-0.002 -0.017,-0.002 -0.016,-0.003 -0.015,-0.002 -0.013,-0.003 -0.013,-0.003 -0.012,-0.003 -0.012,-0.004 -0.01,-0.004 -0.009,-0.004 -0.009,-0.004 -0.008,-0.005 -0.008,-0.006 -0.006,-0.006 -0.006,-0.006 -0.005,-0.007 -0.005,-0.007 -0.004,-0.008 -0.003,-0.008 -0.003,-0.009 -0.003,-0.009 -0.002,-0.01 -0.001,-0.011 -10e-4,-0.012 -10e-4,-0.012 0,-0.013 c 0,-0.156 0.078,-0.156 0.359,-0.156 h 0.735 c 1.344,0 1.953,-1.109 1.953,-2.641 0,-2.078 -1.078,-2.64 -1.859,-2.64 -0.766,0 -2.063,0.359 -2.532,1.422 0.516,-0.078 0.969,0.203 0.969,0.765 0,0.469 -0.328,0.782 -0.766,0.782 -0.39,0 -0.796,-0.219 -0.796,-0.829 0,-1.406 1.406,-2.562 3.172,-2.562 1.89,0 3.296,1.437 3.296,3.047 0,1.469 -1.187,2.609 -2.703,2.875 1.375,0.391 2.266,1.562 2.266,2.797 0,1.25 -1.297,2.172 -2.844,2.172 -1.594,0 -2.765,-0.969 -2.765,-2.125 0,-0.641 0.5,-0.766 0.734,-0.766 0.328,0 0.719,0.25 0.719,0.719 0,0.515 -0.391,0.734 -0.735,0.734 -0.094,0 -0.125,0 -0.172,-0.015 0.594,1.078 2.094,1.078 2.172,1.078 0.532,0 1.563,-0.235 1.563,-1.797 0,-0.297 -0.047,-1.188 -0.516,-1.875 -0.469,-0.703 -1.015,-0.75 -1.437,-0.766 z"
   id="path23"
   inkscape:connector-curvature="0"
   style="fill:#000000;stroke-width:0" />
<path
   d="m 68.191,15.082 0.026,-0.005 0.026,-0.004 0.027,-0.005 0.028,-0.006 0.029,-0.005 0.029,-0.005 0.059,-0.012 0.06,-0.012 0.061,-0.012 0.06,-0.012 0.058,-0.012 0.029,-0.006 0.028,-0.005 0.027,-0.006 0.027,-0.005 0.026,-0.005 0.024,-0.005 0.024,-0.005 0.023,-0.005 0.021,-0.004 0.02,-0.004 0.018,-0.004 0.017,-0.003 0.015,-0.003 0.014,-0.002 0.012,-0.003 0.009,-10e-4 c 0.203,-0.063 0.922,-0.313 0.922,-1.078 0,-0.485 -0.453,-1.782 -2.297,-1.782 -0.328,0 -1.515,0.047 -1.843,0.922 0.64,-0.078 0.953,0.422 0.953,0.766 0,0.328 -0.219,0.515 -0.532,0.515 -0.359,0 -0.812,-0.281 -0.812,-1 0,-0.937 0.953,-1.515 2.219,-1.515 2.422,0 3.14,1.781 3.14,2.609 0,0.235 0,0.672 -0.515,1.188 -0.391,0.375 -0.782,0.453 -1.641,0.64 -0.422,0.094 -1.109,0.235 -1.109,0.954 0,0.312 0.281,1.453 1.797,1.453 0.671,0 1.328,-0.25 1.484,-0.828 -0.703,0 -0.734,-0.594 -0.734,-0.61 0,-0.344 0.296,-0.437 0.437,-0.437 0.234,0 0.672,0.172 0.672,0.843 0,0.672 -0.609,1.36 -1.844,1.36 -2.078,0 -2.64,-1.641 -2.64,-2.297 0,-1.203 1.187,-1.453 1.546,-1.547 z"
   id="path25"
   inkscape:connector-curvature="0"
   style="fill:#000000;stroke-width:0" />
<path
   d="m 76.418,14.176 0,0.008 -0.001,0.009 -0.001,0.008 -10e-4,0.008 -0.001,0.008 -0.002,0.008 -0.003,0.007 -0.002,0.008 -0.003,0.007 -0.003,0.007 -0.004,0.006 -0.004,0.006 -0.004,0.006 -0.004,0.006 -0.005,0.006 -0.005,0.005 -0.005,0.005 -0.006,0.005 -0.006,0.004 -0.006,0.004 -0.006,0.004 -0.006,0.004 -0.007,0.003 -0.007,0.003 -0.008,0.002 -0.007,0.003 -0.008,0.002 -0.008,0.001 -0.008,10e-4 -0.008,10e-4 -0.009,0.001 -0.008,0 c -0.141,0 -0.157,-0.047 -0.25,-0.328 -0.407,-1.438 -1.063,-1.938 -1.578,-1.938 -0.188,0 -0.422,0.047 -0.422,0.532 0,0.421 0.187,0.906 0.375,1.375 l 1.109,2.953 c 0.047,0.14 0.156,0.422 0.156,0.719 0,0.671 -0.468,1.281 -1.25,1.281 -1.468,0 -2.062,-2.313 -2.062,-2.438 0,-0.062 0.078,-0.14 0.187,-0.14 0.141,0 0.157,0.062 0.219,0.281 0.375,1.344 0.984,1.969 1.609,1.969 0.141,0 0.407,-0.016 0.407,-0.516 0,-0.422 -0.203,-0.937 -0.328,-1.297 l -1.11,-2.953 c -0.109,-0.25 -0.203,-0.5 -0.203,-0.797 0,-0.719 0.5,-1.281 1.266,-1.281 1.453,0 2.031,2.312 2.031,2.422 z"
   id="path27"
   inkscape:connector-curvature="0"
   style="fill:#000000;stroke-width:0" />
<path
   d="m 76.293,21.832 -0.001,0.022 -0.001,0.022 -0.003,0.023 -0.004,0.022 -0.005,0.023 -0.006,0.023 -0.007,0.022 -0.008,0.022 -0.009,0.023 -0.01,0.021 -0.012,0.022 -0.012,0.021 -0.014,0.021 -0.014,0.02 -0.016,0.02 -0.017,0.019 -0.017,0.018 -0.019,0.018 -0.02,0.016 -0.021,0.016 -0.022,0.015 -0.023,0.014 -0.024,0.013 -0.025,0.012 -0.026,0.011 -0.027,0.009 -0.028,0.008 -0.029,0.007 -0.03,0.006 -0.032,0.003 -0.032,0.003 -0.033,10e-4 c -0.359,0 -0.781,-0.344 -0.781,-0.766 0,-0.391 0.344,-0.516 0.531,-0.516 0.422,0 0.797,0.407 0.797,0.766 z"
   id="path29"
   inkscape:connector-curvature="0"
   style="fill:#000000;stroke-width:0" />
<path
   d="m 80.52,16.566 0.003,0.011 0.007,0.015 0.008,0.019 0.01,0.022 0.012,0.025 0.014,0.029 0.016,0.032 0.018,0.034 0.02,0.037 0.021,0.04 0.024,0.042 0.025,0.045 0.027,0.046 0.029,0.048 0.03,0.049 0.032,0.051 0.034,0.053 0.036,0.053 0.037,0.054 0.038,0.055 0.04,0.055 0.042,0.056 0.043,0.056 0.044,0.056 0.046,0.055 0.048,0.055 0.048,0.055 0.05,0.054 0.052,0.053 0.052,0.052 0.054,0.051 0.055,0.049 c 0.406,0.375 0.953,0.625 1.563,0.625 0.64,0 0.859,-0.469 0.859,-1.11 0,-0.906 -0.641,-2.719 -0.969,-3.578 -0.14,-0.375 -0.218,-0.578 -0.218,-0.875 0,-0.719 0.5,-1.281 1.25,-1.281 1.484,0 2.046,2.328 2.046,2.422 0,0.093 -0.078,0.156 -0.171,0.156 -0.141,0 -0.157,-0.047 -0.235,-0.328 -0.359,-1.297 -0.969,-1.938 -1.594,-1.938 -0.156,0 -0.406,0.016 -0.406,0.532 0,0.39 0.172,0.875 0.266,1.093 0.328,0.875 0.984,2.657 0.984,3.563 0,0.953 -0.547,1.672 -1.765,1.672 -1.407,0 -2.157,-1 -2.438,-1.406 -0.047,0.906 -0.703,1.406 -1.406,1.406 -0.5,0 -0.86,-0.313 -1.125,-0.844 -0.281,-0.578 -0.516,-1.531 -0.516,-1.594 0,-0.062 0.078,-0.14 0.188,-0.14 0.125,0 0.14,0.015 0.234,0.375 0.25,0.968 0.531,1.875 1.172,1.875 0.375,0 0.5,-0.25 0.5,-0.735 0,-0.343 -0.156,-0.968 -0.281,-1.453 l -0.438,-1.719 c -0.062,-0.297 -0.234,-1.015 -0.312,-1.297 -0.125,-0.421 -0.297,-1.171 -0.297,-1.25 0,-0.218 0.172,-0.39 0.422,-0.39 0.187,0 0.406,0.094 0.531,0.328 0.031,0.078 0.187,0.641 0.266,0.953 l 0.343,1.438 z"
   id="path31"
   inkscape:connector-curvature="0"
   style="fill:#000000;stroke-width:0" />
<path
   d="m 97.945,29.176 -0.046,-0.01 -0.044,-0.011 -0.043,-0.013 -0.04,-0.014 -0.04,-0.015 -0.037,-0.017 -0.036,-0.019 -0.034,-0.019 -0.033,-0.02 -0.031,-0.022 -0.03,-0.023 -0.028,-0.023 -0.026,-0.025 -0.025,-0.025 -0.024,-0.026 -0.022,-0.027 -0.02,-0.027 -0.019,-0.028 -0.018,-0.029 -0.016,-0.029 -0.015,-0.029 -0.013,-0.03 -0.013,-0.03 -0.01,-0.03 -0.01,-0.03 -0.008,-0.03 -0.007,-0.031 -0.005,-0.03 -0.004,-0.03 -0.003,-0.03 -0.002,-0.03 -10e-4,-0.029 c 0,-0.375 0.313,-0.5 0.531,-0.5 0.469,0 0.813,0.406 0.813,0.843 0,0.657 -0.766,0.969 -1.438,0.969 -0.968,0 -1.5,-0.953 -1.64,-1.266 -0.375,1.204 -1.36,1.266 -1.641,1.266 -1.625,0 -2.484,-2.094 -2.484,-2.437 0,-0.063 0.062,-0.141 0.172,-0.141 0.125,0 0.156,0.094 0.187,0.156 0.547,1.766 1.61,2.094 2.078,2.094 0.703,0 0.86,-0.656 0.86,-1.047 0,-0.344 -0.094,-0.719 -0.297,-1.469 l -0.531,-2.187 c -0.25,-0.953 -0.704,-1.828 -1.547,-1.828 -0.078,0 -0.469,0 -0.813,0.203 0.578,0.125 0.703,0.594 0.703,0.781 0,0.328 -0.234,0.516 -0.547,0.516 -0.375,0 -0.796,-0.344 -0.796,-0.844 0,-0.672 0.75,-0.969 1.437,-0.969 0.766,0 1.297,0.594 1.641,1.25 0.25,-0.937 1.047,-1.25 1.64,-1.25 1.61,0 2.469,2.078 2.469,2.422 0,0.094 -0.062,0.156 -0.156,0.156 -0.141,0 -0.156,-0.078 -0.203,-0.218 -0.438,-1.391 -1.36,-2.047 -2.063,-2.047 -0.562,0 -0.859,0.422 -0.859,1.062 0,0.36 0.062,0.61 0.312,1.656 l 0.563,2.157 c 0.234,0.953 0.765,1.656 1.5,1.656 0.031,0 0.484,0 0.812,-0.203 z"
   id="path33"
   inkscape:connector-curvature="0"
   style="fill:#000000;stroke-width:0" />
<line
   x1="90.414001"
   y1="15.894"
   x2="99.280998"
   y2="15.894"
   id="line35"
   style="stroke-width:0.63800001" />
<path
   d="m 93.867,6.6797 -0.012,-7e-4 -0.012,-8e-4 -0.012,-7e-4 -0.011,-8e-4 -0.011,-7e-4 -0.011,-8e-4 -0.011,-8e-4 -0.01,-8e-4 L 93.757,6.6719 93.738,6.6701 93.721,6.6681 93.704,6.666 93.688,6.6637 93.673,6.6612 93.66,6.6585 93.647,6.6555 93.635,6.6523 93.623,6.6487 93.613,6.6448 93.604,6.6406 93.595,6.636 93.587,6.6311 93.579,6.6257 93.573,6.6199 93.567,6.6136 93.562,6.6068 93.557,6.5996 93.553,6.5918 93.55,6.5835 93.547,6.5746 93.544,6.5651 93.542,6.5549 93.541,6.5442 93.54,6.5327 93.539,6.5206 l 0,-0.0128 c 0,-0.1562 0.078,-0.1562 0.359,-0.1562 h 0.735 c 1.344,0 1.953,-1.1094 1.953,-2.6407 0,-2.0781 -1.078,-2.6406 -1.859,-2.6406 -0.766,0 -2.063,0.3594 -2.532,1.4219 0.516,-0.0781 0.969,0.2031 0.969,0.7656 0,0.4688 -0.328,0.7813 -0.766,0.7813 -0.39,0 -0.796,-0.2188 -0.796,-0.8282 0,-1.4062 1.406,-2.56246 3.171,-2.56246 1.891,0 3.297,1.43746 3.297,3.04686 0,1.4688 -1.187,2.6094 -2.703,2.875 1.375,0.3906 2.266,1.5625 2.266,2.7969 0,1.2498 -1.297,2.1718 -2.844,2.1718 -1.594,0 -2.766,-0.969 -2.766,-2.1249 0,-0.6407 0.5,-0.7657 0.735,-0.7657 0.328,0 0.719,0.25 0.719,0.7188 0,0.5156 -0.391,0.7348 -0.735,0.7348 -0.094,0 -0.125,0 -0.172,-0.016 0.594,1.078 2.094,1.078 2.172,1.078 0.531,0 1.563,-0.234 1.563,-1.7968 0,-0.2969 -0.047,-1.1875 -0.516,-1.875 -0.469,-0.7031 -1.016,-0.75 -1.437,-0.7656 z"
   id="path37"
   inkscape:connector-curvature="0"
   style="fill:#000000;stroke-width:0" />
<path
   d="m 114.49,15.566 0.05,0 0.05,10e-4 0.05,10e-4 0.03,0.002 0.02,10e-4 0.03,0.002 0.02,0.003 0.03,0.003 0.02,0.004 0.02,0.004 0.02,0.006 0.03,0.006 0.02,0.006 0.01,0.008 0.02,0.009 0.02,0.01 0.02,0.011 0.01,0.012 0.02,0.013 0.01,0.014 0.01,0.016 0.01,0.017 0.01,0.01 0,0.009 0.01,0.01 0,0.01 0.01,0.011 0,0.011 0,0.011 0,0.012 0.01,0.012 0,0.013 0,0.013 0,0.014 0,0.013 0,0.015 c 0,0.328 -0.28,0.328 -0.56,0.328 h -8.6 c -0.26,0 -0.56,0 -0.56,-0.328 0,-0.313 0.3,-0.313 0.56,-0.313 z"
   id="path39"
   inkscape:connector-curvature="0"
   style="fill:#000000;stroke-width:0" />
<path
   d="m 125.69,22.254 0,0.014 0,0.015 0,0.013 0,0.014 0,0.026 0,0.024 0,0.024 0,0.022 0,0.021 0,0.02 0,0.018 0,0.018 0,0.016 -0.01,0.016 0,0.014 0,0.014 -0.01,0.012 0,0.011 -0.01,0.011 0,0.01 -0.01,0.008 -0.01,0.008 -0.01,0.007 -0.01,0.007 -0.01,0.005 -0.01,0.005 -0.01,0.005 -0.01,0.003 -0.02,0.003 -0.01,0.003 -0.02,0.001 -0.01,0.002 -0.02,0 -0.01,0 -0.01,0.001 c -0.13,0 -0.17,0 -0.3,-0.204 l -4.8,-7.422 h 0.41 l 3.86,6.001 v -6.001 h -3.86 -0.41 v -0.453 h 4.19 v -1.453 c 0,-0.578 -0.03,-0.75 -1.19,-0.75 h -0.32 V 11.91 c 0.37,0.031 1.62,0.031 2.07,0.031 0.44,0 1.71,0 2.08,-0.031 v 0.453 h -0.31 c -1.16,0 -1.21,0.172 -1.21,0.75 v 1.453 h 1.62 v 0.453 h -1.62 z"
   id="path41"
   inkscape:connector-curvature="0"
   style="fill:#000000;stroke-width:0" />
<path
   d="m 134.05,15.082 0.02,-0.005 0.03,-0.004 0.03,-0.005 0.02,-0.006 0.03,-0.005 0.03,-0.005 0.06,-0.012 0.06,-0.012 0.06,-0.012 0.06,-0.012 0.06,-0.012 0.03,-0.006 0.03,-0.005 0.02,-0.006 0.03,-0.005 0.03,-0.005 0.02,-0.005 0.02,-0.005 0.03,-0.005 0.02,-0.004 0.02,-0.004 0.02,-0.004 0.01,-0.003 0.02,-0.003 0.01,-0.002 0.01,-0.003 0.01,-10e-4 c 0.21,-0.063 0.93,-0.313 0.93,-1.078 0,-0.485 -0.46,-1.782 -2.3,-1.782 -0.33,0 -1.52,0.047 -1.85,0.922 0.65,-0.078 0.96,0.422 0.96,0.766 0,0.328 -0.22,0.515 -0.53,0.515 -0.36,0 -0.82,-0.281 -0.82,-1 0,-0.937 0.96,-1.515 2.22,-1.515 2.43,0 3.14,1.781 3.14,2.609 0,0.235 0,0.672 -0.51,1.188 -0.39,0.375 -0.78,0.453 -1.64,0.64 -0.42,0.094 -1.11,0.235 -1.11,0.954 0,0.312 0.28,1.453 1.79,1.453 0.68,0 1.33,-0.25 1.49,-0.828 -0.7,0 -0.73,-0.594 -0.73,-0.61 0,-0.344 0.29,-0.437 0.43,-0.437 0.24,0 0.67,0.172 0.67,0.843 0,0.672 -0.6,1.36 -1.84,1.36 -2.08,0 -2.64,-1.641 -2.64,-2.297 0,-1.203 1.19,-1.453 1.55,-1.547 z"
   id="path43"
   inkscape:connector-curvature="0"
   style="fill:#000000;stroke-width:0" />
<path
   d="m 142.27,14.176 0,0.008 0,0.009 0,0.008 0,0.008 0,0.008 0,0.008 -0.01,0.007 0,0.008 0,0.007 0,0.007 -0.01,0.006 0,0.006 -0.01,0.006 0,0.006 0,0.006 -0.01,0.005 0,0.005 -0.01,0.005 -0.01,0.004 0,0.004 -0.01,0.004 -0.01,0.004 0,0.003 -0.01,0.003 -0.01,0.002 0,0.003 -0.01,0.002 -0.01,0.001 -0.01,10e-4 -0.01,10e-4 0,0.001 -0.01,0 c -0.14,0 -0.16,-0.047 -0.25,-0.328 -0.41,-1.438 -1.07,-1.938 -1.58,-1.938 -0.19,0 -0.42,0.047 -0.42,0.532 0,0.421 0.18,0.906 0.37,1.375 l 1.11,2.953 c 0.05,0.14 0.16,0.422 0.16,0.719 0,0.671 -0.47,1.281 -1.25,1.281 -1.47,0 -2.06,-2.313 -2.06,-2.438 0,-0.062 0.07,-0.14 0.18,-0.14 0.14,0 0.16,0.062 0.22,0.281 0.38,1.344 0.99,1.969 1.61,1.969 0.14,0 0.41,-0.016 0.41,-0.516 0,-0.422 -0.21,-0.937 -0.33,-1.297 l -1.11,-2.953 c -0.11,-0.25 -0.2,-0.5 -0.2,-0.797 0,-0.719 0.5,-1.281 1.26,-1.281 1.46,0 2.03,2.312 2.03,2.422 z"
   id="path45"
   inkscape:connector-curvature="0"
   style="fill:#000000;stroke-width:0" />
<path
   d="m 142.15,21.832 0,0.022 0,0.022 -0.01,0.023 0,0.022 -0.01,0.023 0,0.023 -0.01,0.022 -0.01,0.022 -0.01,0.023 -0.01,0.021 -0.01,0.022 -0.01,0.021 -0.01,0.021 -0.02,0.02 -0.01,0.02 -0.02,0.019 -0.02,0.018 -0.02,0.018 -0.02,0.016 -0.02,0.016 -0.02,0.015 -0.02,0.014 -0.03,0.013 -0.02,0.012 -0.03,0.011 -0.02,0.009 -0.03,0.008 -0.03,0.007 -0.03,0.006 -0.03,0.003 -0.03,0.003 -0.04,10e-4 c -0.36,0 -0.78,-0.344 -0.78,-0.766 0,-0.391 0.34,-0.516 0.53,-0.516 0.42,0 0.8,0.407 0.8,0.766 z"
   id="path47"
   inkscape:connector-curvature="0"
   style="fill:#000000;stroke-width:0" />
<path
   d="m 146.38,16.566 0,0.011 0,0.015 0.01,0.019 0.01,0.022 0.02,0.025 0.01,0.029 0.02,0.032 0.01,0.034 0.02,0.037 0.02,0.04 0.03,0.042 0.02,0.045 0.03,0.046 0.03,0.048 0.03,0.049 0.03,0.051 0.04,0.053 0.03,0.053 0.04,0.054 0.04,0.055 0.04,0.055 0.04,0.056 0.04,0.056 0.05,0.056 0.04,0.055 0.05,0.055 0.05,0.055 0.05,0.054 0.05,0.053 0.05,0.052 0.06,0.051 0.05,0.049 c 0.41,0.375 0.95,0.625 1.56,0.625 0.64,0 0.86,-0.469 0.86,-1.11 0,-0.906 -0.64,-2.719 -0.97,-3.578 -0.14,-0.375 -0.22,-0.578 -0.22,-0.875 0,-0.719 0.5,-1.281 1.26,-1.281 1.48,0 2.04,2.328 2.04,2.422 0,0.093 -0.08,0.156 -0.17,0.156 -0.14,0 -0.16,-0.047 -0.23,-0.328 -0.36,-1.297 -0.97,-1.938 -1.6,-1.938 -0.15,0 -0.4,0.016 -0.4,0.532 0,0.39 0.17,0.875 0.26,1.093 0.33,0.875 0.99,2.657 0.99,3.563 0,0.953 -0.55,1.672 -1.77,1.672 -1.41,0 -2.16,-1 -2.44,-1.406 -0.04,0.906 -0.7,1.406 -1.4,1.406 -0.5,0 -0.86,-0.313 -1.13,-0.844 -0.28,-0.578 -0.51,-1.531 -0.51,-1.594 0,-0.062 0.07,-0.14 0.18,-0.14 0.13,0 0.14,0.015 0.24,0.375 0.25,0.968 0.53,1.875 1.17,1.875 0.37,0 0.5,-0.25 0.5,-0.735 0,-0.343 -0.16,-0.968 -0.28,-1.453 l -0.44,-1.719 c -0.06,-0.297 -0.23,-1.015 -0.31,-1.297 -0.13,-0.421 -0.3,-1.171 -0.3,-1.25 0,-0.218 0.17,-0.39 0.42,-0.39 0.19,0 0.41,0.094 0.53,0.328 0.04,0.078 0.19,0.641 0.27,0.953 l 0.34,1.438 z"
   id="path49"
   inkscape:connector-curvature="0"
   style="fill:#000000;stroke-width:0" />
<path
   d="m 155.65,22.414 0.08,0.031 0.09,0.033 0.08,0.036 0.08,0.039 0.08,0.04 0.07,0.044 0.08,0.046 0.07,0.047 0.07,0.051 0.07,0.052 0.06,0.054 0.07,0.057 0.06,0.058 0.06,0.06 0.05,0.062 0.06,0.064 0.05,0.065 0.04,0.067 0.05,0.068 0.04,0.07 0.04,0.071 0.03,0.072 0.04,0.074 0.03,0.075 0.02,0.076 0.03,0.077 0.02,0.078 0.01,0.079 0.01,0.079 0.01,0.081 0.01,0.081 0,0.082 c 0,0.922 -0.98,1.547 -2.05,1.547 -1.12,0 -1.98,-0.672 -1.98,-1.532 0,-0.359 0.25,-0.578 0.58,-0.578 0.34,0 0.56,0.25 0.56,0.578 0,0.547 -0.52,0.547 -0.69,0.547 0.35,0.547 1.08,0.703 1.49,0.703 0.45,0 1.06,-0.25 1.06,-1.25 0,-0.14 -0.02,-0.781 -0.31,-1.281 -0.33,-0.531 -0.71,-0.562 -0.99,-0.578 -0.09,-0.016 -0.36,-0.031 -0.43,-0.031 -0.1,-0.016 -0.18,-0.016 -0.18,-0.141 0,-0.109 0.08,-0.109 0.27,-0.109 h 0.5 c 0.91,0 1.33,-0.766 1.33,-1.86 0,-1.515 -0.78,-1.843 -1.27,-1.843 -0.48,0 -1.31,0.187 -1.7,0.859 0.39,-0.062 0.73,0.188 0.73,0.609 0,0.407 -0.29,0.625 -0.62,0.625 -0.27,0 -0.63,-0.156 -0.63,-0.656 0,-1.015 1.03,-1.75 2.25,-1.75 1.36,0 2.38,1.016 2.38,2.156 0,0.922 -0.71,1.782 -1.86,2.016 z"
   id="path51"
   inkscape:connector-curvature="0"
   style="fill:#000000;stroke-width:0" />
<path
   d="m 169.88,29.176 -0.05,-0.01 -0.05,-0.011 -0.04,-0.013 -0.04,-0.014 -0.04,-0.015 -0.04,-0.017 -0.03,-0.019 -0.04,-0.019 -0.03,-0.02 -0.03,-0.022 -0.03,-0.023 -0.03,-0.023 -0.02,-0.025 -0.03,-0.025 -0.02,-0.026 -0.02,-0.027 -0.02,-0.027 -0.02,-0.028 -0.02,-0.029 -0.02,-0.029 -0.01,-0.029 -0.02,-0.03 -0.01,-0.03 -0.01,-0.03 -0.01,-0.03 -0.01,-0.03 0,-0.031 -0.01,-0.03 0,-0.03 -0.01,-0.03 0,-0.03 0,-0.029 c 0,-0.375 0.31,-0.5 0.53,-0.5 0.47,0 0.82,0.406 0.82,0.843 0,0.657 -0.77,0.969 -1.44,0.969 -0.97,0 -1.5,-0.953 -1.64,-1.266 -0.38,1.204 -1.36,1.266 -1.64,1.266 -1.63,0 -2.49,-2.094 -2.49,-2.437 0,-0.063 0.07,-0.141 0.17,-0.141 0.13,0 0.16,0.094 0.19,0.156 0.55,1.766 1.61,2.094 2.08,2.094 0.7,0 0.86,-0.656 0.86,-1.047 0,-0.344 -0.09,-0.719 -0.3,-1.469 l -0.53,-2.187 c -0.25,-0.953 -0.7,-1.828 -1.55,-1.828 -0.07,0 -0.46,0 -0.81,0.203 0.58,0.125 0.7,0.594 0.7,0.781 0,0.328 -0.23,0.516 -0.54,0.516 -0.38,0 -0.8,-0.344 -0.8,-0.844 0,-0.672 0.75,-0.969 1.44,-0.969 0.76,0 1.3,0.594 1.64,1.25 0.25,-0.937 1.05,-1.25 1.64,-1.25 1.61,0 2.47,2.078 2.47,2.422 0,0.094 -0.06,0.156 -0.16,0.156 -0.14,0 -0.15,-0.078 -0.2,-0.218 -0.44,-1.391 -1.36,-2.047 -2.06,-2.047 -0.57,0 -0.86,0.422 -0.86,1.062 0,0.36 0.06,0.61 0.31,1.656 l 0.56,2.157 c 0.24,0.953 0.77,1.656 1.5,1.656 0.03,0 0.49,0 0.82,-0.203 z"
   id="path53"
   inkscape:connector-curvature="0"
   style="fill:#000000;stroke-width:0" />
<line
   x1="162.34"
   y1="15.894"
   x2="171.21001"
   y2="15.894"
   id="line55"
   style="stroke-width:0.63800001" />
<path
   d="m 165.8,6.6797 -0.02,-7e-4 -0.01,-8e-4 -0.01,-7e-4 -0.01,-8e-4 -0.01,-7e-4 -0.01,-8e-4 -0.01,-8e-4 -0.01,-8e-4 -0.02,-0.0017 -0.02,-0.0018 -0.02,-0.002 -0.02,-0.0021 -0.01,-0.0023 -0.02,-0.0025 -0.01,-0.0027 -0.01,-0.003 -0.02,-0.0032 -0.01,-0.0036 -0.01,-0.0039 -0.01,-0.0042 -0.01,-0.0046 0,-0.0049 -0.01,-0.0054 -0.01,-0.0058 0,-0.0063 -0.01,-0.0068 0,-0.0072 -0.01,-0.0078 0,-0.0083 0,-0.0089 -0.01,-0.0095 0,-0.0102 0,-0.0107 0,-0.0115 0,-0.0121 0,-0.0128 c 0,-0.1562 0.08,-0.1562 0.36,-0.1562 h 0.73 c 1.35,0 1.96,-1.1094 1.96,-2.6407 0,-2.0781 -1.08,-2.6406 -1.86,-2.6406 -0.77,0 -2.07,0.3594 -2.54,1.4219 0.52,-0.0781 0.97,0.2031 0.97,0.7656 0,0.4688 -0.32,0.7813 -0.76,0.7813 -0.39,0 -0.8,-0.2188 -0.8,-0.8282 0,-1.4062 1.41,-2.56246 3.17,-2.56246 1.89,0 3.3,1.43746 3.3,3.04686 0,1.4688 -1.19,2.6094 -2.7,2.875 1.37,0.3906 2.26,1.5625 2.26,2.7969 0,1.2498 -1.29,2.1718 -2.84,2.1718 -1.6,0 -2.77,-0.969 -2.77,-2.1249 0,-0.6407 0.5,-0.7657 0.74,-0.7657 0.33,0 0.72,0.25 0.72,0.7188 0,0.5156 -0.39,0.7348 -0.74,0.7348 -0.09,0 -0.12,0 -0.17,-0.016 0.59,1.078 2.09,1.078 2.17,1.078 0.53,0 1.56,-0.234 1.56,-1.7968 0,-0.2969 -0.04,-1.1875 -0.51,-1.875 -0.47,-0.7031 -1.02,-0.75 -1.44,-0.7656 z"
   id="path57"
   inkscape:connector-curvature="0"
   style="fill:#000000;stroke-width:0" />
</g></svg>
