<?xml version="1.0" encoding="UTF-8" standalone="no"?>
<svg
   xmlns:dc="http://purl.org/dc/elements/1.1/"
   xmlns:cc="http://creativecommons.org/ns#"
   xmlns:rdf="http://www.w3.org/1999/02/22-rdf-syntax-ns#"
   xmlns:svg="http://www.w3.org/2000/svg"
   xmlns="http://www.w3.org/2000/svg"
   xmlns:sodipodi="http://sodipodi.sourceforge.net/DTD/sodipodi-0.dtd"
   xmlns:inkscape="http://www.inkscape.org/namespaces/inkscape"
   version="1.1"
   id="body"
   width="334.49005"
   height="21.679548"
   viewBox="0 0 0.46456952 0.030110484"
   preserveAspectRatio="none"
   inkscape:version="0.48.3.1 r9886"
   sodipodi:docname="ch1-Z-G-4.svg">
  <metadata
     id="metadata71">
    <rdf:RDF>
      <cc:Work
         rdf:about="">
        <dc:format>image/svg+xml</dc:format>
        <dc:type
           rdf:resource="http://purl.org/dc/dcmitype/StillImage" />
      </cc:Work>
    </rdf:RDF>
  </metadata>
  <defs
     id="defs69" />
  <sodipodi:namedview
     pagecolor="#ffffff"
     bordercolor="#666666"
     borderopacity="1"
     objecttolerance="10"
     gridtolerance="10"
     guidetolerance="10"
     inkscape:pageopacity="0"
     inkscape:pageshadow="2"
     inkscape:window-width="640"
     inkscape:window-height="480"
     id="namedview67"
     showgrid="false"
     inkscape:zoom="0.32777778"
     inkscape:cx="381.95314"
     inkscape:cy="459.13401"
     inkscape:window-x="0"
     inkscape:window-y="24"
     inkscape:window-maximized="0"
     inkscape:current-layer="body" />
  <title
     id="title3">SVG drawing</title>
  <desc
     id="desc5">This was produced by version 4.4 of GNU libplot, a free library for exporting 2-D vector graphics.</desc>
  <g
     id="content"
     transform="matrix(0.0017361,0,0,-0.0017361,-7.5953453e-4,0.03119555)"
     xml:space="preserve"
     stroke-miterlimit="10.433"
     font-style="normal"
     font-variant="normal"
     font-weight="normal"
     font-stretch="normal"
     font-size-adjust="none"
     letter-spacing="normal"
     word-spacing="normal"
     style="font-style:normal;font-variant:normal;font-weight:normal;font-stretch:normal;letter-spacing:normal;word-spacing:normal;text-anchor:start;fill:none;stroke:#000000;stroke-linecap:butt;stroke-linejoin:miter;stroke-miterlimit:10.43299961;stroke-opacity:1;stroke-dasharray:none;stroke-dashoffset:0">
<path
   d="M 5.5117,2.5742 2.7148,8.7617 c -0.1093,0.25 -0.2031,0.25 -0.25,0.25 -0.0156,0 -0.0937,0 -0.2656,-0.125 L 0.68359,7.7461 C 0.48047,7.5898 0.48047,7.543 0.48047,7.4961 c 0,-0.0781 0.04687,-0.1875 0.15625,-0.1875 0.10937,0 0.37498,0.2344 0.54688,0.3594 0.0937,0.0781 0.3281,0.25 0.5156,0.375 L 4.8242,1.168 C 4.9336,0.90234 5.0117,0.90234 5.1523,0.90234 c 0.25,0 0.2969,0.10936 0.4063,0.32816 L 12.777,16.168 c 0.11,0.219 0.11,0.281 0.11,0.312 0,0.172 -0.125,0.329 -0.328,0.329 -0.125,0 -0.235,-0.079 -0.36,-0.344 z"
   id="path9"
   inkscape:connector-curvature="0"
   style="fill:#000000;stroke-width:0" />
<line
   x1="12.609"
   y1="16.488001"
   x2="21.476999"
   y2="16.488001"
   id="line11"
   style="stroke-width:0.63800001" />
<path
   d="M 20.141,10.394 20.095,10.385 20.05,10.374 20.008,10.361 19.967,10.347 19.928,10.331 19.89,10.314 19.854,10.296 19.82,10.277 19.787,10.256 19.756,10.235 19.726,10.212 19.698,10.189 19.672,10.164 19.647,10.139 19.624,10.113 19.602,10.086 19.581,10.059 19.562,10.031 19.544,10.002 19.528,9.9731 19.513,9.9437 19.5,9.9141 19.488,9.8841 19.477,9.854 19.468,9.8237 19.46,9.7934 19.453,9.763 19.447,9.7327 19.443,9.7025 19.44,9.6725 19.438,9.6427 l 0,-0.0294 c 0,-0.375 0.312,-0.5 0.531,-0.5 0.469,0 0.812,0.4062 0.812,0.8437 0,0.656 -0.765,0.969 -1.437,0.969 -0.969,0 -1.5,-0.9533 -1.641,-1.2658 -0.375,1.2028 -1.359,1.2658 -1.641,1.2658 -1.624,0 -2.484,-2.094 -2.484,-2.4377 0,-0.0625 0.063,-0.1406 0.172,-0.1406 0.125,0 0.156,0.0937 0.188,0.1562 0.546,1.7651 1.609,2.0941 2.078,2.0941 0.703,0 0.859,-0.6566 0.859,-1.0472 0,-0.3438 -0.094,-0.7188 -0.297,-1.4688 L 16.047,5.8945 C 15.797,4.9414 15.344,4.0664 14.5,4.0664 c -0.078,0 -0.469,0 -0.812,0.2031 0.578,0.125 0.703,0.5938 0.703,0.7813 0,0.3281 -0.235,0.5156 -0.547,0.5156 -0.375,0 -0.797,-0.3437 -0.797,-0.8437 0,-0.6719 0.75,-0.9688 1.437,-0.9688 0.766,0 1.297,0.5938 1.641,1.25 0.25,-0.9375 1.047,-1.25 1.641,-1.25 1.609,0 2.468,2.0781 2.468,2.4219 0,0.0937 -0.062,0.1562 -0.156,0.1562 -0.14,0 -0.156,-0.0781 -0.203,-0.2187 -0.437,-1.3906 -1.359,-2.0469 -2.063,-2.0469 -0.562,0 -0.859,0.4219 -0.859,1.0625 0,0.3594 0.063,0.6094 0.313,1.6563 l 0.562,2.1562 c 0.234,0.9531 0.766,1.6566 1.5,1.6566 0.031,0 0.484,0 0.813,-0.204 z"
   id="path13"
   inkscape:connector-curvature="0"
   style="fill:#000000;stroke-width:0" />
<path
   d="m 36.641,9.0664 0.041,10e-5 0.043,5e-4 0.043,0.0013 0.022,0.0011 0.021,0.0014 0.021,0.0019 0.022,0.0023 0.02,0.0028 0.021,0.0034 0.02,0.0041 0.02,0.0047 0.019,0.0054 0.019,0.0062 0.018,0.007 0.017,0.0079 0.016,0.0088 0.016,0.0098 0.015,0.0108 0.014,0.0119 0.013,0.013 0.011,0.0143 0.006,0.0075 0.005,0.0079 0.005,0.0082 0.004,0.0086 0.004,0.0088 0.004,0.0093 0.004,0.0095 0.003,0.0099 0.003,0.0103 0.002,0.0106 0.003,0.0111 10e-4,0.0114 0.002,0.0117 10e-4,0.0122 0,0.0126 10e-4,0.013 c 0,0.2968 -0.266,0.2968 -0.5,0.2968 h -9.375 c -0.219,0 -0.5,0 -0.5,-0.2812 0,-0.2969 0.265,-0.2969 0.5,-0.2969 z"
   id="path15"
   inkscape:connector-curvature="0"
   style="fill:#000000;stroke-width:0" />
<path
   d="m 36.641,6.0977 0.041,0 0.043,5e-4 0.043,0.0014 0.022,0.0012 0.021,0.0015 0.021,0.002 0.022,0.0024 0.02,0.003 0.021,0.0036 0.02,0.0043 0.02,0.0049 0.019,0.0057 0.019,0.0066 0.018,0.0074 0.017,0.0083 0.016,0.0093 0.016,0.0103 0.015,0.0115 0.014,0.0125 0.013,0.0138 0.011,0.015 0.006,0.008 0.005,0.0083 0.005,0.0087 0.004,0.009 0.004,0.0094 0.004,0.0097 0.004,0.0101 0.003,0.0104 0.003,0.0109 0.002,0.0112 0.003,0.0116 10e-4,0.0121 0.002,0.0124 10e-4,0.0129 0,0.0132 10e-4,0.0137 c 0,0.2969 -0.266,0.2969 -0.5,0.2969 h -9.375 c -0.219,0 -0.5,0 -0.5,-0.2812 0,-0.3125 0.265,-0.3125 0.5,-0.3125 z"
   id="path17"
   inkscape:connector-curvature="0"
   style="fill:#000000;stroke-width:0" />
<path
   d="m 45.148,10.301 h 2.235 v 0.453 h -2.235 v 2.937 h -0.343 c -0.032,-1.5 -0.594,-3.031 -2.047,-3.078 v -0.312 h 1.359 V 5.8789 c 0,-1.7656 1.172,-2.125 2.016,-2.125 1,0 1.531,0.9844 1.531,2.125 v 0.9063 h -0.359 v -0.875 c 0,-1.1407 -0.453,-1.8125 -1.078,-1.8125 -1.079,0 -1.079,1.4843 -1.079,1.75 z"
   id="path19"
   inkscape:connector-curvature="0"
   style="fill:#000000;stroke-width:0" />
<path
   d="m 55.621,7.7695 0,0.1362 0,0.1302 0,0.1244 -0.001,0.119 0,0.1136 -10e-4,0.1086 -0.002,0.1036 -0.002,0.099 -0.002,0.0945 -0.003,0.0902 -0.004,0.0861 -0.005,0.0822 -0.005,0.0786 -0.006,0.0751 -0.008,0.0719 -0.008,0.0689 -0.009,0.066 -0.011,0.0633 -0.011,0.061 -0.013,0.0587 -0.015,0.0567 -0.016,0.0549 -0.017,0.0533 -0.019,0.0519 -0.021,0.0507 -0.022,0.0497 -0.024,0.0489 -0.026,0.0483 -0.028,0.048 -0.03,0.048 -0.032,0.048 -0.034,0.048 c -0.453,0.609 -1.203,0.719 -1.75,0.719 -1.359,0 -2,-1.0471 -2.219,-1.5315 h -0.015 v 5.5465 l -2.203,-0.172 v -0.468 c 1.078,0 1.203,-0.11 1.203,-0.891 V 5.082 c 0,-0.7187 -0.172,-0.7187 -1.203,-0.7187 V 3.9102 c 0.406,0.0312 1.265,0.0312 1.703,0.0312 0.468,0 1.328,0 1.734,-0.0312 v 0.4531 c -1.016,0 -1.203,0 -1.203,0.7187 v 2.9532 c 0,1.6718 1.094,2.5628 2.078,2.5628 0.984,0 1.219,-0.8128 1.219,-1.7816 V 5.082 c 0,-0.7187 -0.188,-0.7187 -1.219,-0.7187 V 3.9102 c 0.422,0.0312 1.281,0.0312 1.719,0.0312 0.469,0 1.328,0 1.734,-0.0312 v 0.4531 c -0.797,0 -1.187,0 -1.203,0.4844 z"
   id="path21"
   inkscape:connector-curvature="0"
   style="fill:#000000;stroke-width:0" />
<path
   d="m 63.305,7.5977 0.016,0 0.015,0 0.015,0 0.015,0 0.014,1e-4 0.013,10e-5 0.014,10e-5 0.012,2e-4 0.013,3e-4 0.012,3e-4 0.012,4e-4 0.011,4e-4 0.011,5e-4 0.01,7e-4 0.011,7e-4 0.009,8e-4 0.01,9e-4 0.009,0.0011 0.009,0.0011 0.008,0.0013 0.016,0.003 0.014,0.0036 0.014,0.0043 0.012,0.0049 0.011,0.0057 0.01,0.0066 0.009,0.0074 0.008,0.0083 0.007,0.0093 0.007,0.0103 0.005,0.0115 0.005,0.0125 0.004,0.0138 0.003,0.015 0.002,0.008 10e-4,0.0083 0.001,0.0087 0.002,0.009 0,0.0094 0.001,0.0097 10e-4,0.0101 10e-4,0.0104 0,0.0109 0.001,0.0112 0,0.0116 0,0.0121 0,0.0124 10e-4,0.0129 0,0.0132 0,0.0137 c 0,1.6094 -0.86,3.1095 -2.782,3.1095 -1.812,0 -3.203,-1.6407 -3.203,-3.6095 0,-2.1093 1.61,-3.6406 3.375,-3.6406 1.891,0 2.61,1.7188 2.61,2.0469 0,0.0937 -0.078,0.1562 -0.172,0.1562 -0.125,0 -0.156,-0.0781 -0.188,-0.1562 -0.422,-1.3281 -1.484,-1.7031 -2.156,-1.7031 -0.656,0 -2.266,0.4531 -2.266,3.2031 v 0.2969 l 0.016,0.2968 c 0.125,2.4995 1.516,2.7815 1.969,2.7815 1.703,0 1.797,-2.2346 1.812,-2.7815 H 58.914 L 58.898,7.5977 z"
   id="path23"
   inkscape:connector-curvature="0"
   style="fill:#000000;stroke-width:0" />
<path
   d="M 73.539,2.1289 73.455,2.0157 73.366,1.9049 73.274,1.7974 73.177,1.6936 73.127,1.6434 73.075,1.5943 73.023,1.5466 72.97,1.5002 72.916,1.4553 72.861,1.4119 72.805,1.3701 72.748,1.3301 72.69,1.2918 72.631,1.2554 72.571,1.2209 72.51,1.1885 72.449,1.1582 72.386,1.1301 72.323,1.1043 72.258,1.0808 72.193,1.0598 72.126,1.0413 72.059,1.0255 71.991,1.0123 71.923,1.0019 71.853,0.9944 71.782,0.98982 71.711,0.98828 c -0.203,0 -0.953,0.03122 -1.203,0.76562 0.047,-0.0156 0.125,-0.0156 0.156,-0.0156 0.484,0 0.797,0.4062 0.797,0.7656 0,0.375 -0.297,0.5 -0.531,0.5 -0.266,0 -0.813,-0.1875 -0.813,-0.9687 0,-0.8125 0.688,-1.37504 1.594,-1.37504 1.578,0 3.187,1.46874 3.625,3.23434 l 1.562,6.2035 c 0.016,0.078 0.047,0.171 0.047,0.265 0,0.235 -0.187,0.391 -0.422,0.391 -0.14,0 -0.484,-0.063 -0.609,-0.531 L 74.742,5.5508 C 74.664,5.2539 74.664,5.2227 74.539,5.0508 74.211,4.6133 73.695,4.0664 72.93,4.0664 c -0.891,0 -0.969,0.875 -0.969,1.3125 0,0.9063 0.422,2.125 0.859,3.2656 0.172,0.4688 0.266,0.6875 0.266,1 0,0.6715 -0.469,1.2815 -1.25,1.2815 -1.469,0 -2.063,-2.3127 -2.063,-2.4377 0,-0.0625 0.079,-0.1406 0.188,-0.1406 0.141,0 0.156,0.0625 0.219,0.2812 0.375,1.3438 0.984,1.9691 1.609,1.9691 0.141,0 0.406,0 0.406,-0.516 0,-0.4218 -0.172,-0.875 -0.406,-1.4843 -0.781,-2.0782 -0.781,-2.6094 -0.781,-2.9844 0,-1.5156 1.078,-1.8594 1.875,-1.8594 0.453,0 1.031,0.1406 1.594,0.7344 L 74.492,4.4727 C 74.242,3.5352 74.086,2.9102 73.539,2.1289 z"
   id="path25"
   inkscape:connector-curvature="0"
   style="fill:#000000;stroke-width:0" />
<path
   d="m 87.957,10.629 0,0.014 0,0.013 0,0.013 0,0.013 0,0.025 0,0.023 -10e-4,0.023 0,0.021 -0.001,0.02 -0.001,0.019 -10e-4,0.018 -0.001,0.016 -0.002,0.016 -0.002,0.015 -0.003,0.014 -0.002,0.013 -0.004,0.012 -0.003,0.011 -0.005,0.01 -0.005,0.009 -0.005,0.009 -0.006,0.008 -0.007,0.006 -0.007,0.007 -0.008,0.005 -0.008,0.005 -0.01,0.004 -0.01,0.004 -0.011,0.003 -0.012,0.002 -0.013,0.002 -0.014,10e-4 -0.014,10e-4 -0.016,0 c -0.125,0 -0.422,-0.36 -0.531,-0.5 -0.5,0.406 -0.984,0.5 -1.5,0.5 -1.922,0 -2.484,-1.047 -2.484,-1.922 0,-0.1875 0,-0.7343 0.593,-1.2968 C 84.379,7.3477 84.91,7.2383 85.645,7.082 86.52,6.9102 86.723,6.8633 87.129,6.5508 87.41,6.3164 87.613,5.957 87.613,5.5195 c 0,-0.6875 -0.39,-1.4531 -1.797,-1.4531 -1.046,0 -1.812,0.6094 -2.156,2.2031 -0.062,0.2813 -0.062,0.2969 -0.078,0.3125 -0.031,0.0625 -0.094,0.0625 -0.141,0.0625 -0.171,0 -0.171,-0.0781 -0.171,-0.3593 V 4.1133 c 0,-0.2813 0,-0.3594 0.156,-0.3594 0.078,0 0.094,0.0156 0.359,0.3438 0.078,0.1093 0.078,0.1406 0.313,0.4062 0.609,-0.75 1.468,-0.75 1.734,-0.75 1.672,0 2.5,0.9219 2.5,2.1719 0,0.8594 -0.531,1.375 -0.672,1.5156 -0.562,0.4844 -1,0.5781 -2.047,0.7813 -0.468,0.0937 -1.64,0.3125 -1.64,1.2656 0,0.5 0.343,1.2187 1.765,1.2187 1.735,0 1.828,-1.4687 1.86,-1.9687 0.015,-0.125 0.125,-0.125 0.172,-0.125 0.187,0 0.187,0.0781 0.187,0.3594 z"
   id="path27"
   inkscape:connector-curvature="0"
   style="fill:#000000;stroke-width:0" />
<path
   d="m 93.723,10.738 v -0.453 c 1.078,0 1.218,-0.109 1.218,-0.8905 V 6.5508 c 0,-1.3594 -0.718,-2.4844 -1.921,-2.4844 -1.297,0 -1.375,0.75 -1.375,1.5938 V 10.926 L 89.41,10.738 v -0.453 c 1.203,0 1.203,-0.047 1.203,-1.4686 v -2.375 c 0,-0.9844 0,-1.5625 0.469,-2.0937 0.391,-0.4063 1.031,-0.5938 1.844,-0.5938 0.281,0 0.781,0 1.328,0.4531 0.453,0.375 0.719,0.9688 0.719,0.9688 V 3.7539 l 2.203,0.1563 v 0.4531 c -1.078,0 -1.203,0.125 -1.203,0.8906 v 5.6721 z"
   id="path29"
   inkscape:connector-curvature="0"
   style="fill:#000000;stroke-width:0" />
<path
   d="m 103.31,9.7852 -0.02,-10e-5 -0.02,-10e-5 -0.02,-4e-4 -0.03,-7e-4 -0.02,-0.0012 -0.03,-0.0018 -0.03,-0.0024 -0.03,-0.0033 -0.03,-0.0043 -0.03,-0.0053 -0.03,-0.0065 -0.04,-0.0077 -0.03,-0.0092 -0.03,-0.0107 -0.04,-0.0123 -0.03,-0.0141 -0.03,-0.016 -0.03,-0.018 -0.03,-0.02 -0.03,-0.0223 -0.03,-0.0247 -0.01,-0.0132 -0.02,-0.0139 -0.01,-0.0145 -0.01,-0.0152 -0.01,-0.0159 -0.01,-0.0165 -0.01,-0.0173 -0.01,-0.0179 -0.01,-0.0187 -0.01,-0.0195 -0.01,-0.0202 -0.01,-0.021 -0.01,-0.0217 0,-0.0226 -0.01,-0.0234 0,-0.0243 -0.01,-0.025 0,-0.026 -0.01,-0.0268 0,-0.0278 0,-0.0286 0,-0.0296 c 0,-0.3906 0.28,-0.6562 0.66,-0.6562 0.36,0 0.67,0.2187 0.67,0.6875 0,1.0622 -1.11,1.8282 -2.41,1.8282 -1.856,0 -3.325,-1.6563 -3.325,-3.6563 0,-2.0313 1.516,-3.5938 3.315,-3.5938 2.09,0 2.58,1.9063 2.58,2.0469 0,0.1406 -0.11,0.1406 -0.16,0.1406 -0.14,0 -0.16,-0.0469 -0.2,-0.2344 -0.36,-1.125 -1.22,-1.6093 -2.08,-1.6093 -0.97,0 -2.252,0.8437 -2.252,3.2656 0,2.6407 1.342,3.2807 2.142,3.2807 0.61,0 1.48,-0.234 1.84,-0.8588 z"
   id="path31"
   inkscape:connector-curvature="0"
   style="fill:#000000;stroke-width:0" />
<path
   d="m 111.14,7.7695 0,0.1362 0,0.1302 0,0.1244 0,0.119 0,0.1136 0,0.1086 0,0.1036 0,0.099 0,0.0945 -0.01,0.0902 0,0.0861 0,0.0822 -0.01,0.0786 -0.01,0.0751 0,0.0719 -0.01,0.0689 -0.01,0.066 -0.01,0.0633 -0.01,0.061 -0.02,0.0587 -0.01,0.0567 -0.02,0.0549 -0.01,0.0533 -0.02,0.0519 -0.02,0.0507 -0.03,0.0497 -0.02,0.0489 -0.03,0.0483 -0.02,0.048 -0.03,0.048 -0.04,0.048 -0.03,0.048 c -0.45,0.609 -1.2,0.719 -1.75,0.719 -1.36,0 -2,-1.0471 -2.22,-1.5315 h -0.01 v 5.5465 l -2.21,-0.172 v -0.468 c 1.08,0 1.21,-0.11 1.21,-0.891 V 5.082 c 0,-0.7187 -0.18,-0.7187 -1.21,-0.7187 V 3.9102 c 0.41,0.0312 1.27,0.0312 1.71,0.0312 0.46,0 1.32,0 1.73,-0.0312 v 0.4531 c -1.02,0 -1.2,0 -1.2,0.7187 v 2.9532 c 0,1.6718 1.09,2.5628 2.07,2.5628 0.99,0 1.22,-0.8128 1.22,-1.7816 V 5.082 c 0,-0.7187 -0.18,-0.7187 -1.22,-0.7187 V 3.9102 c 0.43,0.0312 1.29,0.0312 1.72,0.0312 0.47,0 1.33,0 1.74,-0.0312 v 0.4531 c -0.8,0 -1.19,0 -1.21,0.4844 z"
   id="path33"
   inkscape:connector-curvature="0"
   style="fill:#000000;stroke-width:0" />
<path
   d="m 120.61,10.301 h 2.23 v 0.453 h -2.23 v 2.937 h -0.35 c -0.03,-1.5 -0.59,-3.031 -2.05,-3.078 v -0.312 h 1.36 V 5.8789 c 0,-1.7656 1.18,-2.125 2.02,-2.125 1,0 1.53,0.9844 1.53,2.125 v 0.9063 h -0.36 v -0.875 c 0,-1.1407 -0.45,-1.8125 -1.08,-1.8125 -1.07,0 -1.07,1.4843 -1.07,1.75 z"
   id="path35"
   inkscape:connector-curvature="0"
   style="fill:#000000;stroke-width:0" />
<path
   d="m 131.08,7.7695 0,0.1362 0,0.1302 0,0.1244 0,0.119 0,0.1136 0,0.1086 -0.01,0.1036 0,0.099 0,0.0945 0,0.0902 -0.01,0.0861 0,0.0822 -0.01,0.0786 0,0.0751 -0.01,0.0719 -0.01,0.0689 -0.01,0.066 -0.01,0.0633 -0.01,0.061 -0.01,0.0587 -0.02,0.0567 -0.01,0.0549 -0.02,0.0533 -0.02,0.0519 -0.02,0.0507 -0.02,0.0497 -0.03,0.0489 -0.02,0.0483 -0.03,0.048 -0.03,0.048 -0.03,0.048 -0.04,0.048 c -0.45,0.609 -1.2,0.719 -1.75,0.719 -1.36,0 -2,-1.0471 -2.22,-1.5315 h -0.01 v 5.5465 l -2.2,-0.172 v -0.468 c 1.07,0 1.2,-0.11 1.2,-0.891 V 5.082 c 0,-0.7187 -0.17,-0.7187 -1.2,-0.7187 V 3.9102 c 0.4,0.0312 1.26,0.0312 1.7,0.0312 0.47,0 1.33,0 1.73,-0.0312 v 0.4531 c -1.01,0 -1.2,0 -1.2,0.7187 v 2.9532 c 0,1.6718 1.09,2.5628 2.08,2.5628 0.98,0 1.22,-0.8128 1.22,-1.7816 V 5.082 c 0,-0.7187 -0.19,-0.7187 -1.22,-0.7187 V 3.9102 c 0.42,0.0312 1.28,0.0312 1.72,0.0312 0.47,0 1.33,0 1.73,-0.0312 v 0.4531 c -0.8,0 -1.19,0 -1.2,0.4844 z"
   id="path37"
   inkscape:connector-curvature="0"
   style="fill:#000000;stroke-width:0" />
<path
   d="m 138.81,8.1602 0,0.1584 0,0.1533 -0.01,0.1485 0,0.144 -0.01,0.1399 -0.01,0.0685 -0.01,0.0676 -0.01,0.0668 -0.01,0.0659 -0.01,0.0652 -0.02,0.0644 -0.02,0.0638 -0.02,0.0631 -0.02,0.0625 -0.02,0.0619 -0.03,0.0615 -0.03,0.0609 -0.03,0.0606 -0.04,0.0601 -0.04,0.0598 -0.04,0.0595 -0.04,0.0592 -0.05,0.0594 -0.05,0.059 -0.06,0.058 -0.06,0.059 -0.07,0.058 c -0.56,0.5 -1.26,0.735 -1.96,0.735 -1.32,0 -2.32,-0.86 -2.32,-1.8907 0,-0.4688 0.32,-0.6875 0.68,-0.6875 0.37,0 0.65,0.2656 0.65,0.6562 0,0.6407 -0.58,0.6407 -0.81,0.6407 0.36,0.6713 1.12,0.9533 1.76,0.9533 0.74,0 1.68,-0.594 1.68,-2.0315 V 8.0039 7.7227 6.1445 c 0,-1.5468 -1.18,-2.0781 -1.85,-2.0781 -0.78,0 -1.43,0.5781 -1.43,1.3438 0,2.0937 2.7,2.2812 3.28,2.3125 v 0.2812 c -3.21,-0.0469 -4.41,-1.375 -4.41,-2.5937 0,-1.2657 1.45,-1.6563 2.42,-1.6563 1.06,0 1.77,0.6406 2.08,1.3906 0.06,-0.7343 0.55,-1.3125 1.23,-1.3125 0.33,0 1.25,0.2188 1.25,1.5 v 0.875 h -0.34 V 5.332 c 0,-0.9062 -0.37,-1.0468 -0.61,-1.0468 -0.59,0 -0.59,0.8437 -0.59,1.0937 z"
   id="path39"
   inkscape:connector-curvature="0"
   style="fill:#000000;stroke-width:0" />
<path
   d="m 143.15,10.301 h 2.23 v 0.453 h -2.23 v 2.937 h -0.35 c -0.03,-1.5 -0.59,-3.031 -2.05,-3.078 v -0.312 h 1.36 V 5.8789 c 0,-1.7656 1.18,-2.125 2.02,-2.125 1,0 1.53,0.9844 1.53,2.125 v 0.9063 h -0.36 v -0.875 c 0,-1.1407 -0.45,-1.8125 -1.08,-1.8125 -1.07,0 -1.07,1.4843 -1.07,1.75 z"
   id="path41"
   inkscape:connector-curvature="0"
   style="fill:#000000;stroke-width:0" />
<path
   d="m 155.95,2.1289 -0.09,-0.1132 -0.08,-0.1108 -0.1,-0.1075 -0.09,-0.1038 -0.05,-0.0502 -0.05,-0.0491 -0.06,-0.0477 -0.05,-0.0464 -0.05,-0.0449 -0.06,-0.0434 -0.05,-0.0418 -0.06,-0.04 L 155.1,1.2918 155.04,1.2554 154.98,1.2209 154.92,1.1885 154.86,1.1582 154.8,1.1301 154.73,1.1043 154.67,1.0808 154.6,1.0598 154.54,1.0413 154.47,1.0255 154.4,1.0123 154.33,1.0019 154.26,0.9944 154.19,0.98982 154.12,0.98828 c -0.2,0 -0.95,0.03122 -1.2,0.76562 0.04,-0.0156 0.12,-0.0156 0.15,-0.0156 0.49,0 0.8,0.4062 0.8,0.7656 0,0.375 -0.3,0.5 -0.53,0.5 -0.27,0 -0.81,-0.1875 -0.81,-0.9687 0,-0.8125 0.68,-1.37504 1.59,-1.37504 1.58,0 3.19,1.46874 3.63,3.23434 l 1.56,6.2035 c 0.01,0.078 0.04,0.171 0.04,0.265 0,0.235 -0.18,0.391 -0.42,0.391 -0.14,0 -0.48,-0.063 -0.61,-0.531 l -1.17,-4.6722 c -0.08,-0.2969 -0.08,-0.3281 -0.2,-0.5 -0.33,-0.4375 -0.85,-0.9844 -1.61,-0.9844 -0.89,0 -0.97,0.875 -0.97,1.3125 0,0.9063 0.42,2.125 0.86,3.2656 0.17,0.4688 0.27,0.6875 0.27,1 0,0.6715 -0.47,1.2815 -1.25,1.2815 -1.47,0 -2.07,-2.3127 -2.07,-2.4377 0,-0.0625 0.08,-0.1406 0.19,-0.1406 0.14,0 0.16,0.0625 0.22,0.2812 0.37,1.3438 0.98,1.9691 1.61,1.9691 0.14,0 0.4,0 0.4,-0.516 0,-0.4218 -0.17,-0.875 -0.4,-1.4843 -0.78,-2.0782 -0.78,-2.6094 -0.78,-2.9844 0,-1.5156 1.08,-1.8594 1.87,-1.8594 0.46,0 1.03,0.1406 1.6,0.7344 l 0.01,-0.0156 c -0.25,-0.9375 -0.4,-1.5625 -0.95,-2.3438 z"
   id="path43"
   inkscape:connector-curvature="0"
   style="fill:#000000;stroke-width:0" />
<path
   d="m 175.09,9.0664 0.02,0.0088 0.02,0.009 0.02,0.009 0.02,0.0091 0.01,0.0093 0.02,0.0093 0.02,0.0094 0.01,0.0096 0.02,0.0097 0.01,0.0098 0.01,0.0099 0.01,0.01 0.02,0.0102 0.01,0.0102 0.01,0.0105 0.01,0.0105 0.01,0.0107 0.01,0.0108 0,0.011 0.01,0.0111 0.01,0.0113 0,0.0114 0.01,0.0116 0,0.0117 0.01,0.0119 0,0.012 0.01,0.0123 0,0.0124 0,0.0125 0,0.0128 0,0.0129 0,0.0131 c 0,0.1562 -0.06,0.25 -0.31,0.3593 l -8.77,4.1405 c -0.22,0.109 -0.28,0.109 -0.31,0.109 -0.19,0 -0.33,-0.14 -0.33,-0.312 0,-0.203 0.14,-0.281 0.32,-0.359 l 8.34,-3.9222 -8.31,-3.9219 c -0.33,-0.1406 -0.35,-0.2812 -0.35,-0.375 0,-0.1719 0.16,-0.3125 0.33,-0.3125 0.05,0 0.08,0 0.28,0.1094 z"
   id="path45"
   inkscape:connector-curvature="0"
   style="fill:#000000;stroke-width:0" />
<path
   d="m 174.84,1.7383 0.05,10e-5 0.05,5e-4 0.06,0.0014 0.02,0.0013 0.03,0.0016 0.02,0.002 0.02,0.0026 0.03,0.0032 0.02,0.0038 0.02,0.0044 0.03,0.0052 0.02,0.0061 0.02,0.0068 0.02,0.0078 0.01,0.0088 0.02,0.0098 0.02,0.0109 0.01,0.012 0.02,0.0132 0.01,0.0145 0.01,0.0158 0.01,0.0172 0.01,0.0091 0,0.0095 0.01,0.0099 0,0.0102 0.01,0.0106 0,0.011 0,0.0114 0,0.0119 0.01,0.0122 0,0.0127 0,0.0131 0,0.0135 0,0.014 0,0.0144 c 0,0.3125 -0.33,0.3125 -0.58,0.3125 h -8.56 c -0.23,0 -0.58,0 -0.58,-0.3125 0,-0.3125 0.3,-0.3125 0.57,-0.3125 z"
   id="path47"
   inkscape:connector-curvature="0"
   style="fill:#000000;stroke-width:0" />
<path
   d="m 188.32,9.0039 0,0.2457 0,0.245 -0.01,0.2441 -0.01,0.2432 -0.02,0.2421 -0.02,0.242 -0.02,0.24 -0.03,0.239 -0.04,0.239 -0.04,0.237 -0.06,0.235 -0.06,0.235 -0.07,0.233 -0.08,0.233 -0.09,0.23 -0.05,0.115 -0.06,0.114 c -0.65,1.313 -1.79,1.657 -2.57,1.657 -0.93,0 -2.05,-0.454 -2.64,-1.766 -0.44,-1.016 -0.6,-2 -0.6,-3.7031 0,-1.5469 0.11,-2.7031 0.67,-3.8437 0.63,-1.2032 1.72,-1.5782 2.55,-1.5782 v 0.3125 c -0.5,0 -1.53,0.2813 -1.84,2.0157 -0.18,0.9531 -0.18,2.1718 -0.18,3.2812 0,1.2966 0,2.4686 0.25,3.4066 0.29,1.078 1.08,1.562 1.77,1.562 0.61,0 1.53,-0.359 1.83,-1.734 0.2,-0.907 0.2,-2.157 0.2,-3.2346 0,-1.0625 0,-2.2812 -0.17,-3.25 -0.3,-1.75 -1.3,-2.0469 -1.86,-2.0469 h 0 V 3.582 c 1.39,0 2.19,0.8282 2.64,1.75 0.58,1.1875 0.61,2.75 0.61,3.6719 z"
   id="path49"
   inkscape:connector-curvature="0"
   style="fill:#000000;stroke-width:0" />
<path
   d="m 200.34,8.1602 0,0.1584 -0.01,0.1533 0,0.1485 0,0.144 -0.02,0.1399 0,0.0685 -0.01,0.0676 -0.01,0.0668 -0.01,0.0659 -0.02,0.0652 -0.01,0.0644 -0.02,0.0638 -0.02,0.0631 -0.02,0.0625 -0.03,0.0619 -0.02,0.0615 -0.03,0.0609 -0.04,0.0606 -0.03,0.0601 -0.04,0.0598 -0.04,0.0595 -0.05,0.0592 -0.04,0.0594 -0.06,0.059 -0.05,0.058 -0.06,0.059 -0.07,0.058 c -0.56,0.5 -1.26,0.735 -1.97,0.735 -1.31,0 -2.31,-0.86 -2.31,-1.8907 0,-0.4688 0.31,-0.6875 0.67,-0.6875 0.38,0 0.66,0.2656 0.66,0.6562 0,0.6407 -0.58,0.6407 -0.81,0.6407 0.36,0.6713 1.12,0.9533 1.76,0.9533 0.74,0 1.67,-0.594 1.67,-2.0315 V 8.0039 7.7227 6.1445 c 0,-1.5468 -1.17,-2.0781 -1.84,-2.0781 -0.78,0 -1.44,0.5781 -1.44,1.3438 0,2.0937 2.71,2.2812 3.28,2.3125 v 0.2812 c -3.2,-0.0469 -4.4,-1.375 -4.4,-2.5937 0,-1.2657 1.45,-1.6563 2.42,-1.6563 1.06,0 1.77,0.6406 2.08,1.3906 0.06,-0.7343 0.55,-1.3125 1.23,-1.3125 0.33,0 1.25,0.2188 1.25,1.5 v 0.875 h -0.34 V 5.332 c 0,-0.9062 -0.38,-1.0468 -0.61,-1.0468 -0.59,0 -0.59,0.8437 -0.59,1.0937 z"
   id="path51"
   inkscape:connector-curvature="0"
   style="fill:#000000;stroke-width:0" />
<path
   d="m 209.07,7.7695 0,0.1362 0,0.1302 0,0.1244 0,0.119 0,0.1136 0,0.1086 0,0.1036 0,0.099 0,0.0945 -0.01,0.0902 0,0.0861 -0.01,0.0822 0,0.0786 -0.01,0.0751 0,0.0719 -0.01,0.0689 -0.01,0.066 -0.01,0.0633 -0.01,0.061 -0.02,0.0587 -0.01,0.0567 -0.02,0.0549 -0.02,0.0533 -0.01,0.0519 -0.02,0.0507 -0.03,0.0497 -0.02,0.0489 -0.03,0.0483 -0.03,0.048 -0.02,0.048 -0.04,0.048 -0.03,0.048 c -0.45,0.609 -1.2,0.719 -1.75,0.719 -1.53,0 -2.14,-1.3283 -2.27,-1.6408 h -0.01 v 1.6408 l -2.16,-0.188 v -0.453 c 1.08,0 1.2,-0.109 1.2,-0.8905 V 5.082 c 0,-0.7187 -0.17,-0.7187 -1.2,-0.7187 V 3.9102 c 0.41,0.0312 1.27,0.0312 1.7,0.0312 0.47,0 1.33,0 1.74,-0.0312 v 0.4531 c -1.02,0 -1.2,0 -1.2,0.7187 v 2.9532 c 0,1.6718 1.09,2.5628 2.07,2.5628 0.99,0 1.22,-0.8128 1.22,-1.7816 V 5.082 c 0,-0.7187 -0.19,-0.7187 -1.22,-0.7187 V 3.9102 c 0.43,0.0312 1.28,0.0312 1.72,0.0312 0.47,0 1.33,0 1.74,-0.0312 v 0.4531 c -0.8,0 -1.19,0 -1.21,0.4844 z"
   id="path53"
   inkscape:connector-curvature="0"
   style="fill:#000000;stroke-width:0" />
<path
   d="m 215.43,14.769 v -0.468 c 1.08,0 1.2,-0.11 1.2,-0.891 V 9.8945 c -0.33,0.4685 -1.01,1.0315 -1.98,1.0315 -1.85,0 -3.42,-1.5627 -3.42,-3.594 0,-2.0156 1.5,-3.5781 3.25,-3.5781 1.2,0 1.9,0.7969 2.12,1.0938 l -0.22,0.2343 c -0.37,-0.5468 -1.03,-1.0156 -1.83,-1.0156 -0.4,0 -2.12,0.1563 -2.12,3.25 0,1.1406 0.19,1.7813 0.53,2.2969 0.33,0.4997 0.97,0.9847 1.75,0.9847 0.99,0 1.55,-0.7191 1.7,-0.9691 0.19,-0.2656 0.19,-0.2969 0.19,-0.5781 V 5.7695 c 0,-0.2812 0,-0.3281 -0.22,-0.6875 L 216.6,4.8477 V 3.7539 l 2.25,0.1563 v 0.4531 c -1.08,0 -1.2,0.125 -1.2,0.8906 v 9.6871 z"
   id="path55"
   inkscape:connector-curvature="0"
   style="fill:#000000;stroke-width:0" />
<path
   d="m 228.74,2.1289 -0.09,-0.1132 -0.08,-0.1108 -0.1,-0.1075 -0.09,-0.1038 -0.05,-0.0502 -0.06,-0.0491 -0.05,-0.0477 -0.05,-0.0464 -0.05,-0.0449 -0.06,-0.0434 -0.06,-0.0418 -0.05,-0.04 -0.06,-0.0383 -0.06,-0.0364 -0.06,-0.0345 -0.06,-0.0324 -0.06,-0.0303 -0.06,-0.0281 -0.07,-0.0258 -0.06,-0.0235 -0.07,-0.021 -0.06,-0.0185 -0.07,-0.0158 -0.07,-0.0132 -0.07,-0.0104 -0.07,-0.0075 -0.07,-0.00458 -0.07,-0.00154 c -0.2,0 -0.95,0.03122 -1.2,0.76562 0.04,-0.0156 0.12,-0.0156 0.15,-0.0156 0.49,0 0.8,0.4062 0.8,0.7656 0,0.375 -0.3,0.5 -0.53,0.5 -0.27,0 -0.81,-0.1875 -0.81,-0.9687 0,-0.8125 0.68,-1.37504 1.59,-1.37504 1.58,0 3.19,1.46874 3.63,3.23434 l 1.56,6.2035 c 0.01,0.078 0.05,0.171 0.05,0.265 0,0.235 -0.19,0.391 -0.43,0.391 -0.14,0 -0.48,-0.063 -0.61,-0.531 l -1.17,-4.6722 c -0.08,-0.2969 -0.08,-0.3281 -0.2,-0.5 -0.33,-0.4375 -0.84,-0.9844 -1.61,-0.9844 -0.89,0 -0.97,0.875 -0.97,1.3125 0,0.9063 0.42,2.125 0.86,3.2656 0.17,0.4688 0.27,0.6875 0.27,1 0,0.6715 -0.47,1.2815 -1.25,1.2815 -1.47,0 -2.07,-2.3127 -2.07,-2.4377 0,-0.0625 0.08,-0.1406 0.19,-0.1406 0.14,0 0.16,0.0625 0.22,0.2812 0.37,1.3438 0.98,1.9691 1.61,1.9691 0.14,0 0.41,0 0.41,-0.516 0,-0.4218 -0.18,-0.875 -0.41,-1.4843 -0.78,-2.0782 -0.78,-2.6094 -0.78,-2.9844 0,-1.5156 1.08,-1.8594 1.87,-1.8594 0.46,0 1.03,0.1406 1.6,0.7344 l 0.01,-0.0156 c -0.25,-0.9375 -0.4,-1.5625 -0.95,-2.3438 z"
   id="path57"
   inkscape:connector-curvature="0"
   style="fill:#000000;stroke-width:0" />
<path
   d="m 234.16,11.352 1.17,1.156 c 1.75,1.531 2.42,2.14 2.42,3.25 0,1.265 -1.02,2.172 -2.37,2.172 -1.26,0 -2.08,-1.032 -2.08,-2.032 0,-0.625 0.54,-0.625 0.59,-0.625 0.19,0 0.58,0.141 0.58,0.594 0,0.297 -0.2,0.578 -0.59,0.578 -0.1,0 -0.11,0 -0.15,0 0.25,0.719 0.86,1.125 1.5,1.125 1.02,0 1.5,-0.89 1.5,-1.812 0,-0.891 -0.56,-1.781 -1.17,-2.469 l -2.14,-2.391 c -0.12,-0.109 -0.12,-0.14 -0.12,-0.406 h 4.14 l 0.31,1.938 h -0.28 c -0.06,-0.328 -0.14,-0.828 -0.25,-0.985 -0.08,-0.093 -0.81,-0.093 -1.06,-0.093 z"
   id="path59"
   inkscape:connector-curvature="0"
   style="fill:#000000;stroke-width:0" />
<path
   d="m 253.97,9.0664 0.04,10e-5 0.05,5e-4 0.04,0.0013 0.02,0.0011 0.02,0.0014 0.02,0.0019 0.03,0.0023 0.02,0.0028 0.02,0.0034 0.02,0.0041 0.02,0.0047 0.02,0.0054 0.01,0.0062 0.02,0.007 0.02,0.0079 0.02,0.0088 0.01,0.0098 0.02,0.0108 0.01,0.0119 0.01,0.013 0.02,0.0143 0,0.0075 0.01,0.0079 0,0.0082 0.01,0.0086 0,0.0088 0,0.0093 0.01,0.0095 0,0.0099 0,0.0103 0.01,0.0106 0,0.0111 0,0.0114 0,0.0117 0,0.0122 0,0.0126 0,0.013 c 0,0.2968 -0.26,0.2968 -0.5,0.2968 h -9.37 c -0.22,0 -0.5,0 -0.5,-0.2812 0,-0.2969 0.26,-0.2969 0.5,-0.2969 z"
   id="path61"
   inkscape:connector-curvature="0"
   style="fill:#000000;stroke-width:0" />
<path
   d="m 253.97,6.0977 0.04,0 0.05,5e-4 0.04,0.0014 0.02,0.0012 0.02,0.0015 0.02,0.002 0.03,0.0024 0.02,0.003 0.02,0.0036 0.02,0.0043 0.02,0.0049 0.02,0.0057 0.01,0.0066 0.02,0.0074 0.02,0.0083 0.02,0.0093 0.01,0.0103 0.02,0.0115 0.01,0.0125 0.01,0.0138 0.02,0.015 0,0.008 0.01,0.0083 0,0.0087 0.01,0.009 0,0.0094 0,0.0097 0.01,0.0101 0,0.0104 0,0.0109 0.01,0.0112 0,0.0116 0,0.0121 0,0.0124 0,0.0129 0,0.0132 0,0.0137 c 0,0.2969 -0.26,0.2969 -0.5,0.2969 h -9.37 c -0.22,0 -0.5,0 -0.5,-0.2812 0,-0.3125 0.26,-0.3125 0.5,-0.3125 z"
   id="path63"
   inkscape:connector-curvature="0"
   style="fill:#000000;stroke-width:0" />
<path
   d="m 267.34,10.394 -0.05,-0.009 -0.04,-0.011 -0.05,-0.013 -0.04,-0.014 -0.04,-0.016 -0.03,-0.017 -0.04,-0.018 -0.03,-0.019 -0.04,-0.021 -0.03,-0.021 -0.03,-0.023 -0.03,-0.023 -0.02,-0.025 -0.03,-0.025 -0.02,-0.026 -0.02,-0.027 -0.02,-0.027 -0.02,-0.028 -0.02,-0.029 -0.02,-0.0289 -0.01,-0.0294 -0.01,-0.0296 -0.02,-0.03 -0.01,-0.0301 -0.01,-0.0303 0,-0.0303 -0.01,-0.0304 -0.01,-0.0303 0,-0.0302 0,-0.03 -0.01,-0.0298 0,-0.0294 c 0,-0.375 0.32,-0.5 0.53,-0.5 0.47,0 0.82,0.4062 0.82,0.8437 0,0.656 -0.77,0.969 -1.44,0.969 -0.97,0 -1.5,-0.9533 -1.64,-1.2658 -0.38,1.2028 -1.36,1.2658 -1.64,1.2658 -1.63,0 -2.49,-2.094 -2.49,-2.4377 0,-0.0625 0.07,-0.1406 0.18,-0.1406 0.12,0 0.15,0.0937 0.18,0.1562 0.55,1.7651 1.61,2.0941 2.08,2.0941 0.7,0 0.86,-0.6566 0.86,-1.0472 0,-0.3438 -0.09,-0.7188 -0.3,-1.4688 l -0.53,-2.1875 c -0.25,-0.9531 -0.7,-1.8281 -1.54,-1.8281 -0.08,0 -0.47,0 -0.82,0.2031 0.58,0.125 0.71,0.5938 0.71,0.7813 0,0.3281 -0.24,0.5156 -0.55,0.5156 -0.38,0 -0.8,-0.3437 -0.8,-0.8437 0,-0.6719 0.75,-0.9688 1.44,-0.9688 0.77,0 1.3,0.5938 1.64,1.25 0.25,-0.9375 1.05,-1.25 1.64,-1.25 1.61,0 2.47,2.0781 2.47,2.4219 0,0.0937 -0.06,0.1562 -0.16,0.1562 -0.14,0 -0.15,-0.0781 -0.2,-0.2187 -0.44,-1.3906 -1.36,-2.0469 -2.06,-2.0469 -0.56,0 -0.86,0.4219 -0.86,1.0625 0,0.3594 0.06,0.6094 0.31,1.6563 l 0.56,2.1562 c 0.24,0.9531 0.77,1.6566 1.5,1.6566 0.03,0 0.49,0 0.82,-0.204 z"
   id="path65"
   inkscape:connector-curvature="0"
   style="fill:#000000;stroke-width:0" />
</g></svg>
