<?xml version="1.0" encoding="UTF-8" standalone="no"?>
<svg
   xmlns:dc="http://purl.org/dc/elements/1.1/"
   xmlns:cc="http://creativecommons.org/ns#"
   xmlns:rdf="http://www.w3.org/1999/02/22-rdf-syntax-ns#"
   xmlns:svg="http://www.w3.org/2000/svg"
   xmlns="http://www.w3.org/2000/svg"
   xmlns:sodipodi="http://sodipodi.sourceforge.net/DTD/sodipodi-0.dtd"
   xmlns:inkscape="http://www.inkscape.org/namespaces/inkscape"
   version="1.1"
   id="body"
   width="233.24069"
   height="42.382542"
   viewBox="0 0 0.32394541 0.058864641"
   preserveAspectRatio="none"
   inkscape:version="0.48.3.1 r9886"
   sodipodi:docname="ch1-Z-G-38.svg">
  <metadata
     id="metadata59">
    <rdf:RDF>
      <cc:Work
         rdf:about="">
        <dc:format>image/svg+xml</dc:format>
        <dc:type
           rdf:resource="http://purl.org/dc/dcmitype/StillImage" />
      </cc:Work>
    </rdf:RDF>
  </metadata>
  <defs
     id="defs57" />
  <sodipodi:namedview
     pagecolor="#ffffff"
     bordercolor="#666666"
     borderopacity="1"
     objecttolerance="10"
     gridtolerance="10"
     guidetolerance="10"
     inkscape:pageopacity="0"
     inkscape:pageshadow="2"
     inkscape:window-width="640"
     inkscape:window-height="480"
     id="namedview55"
     showgrid="false"
     inkscape:zoom="0.32777778"
     inkscape:cx="381.52344"
     inkscape:cy="459.71994"
     inkscape:window-x="0"
     inkscape:window-y="24"
     inkscape:window-maximized="0"
     inkscape:current-layer="body" />
  <title
     id="title3">SVG drawing</title>
  <desc
     id="desc5">This was produced by version 4.4 of GNU libplot, a free library for exporting 2-D vector graphics.</desc>
  <g
     id="content"
     transform="matrix(0.0017361,0,0,-0.0017361,-0.00135633,0.05913591)"
     xml:space="preserve"
     stroke-miterlimit="10.433"
     font-style="normal"
     font-variant="normal"
     font-weight="normal"
     font-stretch="normal"
     font-size-adjust="none"
     letter-spacing="normal"
     word-spacing="normal"
     style="font-style:normal;font-variant:normal;font-weight:normal;font-stretch:normal;letter-spacing:normal;word-spacing:normal;text-anchor:start;fill:none;stroke:#000000;stroke-linecap:butt;stroke-linejoin:miter;stroke-miterlimit:10.43299961;stroke-opacity:1;stroke-dasharray:none;stroke-dashoffset:0">
<path
   d="M 2.5938,12.473 2.5808,12.423 2.5684,12.375 2.5561,12.329 2.5438,12.285 2.5313,12.243 2.5183,12.203 2.5046,12.166 2.49,12.13 2.4743,12.096 2.4572,12.064 2.4386,12.033 2.4182,12.005 2.3959,11.978 2.3712,11.953 2.3442,11.93 2.3145,11.908 2.2818,11.888 2.2461,11.87 2.2071,11.853 2.1645,11.837 2.1182,11.823 2.0678,11.81 2.0411,11.805 2.0133,11.799 1.9844,11.794 1.9543,11.789 1.9231,11.785 1.8907,11.781 1.8571,11.777 1.8223,11.773 1.7861,11.77 1.7487,11.767 1.7099,11.765 1.6698,11.762 1.6283,11.76 1.5854,11.759 1.5411,11.757 1.4953,11.756 1.448,11.755 1.3992,11.754 l -0.0504,0 -0.0519,0 c -0.2969,0 -0.45315,0 -0.45315,-0.281 0,-0.172 0.09375,-0.172 0.40625,-0.172 H 6.2969 L 6.0312,11.754 H 4.2188 c -0.2188,0 -0.25,0 -0.3438,0.031 -0.1719,0.016 -0.1875,0.047 -0.1875,0.172 0,0.109 0.0313,0.203 0.0625,0.344 l 2.1875,8.781 c 0.1406,0.578 0.2187,0.609 0.8281,0.609 h 1.75 c 1.5004,0 2.8594,-0.812 2.8594,-3 0,-0.796 -0.313,-3.562 -1.8594,-5.312 C 9.0781,12.863 7.8594,11.754 6.0312,11.754 l 0.2657,-0.453 c 3.2031,0 6.3441,3.328 6.3441,6.859 0,2.297 -1.375,4 -3.641,4 H 3.8906 c -0.2968,0 -0.4375,0 -0.4375,-0.312 0,-0.157 0.1407,-0.157 0.375,-0.157 0.9688,0 0.9688,-0.125 0.9688,-0.296 0,-0.032 0,-0.125 -0.0625,-0.36 z"
   id="path9"
   inkscape:connector-curvature="0"
   style="fill:#000000;stroke-width:0" />
<path
   d="m 19.84,17.254 -0.02,0.044 -0.021,0.045 -0.023,0.045 -0.024,0.046 -0.026,0.046 -0.027,0.046 -0.029,0.046 -0.031,0.046 -0.032,0.045 -0.034,0.045 -0.035,0.044 -0.037,0.044 -0.039,0.043 -0.04,0.042 -0.042,0.04 -0.044,0.04 -0.046,0.038 -0.047,0.037 -0.049,0.035 -0.051,0.033 -0.053,0.031 -0.054,0.029 -0.056,0.027 -0.059,0.025 -0.06,0.023 -0.062,0.02 -0.064,0.017 -0.065,0.014 -0.068,0.011 -0.07,0.009 -0.072,0.005 -0.073,10e-4 c -1.735,0 -3.703,-2.187 -3.703,-4.547 0,-1.656 1,-2.468 2.015,-2.468 l 0.047,0.312 c -0.531,0 -1.031,0.422 -1.031,1.516 0,0.844 0.484,2.625 0.828,3.344 0.469,0.89 1.187,1.515 1.844,1.515 1.047,0 1.265,-1.297 1.265,-1.39 l -0.047,-0.235 -0.75,-3.047 c -0.062,-0.25 -0.093,-0.312 -0.312,-0.547 -0.641,-0.843 -1.313,-1.156 -1.797,-1.156 l -0.047,-0.312 c 0.844,0 1.594,0.672 1.891,0.984 L 18.23,10.863 C 18.012,9.9883 17.918,9.582 17.34,9.0352 16.684,8.3789 16.09,8.3789 15.731,8.3789 c -0.469,0 -0.875,0.0313 -1.266,0.1563 0.516,0.1406 0.641,0.5937 0.641,0.7656 0,0.25 -0.188,0.5 -0.547,0.5 -0.375,0 -0.797,-0.3125 -0.797,-0.8438 0,-0.6406 0.656,-0.9062 2,-0.9062 2.062,0 3.125,1.3281 3.328,2.1872 l 1.765,7.125 c 0.047,0.188 0.047,0.219 0.047,0.25 0,0.219 -0.172,0.391 -0.406,0.391 -0.391,0 -0.609,-0.313 -0.656,-0.75 z"
   id="path11"
   inkscape:connector-curvature="0"
   style="fill:#000000;stroke-width:0" />
<path
   d="m 26.703,7.4414 0,0.0087 0,0.0086 L 26.702,7.4632 26.701,7.4678 26.7,7.4725 26.699,7.4775 26.697,7.4828 26.695,7.4884 26.692,7.4944 26.688,7.5007 26.684,7.5076 26.68,7.5149 26.674,7.5228 26.668,7.5312 26.661,7.5404 26.653,7.5502 26.644,7.5607 26.634,7.572 26.629,7.578 26.624,7.5842 26.618,7.5906 26.612,7.5972 26.605,7.604 26.599,7.6111 26.592,7.6184 26.584,7.626 26.577,7.6338 26.569,7.6419 26.561,7.6502 26.552,7.6588 26.543,7.6677 26.534,7.6769 26.525,7.6863 26.515,7.696 26.504,7.7061 26.494,7.7164 26.483,7.7271 26.471,7.738 26.46,7.7493 26.447,7.7609 26.435,7.7729 26.422,7.7852 c -1.578,1.6093 -2.469,4.2338 -2.469,7.4688 0,3.094 0.735,5.734 2.578,7.625 0.172,0.141 0.172,0.172 0.172,0.219 0,0.093 -0.078,0.125 -0.156,0.125 -0.203,0 -1.5,-1.141 -2.281,-2.703 -0.813,-1.61 -1.172,-3.313 -1.172,-5.266 0,-1.406 0.218,-3.297 1.047,-5 0.937,-1.9063 2.234,-2.9376 2.406,-2.9376 0.078,0 0.156,0.0313 0.156,0.125 z"
   id="path13"
   inkscape:connector-curvature="0"
   style="fill:#000000;stroke-width:0" />
<path
   d="M 35.133,17.785 35.087,17.776 35.043,17.764 35,17.752 34.959,17.738 34.92,17.722 l -0.038,-0.017 -0.036,-0.018 -0.034,-0.02 -0.033,-0.02 -0.031,-0.022 -0.029,-0.022 -0.028,-0.024 -0.027,-0.024 -0.025,-0.026 -0.023,-0.026 -0.022,-0.026 -0.021,-0.028 -0.019,-0.028 -0.017,-0.028 -0.017,-0.029 -0.014,-0.03 -0.014,-0.029 -0.012,-0.03 -0.011,-0.03 -0.009,-0.031 -0.008,-0.03 -0.007,-0.03 -0.006,-0.031 -0.004,-0.03 -0.003,-0.03 -0.002,-0.03 0,-0.029 c 0,-0.375 0.312,-0.5 0.531,-0.5 0.469,0 0.812,0.406 0.812,0.844 0,0.656 -0.765,0.968 -1.437,0.968 -0.969,0 -1.5,-0.953 -1.641,-1.265 -0.375,1.203 -1.359,1.265 -1.64,1.265 -1.625,0 -2.485,-2.093 -2.485,-2.437 0,-0.063 0.063,-0.141 0.172,-0.141 0.125,0 0.156,0.094 0.188,0.156 0.547,1.766 1.609,2.094 2.078,2.094 0.703,0 0.859,-0.656 0.859,-1.047 0,-0.343 -0.094,-0.718 -0.297,-1.468 l -0.531,-2.188 c -0.25,-0.953 -0.703,-1.828 -1.547,-1.828 -0.078,0 -0.469,0 -0.812,0.203 0.578,0.125 0.703,0.594 0.703,0.781 0,0.328 -0.235,0.516 -0.547,0.516 -0.375,0 -0.797,-0.344 -0.797,-0.844 0,-0.672 0.75,-0.969 1.438,-0.969 0.765,0 1.296,0.594 1.64,1.25 0.25,-0.937 1.047,-1.25 1.641,-1.25 1.609,0 2.469,2.079 2.469,2.422 0,0.094 -0.063,0.157 -0.157,0.157 -0.14,0 -0.156,-0.079 -0.203,-0.219 -0.437,-1.391 -1.359,-2.047 -2.062,-2.047 -0.563,0 -0.86,0.422 -0.86,1.062 0,0.36 0.063,0.61 0.313,1.657 l 0.562,2.156 c 0.235,0.953 0.766,1.656 1.5,1.656 0.032,0 0.485,0 0.813,-0.203 z"
   id="path15"
   inkscape:connector-curvature="0"
   style="fill:#000000;stroke-width:0" />
<path
   d="m 40.957,15.254 0,0.116 -0.002,0.121 -0.003,0.125 -0.003,0.128 -0.006,0.133 -0.006,0.136 -0.018,0.282 -0.025,0.295 -0.033,0.305 -0.042,0.316 -0.051,0.324 -0.062,0.332 -0.073,0.337 -0.085,0.343 -0.099,0.346 -0.111,0.348 -0.062,0.174 -0.065,0.175 -0.069,0.174 -0.073,0.174 -0.077,0.174 -0.082,0.173 c -0.937,1.906 -2.25,2.938 -2.422,2.938 -0.062,0 -0.14,-0.032 -0.14,-0.125 0,-0.047 0,-0.078 0.265,-0.36 1.594,-1.593 2.485,-4.218 2.485,-7.469 0,-3.078 -0.75,-5.7338 -2.594,-7.6088 -0.156,-0.1407 -0.156,-0.1719 -0.156,-0.2188 0,-0.0937 0.078,-0.125 0.14,-0.125 0.203,0 1.516,1.1406 2.297,2.7026 0.797,1.61 1.172,3.329 1.172,5.235 z"
   id="path17"
   inkscape:connector-curvature="0"
   style="fill:#000000;stroke-width:0" />
<path
   d="m 57.707,16.457 0.042,0 0.042,10e-4 0.043,0.001 0.022,0.001 0.021,10e-4 0.022,0.002 0.021,0.003 0.021,0.002 0.02,0.004 0.021,0.004 0.019,0.005 0.019,0.005 0.019,0.006 0.018,0.007 0.017,0.008 0.017,0.009 0.015,0.01 0.015,0.011 0.014,0.011 0.013,0.013 0.012,0.015 0.005,0.007 0.005,0.008 0.005,0.008 0.005,0.009 0.004,0.009 0.004,0.009 0.003,0.01 0.003,0.009 0.003,0.011 0.003,0.01 0.002,0.011 0.002,0.012 10e-4,0.012 0.001,0.012 10e-4,0.012 0,0.013 c 0,0.297 -0.266,0.297 -0.5,0.297 h -9.375 c -0.219,0 -0.5,0 -0.5,-0.281 0,-0.297 0.266,-0.297 0.5,-0.297 z"
   id="path19"
   inkscape:connector-curvature="0"
   style="fill:#000000;stroke-width:0" />
<path
   d="m 57.707,13.488 0.042,0 0.042,0.001 0.043,10e-4 0.022,10e-4 0.021,0.002 0.022,0.002 0.021,0.002 0.021,0.003 0.02,0.004 0.021,0.004 0.019,0.005 0.019,0.006 0.019,0.006 0.018,0.008 0.017,0.008 0.017,0.009 0.015,0.011 0.015,0.011 0.014,0.013 0.013,0.014 0.012,0.015 0.005,0.008 0.005,0.008 0.005,0.009 0.005,0.009 0.004,0.009 0.004,0.01 0.003,0.01 0.003,0.01 0.003,0.011 0.003,0.011 0.002,0.012 0.002,0.012 10e-4,0.012 0.001,0.013 10e-4,0.013 0,0.014 c 0,0.297 -0.266,0.297 -0.5,0.297 h -9.375 c -0.219,0 -0.5,0 -0.5,-0.281 0,-0.313 0.266,-0.313 0.5,-0.313 z"
   id="path21"
   inkscape:connector-curvature="0"
   style="fill:#000000;stroke-width:0" />
<path
   d="m 71.09,28.039 -0.02,0.044 -0.021,0.045 -0.023,0.046 -0.024,0.045 -0.026,0.046 -0.027,0.046 -0.029,0.046 -0.031,0.046 -0.032,0.045 -0.034,0.045 -0.035,0.045 -0.037,0.043 -0.039,0.043 -0.04,0.042 -0.042,0.041 -0.044,0.039 -0.046,0.038 -0.047,0.037 -0.049,0.035 -0.051,0.033 -0.053,0.031 -0.054,0.03 -0.056,0.027 -0.059,0.024 -0.06,0.023 -0.062,0.02 -0.064,0.017 -0.065,0.014 -0.068,0.012 -0.07,0.008 -0.072,0.005 -0.073,0.002 c -1.735,0 -3.703,-2.188 -3.703,-4.547 0,-1.657 1,-2.469 2.015,-2.469 l 0.047,0.312 c -0.531,0 -1.031,0.422 -1.031,1.516 0,0.844 0.484,2.625 0.828,3.344 0.469,0.89 1.187,1.515 1.844,1.515 1.047,0 1.265,-1.296 1.265,-1.39 l -0.047,-0.235 -0.75,-3.046 c -0.062,-0.25 -0.093,-0.313 -0.312,-0.547 -0.641,-0.844 -1.313,-1.157 -1.797,-1.157 l -0.047,-0.312 c 0.844,0 1.594,0.672 1.891,0.984 l -0.36,-1.422 c -0.218,-0.875 -0.312,-1.281 -0.89,-1.828 -0.656,-0.656 -1.25,-0.656 -1.61,-0.656 -0.468,0 -0.875,0.031 -1.265,0.156 0.515,0.141 0.64,0.594 0.64,0.766 0,0.25 -0.187,0.5 -0.546,0.5 -0.375,0 -0.797,-0.313 -0.797,-0.844 0,-0.64 0.656,-0.906 2,-0.906 2.062,0 3.125,1.328 3.328,2.187 l 1.765,7.125 c 0.047,0.188 0.047,0.219 0.047,0.25 0,0.219 -0.172,0.391 -0.406,0.391 -0.391,0 -0.609,-0.312 -0.656,-0.75 z"
   id="path23"
   inkscape:connector-curvature="0"
   style="fill:#000000;stroke-width:0" />
<path
   d="m 77.949,18.227 0,0.008 0,0.009 -0.001,0.004 -10e-4,0.005 -0.001,0.005 -0.001,0.005 -0.002,0.005 -0.002,0.006 -0.003,0.006 -0.004,0.006 -0.004,0.007 -0.004,0.007 -0.006,0.008 -0.006,0.008 -0.007,0.01 -0.008,0.009 -0.009,0.011 -0.009,0.011 -0.006,0.006 -0.005,0.006 -0.006,0.007 -0.006,0.006 -0.007,0.007 -0.006,0.007 -0.007,0.008 -0.007,0.007 -0.008,0.008 -0.008,0.008 -0.008,0.008 -0.009,0.009 -0.008,0.009 -0.01,0.009 -0.009,0.009 -0.01,0.01 -0.01,0.01 -0.011,0.011 -0.011,0.01 -0.012,0.011 -0.011,0.011 -0.012,0.012 -0.013,0.012 -0.013,0.012 c -1.578,1.61 -2.469,4.235 -2.469,7.469 0,3.094 0.735,5.734 2.578,7.625 0.172,0.141 0.172,0.172 0.172,0.219 0,0.094 -0.078,0.125 -0.156,0.125 -0.203,0 -1.5,-1.141 -2.281,-2.703 -0.813,-1.61 -1.172,-3.313 -1.172,-5.266 0,-1.406 0.219,-3.297 1.047,-5 0.937,-1.906 2.234,-2.937 2.406,-2.937 0.078,0 0.156,0.031 0.156,0.125 z"
   id="path25"
   inkscape:connector-curvature="0"
   style="fill:#000000;stroke-width:0" />
<path
   d="M 86.379,28.57 86.333,28.561 86.289,28.55 86.246,28.537 86.205,28.523 86.166,28.507 86.128,28.49 86.092,28.472 86.058,28.453 86.025,28.432 85.994,28.411 85.965,28.388 85.937,28.364 85.91,28.34 85.885,28.315 85.862,28.289 85.84,28.262 85.819,28.234 85.8,28.206 85.783,28.178 85.766,28.149 85.752,28.12 85.738,28.09 85.726,28.06 85.715,28.03 85.706,28 l -0.008,-0.031 -0.007,-0.03 -0.005,-0.03 -0.005,-0.031 -0.003,-0.03 -0.002,-0.029 0,-0.03 c 0,-0.375 0.312,-0.5 0.531,-0.5 0.469,0 0.813,0.406 0.813,0.844 0,0.656 -0.766,0.969 -1.438,0.969 -0.969,0 -1.5,-0.954 -1.641,-1.266 -0.375,1.203 -1.359,1.266 -1.64,1.266 -1.625,0 -2.485,-2.094 -2.485,-2.438 0,-0.062 0.063,-0.141 0.172,-0.141 0.125,0 0.157,0.094 0.188,0.157 0.547,1.765 1.609,2.093 2.078,2.093 0.703,0 0.859,-0.656 0.859,-1.046 0,-0.344 -0.093,-0.719 -0.297,-1.469 L 82.285,24.07 c -0.25,-0.953 -0.703,-1.828 -1.547,-1.828 -0.078,0 -0.468,0 -0.812,0.203 0.578,0.125 0.703,0.594 0.703,0.782 0,0.328 -0.234,0.515 -0.547,0.515 -0.375,0 -0.797,-0.344 -0.797,-0.844 0,-0.671 0.75,-0.968 1.438,-0.968 0.765,0 1.297,0.593 1.64,1.25 0.25,-0.938 1.047,-1.25 1.641,-1.25 1.609,0 2.469,2.078 2.469,2.422 0,0.093 -0.063,0.156 -0.157,0.156 -0.14,0 -0.156,-0.078 -0.203,-0.219 -0.437,-1.391 -1.359,-2.047 -2.062,-2.047 -0.563,0 -0.86,0.422 -0.86,1.063 0,0.359 0.063,0.609 0.313,1.656 l 0.562,2.156 c 0.235,0.953 0.766,1.656 1.5,1.656 0.032,0 0.485,0 0.813,-0.203 z"
   id="path27"
   inkscape:connector-curvature="0"
   style="fill:#000000;stroke-width:0" />
<path
   d="m 97.602,25.758 h 4.388 c 0.22,0 0.5,0 0.5,0.281 0,0.313 -0.26,0.313 -0.5,0.313 h -4.388 v 4.375 c 0,0.234 0,0.515 -0.282,0.515 -0.312,0 -0.312,-0.265 -0.312,-0.515 v -4.375 h -4.391 c -0.219,0 -0.5,0 -0.5,-0.297 0,-0.297 0.266,-0.297 0.5,-0.297 h 4.391 v -4.391 c 0,-0.219 0,-0.5 0.297,-0.5 0.297,0 0.297,0.266 0.297,0.5 z"
   id="path29"
   inkscape:connector-curvature="0"
   style="fill:#000000;stroke-width:0" />
<path
   d="m 114.94,32.727 0,0.006 0,0.006 0.01,0.006 0,0.006 0,0.014 0.01,0.014 0,0.014 0,0.015 0.01,0.015 0,0.015 0,0.015 0.01,0.016 0,0.016 0,0.015 0.01,0.016 0,0.015 0,0.008 0,0.007 0,0.008 0,0.007 c 0,0.156 -0.16,0.156 -0.19,0.156 -0.03,0 -0.8,-0.062 -0.87,-0.078 -0.29,-0.016 -0.52,-0.047 -0.8,-0.062 -0.41,-0.032 -0.52,-0.047 -0.52,-0.344 0,-0.156 0.13,-0.156 0.36,-0.156 0.77,0 0.78,-0.141 0.78,-0.297 0,-0.094 -0.03,-0.219 -0.04,-0.266 l -0.97,-3.875 c -0.17,0.422 -0.6,1.063 -1.42,1.063 -1.8,0 -3.74,-2.329 -3.74,-4.672 0,-1.578 0.92,-2.5 2,-2.5 l 0.05,0.312 c -0.66,0 -1.02,0.594 -1.02,1.531 0,0.875 0.49,2.657 0.8,3.313 0.53,1.125 1.28,1.687 1.91,1.687 1.04,0 1.25,-1.296 1.25,-1.421 0,-0.016 -0.05,-0.235 -0.07,-0.266 l -0.78,-3.109 c -0.08,-0.266 -0.08,-0.297 -0.29,-0.61 -0.36,-0.437 -1.05,-1.125 -1.8,-1.125 l -0.05,-0.312 c 0.88,0 1.63,0.687 2.06,1.203 0.16,-0.938 0.91,-1.203 1.4,-1.203 0.46,0 0.85,0.281 1.14,0.859 0.25,0.531 0.46,1.5 0.46,1.563 0,0.093 -0.06,0.156 -0.15,0.156 -0.14,0 -0.16,-0.078 -0.22,-0.328 -0.23,-0.938 -0.55,-1.938 -1.19,-1.938 -0.47,0 -0.5,0.422 -0.5,0.735 0,0.062 0,0.39 0.11,0.843 z"
   id="path31"
   inkscape:connector-curvature="0"
   style="fill:#000000;stroke-width:0" />
<path
   d="m 122.58,28.57 -0.05,-0.009 -0.04,-0.011 -0.04,-0.013 -0.05,-0.014 -0.03,-0.016 -0.04,-0.017 -0.04,-0.018 -0.03,-0.019 -0.04,-0.021 -0.03,-0.021 -0.03,-0.023 -0.02,-0.024 -0.03,-0.024 -0.03,-0.025 -0.02,-0.026 -0.02,-0.027 -0.02,-0.028 -0.02,-0.028 -0.02,-0.028 -0.01,-0.029 -0.02,-0.029 -0.01,-0.03 -0.01,-0.03 -0.02,-0.03 0,-0.03 -0.01,-0.031 -0.01,-0.03 -0.01,-0.03 0,-0.031 0,-0.03 0,-0.029 0,-0.03 c 0,-0.375 0.31,-0.5 0.53,-0.5 0.47,0 0.81,0.406 0.81,0.844 0,0.656 -0.77,0.969 -1.44,0.969 -0.97,0 -1.5,-0.954 -1.64,-1.266 -0.37,1.203 -1.36,1.266 -1.64,1.266 -1.62,0 -2.48,-2.094 -2.48,-2.438 0,-0.062 0.06,-0.141 0.17,-0.141 0.12,0 0.15,0.094 0.19,0.157 0.54,1.765 1.6,2.093 2.07,2.093 0.71,0 0.86,-0.656 0.86,-1.046 0,-0.344 -0.09,-0.719 -0.29,-1.469 l -0.54,-2.188 c -0.25,-0.953 -0.7,-1.828 -1.54,-1.828 -0.08,0 -0.47,0 -0.82,0.203 0.58,0.125 0.71,0.594 0.71,0.782 0,0.328 -0.24,0.515 -0.55,0.515 -0.37,0 -0.8,-0.344 -0.8,-0.844 0,-0.671 0.75,-0.968 1.44,-0.968 0.77,0 1.3,0.593 1.64,1.25 0.25,-0.938 1.05,-1.25 1.64,-1.25 1.61,0 2.47,2.078 2.47,2.422 0,0.093 -0.06,0.156 -0.15,0.156 -0.14,0 -0.16,-0.078 -0.21,-0.219 -0.43,-1.391 -1.36,-2.047 -2.06,-2.047 -0.56,0 -0.86,0.422 -0.86,1.063 0,0.359 0.06,0.609 0.31,1.656 l 0.57,2.156 c 0.23,0.953 0.76,1.656 1.5,1.656 0.03,0 0.48,0 0.81,-0.203 z"
   id="path33"
   inkscape:connector-curvature="0"
   style="fill:#000000;stroke-width:0" />
<path
   d="m 128.41,26.039 0,0.117 -0.01,0.12 0,0.125 0,0.129 -0.01,0.132 0,0.136 -0.02,0.282 -0.03,0.295 -0.03,0.305 -0.04,0.316 -0.05,0.324 -0.07,0.332 -0.07,0.338 -0.08,0.342 -0.1,0.346 -0.11,0.348 -0.06,0.174 -0.07,0.175 -0.07,0.174 -0.07,0.174 -0.08,0.174 -0.08,0.173 c -0.94,1.907 -2.25,2.938 -2.42,2.938 -0.06,0 -0.14,-0.031 -0.14,-0.125 0,-0.047 0,-0.078 0.26,-0.36 1.6,-1.593 2.49,-4.218 2.49,-7.468 0,-3.078 -0.75,-5.735 -2.6,-7.61 -0.15,-0.14 -0.15,-0.172 -0.15,-0.218 0,-0.094 0.08,-0.125 0.14,-0.125 0.2,0 1.51,1.14 2.29,2.703 0.8,1.609 1.18,3.328 1.18,5.234 z"
   id="path35"
   inkscape:connector-curvature="0"
   style="fill:#000000;stroke-width:0" />
<path
   d="m 144,25.742 0.05,0 0.05,10e-4 0.06,0.001 0.02,0.001 0.03,0.002 0.02,0.002 0.02,0.003 0.03,0.003 0.02,0.004 0.02,0.004 0.03,0.005 0.02,0.006 0.02,0.007 0.02,0.008 0.01,0.009 0.02,0.01 0.02,0.01 0.01,0.013 0.02,0.013 0.01,0.014 0.01,0.016 0.01,0.017 0.01,0.009 0,0.01 0.01,0.01 0,0.01 0.01,0.011 0,0.011 0,0.011 0,0.012 0.01,0.012 0,0.013 0,0.013 0,0.013 0,0.014 0,0.015 c 0,0.328 -0.28,0.328 -0.56,0.328 h -8.59 c -0.27,0 -0.57,0 -0.57,-0.328 0,-0.313 0.3,-0.313 0.57,-0.313 z"
   id="path37"
   inkscape:connector-curvature="0"
   style="fill:#000000;stroke-width:0" />
<path
   d="m 155.83,28.039 -0.02,0.044 -0.02,0.045 -0.02,0.046 -0.03,0.045 -0.02,0.046 -0.03,0.046 -0.03,0.046 -0.03,0.046 -0.03,0.045 -0.03,0.045 -0.04,0.045 -0.04,0.043 -0.04,0.043 -0.04,0.042 -0.04,0.041 -0.04,0.039 -0.05,0.038 -0.04,0.037 -0.05,0.035 -0.05,0.033 -0.06,0.031 -0.05,0.03 -0.06,0.027 -0.06,0.024 -0.06,0.023 -0.06,0.02 -0.06,0.017 -0.07,0.014 -0.07,0.012 -0.07,0.008 -0.07,0.005 -0.07,0.002 c -1.73,0 -3.7,-2.188 -3.7,-4.547 0,-1.657 1,-2.469 2.01,-2.469 l 0.05,0.312 c -0.53,0 -1.03,0.422 -1.03,1.516 0,0.844 0.48,2.625 0.83,3.344 0.46,0.89 1.18,1.515 1.84,1.515 1.05,0 1.27,-1.296 1.27,-1.39 l -0.05,-0.235 -0.75,-3.046 c -0.06,-0.25 -0.1,-0.313 -0.31,-0.547 -0.64,-0.844 -1.32,-1.157 -1.8,-1.157 l -0.05,-0.312 c 0.85,0 1.6,0.672 1.89,0.984 l -0.36,-1.422 c -0.22,-0.875 -0.31,-1.281 -0.89,-1.828 -0.65,-0.656 -1.25,-0.656 -1.61,-0.656 -0.47,0 -0.87,0.031 -1.26,0.156 0.51,0.141 0.64,0.594 0.64,0.766 0,0.25 -0.19,0.5 -0.55,0.5 -0.37,0 -0.8,-0.313 -0.8,-0.844 0,-0.64 0.66,-0.906 2,-0.906 2.07,0 3.13,1.328 3.33,2.187 l 1.77,7.125 c 0.05,0.188 0.05,0.219 0.05,0.25 0,0.219 -0.18,0.391 -0.41,0.391 -0.39,0 -0.61,-0.312 -0.66,-0.75 z"
   id="path39"
   inkscape:connector-curvature="0"
   style="fill:#000000;stroke-width:0" />
<path
   d="m 162.69,18.227 0,0.008 0,0.009 0,0.004 0,0.005 0,0.005 0,0.005 -0.01,0.005 0,0.006 0,0.006 0,0.006 -0.01,0.007 0,0.007 -0.01,0.008 0,0.008 -0.01,0.01 -0.01,0.009 -0.01,0.011 -0.01,0.011 0,0.006 -0.01,0.006 0,0.007 -0.01,0.006 -0.01,0.007 0,0.007 -0.01,0.008 -0.01,0.007 -0.01,0.008 0,0.008 -0.01,0.008 -0.01,0.009 -0.01,0.009 -0.01,0.009 -0.01,0.009 -0.01,0.01 -0.01,0.01 -0.01,0.011 -0.01,0.01 -0.01,0.011 -0.01,0.011 -0.01,0.012 -0.02,0.012 -0.01,0.012 c -1.58,1.61 -2.47,4.235 -2.47,7.469 0,3.094 0.74,5.734 2.58,7.625 0.17,0.141 0.17,0.172 0.17,0.219 0,0.094 -0.08,0.125 -0.15,0.125 -0.21,0 -1.5,-1.141 -2.29,-2.703 -0.81,-1.61 -1.17,-3.313 -1.17,-5.266 0,-1.406 0.22,-3.297 1.05,-5 0.94,-1.906 2.23,-2.937 2.41,-2.937 0.07,0 0.15,0.031 0.15,0.125 z"
   id="path41"
   inkscape:connector-curvature="0"
   style="fill:#000000;stroke-width:0" />
<path
   d="m 171.12,28.57 -0.05,-0.009 -0.04,-0.011 -0.04,-0.013 -0.04,-0.014 -0.04,-0.016 -0.04,-0.017 -0.04,-0.018 -0.03,-0.019 -0.03,-0.021 -0.03,-0.021 -0.03,-0.023 -0.03,-0.024 -0.03,-0.024 -0.02,-0.025 -0.03,-0.026 -0.02,-0.027 -0.02,-0.028 -0.02,-0.028 -0.02,-0.028 -0.01,-0.029 -0.02,-0.029 -0.01,-0.03 -0.01,-0.03 -0.01,-0.03 -0.01,-0.03 -0.01,-0.031 -0.01,-0.03 0,-0.03 -0.01,-0.031 0,-0.03 0,-0.029 0,-0.03 c 0,-0.375 0.31,-0.5 0.53,-0.5 0.47,0 0.81,0.406 0.81,0.844 0,0.656 -0.76,0.969 -1.44,0.969 -0.97,0 -1.5,-0.954 -1.64,-1.266 -0.37,1.203 -1.36,1.266 -1.64,1.266 -1.62,0 -2.48,-2.094 -2.48,-2.438 0,-0.062 0.06,-0.141 0.17,-0.141 0.12,0 0.16,0.094 0.19,0.157 0.54,1.765 1.61,2.093 2.08,2.093 0.7,0 0.85,-0.656 0.85,-1.046 0,-0.344 -0.09,-0.719 -0.29,-1.469 l -0.53,-2.188 c -0.25,-0.953 -0.71,-1.828 -1.55,-1.828 -0.08,0 -0.47,0 -0.81,0.203 0.58,0.125 0.7,0.594 0.7,0.782 0,0.328 -0.23,0.515 -0.55,0.515 -0.37,0 -0.79,-0.344 -0.79,-0.844 0,-0.671 0.75,-0.968 1.43,-0.968 0.77,0 1.3,0.593 1.64,1.25 0.25,-0.938 1.05,-1.25 1.65,-1.25 1.6,0 2.46,2.078 2.46,2.422 0,0.093 -0.06,0.156 -0.15,0.156 -0.14,0 -0.16,-0.078 -0.21,-0.219 -0.43,-1.391 -1.35,-2.047 -2.06,-2.047 -0.56,0 -0.86,0.422 -0.86,1.063 0,0.359 0.07,0.609 0.32,1.656 l 0.56,2.156 c 0.23,0.953 0.76,1.656 1.5,1.656 0.03,0 0.48,0 0.81,-0.203 z"
   id="path43"
   inkscape:connector-curvature="0"
   style="fill:#000000;stroke-width:0" />
<path
   d="m 176.94,26.039 0,0.117 0,0.12 0,0.125 -0.01,0.129 0,0.132 -0.01,0.136 -0.02,0.282 -0.02,0.295 -0.04,0.305 -0.04,0.316 -0.05,0.324 -0.06,0.332 -0.07,0.338 -0.09,0.342 -0.1,0.346 -0.11,0.348 -0.06,0.174 -0.06,0.175 -0.07,0.174 -0.08,0.174 -0.07,0.174 -0.08,0.173 c -0.94,1.907 -2.25,2.938 -2.43,2.938 -0.06,0 -0.14,-0.031 -0.14,-0.125 0,-0.047 0,-0.078 0.27,-0.36 1.59,-1.593 2.48,-4.218 2.48,-7.468 0,-3.078 -0.75,-5.735 -2.59,-7.61 -0.16,-0.14 -0.16,-0.172 -0.16,-0.218 0,-0.094 0.08,-0.125 0.14,-0.125 0.21,0 1.52,1.14 2.3,2.703 0.8,1.609 1.17,3.328 1.17,5.234 z"
   id="path45"
   inkscape:connector-curvature="0"
   style="fill:#000000;stroke-width:0" />
<line
   x1="64.730003"
   y1="15.285"
   x2="178.53"
   y2="15.285"
   id="line47"
   style="stroke-width:0.63800001" />
<path
   d="m 121.14,11.008 0,0.006 0,0.006 0.01,0.006 0,0.007 0,0.013 0,0.014 0.01,0.014 0,0.015 0.01,0.015 0,0.015 0,0.016 0.01,0.015 0,0.016 0,0.015 0,0.016 0.01,0.015 0,0.008 0,0.007 0,0.008 0,0.007 c 0,0.156 -0.16,0.156 -0.19,0.156 -0.03,0 -0.8,-0.062 -0.88,-0.078 -0.28,-0.015 -0.51,-0.047 -0.79,-0.062 -0.41,-0.031 -0.52,-0.047 -0.52,-0.344 0,-0.156 0.13,-0.156 0.36,-0.156 0.77,0 0.78,-0.141 0.78,-0.297 0,-0.094 -0.03,-0.219 -0.04,-0.266 l -0.97,-3.8747 c -0.17,0.4219 -0.6,1.0625 -1.42,1.0625 -1.8,0 -3.74,-2.3281 -3.74,-4.6719 0,-1.5781 0.92,-2.49996 2,-2.49996 l 0.05,0.3125 c -0.66,0 -1.02,0.59376 -1.02,1.53126 0,0.875 0.49,2.6562 0.8,3.3125 0.53,1.125 1.28,1.6875 1.91,1.6875 1.04,0 1.25,-1.2969 1.25,-1.4219 0,-0.0156 -0.05,-0.2344 -0.07,-0.2656 l -0.78,-3.1094 c -0.08,-0.2656 -0.08,-0.2969 -0.3,-0.6094 -0.35,-0.4375 -1.04,-1.12496 -1.79,-1.12496 l -0.05,-0.3125 c 0.88,0 1.63,0.6875 2.06,1.20316 0.16,-0.93754 0.91,-1.20316 1.39,-1.20316 0.47,0 0.86,0.28125 1.15,0.85936 0.24,0.5313 0.46,1.5 0.46,1.5625 0,0.0938 -0.06,0.1563 -0.15,0.1563 -0.14,0 -0.16,-0.0782 -0.22,-0.3282 -0.24,-0.9375 -0.55,-1.93746 -1.19,-1.93746 -0.47,0 -0.5,0.42187 -0.5,0.73436 0,0.0625 0,0.3906 0.11,0.8438 z"
   id="path49"
   inkscape:connector-curvature="0"
   style="fill:#000000;stroke-width:0" />
<path
   d="M 128.78,6.8516 128.73,6.842 128.69,6.8308 128.64,6.8181 128.6,6.8039 128.56,6.7883 128.53,6.7714 128.49,6.7533 128.46,6.7339 128.42,6.7134 128.39,6.6918 128.36,6.6691 128.33,6.6456 128.31,6.6211 128.28,6.5958 128.26,6.5697 128.24,6.543 128.22,6.5156 128.2,6.4876 128.18,6.4591 128.16,6.4301 128.15,6.4008 128.14,6.3711 128.12,6.3412 128.11,6.311 128.1,6.2808 l 0,-0.0304 -0.01,-0.0303 -0.01,-0.0303 0,-0.0302 0,-0.03 -0.01,-0.0298 0,-0.0295 c 0,-0.375 0.32,-0.5 0.53,-0.5 0.47,0 0.82,0.4063 0.82,0.8438 0,0.6562 -0.77,0.9687 -1.44,0.9687 -0.97,0 -1.5,-0.9531 -1.64,-1.2656 -0.38,1.2031 -1.36,1.2656 -1.64,1.2656 -1.63,0 -2.49,-2.0937 -2.49,-2.4375 0,-0.0625 0.07,-0.1406 0.18,-0.1406 0.12,0 0.15,0.0937 0.18,0.1562 0.55,1.7657 1.61,2.0938 2.08,2.0938 0.71,0 0.86,-0.6563 0.86,-1.0469 0,-0.3437 -0.09,-0.7187 -0.3,-1.4687 l -0.53,-2.1875 c -0.25,-0.9532 -0.7,-1.82816 -1.54,-1.82816 -0.08,0 -0.47,0 -0.82,0.20312 0.58,0.125 0.71,0.59374 0.71,0.78124 0,0.3281 -0.24,0.5156 -0.55,0.5156 -0.37,0 -0.8,-0.3437 -0.8,-0.8437 0,-0.67189 0.75,-0.96876 1.44,-0.96876 0.77,0 1.3,0.59375 1.64,1.24996 0.25,-0.93746 1.05,-1.24996 1.64,-1.24996 1.61,0 2.47,2.07816 2.47,2.42186 0,0.0938 -0.06,0.1563 -0.16,0.1563 -0.14,0 -0.15,-0.0782 -0.2,-0.2188 -0.44,-1.3906 -1.36,-2.04686 -2.06,-2.04686 -0.56,0 -0.86,0.42187 -0.86,1.06246 0,0.3594 0.06,0.6094 0.31,1.6563 l 0.56,2.1562 c 0.24,0.9532 0.77,1.6563 1.5,1.6563 0.04,0 0.49,0 0.82,-0.2031 z"
   id="path51"
   inkscape:connector-curvature="0"
   style="fill:#000000;stroke-width:0" />
<path
   d="M 183.91,9.5195 183.83,9.4063 183.74,9.2956 183.64,9.188 183.55,9.0842 183.5,9.034 183.45,8.985 183.39,8.9372 183.34,8.8908 183.29,8.8459 183.23,8.8025 183.18,8.7608 183.12,8.7207 183.06,8.6824 183,8.646 182.94,8.6116 182.88,8.5791 182.82,8.5488 182.76,8.5207 182.69,8.4949 182.63,8.4714 182.56,8.4504 182.5,8.432 182.43,8.4161 182.36,8.4029 182.29,8.3925 182.22,8.385 182.15,8.3805 182.08,8.3789 c -0.2,0 -0.95,0.0313 -1.2,0.7656 0.05,-0.0156 0.12,-0.0156 0.16,-0.0156 0.48,0 0.79,0.4063 0.79,0.7656 0,0.3745 -0.29,0.4995 -0.53,0.4995 -0.26,0 -0.81,-0.187 -0.81,-0.9682 0,-0.8125 0.69,-1.375 1.59,-1.375 1.58,0 3.19,1.4687 3.63,3.2342 l 1.56,6.203 c 0.02,0.078 0.05,0.172 0.05,0.266 0,0.234 -0.19,0.391 -0.42,0.391 -0.15,0 -0.49,-0.063 -0.61,-0.532 l -1.18,-4.672 c -0.07,-0.297 -0.07,-0.328 -0.2,-0.5 -0.33,-0.437 -0.84,-0.984 -1.61,-0.984 -0.89,0 -0.97,0.875 -0.97,1.312 0,0.907 0.42,2.125 0.86,3.266 0.17,0.469 0.27,0.688 0.27,1 0,0.672 -0.47,1.281 -1.25,1.281 -1.47,0 -2.06,-2.312 -2.06,-2.437 0,-0.063 0.07,-0.141 0.18,-0.141 0.14,0 0.16,0.063 0.22,0.282 0.38,1.343 0.99,1.968 1.61,1.968 0.14,0 0.41,0 0.41,-0.515 0,-0.422 -0.17,-0.875 -0.41,-1.485 -0.78,-2.078 -0.78,-2.609 -0.78,-2.984 0,-1.516 1.08,-1.86 1.87,-1.86 0.46,0 1.04,0.141 1.6,0.735 l 0.01,-0.016 c -0.25,-0.937 -0.4,-1.562 -0.95,-2.3435 z"
   id="path53"
   inkscape:connector-curvature="0"
   style="fill:#000000;stroke-width:0" />
</g></svg>
