<?xml version="1.0" encoding="UTF-8" standalone="no"?>
<svg
   xmlns:dc="http://purl.org/dc/elements/1.1/"
   xmlns:cc="http://creativecommons.org/ns#"
   xmlns:rdf="http://www.w3.org/1999/02/22-rdf-syntax-ns#"
   xmlns:svg="http://www.w3.org/2000/svg"
   xmlns="http://www.w3.org/2000/svg"
   xmlns:sodipodi="http://sodipodi.sourceforge.net/DTD/sodipodi-0.dtd"
   xmlns:inkscape="http://www.inkscape.org/namespaces/inkscape"
   version="1.1"
   id="body"
   width="153.28027"
   height="47.148182"
   viewBox="0 0 0.21288927 0.065483586"
   preserveAspectRatio="none"
   inkscape:version="0.48.3.1 r9886"
   sodipodi:docname="ch1-Z-G-37.svg">
  <metadata
     id="metadata49">
    <rdf:RDF>
      <cc:Work
         rdf:about="">
        <dc:format>image/svg+xml</dc:format>
        <dc:type
           rdf:resource="http://purl.org/dc/dcmitype/StillImage" />
      </cc:Work>
    </rdf:RDF>
  </metadata>
  <defs
     id="defs47" />
  <sodipodi:namedview
     pagecolor="#ffffff"
     bordercolor="#666666"
     borderopacity="1"
     objecttolerance="10"
     gridtolerance="10"
     guidetolerance="10"
     inkscape:pageopacity="0"
     inkscape:pageshadow="2"
     inkscape:window-width="640"
     inkscape:window-height="480"
     id="namedview45"
     showgrid="false"
     inkscape:zoom="0.32777778"
     inkscape:cx="381.91407"
     inkscape:cy="459.48561"
     inkscape:window-x="0"
     inkscape:window-y="24"
     inkscape:window-maximized="0"
     inkscape:current-layer="body" />
  <title
     id="title3">SVG drawing</title>
  <desc
     id="desc5">This was produced by version 4.4 of GNU libplot, a free library for exporting 2-D vector graphics.</desc>
  <g
     id="content"
     transform="matrix(0.0017361,0,0,-0.0017361,-8.1379687e-4,0.06608031)"
     xml:space="preserve"
     stroke-miterlimit="10.433"
     font-style="normal"
     font-variant="normal"
     font-weight="normal"
     font-stretch="normal"
     font-size-adjust="none"
     letter-spacing="normal"
     word-spacing="normal"
     style="font-style:normal;font-variant:normal;font-weight:normal;font-stretch:normal;letter-spacing:normal;word-spacing:normal;text-anchor:start;fill:none;stroke:#000000;stroke-linecap:butt;stroke-linejoin:miter;stroke-miterlimit:10.43299961;stroke-opacity:1;stroke-dasharray:none;stroke-dashoffset:0">
<path
   d="m 6.7969,21.691 0.0287,0 0.0277,0 0.0266,0.001 0.0255,0 0.0245,0.001 0.0234,0 0.0224,0.002 0.0214,0.001 0.0203,0.002 0.0194,0.002 0.0184,0.003 0.0174,0.004 0.0165,0.004 0.0155,0.005 0.0146,0.006 0.0136,0.007 0.0127,0.007 0.0119,0.008 0.0109,0.01 0.01,0.01 0.0092,0.011 0.0084,0.013 0.0074,0.014 0.0067,0.015 0.0058,0.016 0.0026,0.009 0.0024,0.009 0.0022,0.009 0.002,0.01 0.0018,0.01 0.0016,0.01 0.0014,0.011 0.0012,0.011 0.0011,0.012 8e-4,0.012 6e-4,0.012 5e-4,0.013 3e-4,0.014 10e-5,0.013 c 0,0.157 -0.125,0.157 -0.4063,0.157 H 5.5312 c 0.3126,1.64 0.5313,2.765 0.6563,3.281 0.0937,0.375 0.4219,0.75 0.8437,0.75 0.3282,0 0.6719,-0.141 0.8282,-0.297 -0.625,-0.063 -0.8125,-0.516 -0.8125,-0.781 0,-0.328 0.2343,-0.516 0.5469,-0.516 0.3124,0 0.7812,0.266 0.7812,0.875 0,0.672 -0.6562,1.031 -1.3594,1.031 -0.6875,0 -1.3594,-0.5 -1.6718,-1.125 C 5.0625,24.801 4.9062,24.238 4.5312,22.145 H 3.4688 c -0.2969,0 -0.4532,0 -0.4532,-0.282 0,-0.172 0.0938,-0.172 0.4063,-0.172 H 4.4375 C 4.1562,20.207 3.5,16.613 3.1406,14.926 2.8594,13.535 2.625,12.379 1.8281,12.379 c -0.0469,0 -0.5,0 -0.7969,0.297 0.8126,0.062 0.8126,0.765 0.8126,0.781 0,0.312 -0.2344,0.516 -0.5313,0.516 -0.32812,0 -0.79688,-0.282 -0.79688,-0.875 0,-0.688 0.70318,-1.047 1.31248,-1.047 1.625,0 2.2969,2.922 2.4688,3.703 0.2812,1.234 1.0625,5.453 1.1406,5.937 z"
   id="path9"
   inkscape:connector-curvature="0"
   style="fill:#000000;stroke-width:0" />
<path
   d="m 14.273,11.441 0,0.009 0,0.009 -10e-4,0.004 0,0.005 -0.002,0.005 -10e-4,0.005 -0.002,0.005 -0.002,0.005 -0.003,0.006 -0.003,0.007 -0.004,0.007 -0.005,0.007 -0.006,0.008 -0.006,0.008 -0.007,0.009 -0.008,0.01 -0.008,0.011 -0.01,0.011 -0.006,0.006 -0.005,0.006 -0.006,0.007 -0.006,0.006 -0.006,0.007 -0.007,0.007 -0.007,0.007 -0.007,0.008 -0.008,0.008 -0.008,0.008 -0.008,0.008 -0.008,0.009 -0.009,0.009 -0.01,0.009 -0.009,0.009 -0.01,0.01 -0.01,0.01 -0.011,0.01 -0.011,0.011 -0.011,0.011 -0.012,0.011 -0.012,0.012 -0.013,0.012 -0.013,0.012 c -1.578,1.609 -2.469,4.235 -2.469,7.469 0,3.094 0.735,5.734 2.579,7.625 0.171,0.141 0.171,0.172 0.171,0.219 0,0.093 -0.078,0.125 -0.156,0.125 -0.203,0 -1.5,-1.141 -2.281,-2.703 -0.813,-1.61 -1.172,-3.313 -1.172,-5.266 0,-1.406 0.219,-3.297 1.047,-5 0.937,-1.906 2.234,-2.938 2.406,-2.938 0.078,0 0.156,0.032 0.156,0.125 z"
   id="path11"
   inkscape:connector-curvature="0"
   style="fill:#000000;stroke-width:0" />
<path
   d="m 22.703,21.785 -0.046,-0.009 -0.044,-0.012 -0.043,-0.012 -0.041,-0.014 -0.039,-0.016 -0.037,-0.017 -0.036,-0.018 -0.035,-0.02 -0.032,-0.02 -0.032,-0.022 -0.029,-0.022 -0.028,-0.024 -0.027,-0.024 -0.025,-0.026 -0.023,-0.026 -0.022,-0.026 -0.02,-0.028 -0.02,-0.028 -0.017,-0.028 -0.016,-0.029 -0.015,-0.03 -0.014,-0.029 -0.012,-0.03 -0.01,-0.03 -0.01,-0.031 -0.008,-0.03 -0.007,-0.03 -0.005,-0.031 -0.005,-0.03 -0.003,-0.03 -10e-4,-0.03 L 22,21.004 c 0,-0.375 0.312,-0.5 0.531,-0.5 0.469,0 0.813,0.406 0.813,0.844 0,0.656 -0.766,0.968 -1.438,0.968 -0.968,0 -1.5,-0.953 -1.64,-1.265 -0.375,1.203 -1.36,1.265 -1.641,1.265 -1.625,0 -2.484,-2.093 -2.484,-2.437 0,-0.063 0.062,-0.141 0.171,-0.141 0.126,0 0.157,0.094 0.188,0.157 0.547,1.765 1.609,2.093 2.078,2.093 0.703,0 0.86,-0.656 0.86,-1.047 0,-0.343 -0.094,-0.718 -0.297,-1.468 l -0.532,-2.188 c -0.25,-0.953 -0.703,-1.828 -1.547,-1.828 -0.078,0 -0.468,0 -0.812,0.203 0.578,0.125 0.703,0.594 0.703,0.781 0,0.329 -0.234,0.516 -0.547,0.516 -0.375,0 -0.797,-0.344 -0.797,-0.844 0,-0.672 0.75,-0.969 1.438,-0.969 0.765,0 1.297,0.594 1.641,1.251 0.25,-0.938 1.046,-1.251 1.64,-1.251 1.61,0 2.469,2.079 2.469,2.422 0,0.094 -0.063,0.157 -0.156,0.157 -0.141,0 -0.157,-0.078 -0.203,-0.219 -0.438,-1.391 -1.36,-2.047 -2.063,-2.047 -0.563,0 -0.859,0.422 -0.859,1.063 0,0.359 0.062,0.609 0.312,1.656 l 0.563,2.156 c 0.234,0.953 0.765,1.656 1.5,1.656 0.031,0 0.484,0 0.812,-0.203 z"
   id="path13"
   inkscape:connector-curvature="0"
   style="fill:#000000;stroke-width:0" />
<path
   d="m 28.523,19.254 0,0.116 -0.002,0.121 -0.002,0.125 -0.004,0.128 -0.005,0.133 -0.007,0.136 -0.018,0.282 -0.025,0.295 -0.033,0.305 -0.042,0.316 -0.051,0.324 -0.062,0.332 -0.073,0.337 -0.085,0.343 -0.098,0.346 -0.112,0.348 -0.062,0.174 -0.065,0.175 -0.069,0.174 -0.073,0.174 -0.077,0.174 -0.081,0.173 c -0.938,1.906 -2.25,2.938 -2.422,2.938 -0.063,0 -0.141,-0.032 -0.141,-0.125 0,-0.047 0,-0.078 0.266,-0.36 1.593,-1.593 2.484,-4.218 2.484,-7.468 0,-3.079 -0.75,-5.735 -2.594,-7.61 -0.156,-0.141 -0.156,-0.172 -0.156,-0.219 0,-0.093 0.078,-0.125 0.141,-0.125 0.203,0 1.515,1.141 2.297,2.703 0.796,1.61 1.171,3.329 1.171,5.235 z"
   id="path15"
   inkscape:connector-curvature="0"
   style="fill:#000000;stroke-width:0" />
<path
   d="m 45.273,20.457 0.042,0 0.043,10e-4 0.043,0.001 0.021,0.001 0.022,10e-4 0.021,0.002 0.021,0.003 0.021,0.002 0.021,0.004 0.02,0.004 0.02,0.005 0.019,0.005 0.018,0.006 0.018,0.007 0.018,0.008 0.016,0.009 0.016,0.01 0.015,0.011 0.014,0.011 0.012,0.013 0.012,0.015 0.005,0.007 0.006,0.008 0.004,0.008 0.005,0.009 0.004,0.009 0.004,0.009 0.004,0.01 0.003,0.009 0.003,0.011 0.002,0.01 0.002,0.011 0.002,0.012 0.002,0.012 0.001,0.012 0,0.012 0,0.013 c 0,0.297 -0.265,0.297 -0.5,0.297 h -9.375 c -0.218,0 -0.5,0 -0.5,-0.281 0,-0.297 0.266,-0.297 0.5,-0.297 z"
   id="path17"
   inkscape:connector-curvature="0"
   style="fill:#000000;stroke-width:0" />
<path
   d="m 45.273,17.488 0.042,0 0.043,0.001 0.043,10e-4 0.021,0.001 0.022,0.002 0.021,0.002 0.021,0.002 0.021,0.003 0.021,0.004 0.02,0.004 0.02,0.005 0.019,0.006 0.018,0.006 0.018,0.008 0.018,0.008 0.016,0.009 0.016,0.011 0.015,0.011 0.014,0.013 0.012,0.014 0.012,0.015 0.005,0.008 0.006,0.008 0.004,0.009 0.005,0.009 0.004,0.009 0.004,0.01 0.004,0.01 0.003,0.01 0.003,0.011 0.002,0.011 0.002,0.012 0.002,0.012 0.002,0.012 0.001,0.013 0,0.013 0,0.014 c 0,0.297 -0.265,0.297 -0.5,0.297 h -9.375 c -0.218,0 -0.5,0 -0.5,-0.281 0,-0.313 0.266,-0.313 0.5,-0.313 z"
   id="path19"
   inkscape:connector-curvature="0"
   style="fill:#000000;stroke-width:0" />
<path
   d="m 58.637,21.785 -0.046,-0.009 -0.045,-0.012 -0.042,-0.012 -0.041,-0.014 -0.039,-0.016 -0.038,-0.017 -0.036,-0.018 -0.034,-0.02 -0.033,-0.02 -0.031,-0.022 -0.029,-0.022 -0.028,-0.024 -0.027,-0.024 -0.025,-0.026 -0.023,-0.026 -0.022,-0.026 -0.021,-0.028 -0.019,-0.028 -0.018,-0.028 -0.016,-0.029 -0.015,-0.03 -0.013,-0.029 -0.012,-0.03 -0.011,-0.03 -0.009,-0.031 -0.008,-0.03 -0.007,-0.03 -0.006,-0.031 -0.004,-0.03 -0.003,-0.03 -0.002,-0.03 0,-0.029 c 0,-0.375 0.312,-0.5 0.531,-0.5 0.469,0 0.812,0.406 0.812,0.844 0,0.656 -0.765,0.968 -1.437,0.968 -0.969,0 -1.5,-0.953 -1.641,-1.265 -0.375,1.203 -1.359,1.265 -1.64,1.265 -1.625,0 -2.485,-2.093 -2.485,-2.437 0,-0.063 0.063,-0.141 0.172,-0.141 0.125,0 0.156,0.094 0.188,0.157 0.546,1.765 1.609,2.093 2.078,2.093 0.703,0 0.859,-0.656 0.859,-1.047 0,-0.343 -0.094,-0.718 -0.297,-1.468 l -0.531,-2.188 c -0.25,-0.953 -0.703,-1.828 -1.547,-1.828 -0.078,0 -0.469,0 -0.812,0.203 0.578,0.125 0.703,0.594 0.703,0.781 0,0.329 -0.235,0.516 -0.547,0.516 -0.375,0 -0.797,-0.344 -0.797,-0.844 0,-0.672 0.75,-0.969 1.437,-0.969 0.766,0 1.297,0.594 1.641,1.251 0.25,-0.938 1.047,-1.251 1.641,-1.251 1.609,0 2.468,2.079 2.468,2.422 0,0.094 -0.062,0.157 -0.156,0.157 -0.14,0 -0.156,-0.078 -0.203,-0.219 -0.437,-1.391 -1.359,-2.047 -2.062,-2.047 -0.563,0 -0.86,0.422 -0.86,1.063 0,0.359 0.063,0.609 0.313,1.656 l 0.562,2.156 c 0.235,0.953 0.766,1.656 1.5,1.656 0.031,0 0.485,0 0.813,-0.203 z"
   id="path21"
   inkscape:connector-curvature="0"
   style="fill:#000000;stroke-width:0" />
<path
   d="m 73.984,18.957 0.053,0 0.052,10e-4 0.052,0.001 0.025,0.001 0.025,0.002 0.024,0.002 0.024,0.003 0.024,0.003 0.023,0.003 0.022,0.005 0.022,0.005 0.021,0.006 0.02,0.007 0.019,0.008 0.019,0.009 0.017,0.009 0.017,0.011 0.016,0.012 0.014,0.014 0.013,0.014 0.013,0.016 0.01,0.017 0.005,0.009 0.005,0.01 0.004,0.009 0.004,0.011 0.004,0.01 0.003,0.011 0.003,0.012 0.003,0.012 0.002,0.012 0.002,0.012 0.001,0.014 0.001,0.013 10e-4,0.014 0,0.015 c 0,0.328 -0.281,0.328 -0.563,0.328 h -8.593 c -0.266,0 -0.563,0 -0.563,-0.328 0,-0.313 0.297,-0.313 0.563,-0.313 z"
   id="path23"
   inkscape:connector-curvature="0"
   style="fill:#000000;stroke-width:0" />
<path
   d="m 93.707,32.039 -0.02,0.044 -0.021,0.045 -0.023,0.046 -0.024,0.045 -0.026,0.046 -0.027,0.046 -0.029,0.046 -0.031,0.046 -0.032,0.045 -0.034,0.045 -0.035,0.045 -0.037,0.043 -0.039,0.043 -0.04,0.042 -0.042,0.041 -0.044,0.039 -0.045,0.038 -0.048,0.037 -0.049,0.035 -0.051,0.033 -0.052,0.031 -0.055,0.03 -0.056,0.027 -0.058,0.024 -0.061,0.023 -0.061,0.02 -0.064,0.017 -0.066,0.014 -0.068,0.012 -0.07,0.008 -0.071,0.005 -0.074,0.002 c -1.734,0 -3.703,-2.188 -3.703,-4.547 0,-1.657 1,-2.469 2.015,-2.469 l 0.047,0.312 c -0.531,0 -1.031,0.422 -1.031,1.516 0,0.844 0.484,2.625 0.828,3.344 0.469,0.89 1.188,1.515 1.844,1.515 1.047,0 1.266,-1.296 1.266,-1.39 l -0.047,-0.235 -0.75,-3.046 C 92.66,27.852 92.629,27.789 92.41,27.555 91.77,26.711 91.098,26.398 90.613,26.398 l -0.047,-0.312 c 0.844,0 1.594,0.672 1.891,0.984 l -0.359,-1.422 c -0.219,-0.875 -0.313,-1.281 -0.891,-1.828 -0.656,-0.656 -1.25,-0.656 -1.609,-0.656 -0.469,0 -0.875,0.031 -1.266,0.156 0.516,0.141 0.641,0.594 0.641,0.766 0,0.25 -0.188,0.5 -0.547,0.5 -0.375,0 -0.797,-0.313 -0.797,-0.844 0,-0.64 0.656,-0.906 2,-0.906 2.062,0 3.125,1.328 3.328,2.187 l 1.766,7.125 c 0.047,0.188 0.047,0.219 0.047,0.25 0,0.219 -0.172,0.391 -0.407,0.391 -0.39,0 -0.609,-0.312 -0.656,-0.75 z"
   id="path25"
   inkscape:connector-curvature="0"
   style="fill:#000000;stroke-width:0" />
<path
   d="m 100.57,22.227 0,0.008 0,0.009 -0.01,0.004 0,0.005 0,0.005 0,0.005 0,0.005 0,0.006 -0.01,0.006 0,0.006 0,0.007 -0.01,0.007 0,0.008 -0.01,0.008 -0.01,0.01 0,0.009 -0.01,0.011 -0.01,0.011 -0.01,0.006 0,0.006 -0.01,0.007 -0.01,0.006 0,0.007 -0.01,0.007 -0.01,0.008 0,0.007 -0.01,0.008 -0.01,0.008 -0.01,0.008 0,0.009 -0.01,0.009 -0.01,0.009 -0.01,0.009 -0.01,0.01 -0.01,0.01 -0.01,0.011 -0.01,0.01 -0.02,0.011 -0.01,0.011 -0.01,0.012 -0.01,0.012 -0.01,0.012 c -1.583,1.61 -2.474,4.235 -2.474,7.469 0,3.094 0.735,5.734 2.574,7.625 0.18,0.141 0.18,0.172 0.18,0.219 0,0.094 -0.08,0.125 -0.16,0.125 -0.2,0 -1.5,-1.141 -2.281,-2.703 -0.813,-1.61 -1.172,-3.313 -1.172,-5.266 0,-1.406 0.219,-3.297 1.047,-5 0.937,-1.906 2.236,-2.937 2.406,-2.937 0.08,0 0.16,0.031 0.16,0.125 z"
   id="path27"
   inkscape:connector-curvature="0"
   style="fill:#000000;stroke-width:0" />
<path
   d="m 109,32.57 -0.05,-0.009 -0.04,-0.011 -0.05,-0.013 -0.04,-0.014 -0.04,-0.016 -0.03,-0.017 -0.04,-0.018 -0.03,-0.019 -0.04,-0.021 -0.03,-0.021 -0.03,-0.023 -0.03,-0.024 -0.02,-0.024 -0.03,-0.025 -0.02,-0.026 -0.02,-0.027 -0.02,-0.028 -0.02,-0.028 -0.02,-0.028 -0.02,-0.029 -0.01,-0.029 -0.01,-0.03 -0.02,-0.03 -0.01,-0.03 -0.01,-0.03 0,-0.031 -0.01,-0.03 -0.01,-0.03 0,-0.031 0,-0.03 -0.01,-0.029 0,-0.03 c 0,-0.375 0.32,-0.5 0.53,-0.5 0.47,0 0.82,0.406 0.82,0.844 0,0.656 -0.77,0.969 -1.44,0.969 -0.97,0 -1.5,-0.954 -1.64,-1.266 -0.38,1.203 -1.36,1.266 -1.64,1.266 -1.63,0 -2.49,-2.094 -2.49,-2.438 0,-0.062 0.07,-0.141 0.18,-0.141 0.12,0 0.15,0.094 0.18,0.157 0.55,1.765 1.61,2.093 2.08,2.093 0.7,0 0.86,-0.656 0.86,-1.046 0,-0.344 -0.09,-0.719 -0.3,-1.469 L 104.9,28.07 c -0.25,-0.953 -0.7,-1.828 -1.54,-1.828 -0.08,0 -0.47,0 -0.82,0.203 0.58,0.125 0.71,0.594 0.71,0.782 0,0.328 -0.24,0.515 -0.55,0.515 -0.38,0 -0.8,-0.344 -0.8,-0.844 0,-0.671 0.75,-0.968 1.44,-0.968 0.77,0 1.3,0.593 1.64,1.25 0.25,-0.938 1.05,-1.25 1.64,-1.25 1.61,0 2.47,2.078 2.47,2.422 0,0.093 -0.06,0.156 -0.16,0.156 -0.14,0 -0.15,-0.078 -0.2,-0.219 -0.44,-1.391 -1.36,-2.047 -2.06,-2.047 -0.56,0 -0.86,0.422 -0.86,1.063 0,0.359 0.06,0.609 0.31,1.656 l 0.56,2.156 c 0.24,0.953 0.77,1.656 1.5,1.656 0.03,0 0.49,0 0.82,-0.203 z"
   id="path29"
   inkscape:connector-curvature="0"
   style="fill:#000000;stroke-width:0" />
<path
   d="m 114.82,30.039 0,0.117 -0.01,0.12 0,0.125 0,0.129 -0.01,0.132 0,0.136 -0.02,0.282 -0.03,0.295 -0.03,0.305 -0.04,0.316 -0.05,0.324 -0.06,0.332 -0.08,0.338 -0.08,0.342 -0.1,0.346 -0.11,0.348 -0.06,0.174 -0.07,0.175 -0.07,0.174 -0.07,0.174 -0.08,0.174 -0.08,0.173 c -0.94,1.907 -2.25,2.938 -2.42,2.938 -0.06,0 -0.14,-0.031 -0.14,-0.125 0,-0.047 0,-0.078 0.26,-0.36 1.6,-1.593 2.49,-4.218 2.49,-7.468 0,-3.078 -0.75,-5.735 -2.6,-7.61 -0.15,-0.14 -0.15,-0.172 -0.15,-0.218 0,-0.094 0.08,-0.125 0.14,-0.125 0.2,0 1.51,1.14 2.29,2.703 0.8,1.609 1.18,3.328 1.18,5.234 z"
   id="path31"
   inkscape:connector-curvature="0"
   style="fill:#000000;stroke-width:0" />
<line
   x1="80.652"
   y1="19.285"
   x2="123.1"
   y2="19.285"
   id="line33"
   style="stroke-width:0.63800001" />
<path
   d="M 83.152,5.5391 83.139,5.4889 83.127,5.4409 83.115,5.395 83.102,5.3512 83.09,5.3094 83.077,5.2697 83.063,5.2319 83.049,5.196 83.033,5.1621 83.016,5.13 82.997,5.0998 82.977,5.0713 82.954,5.0446 82.93,5.0196 82.903,4.9963 82.873,4.9746 82.84,4.9545 82.805,4.936 82.766,4.919 82.723,4.9035 82.677,4.8895 82.626,4.8769 82.6,4.8711 82.572,4.8656 82.543,4.8605 82.513,4.8557 82.482,4.8512 82.449,4.8471 82.416,4.8433 82.381,4.8398 82.345,4.8366 82.307,4.8337 82.269,4.8311 82.228,4.8288 82.187,4.8267 82.144,4.825 82.1,4.8236 82.054,4.8224 l -0.047,-9e-4 -0.049,-7e-4 -0.051,-4e-4 -0.052,-1e-4 c -0.296,0 -0.453,0 -0.453,-0.2812 0,-0.1719 0.094,-0.1719 0.407,-0.1719 h 5.046 L 86.59,4.8203 h -1.813 c -0.218,0 -0.25,0 -0.343,0.0313 -0.172,0.0156 -0.188,0.0468 -0.188,0.1718 0,0.1094 0.031,0.2032 0.063,0.3438 l 2.187,8.7808 c 0.141,0.579 0.219,0.61 0.828,0.61 h 1.75 c 1.5,0 2.86,-0.813 2.86,-3 0,-0.797 -0.313,-3.5627 -1.86,-5.3127 -0.437,-0.5156 -1.656,-1.625 -3.484,-1.625 l 0.265,-0.4531 c 3.204,0 6.344,3.3281 6.344,6.8598 0,2.296 -1.375,4 -3.64,4 h -5.11 c -0.297,0 -0.437,0 -0.437,-0.313 0,-0.156 0.14,-0.156 0.375,-0.156 0.968,0 0.968,-0.125 0.968,-0.297 0,-0.031 0,-0.125 -0.062,-0.359 z"
   id="path35"
   inkscape:connector-curvature="0"
   style="fill:#000000;stroke-width:0" />
<path
   d="m 100.4,10.32 -0.02,0.045 -0.02,0.044 -0.03,0.046 -0.02,0.046 -0.03,0.045 -0.02,0.046 -0.03,0.046 -0.03,0.046 -0.03,0.046 -0.04,0.044 -0.03,0.045 -0.04,0.043 -0.04,0.043 -0.04,0.042 -0.042,0.041 -0.044,0.039 -0.045,0.038 -0.047,0.037 -0.05,0.035 -0.05,0.033 -0.053,0.032 -0.055,0.029 -0.056,0.027 -0.058,0.025 -0.06,0.022 -0.062,0.02 -0.064,0.017 -0.066,0.014 -0.068,0.012 -0.069,0.008 -0.072,0.005 -0.074,0.002 c -1.734,0 -3.703,-2.1877 -3.703,-4.5471 0,-1.6562 1,-2.4687 2.016,-2.4687 l 0.047,0.3125 c -0.532,0 -1.032,0.4219 -1.032,1.5156 0,0.8438 0.485,2.625 0.829,3.3438 0.468,0.8909 1.187,1.5159 1.843,1.5159 1.047,0 1.265,-1.2972 1.265,-1.3909 L 100.16,9.4297 99.414,6.3828 C 99.352,6.1328 99.32,6.0703 99.102,5.8359 98.461,4.9922 97.789,4.6797 97.305,4.6797 L 97.258,4.3672 c 0.844,0 1.594,0.6719 1.89,0.9844 L 98.789,3.9297 C 98.57,3.0547 98.477,2.6484 97.898,2.1016 97.242,1.4453 96.648,1.4453 96.289,1.4453 c -0.469,0 -0.875,0.0313 -1.266,0.1563 0.516,0.1406 0.641,0.5937 0.641,0.7656 0,0.25 -0.187,0.5 -0.547,0.5 -0.375,0 -0.797,-0.3125 -0.797,-0.8438 0,-0.6406 0.657,-0.9062 2,-0.9062 2.063,0 3.125,1.3281 3.328,2.1875 l 1.762,7.1253 c 0.05,0.187 0.05,0.218 0.05,0.25 0,0.218 -0.17,0.39 -0.4,0.39 -0.4,0 -0.62,-0.312 -0.66,-0.75 z"
   id="path37"
   inkscape:connector-curvature="0"
   style="fill:#000000;stroke-width:0" />
<path
   d="m 107.26,0.50781 0,0.00867 0,0.00867 0,0.00444 0,0.00459 0,0.00477 0,0.005 0,0.00527 -0.01,0.00559 0,0.00596 0,0.00637 -0.01,0.00683 0,0.00733 -0.01,0.00788 0,0.00848 -0.01,0.00911 -0.01,0.00981 -0.01,0.01053 -0.01,0.01132 0,0.00596 -0.01,0.00618 0,0.00639 -0.01,0.00661 -0.01,0.00685 0,0.00708 -0.01,0.00732 -0.01,0.00756 0,0.00782 -0.01,0.00807 -0.01,0.00834 -0.01,0.00861 -0.01,0.00888 -0.01,0.00916 -0.01,0.00945 -0.01,0.00974 -0.01,0.01004 -0.01,0.01034 -0.01,0.01065 -0.01,0.01096 -0.01,0.01129 -0.01,0.01161 -0.02,0.01194 -0.01,0.01228 c -1.58,1.60934 -2.47,4.23434 -2.47,7.46874 0,3.0937 0.74,5.7347 2.58,7.6247 0.17,0.141 0.17,0.172 0.17,0.219 0,0.094 -0.08,0.125 -0.15,0.125 -0.21,0 -1.5,-1.141 -2.29,-2.703 -0.81,-1.609 -1.17,-3.313 -1.17,-5.2657 0,-1.4062 0.22,-3.2969 1.05,-5 0.94,-1.9062 2.23,-2.93749 2.41,-2.93749 0.07,0 0.15,0.03125 0.15,0.125 z"
   id="path39"
   inkscape:connector-curvature="0"
   style="fill:#000000;stroke-width:0" />
<path
   d="m 115.69,10.852 -0.05,-0.01 -0.04,-0.011 -0.04,-0.013 -0.04,-0.014 -0.04,-0.016 -0.04,-0.017 -0.04,-0.018 -0.03,-0.019 -0.03,-0.021 -0.03,-0.021 -0.03,-0.023 -0.03,-0.023 -0.03,-0.025 -0.02,-0.025 -0.03,-0.026 -0.02,-0.027 -0.02,-0.027 -0.02,-0.028 -0.02,-0.029 -0.01,-0.029 -0.02,-0.029 -0.01,-0.03 -0.01,-0.03 -0.01,-0.03 -0.01,-0.03 -0.01,-0.031 -0.01,-0.03 0,-0.03 -0.01,-0.03 0,-0.03 0,-0.03 0,-0.03 c 0,-0.3747 0.31,-0.4997 0.53,-0.4997 0.47,0 0.81,0.4063 0.81,0.8437 0,0.656 -0.76,0.969 -1.44,0.969 -0.96,0 -1.5,-0.953 -1.64,-1.266 -0.37,1.203 -1.36,1.266 -1.64,1.266 -1.62,0 -2.48,-2.0939 -2.48,-2.4377 0,-0.0625 0.06,-0.1406 0.17,-0.1406 0.13,0 0.16,0.0937 0.19,0.1562 0.55,1.7661 1.61,2.0941 2.08,2.0941 0.7,0 0.86,-0.657 0.86,-1.047 0,-0.3439 -0.1,-0.7189 -0.3,-1.4689 L 111.6,6.3516 c -0.25,-0.9532 -0.71,-1.8282 -1.55,-1.8282 -0.08,0 -0.47,0 -0.81,0.2032 0.58,0.125 0.7,0.5937 0.7,0.7812 0,0.3281 -0.23,0.5156 -0.55,0.5156 -0.37,0 -0.79,-0.3437 -0.79,-0.8437 0,-0.6719 0.75,-0.9688 1.44,-0.9688 0.76,0 1.29,0.5938 1.64,1.25 0.25,-0.9375 1.04,-1.25 1.64,-1.25 1.61,0 2.47,2.0782 2.47,2.4219 0,0.0938 -0.07,0.1563 -0.16,0.1563 -0.14,0 -0.16,-0.0782 -0.2,-0.2188 -0.44,-1.3906 -1.36,-2.0469 -2.07,-2.0469 -0.56,0 -0.86,0.4219 -0.86,1.0625 0,0.3594 0.07,0.6094 0.32,1.6563 l 0.56,2.1562 c 0.23,0.9536 0.76,1.6566 1.5,1.6566 0.03,0 0.48,0 0.81,-0.203 z"
   id="path41"
   inkscape:connector-curvature="0"
   style="fill:#000000;stroke-width:0" />
<path
   d="m 121.52,8.3203 0,0.1164 -0.01,0.1207 0,0.1247 0,0.1287 -0.01,0.1324 0,0.136 -0.02,0.2821 -0.03,0.2946 -0.03,0.3058 -0.04,0.3153 -0.05,0.325 -0.07,0.331 -0.07,0.338 -0.08,0.342 -0.1,0.346 -0.11,0.348 -0.07,0.175 -0.06,0.174 -0.07,0.174 -0.07,0.175 -0.08,0.173 -0.08,0.174 c -0.94,1.906 -2.25,2.937 -2.42,2.937 -0.07,0 -0.14,-0.031 -0.14,-0.125 0,-0.047 0,-0.078 0.26,-0.359 1.6,-1.594 2.49,-4.219 2.49,-7.4691 0,-3.0781 -0.75,-5.7343 -2.6,-7.60934 -0.15,-0.14062 -0.15,-0.17187 -0.15,-0.21875 0,-0.09375 0.07,-0.125 0.14,-0.125 0.2,0 1.51,1.14059 2.29,2.70309 0.8,1.6094 1.18,3.3282 1.18,5.2344 z"
   id="path43"
   inkscape:connector-curvature="0"
   style="fill:#000000;stroke-width:0" />
</g></svg>
