<?xml version="1.0" encoding="UTF-8" standalone="no"?>
<svg
   xmlns:dc="http://purl.org/dc/elements/1.1/"
   xmlns:cc="http://creativecommons.org/ns#"
   xmlns:rdf="http://www.w3.org/1999/02/22-rdf-syntax-ns#"
   xmlns:svg="http://www.w3.org/2000/svg"
   xmlns="http://www.w3.org/2000/svg"
   xmlns:sodipodi="http://sodipodi.sourceforge.net/DTD/sodipodi-0.dtd"
   xmlns:inkscape="http://www.inkscape.org/namespaces/inkscape"
   version="1.1"
   id="body"
   width="416.87234"
   height="22.656105"
   viewBox="0 0 0.57898937 0.031466813"
   preserveAspectRatio="none"
   inkscape:version="0.48.3.1 r9886"
   sodipodi:docname="ch1-Z-G-31.svg">
  <metadata
     id="metadata83">
    <rdf:RDF>
      <cc:Work
         rdf:about="">
        <dc:format>image/svg+xml</dc:format>
        <dc:type
           rdf:resource="http://purl.org/dc/dcmitype/StillImage" />
      </cc:Work>
    </rdf:RDF>
  </metadata>
  <defs
     id="defs81" />
  <sodipodi:namedview
     pagecolor="#ffffff"
     bordercolor="#666666"
     borderopacity="1"
     objecttolerance="10"
     gridtolerance="10"
     guidetolerance="10"
     inkscape:pageopacity="0"
     inkscape:pageshadow="2"
     inkscape:window-width="640"
     inkscape:window-height="480"
     id="namedview79"
     showgrid="false"
     inkscape:zoom="0.32777778"
     inkscape:cx="381.40626"
     inkscape:cy="493.90626"
     inkscape:window-x="0"
     inkscape:window-y="24"
     inkscape:window-maximized="0"
     inkscape:current-layer="body" />
  <title
     id="title3">SVG drawing</title>
  <desc
     id="desc5">This was produced by version 4.4 of GNU libplot, a free library for exporting 2-D vector graphics.</desc>
  <g
     id="content"
     transform="matrix(0.0017361,0,0,-0.0017361,-0.00151909,0.0329859)"
     xml:space="preserve"
     stroke-miterlimit="10.433"
     font-style="normal"
     font-variant="normal"
     font-weight="normal"
     font-stretch="normal"
     font-size-adjust="none"
     letter-spacing="normal"
     word-spacing="normal"
     style="font-style:normal;font-variant:normal;font-weight:normal;font-stretch:normal;letter-spacing:normal;word-spacing:normal;text-anchor:start;fill:none;stroke:#000000;stroke-linecap:butt;stroke-linejoin:miter;stroke-miterlimit:10.43299961;stroke-opacity:1;stroke-dasharray:none;stroke-dashoffset:0">
<path
   d="m 7.1914,11.309 0.0288,0 0.0276,0 0.0266,0 0.0255,0 0.0245,0.001 0.0234,10e-4 0.0224,10e-4 0.0214,0.001 0.0204,0.002 0.0194,0.003 0.0183,0.003 0.0175,0.003 0.0164,0.005 0.0155,0.004 0.0146,0.006 0.0136,0.007 0.0128,0.007 0.0118,0.008 0.0109,0.01 0.0101,0.01 0.0092,0.012 0.0083,0.012 0.0075,0.014 0.0066,0.015 0.0058,0.016 0.0026,0.009 0.0024,0.009 0.0022,0.009 0.002,0.01 0.0018,0.01 0.0016,0.011 0.0014,0.01 0.0013,0.012 10e-4,0.011 8e-4,0.012 7e-4,0.013 4e-4,0.013 3e-4,0.013 10e-5,0.014 c 0,0.156 -0.125,0.156 -0.4062,0.156 H 5.9258 c 0.3125,1.64 0.5312,2.765 0.6562,3.281 0.0938,0.375 0.4219,0.75 0.8438,0.75 0.3281,0 0.6719,-0.141 0.8281,-0.297 -0.625,-0.062 -0.8125,-0.515 -0.8125,-0.781 0,-0.328 0.2344,-0.516 0.5469,-0.516 0.3125,0 0.7812,0.266 0.7812,0.875 0,0.672 -0.6562,1.031 -1.3593,1.031 -0.6875,0 -1.3594,-0.499 -1.6719,-1.124 C 5.457,14.418 5.3008,13.856 4.9258,11.762 H 3.8633 c -0.2969,0 -0.4531,0 -0.4531,-0.281 0,-0.172 0.0937,-0.172 0.4062,-0.172 H 4.832 C 4.5508,9.8242 3.8945,6.2305 3.5352,4.543 3.2539,3.1523 3.0195,1.9961 2.2227,1.9961 c -0.0469,0 -0.5,0 -0.7969,0.2969 0.8125,0.0625 0.8125,0.7656 0.8125,0.7812 0,0.3125 -0.2344,0.5156 -0.5313,0.5156 -0.3281,0 -0.79684,-0.2812 -0.79684,-0.875 0,-0.6875 0.70314,-1.0468 1.31254,-1.0468 1.625,0 2.2968,2.9218 2.4687,3.7031 0.2813,1.2344 1.0625,5.4529 1.1406,5.9379 z"
   id="path9"
   inkscape:connector-curvature="0"
   style="fill:#000000;stroke-width:0" />
<path
   d="m 14.664,1.0586 0,0.0087 0,0.0086 L 14.663,1.0804 14.662,1.085 14.661,1.0897 14.66,1.0947 14.658,1.1 14.656,1.1056 14.653,1.1115 14.649,1.1179 14.645,1.1247 14.641,1.1321 14.635,1.14 14.629,1.1484 14.622,1.1576 14.614,1.1674 14.605,1.1779 14.595,1.1892 14.59,1.1952 14.585,1.2013 14.579,1.2077 14.573,1.2144 14.566,1.2212 14.56,1.2283 14.553,1.2356 14.545,1.2432 14.538,1.251 14.53,1.2591 14.522,1.2674 14.513,1.276 14.504,1.2849 14.495,1.294 l -0.009,0.0095 -0.01,0.0097 -0.011,0.0101 -0.01,0.0103 -0.011,0.0107 -0.012,0.0109 -0.011,0.0113 -0.013,0.0116 -0.012,0.012 -0.013,0.0122 c -1.578,1.6094 -2.469,4.2344 -2.469,7.4688 0,3.0939 0.734,5.7349 2.578,7.6249 0.172,0.141 0.172,0.172 0.172,0.219 0,0.094 -0.078,0.125 -0.156,0.125 -0.203,0 -1.5,-1.141 -2.281,-2.703 -0.813,-1.61 -1.172,-3.313 -1.172,-5.2659 0,-1.4063 0.218,-3.2969 1.047,-5 0.937,-1.9063 2.234,-2.93751 2.406,-2.93751 0.078,0 0.156,0.03125 0.156,0.12501 z"
   id="path11"
   inkscape:connector-curvature="0"
   style="fill:#000000;stroke-width:0" />
<path
   d="M 23.094,11.402 23.048,11.393 23.004,11.382 22.961,11.369 22.92,11.355 22.881,11.339 22.843,11.322 22.807,11.304 22.773,11.285 22.74,11.264 22.709,11.243 22.68,11.22 22.652,11.196 22.625,11.172 22.6,11.147 22.577,11.121 22.555,11.094 22.534,11.066 22.515,11.038 22.497,11.01 l -0.016,-0.029 -0.015,-0.029 -0.013,-0.03 -0.012,-0.03 -0.011,-0.03 -0.009,-0.03 -0.008,-0.031 -0.007,-0.03 -0.006,-0.03 -0.004,-0.031 -0.003,-0.03 -0.002,-0.029 0,-0.03 c 0,-0.375 0.312,-0.5 0.531,-0.5 0.469,0 0.812,0.406 0.812,0.844 0,0.656 -0.765,0.969 -1.437,0.969 -0.969,0 -1.5,-0.953 -1.641,-1.266 -0.375,1.203 -1.359,1.266 -1.64,1.266 -1.625,0 -2.485,-2.0942 -2.485,-2.4379 0,-0.0625 0.063,-0.1406 0.172,-0.1406 0.125,0 0.156,0.0937 0.188,0.1562 0.547,1.7653 1.609,2.0943 2.078,2.0943 0.703,0 0.859,-0.657 0.859,-1.047 0,-0.344 -0.094,-0.7192 -0.297,-1.4692 L 19,6.9023 C 18.75,5.9492 18.297,5.0742 17.453,5.0742 c -0.078,0 -0.469,0 -0.812,0.2031 0.578,0.125 0.703,0.5938 0.703,0.7813 0,0.3281 -0.235,0.5156 -0.547,0.5156 C 16.422,6.5742 16,6.2305 16,5.7305 c 0,-0.6719 0.75,-0.9688 1.438,-0.9688 0.765,0 1.296,0.5938 1.64,1.25 0.25,-0.9375 1.047,-1.25 1.641,-1.25 1.609,0 2.469,2.0781 2.469,2.4219 0,0.0937 -0.063,0.1562 -0.157,0.1562 -0.14,0 -0.156,-0.0781 -0.203,-0.2187 -0.437,-1.3906 -1.359,-2.0469 -2.062,-2.0469 -0.563,0 -0.86,0.4219 -0.86,1.0625 0,0.3594 0.063,0.6094 0.313,1.6563 l 0.562,2.1562 c 0.235,0.9528 0.766,1.6568 1.5,1.6568 0.031,0 0.485,0 0.813,-0.204 z"
   id="path13"
   inkscape:connector-curvature="0"
   style="fill:#000000;stroke-width:0" />
<path
   d="m 27.523,4.8555 0,0.0857 L 27.52,5.0255 27.516,5.1082 27.509,5.1893 27.501,5.2687 27.492,5.3463 27.48,5.4221 27.467,5.4958 27.452,5.5676 27.435,5.6372 27.416,5.7047 27.395,5.7698 27.372,5.8326 27.348,5.8929 27.321,5.9507 27.293,6.0059 27.263,6.0583 27.231,6.108 27.196,6.1548 27.16,6.1987 27.122,6.2395 27.082,6.2773 27.04,6.3118 26.996,6.343 26.95,6.3709 26.902,6.3953 26.852,6.4162 26.8,6.4335 26.745,6.4471 26.689,6.4569 26.631,6.4628 26.57,6.4648 c -0.5,0 -0.765,-0.4218 -0.765,-0.7656 0,-0.3594 0.25,-0.7812 0.781,-0.7812 0.219,0 0.391,0.0625 0.531,0.2031 0.031,0.0312 0.047,0.0312 0.063,0.0312 0.031,0 0.031,-0.2187 0.031,-0.2968 0,-0.5313 -0.094,-1.5625 -1.016,-2.5938 -0.172,-0.1875 -0.172,-0.2187 -0.172,-0.25 0,-0.0781 0.079,-0.1562 0.157,-0.1562 0.125,0 1.343,1.1718 1.343,3 z"
   id="path15"
   inkscape:connector-curvature="0"
   style="fill:#000000;stroke-width:0" />
<path
   d="M 35.609,3.1367 35.525,3.0235 35.437,2.9127 35.344,2.8052 35.247,2.7014 35.197,2.6512 35.146,2.6021 35.094,2.5544 35.041,2.508 34.987,2.4631 34.931,2.4197 34.875,2.378 34.818,2.3379 34.76,2.2996 34.701,2.2632 34.642,2.2287 34.581,2.1963 34.519,2.166 34.456,2.1379 34.393,2.1121 34.328,2.0886 34.263,2.0676 34.197,2.0491 34.13,2.0333 34.062,2.0201 33.993,2.0097 33.923,2.0022 33.853,1.9976 33.781,1.9961 c -0.203,0 -0.953,0.0312 -1.203,0.7656 0.047,-0.0156 0.125,-0.0156 0.156,-0.0156 0.485,0 0.797,0.4062 0.797,0.7656 0,0.375 -0.297,0.5 -0.531,0.5 -0.266,0 -0.812,-0.1875 -0.812,-0.9687 0,-0.8125 0.687,-1.375 1.593,-1.375 1.578,0 3.188,1.4687 3.625,3.2343 l 1.563,6.2037 c 0.015,0.078 0.047,0.171 0.047,0.265 0,0.235 -0.188,0.391 -0.422,0.391 -0.141,0 -0.485,-0.063 -0.61,-0.531 L 36.812,6.5586 C 36.734,6.2617 36.734,6.2305 36.609,6.0586 36.281,5.6211 35.766,5.0742 35,5.0742 c -0.891,0 -0.969,0.875 -0.969,1.3125 0,0.9063 0.422,2.125 0.86,3.2656 0.171,0.4687 0.265,0.6877 0.265,0.9997 0,0.672 -0.468,1.282 -1.25,1.282 -1.468,0 -2.062,-2.3129 -2.062,-2.4379 0,-0.0625 0.078,-0.1406 0.187,-0.1406 0.141,0 0.157,0.0625 0.219,0.2812 0.375,1.3443 0.984,1.9693 1.609,1.9693 0.141,0 0.407,0 0.407,-0.516 0,-0.422 -0.172,-0.875 -0.407,-1.4845 -0.781,-2.0782 -0.781,-2.6094 -0.781,-2.9844 0,-1.5156 1.078,-1.8594 1.875,-1.8594 0.453,0 1.031,0.1406 1.594,0.7344 L 36.562,5.4805 C 36.312,4.543 36.156,3.918 35.609,3.1367 z"
   id="path17"
   inkscape:connector-curvature="0"
   style="fill:#000000;stroke-width:0" />
<path
   d="M 44.09,8.8711 44.089,8.9875 44.088,9.1082 44.085,9.2329 44.081,9.3616 44.076,9.494 44.07,9.63 l -0.019,0.2821 -0.025,0.2949 -0.033,0.305 -0.041,0.316 -0.052,0.324 -0.061,0.332 -0.073,0.338 -0.086,0.342 -0.098,0.346 -0.112,0.348 -0.061,0.174 -0.065,0.175 -0.069,0.174 -0.073,0.174 -0.078,0.174 -0.081,0.173 c -0.938,1.907 -2.25,2.938 -2.422,2.938 -0.062,0 -0.141,-0.031 -0.141,-0.125 0,-0.047 0,-0.078 0.266,-0.36 C 42.34,14.762 43.23,12.137 43.23,8.8867 43.23,5.8086 42.48,3.1523 40.637,1.2773 40.48,1.1367 40.48,1.1055 40.48,1.0586 c 0,-0.09376 0.079,-0.12501 0.141,-0.12501 0.203,0 1.516,1.14061 2.297,2.70311 0.797,1.6094 1.172,3.3281 1.172,5.2344 z"
   id="path19"
   inkscape:connector-curvature="0"
   style="fill:#000000;stroke-width:0" />
<path
   d="m 60.84,10.074 0.041,0 0.043,10e-4 0.043,0.001 0.022,10e-4 0.021,0.002 0.022,10e-4 0.021,0.003 0.021,0.003 0.02,0.003 0.02,0.004 0.02,0.005 0.019,0.005 0.019,0.006 0.018,0.007 0.017,0.008 0.017,0.009 0.015,0.01 0.015,0.011 0.014,0.012 0.013,0.013 0.011,0.014 0.006,0.007 0.005,0.008 0.005,0.009 0.004,0.008 0.005,0.009 0.004,0.009 0.003,0.01 0.003,0.01 0.003,0.01 0.003,0.011 0.002,0.011 0.002,0.011 10e-4,0.012 10e-4,0.012 0.001,0.013 0,0.013 c 0,0.296 -0.266,0.296 -0.5,0.296 h -9.375 c -0.219,0 -0.5,0 -0.5,-0.281 0,-0.297 0.265,-0.297 0.5,-0.297 z"
   id="path21"
   inkscape:connector-curvature="0"
   style="fill:#000000;stroke-width:0" />
<path
   d="m 60.84,7.1055 0.041,0 0.043,6e-4 0.043,0.0013 0.022,0.0012 0.021,0.0015 0.022,0.002 0.021,0.0024 0.021,0.003 0.02,0.0036 0.02,0.0043 0.02,0.0049 0.019,0.0057 0.019,0.0066 0.018,0.0074 0.017,0.0083 0.017,0.0093 0.015,0.0103 0.015,0.0115 0.014,0.0125 0.013,0.0138 0.011,0.015 0.006,0.008 0.005,0.0083 0.005,0.0087 0.004,0.009 0.005,0.0094 0.004,0.0097 0.003,0.0101 0.003,0.0104 0.003,0.0109 0.003,0.0112 0.002,0.0117 0.002,0.012 10e-4,0.0124 10e-4,0.0129 0.001,0.0132 0,0.0137 c 0,0.2969 -0.266,0.2969 -0.5,0.2969 h -9.375 c -0.219,0 -0.5,0 -0.5,-0.2812 0,-0.3125 0.265,-0.3125 0.5,-0.3125 z"
   id="path23"
   inkscape:connector-curvature="0"
   style="fill:#000000;stroke-width:0" />
<path
   d="M 74.203,11.402 74.157,11.393 74.113,11.382 74.07,11.369 74.029,11.355 73.99,11.339 73.953,11.322 73.917,11.304 73.882,11.285 73.85,11.264 73.818,11.243 73.789,11.22 l -0.028,-0.024 -0.027,-0.024 -0.025,-0.025 -0.023,-0.026 -0.022,-0.027 -0.02,-0.028 -0.02,-0.028 -0.017,-0.028 -0.016,-0.029 -0.015,-0.029 -0.014,-0.03 -0.012,-0.03 -0.01,-0.03 -0.01,-0.03 -0.008,-0.031 -0.007,-0.03 -0.005,-0.03 -0.005,-0.031 -0.003,-0.03 -10e-4,-0.029 -0.001,-0.03 c 0,-0.375 0.312,-0.5 0.531,-0.5 0.469,0 0.813,0.406 0.813,0.844 0,0.656 -0.766,0.969 -1.438,0.969 -0.968,0 -1.5,-0.953 -1.64,-1.266 -0.375,1.203 -1.36,1.266 -1.641,1.266 -1.625,0 -2.484,-2.0942 -2.484,-2.4379 0,-0.0625 0.062,-0.1406 0.171,-0.1406 0.126,0 0.157,0.0937 0.188,0.1562 0.547,1.7653 1.609,2.0943 2.078,2.0943 0.703,0 0.86,-0.657 0.86,-1.047 0,-0.344 -0.094,-0.7192 -0.297,-1.4692 L 70.109,6.9023 c -0.25,-0.9531 -0.703,-1.8281 -1.547,-1.8281 -0.078,0 -0.468,0 -0.812,0.2031 0.578,0.125 0.703,0.5938 0.703,0.7813 0,0.3281 -0.234,0.5156 -0.547,0.5156 -0.375,0 -0.797,-0.3437 -0.797,-0.8437 0,-0.6719 0.75,-0.9688 1.438,-0.9688 0.765,0 1.297,0.5938 1.641,1.25 0.25,-0.9375 1.046,-1.25 1.64,-1.25 1.61,0 2.469,2.0781 2.469,2.4219 0,0.0937 -0.063,0.1562 -0.156,0.1562 C 74,7.3398 73.984,7.2617 73.938,7.1211 73.5,5.7305 72.578,5.0742 71.875,5.0742 c -0.563,0 -0.859,0.4219 -0.859,1.0625 0,0.3594 0.062,0.6094 0.312,1.6563 l 0.563,2.1562 c 0.234,0.9528 0.765,1.6568 1.5,1.6568 0.031,0 0.484,0 0.812,-0.204 z"
   id="path25"
   inkscape:connector-curvature="0"
   style="fill:#000000;stroke-width:0" />
<path
   d="m 80.711,1.0586 0,0.0087 -0.001,0.0086 0,0.0045 L 80.709,1.085 80.708,1.0897 80.707,1.0947 80.705,1.1 80.702,1.1056 80.699,1.1115 80.696,1.1179 80.692,1.1247 80.687,1.1321 80.682,1.14 80.676,1.1484 80.669,1.1576 80.661,1.1674 80.652,1.1779 80.642,1.1892 80.637,1.1952 80.631,1.2013 80.626,1.2077 80.62,1.2144 80.613,1.2212 80.606,1.2283 80.6,1.2356 80.592,1.2432 80.585,1.251 80.577,1.2591 80.569,1.2674 80.56,1.276 80.551,1.2849 80.542,1.294 l -0.01,0.0095 -0.009,0.0097 -0.011,0.0101 -0.01,0.0103 -0.011,0.0107 -0.012,0.0109 -0.012,0.0113 -0.012,0.0116 -0.012,0.012 -0.013,0.0122 c -1.578,1.6094 -2.469,4.2344 -2.469,7.4688 0,3.0939 0.734,5.7349 2.578,7.6249 0.172,0.141 0.172,0.172 0.172,0.219 0,0.094 -0.078,0.125 -0.156,0.125 -0.203,0 -1.5,-1.141 -2.282,-2.703 -0.812,-1.61 -1.171,-3.313 -1.171,-5.2659 0,-1.4063 0.218,-3.2969 1.046,-5 0.938,-1.9063 2.235,-2.93751 2.407,-2.93751 0.078,0 0.156,0.03125 0.156,0.12501 z"
   id="path27"
   inkscape:connector-curvature="0"
   style="fill:#000000;stroke-width:0" />
<path
   d="m 86.184,15.106 0,0.016 0,0.016 0,0.016 0,0.015 -10e-4,0.015 0,0.014 0,0.013 0,0.014 0,0.013 -0.001,0.012 0,0.012 0,0.012 -0.001,0.011 -10e-4,0.01 0,0.011 -0.001,0.01 -0.001,0.009 -10e-4,0.009 -0.002,0.009 -10e-4,0.009 -0.001,0.008 -0.002,0.008 -0.002,0.007 -0.002,0.007 -0.004,0.013 -0.006,0.012 -0.006,0.011 -0.006,0.01 -0.008,0.008 -0.009,0.008 -0.01,0.007 -0.011,0.006 -0.012,0.005 -0.013,0.004 -0.014,0.003 -0.008,0.002 -0.008,10e-4 -0.009,0.002 -0.008,10e-4 -0.01,0.001 -0.009,10e-4 -0.01,0 -0.01,10e-4 -0.011,10e-4 -0.011,0 -0.011,0.001 -0.012,0 -0.012,0 -0.013,0 -0.013,0 -0.014,0 -0.013,0 -0.015,10e-4 C 85.48,15.059 84.684,14.465 83.059,14.465 v -0.453 c 0.359,0 1.156,0 2.031,0.406 V 6.1367 c 0,-0.5625 -0.047,-0.7656 -1.453,-0.7656 H 83.152 V 4.918 c 0.422,0.0312 1.969,0.0312 2.485,0.0312 0.531,0 2.062,0 2.484,-0.0312 v 0.4531 h -0.484 c -1.407,0 -1.453,0.2031 -1.453,0.7656 z"
   id="path29"
   inkscape:connector-curvature="0"
   style="fill:#000000;stroke-width:0" />
<path
   d="m 99.293,8.5898 h 4.387 c 0.22,0 0.5,0 0.5,0.2813 0,0.3125 -0.26,0.3125 -0.5,0.3125 h -4.387 v 4.3754 c 0,0.234 0,0.515 -0.281,0.515 -0.313,0 -0.313,-0.265 -0.313,-0.515 V 9.1836 h -4.39 c -0.219,0 -0.5,0 -0.5,-0.2969 0,-0.2969 0.265,-0.2969 0.5,-0.2969 h 4.39 V 4.1992 c 0,-0.2187 0,-0.5 0.297,-0.5 0.297,0 0.297,0.2656 0.297,0.5 z"
   id="path31"
   inkscape:connector-curvature="0"
   style="fill:#000000;stroke-width:0" />
<path
   d="m 116.17,11.402 -0.05,-0.009 -0.04,-0.011 -0.04,-0.013 -0.05,-0.014 -0.03,-0.016 -0.04,-0.017 -0.04,-0.018 -0.03,-0.019 -0.04,-0.021 -0.03,-0.021 -0.03,-0.023 -0.02,-0.024 -0.03,-0.024 -0.03,-0.025 -0.02,-0.026 -0.02,-0.027 -0.02,-0.028 -0.02,-0.028 -0.02,-0.028 -0.01,-0.029 -0.02,-0.029 -0.01,-0.03 -0.01,-0.03 -0.02,-0.03 0,-0.03 -0.01,-0.031 -0.01,-0.03 -0.01,-0.03 0,-0.031 0,-0.03 0,-0.029 -0.01,-0.03 c 0,-0.375 0.32,-0.5 0.54,-0.5 0.46,0 0.81,0.406 0.81,0.844 0,0.656 -0.77,0.969 -1.44,0.969 -0.97,0 -1.5,-0.953 -1.64,-1.266 -0.37,1.203 -1.36,1.266 -1.64,1.266 -1.63,0 -2.48,-2.0942 -2.48,-2.4379 0,-0.0625 0.06,-0.1406 0.17,-0.1406 0.12,0 0.15,0.0937 0.18,0.1562 0.55,1.7653 1.61,2.0943 2.08,2.0943 0.71,0 0.86,-0.657 0.86,-1.047 0,-0.344 -0.09,-0.7192 -0.29,-1.4692 l -0.54,-2.1875 c -0.25,-0.9531 -0.7,-1.8281 -1.54,-1.8281 -0.08,0 -0.47,0 -0.82,0.2031 0.58,0.125 0.71,0.5938 0.71,0.7813 0,0.3281 -0.24,0.5156 -0.55,0.5156 -0.37,0 -0.8,-0.3437 -0.8,-0.8437 0,-0.6719 0.75,-0.9688 1.44,-0.9688 0.77,0 1.3,0.5938 1.64,1.25 0.25,-0.9375 1.05,-1.25 1.64,-1.25 1.61,0 2.47,2.0781 2.47,2.4219 0,0.0937 -0.06,0.1562 -0.15,0.1562 -0.15,0 -0.16,-0.0781 -0.21,-0.2187 -0.44,-1.3906 -1.36,-2.0469 -2.06,-2.0469 -0.56,0 -0.86,0.4219 -0.86,1.0625 0,0.3594 0.06,0.6094 0.31,1.6563 l 0.57,2.1562 c 0.23,0.9528 0.76,1.6568 1.5,1.6568 0.03,0 0.48,0 0.81,-0.204 z"
   id="path33"
   inkscape:connector-curvature="0"
   style="fill:#000000;stroke-width:0" />
<path
   d="M 121.69,3.1367 121.61,3.0235 121.52,2.9127 121.43,2.8052 121.33,2.7014 121.28,2.6512 121.23,2.6021 121.18,2.5544 121.12,2.508 121.07,2.4631 121.01,2.4197 120.96,2.378 120.9,2.3379 120.84,2.2996 120.78,2.2632 120.72,2.2287 120.66,2.1963 120.6,2.166 120.54,2.1379 120.47,2.1121 120.41,2.0886 120.34,2.0676 120.28,2.0491 120.21,2.0333 120.14,2.0201 120.07,2.0097 120,2.0022 119.93,1.9976 119.86,1.9961 c -0.2,0 -0.95,0.0312 -1.2,0.7656 0.05,-0.0156 0.13,-0.0156 0.16,-0.0156 0.48,0 0.79,0.4062 0.79,0.7656 0,0.375 -0.29,0.5 -0.53,0.5 -0.26,0 -0.81,-0.1875 -0.81,-0.9687 0,-0.8125 0.69,-1.375 1.59,-1.375 1.58,0 3.19,1.4687 3.63,3.2343 l 1.56,6.2037 c 0.02,0.078 0.05,0.171 0.05,0.265 0,0.235 -0.19,0.391 -0.42,0.391 -0.14,0 -0.49,-0.063 -0.61,-0.531 l -1.18,-4.6724 c -0.07,-0.2969 -0.07,-0.3281 -0.2,-0.5 -0.33,-0.4375 -0.84,-0.9844 -1.61,-0.9844 -0.89,0 -0.97,0.875 -0.97,1.3125 0,0.9063 0.43,2.125 0.86,3.2656 0.17,0.4687 0.27,0.6877 0.27,0.9997 0,0.672 -0.47,1.282 -1.25,1.282 -1.47,0 -2.06,-2.3129 -2.06,-2.4379 0,-0.0625 0.07,-0.1406 0.18,-0.1406 0.14,0 0.16,0.0625 0.22,0.2812 0.38,1.3443 0.99,1.9693 1.61,1.9693 0.14,0 0.41,0 0.41,-0.516 0,-0.422 -0.17,-0.875 -0.41,-1.4845 -0.78,-2.0782 -0.78,-2.6094 -0.78,-2.9844 0,-1.5156 1.08,-1.8594 1.88,-1.8594 0.45,0 1.03,0.1406 1.59,0.7344 l 0.01,-0.0156 C 122.39,4.543 122.24,3.918 121.69,3.1367 z"
   id="path35"
   inkscape:connector-curvature="0"
   style="fill:#000000;stroke-width:0" />
<path
   d="m 130.18,8.8711 0,0.1164 -0.01,0.1207 0,0.1247 0,0.1287 -0.01,0.1324 0,0.136 -0.02,0.2821 -0.03,0.2949 -0.03,0.305 -0.04,0.316 -0.05,0.324 -0.07,0.332 -0.07,0.338 -0.08,0.342 -0.1,0.346 -0.11,0.348 -0.06,0.174 -0.07,0.175 -0.07,0.174 -0.07,0.174 -0.08,0.174 -0.08,0.173 c -0.94,1.907 -2.25,2.938 -2.42,2.938 -0.07,0 -0.14,-0.031 -0.14,-0.125 0,-0.047 0,-0.078 0.26,-0.36 1.6,-1.593 2.49,-4.218 2.49,-7.4683 0,-3.0781 -0.75,-5.7344 -2.6,-7.6094 -0.15,-0.1406 -0.15,-0.1718 -0.15,-0.2187 0,-0.09376 0.07,-0.12501 0.14,-0.12501 0.2,0 1.51,1.14061 2.29,2.70311 0.8,1.6094 1.18,3.3281 1.18,5.2344 z"
   id="path37"
   inkscape:connector-curvature="0"
   style="fill:#000000;stroke-width:0" />
<path
   d="m 133.18,12.359 1.17,1.157 c 1.75,1.531 2.42,2.14 2.42,3.25 0,1.265 -1.01,2.172 -2.37,2.172 -1.25,0 -2.08,-1.032 -2.08,-2.032 0,-0.625 0.55,-0.625 0.59,-0.625 0.19,0 0.58,0.141 0.58,0.594 0,0.297 -0.2,0.578 -0.59,0.578 -0.1,0 -0.11,0 -0.14,0 0.25,0.719 0.86,1.125 1.5,1.125 1.01,0 1.5,-0.89 1.5,-1.812 0,-0.891 -0.56,-1.782 -1.17,-2.469 l -2.14,-2.391 c -0.13,-0.109 -0.13,-0.14 -0.13,-0.406 h 4.14 l 0.31,1.938 h -0.28 c -0.06,-0.329 -0.14,-0.829 -0.25,-0.985 -0.08,-0.094 -0.81,-0.094 -1.06,-0.094 z"
   id="path39"
   inkscape:connector-curvature="0"
   style="fill:#000000;stroke-width:0" />
<path
   d="m 147.72,8.5898 h 4.39 c 0.22,0 0.5,0 0.5,0.2813 0,0.3125 -0.26,0.3125 -0.5,0.3125 h -4.39 v 4.3754 c 0,0.234 0,0.515 -0.28,0.515 -0.31,0 -0.31,-0.265 -0.31,-0.515 V 9.1836 h -4.39 c -0.22,0 -0.5,0 -0.5,-0.2969 0,-0.2969 0.26,-0.2969 0.5,-0.2969 h 4.39 V 4.1992 c 0,-0.2187 0,-0.5 0.3,-0.5 0.29,0 0.29,0.2656 0.29,0.5 z"
   id="path41"
   inkscape:connector-curvature="0"
   style="fill:#000000;stroke-width:0" />
<path
   d="M 161.25,3.1367 161.16,3.0235 161.07,2.9127 160.98,2.8052 160.88,2.7014 160.83,2.6512 160.78,2.6021 160.73,2.5544 160.68,2.508 160.62,2.4631 160.57,2.4197 160.51,2.378 160.46,2.3379 160.4,2.2996 160.34,2.2632 160.28,2.2287 160.22,2.1963 160.16,2.166 160.09,2.1379 160.03,2.1121 159.97,2.0886 159.9,2.0676 159.83,2.0491 159.77,2.0333 159.7,2.0201 159.63,2.0097 159.56,2.0022 159.49,1.9976 159.42,1.9961 c -0.21,0 -0.96,0.0312 -1.21,0.7656 0.05,-0.0156 0.13,-0.0156 0.16,-0.0156 0.48,0 0.8,0.4062 0.8,0.7656 0,0.375 -0.3,0.5 -0.53,0.5 -0.27,0 -0.82,-0.1875 -0.82,-0.9687 0,-0.8125 0.69,-1.375 1.6,-1.375 1.58,0 3.18,1.4687 3.62,3.2343 l 1.56,6.2037 c 0.02,0.078 0.05,0.171 0.05,0.265 0,0.235 -0.19,0.391 -0.42,0.391 -0.14,0 -0.48,-0.063 -0.61,-0.531 l -1.17,-4.6724 c -0.08,-0.2969 -0.08,-0.3281 -0.2,-0.5 -0.33,-0.4375 -0.85,-0.9844 -1.61,-0.9844 -0.89,0 -0.97,0.875 -0.97,1.3125 0,0.9063 0.42,2.125 0.86,3.2656 0.17,0.4687 0.26,0.6877 0.26,0.9997 0,0.672 -0.47,1.282 -1.25,1.282 -1.47,0 -2.06,-2.3129 -2.06,-2.4379 0,-0.0625 0.08,-0.1406 0.19,-0.1406 0.14,0 0.15,0.0625 0.22,0.2812 0.37,1.3443 0.98,1.9693 1.61,1.9693 0.14,0 0.4,0 0.4,-0.516 0,-0.422 -0.17,-0.875 -0.4,-1.4845 -0.79,-2.0782 -0.79,-2.6094 -0.79,-2.9844 0,-1.5156 1.08,-1.8594 1.88,-1.8594 0.45,0 1.03,0.1406 1.59,0.7344 L 162.2,5.4805 C 161.95,4.543 161.79,3.918 161.25,3.1367 z"
   id="path43"
   inkscape:connector-curvature="0"
   style="fill:#000000;stroke-width:0" />
<path
   d="m 170.41,1.0586 0,0.0087 0,0.0086 0,0.0045 0,0.0046 0,0.0047 0,0.005 0,0.0053 0,0.0056 -0.01,0.0059 0,0.0064 0,0.0068 -0.01,0.0074 0,0.0079 -0.01,0.0084 -0.01,0.0092 -0.01,0.0098 0,0.0105 -0.01,0.0113 -0.01,0.006 -0.01,0.0061 0,0.0064 -0.01,0.0067 0,0.0068 -0.01,0.0071 -0.01,0.0073 0,0.0076 -0.01,0.0078 -0.01,0.0081 -0.01,0.0083 -0.01,0.0086 -0.01,0.0089 0,0.0091 -0.01,0.0095 -0.01,0.0097 -0.01,0.0101 -0.02,0.0103 -0.01,0.0107 -0.01,0.0109 -0.01,0.0113 -0.01,0.0116 -0.01,0.012 -0.02,0.0122 c -1.58,1.6094 -2.47,4.2344 -2.47,7.4688 0,3.0939 0.74,5.7349 2.58,7.6249 0.17,0.141 0.17,0.172 0.17,0.219 0,0.094 -0.07,0.125 -0.15,0.125 -0.21,0 -1.5,-1.141 -2.28,-2.703 -0.82,-1.61 -1.18,-3.313 -1.18,-5.2659 0,-1.4063 0.22,-3.2969 1.05,-5 0.94,-1.9063 2.24,-2.93751 2.41,-2.93751 0.08,0 0.15,0.03125 0.15,0.12501 z"
   id="path45"
   inkscape:connector-curvature="0"
   style="fill:#000000;stroke-width:0" />
<path
   d="m 175.89,15.106 0,0.016 0,0.016 0,0.016 0,0.015 0,0.015 0,0.014 0,0.013 0,0.014 0,0.013 0,0.012 0,0.012 -0.01,0.012 0,0.011 0,0.01 0,0.011 0,0.01 0,0.009 0,0.009 0,0.009 0,0.009 0,0.008 -0.01,0.008 0,0.007 0,0.007 0,0.013 -0.01,0.012 -0.01,0.011 0,0.01 -0.01,0.008 -0.01,0.008 -0.01,0.007 -0.01,0.006 -0.01,0.005 -0.01,0.004 -0.02,0.003 -0.01,0.002 -0.01,10e-4 0,0.002 -0.01,10e-4 -0.01,0.001 -0.01,10e-4 -0.01,0 -0.01,10e-4 -0.01,10e-4 -0.01,0 -0.01,0.001 -0.02,0 -0.01,0 -0.01,0 -0.01,0 -0.02,0 -0.01,0 -0.02,10e-4 c -0.39,-0.422 -1.18,-1.016 -2.81,-1.016 v -0.453 c 0.36,0 1.16,0 2.03,0.406 V 6.1367 c 0,-0.5625 -0.04,-0.7656 -1.45,-0.7656 h -0.49 V 4.918 c 0.43,0.0312 1.97,0.0312 2.49,0.0312 0.53,0 2.06,0 2.48,-0.0312 v 0.4531 h -0.48 c -1.41,0 -1.45,0.2031 -1.45,0.7656 z"
   id="path47"
   inkscape:connector-curvature="0"
   style="fill:#000000;stroke-width:0" />
<path
   d="m 193.13,8.5742 0.05,10e-5 0.05,5e-4 0.06,0.0015 0.02,0.0012 0.03,0.0016 0.02,0.0021 0.02,0.0026 0.03,0.0031 0.02,0.0038 0.02,0.0045 0.02,0.0052 0.03,0.006 0.02,0.0069 0.01,0.0078 0.02,0.0087 0.02,0.0098 0.02,0.0109 0.01,0.012 0.02,0.0133 0.01,0.0145 0.01,0.0158 0.01,0.0171 0.01,0.0092 0,0.0094 0.01,0.0099 0,0.0102 0.01,0.0107 0,0.011 0,0.0114 0,0.0118 0.01,0.0123 0,0.0126 0,0.0131 0,0.0135 0,0.014 0,0.0144 c 0,0.3281 -0.28,0.3281 -0.56,0.3281 h -8.59 c -0.27,0 -0.57,0 -0.57,-0.3281 0,-0.3125 0.3,-0.3125 0.57,-0.3125 z"
   id="path49"
   inkscape:connector-curvature="0"
   style="fill:#000000;stroke-width:0" />
<path
   d="M 202.79,3.1367 202.7,3.0235 202.61,2.9127 202.52,2.8052 202.42,2.7014 202.37,2.6512 202.32,2.6021 202.27,2.5544 202.22,2.508 202.16,2.4631 202.11,2.4197 202.05,2.378 201.99,2.3379 201.94,2.2996 201.88,2.2632 201.82,2.2287 201.76,2.1963 201.7,2.166 201.63,2.1379 201.57,2.1121 201.5,2.0886 201.44,2.0676 201.37,2.0491 201.31,2.0333 201.24,2.0201 201.17,2.0097 201.1,2.0022 201.03,1.9976 200.96,1.9961 c -0.21,0 -0.96,0.0312 -1.21,0.7656 0.05,-0.0156 0.13,-0.0156 0.16,-0.0156 0.49,0 0.8,0.4062 0.8,0.7656 0,0.375 -0.3,0.5 -0.53,0.5 -0.27,0 -0.82,-0.1875 -0.82,-0.9687 0,-0.8125 0.69,-1.375 1.6,-1.375 1.58,0 3.19,1.4687 3.62,3.2343 l 1.57,6.2037 c 0.01,0.078 0.04,0.171 0.04,0.265 0,0.235 -0.19,0.391 -0.42,0.391 -0.14,0 -0.48,-0.063 -0.61,-0.531 l -1.17,-4.6724 c -0.08,-0.2969 -0.08,-0.3281 -0.2,-0.5 -0.33,-0.4375 -0.85,-0.9844 -1.61,-0.9844 -0.89,0 -0.97,0.875 -0.97,1.3125 0,0.9063 0.42,2.125 0.86,3.2656 0.17,0.4687 0.26,0.6877 0.26,0.9997 0,0.672 -0.47,1.282 -1.25,1.282 -1.47,0 -2.06,-2.3129 -2.06,-2.4379 0,-0.0625 0.08,-0.1406 0.19,-0.1406 0.14,0 0.15,0.0625 0.22,0.2812 0.37,1.3443 0.98,1.9693 1.61,1.9693 0.14,0 0.4,0 0.4,-0.516 0,-0.422 -0.17,-0.875 -0.4,-1.4845 -0.79,-2.0782 -0.79,-2.6094 -0.79,-2.9844 0,-1.5156 1.08,-1.8594 1.88,-1.8594 0.45,0 1.03,0.1406 1.59,0.7344 l 0.02,-0.0156 C 203.49,4.543 203.33,3.918 202.79,3.1367 z"
   id="path51"
   inkscape:connector-curvature="0"
   style="fill:#000000;stroke-width:0" />
<path
   d="m 211.27,8.8711 0,0.1164 -0.01,0.1207 0,0.1247 0,0.1287 -0.01,0.1324 0,0.136 -0.02,0.2821 -0.03,0.2949 -0.03,0.305 -0.04,0.316 -0.05,0.324 -0.07,0.332 -0.07,0.338 -0.08,0.342 -0.1,0.346 -0.11,0.348 -0.07,0.174 -0.06,0.175 -0.07,0.174 -0.07,0.174 -0.08,0.174 -0.08,0.173 c -0.94,1.907 -2.25,2.938 -2.42,2.938 -0.07,0 -0.14,-0.031 -0.14,-0.125 0,-0.047 0,-0.078 0.26,-0.36 1.6,-1.593 2.49,-4.218 2.49,-7.4683 0,-3.0781 -0.75,-5.7344 -2.6,-7.6094 -0.15,-0.1406 -0.15,-0.1718 -0.15,-0.2187 0,-0.09376 0.07,-0.12501 0.14,-0.12501 0.2,0 1.51,1.14061 2.29,2.70311 0.8,1.6094 1.18,3.3281 1.18,5.2344 z"
   id="path53"
   inkscape:connector-curvature="0"
   style="fill:#000000;stroke-width:0" />
<path
   d="m 222.73,8.5898 h 4.39 c 0.22,0 0.5,0 0.5,0.2813 0,0.3125 -0.27,0.3125 -0.5,0.3125 h -4.39 v 4.3754 c 0,0.234 0,0.515 -0.28,0.515 -0.31,0 -0.31,-0.265 -0.31,-0.515 V 9.1836 h -4.39 c -0.22,0 -0.5,0 -0.5,-0.2969 0,-0.2969 0.26,-0.2969 0.5,-0.2969 h 4.39 V 4.1992 c 0,-0.2187 0,-0.5 0.29,-0.5 0.3,0 0.3,0.2656 0.3,0.5 z"
   id="path55"
   inkscape:connector-curvature="0"
   style="fill:#000000;stroke-width:0" />
<path
   d="m 237.24,1.0586 0,0.0087 0,0.0086 0,0.0045 0,0.0046 0,0.0047 -0.01,0.005 0,0.0053 0,0.0056 0,0.0059 -0.01,0.0064 0,0.0068 -0.01,0.0074 0,0.0079 -0.01,0.0084 0,0.0092 -0.01,0.0098 -0.01,0.0105 -0.01,0.0113 -0.01,0.006 0,0.0061 -0.01,0.0064 0,0.0067 -0.01,0.0068 -0.01,0.0071 0,0.0073 -0.01,0.0076 -0.01,0.0078 -0.01,0.0081 0,0.0083 -0.01,0.0086 -0.01,0.0089 -0.01,0.0091 -0.01,0.0095 -0.01,0.0097 -0.01,0.0101 -0.01,0.0103 -0.01,0.0107 -0.01,0.0109 -0.02,0.0113 -0.01,0.0116 -0.01,0.012 -0.01,0.0122 c -1.58,1.6094 -2.47,4.2344 -2.47,7.4688 0,3.0939 0.73,5.7349 2.58,7.6249 0.17,0.141 0.17,0.172 0.17,0.219 0,0.094 -0.08,0.125 -0.16,0.125 -0.2,0 -1.5,-1.141 -2.28,-2.703 -0.81,-1.61 -1.17,-3.313 -1.17,-5.2659 0,-1.4063 0.22,-3.2969 1.05,-5 0.93,-1.9063 2.23,-2.93751 2.4,-2.93751 0.08,0 0.16,0.03125 0.16,0.12501 z"
   id="path57"
   inkscape:connector-curvature="0"
   style="fill:#000000;stroke-width:0" />
<path
   d="m 242.71,15.106 0,0.016 0,0.016 0,0.016 0,0.015 0,0.015 0,0.014 0,0.013 0,0.014 0,0.013 0,0.012 0,0.012 0,0.012 0,0.011 0,0.01 0,0.011 0,0.01 0,0.009 -0.01,0.009 0,0.009 0,0.009 0,0.008 0,0.008 0,0.007 -0.01,0.007 0,0.013 -0.01,0.012 0,0.011 -0.01,0.01 -0.01,0.008 0,0.008 -0.01,0.007 -0.02,0.006 -0.01,0.005 -0.01,0.004 -0.02,0.003 0,0.002 -0.01,10e-4 -0.01,0.002 -0.01,10e-4 -0.01,0.001 -0.01,10e-4 -0.01,0 -0.01,10e-4 -0.01,10e-4 -0.01,0 -0.01,0.001 -0.01,0 -0.01,0 -0.02,0 -0.01,0 -0.01,0 -0.02,0 -0.01,10e-4 c -0.39,-0.422 -1.19,-1.016 -2.81,-1.016 v -0.453 c 0.36,0 1.15,0 2.03,0.406 V 6.1367 c 0,-0.5625 -0.05,-0.7656 -1.46,-0.7656 h -0.48 V 4.918 c 0.42,0.0312 1.97,0.0312 2.48,0.0312 0.54,0 2.07,0 2.49,-0.0312 v 0.4531 h -0.49 c -1.4,0 -1.45,0.2031 -1.45,0.7656 z"
   id="path59"
   inkscape:connector-curvature="0"
   style="fill:#000000;stroke-width:0" />
<path
   d="m 255.83,8.5898 h 4.39 c 0.22,0 0.5,0 0.5,0.2813 0,0.3125 -0.26,0.3125 -0.5,0.3125 h -4.39 v 4.3754 c 0,0.234 0,0.515 -0.28,0.515 -0.31,0 -0.31,-0.265 -0.31,-0.515 V 9.1836 h -4.39 c -0.22,0 -0.5,0 -0.5,-0.2969 0,-0.2969 0.26,-0.2969 0.5,-0.2969 h 4.39 V 4.1992 c 0,-0.2187 0,-0.5 0.3,-0.5 0.29,0 0.29,0.2656 0.29,0.5 z"
   id="path61"
   inkscape:connector-curvature="0"
   style="fill:#000000;stroke-width:0" />
<path
   d="m 272.7,11.402 -0.04,-0.009 -0.05,-0.011 -0.04,-0.013 -0.04,-0.014 -0.04,-0.016 -0.04,-0.017 -0.03,-0.018 -0.04,-0.019 -0.03,-0.021 -0.03,-0.021 -0.03,-0.023 -0.03,-0.024 -0.03,-0.024 -0.02,-0.025 -0.02,-0.026 -0.03,-0.027 -0.02,-0.028 -0.02,-0.028 -0.01,-0.028 -0.02,-0.029 -0.01,-0.029 -0.02,-0.03 -0.01,-0.03 -0.01,-0.03 -0.01,-0.03 -0.01,-0.031 0,-0.03 -0.01,-0.03 0,-0.031 -0.01,-0.03 0,-0.029 0,-0.03 c 0,-0.375 0.31,-0.5 0.53,-0.5 0.47,0 0.81,0.406 0.81,0.844 0,0.656 -0.76,0.969 -1.43,0.969 -0.97,0 -1.5,-0.953 -1.64,-1.266 -0.38,1.203 -1.36,1.266 -1.65,1.266 -1.62,0 -2.48,-2.0942 -2.48,-2.4379 0,-0.0625 0.06,-0.1406 0.17,-0.1406 0.13,0 0.16,0.0937 0.19,0.1562 0.55,1.7653 1.61,2.0943 2.08,2.0943 0.7,0 0.86,-0.657 0.86,-1.047 0,-0.344 -0.1,-0.7192 -0.3,-1.4692 l -0.53,-2.1875 c -0.25,-0.9531 -0.7,-1.8281 -1.55,-1.8281 -0.08,0 -0.47,0 -0.81,0.2031 0.58,0.125 0.7,0.5938 0.7,0.7813 0,0.3281 -0.23,0.5156 -0.54,0.5156 -0.38,0 -0.8,-0.3437 -0.8,-0.8437 0,-0.6719 0.75,-0.9688 1.44,-0.9688 0.76,0 1.29,0.5938 1.64,1.25 0.25,-0.9375 1.04,-1.25 1.64,-1.25 1.61,0 2.47,2.0781 2.47,2.4219 0,0.0937 -0.07,0.1562 -0.16,0.1562 -0.14,0 -0.16,-0.0781 -0.2,-0.2187 -0.44,-1.3906 -1.36,-2.0469 -2.06,-2.0469 -0.57,0 -0.86,0.4219 -0.86,1.0625 0,0.3594 0.06,0.6094 0.31,1.6563 l 0.56,2.1562 c 0.23,0.9528 0.77,1.6568 1.5,1.6568 0.03,0 0.49,0 0.81,-0.204 z"
   id="path63"
   inkscape:connector-curvature="0"
   style="fill:#000000;stroke-width:0" />
<path
   d="M 278.23,3.1367 278.14,3.0235 278.05,2.9127 277.96,2.8052 277.86,2.7014 277.81,2.6512 277.76,2.6021 277.71,2.5544 277.66,2.508 277.6,2.4631 277.55,2.4197 277.49,2.378 277.44,2.3379 277.38,2.2996 277.32,2.2632 277.26,2.2287 277.2,2.1963 277.14,2.166 277.07,2.1379 277.01,2.1121 276.95,2.0886 276.88,2.0676 276.81,2.0491 276.75,2.0333 276.68,2.0201 276.61,2.0097 276.54,2.0022 276.47,1.9976 276.4,1.9961 c -0.2,0 -0.95,0.0312 -1.2,0.7656 0.04,-0.0156 0.12,-0.0156 0.15,-0.0156 0.49,0 0.8,0.4062 0.8,0.7656 0,0.375 -0.3,0.5 -0.53,0.5 -0.27,0 -0.82,-0.1875 -0.82,-0.9687 0,-0.8125 0.69,-1.375 1.6,-1.375 1.58,0 3.19,1.4687 3.62,3.2343 l 1.57,6.2037 c 0.01,0.078 0.04,0.171 0.04,0.265 0,0.235 -0.18,0.391 -0.42,0.391 -0.14,0 -0.48,-0.063 -0.61,-0.531 l -1.17,-4.6724 c -0.08,-0.2969 -0.08,-0.3281 -0.2,-0.5 -0.33,-0.4375 -0.85,-0.9844 -1.61,-0.9844 -0.89,0 -0.97,0.875 -0.97,1.3125 0,0.9063 0.42,2.125 0.86,3.2656 0.17,0.4687 0.26,0.6877 0.26,0.9997 0,0.672 -0.47,1.282 -1.25,1.282 -1.47,0 -2.06,-2.3129 -2.06,-2.4379 0,-0.0625 0.08,-0.1406 0.19,-0.1406 0.14,0 0.15,0.0625 0.22,0.2812 0.37,1.3443 0.98,1.9693 1.61,1.9693 0.14,0 0.4,0 0.4,-0.516 0,-0.422 -0.17,-0.875 -0.4,-1.4845 -0.78,-2.0782 -0.78,-2.6094 -0.78,-2.9844 0,-1.5156 1.07,-1.8594 1.87,-1.8594 0.45,0 1.03,0.1406 1.59,0.7344 l 0.02,-0.0156 C 278.93,4.543 278.77,3.918 278.23,3.1367 z"
   id="path65"
   inkscape:connector-curvature="0"
   style="fill:#000000;stroke-width:0" />
<path
   d="m 286.71,8.8711 0,0.1164 0,0.1207 -0.01,0.1247 0,0.1287 -0.01,0.1324 0,0.136 -0.02,0.2821 -0.03,0.2949 -0.03,0.305 -0.04,0.316 -0.05,0.324 -0.06,0.332 -0.08,0.338 -0.08,0.342 -0.1,0.346 -0.11,0.348 -0.06,0.174 -0.07,0.175 -0.07,0.174 -0.07,0.174 -0.08,0.174 -0.08,0.173 c -0.94,1.907 -2.25,2.938 -2.42,2.938 -0.06,0 -0.14,-0.031 -0.14,-0.125 0,-0.047 0,-0.078 0.26,-0.36 1.6,-1.593 2.49,-4.218 2.49,-7.4683 0,-3.0781 -0.75,-5.7344 -2.6,-7.6094 -0.15,-0.1406 -0.15,-0.1718 -0.15,-0.2187 0,-0.09376 0.08,-0.12501 0.14,-0.12501 0.2,0 1.51,1.14061 2.3,2.70311 0.79,1.6094 1.17,3.3281 1.17,5.2344 z"
   id="path67"
   inkscape:connector-curvature="0"
   style="fill:#000000;stroke-width:0" />
<path
   d="m 293.46,1.0586 0,0.0087 0,0.0086 0,0.0045 0,0.0046 0,0.0047 0,0.005 0,0.0053 0,0.0056 -0.01,0.0059 0,0.0064 0,0.0068 -0.01,0.0074 0,0.0079 -0.01,0.0084 -0.01,0.0092 -0.01,0.0098 0,0.0105 -0.01,0.0113 -0.01,0.006 0,0.0061 -0.01,0.0064 -0.01,0.0067 0,0.0068 -0.01,0.0071 -0.01,0.0073 0,0.0076 -0.01,0.0078 -0.01,0.0081 -0.01,0.0083 -0.01,0.0086 0,0.0089 -0.01,0.0091 -0.01,0.0095 -0.01,0.0097 -0.01,0.0101 -0.01,0.0103 -0.02,0.0107 -0.01,0.0109 -0.01,0.0113 -0.01,0.0116 -0.01,0.012 -0.02,0.0122 c -1.57,1.6094 -2.47,4.2344 -2.47,7.4688 0,3.0939 0.74,5.7349 2.58,7.6249 0.17,0.141 0.17,0.172 0.17,0.219 0,0.094 -0.07,0.125 -0.15,0.125 -0.2,0 -1.5,-1.141 -2.28,-2.703 -0.82,-1.61 -1.17,-3.313 -1.17,-5.2659 0,-1.4063 0.21,-3.2969 1.04,-5 0.94,-1.9063 2.24,-2.93751 2.41,-2.93751 0.08,0 0.15,0.03125 0.15,0.12501 z"
   id="path69"
   inkscape:connector-curvature="0"
   style="fill:#000000;stroke-width:0" />
<path
   d="m 298.94,15.106 0,0.016 0,0.016 0,0.016 0,0.015 0,0.015 0,0.014 0,0.013 0,0.014 0,0.013 0,0.012 0,0.012 0,0.012 0,0.011 -0.01,0.01 0,0.011 0,0.01 0,0.009 0,0.009 0,0.009 0,0.009 0,0.008 0,0.008 -0.01,0.007 0,0.007 0,0.013 -0.01,0.012 0,0.011 -0.01,0.01 -0.01,0.008 -0.01,0.008 -0.01,0.007 -0.01,0.006 -0.01,0.005 -0.01,0.004 -0.02,0.003 -0.01,0.002 0,10e-4 -0.01,0.002 -0.01,10e-4 -0.01,0.001 -0.01,10e-4 -0.01,0 -0.01,10e-4 -0.01,10e-4 -0.01,0 -0.01,0.001 -0.01,0 -0.02,0 -0.01,0 -0.01,0 -0.02,0 -0.01,0 -0.02,10e-4 c -0.39,-0.422 -1.18,-1.016 -2.81,-1.016 v -0.453 c 0.36,0 1.16,0 2.03,0.406 V 6.1367 c 0,-0.5625 -0.04,-0.7656 -1.45,-0.7656 h -0.48 V 4.918 c 0.42,0.0312 1.97,0.0312 2.48,0.0312 0.53,0 2.06,0 2.49,-0.0312 v 0.4531 h -0.49 c -1.41,0 -1.45,0.2031 -1.45,0.7656 z"
   id="path71"
   inkscape:connector-curvature="0"
   style="fill:#000000;stroke-width:0" />
<path
   d="m 316.18,8.5742 0.05,10e-5 0.05,5e-4 0.06,0.0015 0.02,0.0012 0.03,0.0016 0.02,0.0021 0.02,0.0026 0.03,0.0031 0.02,0.0038 0.02,0.0045 0.03,0.0052 0.02,0.006 0.02,0.0069 0.02,0.0078 0.01,0.0087 0.02,0.0098 0.02,0.0109 0.01,0.012 0.02,0.0133 0.01,0.0145 0.01,0.0158 0.01,0.0171 0.01,0.0092 0,0.0094 0.01,0.0099 0,0.0102 0.01,0.0107 0,0.011 0,0.0114 0,0.0118 0.01,0.0123 0,0.0126 0,0.0131 0,0.0135 0,0.014 0,0.0144 c 0,0.3281 -0.28,0.3281 -0.56,0.3281 h -8.59 c -0.27,0 -0.57,0 -0.57,-0.3281 0,-0.3125 0.3,-0.3125 0.57,-0.3125 z"
   id="path73"
   inkscape:connector-curvature="0"
   style="fill:#000000;stroke-width:0" />
<path
   d="M 325.84,3.1367 325.76,3.0235 325.67,2.9127 325.57,2.8052 325.48,2.7014 325.43,2.6512 325.38,2.6021 325.32,2.5544 325.27,2.508 325.22,2.4631 325.16,2.4197 325.11,2.378 325.05,2.3379 324.99,2.2996 324.93,2.2632 324.87,2.2287 324.81,2.1963 324.75,2.166 324.69,2.1379 324.62,2.1121 324.56,2.0886 324.49,2.0676 324.43,2.0491 324.36,2.0333 324.29,2.0201 324.22,2.0097 324.15,2.0022 324.08,1.9976 324.01,1.9961 c -0.2,0 -0.95,0.0312 -1.2,0.7656 0.05,-0.0156 0.12,-0.0156 0.15,-0.0156 0.49,0 0.8,0.4062 0.8,0.7656 0,0.375 -0.3,0.5 -0.53,0.5 -0.27,0 -0.81,-0.1875 -0.81,-0.9687 0,-0.8125 0.69,-1.375 1.59,-1.375 1.58,0 3.19,1.4687 3.63,3.2343 l 1.56,6.2037 c 0.01,0.078 0.05,0.171 0.05,0.265 0,0.235 -0.19,0.391 -0.43,0.391 -0.14,0 -0.48,-0.063 -0.61,-0.531 l -1.17,-4.6724 c -0.08,-0.2969 -0.08,-0.3281 -0.2,-0.5 -0.33,-0.4375 -0.84,-0.9844 -1.61,-0.9844 -0.89,0 -0.97,0.875 -0.97,1.3125 0,0.9063 0.42,2.125 0.86,3.2656 0.17,0.4687 0.27,0.6877 0.27,0.9997 0,0.672 -0.47,1.282 -1.25,1.282 -1.47,0 -2.07,-2.3129 -2.07,-2.4379 0,-0.0625 0.08,-0.1406 0.19,-0.1406 0.14,0 0.16,0.0625 0.22,0.2812 0.38,1.3443 0.98,1.9693 1.61,1.9693 0.14,0 0.41,0 0.41,-0.516 0,-0.422 -0.18,-0.875 -0.41,-1.4845 -0.78,-2.0782 -0.78,-2.6094 -0.78,-2.9844 0,-1.5156 1.08,-1.8594 1.87,-1.8594 0.46,0 1.03,0.1406 1.6,0.7344 l 0.01,-0.0156 C 326.54,4.543 326.39,3.918 325.84,3.1367 z"
   id="path75"
   inkscape:connector-curvature="0"
   style="fill:#000000;stroke-width:0" />
<path
   d="m 334.32,8.8711 0,0.1164 -0.01,0.1207 0,0.1247 0,0.1287 -0.01,0.1324 0,0.136 -0.02,0.2821 -0.03,0.2949 -0.03,0.305 -0.04,0.316 -0.05,0.324 -0.06,0.332 -0.08,0.338 -0.08,0.342 -0.1,0.346 -0.11,0.348 -0.06,0.174 -0.07,0.175 -0.07,0.174 -0.07,0.174 -0.08,0.174 -0.08,0.173 c -0.94,1.907 -2.25,2.938 -2.42,2.938 -0.06,0 -0.14,-0.031 -0.14,-0.125 0,-0.047 0,-0.078 0.26,-0.36 1.6,-1.593 2.49,-4.218 2.49,-7.4683 0,-3.0781 -0.75,-5.7344 -2.6,-7.6094 -0.15,-0.1406 -0.15,-0.1718 -0.15,-0.2187 0,-0.09376 0.08,-0.12501 0.14,-0.12501 0.2,0 1.51,1.14061 2.29,2.70311 0.8,1.6094 1.18,3.3281 1.18,5.2344 z"
   id="path77"
   inkscape:connector-curvature="0"
   style="fill:#000000;stroke-width:0" />
</g></svg>
