<?xml version="1.0" encoding="UTF-8" standalone="no"?>
<svg
   xmlns:dc="http://purl.org/dc/elements/1.1/"
   xmlns:cc="http://creativecommons.org/ns#"
   xmlns:rdf="http://www.w3.org/1999/02/22-rdf-syntax-ns#"
   xmlns:svg="http://www.w3.org/2000/svg"
   xmlns="http://www.w3.org/2000/svg"
   xmlns:sodipodi="http://sodipodi.sourceforge.net/DTD/sodipodi-0.dtd"
   xmlns:inkscape="http://www.inkscape.org/namespaces/inkscape"
   version="1.1"
   id="body"
   width="178.08696"
   height="83.714638"
   viewBox="0 0 0.247343 0.11627033"
   preserveAspectRatio="none"
   inkscape:version="0.48.3.1 r9886"
   sodipodi:docname="ch1-Z-G-2.svg">
  <metadata
     id="metadata79">
    <rdf:RDF>
      <cc:Work
         rdf:about="">
        <dc:format>image/svg+xml</dc:format>
        <dc:type
           rdf:resource="http://purl.org/dc/dcmitype/StillImage" />
      </cc:Work>
    </rdf:RDF>
  </metadata>
  <defs
     id="defs77" />
  <sodipodi:namedview
     pagecolor="#ffffff"
     bordercolor="#666666"
     borderopacity="1"
     objecttolerance="10"
     gridtolerance="10"
     guidetolerance="10"
     inkscape:pageopacity="0"
     inkscape:pageshadow="2"
     inkscape:window-width="640"
     inkscape:window-height="480"
     id="namedview75"
     showgrid="false"
     inkscape:zoom="0.32777778"
     inkscape:cx="381.52561"
     inkscape:cy="459.71994"
     inkscape:window-x="0"
     inkscape:window-y="24"
     inkscape:window-maximized="0"
     inkscape:current-layer="body" />
  <title
     id="title3">SVG drawing</title>
  <desc
     id="desc5">This was produced by version 4.4 of GNU libplot, a free library for exporting 2-D vector graphics.</desc>
  <g
     id="content"
     transform="matrix(0.0017361,0,0,-0.0017361,-0.00135332,0.1165416)"
     xml:space="preserve"
     stroke-miterlimit="10.433"
     font-style="normal"
     font-variant="normal"
     font-weight="normal"
     font-stretch="normal"
     font-size-adjust="none"
     letter-spacing="normal"
     word-spacing="normal"
     style="font-style:normal;font-variant:normal;font-weight:normal;font-stretch:normal;letter-spacing:normal;word-spacing:normal;text-anchor:start;fill:none;stroke:#000000;stroke-linecap:butt;stroke-linejoin:miter;stroke-miterlimit:10.43299961;stroke-opacity:1;stroke-dasharray:none;stroke-dashoffset:0">
<path
   d="m 1.457,40.969 -10e-5,0.055 -5e-4,0.055 -6e-4,0.027 -9e-4,0.026 -0.0013,0.027 -0.0017,0.025 -0.0022,0.026 -0.0027,0.024 -0.0033,0.025 -0.004,0.023 -0.0047,0.023 -0.0054,0.022 -0.0064,0.022 -0.0072,0.02 -0.0082,0.02 -0.0092,0.019 -0.0103,0.017 -0.0114,0.017 -0.0126,0.016 -0.0139,0.015 -0.0152,0.013 -0.0166,0.012 -0.018,0.011 -0.0096,0.005 -0.01,0.005 -0.0103,0.004 -0.0108,0.004 -0.0111,0.004 -0.0116,0.003 -0.012,0.003 -0.0124,0.003 -0.0128,0.002 -0.0133,0.002 -0.0138,0.001 -0.0142,10e-4 -0.0146,10e-4 -0.0152,0 c -0.31249,0 -0.31249,-0.281 -0.31249,-0.578 v -14.75 c 0,-0.281 0,-0.563 0.31249,-0.563 0.3281,0 0.3281,0.282 0.3281,0.563 z"
   id="path9"
   inkscape:connector-curvature="0"
   style="fill:#000000;stroke-width:0" />
<path
   d="M 10.887,36.109 10.841,36.1 10.796,36.089 10.754,36.076 10.713,36.062 10.674,36.046 10.636,36.029 10.6,36.011 10.566,35.992 10.533,35.971 10.502,35.95 10.473,35.927 10.445,35.903 10.418,35.879 10.393,35.854 10.37,35.828 10.348,35.801 10.327,35.773 10.308,35.745 10.29,35.717 l -0.016,-0.029 -0.015,-0.029 -0.013,-0.03 -0.012,-0.03 -0.011,-0.03 -0.009,-0.03 -0.008,-0.031 -0.007,-0.03 -0.006,-0.03 -0.004,-0.031 -0.003,-0.03 -0.002,-0.029 0,-0.03 c 0,-0.375 0.312,-0.5 0.531,-0.5 0.469,0 0.812,0.406 0.812,0.844 0,0.656 -0.765,0.969 -1.437,0.969 -0.9689,0 -1.5002,-0.953 -1.6408,-1.266 -0.375,1.203 -1.3594,1.266 -1.6406,1.266 -1.625,0 -2.4844,-2.094 -2.4844,-2.438 0,-0.062 0.0625,-0.141 0.1719,-0.141 0.125,0 0.1562,0.094 0.1875,0.157 0.5469,1.765 1.6094,2.093 2.0781,2.093 0.7031,0 0.8594,-0.656 0.8594,-1.046 0,-0.344 -0.0938,-0.719 -0.2969,-1.469 L 6.793,31.609 c -0.25,-0.953 -0.7032,-1.828 -1.5469,-1.828 -0.0781,0 -0.4688,0 -0.8125,0.203 0.5781,0.125 0.7031,0.594 0.7031,0.782 0,0.328 -0.2344,0.515 -0.5469,0.515 -0.375,0 -0.7968,-0.343 -0.7968,-0.843 0,-0.672 0.75,-0.969 1.4375,-0.969 0.7656,0 1.2968,0.593 1.6406,1.25 0.25,-0.938 1.0469,-1.25 1.6406,-1.25 1.6093,0 2.4693,2.078 2.4693,2.422 0,0.093 -0.063,0.156 -0.157,0.156 -0.14,0 -0.156,-0.078 -0.203,-0.219 -0.437,-1.39 -1.3593,-2.047 -2.0624,-2.047 -0.5625,0 -0.8594,0.422 -0.8594,1.063 0,0.359 0.0625,0.609 0.3125,1.656 l 0.5625,2.156 c 0.2344,0.953 0.7656,1.656 1.4998,1.656 0.032,0 0.485,0 0.813,-0.203 z"
   id="path11"
   inkscape:connector-curvature="0"
   style="fill:#000000;stroke-width:0" />
<path
   d="m 14.754,40.969 0,0.055 -10e-4,0.055 0,0.027 -10e-4,0.026 -0.002,0.027 -10e-4,0.025 -0.002,0.026 -0.003,0.024 -0.003,0.025 -0.004,0.023 -0.005,0.023 -0.006,0.022 -0.006,0.022 -0.007,0.02 -0.008,0.02 -0.009,0.019 -0.011,0.017 -0.011,0.017 -0.013,0.016 -0.014,0.015 -0.015,0.013 -0.017,0.012 -0.018,0.011 -0.009,0.005 -0.01,0.005 -0.01,0.004 -0.011,0.004 -0.011,0.004 -0.012,0.003 -0.012,0.003 -0.012,0.003 -0.013,0.002 -0.013,0.002 -0.014,0.001 -0.014,10e-4 -0.015,10e-4 -0.015,0 c -0.313,0 -0.313,-0.281 -0.313,-0.578 v -14.75 c 0,-0.281 0,-0.563 0.313,-0.563 0.328,0 0.328,0.282 0.328,0.563 z"
   id="path13"
   inkscape:connector-curvature="0"
   style="fill:#000000;stroke-width:0" />
<path
   d="m 31.812,34.781 0.042,0 0.043,10e-4 0.043,0.001 0.021,10e-4 0.022,0.002 0.021,10e-4 0.021,0.003 0.021,0.003 0.021,0.003 0.02,0.004 0.02,0.005 0.019,0.005 0.019,0.006 0.017,0.007 0.018,0.008 0.016,0.009 0.016,0.01 0.015,0.011 0.014,0.012 0.012,0.013 0.012,0.014 0.006,0.007 0.005,0.008 0.005,0.009 0.004,0.008 0.004,0.009 0.004,0.009 0.004,0.01 0.003,0.01 0.003,0.01 0.002,0.011 0.003,0.011 10e-4,0.011 0.002,0.012 10e-4,0.012 0,0.013 0,0.012 c 0,0.297 -0.265,0.297 -0.5,0.297 h -9.374 c -0.219,0 -0.5,0 -0.5,-0.281 0,-0.297 0.265,-0.297 0.5,-0.297 z"
   id="path15"
   inkscape:connector-curvature="0"
   style="fill:#000000;stroke-width:0" />
<path
   d="m 31.812,31.812 0.042,10e-4 0.043,0 0.043,0.001 0.021,0.002 0.022,0.001 0.021,0.002 0.021,0.003 0.021,0.003 0.021,0.003 0.02,0.004 0.02,0.005 0.019,0.006 0.019,0.007 0.017,0.007 0.018,0.008 0.016,0.01 0.016,0.01 0.015,0.011 0.014,0.013 0.012,0.014 0.012,0.015 0.006,0.008 0.005,0.008 0.005,0.009 0.004,0.009 0.004,0.009 0.004,0.01 0.004,0.01 0.003,0.01 0.003,0.011 0.002,0.011 0.003,0.012 10e-4,0.012 0.002,0.013 10e-4,0.012 0,0.014 0,0.013 c 0,0.297 -0.265,0.297 -0.5,0.297 h -9.374 c -0.219,0 -0.5,0 -0.5,-0.281 0,-0.313 0.265,-0.313 0.5,-0.313 z"
   id="path17"
   inkscape:connector-curvature="0"
   style="fill:#000000;stroke-width:0" />
<path
   d="m 45.664,59.883 10e-4,0.128 0.004,0.137 0.006,0.147 0.009,0.155 0.013,0.163 0.017,0.171 0.022,0.178 0.026,0.184 0.031,0.191 0.037,0.196 0.043,0.201 0.049,0.205 0.056,0.21 0.063,0.213 0.07,0.216 0.078,0.219 0.087,0.221 0.095,0.222 0.105,0.223 0.114,0.224 0.123,0.223 0.134,0.223 0.145,0.223 0.155,0.22 0.167,0.219 0.179,0.216 0.191,0.213 0.204,0.21 0.216,0.205 0.23,0.201 0.244,0.196 0.258,0.191 c 0.203,0.156 0.219,0.171 0.219,0.468 0,0.36 -0.016,0.375 -0.407,0.375 h -0.25 c -3.421,-1.843 -4.64,-4.843 -4.64,-7.187 v -6.828 c 0,-0.422 0.015,-0.438 0.437,-0.438 h 1.016 c 0.437,0 0.453,0.016 0.453,0.438 z"
   id="path19"
   inkscape:connector-curvature="0"
   style="fill:#000000;stroke-width:0" />
<path
   d="m 45.664,52.473 0,0.018 0,0.019 0,0.017 0,0.017 0,0.017 -0.001,0.016 0,0.015 0,0.015 -10e-4,0.015 -10e-4,0.014 0,0.013 -0.001,0.013 -10e-4,0.013 -10e-4,0.012 -0.002,0.012 -10e-4,0.011 -0.002,0.011 -0.002,0.01 -0.004,0.02 -0.005,0.017 -0.006,0.017 -0.007,0.015 -0.008,0.013 -0.009,0.012 -0.01,0.011 -0.012,0.01 -0.013,0.008 -0.015,0.008 -0.015,0.006 -0.009,0.003 -0.009,0.003 -0.009,0.002 -0.01,0.002 -0.01,0.003 -0.011,10e-4 -0.011,0.002 -0.012,0.002 -0.012,10e-4 -0.012,10e-4 -0.013,0.001 -0.014,10e-4 -0.014,10e-4 -0.014,0.001 -0.015,10e-4 -0.016,0 -0.016,0 -0.017,10e-4 -0.017,0 -0.018,0 -0.018,0 -0.019,0 -0.02,0 -0.02,0.001 h -1.016 c -0.422,0 -0.437,-0.016 -0.437,-0.422 v -4.235 c 0,-0.406 0.015,-0.422 0.437,-0.422 h 1.016 c 0.437,0 0.453,0.016 0.453,0.422 z"
   id="path21"
   inkscape:connector-curvature="0"
   style="fill:#000000;stroke-width:0" />
<path
   d="m 43.758,19.613 0,-0.018 0,-0.019 0,-0.017 0,-0.017 0,-0.017 10e-4,-0.016 0,-0.015 0,-0.015 10e-4,-0.015 0,-0.014 0.001,-0.013 10e-4,-0.014 10e-4,-0.012 0.001,-0.012 10e-4,-0.012 0.002,-0.011 10e-4,-0.011 0.002,-0.01 0.002,-0.01 0.002,-0.01 0.005,-0.017 0.006,-0.017 0.007,-0.015 0.007,-0.013 0.009,-0.012 0.01,-0.011 0.012,-0.01 0.012,-0.008 0.014,-0.008 0.015,-0.006 0.017,-0.006 0.009,-0.002 0.01,-0.003 0.01,-0.002 0.01,-0.002 0.011,-10e-4 0.011,-0.002 0.012,-10e-4 0.012,-0.001 0.012,-0.002 0.013,0 0.014,-0.001 0.014,-0.001 0.014,-10e-4 0.015,0 0.016,-0.001 0.016,0 0.017,0 0.017,0 0.018,0 0.018,-0.001 0.019,0 0.019,0 h 1.016 c 0.437,0 0.453,0.016 0.453,0.422 v 6.719 c 0,1.922 -0.812,5.156 -4.375,7.328 3.594,2.172 4.375,5.438 4.375,7.313 v 6.718 c 0,0.407 -0.016,0.422 -0.453,0.422 h -1.016 c -0.422,0 -0.437,-0.015 -0.437,-0.422 v -6.734 c 0,-1.328 -0.297,-4.641 -3.219,-6.859 -0.172,-0.141 -0.187,-0.157 -0.187,-0.438 0,-0.297 0.015,-0.312 0.187,-0.453 0.422,-0.312 1.516,-1.156 2.281,-2.766 0.61,-1.265 0.938,-2.687 0.938,-4.093 z"
   id="path23"
   inkscape:connector-curvature="0"
   style="fill:#000000;stroke-width:0" />
<path
   d="m 45.664,19 0,0.019 0,0.018 0,0.018 0,0.017 0,0.016 -0.001,0.016 0,0.016 0,0.015 -10e-4,0.014 -10e-4,0.014 0,0.014 -0.001,0.013 -10e-4,0.012 -10e-4,0.012 -0.002,0.012 -10e-4,0.011 -0.002,0.011 -0.002,0.01 -0.004,0.02 -0.005,0.018 -0.006,0.016 -0.007,0.015 -0.008,0.013 -0.009,0.012 -0.01,0.011 -0.012,0.01 -0.013,0.008 -0.015,0.008 -0.015,0.007 -0.009,0.002 -0.009,0.003 -0.009,0.003 -0.01,0.002 -0.01,0.002 -0.011,0.002 -0.011,0.002 -0.012,0.001 -0.012,0.001 -0.012,0.002 -0.013,0.001 -0.014,10e-4 -0.014,0.001 -0.014,0 -0.015,0.001 -0.016,0 -0.016,10e-4 -0.017,0 -0.017,0 -0.018,0.001 -0.018,0 -0.019,0 -0.02,0 -0.02,0 h -1.016 c -0.422,0 -0.437,-0.016 -0.437,-0.422 v -4.234 c 0,-0.407 0.015,-0.422 0.437,-0.422 h 1.016 c 0.437,0 0.453,0.015 0.453,0.422 z"
   id="path25"
   inkscape:connector-curvature="0"
   style="fill:#000000;stroke-width:0" />
<path
   d="m 48.648,0.19922 0.018,10e-6 0.018,4e-5 0.017,9e-5 0.016,1.2e-4 0.016,1.8e-4 0.016,2.4e-4 0.015,3.1e-4 0.014,3.8e-4 0.014,4.7e-4 0.013,5.6e-4 0.013,6.5e-4 0.013,7.6e-4 0.012,8.7e-4 0.012,0.001 0.011,0.00112 0.011,0.00126 0.01,0.0014 0.01,0.00155 0.01,0.00171 0.009,0.00187 0.009,0.00205 0.008,0.00223 0.016,0.00502 0.014,0.00585 0.013,0.00671 0.012,0.00764 0.01,0.00864 0.009,0.0097 0.009,0.0108 0.007,0.01198 0.006,0.01321 0.006,0.0145 0.004,0.01586 0.004,0.01727 0.003,0.01874 10e-4,0.00995 0.002,0.01033 10e-4,0.01073 0.001,0.01114 0,0.01155 10e-4,0.01198 10e-4,0.0124 0,0.01284 0.001,0.01328 0,0.01373 0,0.01419 0,0.01465 10e-4,0.01513 0,0.01561 0,0.0161 0,0.0166 c 0,0.28125 -0.016,0.29687 -0.078,0.34375 C 48.492,1.293 47.336,2.1055 46.602,3.5586 45.977,4.7617 45.664,5.9961 45.664,7.3711 v 6.8439 c 0,0.406 -0.016,0.422 -0.453,0.422 h -1.016 c -0.422,0 -0.437,-0.016 -0.437,-0.422 V 7.3711 c 0,-2.3438 1.219,-5.3438 4.64,-7.17188 z"
   id="path27"
   inkscape:connector-curvature="0"
   style="fill:#000000;stroke-width:0" />
<path
   d="m 74.957,58.457 -0.046,-0.01 -0.044,-0.011 -0.043,-0.012 -0.041,-0.015 -0.039,-0.015 -0.038,-0.017 -0.035,-0.018 -0.035,-0.02 -0.033,-0.02 -0.031,-0.022 -0.029,-0.022 -0.028,-0.024 -0.027,-0.024 -0.025,-0.026 -0.023,-0.026 -0.022,-0.027 -0.021,-0.027 -0.019,-0.028 -0.017,-0.028 -0.016,-0.029 -0.015,-0.03 -0.014,-0.029 -0.012,-0.03 -0.011,-0.03 -0.009,-0.031 -0.008,-0.03 -0.007,-0.03 -0.005,-0.031 -0.005,-0.03 -0.003,-0.03 -0.002,-0.03 0,-0.029 c 0,-0.375 0.312,-0.5 0.531,-0.5 0.469,0 0.813,0.406 0.813,0.844 0,0.656 -0.766,0.968 -1.438,0.968 -0.969,0 -1.5,-0.953 -1.64,-1.265 -0.375,1.203 -1.36,1.265 -1.641,1.265 -1.625,0 -2.484,-2.093 -2.484,-2.437 0,-0.063 0.062,-0.141 0.171,-0.141 0.125,0 0.157,0.094 0.188,0.156 0.547,1.766 1.609,2.094 2.078,2.094 0.703,0 0.859,-0.656 0.859,-1.047 0,-0.343 -0.093,-0.718 -0.296,-1.468 l -0.532,-2.188 c -0.25,-0.953 -0.703,-1.828 -1.547,-1.828 -0.078,0 -0.468,0 -0.812,0.203 0.578,0.125 0.703,0.594 0.703,0.781 0,0.328 -0.234,0.516 -0.547,0.516 -0.375,0 -0.797,-0.344 -0.797,-0.844 0,-0.672 0.75,-0.969 1.438,-0.969 0.765,0 1.297,0.594 1.64,1.25 0.25,-0.937 1.047,-1.25 1.641,-1.25 1.609,0 2.469,2.079 2.469,2.422 0,0.094 -0.063,0.157 -0.156,0.157 -0.141,0 -0.157,-0.079 -0.204,-0.219 -0.437,-1.391 -1.359,-2.047 -2.062,-2.047 -0.563,0 -0.859,0.422 -0.859,1.062 0,0.36 0.062,0.61 0.312,1.657 l 0.563,2.156 c 0.234,0.953 0.765,1.656 1.5,1.656 0.031,0 0.484,0 0.812,-0.203 z"
   id="path29"
   inkscape:connector-curvature="0"
   style="fill:#000000;stroke-width:0" />
<path
   d="m 94.668,61.77 -0.001,0.037 -0.003,0.038 -0.004,0.037 -0.007,0.037 -0.008,0.036 -0.01,0.036 -0.012,0.035 -0.013,0.035 -0.015,0.033 -0.017,0.033 -0.018,0.032 -0.02,0.031 -0.021,0.031 -0.022,0.029 -0.024,0.028 -0.026,0.027 -0.026,0.025 -0.028,0.025 -0.03,0.023 -0.03,0.022 -0.032,0.02 -0.032,0.019 -0.034,0.018 -0.035,0.016 -0.036,0.014 -0.037,0.012 -0.038,0.011 -0.039,0.009 -0.039,0.007 -0.041,0.005 -0.041,0.003 -0.042,10e-4 c -0.407,0 -0.766,-0.328 -0.766,-0.75 0,-0.484 0.391,-0.781 0.766,-0.781 0.5,0 0.781,0.406 0.781,0.766 z"
   id="path31"
   inkscape:connector-curvature="0"
   style="fill:#000000;stroke-width:0" />
<path
   d="m 92.48,58.801 v -0.453 c 1.016,0 1.157,-0.094 1.157,-0.875 v -4.328 c 0,-0.719 -0.172,-0.719 -1.203,-0.719 v -0.453 c 0.437,0.031 1.203,0.031 1.656,0.031 0.187,0 1.109,0 1.64,-0.031 v 0.453 c -1.031,0 -1.093,0.094 -1.093,0.703 v 5.859 z"
   id="path33"
   inkscape:connector-curvature="0"
   style="fill:#000000;stroke-width:0" />
<path
   d="m 98.969,58.363 h 1.801 v 0.453 h -1.832 v 1.86 c 0,1.437 0.734,2.172 1.372,2.172 0.14,0 0.38,-0.032 0.57,-0.125 -0.07,-0.016 -0.46,-0.172 -0.46,-0.625 0,-0.36 0.25,-0.625 0.61,-0.625 0.39,0 0.64,0.265 0.64,0.64 0,0.594 -0.58,1.047 -1.34,1.047 -1.111,0 -2.361,-0.859 -2.361,-2.484 v -1.86 h -1.235 v -0.453 h 1.235 v -5.218 c 0,-0.719 -0.172,-0.719 -1.203,-0.719 v -0.453 c 0.437,0.031 1.312,0.031 1.796,0.031 0.422,0 1.548,0 1.918,-0.031 v 0.453 h -0.32 c -1.16,0 -1.191,0.187 -1.191,0.75 z"
   id="path35"
   inkscape:connector-curvature="0"
   style="fill:#000000;stroke-width:0" />
<path
   d="m 113.74,58.457 -0.05,-0.01 -0.04,-0.011 -0.04,-0.012 -0.05,-0.015 -0.03,-0.015 -0.04,-0.017 -0.04,-0.018 -0.03,-0.02 -0.04,-0.02 -0.03,-0.022 -0.03,-0.022 -0.02,-0.024 -0.03,-0.024 -0.03,-0.026 -0.02,-0.026 -0.02,-0.027 -0.02,-0.027 -0.02,-0.028 -0.02,-0.028 -0.01,-0.029 -0.02,-0.03 -0.01,-0.029 -0.01,-0.03 -0.02,-0.03 0,-0.031 -0.01,-0.03 -0.01,-0.03 -0.01,-0.031 0,-0.03 0,-0.03 0,-0.03 0,-0.029 c 0,-0.375 0.31,-0.5 0.53,-0.5 0.47,0 0.81,0.406 0.81,0.844 0,0.656 -0.77,0.968 -1.44,0.968 -0.97,0 -1.5,-0.953 -1.64,-1.265 -0.37,1.203 -1.36,1.265 -1.64,1.265 -1.62,0 -2.48,-2.093 -2.48,-2.437 0,-0.063 0.06,-0.141 0.17,-0.141 0.12,0 0.15,0.094 0.19,0.156 0.54,1.766 1.6,2.094 2.07,2.094 0.71,0 0.86,-0.656 0.86,-1.047 0,-0.343 -0.09,-0.718 -0.29,-1.468 l -0.54,-2.188 c -0.25,-0.953 -0.7,-1.828 -1.54,-1.828 -0.08,0 -0.47,0 -0.81,0.203 0.57,0.125 0.7,0.594 0.7,0.781 0,0.328 -0.24,0.516 -0.55,0.516 -0.37,0 -0.8,-0.344 -0.8,-0.844 0,-0.672 0.75,-0.969 1.44,-0.969 0.77,0 1.3,0.594 1.64,1.25 0.25,-0.937 1.05,-1.25 1.64,-1.25 1.61,0 2.47,2.079 2.47,2.422 0,0.094 -0.06,0.157 -0.15,0.157 -0.14,0 -0.16,-0.079 -0.21,-0.219 -0.43,-1.391 -1.36,-2.047 -2.06,-2.047 -0.56,0 -0.86,0.422 -0.86,1.062 0,0.36 0.06,0.61 0.31,1.657 l 0.57,2.156 c 0.23,0.953 0.76,1.656 1.5,1.656 0.03,0 0.48,0 0.81,-0.203 z"
   id="path37"
   inkscape:connector-curvature="0"
   style="fill:#000000;stroke-width:0" />
<path
   d="m 129.97,55.598 0.02,0.006 0.01,0.007 0.01,0.006 0.02,0.007 0.01,0.006 0.01,0.006 0.02,0.006 0.01,0.006 0.01,0.006 0.01,0.006 0.01,0.006 0.01,0.006 0.01,0.006 0.01,0.006 0.02,0.011 0.01,0.012 0.02,0.011 0.01,0.011 0.01,0.01 0.02,0.011 0.01,0.011 0.01,0.01 0,0.01 0.01,0.01 0.01,0.011 0,0.01 0.01,0.01 0,0.01 0.01,0.01 0,0.009 0,0.01 0.01,0.01 0,0.01 0,0.01 0,0.01 0,0.02 0,0.02 c 0,0.094 -0.03,0.219 -0.33,0.344 l -8.59,3.953 c -0.2,0.094 -0.24,0.11 -0.27,0.11 -0.18,0 -0.31,-0.157 -0.31,-0.282 0,-0.187 0.14,-0.265 0.34,-0.359 l 8.18,-3.766 -8.19,-3.781 c -0.33,-0.14 -0.33,-0.25 -0.33,-0.344 0,-0.125 0.13,-0.281 0.31,-0.281 0.03,0 0.05,0.016 0.27,0.11 z"
   id="path39"
   inkscape:connector-curvature="0"
   style="fill:#000000;stroke-width:0" />
<path
   d="m 143.2,57.066 0,0.246 -0.01,0.245 0,0.244 -0.01,0.243 -0.02,0.243 -0.02,0.241 -0.02,0.241 -0.03,0.239 -0.04,0.238 -0.05,0.237 -0.05,0.236 -0.06,0.235 -0.07,0.233 -0.08,0.232 -0.09,0.231 -0.05,0.114 -0.06,0.115 c -0.65,1.312 -1.79,1.656 -2.58,1.656 -0.92,0 -2.04,-0.453 -2.64,-1.765 -0.43,-1.016 -0.59,-2 -0.59,-3.704 0,-1.546 0.11,-2.703 0.67,-3.843 0.63,-1.203 1.72,-1.578 2.55,-1.578 v 0.312 c -0.5,0 -1.53,0.281 -1.85,2.016 -0.17,0.953 -0.17,2.172 -0.17,3.281 0,1.297 0,2.469 0.25,3.406 0.28,1.078 1.08,1.563 1.77,1.563 0.61,0 1.53,-0.36 1.83,-1.735 0.2,-0.906 0.2,-2.156 0.2,-3.234 0,-1.063 0,-2.281 -0.17,-3.25 -0.3,-1.75 -1.3,-2.047 -1.86,-2.047 h 0 v -0.312 c 1.39,0 2.19,0.828 2.64,1.75 0.58,1.187 0.61,2.75 0.61,3.671 z"
   id="path41"
   inkscape:connector-curvature="0"
   style="fill:#000000;stroke-width:0" />
<path
   d="m 74.547,34.113 -10e-4,0.246 -0.004,0.245 -0.006,0.244 -0.01,0.243 -0.015,0.243 -0.019,0.241 -0.025,0.24 -0.031,0.24 -0.038,0.238 -0.046,0.237 -0.053,0.236 -0.062,0.234 -0.071,0.234 -0.081,0.232 -0.092,0.231 -0.05,0.114 -0.052,0.115 c -0.657,1.312 -1.797,1.656 -2.579,1.656 -0.921,0 -2.046,-0.453 -2.64,-1.766 -0.438,-1.015 -0.594,-2 -0.594,-3.703 0,-1.547 0.11,-2.703 0.672,-3.843 0.625,-1.204 1.719,-1.579 2.547,-1.579 v 0.313 c -0.5,0 -1.531,0.281 -1.844,2.016 -0.172,0.953 -0.172,2.171 -0.172,3.281 0,1.297 0,2.469 0.25,3.406 0.281,1.078 1.078,1.563 1.766,1.563 0.609,0 1.531,-0.36 1.828,-1.735 0.203,-0.906 0.203,-2.156 0.203,-3.234 0,-1.063 0,-2.281 -0.172,-3.25 -0.297,-1.75 -1.297,-2.047 -1.859,-2.047 h 0 v -0.313 c 1.391,0 2.187,0.829 2.641,1.75 0.578,1.188 0.609,2.75 0.609,3.672 z"
   id="path43"
   inkscape:connector-curvature="0"
   style="fill:#000000;stroke-width:0" />
<path
   d="m 94.664,38.816 -0.001,0.038 -0.003,0.038 -0.004,0.037 -0.007,0.037 -0.008,0.036 -0.01,0.036 -0.012,0.035 -0.013,0.034 -0.015,0.034 -0.017,0.033 -0.018,0.032 -0.02,0.031 -0.021,0.03 -0.022,0.03 -0.024,0.028 -0.026,0.027 -0.026,0.025 -0.028,0.025 -0.029,0.023 -0.031,0.022 -0.031,0.02 -0.033,0.019 -0.034,0.018 -0.035,0.016 -0.036,0.014 -0.037,0.012 -0.038,0.011 -0.039,0.009 -0.039,0.007 -0.041,0.005 -0.041,0.003 -0.042,10e-4 c -0.406,0 -0.766,-0.328 -0.766,-0.75 0,-0.484 0.391,-0.781 0.766,-0.781 0.5,0 0.781,0.406 0.781,0.765 z"
   id="path45"
   inkscape:connector-curvature="0"
   style="fill:#000000;stroke-width:0" />
<path
   d="m 92.477,35.848 v -0.453 c 1.015,0 1.156,-0.094 1.156,-0.875 v -4.329 c 0,-0.718 -0.172,-0.718 -1.203,-0.718 V 29.02 c 0.437,0.031 1.203,0.031 1.656,0.031 0.187,0 1.109,0 1.641,-0.031 v 0.453 c -1.032,0 -1.094,0.093 -1.094,0.703 v 5.859 z"
   id="path47"
   inkscape:connector-curvature="0"
   style="fill:#000000;stroke-width:0" />
<path
   d="m 98.965,35.41 h 1.795 v 0.453 h -1.826 v 1.86 c 0,1.437 0.734,2.172 1.376,2.172 0.14,0 0.37,-0.032 0.56,-0.125 -0.06,-0.016 -0.45,-0.172 -0.45,-0.625 0,-0.36 0.25,-0.625 0.61,-0.625 0.39,0 0.64,0.265 0.64,0.64 0,0.594 -0.58,1.047 -1.35,1.047 -1.105,0 -2.355,-0.859 -2.355,-2.484 v -1.86 H 96.73 V 35.41 h 1.235 v -5.219 c 0,-0.718 -0.172,-0.718 -1.203,-0.718 V 29.02 c 0.437,0.031 1.312,0.031 1.797,0.031 0.421,0 1.551,0 1.921,-0.031 v 0.453 h -0.33 c -1.154,0 -1.185,0.187 -1.185,0.75 z"
   id="path49"
   inkscape:connector-curvature="0"
   style="fill:#000000;stroke-width:0" />
<path
   d="m 113.74,35.504 -0.05,-0.01 -0.04,-0.011 -0.04,-0.013 -0.05,-0.014 -0.03,-0.015 -0.04,-0.017 -0.04,-0.018 -0.03,-0.02 -0.04,-0.02 -0.03,-0.022 -0.03,-0.022 -0.02,-0.024 -0.03,-0.025 -0.03,-0.025 -0.02,-0.026 -0.02,-0.027 -0.02,-0.027 -0.02,-0.028 -0.02,-0.029 -0.01,-0.029 -0.02,-0.029 -0.01,-0.03 -0.01,-0.029 -0.02,-0.031 0,-0.03 -0.01,-0.03 -0.01,-0.031 -0.01,-0.03 0,-0.03 0,-0.03 0,-0.03 0,-0.029 c 0,-0.375 0.31,-0.5 0.53,-0.5 0.47,0 0.81,0.406 0.81,0.843 0,0.657 -0.77,0.969 -1.44,0.969 -0.97,0 -1.5,-0.953 -1.64,-1.265 -0.37,1.203 -1.36,1.265 -1.64,1.265 -1.62,0 -2.48,-2.094 -2.48,-2.437 0,-0.063 0.06,-0.141 0.17,-0.141 0.12,0 0.15,0.094 0.19,0.156 0.54,1.766 1.6,2.094 2.07,2.094 0.71,0 0.86,-0.656 0.86,-1.047 0,-0.344 -0.09,-0.719 -0.29,-1.469 l -0.54,-2.187 c -0.25,-0.953 -0.7,-1.828 -1.54,-1.828 -0.08,0 -0.47,0 -0.81,0.203 0.57,0.125 0.7,0.594 0.7,0.781 0,0.328 -0.24,0.516 -0.55,0.516 -0.37,0 -0.8,-0.344 -0.8,-0.844 0,-0.672 0.75,-0.969 1.44,-0.969 0.77,0 1.3,0.594 1.64,1.25 0.25,-0.937 1.05,-1.25 1.64,-1.25 1.61,0 2.47,2.078 2.47,2.422 0,0.094 -0.06,0.156 -0.15,0.156 -0.14,0 -0.16,-0.078 -0.21,-0.218 -0.43,-1.391 -1.36,-2.047 -2.06,-2.047 -0.56,0 -0.86,0.422 -0.86,1.062 0,0.36 0.06,0.61 0.31,1.657 l 0.57,2.156 c 0.23,0.953 0.76,1.656 1.5,1.656 0.03,0 0.48,0 0.81,-0.203 z"
   id="path51"
   inkscape:connector-curvature="0"
   style="fill:#000000;stroke-width:0" />
<path
   d="m 130.24,34.176 0.04,0 0.05,0 0.04,0.002 0.02,0.001 0.02,10e-4 0.02,0.002 0.03,0.002 0.02,0.003 0.02,0.004 0.02,0.004 0.02,0.004 0.02,0.006 0.01,0.006 0.02,0.007 0.02,0.008 0.02,0.009 0.01,0.009 0.02,0.011 0.01,0.012 0.01,0.013 0.01,0.014 0.01,0.008 0.01,0.008 0,0.008 0,0.009 0.01,0.008 0,0.01 0.01,0.009 0,0.01 0,0.01 0,0.011 0.01,0.011 0,0.012 0,0.011 0,0.012 0,0.013 0,0.013 c 0,0.297 -0.26,0.297 -0.5,0.297 h -9.37 c -0.22,0 -0.5,0 -0.5,-0.281 0,-0.297 0.26,-0.297 0.5,-0.297 z"
   id="path53"
   inkscape:connector-curvature="0"
   style="fill:#000000;stroke-width:0" />
<path
   d="m 130.24,31.207 0.04,0 0.05,10e-4 0.04,0.001 0.02,0.001 0.02,0.002 0.02,0.002 0.03,0.002 0.02,0.003 0.02,0.004 0.02,0.004 0.02,0.005 0.02,0.006 0.01,0.006 0.02,0.008 0.02,0.008 0.02,0.009 0.01,0.01 0.02,0.012 0.01,0.012 0.01,0.014 0.01,0.015 0.01,0.008 0.01,0.009 0,0.008 0,0.009 0.01,0.01 0,0.009 0.01,0.01 0,0.011 0,0.011 0,0.011 0.01,0.012 0,0.012 0,0.012 0,0.013 0,0.013 0,0.014 c 0,0.297 -0.26,0.297 -0.5,0.297 h -9.37 c -0.22,0 -0.5,0 -0.5,-0.281 0,-0.313 0.26,-0.313 0.5,-0.313 z"
   id="path55"
   inkscape:connector-curvature="0"
   style="fill:#000000;stroke-width:0" />
<path
   d="m 143.2,34.113 0,0.246 -0.01,0.245 0,0.244 -0.01,0.243 -0.02,0.243 -0.02,0.241 -0.02,0.24 -0.03,0.24 -0.04,0.238 -0.05,0.237 -0.05,0.236 -0.06,0.234 -0.07,0.234 -0.08,0.232 -0.09,0.231 -0.05,0.114 -0.06,0.115 c -0.65,1.312 -1.79,1.656 -2.58,1.656 -0.92,0 -2.04,-0.453 -2.64,-1.766 -0.43,-1.015 -0.59,-2 -0.59,-3.703 0,-1.547 0.11,-2.703 0.67,-3.843 0.63,-1.204 1.72,-1.579 2.55,-1.579 v 0.313 c -0.5,0 -1.53,0.281 -1.85,2.016 -0.17,0.953 -0.17,2.171 -0.17,3.281 0,1.297 0,2.469 0.25,3.406 0.28,1.078 1.08,1.563 1.77,1.563 0.61,0 1.53,-0.36 1.83,-1.735 0.2,-0.906 0.2,-2.156 0.2,-3.234 0,-1.063 0,-2.281 -0.17,-3.25 -0.3,-1.75 -1.3,-2.047 -1.86,-2.047 h 0 v -0.313 c 1.39,0 2.19,0.829 2.64,1.75 0.58,1.188 0.61,2.75 0.61,3.672 z"
   id="path57"
   inkscape:connector-curvature="0"
   style="fill:#000000;stroke-width:0" />
<path
   d="m 62.285,9.7227 0.053,0 0.052,6e-4 0.052,0.0014 0.025,0.0012 0.025,0.0016 0.024,0.0021 0.024,0.0026 0.024,0.0032 0.023,0.0037 0.022,0.0045 0.022,0.0052 0.021,0.0061 0.02,0.0068 0.019,0.0078 0.019,0.0088 0.017,0.0098 0.017,0.0109 0.015,0.012 0.015,0.0132 0.013,0.0145 0.012,0.0158 0.011,0.0172 0.005,0.0091 0.005,0.0095 0.004,0.0099 0.004,0.0102 0.004,0.0106 0.003,0.011 0.003,0.0115 0.003,0.0118 0.002,0.0122 10e-4,0.0127 0.002,0.0131 0.001,0.0137 0,0.014 10e-4,0.014 c 0,0.328 -0.282,0.328 -0.563,0.328 h -8.594 c -0.265,0 -0.562,0 -0.562,-0.328 0,-0.3123 0.297,-0.3123 0.562,-0.3123 z"
   id="path59"
   inkscape:connector-curvature="0"
   style="fill:#000000;stroke-width:0" />
<path
   d="M 71.746,12.551 71.7,12.541 71.656,12.53 71.613,12.517 71.572,12.503 71.533,12.488 71.496,12.471 71.46,12.452 71.425,12.433 71.393,12.413 71.361,12.391 71.332,12.368 71.304,12.345 71.277,12.32 71.252,12.295 71.229,12.269 71.207,12.242 71.187,12.215 71.167,12.187 71.15,12.158 71.134,12.129 71.119,12.1 l -0.014,-0.03 -0.012,-0.03 -0.01,-0.03 -0.01,-0.03 -0.008,-0.03 -0.007,-0.031 -0.005,-0.03 -0.005,-0.03 -0.003,-0.03 -0.001,-0.03 -10e-4,-0.03 c 0,-0.375 0.312,-0.5 0.531,-0.5 0.469,0 0.813,0.407 0.813,0.844 0,0.656 -0.766,0.969 -1.438,0.969 -0.969,0 -1.5,-0.953 -1.64,-1.266 -0.375,1.203 -1.36,1.266 -1.641,1.266 -1.625,0 -2.484,-2.094 -2.484,-2.438 0,-0.062 0.062,-0.14 0.171,-0.14 0.125,0 0.157,0.094 0.188,0.156 0.547,1.766 1.609,2.094 2.078,2.094 0.703,0 0.859,-0.656 0.859,-1.047 0,-0.344 -0.093,-0.719 -0.296,-1.469 L 67.652,8.0508 c -0.25,-0.9531 -0.703,-1.8281 -1.547,-1.8281 -0.078,0 -0.468,0 -0.812,0.2031 0.578,0.125 0.703,0.5937 0.703,0.7812 0,0.3282 -0.234,0.5157 -0.547,0.5157 -0.375,0 -0.797,-0.3438 -0.797,-0.8438 0,-0.6719 0.75,-0.9687 1.438,-0.9687 0.765,0 1.297,0.5937 1.64,1.25 0.25,-0.9375 1.047,-1.25 1.641,-1.25 1.609,0 2.469,2.0781 2.469,2.4218 0,0.0938 -0.063,0.1563 -0.156,0.1563 -0.141,0 -0.157,-0.0781 -0.204,-0.2188 -0.437,-1.3906 -1.359,-2.0468 -2.062,-2.0468 -0.563,0 -0.859,0.4218 -0.859,1.0625 0,0.3593 0.062,0.6093 0.312,1.6562 l 0.563,2.1566 c 0.234,0.953 0.765,1.656 1.5,1.656 0.031,0 0.484,0 0.812,-0.203 z"
   id="path61"
   inkscape:connector-curvature="0"
   style="fill:#000000;stroke-width:0" />
<path
   d="m 94.668,15.863 -0.001,0.038 -0.003,0.038 -0.004,0.037 -0.007,0.037 -0.008,0.036 -0.01,0.036 -0.012,0.035 -0.013,0.034 -0.015,0.034 -0.017,0.033 -0.018,0.032 -0.02,0.031 -0.021,0.03 -0.022,0.029 -0.024,0.028 -0.026,0.027 -0.026,0.026 -0.028,0.025 -0.03,0.023 -0.03,0.022 -0.032,0.02 -0.032,0.019 -0.034,0.018 -0.035,0.015 -0.036,0.015 -0.037,0.012 -0.038,0.011 -0.039,0.009 -0.039,0.007 -0.041,0.005 -0.041,0.003 -0.042,0.001 c -0.407,0 -0.766,-0.328 -0.766,-0.75 0,-0.485 0.391,-0.781 0.766,-0.781 0.5,0 0.781,0.406 0.781,0.765 z"
   id="path63"
   inkscape:connector-curvature="0"
   style="fill:#000000;stroke-width:0" />
<path
   d="m 92.48,12.894 v -0.453 c 1.016,0 1.157,-0.093 1.157,-0.875 V 7.2383 c 0,-0.7188 -0.172,-0.7188 -1.203,-0.7188 V 6.0664 c 0.437,0.0313 1.203,0.0313 1.656,0.0313 0.187,0 1.109,0 1.64,-0.0313 v 0.4531 c -1.031,0 -1.093,0.0938 -1.093,0.7032 v 5.8593 z"
   id="path65"
   inkscape:connector-curvature="0"
   style="fill:#000000;stroke-width:0" />
<path
   d="m 98.969,12.457 h 1.801 v 0.453 h -1.832 v 1.859 c 0,1.438 0.734,2.172 1.372,2.172 0.14,0 0.38,-0.031 0.57,-0.125 -0.07,-0.015 -0.46,-0.171 -0.46,-0.625 0,-0.359 0.25,-0.625 0.61,-0.625 0.39,0 0.64,0.266 0.64,0.641 0,0.594 -0.58,1.047 -1.34,1.047 -1.111,0 -2.361,-0.859 -2.361,-2.485 V 12.91 h -1.235 v -0.453 h 1.235 V 7.2383 c 0,-0.7188 -0.172,-0.7188 -1.203,-0.7188 V 6.0664 c 0.437,0.0313 1.312,0.0313 1.796,0.0313 0.422,0 1.548,0 1.918,-0.0313 v 0.4531 h -0.32 c -1.16,0 -1.191,0.1875 -1.191,0.75 z"
   id="path67"
   inkscape:connector-curvature="0"
   style="fill:#000000;stroke-width:0" />
<path
   d="m 113.74,12.551 -0.05,-0.01 -0.04,-0.011 -0.04,-0.013 -0.05,-0.014 -0.03,-0.015 -0.04,-0.017 -0.04,-0.019 -0.03,-0.019 -0.04,-0.02 -0.03,-0.022 -0.03,-0.023 -0.02,-0.023 -0.03,-0.025 -0.03,-0.025 -0.02,-0.026 -0.02,-0.027 -0.02,-0.027 -0.02,-0.028 -0.02,-0.029 -0.01,-0.029 -0.02,-0.029 -0.01,-0.03 -0.01,-0.03 -0.02,-0.03 0,-0.03 -0.01,-0.03 -0.01,-0.031 -0.01,-0.03 0,-0.03 0,-0.03 0,-0.03 0,-0.03 c 0,-0.375 0.31,-0.5 0.53,-0.5 0.47,0 0.81,0.407 0.81,0.844 0,0.656 -0.77,0.969 -1.44,0.969 -0.97,0 -1.5,-0.953 -1.64,-1.266 -0.37,1.203 -1.36,1.266 -1.64,1.266 -1.62,0 -2.48,-2.094 -2.48,-2.438 0,-0.062 0.06,-0.14 0.17,-0.14 0.12,0 0.15,0.094 0.19,0.156 0.54,1.766 1.6,2.094 2.07,2.094 0.71,0 0.86,-0.656 0.86,-1.047 0,-0.344 -0.09,-0.719 -0.29,-1.469 l -0.54,-2.1872 c -0.25,-0.9531 -0.7,-1.8281 -1.54,-1.8281 -0.08,0 -0.47,0 -0.81,0.2031 0.57,0.125 0.7,0.5937 0.7,0.7812 0,0.3282 -0.24,0.5157 -0.55,0.5157 -0.37,0 -0.8,-0.3438 -0.8,-0.8438 0,-0.6719 0.75,-0.9687 1.44,-0.9687 0.77,0 1.3,0.5937 1.64,1.25 0.25,-0.9375 1.05,-1.25 1.64,-1.25 1.61,0 2.47,2.0781 2.47,2.4218 0,0.0938 -0.06,0.1563 -0.15,0.1563 -0.14,0 -0.16,-0.0781 -0.21,-0.2188 -0.43,-1.3906 -1.36,-2.0468 -2.06,-2.0468 -0.56,0 -0.86,0.4218 -0.86,1.0625 0,0.3593 0.06,0.6093 0.31,1.6562 l 0.57,2.1566 c 0.23,0.953 0.76,1.656 1.5,1.656 0.03,0 0.48,0 0.81,-0.203 z"
   id="path69"
   inkscape:connector-curvature="0"
   style="fill:#000000;stroke-width:0" />
<path
   d="m 129.97,13.801 0.02,0.006 0.01,0.007 0.01,0.006 0.02,0.007 0.01,0.006 0.01,0.007 0.01,0.006 0.01,0.006 0.02,0.012 0.02,0.013 0.02,0.012 0.02,0.012 0.02,0.011 0.01,0.012 0.01,0.011 0.02,0.012 0.01,0.011 0.01,0.011 0.01,0.011 0.01,0.01 0.01,0.011 0,0.01 0.01,0.01 0.01,0.011 0,0.01 0,0.01 0.01,0.009 0,0.01 0,0.01 0.01,0.009 0,0.009 0,0.01 0,0.009 0,0.009 0,0.017 c 0,0.172 -0.12,0.297 -0.31,0.297 -0.03,0 -0.05,-0.015 -0.27,-0.109 l -8.59,-3.953 c -0.3,-0.125 -0.33,-0.25 -0.33,-0.344 0,-0.1092 0.02,-0.203 0.33,-0.3436 l 8.59,-3.9531 c 0.21,-0.0938 0.24,-0.1094 0.27,-0.1094 0.19,0 0.31,0.125 0.31,0.2969 0,0.0937 -0.03,0.2031 -0.33,0.3281 l -8.18,3.7651 z"
   id="path71"
   inkscape:connector-curvature="0"
   style="fill:#000000;stroke-width:0" />
<path
   d="m 143.2,11.16 0,0.246 -0.01,0.245 0,0.244 -0.01,0.243 -0.02,0.243 -0.02,0.241 -0.02,0.24 -0.03,0.24 -0.04,0.238 -0.05,0.237 -0.05,0.236 -0.06,0.234 -0.07,0.234 -0.08,0.232 -0.09,0.23 -0.05,0.115 -0.06,0.115 c -0.65,1.312 -1.79,1.656 -2.58,1.656 -0.92,0 -2.04,-0.453 -2.64,-1.766 -0.43,-1.015 -0.59,-2 -0.59,-3.703 0,-1.5467 0.11,-2.703 0.67,-3.8436 0.63,-1.2031 1.72,-1.5781 2.55,-1.5781 v 0.3125 c -0.5,0 -1.53,0.2812 -1.85,2.0156 -0.17,0.9531 -0.17,2.1716 -0.17,3.2816 0,1.296 0,2.468 0.25,3.406 0.28,1.078 1.08,1.562 1.77,1.562 0.61,0 1.53,-0.359 1.83,-1.734 0.2,-0.906 0.2,-2.156 0.2,-3.234 0,-1.063 0,-2.2816 -0.17,-3.2503 -0.3,-1.75 -1.3,-2.0469 -1.86,-2.0469 h 0 V 5.7383 c 1.39,0 2.19,0.8281 2.64,1.75 0.58,1.1875 0.61,2.7497 0.61,3.6717 z"
   id="path73"
   inkscape:connector-curvature="0"
   style="fill:#000000;stroke-width:0" />
</g></svg>
