<?xml version="1.0" encoding="UTF-8" standalone="no"?>
<svg
   xmlns:dc="http://purl.org/dc/elements/1.1/"
   xmlns:cc="http://creativecommons.org/ns#"
   xmlns:rdf="http://www.w3.org/1999/02/22-rdf-syntax-ns#"
   xmlns:svg="http://www.w3.org/2000/svg"
   xmlns="http://www.w3.org/2000/svg"
   xmlns:sodipodi="http://sodipodi.sourceforge.net/DTD/sodipodi-0.dtd"
   xmlns:inkscape="http://www.inkscape.org/namespaces/inkscape"
   version="1.1"
   id="body"
   width="405.93491"
   height="83.714691"
   viewBox="0 0 0.56379848 0.1162704"
   preserveAspectRatio="none"
   inkscape:version="0.48.3.1 r9886"
   sodipodi:docname="ch1-Z-G-12.svg">
  <metadata
     id="metadata131">
    <rdf:RDF>
      <cc:Work
         rdf:about="">
        <dc:format>image/svg+xml</dc:format>
        <dc:type
           rdf:resource="http://purl.org/dc/dcmitype/StillImage" />
      </cc:Work>
    </rdf:RDF>
  </metadata>
  <defs
     id="defs129" />
  <sodipodi:namedview
     pagecolor="#ffffff"
     bordercolor="#666666"
     borderopacity="1"
     objecttolerance="10"
     gridtolerance="10"
     guidetolerance="10"
     inkscape:pageopacity="0"
     inkscape:pageshadow="2"
     inkscape:window-width="640"
     inkscape:window-height="480"
     id="namedview127"
     showgrid="false"
     inkscape:zoom="0.32777778"
     inkscape:cx="382.30469"
     inkscape:cy="494.80469"
     inkscape:window-x="0"
     inkscape:window-y="24"
     inkscape:window-maximized="0"
     inkscape:current-layer="body" />
  <title
     id="title3">SVG drawing</title>
  <desc
     id="desc5">This was produced by version 4.4 of GNU libplot, a free library for exporting 2-D vector graphics.</desc>
  <g
     id="content"
     transform="matrix(0.0017361,0,0,-0.0017361,-2.7126562e-4,0.11654167)"
     xml:space="preserve"
     stroke-miterlimit="10.433"
     font-style="normal"
     font-variant="normal"
     font-weight="normal"
     font-stretch="normal"
     font-size-adjust="none"
     letter-spacing="normal"
     word-spacing="normal"
     style="font-style:normal;font-variant:normal;font-weight:normal;font-stretch:normal;letter-spacing:normal;word-spacing:normal;text-anchor:start;fill:none;stroke:#000000;stroke-linecap:butt;stroke-linejoin:miter;stroke-miterlimit:10.43299961;stroke-opacity:1;stroke-dasharray:none;stroke-dashoffset:0">
<path
   d="M 4.1758,34.82 H 5.707 c 1.2032,0 1.2969,-0.281 1.2969,-0.734 0,-0.203 -0.0312,-0.438 -0.1094,-0.781 -0.0312,-0.063 -0.0468,-0.141 -0.0468,-0.172 0,-0.11 0.0625,-0.172 0.1718,-0.172 0.125,0 0.1407,0.062 0.2032,0.312 l 0.9218,3.704 c 0,0.062 -0.0468,0.156 -0.1562,0.156 C 7.8477,37.133 7.832,37.07 7.7695,36.805 7.4414,35.602 7.1133,35.273 5.7383,35.273 H 4.2852 l 1.0312,4.125 c 0.1563,0.547 0.1875,0.594 0.8281,0.594 h 2.1407 c 1.9838,0 2.2658,-0.578 2.2658,-1.719 0,-0.093 0,-0.437 -0.047,-0.859 -0.016,-0.062 -0.047,-0.266 -0.047,-0.328 0,-0.125 0.078,-0.172 0.172,-0.172 0.109,0 0.172,0.063 0.203,0.344 l 0.344,2.781 c 0,0.047 0.031,0.203 0.031,0.25 0,0.172 -0.141,0.172 -0.438,0.172 H 3.2383 c -0.2969,0 -0.4531,0 -0.4531,-0.297 0,-0.172 0.1093,-0.172 0.375,-0.172 0.9843,0 0.9843,-0.109 0.9843,-0.281 0,-0.078 -0.0156,-0.141 -0.0625,-0.313 L 1.9414,30.805 C 1.8008,30.258 1.7539,30.086 0.64453,30.086 c -0.29687,0 -0.45312,0 -0.45312,-0.281 0,-0.172 0.14062,-0.172 0.23437,-0.172 0.29688,0 0.62502,0.031 0.92192,0.031 h 2.0625 c 0.3593,0 0.7343,-0.031 1.0781,-0.031 0.1562,0 0.3437,0 0.3437,0.281 0,0.172 -0.0937,0.172 -0.4531,0.172 -1.25,0 -1.2812,0.125 -1.2812,0.359 0,0.078 0.0312,0.203 0.0625,0.313 z"
   id="path9"
   inkscape:connector-curvature="0"
   style="fill:#000000;stroke-width:0" />
<path
   d="m 16.23,31.898 0,0.009 0,0.009 -0.001,0.008 -10e-4,0.008 -0.002,0.008 -0.002,0.008 -0.002,0.007 -0.003,0.007 -0.003,0.007 -0.003,0.007 -0.003,0.007 -0.004,0.006 -0.004,0.006 -0.005,0.006 -0.004,0.005 -0.005,0.006 -0.006,0.005 -0.005,0.004 -0.006,0.005 -0.006,0.004 -0.006,0.004 -0.007,0.003 -0.007,0.004 -0.007,0.002 -0.007,0.003 -0.008,0.002 -0.007,0.002 -0.008,0.002 -0.008,10e-4 -0.009,0.001 -0.008,10e-4 -0.009,0 c -0.14,0 -0.156,-0.047 -0.25,-0.328 -0.406,-1.438 -1.062,-1.938 -1.578,-1.938 -0.187,0 -0.422,0.047 -0.422,0.531 0,0.422 0.188,0.907 0.375,1.375 l 1.11,2.953 c 0.047,0.141 0.156,0.422 0.156,0.719 0,0.672 -0.469,1.281 -1.25,1.281 -1.469,0 -2.063,-2.312 -2.063,-2.437 0,-0.063 0.079,-0.141 0.188,-0.141 0.141,0 0.156,0.063 0.219,0.282 0.375,1.343 0.984,1.968 1.609,1.968 0.141,0 0.406,-0.015 0.406,-0.515 0,-0.422 -0.203,-0.938 -0.328,-1.297 l -1.109,-2.953 c -0.11,-0.25 -0.203,-0.5 -0.203,-0.797 0,-0.719 0.5,-1.281 1.265,-1.281 1.453,0 2.031,2.312 2.031,2.421 z"
   id="path11"
   inkscape:connector-curvature="0"
   style="fill:#000000;stroke-width:0" />
<path
   d="m 16.105,39.555 0,0.022 -0.002,0.022 -0.002,0.023 -0.004,0.022 -0.005,0.023 -0.006,0.022 -0.007,0.023 -0.008,0.022 -0.01,0.022 -0.01,0.022 -0.011,0.022 -0.013,0.021 -0.013,0.021 -0.015,0.02 -0.015,0.019 -0.017,0.019 -0.018,0.019 -0.019,0.017 -0.02,0.017 -0.02,0.016 -0.022,0.015 -0.023,0.014 -0.024,0.013 -0.025,0.012 -0.026,0.01 -0.027,0.01 -0.029,0.008 -0.029,0.007 -0.03,0.005 -0.031,0.004 -0.032,0.002 -0.033,10e-4 c -0.36,0 -0.782,-0.343 -0.782,-0.765 0,-0.391 0.344,-0.516 0.532,-0.516 0.422,0 0.796,0.406 0.796,0.766 z"
   id="path13"
   inkscape:connector-curvature="0"
   style="fill:#000000;stroke-width:0" />
<path
   d="m 20.723,40.273 0.001,0.006 0.002,0.006 0.001,0.007 0.002,0.006 0.004,0.014 0.004,0.013 0.003,0.015 0.004,0.014 0.004,0.015 0.004,0.016 0.004,0.015 0.003,0.016 0.003,0.015 0.002,0.016 0.003,0.016 0.001,0.015 10e-4,0.007 0,0.008 0,0.007 0.001,0.008 c 0,0.156 -0.157,0.156 -0.188,0.156 -0.016,0 -0.594,-0.047 -0.875,-0.078 -0.266,-0.016 -0.516,-0.047 -0.797,-0.063 -0.375,-0.031 -0.5,-0.046 -0.5,-0.343 0,-0.157 0.172,-0.157 0.328,-0.157 0.813,0 0.813,-0.14 0.813,-0.296 0,-0.11 -0.125,-0.579 -0.203,-0.86 L 18.973,37.336 C 18.816,36.711 17.91,33.102 17.848,32.805 17.77,32.414 17.77,32.148 17.77,31.93 c 0,-1.61 0.906,-2.453 1.937,-2.453 l 0.016,0.312 c -0.516,0 -1.063,0.391 -1.063,1.625 0,0.516 0.047,0.828 0.328,1.938 0.047,0.203 0.297,1.218 0.36,1.437 0.047,0.125 0.984,1.531 2.062,1.531 0.688,0 1.016,-0.703 1.016,-1.515 0,-0.766 -0.453,-2.563 -0.844,-3.391 -0.406,-0.859 -1.125,-1.625 -1.859,-1.625 h 0 l -0.016,-0.312 c 1.844,0 3.75,2.359 3.75,4.671 0,1.454 -0.828,2.5 -2.016,2.5 -0.828,0 -1.578,-0.687 -1.875,-1 z"
   id="path15"
   inkscape:connector-curvature="0"
   style="fill:#000000;stroke-width:0" />
<path
   d="m 28.863,25.773 0,0.009 0,0.009 -0.001,0.004 -10e-4,0.005 -0.001,0.005 -10e-4,0.005 -0.002,0.005 -0.002,0.005 -0.003,0.006 -0.004,0.007 -0.004,0.007 -0.004,0.007 -0.006,0.008 -0.006,0.008 -0.007,0.009 -0.008,0.01 -0.009,0.011 -0.009,0.011 -0.006,0.006 -0.005,0.006 -0.006,0.007 -0.006,0.006 -0.006,0.007 -0.007,0.007 -0.007,0.007 -0.007,0.008 -0.008,0.008 -0.008,0.008 -0.008,0.008 -0.009,0.009 -0.008,0.009 -0.01,0.009 -0.009,0.009 -0.01,0.01 -0.01,0.01 -0.011,0.01 -0.011,0.011 -0.011,0.011 -0.012,0.011 -0.012,0.012 -0.013,0.012 -0.013,0.012 c -1.578,1.61 -2.469,4.235 -2.469,7.469 0,3.094 0.735,5.734 2.578,7.625 0.172,0.141 0.172,0.172 0.172,0.219 0,0.093 -0.078,0.125 -0.156,0.125 -0.203,0 -1.5,-1.141 -2.281,-2.703 -0.813,-1.61 -1.172,-3.313 -1.172,-5.266 0,-1.406 0.219,-3.297 1.047,-5 0.937,-1.906 2.234,-2.938 2.406,-2.938 0.078,0 0.156,0.032 0.156,0.125 z"
   id="path17"
   inkscape:connector-curvature="0"
   style="fill:#000000;stroke-width:0" />
<path
   d="m 33.043,34.289 0.004,0.011 0.006,0.015 0.008,0.018 0.01,0.022 0.012,0.026 0.014,0.028 0.016,0.032 0.018,0.035 0.02,0.037 0.022,0.04 0.023,0.042 0.025,0.044 0.027,0.046 0.029,0.048 0.031,0.05 0.032,0.051 0.034,0.052 0.035,0.053 0.037,0.055 0.039,0.054 0.04,0.056 0.041,0.056 0.043,0.055 0.045,0.056 0.046,0.056 0.047,0.055 0.049,0.055 0.05,0.054 0.051,0.053 0.053,0.052 0.054,0.05 0.055,0.049 c 0.406,0.375 0.953,0.625 1.562,0.625 0.641,0 0.859,-0.468 0.859,-1.109 0,-0.906 -0.64,-2.719 -0.968,-3.578 -0.141,-0.375 -0.219,-0.578 -0.219,-0.875 0,-0.719 0.5,-1.281 1.25,-1.281 1.484,0 2.047,2.328 2.047,2.421 0,0.094 -0.078,0.157 -0.172,0.157 -0.141,0 -0.156,-0.047 -0.234,-0.328 -0.36,-1.297 -0.969,-1.938 -1.594,-1.938 -0.156,0 -0.406,0.016 -0.406,0.531 0,0.391 0.171,0.875 0.265,1.094 0.328,0.875 0.985,2.656 0.985,3.563 0,0.953 -0.547,1.671 -1.766,1.671 -1.406,0 -2.156,-1 -2.438,-1.406 -0.046,0.906 -0.703,1.406 -1.406,1.406 -0.5,0 -0.859,-0.312 -1.125,-0.843 -0.281,-0.578 -0.515,-1.532 -0.515,-1.594 0,-0.063 0.078,-0.141 0.187,-0.141 0.125,0 0.141,0.016 0.234,0.375 0.25,0.969 0.532,1.875 1.172,1.875 0.375,0 0.5,-0.25 0.5,-0.734 0,-0.344 -0.156,-0.969 -0.281,-1.453 l -0.437,-1.719 c -0.063,-0.297 -0.235,-1.016 -0.313,-1.297 -0.125,-0.422 -0.297,-1.172 -0.297,-1.25 0,-0.219 0.172,-0.39 0.422,-0.39 0.188,0 0.406,0.093 0.531,0.328 0.032,0.078 0.188,0.64 0.266,0.953 l 0.344,1.437 z"
   id="path19"
   inkscape:connector-curvature="0"
   style="fill:#000000;stroke-width:0" />
<path
   d="m 43.562,33.586 0,0.116 -10e-4,0.121 -0.003,0.125 -0.004,0.128 -0.005,0.133 -0.007,0.136 -0.018,0.282 -0.025,0.295 -0.033,0.305 -0.042,0.316 -0.051,0.324 -0.062,0.332 -0.073,0.337 -0.085,0.343 -0.098,0.346 -0.112,0.348 -0.062,0.174 -0.065,0.175 -0.069,0.174 -0.073,0.174 -0.077,0.174 -0.081,0.173 c -0.938,1.906 -2.25,2.938 -2.422,2.938 -0.063,0 -0.141,-0.032 -0.141,-0.125 0,-0.047 0,-0.078 0.266,-0.36 1.593,-1.593 2.484,-4.218 2.484,-7.468 0,-3.079 -0.75,-5.735 -2.594,-7.61 -0.156,-0.14 -0.156,-0.172 -0.156,-0.219 0,-0.093 0.078,-0.125 0.141,-0.125 0.203,0 1.515,1.141 2.297,2.704 0.797,1.609 1.171,3.328 1.171,5.234 z"
   id="path21"
   inkscape:connector-curvature="0"
   style="fill:#000000;stroke-width:0" />
<path
   d="m 60.309,34.789 0.041,0 0.043,10e-4 0.043,10e-4 0.022,0.001 0.021,10e-4 0.021,0.002 0.021,0.003 0.021,0.003 0.021,0.003 0.02,0.004 0.02,0.005 0.019,0.005 0.019,0.006 0.018,0.007 0.017,0.008 0.016,0.009 0.016,0.01 0.015,0.011 0.014,0.011 0.012,0.014 0.012,0.014 0.006,0.007 0.005,0.008 0.005,0.008 0.004,0.009 0.004,0.009 0.004,0.009 0.004,0.01 0.003,0.009 0.003,0.011 0.002,0.01 0.003,0.011 10e-4,0.012 0.002,0.012 10e-4,0.012 0,0.012 10e-4,0.013 c 0,0.297 -0.266,0.297 -0.5,0.297 h -9.375 c -0.219,0 -0.5,0 -0.5,-0.281 0,-0.297 0.265,-0.297 0.5,-0.297 z"
   id="path23"
   inkscape:connector-curvature="0"
   style="fill:#000000;stroke-width:0" />
<path
   d="m 60.309,31.82 0.041,0 0.043,0.001 0.043,10e-4 0.022,0.001 0.021,0.002 0.021,0.002 0.021,0.002 0.021,0.003 0.021,0.004 0.02,0.004 0.02,0.005 0.019,0.006 0.019,0.006 0.018,0.008 0.017,0.008 0.016,0.009 0.016,0.011 0.015,0.011 0.014,0.013 0.012,0.014 0.012,0.015 0.006,0.008 0.005,0.008 0.005,0.009 0.004,0.009 0.004,0.009 0.004,0.01 0.004,0.01 0.003,0.01 0.003,0.011 0.002,0.011 0.003,0.012 10e-4,0.012 0.002,0.012 10e-4,0.013 0,0.013 10e-4,0.014 c 0,0.297 -0.266,0.297 -0.5,0.297 h -9.375 c -0.219,0 -0.5,0 -0.5,-0.281 0,-0.313 0.265,-0.313 0.5,-0.313 z"
   id="path25"
   inkscape:connector-curvature="0"
   style="fill:#000000;stroke-width:0" />
<path
   d="m 74.156,59.891 10e-4,0.128 0.004,0.137 0.006,0.147 0.009,0.155 0.014,0.163 0.017,0.171 0.021,0.178 0.026,0.184 0.031,0.191 0.037,0.196 0.043,0.201 0.049,0.205 0.056,0.21 0.063,0.213 0.07,0.216 0.079,0.219 0.086,0.22 0.096,0.223 0.104,0.223 0.114,0.223 0.123,0.224 0.134,0.223 0.145,0.222 0.155,0.221 0.167,0.219 0.179,0.216 0.191,0.213 0.204,0.209 0.216,0.206 0.23,0.201 0.244,0.196 0.258,0.19 c 0.203,0.157 0.219,0.172 0.219,0.469 0,0.359 -0.016,0.375 -0.406,0.375 h -0.25 C 73.469,65.234 72.25,62.234 72.25,59.891 v -6.829 c 0,-0.421 0.016,-0.437 0.438,-0.437 h 1.015 c 0.438,0 0.453,0.016 0.453,0.437 z"
   id="path27"
   inkscape:connector-curvature="0"
   style="fill:#000000;stroke-width:0" />
<path
   d="m 74.156,52.48 0,0.019 0,0.018 0,0.018 0,0.017 0,0.017 -0.001,0.016 0,0.015 0,0.015 -0.001,0.015 0,0.014 -10e-4,0.013 -0.001,0.013 -0.001,0.013 -10e-4,0.012 -0.002,0.012 -10e-4,0.011 -0.002,0.011 -0.002,0.01 -0.004,0.019 -0.005,0.018 -0.006,0.016 -0.007,0.015 -0.008,0.014 -0.009,0.012 -0.01,0.011 -0.012,0.009 -0.013,0.009 -0.014,0.007 -0.016,0.007 -0.009,0.003 -0.009,0.003 -0.009,0.002 -0.01,0.002 -0.01,0.002 -0.011,0.002 -0.011,0.002 -0.012,0.002 -0.012,0.001 -0.012,10e-4 -0.013,10e-4 -0.014,0.001 -0.014,10e-4 -0.014,10e-4 -0.015,0 -0.016,0.001 -0.016,0 -0.017,10e-4 -0.017,0 -0.018,0 -0.018,0 -0.019,0 -0.02,0 -0.02,0 h -1.015 c -0.422,0 -0.438,-0.015 -0.438,-0.422 v -4.234 c 0,-0.406 0.016,-0.422 0.438,-0.422 h 1.015 c 0.438,0 0.453,0.016 0.453,0.422 z"
   id="path29"
   inkscape:connector-curvature="0"
   style="fill:#000000;stroke-width:0" />
<path
   d="m 72.25,19.621 0,-0.019 0,-0.018 0,-0.017 0,-0.018 0,-0.016 0.001,-0.016 0,-0.016 0,-0.015 10e-4,-0.014 0.001,-0.014 0,-0.014 0.001,-0.013 10e-4,-0.012 0.001,-0.012 0.002,-0.012 0.001,-0.011 0.002,-0.011 0.001,-0.01 0.002,-0.01 0.002,-0.01 0.005,-0.018 0.006,-0.016 0.007,-0.015 0.008,-0.013 0.009,-0.012 0.01,-0.011 0.011,-0.01 0.012,-0.008 0.014,-0.008 0.016,-0.006 0.017,-0.006 0.009,-0.003 0.009,-0.002 0.01,-0.002 0.01,-0.002 0.011,-10e-4 0.011,-0.002 0.012,-10e-4 0.012,-0.002 0.012,-10e-4 0.013,-0.001 0.014,-10e-4 0.014,0 0.015,-0.001 0.015,0 0.015,-0.001 0.016,0 0.017,0 0.017,-10e-4 0.018,0 0.018,0 0.019,0 0.02,0 h 1.015 c 0.438,0 0.453,0.016 0.453,0.422 v 6.719 c 0,1.922 -0.812,5.156 -4.375,7.328 3.594,2.172 4.375,5.437 4.375,7.312 v 6.719 c 0,0.406 -0.015,0.422 -0.453,0.422 h -1.015 c -0.422,0 -0.438,-0.016 -0.438,-0.422 v -6.734 c 0,-1.328 -0.297,-4.641 -3.219,-6.86 -0.172,-0.14 -0.187,-0.156 -0.187,-0.437 0,-0.297 0.015,-0.313 0.187,-0.453 0.422,-0.313 1.516,-1.156 2.281,-2.766 0.61,-1.265 0.938,-2.687 0.938,-4.094 z"
   id="path31"
   inkscape:connector-curvature="0"
   style="fill:#000000;stroke-width:0" />
<path
   d="m 74.156,19.004 0,0.019 0,0.018 0,0.017 0,0.018 0,0.016 -0.001,0.016 0,0.016 0,0.015 -0.001,0.014 0,0.014 -10e-4,0.014 -0.001,0.013 -0.001,0.012 -10e-4,0.012 -0.002,0.012 -10e-4,0.011 -0.002,0.011 -0.002,0.01 -0.004,0.02 -0.005,0.018 -0.006,0.016 -0.007,0.015 -0.008,0.013 -0.009,0.012 -0.01,0.011 -0.012,0.01 -0.013,0.008 -0.014,0.008 -0.016,0.006 -0.009,0.003 -0.009,0.003 -0.009,0.003 -0.01,0.002 -0.01,0.002 -0.011,0.002 -0.011,10e-4 -0.012,0.002 -0.012,10e-4 -0.012,0.002 -0.013,10e-4 -0.014,0.001 -0.014,10e-4 -0.014,0 -0.015,0.001 -0.016,0 -0.016,0.001 -0.017,0 -0.017,0 -0.018,10e-4 -0.018,0 -0.019,0 -0.02,0 -0.02,0 h -1.015 c -0.422,0 -0.438,-0.016 -0.438,-0.422 v -4.235 c 0,-0.406 0.016,-0.421 0.438,-0.421 h 1.015 c 0.438,0 0.453,0.015 0.453,0.421 z"
   id="path33"
   inkscape:connector-curvature="0"
   style="fill:#000000;stroke-width:0" />
<path
   d="m 77.141,0.20703 0.018,1e-5 0.017,5e-5 0.017,8e-5 0.017,1.2e-4 0.015,1.8e-4 0.016,2.4e-4 0.015,3.1e-4 0.014,3.8e-4 0.014,4.7e-4 0.014,5.6e-4 0.013,6.5e-4 0.012,7.6e-4 0.012,8.8e-4 0.012,9.9e-4 0.011,0.00112 0.011,0.00126 0.01,0.0014 0.01,0.00155 0.01,0.00171 0.009,0.00187 0.009,0.00205 0.008,0.00223 0.016,0.00503 0.014,0.00584 0.013,0.00671 0.012,0.00765 0.01,0.00864 0.01,0.00969 0.008,0.0108 0.007,0.01198 0.006,0.01321 0.006,0.0145 0.004,0.01586 0.004,0.01727 0.003,0.01875 0.002,0.00994 10e-4,0.01033 0.001,0.01074 0.001,0.01113 10e-4,0.01156 0,0.01197 0.001,0.0124 0,0.01284 0.001,0.01328 0,0.01373 0,0.01419 10e-4,0.01466 0,0.01513 0,0.01561 0,0.0161 0,0.01659 c 0,0.28125 -0.016,0.29688 -0.078,0.34375 C 76.984,1.3008 75.828,2.1133 75.094,3.5664 74.469,4.7695 74.156,6.0039 74.156,7.3789 v 6.8441 c 0,0.406 -0.015,0.421 -0.453,0.421 h -1.015 c -0.422,0 -0.438,-0.015 -0.438,-0.421 V 7.3789 c 0,-2.3437 1.219,-5.3437 4.641,-7.17187 z"
   id="path35"
   inkscape:connector-curvature="0"
   style="fill:#000000;stroke-width:0" />
<path
   d="m 87.438,57.074 -0.002,0.246 -0.003,0.245 -0.007,0.244 -0.01,0.243 -0.014,0.243 -0.02,0.241 -0.025,0.24 -0.031,0.24 -0.038,0.238 -0.045,0.237 -0.053,0.236 -0.062,0.234 -0.072,0.234 -0.081,0.232 -0.091,0.23 -0.05,0.115 -0.053,0.115 c -0.656,1.312 -1.797,1.656 -2.578,1.656 -0.922,0 -2.047,-0.453 -2.641,-1.766 -0.437,-1.015 -0.593,-2 -0.593,-3.703 0,-1.547 0.109,-2.703 0.672,-3.844 0.625,-1.203 1.718,-1.578 2.547,-1.578 v 0.313 c -0.5,0 -1.532,0.281 -1.844,2.015 -0.172,0.954 -0.172,2.172 -0.172,3.282 0,1.297 0,2.468 0.25,3.406 0.281,1.078 1.078,1.562 1.766,1.562 0.609,0 1.531,-0.359 1.828,-1.734 0.203,-0.906 0.203,-2.156 0.203,-3.234 0,-1.063 0,-2.282 -0.172,-3.25 -0.297,-1.75 -1.297,-2.047 -1.859,-2.047 h 0 v -0.313 c 1.39,0 2.187,0.828 2.64,1.75 0.578,1.188 0.61,2.75 0.61,3.672 z"
   id="path37"
   inkscape:connector-curvature="0"
   style="fill:#000000;stroke-width:0" />
<path
   d="m 263.86,61.777 0,0.038 0,0.038 -0.01,0.037 0,0.037 -0.01,0.036 -0.01,0.036 -0.01,0.035 -0.02,0.034 -0.01,0.034 -0.02,0.033 -0.02,0.032 -0.01,0.031 -0.03,0.03 -0.02,0.029 -0.02,0.029 -0.03,0.027 -0.02,0.025 -0.03,0.025 -0.03,0.023 -0.03,0.022 -0.03,0.02 -0.04,0.019 -0.03,0.018 -0.03,0.015 -0.04,0.015 -0.04,0.012 -0.04,0.011 -0.03,0.009 -0.04,0.007 -0.04,0.005 -0.05,0.003 -0.04,10e-4 c -0.4,0 -0.76,-0.328 -0.76,-0.75 0,-0.484 0.39,-0.781 0.76,-0.781 0.5,0 0.78,0.406 0.78,0.765 z"
   id="path39"
   inkscape:connector-curvature="0"
   style="fill:#000000;stroke-width:0" />
<path
   d="m 261.68,58.809 v -0.454 c 1.01,0 1.15,-0.093 1.15,-0.875 v -4.328 c 0,-0.718 -0.17,-0.718 -1.2,-0.718 V 51.98 c 0.44,0.032 1.2,0.032 1.66,0.032 0.18,0 1.1,0 1.64,-0.032 v 0.454 c -1.04,0 -1.1,0.093 -1.1,0.703 v 5.859 z"
   id="path41"
   inkscape:connector-curvature="0"
   style="fill:#000000;stroke-width:0" />
<path
   d="m 268.16,58.371 h 1.8 v 0.453 h -1.83 v 1.86 c 0,1.437 0.74,2.171 1.38,2.171 0.14,0 0.37,-0.031 0.56,-0.125 -0.06,-0.015 -0.45,-0.171 -0.45,-0.625 0,-0.359 0.25,-0.625 0.61,-0.625 0.39,0 0.64,0.266 0.64,0.641 0,0.594 -0.58,1.047 -1.35,1.047 -1.11,0 -2.36,-0.859 -2.36,-2.484 v -1.86 h -1.23 v -0.453 h 1.23 v -5.219 c 0,-0.718 -0.17,-0.718 -1.2,-0.718 V 51.98 c 0.44,0.032 1.31,0.032 1.8,0.032 0.42,0 1.54,0 1.92,-0.032 v 0.454 h -0.33 c -1.15,0 -1.19,0.187 -1.19,0.75 z"
   id="path43"
   inkscape:connector-curvature="0"
   style="fill:#000000;stroke-width:0" />
<path
   d="m 278.68,56.637 0.01,0.011 0,0.014 0.01,0.019 0.01,0.022 0.01,0.025 0.02,0.029 0.01,0.032 0.02,0.034 0.02,0.038 0.02,0.04 0.03,0.042 0.02,0.044 0.03,0.046 0.03,0.048 0.03,0.05 0.03,0.051 0.03,0.052 0.04,0.053 0.04,0.054 0.03,0.055 0.05,0.056 0.04,0.055 0.04,0.056 0.04,0.056 0.05,0.056 0.05,0.055 0.05,0.054 0.05,0.054 0.05,0.053 0.05,0.052 0.05,0.051 0.06,0.049 c 0.41,0.375 0.95,0.625 1.56,0.625 0.64,0 0.86,-0.469 0.86,-1.109 0,-0.907 -0.64,-2.719 -0.97,-3.579 -0.14,-0.375 -0.22,-0.578 -0.22,-0.875 0,-0.718 0.5,-1.281 1.25,-1.281 1.49,0 2.05,2.328 2.05,2.422 0,0.094 -0.08,0.156 -0.17,0.156 -0.14,0 -0.16,-0.047 -0.24,-0.328 -0.36,-1.297 -0.96,-1.937 -1.59,-1.937 -0.16,0 -0.41,0.015 -0.41,0.531 0,0.391 0.18,0.875 0.27,1.094 0.33,0.875 0.98,2.656 0.98,3.562 0,0.953 -0.54,1.672 -1.76,1.672 -1.41,0 -2.16,-1 -2.44,-1.406 -0.05,0.906 -0.7,1.406 -1.41,1.406 -0.5,0 -0.85,-0.312 -1.12,-0.844 -0.28,-0.578 -0.52,-1.531 -0.52,-1.593 0,-0.063 0.08,-0.141 0.19,-0.141 0.13,0 0.14,0.016 0.24,0.375 0.25,0.969 0.53,1.875 1.17,1.875 0.37,0 0.5,-0.25 0.5,-0.734 0,-0.344 -0.16,-0.969 -0.28,-1.454 l -0.44,-1.718 c -0.06,-0.297 -0.24,-1.016 -0.31,-1.297 -0.13,-0.422 -0.3,-1.172 -0.3,-1.25 0,-0.219 0.17,-0.391 0.42,-0.391 0.19,0 0.41,0.094 0.53,0.328 0.03,0.078 0.19,0.641 0.27,0.953 l 0.34,1.438 z"
   id="path45"
   inkscape:connector-curvature="0"
   style="fill:#000000;stroke-width:0" />
<path
   d="m 299.88,57.137 0.04,0 0.04,0 0.05,0.002 0.02,10e-4 0.02,10e-4 0.02,0.002 0.02,0.002 0.02,0.003 0.02,0.004 0.02,0.004 0.02,0.004 0.02,0.006 0.02,0.006 0.02,0.007 0.02,0.008 0.01,0.009 0.02,0.009 0.01,0.011 0.02,0.012 0.01,0.013 0.01,0.014 0.01,0.008 0,0.008 0.01,0.008 0,0.009 0.01,0.008 0,0.01 0,0.009 0.01,0.01 0,0.01 0,0.011 0,0.011 0.01,0.011 0,0.012 0,0.012 0,0.013 0,0.013 c 0,0.297 -0.27,0.297 -0.5,0.297 h -9.38 c -0.21,0 -0.5,0 -0.5,-0.281 0,-0.297 0.27,-0.297 0.5,-0.297 z"
   id="path47"
   inkscape:connector-curvature="0"
   style="fill:#000000;stroke-width:0" />
<path
   d="m 299.88,54.168 0.04,0 0.04,10e-4 0.05,0.001 0.02,10e-4 0.02,0.002 0.02,0.002 0.02,0.002 0.02,0.003 0.02,0.004 0.02,0.004 0.02,0.005 0.02,0.006 0.02,0.006 0.02,0.007 0.02,0.009 0.01,0.009 0.02,0.01 0.01,0.012 0.02,0.012 0.01,0.014 0.01,0.015 0.01,0.008 0,0.009 0.01,0.008 0,0.009 0.01,0.01 0,0.009 0,0.01 0.01,0.011 0,0.011 0,0.011 0,0.012 0.01,0.012 0,0.012 0,0.013 0,0.013 0,0.014 c 0,0.297 -0.27,0.297 -0.5,0.297 h -9.38 c -0.21,0 -0.5,0 -0.5,-0.282 0,-0.312 0.27,-0.312 0.5,-0.312 z"
   id="path49"
   inkscape:connector-curvature="0"
   style="fill:#000000;stroke-width:0" />
<path
   d="m 312.84,57.074 0,0.246 0,0.245 -0.01,0.244 -0.01,0.243 -0.02,0.243 -0.02,0.241 -0.02,0.24 -0.03,0.24 -0.04,0.238 -0.04,0.237 -0.06,0.236 -0.06,0.234 -0.07,0.234 -0.08,0.232 -0.09,0.23 -0.05,0.115 -0.06,0.115 c -0.65,1.312 -1.79,1.656 -2.57,1.656 -0.93,0 -2.05,-0.453 -2.65,-1.766 -0.43,-1.015 -0.59,-2 -0.59,-3.703 0,-1.547 0.11,-2.703 0.67,-3.844 0.63,-1.203 1.72,-1.578 2.55,-1.578 v 0.313 c -0.5,0 -1.53,0.281 -1.84,2.015 -0.18,0.954 -0.18,2.172 -0.18,3.282 0,1.297 0,2.468 0.25,3.406 0.29,1.078 1.08,1.562 1.77,1.562 0.61,0 1.53,-0.359 1.83,-1.734 0.2,-0.906 0.2,-2.156 0.2,-3.234 0,-1.063 0,-2.282 -0.17,-3.25 -0.3,-1.75 -1.3,-2.047 -1.86,-2.047 h 0 v -0.313 c 1.39,0 2.19,0.828 2.64,1.75 0.58,1.188 0.61,2.75 0.61,3.672 z"
   id="path51"
   inkscape:connector-curvature="0"
   style="fill:#000000;stroke-width:0" />
<path
   d="m 84.891,39.215 0,0.016 0,0.016 0,0.016 0,0.015 -0.001,0.015 0,0.014 0,0.014 0,0.013 0,0.013 -0.001,0.012 0,0.012 0,0.012 -10e-4,0.011 -0.001,0.011 0,0.01 -0.001,0.01 -10e-4,0.01 -0.001,0.009 -0.002,0.009 -0.001,0.008 -0.001,0.008 -0.002,0.008 -0.002,0.007 -0.002,0.007 -0.004,0.014 -0.006,0.012 -0.006,0.01 -0.006,0.01 -0.008,0.009 -0.009,0.007 -0.01,0.007 -0.011,0.006 -0.012,0.005 -0.013,0.004 -0.014,0.004 -0.008,10e-4 -0.008,0.002 -0.009,10e-4 -0.008,0.001 -0.01,10e-4 -0.009,10e-4 -0.01,0.001 -0.01,0 -0.011,10e-4 -0.011,0 -0.011,10e-4 -0.012,0 -0.012,0 -0.013,0.001 -0.013,0 -0.014,0 -0.013,0 -0.015,0 c -0.39,-0.422 -1.187,-1.016 -2.812,-1.016 v -0.453 c 0.359,0 1.156,0 2.031,0.406 v -8.281 c 0,-0.562 -0.047,-0.766 -1.453,-0.766 h -0.485 v -0.453 c 0.422,0.032 1.969,0.032 2.485,0.032 0.531,0 2.062,0 2.484,-0.032 v 0.453 h -0.484 c -1.406,0 -1.453,0.204 -1.453,0.766 z"
   id="path53"
   inkscape:connector-curvature="0"
   style="fill:#000000;stroke-width:0" />
<path
   d="m 263.86,38.824 0,0.038 0,0.038 -0.01,0.037 0,0.037 -0.01,0.036 -0.01,0.036 -0.01,0.035 -0.02,0.034 -0.01,0.034 -0.02,0.033 -0.02,0.032 -0.01,0.031 -0.03,0.03 -0.02,0.029 -0.02,0.028 -0.03,0.027 -0.02,0.026 -0.03,0.025 -0.03,0.023 -0.03,0.022 -0.03,0.02 -0.04,0.019 -0.03,0.017 -0.03,0.016 -0.04,0.014 -0.04,0.013 -0.04,0.011 -0.03,0.009 -0.04,0.007 -0.04,0.005 -0.05,0.003 -0.04,0.001 c -0.4,0 -0.76,-0.328 -0.76,-0.75 0,-0.485 0.39,-0.781 0.76,-0.781 0.5,0 0.78,0.406 0.78,0.765 z"
   id="path55"
   inkscape:connector-curvature="0"
   style="fill:#000000;stroke-width:0" />
<path
   d="m 261.68,35.855 v -0.453 c 1.01,0 1.15,-0.093 1.15,-0.875 v -4.328 c 0,-0.719 -0.17,-0.719 -1.2,-0.719 v -0.453 c 0.44,0.032 1.2,0.032 1.66,0.032 0.18,0 1.1,0 1.64,-0.032 v 0.453 c -1.04,0 -1.1,0.094 -1.1,0.704 v 5.859 z"
   id="path57"
   inkscape:connector-curvature="0"
   style="fill:#000000;stroke-width:0" />
<path
   d="m 268.16,35.418 h 1.8 v 0.453 h -1.83 v 1.859 c 0,1.438 0.74,2.172 1.38,2.172 0.14,0 0.37,-0.031 0.56,-0.125 -0.06,-0.015 -0.45,-0.172 -0.45,-0.625 0,-0.359 0.25,-0.625 0.61,-0.625 0.39,0 0.64,0.266 0.64,0.641 0,0.594 -0.58,1.047 -1.35,1.047 -1.11,0 -2.36,-0.86 -2.36,-2.485 v -1.859 h -1.23 v -0.453 h 1.23 v -5.219 c 0,-0.719 -0.17,-0.719 -1.2,-0.719 v -0.453 c 0.44,0.032 1.31,0.032 1.8,0.032 0.42,0 1.54,0 1.92,-0.032 v 0.453 h -0.33 c -1.15,0 -1.19,0.188 -1.19,0.75 z"
   id="path59"
   inkscape:connector-curvature="0"
   style="fill:#000000;stroke-width:0" />
<path
   d="m 278.68,33.684 0.01,0.01 0,0.015 0.01,0.019 0.01,0.022 0.01,0.025 0.02,0.029 0.01,0.032 0.02,0.034 0.02,0.038 0.02,0.039 0.03,0.043 0.02,0.044 0.03,0.046 0.03,0.048 0.03,0.05 0.03,0.05 0.03,0.053 0.04,0.053 0.04,0.054 0.03,0.055 0.05,0.055 0.04,0.056 0.04,0.056 0.04,0.056 0.05,0.055 0.05,0.056 0.05,0.054 0.05,0.054 0.05,0.053 0.05,0.052 0.05,0.051 0.06,0.049 c 0.41,0.375 0.95,0.625 1.56,0.625 0.64,0 0.86,-0.469 0.86,-1.11 0,-0.906 -0.64,-2.718 -0.97,-3.578 -0.14,-0.375 -0.22,-0.578 -0.22,-0.875 0,-0.718 0.5,-1.281 1.25,-1.281 1.49,0 2.05,2.328 2.05,2.422 0,0.094 -0.08,0.156 -0.17,0.156 -0.14,0 -0.16,-0.047 -0.24,-0.328 -0.36,-1.297 -0.96,-1.937 -1.59,-1.937 -0.16,0 -0.41,0.015 -0.41,0.531 0,0.39 0.18,0.875 0.27,1.094 0.33,0.875 0.98,2.656 0.98,3.562 0,0.953 -0.54,1.672 -1.76,1.672 -1.41,0 -2.16,-1 -2.44,-1.406 -0.05,0.906 -0.7,1.406 -1.41,1.406 -0.5,0 -0.85,-0.313 -1.12,-0.844 -0.28,-0.578 -0.52,-1.531 -0.52,-1.594 0,-0.062 0.08,-0.14 0.19,-0.14 0.13,0 0.14,0.015 0.24,0.375 0.25,0.969 0.53,1.875 1.17,1.875 0.37,0 0.5,-0.25 0.5,-0.735 0,-0.343 -0.16,-0.968 -0.28,-1.453 l -0.44,-1.718 c -0.06,-0.297 -0.24,-1.016 -0.31,-1.297 -0.13,-0.422 -0.3,-1.172 -0.3,-1.25 0,-0.219 0.17,-0.391 0.42,-0.391 0.19,0 0.41,0.094 0.53,0.328 0.03,0.078 0.19,0.641 0.27,0.953 l 0.34,1.438 z"
   id="path61"
   inkscape:connector-curvature="0"
   style="fill:#000000;stroke-width:0" />
<path
   d="m 299.88,34.184 0.04,0 0.04,0 0.05,0.001 0.02,0.002 0.02,0.001 0.02,0.002 0.02,0.002 0.02,0.003 0.02,0.003 0.02,0.004 0.02,0.005 0.02,0.006 0.02,0.006 0.02,0.007 0.02,0.008 0.01,0.008 0.02,0.01 0.01,0.011 0.02,0.012 0.01,0.013 0.01,0.014 0.01,0.008 0,0.008 0.01,0.008 0,0.008 0.01,0.009 0,0.01 0,0.009 0.01,0.01 0,0.01 0,0.011 0,0.011 0.01,0.011 0,0.012 0,0.012 0,0.013 0,0.013 c 0,0.297 -0.27,0.297 -0.5,0.297 h -9.38 c -0.21,0 -0.5,0 -0.5,-0.282 0,-0.296 0.27,-0.296 0.5,-0.296 z"
   id="path63"
   inkscape:connector-curvature="0"
   style="fill:#000000;stroke-width:0" />
<path
   d="m 299.88,31.215 0.04,0 0.04,0 0.05,0.002 0.02,0.001 0.02,0.001 0.02,0.002 0.02,0.003 0.02,0.003 0.02,0.003 0.02,0.005 0.02,0.005 0.02,0.005 0.02,0.007 0.02,0.007 0.02,0.009 0.01,0.009 0.02,0.01 0.01,0.012 0.02,0.012 0.01,0.014 0.01,0.015 0.01,0.008 0,0.008 0.01,0.009 0,0.009 0.01,0.009 0,0.01 0,0.01 0.01,0.011 0,0.011 0,0.011 0,0.011 0.01,0.012 0,0.013 0,0.013 0,0.013 0,0.014 c 0,0.297 -0.27,0.297 -0.5,0.297 h -9.38 c -0.21,0 -0.5,0 -0.5,-0.282 0,-0.312 0.27,-0.312 0.5,-0.312 z"
   id="path65"
   inkscape:connector-curvature="0"
   style="fill:#000000;stroke-width:0" />
<path
   d="m 310.29,39.215 0,0.016 0,0.016 0,0.016 0,0.015 0,0.015 0,0.014 0,0.014 0,0.013 0,0.013 0,0.012 0,0.012 0,0.012 0,0.011 0,0.011 0,0.01 0,0.01 0,0.01 0,0.009 -0.01,0.009 0,0.008 0,0.008 0,0.008 0,0.007 0,0.007 -0.01,0.014 0,0.012 -0.01,0.01 -0.01,0.01 0,0.009 -0.01,0.007 -0.01,0.007 -0.01,0.006 -0.02,0.005 -0.01,0.004 -0.01,0.004 -0.01,10e-4 -0.01,0.002 -0.01,10e-4 -0.01,0.001 -0.01,10e-4 0,10e-4 -0.01,0.001 -0.02,0 -0.01,10e-4 -0.01,0 -0.01,10e-4 -0.01,0 -0.01,0 -0.01,0.001 -0.02,0 -0.01,0 -0.02,0 -0.01,0 c -0.39,-0.422 -1.19,-1.016 -2.81,-1.016 v -0.453 c 0.36,0 1.15,0 2.03,0.406 v -8.281 c 0,-0.562 -0.05,-0.766 -1.45,-0.766 h -0.49 v -0.453 c 0.42,0.032 1.97,0.032 2.49,0.032 0.53,0 2.06,0 2.48,-0.032 v 0.453 h -0.48 c -1.41,0 -1.46,0.204 -1.46,0.766 z"
   id="path67"
   inkscape:connector-curvature="0"
   style="fill:#000000;stroke-width:0" />
<path
   d="m 85.031,11.262 h 1.531 c 1.204,0 1.297,-0.281 1.297,-0.735 0,-0.203 -0.031,-0.437 -0.109,-0.7809 -0.031,-0.0625 -0.047,-0.1406 -0.047,-0.1719 0,-0.1094 0.063,-0.1719 0.172,-0.1719 0.125,0 0.141,0.0625 0.203,0.3125 L 89,13.418 c 0,0.063 -0.047,0.156 -0.156,0.156 -0.141,0 -0.156,-0.062 -0.219,-0.328 -0.328,-1.203 -0.656,-1.531 -2.031,-1.531 h -1.453 l 1.031,4.125 c 0.156,0.547 0.187,0.594 0.828,0.594 h 2.141 c 1.984,0 2.265,-0.578 2.265,-1.719 0,-0.094 0,-0.438 -0.047,-0.859 -0.015,-0.063 -0.047,-0.266 -0.047,-0.329 0,-0.125 0.079,-0.171 0.172,-0.171 0.11,0 0.172,0.062 0.204,0.343 l 0.343,2.781 c 0,0.047 0.031,0.204 0.031,0.25 0,0.172 -0.14,0.172 -0.437,0.172 h -7.531 c -0.297,0 -0.453,0 -0.453,-0.297 0,-0.171 0.109,-0.171 0.375,-0.171 C 85,16.434 85,16.324 85,16.152 85,16.074 84.984,16.012 84.938,15.84 L 82.797,7.2461 C 82.656,6.6992 82.609,6.5273 81.5,6.5273 c -0.297,0 -0.453,0 -0.453,-0.2812 0,-0.1719 0.141,-0.1719 0.234,-0.1719 0.297,0 0.625,0.0313 0.922,0.0313 h 2.063 c 0.359,0 0.734,-0.0313 1.078,-0.0313 0.156,0 0.344,0 0.344,0.2813 0,0.1718 -0.094,0.1718 -0.454,0.1718 -1.25,0 -1.281,0.125 -1.281,0.3594 0,0.0781 0.031,0.2031 0.063,0.3125 z"
   id="path69"
   inkscape:connector-curvature="0"
   style="fill:#000000;stroke-width:0" />
<path
   d="m 97.082,8.3398 0,0.0087 -10e-4,0.0085 -0.001,0.0084 -0.001,0.0081 -10e-4,0.0079 -0.002,0.0077 -0.003,0.0075 -0.002,0.0072 -0.003,0.007 -0.003,0.0068 -0.004,0.0066 -0.004,0.0063 -0.004,0.006 -0.004,0.0058 -0.005,0.0056 -0.005,0.0052 -0.005,0.005 -0.006,0.0047 -0.006,0.0044 -0.006,0.0042 -0.006,0.0038 -0.006,0.0035 -0.007,0.0033 -0.007,0.0029 -0.008,0.0025 -0.007,0.0023 -0.008,0.0019 -0.008,0.0016 -0.008,0.0013 -0.008,9e-4 -0.009,5e-4 -0.008,2e-4 c -0.141,0 -0.156,-0.0469 -0.25,-0.3281 -0.406,-1.4375 -1.063,-1.9375 -1.578,-1.9375 -0.188,0 -0.422,0.0468 -0.422,0.5312 0,0.4219 0.187,0.9063 0.375,1.375 L 96.16,11.09 c 0.047,0.141 0.156,0.422 0.156,0.719 0,0.672 -0.468,1.281 -1.25,1.281 -1.468,0 -2.062,-2.313 -2.062,-2.438 0,-0.062 0.078,-0.14 0.187,-0.14 0.141,0 0.157,0.062 0.219,0.281 0.375,1.344 0.985,1.969 1.61,1.969 0.14,0 0.406,-0.016 0.406,-0.516 0,-0.422 -0.203,-0.937 -0.328,-1.297 l -1.11,-2.9529 c -0.109,-0.25 -0.203,-0.5 -0.203,-0.7969 0,-0.7187 0.5,-1.2812 1.266,-1.2812 1.453,0 2.031,2.3125 2.031,2.4218 z"
   id="path71"
   inkscape:connector-curvature="0"
   style="fill:#000000;stroke-width:0" />
<path
   d="m 96.957,15.996 -10e-4,0.022 -0.001,0.023 -0.003,0.022 -0.004,0.023 -0.005,0.022 -0.006,0.023 -0.007,0.022 -0.008,0.023 -0.009,0.022 -0.01,0.022 -0.012,0.021 -0.012,0.021 -0.014,0.021 -0.014,0.02 -0.016,0.02 -0.017,0.019 -0.017,0.018 -0.019,0.018 -0.02,0.016 -0.021,0.016 -0.022,0.015 -0.023,0.014 -0.024,0.013 -0.025,0.012 -0.026,0.011 -0.027,0.009 -0.028,0.008 -0.029,0.007 -0.03,0.006 -0.031,0.003 -0.033,0.003 -0.033,0.001 c -0.359,0 -0.781,-0.344 -0.781,-0.766 0,-0.39 0.344,-0.515 0.531,-0.515 0.422,0 0.797,0.406 0.797,0.765 z"
   id="path73"
   inkscape:connector-curvature="0"
   style="fill:#000000;stroke-width:0" />
<path
   d="m 101.57,16.715 0.01,0.006 0,0.006 0,0.006 0,0.007 0,0.013 0.01,0.014 0,0.014 0.01,0.015 0,0.015 0,0.015 0.01,0.016 0,0.015 0,0.016 0.01,0.015 0,0.016 0,0.015 0,0.008 0,0.007 0,0.008 0,0.007 c 0,0.156 -0.16,0.156 -0.19,0.156 -0.01,0 -0.59,-0.046 -0.87,-0.078 -0.27,-0.015 -0.52,-0.047 -0.798,-0.062 -0.375,-0.031 -0.5,-0.047 -0.5,-0.344 0,-0.156 0.172,-0.156 0.328,-0.156 0.81,0 0.81,-0.141 0.81,-0.297 0,-0.109 -0.12,-0.578 -0.2,-0.859 L 99.824,13.777 C 99.668,13.152 98.762,9.543 98.699,9.2461 98.621,8.8555 98.621,8.5898 98.621,8.3711 c 0,-1.6094 0.906,-2.4531 1.939,-2.4531 l 0.01,0.3125 c -0.51,0 -1.058,0.3906 -1.058,1.625 0,0.5156 0.047,0.8281 0.328,1.9375 0.047,0.2031 0.3,1.219 0.36,1.438 0.05,0.125 0.98,1.531 2.06,1.531 0.69,0 1.02,-0.703 1.02,-1.516 0,-0.765 -0.46,-2.5624 -0.85,-3.3905 -0.4,-0.8594 -1.12,-1.625 -1.86,-1.625 h 0 L 100.56,5.918 c 1.84,0 3.75,2.3593 3.75,4.672 0,1.453 -0.83,2.5 -2.02,2.5 -0.83,0 -1.58,-0.688 -1.87,-1 z"
   id="path75"
   inkscape:connector-curvature="0"
   style="fill:#000000;stroke-width:0" />
<path
   d="m 109.71,2.2148 0,0.0087 0,0.0087 0,0.0044 0,0.0046 0,0.0048 0,0.005 0,0.0052 0,0.0056 -0.01,0.006 0,0.0064 0,0.0068 -0.01,0.0073 0,0.0079 -0.01,0.0085 -0.01,0.0091 -0.01,0.0098 0,0.0105 -0.01,0.0114 -0.01,0.0059 0,0.0062 -0.01,0.0064 -0.01,0.0066 0,0.0068 -0.01,0.0071 -0.01,0.0073 0,0.0076 -0.01,0.0078 -0.01,0.0081 -0.01,0.0083 -0.01,0.0086 0,0.0089 -0.01,0.0092 -0.01,0.0094 -0.01,0.0098 -0.01,0.01 -0.01,0.0104 -0.02,0.0106 -0.01,0.011 -0.01,0.0113 -0.01,0.0116 -0.01,0.0119 -0.02,0.0123 c -1.57,1.6094 -2.47,4.2344 -2.47,7.4684 0,3.094 0.74,5.735 2.58,7.625 0.17,0.141 0.17,0.172 0.17,0.219 0,0.094 -0.07,0.125 -0.15,0.125 -0.2,0 -1.5,-1.141 -2.28,-2.703 -0.82,-1.609 -1.17,-3.312 -1.17,-5.266 0,-1.4059 0.21,-3.2965 1.04,-4.9997 0.94,-1.9062 2.24,-2.9375 2.41,-2.9375 0.08,0 0.15,0.0313 0.15,0.125 z"
   id="path77"
   inkscape:connector-curvature="0"
   style="fill:#000000;stroke-width:0" />
<path
   d="m 113.89,10.731 0.01,0.01 0,0.015 0.01,0.019 0.01,0.022 0.02,0.025 0.01,0.029 0.02,0.032 0.01,0.034 0.02,0.038 0.02,0.039 0.03,0.042 0.02,0.045 0.03,0.046 0.03,0.048 0.03,0.049 0.03,0.051 0.04,0.053 0.03,0.053 0.04,0.054 0.04,0.055 0.04,0.055 0.04,0.056 0.04,0.056 0.05,0.056 0.04,0.055 0.05,0.055 0.05,0.055 0.05,0.054 0.05,0.053 0.05,0.052 0.05,0.051 0.06,0.049 c 0.41,0.375 0.95,0.625 1.56,0.625 0.64,0 0.86,-0.469 0.86,-1.11 0,-0.906 -0.64,-2.7184 -0.97,-3.5778 -0.14,-0.375 -0.22,-0.5781 -0.22,-0.875 0,-0.7187 0.5,-1.2812 1.25,-1.2812 1.49,0 2.05,2.3281 2.05,2.4218 0,0.0938 -0.08,0.1563 -0.17,0.1563 -0.14,0 -0.16,-0.0469 -0.23,-0.3281 -0.36,-1.2969 -0.97,-1.9375 -1.6,-1.9375 -0.15,0 -0.4,0.0156 -0.4,0.5312 0,0.3906 0.17,0.875 0.26,1.0938 0.33,0.875 0.99,2.6565 0.99,3.5625 0,0.953 -0.55,1.672 -1.77,1.672 -1.41,0 -2.16,-1 -2.44,-1.406 -0.04,0.906 -0.7,1.406 -1.4,1.406 -0.5,0 -0.86,-0.313 -1.13,-0.844 -0.28,-0.578 -0.51,-1.531 -0.51,-1.594 0,-0.062 0.07,-0.14 0.18,-0.14 0.13,0 0.14,0.015 0.24,0.375 0.25,0.969 0.53,1.875 1.17,1.875 0.37,0 0.5,-0.25 0.5,-0.735 0,-0.343 -0.16,-0.968 -0.28,-1.453 l -0.44,-1.7185 c -0.06,-0.2969 -0.23,-1.0157 -0.31,-1.2969 -0.13,-0.4219 -0.3,-1.1719 -0.3,-1.25 0,-0.2188 0.17,-0.3906 0.42,-0.3906 0.19,0 0.41,0.0937 0.53,0.3281 0.04,0.0781 0.19,0.6406 0.27,0.9531 l 0.34,1.4375 z"
   id="path79"
   inkscape:connector-curvature="0"
   style="fill:#000000;stroke-width:0" />
<path
   d="m 133.94,9.7305 0.05,0 0.06,6e-4 0.05,0.0014 0.02,0.0012 0.03,0.0017 0.02,0.002 0.03,0.0026 0.02,0.0032 0.02,0.0038 0.03,0.0044 0.02,0.0052 0.02,0.0061 0.02,0.0068 0.02,0.0078 0.02,0.0088 0.01,0.0098 0.02,0.0109 0.02,0.012 0.01,0.0132 0.01,0.0145 0.02,0.0158 0.01,0.0172 0,0.0091 0.01,0.0095 0,0.0099 0,0.0102 0.01,0.0106 0,0.011 0,0.0115 0.01,0.0118 0,0.0122 0,0.0127 0,0.013 0,0.014 0,0.014 0,0.014 c 0,0.328 -0.28,0.328 -0.56,0.328 h -8.59 c -0.27,0 -0.56,0 -0.56,-0.328 0,-0.3125 0.29,-0.3125 0.56,-0.3125 z"
   id="path81"
   inkscape:connector-curvature="0"
   style="fill:#000000;stroke-width:0" />
<path
   d="m 143.99,16.262 0,0.016 0,0.016 0,0.016 0,0.015 0,0.015 0,0.014 0,0.014 0,0.013 0,0.013 0,0.012 0,0.012 0,0.012 0,0.011 -0.01,0.011 0,0.01 0,0.01 0,0.009 0,0.01 0,0.008 0,0.009 0,0.008 0,0.008 -0.01,0.007 0,0.007 0,0.007 0,0.007 -0.01,0.011 0,0.011 -0.01,0.01 -0.01,0.009 -0.01,0.007 -0.01,0.007 -0.01,0.006 -0.01,0.005 -0.01,0.004 -0.02,0.004 -0.01,10e-4 0,0.002 -0.01,10e-4 -0.01,0.001 -0.01,0.001 -0.01,10e-4 -0.01,0.001 -0.01,0 -0.01,0.001 -0.01,0 -0.01,10e-4 -0.01,0 -0.02,0 -0.01,0 -0.01,0.001 -0.02,0 -0.01,0 -0.01,0 c -0.39,-0.422 -1.19,-1.016 -2.82,-1.016 v -0.453 c 0.36,0 1.16,0 2.04,0.406 V 7.293 c 0,-0.5625 -0.05,-0.7657 -1.46,-0.7657 h -0.48 V 6.0742 c 0.42,0.0313 1.97,0.0313 2.48,0.0313 0.53,0 2.06,0 2.49,-0.0313 v 0.4531 h -0.49 c -1.4,0 -1.45,0.2032 -1.45,0.7657 z"
   id="path83"
   inkscape:connector-curvature="0"
   style="fill:#000000;stroke-width:0" />
<path
   d="m 151.7,10.027 0,0.117 0,0.12 -0.01,0.125 0,0.129 0,0.132 -0.01,0.136 -0.02,0.282 -0.02,0.295 -0.04,0.306 -0.04,0.315 -0.05,0.325 -0.06,0.331 -0.08,0.338 -0.08,0.342 -0.1,0.346 -0.11,0.348 -0.06,0.175 -0.07,0.174 -0.07,0.174 -0.07,0.175 -0.08,0.173 -0.08,0.174 c -0.94,1.906 -2.25,2.937 -2.42,2.937 -0.06,0 -0.14,-0.031 -0.14,-0.125 0,-0.047 0,-0.078 0.26,-0.359 1.6,-1.594 2.49,-4.219 2.49,-7.469 0,-3.0782 -0.75,-5.7344 -2.59,-7.6094 -0.16,-0.1406 -0.16,-0.1719 -0.16,-0.2188 0,-0.0937 0.08,-0.125 0.14,-0.125 0.2,0 1.52,1.1407 2.3,2.7032 0.79,1.6093 1.17,3.3281 1.17,5.234 z"
   id="path85"
   inkscape:connector-curvature="0"
   style="fill:#000000;stroke-width:0" />
<path
   d="m 163.16,9.7461 h 4.39 c 0.22,0 0.5,0 0.5,0.2809 0,0.313 -0.26,0.313 -0.5,0.313 h -4.39 v 4.375 c 0,0.234 0,0.516 -0.28,0.516 -0.31,0 -0.31,-0.266 -0.31,-0.516 V 10.34 h -4.39 c -0.22,0 -0.5,0 -0.5,-0.297 0,-0.2969 0.27,-0.2969 0.5,-0.2969 h 4.39 V 5.3555 c 0,-0.2188 0,-0.5 0.3,-0.5 0.29,0 0.29,0.2656 0.29,0.5 z"
   id="path87"
   inkscape:connector-curvature="0"
   style="fill:#000000;stroke-width:0" />
<path
   d="m 177.23,11.262 h 1.53 c 1.2,0 1.29,-0.281 1.29,-0.735 0,-0.203 -0.03,-0.437 -0.1,-0.7809 -0.04,-0.0625 -0.05,-0.1406 -0.05,-0.1719 0,-0.1094 0.06,-0.1719 0.17,-0.1719 0.13,0 0.14,0.0625 0.2,0.3125 l 0.93,3.7032 c 0,0.063 -0.05,0.156 -0.16,0.156 -0.14,0 -0.16,-0.062 -0.22,-0.328 -0.33,-1.203 -0.66,-1.531 -2.03,-1.531 h -1.45 l 1.03,4.125 c 0.15,0.547 0.18,0.594 0.83,0.594 h 2.14 c 1.98,0 2.26,-0.578 2.26,-1.719 0,-0.094 0,-0.438 -0.05,-0.859 -0.01,-0.063 -0.04,-0.266 -0.04,-0.329 0,-0.125 0.08,-0.171 0.17,-0.171 0.11,0 0.17,0.062 0.2,0.343 l 0.35,2.781 c 0,0.047 0.03,0.204 0.03,0.25 0,0.172 -0.14,0.172 -0.44,0.172 h -7.53 c -0.3,0 -0.45,0 -0.45,-0.297 0,-0.171 0.11,-0.171 0.37,-0.171 0.99,0 0.99,-0.11 0.99,-0.282 0,-0.078 -0.02,-0.14 -0.07,-0.312 l -2.14,-8.5939 c -0.14,-0.5469 -0.19,-0.7188 -1.29,-0.7188 -0.3,0 -0.46,0 -0.46,-0.2812 0,-0.1719 0.14,-0.1719 0.24,-0.1719 0.29,0 0.62,0.0313 0.92,0.0313 h 2.06 c 0.36,0 0.74,-0.0313 1.08,-0.0313 0.16,0 0.34,0 0.34,0.2813 0,0.1718 -0.09,0.1718 -0.45,0.1718 -1.25,0 -1.28,0.125 -1.28,0.3594 0,0.0781 0.03,0.2031 0.06,0.3125 z"
   id="path89"
   inkscape:connector-curvature="0"
   style="fill:#000000;stroke-width:0" />
<path
   d="m 189.28,8.3398 0,0.0087 0,0.0085 0,0.0084 0,0.0081 0,0.0079 -0.01,0.0077 0,0.0075 0,0.0072 0,0.007 -0.01,0.0068 0,0.0066 0,0.0063 -0.01,0.006 0,0.0058 -0.01,0.0056 0,0.0052 -0.01,0.005 0,0.0047 -0.01,0.0044 0,0.0042 -0.01,0.0038 -0.01,0.0035 0,0.0033 -0.01,0.0029 -0.01,0.0025 -0.01,0.0023 0,0.0019 -0.01,0.0016 -0.01,0.0013 -0.01,9e-4 -0.01,5e-4 -0.01,2e-4 c -0.14,0 -0.15,-0.0469 -0.24,-0.3281 -0.41,-1.4375 -1.07,-1.9375 -1.58,-1.9375 -0.19,0 -0.42,0.0468 -0.42,0.5312 0,0.4219 0.18,0.9063 0.37,1.375 l 1.11,2.9533 c 0.05,0.141 0.16,0.422 0.16,0.719 0,0.672 -0.47,1.281 -1.25,1.281 -1.47,0 -2.07,-2.313 -2.07,-2.438 0,-0.062 0.08,-0.14 0.19,-0.14 0.14,0 0.16,0.062 0.22,0.281 0.37,1.344 0.98,1.969 1.61,1.969 0.14,0 0.4,-0.016 0.4,-0.516 0,-0.422 -0.2,-0.937 -0.32,-1.297 l -1.11,-2.9529 c -0.11,-0.25 -0.21,-0.5 -0.21,-0.7969 0,-0.7187 0.5,-1.2812 1.27,-1.2812 1.45,0 2.03,2.3125 2.03,2.4218 z"
   id="path91"
   inkscape:connector-curvature="0"
   style="fill:#000000;stroke-width:0" />
<path
   d="m 189.16,15.996 0,0.022 -0.01,0.023 0,0.022 0,0.023 -0.01,0.022 0,0.023 -0.01,0.022 -0.01,0.023 -0.01,0.022 -0.01,0.022 -0.01,0.021 -0.01,0.021 -0.02,0.021 -0.01,0.02 -0.02,0.02 -0.01,0.019 -0.02,0.018 -0.02,0.018 -0.02,0.016 -0.02,0.016 -0.02,0.015 -0.02,0.014 -0.03,0.013 -0.02,0.012 -0.03,0.011 -0.03,0.009 -0.02,0.008 -0.03,0.007 -0.03,0.006 -0.04,0.003 -0.03,0.003 -0.03,0.001 c -0.36,0 -0.78,-0.344 -0.78,-0.766 0,-0.39 0.34,-0.515 0.53,-0.515 0.42,0 0.8,0.406 0.8,0.765 z"
   id="path93"
   inkscape:connector-curvature="0"
   style="fill:#000000;stroke-width:0" />
<path
   d="m 193.77,16.715 0,0.006 0.01,0.006 0,0.006 0,0.007 0,0.013 0.01,0.014 0,0.014 0,0.015 0.01,0.015 0,0.015 0.01,0.016 0,0.015 0,0.016 0,0.015 0.01,0.016 0,0.015 0,0.008 0,0.007 0,0.008 0,0.007 c 0,0.156 -0.16,0.156 -0.19,0.156 -0.01,0 -0.59,-0.046 -0.87,-0.078 -0.27,-0.015 -0.52,-0.047 -0.8,-0.062 -0.37,-0.031 -0.5,-0.047 -0.5,-0.344 0,-0.156 0.17,-0.156 0.33,-0.156 0.81,0 0.81,-0.141 0.81,-0.297 0,-0.109 -0.12,-0.578 -0.2,-0.859 l -0.38,-1.532 c -0.15,-0.625 -1.06,-4.234 -1.12,-4.5309 -0.08,-0.3906 -0.08,-0.6563 -0.08,-0.875 0,-1.6094 0.91,-2.4531 1.94,-2.4531 l 0.01,0.3125 c -0.51,0 -1.06,0.3906 -1.06,1.625 0,0.5156 0.05,0.8281 0.33,1.9375 0.05,0.2031 0.3,1.219 0.36,1.438 0.05,0.125 0.98,1.531 2.06,1.531 0.69,0 1.02,-0.703 1.02,-1.516 0,-0.765 -0.46,-2.5624 -0.85,-3.3905 -0.4,-0.8594 -1.12,-1.625 -1.86,-1.625 h 0 L 192.76,5.918 c 1.84,0 3.75,2.3593 3.75,4.672 0,1.453 -0.83,2.5 -2.02,2.5 -0.83,0 -1.58,-0.688 -1.87,-1 z"
   id="path95"
   inkscape:connector-curvature="0"
   style="fill:#000000;stroke-width:0" />
<path
   d="m 201.91,2.2148 0,0.0087 0,0.0087 0,0.0044 0,0.0046 0,0.0048 0,0.005 0,0.0052 0,0.0056 -0.01,0.006 0,0.0064 0,0.0068 -0.01,0.0073 0,0.0079 -0.01,0.0085 -0.01,0.0091 -0.01,0.0098 0,0.0105 -0.01,0.0114 -0.01,0.0059 -0.01,0.0062 0,0.0064 -0.01,0.0066 0,0.0068 -0.01,0.0071 -0.01,0.0073 0,0.0076 -0.01,0.0078 -0.01,0.0081 -0.01,0.0083 -0.01,0.0086 -0.01,0.0089 0,0.0092 -0.01,0.0094 -0.01,0.0098 -0.01,0.01 -0.02,0.0104 -0.01,0.0106 -0.01,0.011 -0.01,0.0113 -0.01,0.0116 -0.01,0.0119 -0.02,0.0123 c -1.58,1.6094 -2.47,4.2344 -2.47,7.4684 0,3.094 0.74,5.735 2.58,7.625 0.17,0.141 0.17,0.172 0.17,0.219 0,0.094 -0.07,0.125 -0.15,0.125 -0.21,0 -1.5,-1.141 -2.28,-2.703 -0.82,-1.609 -1.18,-3.312 -1.18,-5.266 0,-1.4059 0.22,-3.2965 1.05,-4.9997 0.94,-1.9062 2.24,-2.9375 2.41,-2.9375 0.08,0 0.15,0.0313 0.15,0.125 z"
   id="path97"
   inkscape:connector-curvature="0"
   style="fill:#000000;stroke-width:0" />
<path
   d="m 206.09,10.731 0.01,0.01 0,0.015 0.01,0.019 0.01,0.022 0.01,0.025 0.02,0.029 0.01,0.032 0.02,0.034 0.02,0.038 0.02,0.039 0.03,0.042 0.02,0.045 0.03,0.046 0.03,0.048 0.03,0.049 0.03,0.051 0.03,0.053 0.04,0.053 0.04,0.054 0.04,0.055 0.04,0.055 0.04,0.056 0.04,0.056 0.04,0.056 0.05,0.055 0.05,0.055 0.05,0.055 0.05,0.054 0.05,0.053 0.05,0.052 0.05,0.051 0.06,0.049 c 0.41,0.375 0.95,0.625 1.56,0.625 0.64,0 0.86,-0.469 0.86,-1.11 0,-0.906 -0.64,-2.7184 -0.97,-3.5778 -0.14,-0.375 -0.22,-0.5781 -0.22,-0.875 0,-0.7187 0.5,-1.2812 1.25,-1.2812 1.49,0 2.05,2.3281 2.05,2.4218 0,0.0938 -0.08,0.1563 -0.17,0.1563 -0.14,0 -0.16,-0.0469 -0.24,-0.3281 -0.35,-1.2969 -0.96,-1.9375 -1.59,-1.9375 -0.16,0 -0.41,0.0156 -0.41,0.5312 0,0.3906 0.18,0.875 0.27,1.0938 0.33,0.875 0.98,2.6565 0.98,3.5625 0,0.953 -0.54,1.672 -1.76,1.672 -1.41,0 -2.16,-1 -2.44,-1.406 -0.05,0.906 -0.7,1.406 -1.4,1.406 -0.5,0 -0.86,-0.313 -1.13,-0.844 -0.28,-0.578 -0.52,-1.531 -0.52,-1.594 0,-0.062 0.08,-0.14 0.19,-0.14 0.13,0 0.14,0.015 0.24,0.375 0.25,0.969 0.53,1.875 1.17,1.875 0.37,0 0.5,-0.25 0.5,-0.735 0,-0.343 -0.16,-0.968 -0.28,-1.453 L 204.61,8.8555 C 204.55,8.5586 204.38,7.8398 204.3,7.5586 204.17,7.1367 204,6.3867 204,6.3086 c 0,-0.2188 0.17,-0.3906 0.42,-0.3906 0.19,0 0.41,0.0937 0.53,0.3281 0.03,0.0781 0.19,0.6406 0.27,0.9531 l 0.34,1.4375 z"
   id="path99"
   inkscape:connector-curvature="0"
   style="fill:#000000;stroke-width:0" />
<path
   d="m 226.14,9.7305 0.05,0 0.06,6e-4 0.05,0.0014 0.02,0.0012 0.03,0.0017 0.02,0.002 0.03,0.0026 0.02,0.0032 0.02,0.0038 0.02,0.0044 0.03,0.0052 0.02,0.0061 0.02,0.0068 0.02,0.0078 0.02,0.0088 0.01,0.0098 0.02,0.0109 0.01,0.012 0.02,0.0132 0.01,0.0145 0.01,0.0158 0.02,0.0172 0,0.0091 0.01,0.0095 0,0.0099 0,0.0102 0.01,0.0106 0,0.011 0,0.0115 0.01,0.0118 0,0.0122 0,0.0127 0,0.013 0,0.014 0,0.014 0,0.014 c 0,0.328 -0.28,0.328 -0.56,0.328 h -8.59 c -0.27,0 -0.57,0 -0.57,-0.328 0,-0.3125 0.3,-0.3125 0.57,-0.3125 z"
   id="path101"
   inkscape:connector-curvature="0"
   style="fill:#000000;stroke-width:0" />
<path
   d="m 238.61,8.7461 h -0.36 c -0.05,-0.2656 -0.17,-1.1406 -0.33,-1.4063 -0.11,-0.1406 -1.01,-0.1406 -1.5,-0.1406 h -2.94 c 0.43,0.375 1.41,1.3906 1.82,1.7656 2.42,2.2342 3.31,3.0472 3.31,4.6252 0,1.828 -1.45,3.047 -3.3,3.047 -1.84,0 -2.92,-1.563 -2.92,-2.938 0,-0.812 0.7,-0.812 0.75,-0.812 0.33,0 0.74,0.25 0.74,0.75 0,0.453 -0.3,0.75 -0.74,0.75 -0.16,0 -0.19,0 -0.23,-0.016 0.31,1.078 1.17,1.813 2.2,1.813 1.34,0 2.17,-1.125 2.17,-2.594 0,-1.344 -0.78,-2.531 -1.69,-3.547 l -3.2,-3.5938 v -0.375 h 5.8 z"
   id="path103"
   inkscape:connector-curvature="0"
   style="fill:#000000;stroke-width:0" />
<path
   d="m 243.9,10.027 0,0.117 0,0.12 -0.01,0.125 0,0.129 -0.01,0.132 0,0.136 -0.02,0.282 -0.03,0.295 -0.03,0.306 -0.04,0.315 -0.05,0.325 -0.06,0.331 -0.08,0.338 -0.08,0.342 -0.1,0.346 -0.11,0.348 -0.06,0.175 -0.07,0.174 -0.07,0.174 -0.07,0.175 -0.08,0.173 -0.08,0.174 c -0.94,1.906 -2.25,2.937 -2.42,2.937 -0.06,0 -0.14,-0.031 -0.14,-0.125 0,-0.047 0,-0.078 0.26,-0.359 1.6,-1.594 2.49,-4.219 2.49,-7.469 0,-3.0782 -0.75,-5.7344 -2.59,-7.6094 -0.16,-0.1406 -0.16,-0.1719 -0.16,-0.2188 0,-0.0937 0.08,-0.125 0.14,-0.125 0.2,0 1.52,1.1407 2.3,2.7032 0.79,1.6093 1.17,3.3281 1.17,5.234 z"
   id="path105"
   inkscape:connector-curvature="0"
   style="fill:#000000;stroke-width:0" />
<path
   d="m 268.38,9.4805 0,0.1906 -0.02,0.1881 -0.02,0.1848 -0.03,0.183 -0.04,0.178 -0.04,0.176 -0.06,0.171 -0.06,0.168 -0.07,0.164 -0.08,0.159 -0.08,0.154 -0.09,0.15 -0.09,0.144 -0.11,0.139 -0.11,0.134 -0.11,0.128 -0.12,0.122 -0.12,0.115 -0.13,0.109 -0.14,0.103 -0.13,0.096 -0.15,0.088 -0.14,0.081 -0.15,0.074 -0.16,0.065 -0.15,0.058 -0.16,0.05 -0.17,0.041 -0.16,0.032 -0.17,0.023 -0.17,0.014 -0.17,0.005 -0.02,-0.328 c 0.63,0 1.3,-0.281 1.72,-0.906 0.5,-0.719 0.5,-1.735 0.5,-2.3129 0,-0.5625 0,-1.5469 -0.42,-2.2969 -0.44,-0.75 -1.17,-1.0625 -1.78,-1.0625 h 0 c -0.58,0 -1.3,0.25 -1.77,1.0313 -0.42,0.7187 -0.44,1.6562 -0.44,2.3281 0,0.5939 0,1.5779 0.49,2.2809 0.45,0.688 1.15,0.938 1.7,0.938 l 0.02,0.328 c -1.91,0 -3.41,-1.687 -3.41,-3.6875 0,-2.0469 1.58,-3.5625 3.39,-3.5625 1.88,0 3.42,1.5625 3.42,3.5625 z"
   id="path107"
   inkscape:connector-curvature="0"
   style="fill:#000000;stroke-width:0" />
<path
   d="m 271.56,12.465 h 2.23 v 0.453 h -2.23 v 2.938 h -0.35 c -0.03,-1.5 -0.59,-3.032 -2.04,-3.079 v -0.312 h 1.36 V 8.043 c 0,-1.7657 1.17,-2.125 2.01,-2.125 1,0 1.53,0.9843 1.53,2.125 v 0.9062 h -0.36 v -0.875 c 0,-1.1406 -0.45,-1.8125 -1.07,-1.8125 -1.08,0 -1.08,1.4844 -1.08,1.75 z"
   id="path109"
   inkscape:connector-curvature="0"
   style="fill:#000000;stroke-width:0" />
<path
   d="m 282.04,9.9336 -0.01,0.1364 0,0.13 0,0.124 0,0.119 0,0.114 0,0.109 0,0.103 0,0.099 0,0.095 -0.01,0.09 0,0.086 0,0.082 -0.01,0.079 -0.01,0.075 0,0.072 -0.01,0.069 -0.01,0.066 -0.01,0.063 -0.01,0.061 -0.02,0.059 -0.01,0.056 -0.02,0.055 -0.01,0.054 -0.02,0.051 -0.02,0.051 -0.03,0.05 -0.02,0.049 -0.03,0.048 -0.02,0.048 -0.03,0.048 -0.04,0.048 -0.03,0.048 c -0.45,0.61 -1.2,0.719 -1.75,0.719 -1.36,0 -2,-1.047 -2.22,-1.531 h -0.01 v 5.546 l -2.21,-0.171 v -0.469 c 1.08,0 1.21,-0.11 1.21,-0.891 V 7.2461 c 0,-0.7188 -0.18,-0.7188 -1.21,-0.7188 V 6.0742 c 0.41,0.0313 1.27,0.0313 1.71,0.0313 0.46,0 1.32,0 1.73,-0.0313 v 0.4531 c -1.02,0 -1.2,0 -1.2,0.7188 v 2.9529 c 0,1.672 1.09,2.563 2.08,2.563 0.98,0 1.21,-0.813 1.21,-1.781 V 7.2461 c 0,-0.7188 -0.18,-0.7188 -1.21,-0.7188 V 6.0742 c 0.42,0.0313 1.28,0.0313 1.71,0.0313 0.47,0 1.33,0 1.74,-0.0313 v 0.4531 c -0.8,0 -1.19,0 -1.2,0.4844 z"
   id="path111"
   inkscape:connector-curvature="0"
   style="fill:#000000;stroke-width:0" />
<path
   d="m 289.72,9.7617 0.01,0 0.02,0 0.02,10e-5 0.01,0 0.01,1e-4 0.02,10e-5 0.01,10e-5 0.01,2e-4 0.02,2e-4 0.01,4e-4 0.01,3e-4 0.01,5e-4 0.01,5e-4 0.01,6e-4 0.01,7e-4 0.01,9e-4 0.01,9e-4 0.01,10e-4 0.01,0.0012 0.01,0.0013 0.01,0.003 0.02,0.0036 0.01,0.0042 0.01,0.005 0.02,0.0057 0.01,0.0065 0,0.0074 0.01,0.0084 0.01,0.0093 0.01,0.0103 0,0.0114 0.01,0.0126 0,0.0138 0,0.015 0.01,0.008 0,0.0083 0,0.0086 0,0.0091 0,0.0093 0,0.0097 0,0.0101 0,0.0105 0,0.0109 0,0.0112 0,0.0116 0,0.0117 0,0.013 0,0.013 0,0.013 0,0.014 c 0,1.609 -0.86,3.109 -2.78,3.109 -1.81,0 -3.2,-1.641 -3.2,-3.6094 0,-2.1094 1.61,-3.6406 3.37,-3.6406 1.9,0 2.61,1.7187 2.61,2.0468 0,0.0938 -0.07,0.1563 -0.17,0.1563 -0.12,0 -0.15,-0.0781 -0.19,-0.1563 -0.42,-1.3281 -1.48,-1.7031 -2.15,-1.7031 -0.66,0 -2.27,0.4531 -2.27,3.2031 v 0.2969 l 0.02,0.2973 c 0.12,2.5 1.51,2.781 1.97,2.781 1.7,0 1.79,-2.234 1.81,-2.781 h -3.78 l -0.02,-0.2973 z"
   id="path113"
   inkscape:connector-curvature="0"
   style="fill:#000000;stroke-width:0" />
<path
   d="m 293.22,9.7773 0,0.1447 0.01,0.144 0.01,0.142 0.01,0.142 0.02,0.139 0.02,0.138 0.02,0.136 0.03,0.133 0.03,0.131 0.03,0.128 0.04,0.125 0.05,0.121 0.04,0.118 0.05,0.115 0.05,0.11 0.06,0.106 0.06,0.101 0.07,0.096 0.06,0.092 0.07,0.086 0.08,0.081 0.08,0.075 0.08,0.069 0.08,0.063 0.09,0.056 0.09,0.05 0.1,0.042 0.1,0.036 0.1,0.028 0.11,0.02 0.11,0.013 0.11,0.004 c 0.12,0 0.15,0 0.22,-0.016 -0.13,-0.062 -0.38,-0.156 -0.38,-0.578 0,-0.469 0.36,-0.641 0.61,-0.641 0.33,0 0.64,0.204 0.64,0.641 0,0.469 -0.42,0.922 -1.11,0.922 -1.36,0 -1.81,-1.469 -1.9,-1.766 h -0.02 V 13.09 L 291,12.902 v -0.453 c 1.09,0 1.22,-0.109 1.22,-0.89 V 7.2461 c 0,-0.7188 -0.17,-0.7188 -1.22,-0.7188 V 6.0742 c 0.45,0.0313 1.33,0.0313 1.8,0.0313 0.43,0 1.56,0 1.93,-0.0313 v 0.4531 h -0.32 c -1.16,0 -1.19,0.1875 -1.19,0.75 z"
   id="path115"
   inkscape:connector-curvature="0"
   style="fill:#000000;stroke-width:0" />
<path
   d="m 306.24,11.418 0.02,0.046 0.01,0.045 0.02,0.043 0.02,0.042 0.02,0.041 0.02,0.039 0.02,0.039 0.02,0.036 0.02,0.036 0.02,0.034 0.04,0.066 0.05,0.06 0.04,0.056 0.05,0.052 0.04,0.048 0.05,0.044 0.05,0.04 0.04,0.036 0.05,0.033 0.05,0.03 0.05,0.027 0.05,0.023 0.04,0.022 0.05,0.018 0.04,0.016 0.05,0.014 0.04,0.013 0.05,0.01 0.04,0.008 0.04,0.007 0.04,0.006 0.03,0.005 0.04,0.003 0.03,0.003 0.03,0.002 0.03,0.002 0.03,0.002 v 0.453 c -0.41,-0.031 -0.69,-0.031 -1.18,-0.031 -0.46,0 -0.5,0 -1.35,0.031 v -0.453 c 0.71,-0.031 0.9,-0.469 0.9,-0.766 0,-0.015 0,-0.125 -0.06,-0.281 l -1.47,-4.1719 -1.58,4.4999 c -0.08,0.188 -0.08,0.219 -0.08,0.266 0,0.453 0.58,0.453 0.93,0.453 v 0.453 c -0.46,-0.031 -1.11,-0.031 -1.57,-0.031 -0.51,0 -0.54,0 -1.43,0.031 v -0.453 c 0.61,0 0.81,-0.031 0.98,-0.234 0.09,-0.094 0.28,-0.625 0.39,-0.938 l -1.36,-3.8907 -1.51,4.3287 c -0.08,0.203 -0.08,0.234 -0.08,0.296 0,0.438 0.61,0.438 0.92,0.438 v 0.453 c -0.41,-0.031 -1.2,-0.031 -1.63,-0.031 -0.45,0 -0.48,0 -1.48,0.031 v -0.453 c 0.81,0 0.97,-0.063 1.16,-0.578 l 2,-5.6878 c 0.06,-0.1719 0.11,-0.2812 0.28,-0.2812 0.14,0 0.22,0.0468 0.29,0.2968 l 1.6,4.5312 1.59,-4.5312 c 0.08,-0.25 0.16,-0.2968 0.3,-0.2968 0.17,0 0.22,0.1093 0.28,0.2812 z"
   id="path117"
   inkscape:connector-curvature="0"
   style="fill:#000000;stroke-width:0" />
<path
   d="m 310.67,15.871 0,0.038 -0.01,0.038 0,0.037 -0.01,0.037 -0.01,0.036 -0.01,0.036 -0.01,0.035 -0.01,0.034 -0.02,0.034 -0.01,0.033 -0.02,0.032 -0.02,0.031 -0.02,0.03 -0.02,0.029 -0.03,0.028 -0.02,0.027 -0.03,0.026 -0.03,0.025 -0.03,0.023 -0.03,0.022 -0.03,0.02 -0.03,0.019 -0.03,0.017 -0.04,0.016 -0.04,0.014 -0.03,0.013 -0.04,0.011 -0.04,0.008 -0.04,0.007 -0.04,0.006 -0.04,0.003 -0.04,0.001 c -0.41,0 -0.77,-0.328 -0.77,-0.75 0,-0.485 0.39,-0.781 0.77,-0.781 0.5,0 0.78,0.406 0.78,0.765 z"
   id="path119"
   inkscape:connector-curvature="0"
   style="fill:#000000;stroke-width:0" />
<path
   d="m 308.48,12.902 v -0.453 c 1.02,0 1.16,-0.093 1.16,-0.875 V 7.2461 c 0,-0.7188 -0.18,-0.7188 -1.21,-0.7188 V 6.0742 c 0.44,0.0313 1.21,0.0313 1.66,0.0313 0.19,0 1.11,0 1.64,-0.0313 v 0.4531 c -1.03,0 -1.09,0.0938 -1.09,0.7032 V 13.09 z"
   id="path121"
   inkscape:connector-curvature="0"
   style="fill:#000000;stroke-width:0" />
<path
   d="m 317.45,12.793 0,0.014 0,0.013 0,0.013 0,0.013 0,0.025 0,0.023 0,0.023 0,0.021 0,0.02 0,0.019 0,0.018 0,0.016 0,0.016 -0.01,0.015 0,0.014 0,0.013 0,0.012 -0.01,0.011 0,0.01 -0.01,0.009 0,0.009 -0.01,0.008 -0.01,0.007 0,0.006 -0.01,0.005 -0.01,0.005 -0.01,0.004 -0.01,0.004 -0.01,0.003 -0.01,0.002 -0.02,0.002 -0.01,10e-4 -0.01,10e-4 -0.02,0 c -0.12,0 -0.42,-0.359 -0.53,-0.5 -0.5,0.406 -0.98,0.5 -1.5,0.5 -1.92,0 -2.48,-1.047 -2.48,-1.922 0,-0.187 0,-0.734 0.59,-1.2968 0.52,-0.4375 1.05,-0.5469 1.78,-0.7031 0.88,-0.1719 1.08,-0.2188 1.48,-0.5313 0.29,-0.2343 0.49,-0.5937 0.49,-1.0312 0,-0.6875 -0.39,-1.4531 -1.8,-1.4531 -1.04,0 -1.81,0.6093 -2.15,2.2031 -0.07,0.2812 -0.07,0.2969 -0.08,0.3125 -0.03,0.0625 -0.1,0.0625 -0.14,0.0625 -0.17,0 -0.17,-0.0781 -0.17,-0.3594 V 6.2773 c 0,-0.2812 0,-0.3593 0.15,-0.3593 0.08,0 0.1,0.0156 0.36,0.3437 0.08,0.1094 0.08,0.1406 0.31,0.4063 0.61,-0.75 1.47,-0.75 1.74,-0.75 1.67,0 2.5,0.9218 2.5,2.1718 0,0.8594 -0.53,1.375 -0.67,1.5157 -0.57,0.4845 -1,0.5785 -2.05,0.7815 -0.47,0.094 -1.64,0.312 -1.64,1.265 0,0.5 0.34,1.219 1.76,1.219 1.74,0 1.83,-1.469 1.86,-1.969 0.02,-0.125 0.13,-0.125 0.18,-0.125 0.18,0 0.18,0.079 0.18,0.36 z"
   id="path123"
   inkscape:connector-curvature="0"
   style="fill:#000000;stroke-width:0" />
<path
   d="m 324.48,9.7617 0.02,0 0.02,0 0.01,10e-5 0.01,0 0.02,1e-4 0.01,10e-5 0.02,10e-5 0.01,2e-4 0.01,2e-4 0.01,4e-4 0.02,3e-4 0.01,5e-4 0.01,5e-4 0.01,6e-4 0.01,7e-4 0.01,9e-4 0.01,9e-4 0.01,10e-4 0.01,0.0012 0,0.0013 0.02,0.003 0.01,0.0036 0.02,0.0042 0.01,0.005 0.01,0.0057 0.01,0.0065 0.01,0.0074 0.01,0.0084 0,0.0093 0.01,0.0103 0.01,0.0114 0,0.0126 0.01,0.0138 0,0.015 0,0.008 0,0.0083 0,0.0086 0,0.0091 0,0.0093 0.01,0.0097 0,0.0101 0,0.0105 0,0.0109 0,0.0112 0,0.0116 0,0.0117 0,0.013 0,0.013 0,0.013 0,0.014 c 0,1.609 -0.86,3.109 -2.78,3.109 -1.81,0 -3.2,-1.641 -3.2,-3.6094 0,-2.1094 1.6,-3.6406 3.37,-3.6406 1.89,0 2.61,1.7187 2.61,2.0468 0,0.0938 -0.08,0.1563 -0.17,0.1563 -0.13,0 -0.16,-0.0781 -0.19,-0.1563 -0.42,-1.3281 -1.48,-1.7031 -2.16,-1.7031 -0.65,0 -2.26,0.4531 -2.26,3.2031 v 0.2969 l 0.01,0.2973 c 0.13,2.5 1.52,2.781 1.97,2.781 1.71,0 1.8,-2.234 1.82,-2.781 h -3.79 l -0.01,-0.2973 z"
   id="path125"
   inkscape:connector-curvature="0"
   style="fill:#000000;stroke-width:0" />
</g></svg>
