<?xml version="1.0" encoding="UTF-8" standalone="no"?>
<svg
   xmlns:dc="http://purl.org/dc/elements/1.1/"
   xmlns:cc="http://creativecommons.org/ns#"
   xmlns:rdf="http://www.w3.org/1999/02/22-rdf-syntax-ns#"
   xmlns:svg="http://www.w3.org/2000/svg"
   xmlns="http://www.w3.org/2000/svg"
   xmlns:sodipodi="http://sodipodi.sourceforge.net/DTD/sodipodi-0.dtd"
   xmlns:inkscape="http://www.inkscape.org/namespaces/inkscape"
   version="1.1"
   id="body"
   width="214.68613"
   height="41.093502"
   viewBox="0 0 0.29817518 0.057074308"
   preserveAspectRatio="none"
   inkscape:version="0.48.3.1 r9886"
   sodipodi:docname="ch1-Z-G-30.svg">
  <metadata
     id="metadata81">
    <rdf:RDF>
      <cc:Work
         rdf:about="">
        <dc:format>image/svg+xml</dc:format>
        <dc:type
           rdf:resource="http://purl.org/dc/dcmitype/StillImage" />
      </cc:Work>
    </rdf:RDF>
  </metadata>
  <defs
     id="defs79" />
  <sodipodi:namedview
     pagecolor="#ffffff"
     bordercolor="#666666"
     borderopacity="1"
     objecttolerance="10"
     gridtolerance="10"
     guidetolerance="10"
     inkscape:pageopacity="0"
     inkscape:pageshadow="2"
     inkscape:window-width="640"
     inkscape:window-height="480"
     id="namedview77"
     showgrid="false"
     inkscape:zoom="0.32777778"
     inkscape:cx="382.34375"
     inkscape:cy="459.05588"
     inkscape:window-x="0"
     inkscape:window-y="24"
     inkscape:window-maximized="0"
     inkscape:current-layer="body" />
  <title
     id="title3">SVG drawing</title>
  <desc
     id="desc5">This was produced by version 4.4 of GNU libplot, a free library for exporting 2-D vector graphics.</desc>
  <g
     id="content"
     transform="matrix(0.0017361,0,0,-0.0017361,-2.170125e-4,0.05826788)"
     xml:space="preserve"
     stroke-miterlimit="10.433"
     font-style="normal"
     font-variant="normal"
     font-weight="normal"
     font-stretch="normal"
     font-size-adjust="none"
     letter-spacing="normal"
     word-spacing="normal"
     style="font-style:normal;font-variant:normal;font-weight:normal;font-stretch:normal;letter-spacing:normal;word-spacing:normal;text-anchor:start;fill:none;stroke:#000000;stroke-linecap:butt;stroke-linejoin:miter;stroke-miterlimit:10.43299961;stroke-opacity:1;stroke-dasharray:none;stroke-dashoffset:0">
<path
   d="M 4.2422,28.762 H 6.0391 C 5.6172,26.996 5.3516,25.824 5.3516,24.559 c 0,-0.219 0,-1.938 0.6406,-1.938 0.3437,0 0.625,0.297 0.625,0.563 0,0.093 0,0.125 -0.1094,0.359 -0.4375,1.094 -0.4375,2.453 -0.4375,2.578 0,0.094 0,1.219 0.3438,2.641 h 1.7812 c 0.2031,0 0.7344,0 0.7344,0.515 0,0.344 -0.3125,0.344 -0.5938,0.344 H 3.1016 c -0.3594,0 -0.9063,0 -1.6407,-0.766 -0.4062,-0.468 -0.92184,-1.312 -0.92184,-1.406 0,-0.094 0.09375,-0.125 0.1875,-0.125 0.10938,0 0.125,0.047 0.20313,0.141 0.82811,1.297 1.65621,1.297 2.04691,1.297 h 0.9062 c -0.3437,-1.188 -0.75,-2.563 -2.0469,-5.344 -0.125,-0.266 -0.125,-0.297 -0.125,-0.391 0,-0.328 0.2813,-0.406 0.4219,-0.406 0.4688,0 0.5938,0.406 0.7813,1.078 0.25,0.813 0.25,0.844 0.4062,1.485 z"
   id="path9"
   inkscape:connector-curvature="0"
   style="fill:#000000;stroke-width:0" />
<line
   x1="0.13281"
   y1="15.977"
   x2="9.5586004"
   y2="15.977"
   id="line11"
   style="stroke-width:0.63800001" />
<path
   d="m 6.6758,11.402 0,0.015 0,0.014 0,0.014 -10e-5,0.013 -10e-5,0.026 -2e-4,0.025 -5e-4,0.023 -6e-4,0.022 -8e-4,0.021 -0.0011,0.02 -0.0015,0.019 -0.0018,0.017 -0.0022,0.017 -0.0027,0.015 -0.0031,0.015 -0.0036,0.013 -0.0043,0.012 -0.0048,0.012 -0.0054,0.01 -0.0062,0.01 -0.0068,0.009 -0.0076,0.008 -0.0084,0.007 -0.0093,0.006 -0.0101,0.006 -0.0111,0.005 -0.012,0.004 -0.0131,0.004 -0.014,0.003 -0.0152,0.002 -0.0162,0.002 -0.0175,10e-4 -0.0186,10e-4 -0.0098,0 -0.0101,0 c -0.125,0 -0.1718,0 -0.2968,-0.203 L 1.3633,4.168 h 0.4062 l 3.8594,6 v -6 H 1.7695 1.3633 V 3.7148 H 5.5508 V 2.2617 c 0,-0.5781 -0.0313,-0.75 -1.1875,-0.75 H 4.0352 V 1.0586 c 0.375,0.0312 1.625,0.0312 2.0781,0.0312 0.4375,0 1.7031,0 2.0781,-0.0312 V 1.5117 H 7.8789 c -1.1562,0 -1.2031,0.1719 -1.2031,0.75 V 3.7148 H 8.2852 V 4.168 H 6.6758 z"
   id="path13"
   inkscape:connector-curvature="0"
   style="fill:#000000;stroke-width:0" />
<path
   d="m 25.918,17.148 0.042,0 0.042,0.001 0.043,10e-4 0.022,0.001 0.021,0.002 0.022,0.002 0.021,0.002 0.021,0.003 0.02,0.003 0.02,0.004 0.02,0.005 0.019,0.005 0.019,0.007 0.018,0.007 0.017,0.007 0.017,0.009 0.015,0.01 0.015,0.011 0.014,0.012 0.013,0.013 0.012,0.014 0.005,0.008 0.005,0.008 0.005,0.008 0.005,0.008 0.004,0.009 0.004,0.009 0.003,0.01 0.003,0.01 0.003,0.01 0.003,0.011 0.002,0.011 0.002,0.011 0.001,0.012 0.001,0.012 10e-4,0.013 0,0.013 c 0,0.297 -0.266,0.297 -0.5,0.297 h -9.375 c -0.219,0 -0.5,0 -0.5,-0.282 0,-0.297 0.266,-0.297 0.5,-0.297 z"
   id="path15"
   inkscape:connector-curvature="0"
   style="fill:#000000;stroke-width:0" />
<path
   d="m 25.918,14.18 0.042,0 0.042,0 0.043,0.002 0.022,10e-4 0.021,10e-4 0.022,0.002 0.021,0.003 0.021,0.003 0.02,0.003 0.02,0.005 0.02,0.005 0.019,0.005 0.019,0.007 0.018,0.007 0.017,0.009 0.017,0.009 0.015,0.01 0.015,0.012 0.014,0.012 0.013,0.014 0.012,0.015 0.005,0.008 0.005,0.008 0.005,0.009 0.005,0.009 0.004,0.009 0.004,0.01 0.003,0.01 0.003,0.011 0.003,0.01 0.003,0.012 0.002,0.011 0.002,0.012 0.001,0.013 0.001,0.013 10e-4,0.013 0,0.014 c 0,0.296 -0.266,0.296 -0.5,0.296 h -9.375 c -0.219,0 -0.5,0 -0.5,-0.281 0,-0.312 0.266,-0.312 0.5,-0.312 z"
   id="path17"
   inkscape:connector-curvature="0"
   style="fill:#000000;stroke-width:0" />
<path
   d="m 39.945,25.449 h -0.359 c -0.047,-0.265 -0.172,-1.14 -0.328,-1.406 -0.11,-0.141 -1.016,-0.141 -1.5,-0.141 H 34.82 c 0.422,0.375 1.407,1.391 1.813,1.766 2.422,2.234 3.312,3.047 3.312,4.625 0,1.828 -1.453,3.047 -3.297,3.047 -1.843,0 -2.921,-1.563 -2.921,-2.938 0,-0.812 0.703,-0.812 0.75,-0.812 0.328,0 0.734,0.25 0.734,0.75 0,0.453 -0.297,0.75 -0.734,0.75 -0.157,0 -0.188,0 -0.235,-0.016 0.313,1.078 1.172,1.813 2.203,1.813 1.344,0 2.172,-1.125 2.172,-2.594 0,-1.344 -0.781,-2.531 -1.687,-3.547 l -3.203,-3.594 v -0.375 h 5.796 z"
   id="path19"
   inkscape:connector-curvature="0"
   style="fill:#000000;stroke-width:0" />
<path
   d="m 47.34,26.746 -0.001,0.044 -0.004,0.043 -0.005,0.042 -0.007,0.042 -0.01,0.041 -0.011,0.04 -0.013,0.039 -0.015,0.039 -0.017,0.037 -0.018,0.036 -0.021,0.036 -0.022,0.034 -0.023,0.033 -0.025,0.032 -0.026,0.03 -0.028,0.03 -0.03,0.028 -0.03,0.026 -0.032,0.025 -0.033,0.023 -0.034,0.022 -0.036,0.021 -0.036,0.018 -0.037,0.017 -0.039,0.015 -0.039,0.013 -0.04,0.011 -0.041,0.01 -0.042,0.007 -0.042,0.005 -0.043,0.004 -0.044,0.001 c -0.453,0 -0.844,-0.375 -0.844,-0.844 0,-0.453 0.391,-0.844 0.844,-0.844 0.469,0 0.844,0.391 0.844,0.844 z"
   id="path21"
   inkscape:connector-curvature="0"
   style="fill:#000000;stroke-width:0" />
<path
   d="m 57.996,33.121 0,0.015 0,0.014 0,0.014 0,0.013 0,0.026 0,0.025 -0.001,0.023 0,0.022 -10e-4,0.021 -10e-4,0.02 -0.002,0.019 -0.002,0.017 -0.002,0.017 -0.002,0.015 -0.004,0.014 -0.003,0.014 -0.004,0.012 -0.005,0.012 -0.006,0.01 -0.006,0.01 -0.007,0.009 -0.007,0.008 -0.009,0.007 -0.009,0.006 -0.01,0.006 -0.011,0.005 -0.012,0.004 -0.013,0.003 -0.014,0.003 -0.015,0.003 -0.017,0.002 -0.017,0.001 -0.019,0 -0.01,10e-4 -0.01,0 c -0.125,0 -0.172,0 -0.297,-0.203 l -4.796,-7.422 h 0.406 l 3.859,6 v -6 H 53.09 52.684 v -0.453 h 4.187 V 23.98 c 0,-0.578 -0.031,-0.75 -1.187,-0.75 h -0.329 v -0.453 c 0.375,0.032 1.625,0.032 2.079,0.032 0.437,0 1.703,0 2.078,-0.032 v 0.453 h -0.313 c -1.156,0 -1.203,0.172 -1.203,0.75 v 1.454 h 1.609 v 0.453 h -1.609 z"
   id="path23"
   inkscape:connector-curvature="0"
   style="fill:#000000;stroke-width:0" />
<path
   d="m 66.652,26.746 -0.001,0.044 -0.003,0.043 -0.005,0.042 -0.008,0.042 -0.009,0.041 -0.011,0.04 -0.014,0.039 -0.015,0.039 -0.016,0.037 -0.019,0.036 -0.02,0.036 -0.022,0.034 -0.024,0.033 -0.024,0.032 -0.027,0.03 -0.028,0.03 -0.029,0.028 -0.031,0.026 -0.031,0.025 -0.033,0.023 -0.035,0.022 -0.035,0.021 -0.036,0.018 -0.038,0.017 -0.038,0.015 -0.039,0.013 -0.041,0.011 -0.041,0.01 -0.041,0.007 -0.043,0.005 -0.043,0.004 -0.043,0.001 c -0.454,0 -0.844,-0.375 -0.844,-0.844 0,-0.453 0.39,-0.844 0.844,-0.844 0.468,0 0.843,0.391 0.843,0.844 z"
   id="path25"
   inkscape:connector-curvature="0"
   style="fill:#000000;stroke-width:0" />
<path
   d="m 77.312,33.121 0,0.015 0,0.014 0,0.014 0,0.013 0,0.026 0,0.025 0,0.023 -10e-4,0.022 -0.001,0.021 -0.001,0.02 -10e-4,0.019 -0.002,0.017 -0.002,0.017 -0.003,0.015 -0.003,0.014 -0.004,0.014 -0.004,0.012 -0.005,0.012 -0.005,0.01 -0.006,0.01 -0.007,0.009 -0.008,0.008 -0.008,0.007 -0.01,0.006 -0.01,0.006 -0.011,0.005 -0.012,0.004 -0.013,0.003 -0.014,0.003 -0.015,0.003 -0.016,0.002 -0.018,0.001 -0.018,0 -0.01,10e-4 -0.01,0 c -0.125,0 -0.172,0 -0.297,-0.203 L 72,25.887 h 0.406 l 3.86,6 v -6 H 72.406 72 v -0.453 h 4.188 V 23.98 c 0,-0.578 -0.032,-0.75 -1.188,-0.75 h -0.328 v -0.453 c 0.375,0.032 1.625,0.032 2.078,0.032 0.438,0 1.703,0 2.078,-0.032 v 0.453 h -0.312 c -1.157,0 -1.204,0.172 -1.204,0.75 v 1.454 h 1.61 v 0.453 h -1.61 z"
   id="path27"
   inkscape:connector-curvature="0"
   style="fill:#000000;stroke-width:0" />
<path
   d="m 85.973,26.746 -0.001,0.044 -0.004,0.043 -0.005,0.042 -0.007,0.042 -0.01,0.041 -0.011,0.04 -0.013,0.039 -0.015,0.039 -0.017,0.037 -0.019,0.036 -0.02,0.036 -0.022,0.034 -0.023,0.033 -0.025,0.032 -0.027,0.03 -0.027,0.03 -0.03,0.028 -0.03,0.026 -0.032,0.025 -0.033,0.023 -0.034,0.022 -0.036,0.021 -0.036,0.018 -0.037,0.017 -0.039,0.015 -0.039,0.013 -0.04,0.011 -0.041,0.01 -0.042,0.007 -0.042,0.005 -0.043,0.004 -0.044,0.001 c -0.453,0 -0.844,-0.375 -0.844,-0.844 0,-0.453 0.391,-0.844 0.844,-0.844 0.469,0 0.844,0.391 0.844,0.844 z"
   id="path29"
   inkscape:connector-curvature="0"
   style="fill:#000000;stroke-width:0" />
<path
   d="m 92.848,28.309 0.001,0.185 0.004,0.181 0.007,0.176 0.01,0.172 0.012,0.166 0.015,0.162 0.017,0.158 0.019,0.153 0.022,0.148 0.024,0.144 0.026,0.14 0.029,0.135 0.03,0.132 0.032,0.127 0.034,0.123 0.036,0.119 0.038,0.115 0.039,0.112 0.041,0.107 0.043,0.104 0.089,0.196 0.095,0.183 0.099,0.168 0.104,0.155 0.107,0.142 0.111,0.131 0.113,0.118 0.114,0.107 0.117,0.096 0.117,0.086 0.117,0.077 0.117,0.067 0.116,0.058 0.115,0.05 0.113,0.042 0.111,0.035 0.107,0.028 0.104,0.022 0.099,0.017 0.095,0.011 0.09,0.006 0.083,0.002 c 0.578,0 1.141,-0.172 1.453,-0.656 -0.187,0 -0.797,0 -0.797,-0.641 0,-0.359 0.235,-0.656 0.657,-0.656 0.39,0 0.656,0.234 0.656,0.703 0,0.828 -0.594,1.625 -1.984,1.625 -2,0 -4.094,-2.047 -4.094,-5.547 0,-4.359 1.906,-5.344 3.25,-5.344 1.734,0 3.219,1.5 3.219,3.578 0,2.11 -1.485,3.516 -3.079,3.516 L 94.879,29.23 c 0.875,0 1.344,-0.593 1.578,-1.125 0.25,-0.593 0.25,-1.39 0.25,-2.062 0,-0.813 0,-1.531 -0.297,-2.141 -0.39,-0.765 -0.969,-1.031 -1.609,-1.031 h 0 c -1,0 -1.469,0.891 -1.625,1.219 -0.141,0.422 -0.297,1.203 -0.297,2.312 0,1.25 0.578,2.828 2,2.828 l 0.062,0.313 c -1.406,0 -1.937,-1.219 -2.093,-1.656 z"
   id="path31"
   inkscape:connector-curvature="0"
   style="fill:#000000;stroke-width:0" />
<path
   d="m 105.29,26.746 -0.01,0.044 0,0.043 0,0.042 -0.01,0.042 -0.01,0.041 -0.01,0.04 -0.02,0.039 -0.01,0.039 -0.02,0.037 -0.02,0.036 -0.02,0.036 -0.02,0.034 -0.02,0.033 -0.03,0.032 -0.02,0.03 -0.03,0.03 -0.03,0.028 -0.03,0.026 -0.03,0.025 -0.04,0.023 -0.03,0.022 -0.04,0.021 -0.03,0.018 -0.04,0.017 -0.04,0.015 -0.04,0.013 -0.04,0.011 -0.04,0.01 -0.04,0.007 -0.04,0.005 -0.05,0.004 -0.04,0.001 c -0.45,0 -0.84,-0.375 -0.84,-0.844 0,-0.453 0.39,-0.844 0.84,-0.844 0.47,0 0.85,0.391 0.85,0.844 z"
   id="path33"
   inkscape:connector-curvature="0"
   style="fill:#000000;stroke-width:0" />
<path
   d="m 112.16,28.309 0.01,0.185 0,0.181 0.01,0.176 0.01,0.172 0.01,0.166 0.01,0.162 0.02,0.158 0.02,0.153 0.02,0.148 0.03,0.144 0.02,0.14 0.03,0.135 0.03,0.132 0.03,0.127 0.04,0.123 0.03,0.119 0.04,0.115 0.04,0.112 0.04,0.107 0.04,0.104 0.09,0.196 0.1,0.183 0.1,0.168 0.1,0.155 0.11,0.142 0.11,0.131 0.11,0.118 0.12,0.107 0.11,0.096 0.12,0.086 0.12,0.077 0.11,0.067 0.12,0.058 0.11,0.05 0.12,0.042 0.11,0.035 0.11,0.028 0.1,0.022 0.1,0.017 0.09,0.011 0.09,0.006 0.09,0.002 c 0.58,0 1.14,-0.172 1.45,-0.656 -0.19,0 -0.8,0 -0.8,-0.641 0,-0.359 0.24,-0.656 0.66,-0.656 0.39,0 0.65,0.234 0.65,0.703 0,0.828 -0.59,1.625 -1.98,1.625 -2,0 -4.09,-2.047 -4.09,-5.547 0,-4.359 1.9,-5.344 3.25,-5.344 1.73,0 3.22,1.5 3.22,3.578 0,2.11 -1.49,3.516 -3.08,3.516 l -0.07,-0.313 c 0.88,0 1.35,-0.593 1.58,-1.125 0.25,-0.593 0.25,-1.39 0.25,-2.062 0,-0.813 0,-1.531 -0.29,-2.141 -0.39,-0.765 -0.97,-1.031 -1.61,-1.031 h 0 c -1,0 -1.47,0.891 -1.63,1.219 -0.14,0.422 -0.3,1.203 -0.3,2.312 0,1.25 0.58,2.828 2,2.828 l 0.07,0.313 c -1.41,0 -1.94,-1.219 -2.1,-1.656 z"
   id="path35"
   inkscape:connector-curvature="0"
   style="fill:#000000;stroke-width:0" />
<path
   d="m 124.6,26.746 0,0.044 0,0.043 -0.01,0.042 -0.01,0.042 0,0.041 -0.02,0.04 -0.01,0.039 -0.01,0.039 -0.02,0.037 -0.02,0.036 -0.02,0.036 -0.02,0.034 -0.02,0.033 -0.03,0.032 -0.03,0.03 -0.02,0.03 -0.03,0.028 -0.03,0.026 -0.04,0.025 -0.03,0.023 -0.03,0.022 -0.04,0.021 -0.03,0.018 -0.04,0.017 -0.04,0.015 -0.04,0.013 -0.04,0.011 -0.04,0.01 -0.04,0.007 -0.05,0.005 -0.04,0.004 -0.04,0.001 c -0.45,0 -0.85,-0.375 -0.85,-0.844 0,-0.453 0.4,-0.844 0.85,-0.844 0.47,0 0.84,0.391 0.84,0.844 z"
   id="path37"
   inkscape:connector-curvature="0"
   style="fill:#000000;stroke-width:0" />
<path
   d="m 134.26,28.512 0.08,0.042 0.08,0.043 0.15,0.093 0.17,0.1 0.16,0.108 0.17,0.117 0.08,0.062 0.08,0.064 0.08,0.066 0.08,0.069 0.07,0.072 0.08,0.074 0.07,0.077 0.07,0.079 0.06,0.082 0.07,0.086 0.06,0.088 0.05,0.091 0.05,0.094 0.05,0.097 0.04,0.1 0.04,0.104 0.04,0.106 0.02,0.11 0.03,0.114 0.01,0.117 0.01,0.121 0,0.124 c 0,1.375 -1.32,2.328 -2.79,2.328 l -0.02,-0.375 c 1.14,0 2.17,-0.828 2.17,-1.969 0,-0.969 -0.7,-1.75 -1.62,-2.266 l -1.85,1.219 c -0.2,0.141 -0.84,0.547 -0.84,1.328 0,1.032 1.08,1.688 2.14,1.688 l 0.02,0.375 c -1.57,0 -2.82,-1.156 -2.82,-2.594 0,-0.547 0.16,-1.094 0.61,-1.625 0.18,-0.203 0.19,-0.219 1.3,-1 l 0.34,-0.219 1.93,-1.265 c 0.4,-0.266 1.14,-0.766 1.14,-1.735 0,-1.203 -1.22,-2.031 -2.5,-2.031 -1.35,0 -2.52,0.984 -2.52,2.313 0,1.234 0.91,2.234 1.95,2.718 h 0 l -0.34,0.219 c -1.53,-0.719 -2.33,-1.781 -2.33,-2.937 0,-1.688 1.6,-2.735 3.22,-2.735 1.77,0 3.25,1.297 3.25,2.969 0,1.625 -1.15,2.328 -2.39,3.094 z"
   id="path39"
   inkscape:connector-curvature="0"
   style="fill:#000000;stroke-width:0" />
<path
   d="m 143.92,26.746 0,0.044 -0.01,0.043 0,0.042 -0.01,0.042 -0.01,0.041 -0.01,0.04 -0.01,0.039 -0.02,0.039 -0.01,0.037 -0.02,0.036 -0.02,0.036 -0.03,0.034 -0.02,0.033 -0.02,0.032 -0.03,0.03 -0.03,0.03 -0.03,0.028 -0.03,0.026 -0.03,0.025 -0.03,0.023 -0.04,0.022 -0.03,0.021 -0.04,0.018 -0.04,0.017 -0.03,0.015 -0.04,0.013 -0.04,0.011 -0.05,0.01 -0.04,0.007 -0.04,0.005 -0.04,0.004 -0.05,0.001 c -0.45,0 -0.84,-0.375 -0.84,-0.844 0,-0.453 0.39,-0.844 0.84,-0.844 0.47,0 0.85,0.391 0.85,0.844 z"
   id="path41"
   inkscape:connector-curvature="0"
   style="fill:#000000;stroke-width:0" />
<path
   d="m 155.42,26.746 0,0.044 0,0.043 -0.01,0.042 -0.01,0.042 0,0.041 -0.02,0.04 -0.01,0.039 -0.01,0.039 -0.02,0.037 -0.02,0.036 -0.02,0.036 -0.02,0.034 -0.02,0.033 -0.03,0.032 -0.03,0.03 -0.02,0.03 -0.03,0.028 -0.03,0.026 -0.04,0.025 -0.03,0.023 -0.03,0.022 -0.04,0.021 -0.03,0.018 -0.04,0.017 -0.04,0.015 -0.04,0.013 -0.04,0.011 -0.04,0.01 -0.04,0.007 -0.05,0.005 -0.04,0.004 -0.04,0.001 c -0.46,0 -0.85,-0.375 -0.85,-0.844 0,-0.453 0.39,-0.844 0.85,-0.844 0.47,0 0.84,0.391 0.84,0.844 z"
   id="path43"
   inkscape:connector-curvature="0"
   style="fill:#000000;stroke-width:0" />
<path
   d="m 166.95,26.746 -0.01,0.044 0,0.043 0,0.042 -0.01,0.042 -0.01,0.041 -0.01,0.04 -0.02,0.039 -0.01,0.039 -0.02,0.037 -0.02,0.036 -0.02,0.036 -0.02,0.034 -0.02,0.033 -0.03,0.032 -0.02,0.03 -0.03,0.03 -0.03,0.028 -0.03,0.026 -0.03,0.025 -0.04,0.023 -0.03,0.022 -0.04,0.021 -0.03,0.018 -0.04,0.017 -0.04,0.015 -0.04,0.013 -0.04,0.011 -0.04,0.01 -0.04,0.007 -0.04,0.005 -0.04,0.004 -0.05,0.001 c -0.45,0 -0.84,-0.375 -0.84,-0.844 0,-0.453 0.39,-0.844 0.84,-0.844 0.47,0 0.85,0.391 0.85,0.844 z"
   id="path45"
   inkscape:connector-curvature="0"
   style="fill:#000000;stroke-width:0" />
<line
   x1="32.945"
   y1="15.977"
   x2="171.87"
   y2="15.977"
   id="line47"
   style="stroke-width:0.63800001" />
<path
   d="m 35.867,6.7617 -0.012,-7e-4 -0.012,-7e-4 -0.012,-8e-4 -0.011,-7e-4 -0.011,-8e-4 -0.011,-8e-4 -0.011,-8e-4 -0.01,-8e-4 L 35.757,6.7539 35.738,6.7521 35.721,6.7502 35.704,6.748 35.688,6.7458 35.673,6.7433 35.66,6.7405 35.647,6.7375 35.635,6.7343 35.623,6.7307 35.613,6.7269 35.604,6.7227 35.595,6.7181 35.587,6.7131 35.579,6.7077 35.573,6.7019 35.567,6.6956 35.562,6.6889 35.557,6.6816 35.553,6.6738 35.55,6.6655 35.547,6.6566 35.544,6.6471 35.542,6.637 35.541,6.6262 35.54,6.6148 35.539,6.6027 l 0,-0.0129 c 0,-0.1562 0.078,-0.1562 0.359,-0.1562 h 0.735 c 1.344,0 1.953,-1.1094 1.953,-2.6406 0,-2.0782 -1.078,-2.6407 -1.859,-2.6407 -0.766,0 -2.063,0.3594 -2.532,1.4219 0.516,-0.0781 0.969,0.2031 0.969,0.7656 0,0.4688 -0.328,0.7813 -0.766,0.7813 -0.39,0 -0.796,-0.2188 -0.796,-0.8281 0,-1.4063 1.406,-2.56253 3.171,-2.56253 1.891,0 3.297,1.43753 3.297,3.04683 0,1.4688 -1.187,2.6094 -2.703,2.875 1.375,0.3907 2.266,1.5625 2.266,2.7969 0,1.2498 -1.297,2.1718 -2.844,2.1718 -1.594,0 -2.766,-0.969 -2.766,-2.1249 0,-0.6406 0.5,-0.7656 0.735,-0.7656 0.328,0 0.719,0.25 0.719,0.7187 0,0.5156 -0.391,0.7348 -0.735,0.7348 -0.094,0 -0.125,0 -0.172,-0.016 0.594,1.078 2.094,1.078 2.172,1.078 0.531,0 1.563,-0.234 1.563,-1.7968 0,-0.2969 -0.047,-1.1875 -0.516,-1.875 -0.469,-0.7031 -1.016,-0.75 -1.437,-0.7656 z"
   id="path49"
   inkscape:connector-curvature="0"
   style="fill:#000000;stroke-width:0" />
<path
   d="M 47.336,5.0273 47.335,5.071 47.332,5.1141 47.326,5.1565 47.319,5.1982 47.31,5.2391 47.298,5.2793 47.285,5.3186 47.27,5.3569 47.253,5.3943 47.235,5.4307 47.214,5.4661 47.193,5.5003 47.169,5.5334 47.144,5.5652 47.118,5.5958 47.09,5.625 47.061,5.6529 47.03,5.6793 46.998,5.7043 46.965,5.7277 46.931,5.7496 46.896,5.7698 46.859,5.7884 46.822,5.8052 46.783,5.8202 46.744,5.8334 46.704,5.8447 46.663,5.8541 46.621,5.8614 46.579,5.8668 46.536,5.87 46.492,5.8711 c -0.453,0 -0.844,-0.375 -0.844,-0.8438 0,-0.4531 0.391,-0.8437 0.844,-0.8437 0.469,0 0.844,0.3906 0.844,0.8437 z"
   id="path51"
   inkscape:connector-curvature="0"
   style="fill:#000000;stroke-width:0" />
<path
   d="m 55.184,6.7617 -0.013,-7e-4 -0.012,-7e-4 -0.011,-8e-4 -0.012,-7e-4 -0.011,-8e-4 -0.011,-8e-4 -0.01,-8e-4 -0.011,-8e-4 L 55.073,6.7539 55.055,6.7521 55.037,6.7502 55.02,6.748 55.005,6.7458 54.99,6.7433 54.976,6.7405 54.963,6.7375 54.951,6.7343 54.94,6.7307 54.929,6.7269 54.92,6.7227 54.911,6.7181 54.903,6.7131 54.896,6.7077 54.889,6.7019 54.883,6.6956 54.878,6.6889 54.873,6.6816 54.869,6.6738 54.866,6.6655 54.863,6.6566 54.861,6.6471 54.859,6.637 54.857,6.6262 54.856,6.6148 l 0,-0.0121 -0.001,-0.0129 c 0,-0.1562 0.079,-0.1562 0.36,-0.1562 h 0.734 c 1.344,0 1.953,-1.1094 1.953,-2.6406 0,-2.0782 -1.078,-2.6407 -1.859,-2.6407 -0.766,0 -2.063,0.3594 -2.531,1.4219 0.515,-0.0781 0.968,0.2031 0.968,0.7656 0,0.4688 -0.328,0.7813 -0.765,0.7813 -0.391,0 -0.797,-0.2188 -0.797,-0.8281 0,-1.4063 1.406,-2.56253 3.172,-2.56253 1.89,0 3.297,1.43753 3.297,3.04683 0,1.4688 -1.188,2.6094 -2.703,2.875 1.375,0.3907 2.265,1.5625 2.265,2.7969 0,1.2498 -1.297,2.1718 -2.844,2.1718 -1.593,0 -2.765,-0.969 -2.765,-2.1249 0,-0.6406 0.5,-0.7656 0.734,-0.7656 0.328,0 0.719,0.25 0.719,0.7187 0,0.5156 -0.391,0.7348 -0.734,0.7348 -0.094,0 -0.125,0 -0.172,-0.016 0.593,1.078 2.093,1.078 2.172,1.078 0.531,0 1.562,-0.234 1.562,-1.7968 0,-0.2969 -0.047,-1.1875 -0.516,-1.875 -0.468,-0.7031 -1.015,-0.75 -1.437,-0.7656 z"
   id="path53"
   inkscape:connector-curvature="0"
   style="fill:#000000;stroke-width:0" />
<path
   d="M 66.652,5.0273 66.651,5.071 66.648,5.1141 66.643,5.1565 66.635,5.1982 66.626,5.2391 66.615,5.2793 66.601,5.3186 66.586,5.3569 66.57,5.3943 66.551,5.4307 66.531,5.4661 66.509,5.5003 66.485,5.5334 66.461,5.5652 66.434,5.5958 66.406,5.625 66.377,5.6529 66.346,5.6793 66.315,5.7043 66.282,5.7277 66.247,5.7496 66.212,5.7698 66.176,5.7884 66.138,5.8052 66.1,5.8202 66.061,5.8334 66.02,5.8447 65.979,5.8541 65.938,5.8614 65.895,5.8668 65.852,5.87 65.809,5.8711 c -0.454,0 -0.844,-0.375 -0.844,-0.8438 0,-0.4531 0.39,-0.8437 0.844,-0.8437 0.468,0 0.843,0.3906 0.843,0.8437 z"
   id="path55"
   inkscape:connector-curvature="0"
   style="fill:#000000;stroke-width:0" />
<path
   d="m 73.609,10.168 0.064,-0.02 0.064,-0.019 0.062,-0.017 0.062,-0.017 0.06,-0.015 0.06,-0.015 0.059,-0.013 0.057,-0.013 0.057,-0.012 0.055,-0.01 0.054,-0.01 0.053,-0.0093 0.052,-0.0083 0.05,-0.0076 0.048,-0.0069 0.048,-0.0061 0.045,-0.0056 0.045,-0.0049 0.042,-0.0044 0.041,-0.0038 0.039,-0.0034 0.038,-0.0028 0.035,-0.0024 0.034,-0.002 0.032,-0.0017 0.03,-0.0013 0.028,-0.001 0.026,-8e-4 0.024,-5e-4 0.021,-4e-4 0.02,-2e-4 0.017,0 c 1.797,0 2.938,1.3124 2.938,1.5314 0,0.062 -0.031,0.141 -0.125,0.141 -0.032,0 -0.063,0 -0.203,-0.063 -0.891,-0.375 -1.657,-0.422 -2.079,-0.422 -1.046,0 -1.796,0.313 -2.093,0.438 -0.11,0.047 -0.141,0.047 -0.157,0.047 -0.124,0 -0.124,-0.094 -0.124,-0.344 V 6.543 c 0,-0.2813 0,-0.375 0.187,-0.375 0.078,0 0.094,0.0156 0.25,0.2031 0.453,0.6406 1.203,1.0312 1.984,1.0312 0.844,0 1.266,-0.7812 1.391,-1.0468 0.266,-0.625 0.281,-1.4063 0.281,-2 0,-0.6094 0,-1.5157 -0.437,-2.2344 -0.36,-0.5625 -0.969,-0.9688 -1.672,-0.9688 -1.047,0 -2.078,0.7188 -2.375,1.875 0.078,-0.0312 0.187,-0.0468 0.265,-0.0468 0.266,0 0.688,0.1562 0.688,0.7031 0,0.4375 -0.297,0.7031 -0.688,0.7031 -0.296,0 -0.703,-0.1562 -0.703,-0.7656 0,-1.3594 1.079,-2.89063 2.844,-2.89063 1.797,0 3.375,1.50003 3.375,3.51563 0,1.9062 -1.281,3.4687 -2.953,3.4687 -0.906,0 -1.594,-0.3906 -2.016,-0.8437 z"
   id="path57"
   inkscape:connector-curvature="0"
   style="fill:#000000;stroke-width:0" />
<path
   d="m 85.973,5.0273 -0.001,0.0437 -0.004,0.0431 -0.005,0.0424 -0.007,0.0417 -0.01,0.0409 -0.011,0.0402 -0.013,0.0393 -0.015,0.0383 -0.017,0.0374 -0.019,0.0364 -0.02,0.0354 -0.022,0.0342 -0.023,0.0331 -0.025,0.0318 -0.027,0.0306 -0.027,0.0292 -0.03,0.0279 -0.03,0.0264 -0.032,0.025 -0.033,0.0234 -0.034,0.0219 -0.036,0.0202 -0.036,0.0186 -0.037,0.0168 -0.039,0.015 -0.039,0.0132 -0.04,0.0113 L 85.3,5.8541 85.258,5.8614 85.216,5.8668 85.173,5.87 85.129,5.8711 c -0.453,0 -0.844,-0.375 -0.844,-0.8438 0,-0.4531 0.391,-0.8437 0.844,-0.8437 0.469,0 0.844,0.3906 0.844,0.8437 z"
   id="path59"
   inkscape:connector-curvature="0"
   style="fill:#000000;stroke-width:0" />
<path
   d="m 92.926,10.168 0.064,-0.02 0.063,-0.019 0.063,-0.017 0.061,-0.017 0.061,-0.015 0.06,-0.015 0.058,-0.013 0.058,-0.013 0.056,-0.012 0.056,-0.01 0.054,-0.01 0.052,-0.0093 0.052,-0.0083 0.05,-0.0076 0.049,-0.0069 0.047,-0.0061 0.046,-0.0056 0.044,-0.0049 0.043,-0.0044 0.041,-0.0038 0.039,-0.0034 0.037,-0.0028 0.036,-0.0024 0.034,-0.002 0.032,-0.0017 0.03,-0.0013 0.028,-0.001 0.025,-8e-4 0.024,-5e-4 0.022,-4e-4 0.019,-2e-4 0.018,0 c 1.797,0 2.937,1.3124 2.937,1.5314 0,0.062 -0.031,0.141 -0.125,0.141 -0.031,0 -0.062,0 -0.203,-0.063 -0.891,-0.375 -1.656,-0.422 -2.078,-0.422 -1.047,0 -1.797,0.313 -2.094,0.438 -0.109,0.047 -0.14,0.047 -0.156,0.047 -0.125,0 -0.125,-0.094 -0.125,-0.344 V 6.543 c 0,-0.2813 0,-0.375 0.187,-0.375 0.079,0 0.094,0.0156 0.25,0.2031 0.454,0.6406 1.204,1.0312 1.985,1.0312 0.844,0 1.265,-0.7812 1.39,-1.0468 0.266,-0.625 0.282,-1.4063 0.282,-2 0,-0.6094 0,-1.5157 -0.438,-2.2344 -0.359,-0.5625 -0.969,-0.9688 -1.672,-0.9688 -1.047,0 -2.078,0.7188 -2.375,1.875 0.078,-0.0312 0.188,-0.0468 0.266,-0.0468 0.266,0 0.687,0.1562 0.687,0.7031 0,0.4375 -0.296,0.7031 -0.687,0.7031 -0.297,0 -0.703,-0.1562 -0.703,-0.7656 0,-1.3594 1.078,-2.89063 2.844,-2.89063 1.796,0 3.375,1.50003 3.375,3.51563 0,1.9062 -1.282,3.4687 -2.954,3.4687 -0.906,0 -1.593,-0.3906 -2.015,-0.8437 z"
   id="path61"
   inkscape:connector-curvature="0"
   style="fill:#000000;stroke-width:0" />
<path
   d="m 105.29,5.0273 -0.01,0.0437 0,0.0431 0,0.0424 -0.01,0.0417 -0.01,0.0409 -0.01,0.0402 -0.02,0.0393 -0.01,0.0383 -0.02,0.0374 -0.02,0.0364 -0.02,0.0354 -0.02,0.0342 -0.02,0.0331 -0.03,0.0318 -0.02,0.0306 -0.03,0.0292 -0.03,0.0279 -0.03,0.0264 -0.03,0.025 -0.04,0.0234 -0.03,0.0219 -0.04,0.0202 -0.03,0.0186 -0.04,0.0168 -0.04,0.015 -0.04,0.0132 -0.04,0.0113 -0.04,0.0094 -0.04,0.0073 -0.04,0.0054 -0.05,0.0032 -0.04,0.0011 c -0.45,0 -0.84,-0.375 -0.84,-0.8438 0,-0.4531 0.39,-0.8437 0.84,-0.8437 0.47,0 0.85,0.3906 0.85,0.8437 z"
   id="path63"
   inkscape:connector-curvature="0"
   style="fill:#000000;stroke-width:0" />
<path
   d="m 117.76,10.934 v 0.359 h -3.83 c -1.92,0 -1.95,0.203 -2.02,0.516 h -0.35 l -0.49,-3.1879 h 0.34 c 0.05,0.2969 0.21,1.2812 0.41,1.4529 0.12,0.094 1.31,0.094 1.53,0.094 h 3.38 l -1.69,-2.4219 c -0.42,-0.6094 -2.03,-3.2188 -2.03,-6.2031 0,-0.1875 0,-0.81253 0.65,-0.81253 0.66,0 0.66,0.60933 0.66,0.82813 v 0.7812 c 0,2.375 0.39,4.2188 1.14,5.2813 z"
   id="path65"
   inkscape:connector-curvature="0"
   style="fill:#000000;stroke-width:0" />
<path
   d="m 124.6,5.0273 0,0.0437 0,0.0431 -0.01,0.0424 -0.01,0.0417 0,0.0409 -0.02,0.0402 -0.01,0.0393 -0.01,0.0383 -0.02,0.0374 -0.02,0.0364 -0.02,0.0354 -0.02,0.0342 -0.02,0.0331 -0.03,0.0318 -0.03,0.0306 -0.02,0.0292 -0.03,0.0279 -0.03,0.0264 -0.04,0.025 -0.03,0.0234 -0.03,0.0219 -0.04,0.0202 -0.03,0.0186 -0.04,0.0168 -0.04,0.015 -0.04,0.0132 -0.04,0.0113 -0.04,0.0094 -0.04,0.0073 -0.05,0.0054 -0.04,0.0032 -0.04,0.0011 c -0.45,0 -0.85,-0.375 -0.85,-0.8438 0,-0.4531 0.4,-0.8437 0.85,-0.8437 0.47,0 0.84,0.3906 0.84,0.8437 z"
   id="path67"
   inkscape:connector-curvature="0"
   style="fill:#000000;stroke-width:0" />
<path
   d="m 137.07,10.934 v 0.359 h -3.82 c -1.93,0 -1.96,0.203 -2.02,0.516 h -0.36 l -0.48,-3.1879 h 0.34 c 0.05,0.2969 0.2,1.2812 0.41,1.4529 0.12,0.094 1.31,0.094 1.53,0.094 h 3.37 l -1.69,-2.4219 c -0.42,-0.6094 -2.03,-3.2188 -2.03,-6.2031 0,-0.1875 0,-0.81253 0.66,-0.81253 0.66,0 0.66,0.60933 0.66,0.82813 v 0.7812 c 0,2.375 0.39,4.2188 1.14,5.2813 z"
   id="path69"
   inkscape:connector-curvature="0"
   style="fill:#000000;stroke-width:0" />
<path
   d="m 143.92,5.0273 0,0.0437 -0.01,0.0431 0,0.0424 -0.01,0.0417 -0.01,0.0409 -0.01,0.0402 -0.01,0.0393 -0.02,0.0383 -0.01,0.0374 -0.02,0.0364 -0.02,0.0354 -0.03,0.0342 -0.02,0.0331 -0.02,0.0318 -0.03,0.0306 -0.03,0.0292 -0.03,0.0279 -0.03,0.0264 -0.03,0.025 -0.03,0.0234 -0.04,0.0219 -0.03,0.0202 -0.04,0.0186 -0.04,0.0168 -0.03,0.015 -0.04,0.0132 -0.04,0.0113 -0.05,0.0094 -0.04,0.0073 -0.04,0.0054 -0.04,0.0032 -0.05,0.0011 c -0.45,0 -0.84,-0.375 -0.84,-0.8438 0,-0.4531 0.39,-0.8437 0.84,-0.8437 0.47,0 0.85,0.3906 0.85,0.8437 z"
   id="path71"
   inkscape:connector-curvature="0"
   style="fill:#000000;stroke-width:0" />
<path
   d="m 155.42,5.0273 0,0.0437 0,0.0431 -0.01,0.0424 -0.01,0.0417 0,0.0409 -0.02,0.0402 -0.01,0.0393 -0.01,0.0383 -0.02,0.0374 -0.02,0.0364 -0.02,0.0354 -0.02,0.0342 -0.02,0.0331 -0.03,0.0318 -0.03,0.0306 -0.02,0.0292 -0.03,0.0279 -0.03,0.0264 -0.04,0.025 -0.03,0.0234 -0.03,0.0219 -0.04,0.0202 -0.03,0.0186 -0.04,0.0168 -0.04,0.015 -0.04,0.0132 -0.04,0.0113 -0.04,0.0094 -0.04,0.0073 -0.05,0.0054 -0.04,0.0032 -0.04,0.0011 c -0.46,0 -0.85,-0.375 -0.85,-0.8438 0,-0.4531 0.39,-0.8437 0.85,-0.8437 0.47,0 0.84,0.3906 0.84,0.8437 z"
   id="path73"
   inkscape:connector-curvature="0"
   style="fill:#000000;stroke-width:0" />
<path
   d="m 166.95,5.0273 -0.01,0.0437 0,0.0431 0,0.0424 -0.01,0.0417 -0.01,0.0409 -0.01,0.0402 -0.02,0.0393 -0.01,0.0383 -0.02,0.0374 -0.02,0.0364 -0.02,0.0354 -0.02,0.0342 -0.02,0.0331 -0.03,0.0318 -0.02,0.0306 -0.03,0.0292 -0.03,0.0279 -0.03,0.0264 -0.03,0.025 -0.04,0.0234 -0.03,0.0219 -0.04,0.0202 -0.03,0.0186 -0.04,0.0168 -0.04,0.015 -0.04,0.0132 -0.04,0.0113 -0.04,0.0094 -0.04,0.0073 -0.04,0.0054 -0.04,0.0032 -0.05,0.0011 c -0.45,0 -0.84,-0.375 -0.84,-0.8438 0,-0.4531 0.39,-0.8437 0.84,-0.8437 0.47,0 0.85,0.3906 0.85,0.8437 z"
   id="path75"
   inkscape:connector-curvature="0"
   style="fill:#000000;stroke-width:0" />
</g></svg>
