<?xml version="1.0" encoding="UTF-8" standalone="no"?>
<svg
   xmlns:dc="http://purl.org/dc/elements/1.1/"
   xmlns:cc="http://creativecommons.org/ns#"
   xmlns:rdf="http://www.w3.org/1999/02/22-rdf-syntax-ns#"
   xmlns:svg="http://www.w3.org/2000/svg"
   xmlns="http://www.w3.org/2000/svg"
   xmlns:sodipodi="http://sodipodi.sourceforge.net/DTD/sodipodi-0.dtd"
   xmlns:inkscape="http://www.inkscape.org/namespaces/inkscape"
   version="1.1"
   id="body"
   width="225.07669"
   height="50.675858"
   viewBox="0 0 0.31260651 0.070383135"
   preserveAspectRatio="none"
   inkscape:version="0.48.3.1 r9886"
   sodipodi:docname="ch1-Z-G-3.svg">
  <metadata
     id="metadata75">
    <rdf:RDF>
      <cc:Work
         rdf:about="">
        <dc:format>image/svg+xml</dc:format>
        <dc:type
           rdf:resource="http://purl.org/dc/dcmitype/StillImage" />
      </cc:Work>
    </rdf:RDF>
  </metadata>
  <defs
     id="defs73" />
  <sodipodi:namedview
     pagecolor="#ffffff"
     bordercolor="#666666"
     borderopacity="1"
     objecttolerance="10"
     gridtolerance="10"
     guidetolerance="10"
     inkscape:pageopacity="0"
     inkscape:pageshadow="2"
     inkscape:window-width="640"
     inkscape:window-height="480"
     id="namedview71"
     showgrid="false"
     inkscape:zoom="0.32777778"
     inkscape:cx="381.28907"
     inkscape:cy="458.78271"
     inkscape:window-x="0"
     inkscape:window-y="24"
     inkscape:window-maximized="0"
     inkscape:current-layer="body" />
  <title
     id="title3">SVG drawing</title>
  <desc
     id="desc5">This was produced by version 4.4 of GNU libplot, a free library for exporting 2-D vector graphics.</desc>
  <g
     id="content"
     transform="matrix(0.0017361,0,0,-0.0017361,-0.00168185,0.07195612)"
     xml:space="preserve"
     stroke-miterlimit="10.433"
     font-style="normal"
     font-variant="normal"
     font-weight="normal"
     font-stretch="normal"
     font-size-adjust="none"
     letter-spacing="normal"
     word-spacing="normal"
     style="font-style:normal;font-variant:normal;font-weight:normal;font-stretch:normal;letter-spacing:normal;word-spacing:normal;text-anchor:start;fill:none;stroke:#000000;stroke-linecap:butt;stroke-linejoin:miter;stroke-miterlimit:10.43299961;stroke-opacity:1;stroke-dasharray:none;stroke-dashoffset:0">
<path
   d="m 3.0078,36.684 0.0641,-0.02 0.0633,-0.019 0.0625,-0.018 0.0615,-0.016 0.0607,-0.016 0.0597,-0.014 0.0587,-0.014 0.0575,-0.012 0.0565,-0.012 0.0553,-0.011 0.0541,-0.01 0.0528,-0.009 0.0515,-0.008 0.0501,-0.008 0.0488,-0.006 0.0472,-0.007 0.0458,-0.005 0.0441,-0.005 0.0426,-0.004 0.0409,-0.004 0.0393,-0.004 0.0374,-0.003 0.0357,-0.002 0.0338,-0.002 0.0319,-0.002 0.03,-0.001 0.0279,-10e-4 0.0259,-10e-4 0.0239,0 0.0216,-0.001 0.0195,0 0.0173,0 c 1.7969,0 2.9375,1.313 2.9375,1.531 0,0.063 -0.0313,0.141 -0.125,0.141 -0.0313,0 -0.0625,0 -0.2031,-0.062 -0.8907,-0.375 -1.6563,-0.422 -2.0782,-0.422 -1.0468,0 -1.7968,0.312 -2.0937,0.437 -0.1094,0.047 -0.1406,0.047 -0.1563,0.047 -0.125,0 -0.125,-0.094 -0.125,-0.344 v -4.718 c 0,-0.282 0,-0.375 0.1875,-0.375 0.0782,0 0.0938,0.015 0.25,0.203 0.4532,0.64 1.2032,1.031 1.9844,1.031 0.8438,0 1.2656,-0.781 1.3906,-1.047 0.2657,-0.625 0.2813,-1.406 0.2813,-2 0,-0.609 0,-1.516 -0.4375,-2.234 -0.3594,-0.563 -0.9688,-0.969 -1.6719,-0.969 -1.0469,0 -2.0781,0.719 -2.375,1.875 0.0781,-0.031 0.1875,-0.047 0.2656,-0.047 0.2657,0 0.6875,0.156 0.6875,0.703 0,0.438 -0.2968,0.703 -0.6875,0.703 -0.2968,0 -0.7031,-0.156 -0.7031,-0.765 0,-1.36 1.0781,-2.891 2.8438,-2.891 1.7968,0 3.375,1.5 3.375,3.516 0,1.906 -1.2813,3.468 -2.9532,3.468 -0.9062,0 -1.5937,-0.39 -2.0156,-0.843 z"
   id="path9"
   inkscape:connector-curvature="0"
   style="fill:#000000;stroke-width:0" />
<path
   d="m 18.66,31.246 h 4.391 c 0.219,0 0.5,0 0.5,0.281 0,0.313 -0.266,0.313 -0.5,0.313 H 18.66 v 4.375 c 0,0.234 0,0.515 -0.281,0.515 -0.313,0 -0.313,-0.265 -0.313,-0.515 V 31.84 h -4.39 c -0.219,0 -0.5,0 -0.5,-0.297 0,-0.297 0.265,-0.297 0.5,-0.297 h 4.39 v -4.391 c 0,-0.218 0,-0.5 0.297,-0.5 0.297,0 0.297,0.266 0.297,0.5 z"
   id="path11"
   inkscape:connector-curvature="0"
   style="fill:#000000;stroke-width:0" />
<path
   d="m 33.73,37.918 0,0.014 0,0.015 0,0.013 0,0.014 0,0.026 0,0.025 0,0.023 -10e-4,0.022 -10e-4,0.021 -0.001,0.02 -10e-4,0.019 -0.002,0.017 -0.002,0.017 -0.003,0.015 -0.003,0.014 -0.004,0.014 -0.004,0.012 -0.005,0.011 -0.005,0.011 -0.006,0.01 -0.007,0.008 -0.008,0.008 -0.008,0.008 -0.01,0.006 -0.01,0.006 -0.011,0.005 -0.012,0.004 -0.013,0.003 -0.014,0.003 -0.015,0.003 -0.016,10e-4 -0.018,0.002 -0.018,0 -0.01,10e-4 -0.01,0 c -0.125,0 -0.172,0 -0.297,-0.204 l -4.797,-7.421 h 0.406 l 3.86,6 v -6 h -3.86 -0.406 V 30.23 h 4.187 v -1.453 c 0,-0.578 -0.031,-0.75 -1.187,-0.75 H 31.09 v -0.453 c 0.375,0.031 1.625,0.031 2.078,0.031 0.437,0 1.703,0 2.078,-0.031 v 0.453 h -0.312 c -1.157,0 -1.204,0.172 -1.204,0.75 v 1.453 h 1.61 v 0.454 h -1.61 z"
   id="path13"
   inkscape:connector-curvature="0"
   style="fill:#000000;stroke-width:0" />
<path
   d="m 45.695,31.246 h 4.391 c 0.219,0 0.5,0 0.5,0.281 0,0.313 -0.266,0.313 -0.5,0.313 h -4.391 v 4.375 c 0,0.234 0,0.515 -0.281,0.515 -0.312,0 -0.312,-0.265 -0.312,-0.515 V 31.84 h -4.391 c -0.219,0 -0.5,0 -0.5,-0.297 0,-0.297 0.266,-0.297 0.5,-0.297 h 4.391 v -4.391 c 0,-0.218 0,-0.5 0.296,-0.5 0.297,0 0.297,0.266 0.297,0.5 z"
   id="path15"
   inkscape:connector-curvature="0"
   style="fill:#000000;stroke-width:0" />
<path
   d="m 60.203,23.715 0,0.008 0,0.009 -0.001,0.005 -10e-4,0.004 -10e-4,0.005 -0.001,0.005 -0.002,0.005 -0.002,0.006 -0.003,0.006 -0.004,0.006 -0.004,0.007 -0.004,0.007 -0.006,0.008 -0.006,0.009 -0.007,0.009 -0.008,0.01 -0.009,0.01 -0.01,0.011 -0.005,0.006 -0.005,0.007 -0.006,0.006 -0.006,0.007 -0.007,0.006 -0.006,0.008 -0.007,0.007 -0.008,0.007 -0.007,0.008 -0.008,0.008 -0.008,0.009 -0.009,0.008 -0.009,0.009 -0.009,0.009 -0.009,0.01 -0.01,0.009 -0.011,0.011 -0.01,0.01 -0.011,0.011 -0.012,0.01 -0.011,0.012 -0.013,0.011 -0.012,0.012 -0.013,0.013 c -1.578,1.609 -2.469,4.234 -2.469,7.468 0,3.094 0.735,5.735 2.578,7.625 0.172,0.141 0.172,0.172 0.172,0.219 0,0.094 -0.078,0.125 -0.156,0.125 -0.203,0 -1.5,-1.141 -2.281,-2.703 -0.813,-1.609 -1.172,-3.313 -1.172,-5.266 0,-1.406 0.218,-3.297 1.047,-5 0.937,-1.906 2.234,-2.937 2.406,-2.937 0.078,0 0.156,0.031 0.156,0.125 z"
   id="path17"
   inkscape:connector-curvature="0"
   style="fill:#000000;stroke-width:0" />
<path
   d="m 68.098,30.246 h -0.36 C 67.691,29.98 67.566,29.105 67.41,28.84 67.301,28.699 66.395,28.699 65.91,28.699 h -2.937 c 0.422,0.375 1.406,1.391 1.812,1.766 2.422,2.234 3.313,3.047 3.313,4.625 0,1.828 -1.453,3.047 -3.297,3.047 -1.844,0 -2.922,-1.563 -2.922,-2.938 0,-0.812 0.703,-0.812 0.75,-0.812 0.328,0 0.734,0.25 0.734,0.75 0,0.453 -0.297,0.75 -0.734,0.75 -0.156,0 -0.188,0 -0.234,-0.016 0.312,1.078 1.171,1.813 2.203,1.813 1.343,0 2.172,-1.125 2.172,-2.594 0,-1.344 -0.782,-2.531 -1.688,-3.547 l -3.203,-3.594 v -0.375 h 5.797 z"
   id="path19"
   inkscape:connector-curvature="0"
   style="fill:#000000;stroke-width:0" />
<path
   d="m 82.918,31.23 0.053,0.001 0.052,0 0.051,0.002 0.026,0.001 0.025,10e-4 0.024,0.002 0.024,0.003 0.024,0.003 0.023,0.004 0.022,0.004 0.022,0.006 0.021,0.006 0.02,0.007 0.019,0.007 0.019,0.009 0.017,0.01 0.017,0.011 0.015,0.012 0.015,0.013 0.013,0.015 0.012,0.015 0.011,0.018 0.005,0.009 0.005,0.009 0.004,0.01 0.004,0.01 0.004,0.011 0.003,0.011 0.003,0.011 0.002,0.012 0.002,0.012 0.002,0.013 0.002,0.013 0.001,0.014 0,0.014 0,0.014 c 0,0.328 -0.281,0.328 -0.562,0.328 h -8.594 c -0.265,0 -0.562,0 -0.562,-0.328 0,-0.313 0.297,-0.313 0.562,-0.313 z"
   id="path21"
   inkscape:connector-curvature="0"
   style="fill:#000000;stroke-width:0" />
<path
   d="m 93.562,23.715 0,0.008 0,0.009 -10e-4,0.005 0,0.004 -0.001,0.005 -0.002,0.005 -0.002,0.005 -0.002,0.006 -0.003,0.006 -0.003,0.006 -0.004,0.007 -0.005,0.007 -0.005,0.008 -0.007,0.009 -0.007,0.009 -0.008,0.01 -0.008,0.01 -0.01,0.011 -0.005,0.006 -0.006,0.007 -0.006,0.006 -0.006,0.007 -0.006,0.006 -0.007,0.008 -0.007,0.007 -0.007,0.007 -0.008,0.008 -0.008,0.008 -0.008,0.009 -0.008,0.008 -0.009,0.009 -0.009,0.009 -0.01,0.01 -0.01,0.009 -0.01,0.011 -0.011,0.01 -0.011,0.011 -0.011,0.01 -0.012,0.012 -0.012,0.011 -0.013,0.012 -0.013,0.013 c -1.578,1.609 -2.469,4.234 -2.469,7.468 0,3.094 0.735,5.735 2.579,7.625 0.171,0.141 0.171,0.172 0.171,0.219 0,0.094 -0.078,0.125 -0.156,0.125 -0.203,0 -1.5,-1.141 -2.281,-2.703 -0.813,-1.609 -1.172,-3.313 -1.172,-5.266 0,-1.406 0.219,-3.297 1.047,-5 0.938,-1.906 2.234,-2.937 2.406,-2.937 0.078,0 0.156,0.031 0.156,0.125 z"
   id="path23"
   inkscape:connector-curvature="0"
   style="fill:#000000;stroke-width:0" />
<path
   d="m 97.379,33.277 -0.012,0 -0.012,-10e-4 -0.012,-0.001 -0.012,-10e-4 -0.011,0 -0.011,-10e-4 -0.01,-0.001 -0.01,-10e-4 -0.02,-10e-4 -0.019,-0.002 -0.018,-0.002 -0.016,-0.002 -0.016,-0.003 -0.015,-0.002 -0.014,-0.003 -0.013,-0.003 -0.012,-0.003 -0.011,-0.004 -0.01,-0.004 -0.01,-0.004 -0.009,-0.004 -0.008,-0.005 -0.007,-0.006 -0.006,-0.005 -0.006,-0.007 -0.006,-0.006 -0.004,-0.008 -0.004,-0.008 -0.004,-0.008 -0.003,-0.009 -0.002,-0.009 -0.002,-0.01 -0.001,-0.011 -10e-4,-0.012 -0.001,-0.012 0,-0.013 c 0,-0.156 0.078,-0.156 0.359,-0.156 h 0.735 c 1.343,0 1.955,-1.109 1.955,-2.64 0,-2.079 -1.08,-2.641 -1.862,-2.641 -0.765,0 -2.062,0.359 -2.531,1.422 0.516,-0.078 0.969,0.203 0.969,0.765 0,0.469 -0.328,0.782 -0.766,0.782 -0.39,0 -0.797,-0.219 -0.797,-0.828 0,-1.407 1.407,-2.563 3.172,-2.563 1.895,0 3.295,1.438 3.295,3.047 0,1.469 -1.19,2.609 -2.701,2.875 1.371,0.391 2.261,1.562 2.261,2.797 0,1.25 -1.292,2.172 -2.839,2.172 -1.594,0 -2.766,-0.969 -2.766,-2.125 0,-0.641 0.5,-0.766 0.735,-0.766 0.328,0 0.718,0.25 0.718,0.719 0,0.515 -0.39,0.734 -0.734,0.734 -0.094,0 -0.125,0 -0.172,-0.015 0.594,1.078 2.094,1.078 2.172,1.078 0.531,0 1.562,-0.235 1.562,-1.797 0,-0.297 -0.046,-1.188 -0.515,-1.875 -0.469,-0.703 -1.016,-0.75 -1.438,-0.766 z"
   id="path25"
   inkscape:connector-curvature="0"
   style="fill:#000000;stroke-width:0" />
<path
   d="m 116.27,31.23 0.06,0.001 0.05,0 0.05,0.002 0.02,0.001 0.03,10e-4 0.02,0.002 0.03,0.003 0.02,0.003 0.03,0.004 0.02,0.004 0.02,0.006 0.02,0.006 0.02,0.007 0.02,0.007 0.02,0.009 0.02,0.01 0.01,0.011 0.02,0.012 0.01,0.013 0.02,0.015 0.01,0.015 0.01,0.018 0,0.009 0.01,0.009 0,0.01 0.01,0.01 0,0.011 0,0.011 0.01,0.011 0,0.012 0,0.012 0,0.013 0,0.013 0.01,0.014 0,0.014 0,0.014 c 0,0.328 -0.28,0.328 -0.57,0.328 h -8.59 c -0.27,0 -0.56,0 -0.56,-0.328 0,-0.313 0.29,-0.313 0.56,-0.313 z"
   id="path27"
   inkscape:connector-curvature="0"
   style="fill:#000000;stroke-width:0" />
<path
   d="m 126.92,23.715 0,0.008 0,0.009 0,0.005 0,0.004 0,0.005 -0.01,0.005 0,0.005 0,0.006 0,0.006 -0.01,0.006 0,0.007 -0.01,0.007 0,0.008 -0.01,0.009 0,0.009 -0.01,0.01 -0.01,0.01 -0.01,0.011 -0.01,0.006 0,0.007 -0.01,0.006 0,0.007 -0.01,0.006 -0.01,0.008 0,0.007 -0.01,0.007 -0.01,0.008 -0.01,0.008 0,0.009 -0.01,0.008 -0.01,0.009 -0.01,0.009 -0.01,0.01 -0.01,0.009 -0.01,0.011 -0.01,0.01 -0.01,0.011 -0.01,0.01 -0.02,0.012 -0.01,0.011 -0.01,0.012 -0.01,0.013 c -1.58,1.609 -2.47,4.234 -2.47,7.468 0,3.094 0.73,5.735 2.58,7.625 0.17,0.141 0.17,0.172 0.17,0.219 0,0.094 -0.08,0.125 -0.16,0.125 -0.2,0 -1.5,-1.141 -2.28,-2.703 -0.81,-1.609 -1.17,-3.313 -1.17,-5.266 0,-1.406 0.22,-3.297 1.05,-5 0.93,-1.906 2.23,-2.937 2.4,-2.937 0.08,0 0.16,0.031 0.16,0.125 z"
   id="path29"
   inkscape:connector-curvature="0"
   style="fill:#000000;stroke-width:0" />
<path
   d="m 129.77,33.105 0,0.186 0,0.181 0.01,0.176 0.01,0.172 0.01,0.166 0.01,0.162 0.02,0.158 0.02,0.152 0.02,0.149 0.03,0.144 0.02,0.14 0.03,0.135 0.03,0.132 0.03,0.127 0.04,0.123 0.03,0.119 0.04,0.115 0.04,0.112 0.04,0.107 0.05,0.104 0.08,0.196 0.1,0.182 0.1,0.169 0.1,0.155 0.11,0.142 0.11,0.13 0.11,0.119 0.12,0.107 0.11,0.096 0.12,0.086 0.12,0.077 0.12,0.067 0.11,0.058 0.12,0.05 0.11,0.042 0.11,0.035 0.11,0.028 0.1,0.022 0.1,0.017 0.09,0.011 0.09,0.006 0.09,0.002 c 0.58,0 1.14,-0.172 1.45,-0.657 -0.19,0 -0.8,0 -0.8,-0.64 0,-0.36 0.24,-0.656 0.66,-0.656 0.39,0 0.66,0.234 0.66,0.703 0,0.828 -0.6,1.625 -1.99,1.625 -2,0 -4.09,-2.047 -4.09,-5.547 0,-4.36 1.91,-5.344 3.25,-5.344 1.73,0 3.22,1.5 3.22,3.578 0,2.11 -1.49,3.516 -3.08,3.516 l -0.06,-0.313 c 0.87,0 1.34,-0.593 1.58,-1.125 0.24,-0.593 0.24,-1.39 0.24,-2.062 0,-0.813 0,-1.531 -0.29,-2.141 -0.39,-0.765 -0.97,-1.031 -1.61,-1.031 h 0 c -1,0 -1.47,0.891 -1.63,1.219 -0.14,0.422 -0.29,1.203 -0.29,2.312 0,1.25 0.58,2.828 2,2.828 l 0.06,0.313 c -1.41,0 -1.94,-1.219 -2.09,-1.656 z"
   id="path31"
   inkscape:connector-curvature="0"
   style="fill:#000000;stroke-width:0" />
<path
   d="m 145.5,31.246 h 4.39 c 0.21,0 0.5,0 0.5,0.281 0,0.313 -0.27,0.313 -0.5,0.313 h -4.39 v 4.375 c 0,0.234 0,0.515 -0.29,0.515 -0.31,0 -0.31,-0.265 -0.31,-0.515 V 31.84 h -4.39 c -0.22,0 -0.5,0 -0.5,-0.297 0,-0.297 0.27,-0.297 0.5,-0.297 h 4.39 v -4.391 c 0,-0.218 0,-0.5 0.3,-0.5 0.3,0 0.3,0.266 0.3,0.5 z"
   id="path33"
   inkscape:connector-curvature="0"
   style="fill:#000000;stroke-width:0" />
<path
   d="m 159.32,35.695 v -0.968 c 0,-0.407 -0.03,-0.532 -0.84,-0.532 h -0.24 v -0.343 c 0.46,0.031 1.03,0.031 1.5,0.031 0.47,0 1.06,0 1.52,-0.031 v 0.343 h -0.24 c -0.82,0 -0.84,0.125 -0.84,0.532 v 0.968 h 1.11 v 0.344 h -1.11 v 5.078 c 0,0.219 0,0.281 -0.19,0.281 -0.09,0 -0.12,0 -0.22,-0.125 l -3.42,-5.234 h 0.31 l 2.72,4.156 v -4.156 h -2.72 -0.31 v -0.344 z"
   id="path35"
   inkscape:connector-curvature="0"
   style="fill:#000000;stroke-width:0" />
<line
   x1="156.03999"
   y1="31.559"
   x2="161.62"
   y2="31.559"
   id="line37"
   style="stroke-width:0.63800001" />
<path
   d="m 161.05,24.328 0,0.123 -0.01,0.121 -0.01,0.12 -0.02,0.118 -0.02,0.116 -0.03,0.114 -0.03,0.113 -0.04,0.11 -0.04,0.107 -0.05,0.105 -0.05,0.102 -0.05,0.099 -0.06,0.096 -0.06,0.093 -0.07,0.089 -0.07,0.085 -0.07,0.082 -0.08,0.077 -0.08,0.073 -0.08,0.069 -0.09,0.065 -0.08,0.06 -0.1,0.054 -0.09,0.05 -0.1,0.045 -0.1,0.039 -0.1,0.034 -0.1,0.028 -0.11,0.022 -0.11,0.016 -0.11,0.009 -0.11,0.004 c -0.53,0 -1.02,-0.188 -1.42,-0.578 v 2.187 c 0.23,-0.078 0.59,-0.156 0.95,-0.156 1.38,0 2.16,1.015 2.16,1.172 0,0.062 -0.03,0.125 -0.11,0.125 -0.02,0 -0.05,0 -0.1,-0.047 -0.21,-0.094 -0.76,-0.313 -1.51,-0.313 -0.45,0 -0.97,0.078 -1.49,0.313 -0.09,0.031 -0.11,0.031 -0.14,0.031 -0.11,0 -0.11,-0.094 -0.11,-0.266 v -3.312 c 0,-0.203 0,-0.281 0.16,-0.281 0.08,0 0.11,0.031 0.14,0.093 0.13,0.188 0.55,0.782 1.44,0.782 0.59,0 0.86,-0.516 0.95,-0.719 0.19,-0.406 0.2,-0.844 0.2,-1.391 0,-0.39 0,-1.062 -0.26,-1.531 -0.27,-0.437 -0.69,-0.734 -1.19,-0.734 -0.83,0 -1.45,0.593 -1.64,1.25 0.03,0 0.06,-0.016 0.19,-0.016 0.36,0 0.55,0.281 0.55,0.547 0,0.266 -0.19,0.547 -0.55,0.547 -0.16,0 -0.55,-0.078 -0.55,-0.594 0,-0.953 0.77,-2.047 2.02,-2.047 1.29,0 2.43,1.078 2.43,2.5 z"
   id="path39"
   inkscape:connector-curvature="0"
   style="fill:#000000;stroke-width:0" />
<path
   d="m 167.3,31.527 0,0.117 0,0.12 -0.01,0.125 0,0.129 -0.01,0.132 0,0.136 -0.02,0.282 -0.03,0.295 -0.03,0.306 -0.04,0.315 -0.05,0.325 -0.06,0.331 -0.08,0.338 -0.08,0.342 -0.1,0.346 -0.11,0.348 -0.06,0.175 -0.07,0.174 -0.07,0.174 -0.07,0.175 -0.08,0.173 -0.08,0.174 c -0.94,1.906 -2.25,2.937 -2.42,2.937 -0.06,0 -0.14,-0.031 -0.14,-0.125 0,-0.047 0,-0.078 0.26,-0.359 1.6,-1.594 2.49,-4.219 2.49,-7.469 0,-3.078 -0.75,-5.734 -2.6,-7.609 -0.15,-0.141 -0.15,-0.172 -0.15,-0.219 0,-0.094 0.08,-0.125 0.14,-0.125 0.2,0 1.51,1.14 2.29,2.703 0.8,1.609 1.18,3.328 1.18,5.234 z"
   id="path41"
   inkscape:connector-curvature="0"
   style="fill:#000000;stroke-width:0" />
<path
   d="m 173.37,31.527 0,0.117 0,0.12 -0.01,0.125 0,0.129 -0.01,0.132 0,0.136 -0.02,0.282 -0.03,0.295 -0.03,0.306 -0.04,0.315 -0.05,0.325 -0.06,0.331 -0.08,0.338 -0.08,0.342 -0.1,0.346 -0.11,0.348 -0.06,0.175 -0.07,0.174 -0.07,0.174 -0.07,0.175 -0.08,0.173 -0.08,0.174 c -0.94,1.906 -2.25,2.937 -2.42,2.937 -0.06,0 -0.14,-0.031 -0.14,-0.125 0,-0.047 0,-0.078 0.26,-0.359 1.6,-1.594 2.49,-4.219 2.49,-7.469 0,-3.078 -0.75,-5.734 -2.6,-7.609 -0.15,-0.141 -0.15,-0.172 -0.15,-0.219 0,-0.094 0.08,-0.125 0.14,-0.125 0.2,0 1.51,1.14 2.3,2.703 0.79,1.609 1.17,3.328 1.17,5.234 z"
   id="path43"
   inkscape:connector-curvature="0"
   style="fill:#000000;stroke-width:0" />
<path
   d="m 179.43,31.527 0,0.117 0,0.12 0,0.125 0,0.129 -0.01,0.132 -0.01,0.136 -0.01,0.282 -0.03,0.295 -0.03,0.306 -0.04,0.315 -0.06,0.325 -0.06,0.331 -0.07,0.338 -0.09,0.342 -0.09,0.346 -0.12,0.348 -0.06,0.175 -0.06,0.174 -0.07,0.174 -0.07,0.175 -0.08,0.173 -0.08,0.174 c -0.94,1.906 -2.25,2.937 -2.43,2.937 -0.06,0 -0.14,-0.031 -0.14,-0.125 0,-0.047 0,-0.078 0.27,-0.359 1.59,-1.594 2.48,-4.219 2.48,-7.469 0,-3.078 -0.75,-5.734 -2.59,-7.609 -0.16,-0.141 -0.16,-0.172 -0.16,-0.219 0,-0.094 0.08,-0.125 0.14,-0.125 0.21,0 1.52,1.14 2.3,2.703 0.8,1.609 1.17,3.328 1.17,5.234 z"
   id="path45"
   inkscape:connector-curvature="0"
   style="fill:#000000;stroke-width:0" />
<line
   x1="0.97656"
   y1="19.848"
   x2="181.02"
   y2="19.848"
   id="line47"
   style="stroke-width:0.63800001" />
<path
   d="m 42.789,10.629 -0.012,-10e-4 -0.012,-10e-4 -0.012,0 -0.011,-0.001 -0.012,-10e-4 -0.01,-10e-4 -0.011,0 -0.01,-0.001 -0.02,-0.002 -0.019,-0.002 -0.018,-0.002 -0.016,-0.002 -0.016,-0.002 -0.015,-0.003 -0.014,-0.002 -0.013,-0.003 -0.012,-0.004 -0.011,-0.003 -0.01,-0.004 -0.01,-0.004 -0.008,-0.005 -0.008,-0.005 -0.008,-0.005 -0.006,-0.006 -0.006,-0.006 -0.005,-0.007 -0.005,-0.007 -0.004,-0.008 -0.004,-0.008 -0.003,-0.009 -0.002,-0.01 -0.002,-0.01 -10e-4,-0.011 -10e-4,-0.011 -0.001,-0.012 0,-0.013 c 0,-0.156 0.078,-0.156 0.359,-0.156 h 0.735 c 1.343,0 1.953,-1.1096 1.953,-2.6408 0,-2.0782 -1.078,-2.6407 -1.86,-2.6407 -0.765,0 -2.062,0.3594 -2.531,1.4219 0.516,-0.0781 0.969,0.2031 0.969,0.7656 0,0.4688 -0.328,0.7813 -0.766,0.7813 -0.39,0 -0.797,-0.2188 -0.797,-0.8281 0,-1.4063 1.407,-2.5625 3.172,-2.5625 1.891,0 3.297,1.4375 3.297,3.0468 0,1.4688 -1.187,2.6095 -2.703,2.8745 1.375,0.391 2.266,1.563 2.266,2.797 0,1.25 -1.297,2.172 -2.844,2.172 -1.594,0 -2.766,-0.969 -2.766,-2.125 0,-0.64 0.5,-0.765 0.735,-0.765 0.328,0 0.718,0.25 0.718,0.718 0,0.516 -0.39,0.735 -0.734,0.735 -0.094,0 -0.125,0 -0.172,-0.016 0.594,1.078 2.094,1.078 2.172,1.078 0.531,0 1.563,-0.234 1.563,-1.797 0,-0.297 -0.047,-1.187 -0.516,-1.875 -0.469,-0.703 -1.016,-0.75 -1.438,-0.765 z"
   id="path49"
   inkscape:connector-curvature="0"
   style="fill:#000000;stroke-width:0" />
<path
   d="m 52.844,1.0664 0,0.0087 -10e-4,0.0086 0,0.0045 -0.001,0.0046 -10e-4,0.0047 -0.002,0.005 -10e-4,0.0053 -0.003,0.0056 -0.003,0.006 L 52.829,1.1257 52.825,1.1326 52.82,1.1399 52.815,1.1478 52.809,1.1563 52.802,1.1654 52.794,1.1752 52.785,1.1857 52.775,1.197 52.77,1.203 52.764,1.2092 52.758,1.2156 52.752,1.2222 52.746,1.229 52.739,1.2361 52.732,1.2434 52.725,1.251 52.718,1.2588 52.71,1.2669 52.701,1.2752 52.693,1.2838 52.684,1.2927 52.675,1.3019 52.665,1.3113 52.655,1.321 52.645,1.3311 52.634,1.3414 52.623,1.3521 52.612,1.363 52.6,1.3743 52.588,1.3859 52.575,1.3979 52.562,1.4102 c -1.578,1.6093 -2.468,4.2343 -2.468,7.4687 0,3.0941 0.734,5.7341 2.578,7.6251 0.172,0.141 0.172,0.172 0.172,0.219 0,0.093 -0.078,0.125 -0.156,0.125 -0.204,0 -1.5,-1.141 -2.282,-2.704 -0.812,-1.609 -1.172,-3.312 -1.172,-5.2651 0,-1.4062 0.219,-3.2969 1.047,-5 0.938,-1.9062 2.235,-2.93749 2.407,-2.93749 0.078,0 0.156,0.03125 0.156,0.12499 z"
   id="path51"
   inkscape:connector-curvature="0"
   style="fill:#000000;stroke-width:0" />
<path
   d="m 55.691,10.457 0.002,0.186 0.004,0.181 0.007,0.176 0.01,0.171 0.012,0.167 0.014,0.162 0.018,0.157 0.019,0.153 0.022,0.148 0.024,0.145 0.026,0.139 0.028,0.136 0.031,0.131 0.032,0.127 0.034,0.124 0.036,0.119 0.038,0.115 0.039,0.111 0.041,0.108 0.043,0.103 0.089,0.197 0.095,0.182 0.099,0.168 0.104,0.156 0.107,0.142 0.11,0.13 0.113,0.118 0.115,0.107 0.116,0.097 0.117,0.086 0.118,0.076 0.117,0.067 0.116,0.058 0.115,0.05 0.113,0.043 0.11,0.035 0.108,0.028 0.103,0.022 0.1,0.016 0.095,0.011 0.089,0.006 0.084,0.002 c 0.578,0 1.141,-0.172 1.453,-0.656 -0.187,0 -0.797,0 -0.797,-0.641 0,-0.359 0.235,-0.656 0.656,-0.656 0.391,0 0.657,0.234 0.657,0.703 0,0.828 -0.594,1.625 -1.985,1.625 -2,0 -4.093,-2.047 -4.093,-5.5466 0,-4.3594 1.906,-5.3437 3.25,-5.3437 1.734,0 3.218,1.5 3.218,3.5781 0,2.1092 -1.484,3.5152 -3.078,3.5152 l -0.062,-0.312 c 0.875,0 1.343,-0.594 1.578,-1.125 0.25,-0.5938 0.25,-1.3907 0.25,-2.0626 0,-0.8125 0,-1.5312 -0.297,-2.1406 C 58.863,5.2852 58.285,5.0195 57.645,5.0195 h 0 c -1,0 -1.469,0.8907 -1.625,1.2188 -0.141,0.4219 -0.297,1.2031 -0.297,2.3125 0,1.25 0.578,2.8282 2,2.8282 l 0.062,0.312 c -1.406,0 -1.937,-1.218 -2.094,-1.656 z"
   id="path53"
   inkscape:connector-curvature="0"
   style="fill:#000000;stroke-width:0" />
<path
   d="m 75.559,8.582 0.052,10e-5 0.053,5e-4 0.051,0.0015 0.025,0.0012 0.025,0.0016 0.025,0.0021 0.024,0.0026 0.023,0.0031 0.023,0.0038 0.022,0.0045 0.022,0.0052 0.021,0.006 0.02,0.0069 0.02,0.0078 0.018,0.0087 0.018,0.0098 0.016,0.0109 0.016,0.0121 0.014,0.0132 0.014,0.0145 0.012,0.0158 0.011,0.0171 0.005,0.0092 0.004,0.0094 0.005,0.0099 0.004,0.0102 0.003,0.0107 0.003,0.011 0.003,0.0114 0.003,0.0118 0.002,0.0123 0.002,0.0126 0.001,0.0131 0.001,0.0135 10e-4,0.014 0,0.0144 c 0,0.3282 -0.281,0.3282 -0.562,0.3282 h -8.594 c -0.266,0 -0.563,0 -0.563,-0.3282 0,-0.3125 0.297,-0.3125 0.563,-0.3125 z"
   id="path55"
   inkscape:connector-curvature="0"
   style="fill:#000000;stroke-width:0" />
<path
   d="M 88.027,7.5977 H 87.668 C 87.621,7.332 87.496,6.457 87.34,6.1914 87.23,6.0508 86.324,6.0508 85.84,6.0508 h -2.938 c 0.422,0.375 1.407,1.3906 1.813,1.7656 2.422,2.2346 3.312,3.0466 3.312,4.6246 0,1.828 -1.453,3.047 -3.297,3.047 -1.843,0 -2.921,-1.562 -2.921,-2.937 0,-0.813 0.703,-0.813 0.75,-0.813 0.328,0 0.734,0.25 0.734,0.75 0,0.453 -0.297,0.75 -0.734,0.75 -0.157,0 -0.188,0 -0.235,-0.015 0.313,1.078 1.172,1.812 2.203,1.812 1.344,0 2.172,-1.125 2.172,-2.594 0,-1.343 -0.781,-2.5308 -1.687,-3.5465 L 81.809,5.3008 v -0.375 h 5.796 z"
   id="path57"
   inkscape:connector-curvature="0"
   style="fill:#000000;stroke-width:0" />
<path
   d="m 93.316,8.8789 0,0.1164 -0.002,0.1207 -0.002,0.1247 -0.004,0.1287 -0.005,0.1324 -0.007,0.136 -0.018,0.2821 -0.025,0.2951 -0.033,0.305 -0.042,0.316 -0.051,0.324 -0.062,0.332 -0.073,0.337 -0.085,0.343 -0.098,0.346 -0.112,0.348 -0.062,0.174 -0.065,0.175 -0.069,0.174 -0.073,0.174 -0.077,0.174 -0.081,0.173 c -0.938,1.906 -2.25,2.938 -2.422,2.938 -0.063,0 -0.141,-0.032 -0.141,-0.125 0,-0.047 0,-0.078 0.266,-0.36 1.593,-1.594 2.484,-4.219 2.484,-7.4685 0,-3.0781 -0.75,-5.7343 -2.594,-7.6093 -0.156,-0.1407 -0.156,-0.1719 -0.156,-0.2188 0,-0.09374 0.078,-0.12499 0.141,-0.12499 0.203,0 1.515,1.14059 2.297,2.70309 0.796,1.6094 1.171,3.3282 1.171,5.2344 z"
   id="path59"
   inkscape:connector-curvature="0"
   style="fill:#000000;stroke-width:0" />
<path
   d="m 100.07,1.0664 0,0.0087 0,0.0086 0,0.0045 0,0.0046 0,0.0047 0,0.005 -0.01,0.0053 0,0.0056 0,0.006 0,0.0063 -0.01,0.0069 0,0.0073 -0.01,0.0079 -0.01,0.0085 0,0.0091 -0.01,0.0098 -0.01,0.0105 L 100,1.197 99.996,1.203 99.991,1.2092 99.985,1.2156 99.979,1.2222 99.972,1.229 99.966,1.2361 99.959,1.2434 99.951,1.251 99.944,1.2588 99.936,1.2669 99.928,1.2752 99.919,1.2838 99.91,1.2927 99.901,1.3019 99.892,1.3113 99.882,1.321 99.872,1.3311 99.861,1.3414 99.85,1.3521 99.839,1.363 99.827,1.3743 99.815,1.3859 99.802,1.3979 99.789,1.4102 c -1.578,1.6093 -2.469,4.2343 -2.469,7.4687 0,3.0941 0.735,5.7341 2.578,7.6251 0.172,0.141 0.172,0.172 0.172,0.219 0,0.093 -0.078,0.125 -0.156,0.125 -0.203,0 -1.5,-1.141 -2.281,-2.704 -0.813,-1.609 -1.172,-3.312 -1.172,-5.2651 0,-1.4062 0.219,-3.2969 1.047,-5 0.937,-1.9062 2.234,-2.93749 2.406,-2.93749 0.078,0 0.156,0.03125 0.156,0.12499 z"
   id="path61"
   inkscape:connector-curvature="0"
   style="fill:#000000;stroke-width:0" />
<path
   d="m 107.96,7.5977 h -0.35 C 107.56,7.332 107.43,6.457 107.28,6.1914 107.17,6.0508 106.26,6.0508 105.78,6.0508 h -2.94 c 0.42,0.375 1.41,1.3906 1.81,1.7656 2.42,2.2346 3.31,3.0466 3.31,4.6246 0,1.828 -1.45,3.047 -3.29,3.047 -1.85,0 -2.92,-1.562 -2.92,-2.937 0,-0.813 0.7,-0.813 0.75,-0.813 0.32,0 0.73,0.25 0.73,0.75 0,0.453 -0.3,0.75 -0.73,0.75 -0.16,0 -0.19,0 -0.24,-0.015 0.31,1.078 1.17,1.812 2.2,1.812 1.35,0 2.18,-1.125 2.18,-2.594 0,-1.343 -0.78,-2.5308 -1.69,-3.5465 l -3.2,-3.5937 v -0.375 h 5.79 z"
   id="path63"
   inkscape:connector-curvature="0"
   style="fill:#000000;stroke-width:0" />
<path
   d="m 122.79,8.582 0.05,10e-5 0.05,5e-4 0.05,0.0015 0.03,0.0012 0.02,0.0016 0.03,0.0021 0.02,0.0026 0.02,0.0031 0.03,0.0038 0.02,0.0045 0.02,0.0052 0.02,0.006 0.02,0.0069 0.02,0.0078 0.02,0.0087 0.02,0.0098 0.01,0.0109 0.02,0.0121 0.01,0.0132 0.02,0.0145 0.01,0.0158 0.01,0.0171 0.01,0.0092 0,0.0094 0,0.0099 0.01,0.0102 0,0.0107 0.01,0.011 0,0.0114 0,0.0118 0,0.0123 0,0.0126 0.01,0.0131 0,0.0135 0,0.014 0,0.0144 c 0,0.3282 -0.28,0.3282 -0.56,0.3282 h -8.6 c -0.26,0 -0.56,0 -0.56,-0.3282 0,-0.3125 0.3,-0.3125 0.56,-0.3125 z"
   id="path65"
   inkscape:connector-curvature="0"
   style="fill:#000000;stroke-width:0" />
<path
   d="m 135.8,14.801 v 0.359 h -3.82 c -1.93,0 -1.96,0.203 -2.02,0.516 h -0.36 l -0.48,-3.188 h 0.34 c 0.05,0.297 0.2,1.281 0.41,1.453 0.12,0.094 1.31,0.094 1.53,0.094 h 3.37 l -1.68,-2.422 c -0.43,-0.609 -2.04,-3.2185 -2.04,-6.2028 0,-0.1875 0,-0.8125 0.66,-0.8125 0.66,0 0.66,0.6093 0.66,0.8281 V 6.207 c 0,2.375 0.39,4.219 1.14,5.281 z"
   id="path67"
   inkscape:connector-curvature="0"
   style="fill:#000000;stroke-width:0" />
<path
   d="m 140.54,8.8789 0,0.1164 0,0.1207 0,0.1247 -0.01,0.1287 0,0.1324 -0.01,0.136 -0.02,0.2821 -0.02,0.2951 -0.03,0.305 -0.05,0.316 -0.05,0.324 -0.06,0.332 -0.07,0.337 -0.09,0.343 -0.09,0.346 -0.12,0.348 -0.06,0.174 -0.06,0.175 -0.07,0.174 -0.08,0.174 -0.07,0.174 -0.08,0.173 c -0.94,1.906 -2.25,2.938 -2.43,2.938 -0.06,0 -0.14,-0.032 -0.14,-0.125 0,-0.047 0,-0.078 0.27,-0.36 1.59,-1.594 2.48,-4.219 2.48,-7.4685 0,-3.0781 -0.75,-5.7343 -2.59,-7.6093 -0.16,-0.1407 -0.16,-0.1719 -0.16,-0.2188 0,-0.09374 0.08,-0.12499 0.14,-0.12499 0.21,0 1.52,1.14059 2.3,2.70309 0.8,1.6094 1.17,3.3282 1.17,5.2344 z"
   id="path69"
   inkscape:connector-curvature="0"
   style="fill:#000000;stroke-width:0" />
</g></svg>
