<?xml version="1.0" encoding="UTF-8" standalone="no"?>
<svg
   xmlns:dc="http://purl.org/dc/elements/1.1/"
   xmlns:cc="http://creativecommons.org/ns#"
   xmlns:rdf="http://www.w3.org/1999/02/22-rdf-syntax-ns#"
   xmlns:svg="http://www.w3.org/2000/svg"
   xmlns="http://www.w3.org/2000/svg"
   xmlns:sodipodi="http://sodipodi.sourceforge.net/DTD/sodipodi-0.dtd"
   xmlns:inkscape="http://www.inkscape.org/namespaces/inkscape"
   version="1.1"
   id="body"
   width="207.14711"
   height="75.312019"
   viewBox="0 0 0.28770432 0.10460003"
   preserveAspectRatio="none"
   inkscape:version="0.48.3.1 r9886"
   sodipodi:docname="ch1-Z-G-32.svg">
  <metadata
     id="metadata73">
    <rdf:RDF>
      <cc:Work
         rdf:about="">
        <dc:format>image/svg+xml</dc:format>
        <dc:type
           rdf:resource="http://purl.org/dc/dcmitype/StillImage" />
      </cc:Work>
    </rdf:RDF>
  </metadata>
  <defs
     id="defs71" />
  <sodipodi:namedview
     pagecolor="#ffffff"
     bordercolor="#666666"
     borderopacity="1"
     objecttolerance="10"
     gridtolerance="10"
     guidetolerance="10"
     inkscape:pageopacity="0"
     inkscape:pageshadow="2"
     inkscape:window-width="640"
     inkscape:window-height="480"
     id="namedview69"
     showgrid="false"
     inkscape:zoom="0.32777778"
     inkscape:cx="381.95313"
     inkscape:cy="494.60938"
     inkscape:window-x="0"
     inkscape:window-y="24"
     inkscape:window-maximized="0"
     inkscape:current-layer="body" />
  <title
     id="title3">SVG drawing</title>
  <desc
     id="desc5">This was produced by version 4.4 of GNU libplot, a free library for exporting 2-D vector graphics.</desc>
  <g
     id="content"
     transform="matrix(0.0017361,0,0,-0.0017361,-7.5954375e-4,0.10514256)"
     xml:space="preserve"
     stroke-miterlimit="10.433"
     font-style="normal"
     font-variant="normal"
     font-weight="normal"
     font-stretch="normal"
     font-size-adjust="none"
     letter-spacing="normal"
     word-spacing="normal"
     style="font-style:normal;font-variant:normal;font-weight:normal;font-stretch:normal;letter-spacing:normal;word-spacing:normal;text-anchor:start;fill:none;stroke:#000000;stroke-linecap:butt;stroke-linejoin:miter;stroke-miterlimit:10.43299961;stroke-opacity:1;stroke-dasharray:none;stroke-dashoffset:0">
<path
   d="m 42.852,55.914 -0.017,0.04 -0.019,0.042 -0.019,0.042 -0.022,0.043 -0.023,0.044 -0.024,0.044 -0.027,0.044 -0.028,0.045 -0.029,0.045 -0.032,0.044 -0.033,0.045 -0.034,0.044 -0.037,0.043 -0.039,0.042 -0.04,0.042 -0.042,0.041 -0.044,0.039 -0.047,0.038 -0.048,0.036 -0.05,0.035 -0.052,0.032 -0.054,0.031 -0.057,0.029 -0.058,0.026 -0.061,0.024 -0.062,0.021 -0.065,0.018 -0.067,0.015 -0.07,0.012 -0.072,0.009 -0.074,0.006 -0.076,0.002 c -1.797,0 -3.735,-2.329 -3.735,-4.672 0,-1.578 0.922,-2.5 2,-2.5 l 0.047,0.312 c -0.656,0 -1.015,0.594 -1.015,1.531 0,0.875 0.484,2.657 0.796,3.313 0.532,1.125 1.282,1.687 1.907,1.687 1.047,0 1.25,-1.296 1.25,-1.421 0,-0.016 -0.047,-0.235 -0.063,-0.266 l -0.781,-3.109 c -0.078,-0.266 -0.078,-0.297 -0.297,-0.61 -0.359,-0.437 -1.047,-1.125 -1.797,-1.125 l -0.047,-0.312 c 0.875,0 1.625,0.687 2.063,1.203 0.156,-0.938 0.906,-1.203 1.39,-1.203 0.469,0 0.86,0.281 1.141,0.859 0.25,0.531 0.469,1.5 0.469,1.563 0,0.093 -0.063,0.156 -0.156,0.156 -0.141,0 -0.157,-0.078 -0.219,-0.328 -0.235,-0.938 -0.547,-1.938 -1.188,-1.938 -0.468,0 -0.5,0.422 -0.5,0.735 0,0.359 0.047,0.546 0.188,1.156 0.109,0.406 0.203,0.75 0.328,1.219 0.578,2.375 0.719,2.953 0.719,3.046 0,0.219 -0.172,0.391 -0.407,0.391 -0.515,0 -0.64,-0.547 -0.671,-0.75 z"
   id="path9"
   inkscape:connector-curvature="0"
   style="fill:#000000;stroke-width:0" />
<path
   d="m 64.836,55.117 0.042,0 0.042,0.001 0.043,10e-4 0.022,10e-4 0.021,0.002 0.022,10e-4 0.021,0.003 0.021,0.003 0.02,0.003 0.02,0.004 0.02,0.005 0.019,0.005 0.019,0.006 0.018,0.007 0.017,0.008 0.017,0.009 0.015,0.01 0.015,0.011 0.014,0.012 0.013,0.013 0.012,0.014 0.005,0.007 0.005,0.008 0.005,0.008 0.005,0.009 0.004,0.009 0.004,0.009 0.003,0.01 0.003,0.01 0.003,0.01 0.003,0.01 0.002,0.012 0.002,0.011 0.001,0.012 10e-4,0.012 0.001,0.012 0,0.013 c 0,0.297 -0.266,0.297 -0.5,0.297 h -9.375 c -0.219,0 -0.5,0 -0.5,-0.281 0,-0.297 0.266,-0.297 0.5,-0.297 z"
   id="path11"
   inkscape:connector-curvature="0"
   style="fill:#000000;stroke-width:0" />
<path
   d="m 64.836,52.148 0.042,0 0.042,10e-4 0.043,10e-4 0.022,0.002 0.021,10e-4 0.022,0.002 0.021,0.002 0.021,0.003 0.02,0.004 0.02,0.004 0.02,0.005 0.019,0.006 0.019,0.007 0.018,0.007 0.017,0.008 0.017,0.01 0.015,0.01 0.015,0.011 0.014,0.013 0.013,0.014 0.012,0.015 0.005,0.008 0.005,0.008 0.005,0.009 0.005,0.009 0.004,0.009 0.004,0.01 0.003,0.01 0.003,0.01 0.003,0.011 0.003,0.011 0.002,0.012 0.002,0.012 0.001,0.012 10e-4,0.013 0.001,0.014 0,0.013 c 0,0.297 -0.266,0.297 -0.5,0.297 h -9.375 c -0.219,0 -0.5,0 -0.5,-0.281 0,-0.313 0.266,-0.313 0.5,-0.313 z"
   id="path13"
   inkscape:connector-curvature="0"
   style="fill:#000000;stroke-width:0" />
<path
   d="m 79.68,60.148 0,0.017 0,0.016 0,0.016 0,0.015 0,0.014 -0.001,0.015 0,0.013 0,0.014 0,0.013 0,0.012 -0.001,0.012 0,0.011 -10e-4,0.012 -0.001,0.01 0,0.011 -0.001,0.01 -10e-4,0.009 -0.001,0.009 -0.001,0.009 -0.002,0.009 -0.001,0.008 -0.002,0.007 -0.002,0.008 -0.002,0.007 -0.004,0.013 -0.005,0.012 -0.006,0.011 -0.007,0.01 -0.008,0.008 -0.009,0.008 -0.01,0.007 -0.011,0.006 -0.012,0.005 -0.013,0.004 -0.014,0.003 -0.008,0.002 -0.008,10e-4 -0.009,0.002 -0.008,10e-4 -0.009,10e-4 -0.01,0.001 -0.01,0 -0.01,10e-4 -0.011,10e-4 -0.011,0 -0.011,0 -0.012,0.001 -0.012,0 -0.013,0 -0.013,0 -0.013,0 -0.014,0 -0.015,0 c -0.39,-0.421 -1.187,-1.015 -2.812,-1.015 v -0.453 c 0.359,0 1.156,0 2.031,0.406 V 51.18 c 0,-0.563 -0.047,-0.766 -1.453,-0.766 h -0.485 v -0.453 c 0.422,0.031 1.969,0.031 2.485,0.031 0.531,0 2.062,0 2.484,-0.031 v 0.453 h -0.484 c -1.406,0 -1.453,0.203 -1.453,0.766 z"
   id="path15"
   inkscape:connector-curvature="0"
   style="fill:#000000;stroke-width:0" />
<path
   d="m 92.789,53.633 h 4.391 c 0.218,0 0.5,0 0.5,0.281 0,0.313 -0.266,0.313 -0.5,0.313 h -4.391 v 4.375 c 0,0.234 0,0.515 -0.281,0.515 -0.313,0 -0.313,-0.265 -0.313,-0.515 v -4.375 h -4.39 c -0.219,0 -0.5,0 -0.5,-0.297 0,-0.297 0.265,-0.297 0.5,-0.297 h 4.39 v -4.391 c 0,-0.219 0,-0.5 0.297,-0.5 0.297,0 0.297,0.266 0.297,0.5 z"
   id="path17"
   inkscape:connector-curvature="0"
   style="fill:#000000;stroke-width:0" />
<path
   d="m 109.66,56.445 -0.05,-0.009 -0.04,-0.011 -0.05,-0.013 -0.04,-0.014 -0.04,-0.016 -0.03,-0.017 -0.04,-0.018 -0.03,-0.019 -0.04,-0.021 -0.03,-0.021 -0.03,-0.023 -0.03,-0.024 -0.02,-0.024 -0.03,-0.025 -0.02,-0.026 -0.02,-0.027 -0.02,-0.028 -0.02,-0.028 -0.02,-0.028 -0.02,-0.029 -0.01,-0.029 -0.01,-0.03 -0.02,-0.03 -0.01,-0.03 -0.01,-0.03 0,-0.031 -0.01,-0.03 -0.01,-0.03 0,-0.031 0,-0.03 -0.01,-0.029 0,-0.03 c 0,-0.375 0.32,-0.5 0.53,-0.5 0.47,0 0.82,0.406 0.82,0.844 0,0.656 -0.77,0.969 -1.44,0.969 -0.97,0 -1.5,-0.954 -1.64,-1.266 -0.38,1.203 -1.36,1.266 -1.64,1.266 -1.63,0 -2.49,-2.094 -2.49,-2.438 0,-0.062 0.07,-0.141 0.18,-0.141 0.12,0 0.15,0.094 0.18,0.157 0.55,1.765 1.61,2.093 2.08,2.093 0.7,0 0.86,-0.656 0.86,-1.046 0,-0.344 -0.09,-0.719 -0.3,-1.469 l -0.53,-2.188 c -0.25,-0.953 -0.7,-1.828 -1.54,-1.828 -0.08,0 -0.47,0 -0.82,0.203 0.58,0.125 0.71,0.594 0.71,0.782 0,0.328 -0.24,0.515 -0.55,0.515 -0.38,0 -0.8,-0.344 -0.8,-0.844 0,-0.671 0.75,-0.968 1.44,-0.968 0.77,0 1.3,0.593 1.64,1.25 0.25,-0.938 1.05,-1.25 1.64,-1.25 1.61,0 2.47,2.078 2.47,2.422 0,0.093 -0.06,0.156 -0.16,0.156 -0.14,0 -0.15,-0.078 -0.2,-0.219 -0.44,-1.391 -1.36,-2.047 -2.06,-2.047 -0.56,0 -0.86,0.422 -0.86,1.063 0,0.359 0.06,0.609 0.31,1.656 l 0.56,2.156 c 0.24,0.953 0.77,1.656 1.5,1.656 0.04,0 0.49,0 0.82,-0.203 z"
   id="path19"
   inkscape:connector-curvature="0"
   style="fill:#000000;stroke-width:0" />
<path
   d="m 115.18,48.18 -0.08,-0.114 -0.09,-0.11 -0.1,-0.108 -0.09,-0.104 -0.05,-0.05 -0.05,-0.049 -0.06,-0.048 -0.05,-0.046 -0.05,-0.045 -0.06,-0.043 -0.05,-0.042 -0.06,-0.04 -0.06,-0.038 -0.06,-0.037 -0.06,-0.034 -0.06,-0.033 -0.06,-0.03 -0.06,-0.028 -0.07,-0.026 -0.06,-0.023 -0.07,-0.021 -0.06,-0.019 -0.07,-0.016 -0.07,-0.013 -0.07,-0.01 -0.07,-0.008 -0.07,-0.004 -0.07,-0.002 c -0.2,0 -0.95,0.031 -1.2,0.766 0.04,-0.016 0.12,-0.016 0.16,-0.016 0.48,0 0.79,0.406 0.79,0.766 0,0.375 -0.29,0.5 -0.53,0.5 -0.26,0 -0.81,-0.188 -0.81,-0.969 0,-0.813 0.68,-1.375 1.59,-1.375 1.58,0 3.19,1.469 3.63,3.234 l 1.56,6.203 c 0.02,0.079 0.05,0.172 0.05,0.266 0,0.234 -0.19,0.391 -0.43,0.391 -0.14,0 -0.48,-0.063 -0.6,-0.532 l -1.18,-4.671 c -0.07,-0.297 -0.07,-0.329 -0.2,-0.5 -0.33,-0.438 -0.84,-0.985 -1.61,-0.985 -0.89,0 -0.97,0.875 -0.97,1.313 0,0.906 0.42,2.125 0.86,3.265 0.17,0.469 0.27,0.688 0.27,1 0,0.672 -0.47,1.282 -1.25,1.282 -1.47,0 -2.07,-2.313 -2.07,-2.438 0,-0.062 0.08,-0.141 0.19,-0.141 0.14,0 0.16,0.063 0.22,0.282 0.37,1.343 0.99,1.968 1.61,1.968 0.14,0 0.41,0 0.41,-0.515 0,-0.422 -0.18,-0.875 -0.41,-1.485 -0.78,-2.078 -0.78,-2.609 -0.78,-2.984 0,-1.516 1.08,-1.859 1.87,-1.859 0.46,0 1.04,0.14 1.6,0.734 l 0.01,-0.016 c -0.25,-0.937 -0.4,-1.562 -0.95,-2.343 z"
   id="path21"
   inkscape:connector-curvature="0"
   style="fill:#000000;stroke-width:0" />
<path
   d="m 42.281,38.484 0.002,0.006 10e-4,0.006 0.002,0.007 0.002,0.006 0.003,0.014 0.004,0.013 0.004,0.015 0.004,0.014 0.004,0.015 0.004,0.016 0.003,0.015 0.003,0.016 0.003,0.015 0.003,0.016 0.002,0.015 0.002,0.016 0,0.007 0.001,0.008 0,0.007 0,0.008 c 0,0.156 -0.156,0.156 -0.187,0.156 -0.016,0 -0.594,-0.047 -0.875,-0.078 C 41,38.781 40.75,38.75 40.469,38.734 c -0.375,-0.031 -0.5,-0.046 -0.5,-0.343 0,-0.157 0.172,-0.157 0.328,-0.157 0.812,0 0.812,-0.14 0.812,-0.296 0,-0.11 -0.125,-0.579 -0.203,-0.86 l -0.375,-1.531 c -0.156,-0.625 -1.062,-4.235 -1.125,-4.531 -0.078,-0.391 -0.078,-0.657 -0.078,-0.875 0,-1.61 0.906,-2.453 1.938,-2.453 L 41.281,28 c -0.515,0 -1.062,0.391 -1.062,1.625 0,0.516 0.047,0.828 0.328,1.937 0.047,0.204 0.297,1.219 0.359,1.438 0.047,0.125 0.985,1.531 2.063,1.531 0.687,0 1.015,-0.703 1.015,-1.515 0,-0.766 -0.453,-2.563 -0.843,-3.391 C 42.734,28.766 42.016,28 41.281,28 h 0 l -0.015,-0.312 c 1.843,0 3.75,2.359 3.75,4.671 0,1.453 -0.828,2.5 -2.016,2.5 -0.828,0 -1.578,-0.687 -1.875,-1 z"
   id="path23"
   inkscape:connector-curvature="0"
   style="fill:#000000;stroke-width:0" />
<path
   d="m 64.836,33 0.042,0 0.042,10e-4 0.043,0.001 0.022,10e-4 0.021,10e-4 0.022,0.002 0.021,0.003 0.021,0.002 0.02,0.004 0.02,0.004 0.02,0.005 0.019,0.005 0.019,0.006 0.018,0.007 0.017,0.008 0.017,0.009 0.015,0.01 0.015,0.01 0.014,0.012 0.013,0.013 0.012,0.015 0.005,0.007 0.005,0.008 0.005,0.008 0.005,0.009 0.004,0.009 0.004,0.009 0.003,0.009 0.003,0.01 0.003,0.011 0.003,0.01 0.002,0.011 0.002,0.012 0.001,0.011 10e-4,0.013 0.001,0.012 0,0.013 c 0,0.297 -0.266,0.297 -0.5,0.297 h -9.375 c -0.219,0 -0.5,0 -0.5,-0.281 C 54.961,33 55.227,33 55.461,33 z"
   id="path25"
   inkscape:connector-curvature="0"
   style="fill:#000000;stroke-width:0" />
<path
   d="m 64.836,30.031 0.042,0 0.042,0.001 0.043,0.001 0.022,10e-4 0.021,0.002 0.022,0.002 0.021,0.002 0.021,0.003 0.02,0.004 0.02,0.004 0.02,0.005 0.019,0.006 0.019,0.006 0.018,0.008 0.017,0.008 0.017,0.009 0.015,0.011 0.015,0.011 0.014,0.013 0.013,0.013 0.012,0.015 0.005,0.008 0.005,0.009 0.005,0.008 0.005,0.009 0.004,0.01 0.004,0.01 0.003,0.01 0.003,0.01 0.003,0.011 0.003,0.011 0.002,0.012 0.002,0.012 0.001,0.012 10e-4,0.013 0.001,0.013 0,0.014 c 0,0.297 -0.266,0.297 -0.5,0.297 h -9.375 c -0.219,0 -0.5,0 -0.5,-0.281 0,-0.313 0.266,-0.313 0.5,-0.313 z"
   id="path27"
   inkscape:connector-curvature="0"
   style="fill:#000000;stroke-width:0" />
<path
   d="m 79.68,38.031 0,0.017 0,0.016 0,0.016 0,0.015 0,0.014 -0.001,0.014 0,0.014 0,0.014 0,0.012 0,0.013 -0.001,0.012 0,0.011 -10e-4,0.011 -0.001,0.011 0,0.01 -0.001,0.01 -10e-4,0.01 -0.001,0.009 -0.001,0.009 -0.002,0.008 -0.001,0.009 -0.002,0.007 -0.002,0.008 -0.002,0.007 -0.004,0.013 -0.005,0.012 -0.006,0.011 -0.007,0.009 -0.008,0.009 -0.009,0.008 -0.01,0.006 -0.011,0.006 -0.012,0.005 -0.013,0.005 -0.014,0.003 -0.008,0.002 -0.008,0.001 -0.009,10e-4 -0.008,0.002 -0.009,10e-4 -0.01,0 -0.01,10e-4 -0.01,0.001 -0.011,0 -0.011,10e-4 -0.011,0 -0.012,10e-4 -0.012,0 -0.013,0 -0.013,0 -0.013,0 -0.014,0 -0.015,0 c -0.39,-0.422 -1.187,-1.015 -2.812,-1.015 v -0.453 c 0.359,0 1.156,0 2.031,0.406 v -8.282 c 0,-0.562 -0.047,-0.765 -1.453,-0.765 h -0.485 v -0.453 c 0.422,0.031 1.969,0.031 2.485,0.031 0.531,0 2.062,0 2.484,-0.031 v 0.453 h -0.484 c -1.406,0 -1.453,0.203 -1.453,0.765 z"
   id="path29"
   inkscape:connector-curvature="0"
   style="fill:#000000;stroke-width:0" />
<path
   d="m 96.91,31.5 0.053,0 0.052,0.001 0.052,10e-4 0.025,0.001 0.025,0.002 0.024,0.002 0.024,0.003 0.024,0.003 0.023,0.003 0.022,0.005 0.022,0.005 0.021,0.006 0.02,0.007 0.019,0.008 0.019,0.009 0.017,0.009 0.017,0.011 0.015,0.012 0.015,0.014 0.013,0.014 0.012,0.016 0.011,0.017 0.005,0.009 0.005,0.01 0.004,0.009 0.004,0.011 0.004,0.01 0.003,0.011 0.003,0.012 0.003,0.012 0.002,0.012 10e-4,0.012 0.002,0.014 10e-4,0.013 0,0.014 0.001,0.014 c 0,0.329 -0.282,0.329 -0.563,0.329 h -8.594 c -0.265,0 -0.562,0 -0.562,-0.329 0,-0.312 0.297,-0.312 0.562,-0.312 z"
   id="path31"
   inkscape:connector-curvature="0"
   style="fill:#000000;stroke-width:0" />
<path
   d="m 106.57,26.062 -0.08,-0.113 -0.09,-0.11 -0.1,-0.108 -0.09,-0.104 -0.05,-0.05 -0.05,-0.049 -0.06,-0.048 -0.05,-0.046 -0.05,-0.045 -0.06,-0.043 -0.05,-0.042 -0.06,-0.04 -0.06,-0.039 -0.06,-0.036 -0.06,-0.034 -0.06,-0.033 -0.06,-0.03 -0.06,-0.028 -0.07,-0.026 -0.06,-0.024 -0.07,-0.021 -0.06,-0.018 -0.07,-0.016 -0.07,-0.013 -0.07,-0.01 -0.07,-0.008 -0.07,-0.005 -0.07,-10e-4 c -0.2,0 -0.95,0.031 -1.2,0.766 0.05,-0.016 0.12,-0.016 0.15,-0.016 0.49,0 0.8,0.406 0.8,0.766 0,0.374 -0.3,0.5 -0.53,0.5 -0.27,0 -0.81,-0.188 -0.81,-0.969 0,-0.813 0.69,-1.375 1.59,-1.375 1.58,0 3.19,1.468 3.63,3.234 l 1.56,6.203 c 0.01,0.078 0.05,0.172 0.05,0.266 0,0.234 -0.19,0.391 -0.42,0.391 -0.15,0 -0.49,-0.063 -0.62,-0.532 l -1.17,-4.672 c -0.08,-0.296 -0.08,-0.328 -0.2,-0.5 C 107.24,28.547 106.73,28 105.96,28 c -0.89,0 -0.97,0.875 -0.97,1.312 0,0.907 0.42,2.126 0.86,3.266 0.17,0.469 0.27,0.688 0.27,1 0,0.672 -0.47,1.281 -1.25,1.281 -1.47,0 -2.06,-2.312 -2.06,-2.437 0,-0.063 0.07,-0.141 0.18,-0.141 0.14,0 0.16,0.063 0.22,0.281 0.38,1.344 0.98,1.969 1.61,1.969 0.14,0 0.41,0 0.41,-0.515 0,-0.422 -0.17,-0.875 -0.41,-1.485 -0.78,-2.078 -0.78,-2.609 -0.78,-2.984 0,-1.516 1.08,-1.859 1.87,-1.859 0.46,0 1.03,0.14 1.6,0.734 l 0.01,-0.016 c -0.25,-0.937 -0.4,-1.562 -0.95,-2.344 z"
   id="path33"
   inkscape:connector-curvature="0"
   style="fill:#000000;stroke-width:0" />
<path
   d="m 6.7617,10.738 0.0288,0 0.0276,0 0.0266,0.001 0.0255,0 0.0245,0 0.0234,10e-4 0.0224,10e-4 0.0214,0.002 0.0204,0.002 0.0194,0.002 0.0184,0.003 0.0174,0.004 0.0164,0.004 0.0155,0.005 0.0146,0.006 0.0137,0.006 0.0127,0.008 0.0118,0.008 0.0109,0.009 0.0101,0.011 0.0092,0.011 0.0083,0.013 0.0075,0.014 0.0066,0.015 0.0058,0.016 0.0026,0.009 0.0024,0.009 0.0022,0.009 0.002,0.01 0.0018,0.01 0.0016,0.01 0.0015,0.011 0.0012,0.011 0.001,0.012 8e-4,0.012 7e-4,0.012 5e-4,0.013 2e-4,0.013 1e-4,0.014 c 0,0.156 -0.125,0.156 -0.4062,0.156 H 5.4961 c 0.3125,1.641 0.5312,2.766 0.6562,3.282 0.0938,0.375 0.4219,0.75 0.8438,0.75 0.3281,0 0.6719,-0.141 0.8281,-0.297 -0.625,-0.063 -0.8125,-0.516 -0.8125,-0.782 0,-0.328 0.2344,-0.515 0.5469,-0.515 0.3125,0 0.7812,0.265 0.7812,0.875 0,0.672 -0.6562,1.031 -1.3593,1.031 -0.6875,0 -1.3594,-0.5 -1.6719,-1.125 C 5.0273,13.848 4.8711,13.285 4.4961,11.191 H 3.4336 c -0.2969,0 -0.4531,0 -0.4531,-0.281 0,-0.172 0.0937,-0.172 0.4062,-0.172 H 4.4023 C 4.1211,9.2539 3.4648,5.6602 3.1055,3.9727 2.8242,2.582 2.5898,1.4258 1.793,1.4258 c -0.0469,0 -0.5,0 -0.79691,0.2969 0.81251,0.0625 0.81251,0.7656 0.81251,0.7812 0,0.3125 -0.2344,0.5156 -0.5313,0.5156 -0.32808,0 -0.79683,-0.2812 -0.79683,-0.875 0,-0.6875 0.70313,-1.0468 1.31253,-1.0468 1.625,0 2.2968,2.9218 2.4687,3.7031 0.2813,1.2344 1.0625,5.4532 1.1406,5.9372 z"
   id="path35"
   inkscape:connector-curvature="0"
   style="fill:#000000;stroke-width:0" />
<path
   d="m 14.234,0.48828 0,0.00867 0,0.00866 -10e-4,0.00445 0,0.00459 L 14.231,0.51942 14.23,0.52441 14.228,0.52969 14.226,0.53528 14.223,0.54124 14.22,0.54761 14.216,0.55444 14.211,0.56177 14.205,0.56965 14.199,0.57812 14.192,0.58724 14.184,0.59705 14.176,0.60758 14.166,0.6189 14.16,0.62486 14.155,0.63103 14.149,0.63743 14.143,0.64404 14.137,0.65089 14.13,0.65797 14.123,0.66529 14.116,0.67285 14.108,0.68067 14.1,0.68874 14.092,0.69708 14.084,0.70569 14.075,0.71457 14.065,0.72373 14.056,0.73318 14.046,0.74292 14.036,0.75296 14.025,0.7633 14.014,0.77395 14.003,0.78491 13.991,0.7962 13.979,0.80781 13.966,0.81975 13.953,0.83203 C 12.375,2.4414 11.484,5.0664 11.484,8.3008 c 0,3.0932 0.735,5.7342 2.578,7.6252 0.172,0.14 0.172,0.172 0.172,0.219 0,0.093 -0.078,0.125 -0.156,0.125 -0.203,0 -1.5,-1.141 -2.281,-2.704 -0.813,-1.609 -1.172,-3.312 -1.172,-5.2652 0,-1.4063 0.219,-3.2969 1.047,-5 0.937,-1.9063 2.234,-2.93752 2.406,-2.93752 0.078,0 0.156,0.03125 0.156,0.125 z"
   id="path37"
   inkscape:connector-curvature="0"
   style="fill:#000000;stroke-width:0" />
<path
   d="M 22.664,10.832 22.618,10.822 22.574,10.811 22.531,10.799 22.49,10.784 22.451,10.769 22.414,10.752 22.378,10.734 22.343,10.714 22.311,10.694 22.279,10.672 22.25,10.65 22.222,10.626 22.195,10.602 22.17,10.576 22.147,10.55 22.125,10.523 22.104,10.496 22.085,10.468 22.068,10.44 22.052,10.411 22.037,10.381 22.023,10.352 22.011,10.322 22,10.292 l -0.009,-0.031 -0.008,-0.03 -0.007,-0.03 -0.005,-0.031 -0.005,-0.03 -0.003,-0.03 -0.002,-0.03 0,-0.029 c 0,-0.3752 0.312,-0.5002 0.531,-0.5002 0.469,0 0.813,0.4062 0.813,0.8432 0,0.657 -0.766,0.969 -1.438,0.969 -0.969,0 -1.5,-0.953 -1.64,-1.265 -0.375,1.203 -1.36,1.265 -1.641,1.265 -1.625,0 -2.484,-2.0935 -2.484,-2.4372 0,-0.0625 0.062,-0.1406 0.171,-0.1406 0.125,0 0.157,0.0937 0.188,0.1562 0.547,1.7656 1.609,2.0936 2.078,2.0936 0.703,0 0.859,-0.656 0.859,-1.0467 0,-0.3438 -0.093,-0.7188 -0.296,-1.4688 L 18.57,6.332 C 18.32,5.3789 17.867,4.5039 17.023,4.5039 c -0.078,0 -0.468,0 -0.812,0.2031 0.578,0.125 0.703,0.5938 0.703,0.7813 0,0.3281 -0.234,0.5156 -0.547,0.5156 -0.375,0 -0.797,-0.3437 -0.797,-0.8437 0,-0.6719 0.75,-0.9688 1.438,-0.9688 0.765,0 1.297,0.5938 1.64,1.25 0.25,-0.9375 1.047,-1.25 1.641,-1.25 1.609,0 2.469,2.0781 2.469,2.4219 0,0.0937 -0.063,0.1562 -0.156,0.1562 -0.141,0 -0.157,-0.0781 -0.204,-0.2187 -0.437,-1.3906 -1.359,-2.0469 -2.062,-2.0469 -0.563,0 -0.859,0.4219 -0.859,1.0625 0,0.3594 0.062,0.6094 0.312,1.6563 l 0.563,2.1562 c 0.234,0.9531 0.765,1.6561 1.5,1.6561 0.031,0 0.484,0 0.812,-0.203 z"
   id="path39"
   inkscape:connector-curvature="0"
   style="fill:#000000;stroke-width:0" />
<path
   d="m 27.09,4.2852 -0.001,0.0857 -0.003,0.0843 -0.004,0.0827 -0.006,0.0811 -0.008,0.0794 -0.01,0.0776 -0.011,0.0757 -0.014,0.0738 -0.015,0.0718 -0.017,0.0696 -0.019,0.0675 -0.021,0.0651 -0.022,0.0628 -0.025,0.0603 -0.026,0.0578 -0.029,0.0551 -0.03,0.0525 -0.032,0.0497 -0.034,0.0468 -0.036,0.0439 -0.038,0.0408 -0.04,0.0377 -0.042,0.0346 -0.045,0.0312 -0.046,0.0279 -0.048,0.0244 -0.05,0.0209 -0.052,0.0173 -0.054,0.0136 -0.056,0.0098 -0.059,0.0059 -0.06,0.002 c -0.5,0 -0.766,-0.4218 -0.766,-0.7656 0,-0.3594 0.25,-0.7812 0.781,-0.7812 0.219,0 0.391,0.0625 0.532,0.2031 0.031,0.0312 0.046,0.0312 0.062,0.0312 0.031,0 0.031,-0.2187 0.031,-0.2968 0,-0.5313 -0.093,-1.5625 -1.015,-2.5938 -0.172,-0.1875 -0.172,-0.2187 -0.172,-0.25 0,-0.0781 0.078,-0.1562 0.156,-0.1562 0.125,0 1.344,1.1718 1.344,3 z"
   id="path41"
   inkscape:connector-curvature="0"
   style="fill:#000000;stroke-width:0" />
<path
   d="M 35.18,2.5664 35.095,2.4532 35.007,2.3424 34.914,2.2349 34.817,2.1311 34.767,2.0809 34.716,2.0318 34.664,1.9841 34.611,1.9377 34.557,1.8928 34.502,1.8494 34.446,1.8076 34.389,1.7676 34.331,1.7293 34.272,1.6929 34.212,1.6584 34.151,1.626 34.089,1.5957 34.027,1.5676 33.963,1.5418 33.899,1.5183 33.833,1.4973 33.767,1.4788 33.7,1.463 33.632,1.4498 33.563,1.4394 33.493,1.4319 33.423,1.4273 33.352,1.4258 c -0.204,0 -0.954,0.0312 -1.204,0.7656 0.047,-0.0156 0.125,-0.0156 0.157,-0.0156 0.484,0 0.797,0.4062 0.797,0.7656 0,0.375 -0.297,0.5 -0.532,0.5 -0.265,0 -0.812,-0.1875 -0.812,-0.9687 0,-0.8125 0.687,-1.375 1.594,-1.375 1.578,0 3.187,1.4687 3.625,3.2343 l 1.562,6.203 c 0.016,0.078 0.047,0.172 0.047,0.266 0,0.234 -0.188,0.39 -0.422,0.39 -0.141,0 -0.484,-0.062 -0.609,-0.531 L 36.383,5.9883 C 36.305,5.6914 36.305,5.6602 36.18,5.4883 35.852,5.0508 35.336,4.5039 34.57,4.5039 c -0.89,0 -0.968,0.875 -0.968,1.3125 0,0.9063 0.421,2.125 0.859,3.2656 0.172,0.4688 0.266,0.6875 0.266,1 0,0.672 -0.469,1.281 -1.25,1.281 -1.469,0 -2.063,-2.3122 -2.063,-2.4372 0,-0.0625 0.078,-0.1406 0.188,-0.1406 0.14,0 0.156,0.0625 0.218,0.2812 0.375,1.3436 0.985,1.9686 1.61,1.9686 0.14,0 0.406,0 0.406,-0.516 0,-0.421 -0.172,-0.8745 -0.406,-1.4838 -0.782,-2.0782 -0.782,-2.6094 -0.782,-2.9844 0,-1.5156 1.079,-1.8594 1.875,-1.8594 0.454,0 1.032,0.1406 1.594,0.7344 L 36.133,4.9102 C 35.883,3.9727 35.727,3.3477 35.18,2.5664 z"
   id="path43"
   inkscape:connector-curvature="0"
   style="fill:#000000;stroke-width:0" />
<path
   d="m 43.66,8.3008 0,0.1164 -0.002,0.1207 -0.002,0.1247 -0.004,0.1287 -0.005,0.1324 -0.007,0.136 -0.018,0.2821 -0.025,0.2946 -0.033,0.3057 -0.042,0.3159 -0.051,0.324 -0.062,0.332 -0.073,0.337 -0.085,0.343 -0.098,0.345 -0.112,0.348 -0.062,0.175 -0.065,0.174 -0.069,0.175 -0.073,0.174 -0.077,0.174 -0.082,0.173 c -0.937,1.906 -2.25,2.938 -2.422,2.938 -0.062,0 -0.14,-0.032 -0.14,-0.125 0,-0.047 0,-0.079 0.265,-0.36 1.594,-1.594 2.485,-4.219 2.485,-7.4686 0,-3.0781 -0.75,-5.7344 -2.594,-7.60937 -0.156,-0.14062 -0.156,-0.17187 -0.156,-0.21875 0,-0.09375 0.078,-0.125 0.14,-0.125 0.204,0 1.516,1.14062 2.297,2.70312 0.797,1.6094 1.172,3.3281 1.172,5.2344 z"
   id="path45"
   inkscape:connector-curvature="0"
   style="fill:#000000;stroke-width:0" />
<path
   d="m 64.84,9.5039 0.041,10e-5 0.043,5e-4 0.043,0.0013 0.022,0.0011 0.021,0.0014 0.022,0.0019 0.021,0.0023 0.021,0.0028 0.02,0.0034 0.02,0.0041 0.02,0.0047 0.019,0.0054 0.019,0.0062 0.018,0.007 0.017,0.0079 0.017,0.0088 0.015,0.0098 0.015,0.0108 0.014,0.0119 0.013,0.013 0.011,0.0143 0.006,0.0075 0.005,0.0079 0.005,0.0082 0.004,0.0086 0.005,0.0088 0.004,0.0093 0.003,0.0095 0.003,0.0099 0.003,0.0103 0.003,0.0106 0.002,0.0111 0.002,0.0114 10e-4,0.0117 0.001,0.0122 0.001,0.0126 0,0.013 c 0,0.2968 -0.266,0.2968 -0.5,0.2968 h -9.375 c -0.219,0 -0.5,0 -0.5,-0.2812 0,-0.2969 0.265,-0.2969 0.5,-0.2969 z"
   id="path47"
   inkscape:connector-curvature="0"
   style="fill:#000000;stroke-width:0" />
<path
   d="m 64.84,6.5352 0.041,0 0.043,5e-4 0.043,0.0014 0.022,0.0012 0.021,0.0015 0.022,0.002 0.021,0.0024 0.021,0.003 0.02,0.0036 0.02,0.0043 0.02,0.0049 0.019,0.0057 0.019,0.0066 0.018,0.0074 0.017,0.0083 0.017,0.0093 0.015,0.0103 0.015,0.0115 0.014,0.0125 0.013,0.0138 0.011,0.015 0.006,0.008 0.005,0.0083 0.005,0.0087 0.004,0.009 0.005,0.0094 0.004,0.0097 0.003,0.0101 0.003,0.0104 0.003,0.0109 0.003,0.0112 0.002,0.0116 0.002,0.0121 10e-4,0.0124 0.001,0.0129 0.001,0.0132 0,0.0137 c 0,0.2969 -0.266,0.2969 -0.5,0.2969 h -9.375 c -0.219,0 -0.5,0 -0.5,-0.2812 0,-0.3125 0.265,-0.3125 0.5,-0.3125 z"
   id="path49"
   inkscape:connector-curvature="0"
   style="fill:#000000;stroke-width:0" />
<path
   d="m 82.629,10.832 -0.046,-0.01 -0.044,-0.011 -0.043,-0.012 -0.041,-0.015 -0.039,-0.015 -0.038,-0.017 -0.036,-0.018 -0.034,-0.02 -0.033,-0.02 L 82.244,10.672 82.215,10.65 82.187,10.626 82.16,10.602 82.135,10.576 82.112,10.55 82.09,10.523 82.069,10.496 82.05,10.468 82.033,10.44 l -0.017,-0.029 -0.014,-0.03 -0.014,-0.029 -0.012,-0.03 -0.011,-0.03 -0.009,-0.031 -0.008,-0.03 -0.007,-0.03 -0.005,-0.031 -0.005,-0.03 -0.003,-0.03 -0.002,-0.03 0,-0.029 c 0,-0.3752 0.312,-0.5002 0.531,-0.5002 0.469,0 0.813,0.4062 0.813,0.8432 0,0.657 -0.766,0.969 -1.438,0.969 -0.969,0 -1.5,-0.953 -1.641,-1.265 -0.375,1.203 -1.359,1.265 -1.64,1.265 -1.625,0 -2.485,-2.0935 -2.485,-2.4372 0,-0.0625 0.063,-0.1406 0.172,-0.1406 0.125,0 0.157,0.0937 0.188,0.1562 0.547,1.7656 1.609,2.0936 2.078,2.0936 0.703,0 0.859,-0.656 0.859,-1.0467 0,-0.3438 -0.093,-0.7188 -0.297,-1.4688 L 78.535,6.332 c -0.25,-0.9531 -0.703,-1.8281 -1.547,-1.8281 -0.078,0 -0.468,0 -0.812,0.2031 0.578,0.125 0.703,0.5938 0.703,0.7813 0,0.3281 -0.234,0.5156 -0.547,0.5156 -0.375,0 -0.797,-0.3437 -0.797,-0.8437 0,-0.6719 0.75,-0.9688 1.438,-0.9688 0.765,0 1.297,0.5938 1.64,1.25 0.25,-0.9375 1.047,-1.25 1.641,-1.25 1.609,0 2.469,2.0781 2.469,2.4219 0,0.0937 -0.063,0.1562 -0.157,0.1562 -0.14,0 -0.156,-0.0781 -0.203,-0.2187 -0.437,-1.3906 -1.359,-2.0469 -2.062,-2.0469 -0.563,0 -0.86,0.4219 -0.86,1.0625 0,0.3594 0.063,0.6094 0.313,1.6563 l 0.562,2.1562 c 0.235,0.9531 0.766,1.6561 1.5,1.6561 0.032,0 0.485,0 0.813,-0.203 z"
   id="path51"
   inkscape:connector-curvature="0"
   style="fill:#000000;stroke-width:0" />
<path
   d="m 89.758,10.301 -0.017,0.04 -0.018,0.041 -0.02,0.043 -0.022,0.043 -0.023,0.043 -0.024,0.045 -0.027,0.044 -0.027,0.045 -0.03,0.045 -0.031,0.044 -0.033,0.045 -0.035,0.043 -0.037,0.044 -0.038,0.042 -0.041,0.042 -0.042,0.04 -0.044,0.04 -0.046,0.037 -0.048,0.037 -0.051,0.034 -0.052,0.033 -0.054,0.031 -0.056,0.028 -0.059,0.027 -0.06,0.023 -0.063,0.021 -0.065,0.019 -0.067,0.015 -0.07,0.012 -0.072,0.009 -0.074,0.005 -0.076,0.002 c -1.797,0 -3.734,-2.3278 -3.734,-4.6716 0,-1.5781 0.921,-2.5 2,-2.5 l 0.046,0.3125 c -0.656,0 -1.015,0.5938 -1.015,1.5313 0,0.875 0.484,2.6562 0.797,3.3125 0.531,1.1253 1.281,1.6873 1.906,1.6873 1.047,0 1.25,-1.2967 1.25,-1.4217 0,-0.0156 -0.047,-0.2344 -0.063,-0.2656 L 88.742,6.2383 C 88.664,5.9727 88.664,5.9414 88.445,5.6289 88.086,5.1914 87.398,4.5039 86.648,4.5039 L 86.602,4.1914 c 0.875,0 1.625,0.6875 2.062,1.2031 0.156,-0.9375 0.906,-1.2031 1.391,-1.2031 0.468,0 0.859,0.2813 1.14,0.8594 0.25,0.5312 0.469,1.5 0.469,1.5625 0,0.0937 -0.062,0.1562 -0.156,0.1562 -0.141,0 -0.156,-0.0781 -0.219,-0.3281 -0.234,-0.9375 -0.547,-1.9375 -1.187,-1.9375 -0.469,0 -0.5,0.4219 -0.5,0.7344 0,0.3594 0.046,0.5469 0.187,1.1562 0.109,0.4063 0.203,0.75 0.328,1.2188 0.578,2.375 0.719,2.9527 0.719,3.0467 0,0.219 -0.172,0.391 -0.406,0.391 -0.516,0 -0.641,-0.547 -0.672,-0.75 z"
   id="path53"
   inkscape:connector-curvature="0"
   style="fill:#000000;stroke-width:0" />
<path
   d="m 93.582,11.789 1.172,1.156 c 1.75,1.532 2.422,2.141 2.422,3.25 0,1.266 -1.016,2.172 -2.375,2.172 -1.25,0 -2.078,-1.031 -2.078,-2.031 0,-0.625 0.547,-0.625 0.593,-0.625 0.188,0 0.579,0.141 0.579,0.594 0,0.297 -0.204,0.578 -0.594,0.578 -0.094,0 -0.11,0 -0.141,0 0.25,0.719 0.86,1.125 1.5,1.125 1.016,0 1.5,-0.891 1.5,-1.813 0,-0.89 -0.562,-1.781 -1.172,-2.468 l -2.14,-2.391 C 92.723,11.227 92.723,11.195 92.723,10.93 h 4.14 l 0.313,1.937 h -0.281 c -0.063,-0.328 -0.141,-0.828 -0.25,-0.984 -0.079,-0.094 -0.813,-0.094 -1.063,-0.094 z"
   id="path55"
   inkscape:connector-curvature="0"
   style="fill:#000000;stroke-width:0" />
<path
   d="m 108.12,8.0195 h 4.39 c 0.22,0 0.5,0 0.5,0.2813 0,0.3125 -0.26,0.3125 -0.5,0.3125 h -4.39 v 4.3747 c 0,0.235 0,0.516 -0.28,0.516 -0.31,0 -0.31,-0.266 -0.31,-0.516 V 8.6133 h -4.39 c -0.22,0 -0.5,0 -0.5,-0.2969 0,-0.2969 0.26,-0.2969 0.5,-0.2969 h 4.39 V 3.6289 c 0,-0.2187 0,-0.5 0.29,-0.5 0.3,0 0.3,0.2656 0.3,0.5 z"
   id="path57"
   inkscape:connector-curvature="0"
   style="fill:#000000;stroke-width:0" />
<path
   d="m 121.65,2.5664 -0.09,-0.1132 -0.08,-0.1108 -0.1,-0.1075 -0.09,-0.1038 -0.05,-0.0502 -0.06,-0.0491 -0.05,-0.0477 -0.05,-0.0464 -0.05,-0.0449 -0.06,-0.0434 -0.06,-0.0418 -0.05,-0.04 L 120.8,1.7293 120.74,1.6929 120.68,1.6584 120.62,1.626 120.56,1.5957 120.5,1.5676 120.43,1.5418 120.37,1.5183 120.3,1.4973 120.24,1.4788 120.17,1.463 120.1,1.4498 120.03,1.4394 119.96,1.4319 119.89,1.4273 119.82,1.4258 c -0.2,0 -0.95,0.0312 -1.2,0.7656 0.04,-0.0156 0.12,-0.0156 0.15,-0.0156 0.49,0 0.8,0.4062 0.8,0.7656 0,0.375 -0.3,0.5 -0.53,0.5 -0.27,0 -0.81,-0.1875 -0.81,-0.9687 0,-0.8125 0.68,-1.375 1.59,-1.375 1.58,0 3.19,1.4687 3.62,3.2343 l 1.57,6.203 c 0.01,0.078 0.05,0.172 0.05,0.266 0,0.234 -0.19,0.39 -0.43,0.39 -0.14,0 -0.48,-0.062 -0.61,-0.531 l -1.17,-4.6717 c -0.08,-0.2969 -0.08,-0.3281 -0.2,-0.5 -0.33,-0.4375 -0.84,-0.9844 -1.61,-0.9844 -0.89,0 -0.97,0.875 -0.97,1.3125 0,0.9063 0.42,2.125 0.86,3.2656 0.17,0.4688 0.26,0.6875 0.26,1 0,0.672 -0.46,1.281 -1.25,1.281 -1.46,0 -2.06,-2.3122 -2.06,-2.4372 0,-0.0625 0.08,-0.1406 0.19,-0.1406 0.14,0 0.16,0.0625 0.22,0.2812 0.37,1.3436 0.98,1.9686 1.61,1.9686 0.14,0 0.41,0 0.41,-0.516 0,-0.421 -0.18,-0.8745 -0.41,-1.4838 -0.78,-2.0782 -0.78,-2.6094 -0.78,-2.9844 0,-1.5156 1.07,-1.8594 1.87,-1.8594 0.45,0 1.03,0.1406 1.6,0.7344 l 0.01,-0.0156 c -0.25,-0.9375 -0.41,-1.5625 -0.95,-2.3438 z"
   id="path59"
   inkscape:connector-curvature="0"
   style="fill:#000000;stroke-width:0" />
<path
   d="m 129.31,14.988 0,0.006 0.01,0.006 0,0.007 0,0.006 0,0.013 0.01,0.014 0,0.015 0,0.014 0.01,0.015 0,0.016 0.01,0.015 0,0.016 0,0.015 0,0.016 0.01,0.015 0,0.016 0,0.007 0,0.008 0,0.007 0,0.008 c 0,0.156 -0.16,0.156 -0.19,0.156 -0.01,0 -0.59,-0.047 -0.87,-0.078 -0.27,-0.016 -0.52,-0.047 -0.8,-0.063 -0.38,-0.031 -0.5,-0.047 -0.5,-0.344 0,-0.156 0.17,-0.156 0.33,-0.156 0.81,0 0.81,-0.14 0.81,-0.297 0,-0.109 -0.12,-0.578 -0.2,-0.859 l -0.38,-1.531 c -0.15,-0.625 -1.06,-4.2346 -1.12,-4.5315 -0.08,-0.3906 -0.08,-0.6562 -0.08,-0.875 0,-1.6093 0.91,-2.4531 1.94,-2.4531 l 0.01,0.3125 c -0.51,0 -1.06,0.3906 -1.06,1.625 0,0.5156 0.05,0.8281 0.33,1.9375 0.04,0.2031 0.3,1.2188 0.36,1.4375 0.04,0.125 0.98,1.5311 2.06,1.5311 0.69,0 1.02,-0.703 1.02,-1.5155 0,-0.7656 -0.46,-2.5625 -0.85,-3.3906 -0.4,-0.8594 -1.12,-1.625 -1.86,-1.625 h 0 L 128.3,4.1914 c 1.84,0 3.75,2.3594 3.75,4.6719 0,1.4527 -0.83,2.4997 -2.02,2.4997 -0.83,0 -1.58,-0.687 -1.87,-1 z"
   id="path61"
   inkscape:connector-curvature="0"
   style="fill:#000000;stroke-width:0" />
<path
   d="m 142.16,8.0195 h 4.39 c 0.22,0 0.5,0 0.5,0.2813 0,0.3125 -0.26,0.3125 -0.5,0.3125 h -4.39 v 4.3747 c 0,0.235 0,0.516 -0.28,0.516 -0.31,0 -0.31,-0.266 -0.31,-0.516 V 8.6133 h -4.39 c -0.22,0 -0.5,0 -0.5,-0.2969 0,-0.2969 0.27,-0.2969 0.5,-0.2969 h 4.39 V 3.6289 c 0,-0.2187 0,-0.5 0.3,-0.5 0.29,0 0.29,0.2656 0.29,0.5 z"
   id="path63"
   inkscape:connector-curvature="0"
   style="fill:#000000;stroke-width:0" />
<path
   d="m 157.3,10.301 -0.02,0.04 -0.01,0.041 -0.02,0.043 -0.03,0.043 -0.02,0.043 -0.02,0.045 -0.03,0.044 -0.03,0.045 -0.03,0.045 -0.03,0.044 -0.03,0.045 -0.04,0.043 -0.03,0.044 -0.04,0.042 -0.04,0.042 -0.04,0.04 -0.05,0.04 -0.04,0.037 -0.05,0.037 -0.05,0.034 -0.05,0.033 -0.06,0.031 -0.06,0.028 -0.05,0.027 -0.06,0.023 -0.07,0.021 -0.06,0.019 -0.07,0.015 -0.07,0.012 -0.07,0.009 -0.07,0.005 -0.08,0.002 c -1.8,0 -3.73,-2.3278 -3.73,-4.6716 0,-1.5781 0.92,-2.5 2,-2.5 l 0.04,0.3125 c -0.65,0 -1.01,0.5938 -1.01,1.5313 0,0.875 0.48,2.6562 0.79,3.3125 0.53,1.1253 1.28,1.6873 1.91,1.6873 1.05,0 1.25,-1.2967 1.25,-1.4217 0,-0.0156 -0.05,-0.2344 -0.06,-0.2656 l -0.78,-3.1094 c -0.08,-0.2656 -0.08,-0.2969 -0.3,-0.6094 -0.36,-0.4375 -1.05,-1.125 -1.8,-1.125 l -0.04,-0.3125 c 0.87,0 1.62,0.6875 2.06,1.2031 0.15,-0.9375 0.9,-1.2031 1.39,-1.2031 0.47,0 0.86,0.2813 1.14,0.8594 0.25,0.5312 0.47,1.5 0.47,1.5625 0,0.0937 -0.06,0.1562 -0.16,0.1562 -0.14,0 -0.15,-0.0781 -0.22,-0.3281 -0.23,-0.9375 -0.54,-1.9375 -1.18,-1.9375 -0.47,0 -0.5,0.4219 -0.5,0.7344 0,0.3594 0.04,0.5469 0.18,1.1562 0.11,0.4063 0.21,0.75 0.33,1.2188 0.58,2.375 0.72,2.9527 0.72,3.0467 0,0.219 -0.17,0.391 -0.41,0.391 -0.51,0 -0.64,-0.547 -0.67,-0.75 z"
   id="path65"
   inkscape:connector-curvature="0"
   style="fill:#000000;stroke-width:0" />
<path
   d="m 163.37,14.988 0,0.006 0,0.006 0,0.007 0,0.006 0.01,0.013 0,0.014 0,0.015 0.01,0.014 0,0.015 0.01,0.016 0,0.015 0,0.016 0.01,0.015 0,0.016 0,0.015 0,0.016 0,0.007 0,0.008 0,0.007 0,0.008 c 0,0.156 -0.15,0.156 -0.18,0.156 -0.02,0 -0.6,-0.047 -0.88,-0.078 -0.26,-0.016 -0.51,-0.047 -0.8,-0.063 -0.37,-0.031 -0.5,-0.047 -0.5,-0.344 0,-0.156 0.18,-0.156 0.33,-0.156 0.82,0 0.82,-0.14 0.82,-0.297 0,-0.109 -0.13,-0.578 -0.21,-0.859 l -0.37,-1.531 c -0.16,-0.625 -1.07,-4.2346 -1.13,-4.5315 -0.08,-0.3906 -0.08,-0.6562 -0.08,-0.875 0,-1.6093 0.91,-2.4531 1.94,-2.4531 l 0.02,0.3125 c -0.52,0 -1.07,0.3906 -1.07,1.625 0,0.5156 0.05,0.8281 0.33,1.9375 0.05,0.2031 0.3,1.2188 0.36,1.4375 0.05,0.125 0.99,1.5311 2.06,1.5311 0.69,0 1.02,-0.703 1.02,-1.5155 0,-0.7656 -0.45,-2.5625 -0.84,-3.3906 -0.41,-0.8594 -1.13,-1.625 -1.86,-1.625 h 0 l -0.02,-0.3125 c 1.85,0 3.75,2.3594 3.75,4.6719 0,1.4527 -0.83,2.4997 -2.01,2.4997 -0.83,0 -1.58,-0.687 -1.88,-1 z"
   id="path67"
   inkscape:connector-curvature="0"
   style="fill:#000000;stroke-width:0" />
</g></svg>
