<?xml version="1.0" encoding="UTF-8" standalone="no"?>
<svg
   xmlns:dc="http://purl.org/dc/elements/1.1/"
   xmlns:cc="http://creativecommons.org/ns#"
   xmlns:rdf="http://www.w3.org/1999/02/22-rdf-syntax-ns#"
   xmlns:svg="http://www.w3.org/2000/svg"
   xmlns="http://www.w3.org/2000/svg"
   xmlns:sodipodi="http://sodipodi.sourceforge.net/DTD/sodipodi-0.dtd"
   xmlns:inkscape="http://www.inkscape.org/namespaces/inkscape"
   version="1.1"
   id="body"
   width="608.82422"
   height="50.32909"
   viewBox="0 0 0.84558919 0.069901514"
   preserveAspectRatio="none"
   inkscape:version="0.48.3.1 r9886"
   sodipodi:docname="ch1-Z-G-28.svg">
  <metadata
     id="metadata113">
    <rdf:RDF>
      <cc:Work
         rdf:about="">
        <dc:format>image/svg+xml</dc:format>
        <dc:type
           rdf:resource="http://purl.org/dc/dcmitype/StillImage" />
      </cc:Work>
    </rdf:RDF>
  </metadata>
  <defs
     id="defs111" />
  <sodipodi:namedview
     pagecolor="#ffffff"
     bordercolor="#666666"
     borderopacity="1"
     objecttolerance="10"
     gridtolerance="10"
     guidetolerance="10"
     inkscape:pageopacity="0"
     inkscape:pageshadow="2"
     inkscape:window-width="640"
     inkscape:window-height="480"
     id="namedview109"
     showgrid="false"
     inkscape:zoom="0.32777778"
     inkscape:cx="381.79688"
     inkscape:cy="458.87749"
     inkscape:window-x="0"
     inkscape:window-y="24"
     inkscape:window-maximized="0"
     inkscape:current-layer="body" />
  <title
     id="title3">SVG drawing</title>
  <desc
     id="desc5">This was produced by version 4.4 of GNU libplot, a free library for exporting 2-D vector graphics.</desc>
  <g
     id="content"
     transform="matrix(0.0017361,0,0,-0.0017361,-9.7655625e-4,0.07134286)"
     xml:space="preserve"
     stroke-miterlimit="10.433"
     font-style="normal"
     font-variant="normal"
     font-weight="normal"
     font-stretch="normal"
     font-size-adjust="none"
     letter-spacing="normal"
     word-spacing="normal"
     style="font-style:normal;font-variant:normal;font-weight:normal;font-stretch:normal;letter-spacing:normal;word-spacing:normal;text-anchor:start;fill:none;stroke:#000000;stroke-linecap:butt;stroke-linejoin:miter;stroke-miterlimit:10.43299961;stroke-opacity:1;stroke-dasharray:none;stroke-dashoffset:0">
<path
   d="M 1.3828,3.0078 1.429,3.0116 1.474,3.0173 1.5176,3.0246 1.5599,3.0337 1.6009,3.0443 1.6406,3.0566 1.6789,3.0704 1.7158,3.0857 1.7514,3.1024 1.7856,3.1206 1.8184,3.14 1.8497,3.1608 1.8797,3.1828 1.9082,3.206 1.9353,3.2304 1.9609,3.2559 1.9851,3.2824 2.0078,3.3099 2.029,3.3384 2.0487,3.3678 2.0669,3.398 2.0836,3.4291 2.0987,3.4609 2.1123,3.4934 2.1243,3.5266 2.1348,3.5604 2.1437,3.5948 2.151,3.6297 2.1567,3.665 2.1608,3.7008 2.1632,3.737 l 9e-4,0.0364 c 0,0.5313 -0.4063,0.7813 -0.7657,0.7813 -0.3906,0 -0.78121,-0.2344 -0.78121,-0.7969 0,-0.8125 0.79691,-1.4687 1.76561,-1.4687 2.4063,0 3.3125,3.7187 4.4531,8.3279 1.2188,5.016 2.25,10.094 3.1094,15.188 0.5937,3.39 1.1717,6.562 1.7187,8.625 0.188,0.765 0.734,2.828 1.344,2.828 0.5,0 0.89,-0.313 0.953,-0.375 -0.516,-0.031 -0.781,-0.375 -0.781,-0.781 0,-0.516 0.39,-0.766 0.75,-0.766 0.39,0 0.781,0.234 0.781,0.781 0,0.86 -0.859,1.485 -1.734,1.485 -1.204,0 -2.094,-1.735 -2.969,-4.969 C 9.9609,32.445 7.8047,24.477 6.0547,14.086 5.6328,11.648 5.1797,8.9922 4.6484,6.7891 4.3672,5.6172 3.6328,2.6328 2.3516,2.6328 c -0.5782,0 -0.9532,0.375 -0.9688,0.375 z"
   id="path9"
   inkscape:connector-curvature="0"
   style="fill:#000000;stroke-width:0" />
<path
   d="m 18.336,40.918 0,0 0,0 0,10e-4 0,0 0,0.001 0,10e-4 0,10e-4 0,0.001 -10e-4,0.003 0,0.004 -0.001,0.003 -0.001,0.005 -10e-4,0.004 -0.001,0.005 -0.001,0.005 -0.002,0.006 -0.003,0.005 -0.002,0.006 -0.003,0.006 -0.004,0.005 -0.004,0.006 -0.004,0.006 -0.005,0.006 -0.002,0.003 -0.003,0.002 -0.003,0.003 -0.003,0.003 -0.003,0.002 -0.004,0.003 -0.003,0.002 -0.004,0.003 -0.004,0.002 -0.004,0.002 -0.004,0.003 -0.005,0.002 -0.004,0.002 -0.005,10e-4 -0.005,0.002 -0.005,0.002 -0.005,0.001 -0.006,0.002 -0.005,0.001 -0.006,10e-4 -0.006,10e-4 -0.007,0.001 -0.006,0 -0.007,10e-4 -0.007,0 -0.007,0 c -0.25,0 -1.063,-0.094 -1.36,-0.125 -0.078,0 -0.203,-0.016 -0.203,-0.219 0,-0.125 0.094,-0.125 0.266,-0.125 0.531,0 0.562,-0.078 0.562,-0.203 0,-0.078 -0.109,-0.453 -0.156,-0.687 l -0.922,-3.641 c -0.14,-0.547 -0.172,-0.734 -0.172,-1.125 0,-1.063 0.578,-1.75 1.407,-1.75 v 0.25 c -0.375,0 -0.75,0.297 -0.75,1.125 0,0.219 0,0.422 0.187,1.125 l 0.25,1.031 c 0.063,0.235 0.063,0.266 0.156,0.391 0.547,0.719 1.047,0.89 1.344,0.89 0.406,0 0.703,-0.343 0.703,-1.046 0,-0.657 -0.375,-1.938 -0.578,-2.375 -0.359,-0.735 -0.875,-1.141 -1.312,-1.141 v -0.25 c 1.312,0 2.687,1.672 2.687,3.266 0,1.015 -0.594,1.796 -1.484,1.796 -0.5,0 -0.969,-0.328 -1.297,-0.671 z"
   id="path11"
   inkscape:connector-curvature="0"
   style="fill:#000000;stroke-width:0" />
<path
   d="m 12.738,5.8398 -0.039,0.0751 -0.021,0.0365 -0.021,0.036 -0.022,0.0352 -0.023,0.0344 -0.024,0.0337 -0.024,0.0328 -0.025,0.032 -0.026,0.0311 -0.026,0.0301 -0.027,0.0291 -0.029,0.0281 -0.029,0.027 -0.029,0.0259 -0.031,0.0248 -0.032,0.0235 -0.032,0.0224 -0.034,0.021 -0.034,0.0198 -0.035,0.0184 -0.036,0.017 -0.037,0.0156 -0.038,0.0141 -0.039,0.0126 -0.04,0.0111 -0.041,0.0094 -0.042,0.0079 -0.044,0.0061 -0.044,0.0045 -0.045,0.0027 -0.046,9e-4 v -0.25 c 0.734,0 0.89,-0.9219 0.89,-0.9844 0,-0.0625 -0.031,-0.1406 -0.031,-0.1875 L 12.019,2.9492 C 11.957,2.7461 11.957,2.7305 11.801,2.543 11.301,1.918 10.848,1.7461 10.535,1.7461 c -0.5623,0 -0.7186,0.6094 -0.7186,1.0469 0,0.5625 0.3596,1.9218 0.6246,2.4375 0.344,0.6562 0.844,1.0781 1.282,1.0781 v 0.25 c -1.313,0 -2.6878,-1.6406 -2.6878,-3.2813 0,-1.0468 0.6093,-1.7812 1.4838,-1.7812 0.219,0 0.782,0.0469 1.438,0.8437 0.094,-0.4687 0.484,-0.8437 1.016,-0.8437 0.39,0 0.656,0.2656 0.828,0.6094 0.187,0.4062 0.343,1.0937 0.343,1.1093 0,0.1094 -0.109,0.1094 -0.14,0.1094 -0.11,0 -0.125,-0.0469 -0.156,-0.2031 -0.188,-0.7188 -0.391,-1.375 -0.844,-1.375 -0.313,0 -0.344,0.2812 -0.344,0.5156 0,0.2344 0.031,0.3281 0.156,0.8281 0.11,0.4688 0.141,0.5782 0.235,1 l 0.406,1.5625 c 0.078,0.3125 0.078,0.3282 0.078,0.375 0,0.1875 -0.141,0.2969 -0.328,0.2969 -0.266,0 -0.438,-0.2344 -0.469,-0.4844 z"
   id="path13"
   inkscape:connector-curvature="0"
   style="fill:#000000;stroke-width:0" />
<path
   d="m 30.703,22.293 0.029,0 0.028,0 0.026,0 0.026,0.001 0.024,0 0.024,0.001 0.022,10e-4 0.021,0.002 0.021,0.002 0.019,0.002 0.018,0.003 0.018,0.004 0.016,0.004 0.016,0.005 0.014,0.006 0.014,0.006 0.013,0.007 0.012,0.009 0.011,0.009 0.01,0.01 0.009,0.012 0.008,0.012 0.008,0.014 0.006,0.015 0.006,0.017 0.003,0.008 0.002,0.009 0.002,0.01 0.002,0.009 0.002,0.01 0.002,0.011 10e-4,0.011 0.001,0.011 0.001,0.012 10e-4,0.012 0.001,0.012 0,0.013 10e-4,0.013 0,0.014 c 0,0.156 -0.125,0.156 -0.407,0.156 h -1.296 c 0.312,1.641 0.531,2.766 0.656,3.281 0.094,0.375 0.422,0.75 0.844,0.75 0.328,0 0.671,-0.14 0.828,-0.297 -0.625,-0.062 -0.813,-0.515 -0.813,-0.781 0,-0.328 0.235,-0.515 0.547,-0.515 0.312,0 0.781,0.265 0.781,0.875 0,0.671 -0.656,1.031 -1.359,1.031 -0.688,0 -1.36,-0.5 -1.672,-1.125 -0.281,-0.563 -0.438,-1.125 -0.812,-3.219 h -1.063 c -0.297,0 -0.453,0 -0.453,-0.281 0,-0.172 0.094,-0.172 0.406,-0.172 h 1.016 c -0.282,-1.484 -0.938,-5.078 -1.297,-6.766 -0.281,-1.39 -0.516,-2.546 -1.313,-2.546 -0.046,0 -0.5,0 -0.796,0.296 0.812,0.063 0.812,0.766 0.812,0.782 0,0.312 -0.234,0.515 -0.531,0.515 -0.328,0 -0.797,-0.281 -0.797,-0.875 0,-0.687 0.703,-1.047 1.312,-1.047 1.625,0 2.297,2.922 2.469,3.703 0.281,1.235 1.063,5.454 1.141,5.938 z"
   id="path15"
   inkscape:connector-curvature="0"
   style="fill:#000000;stroke-width:0" />
<path
   d="m 48.168,21.059 0.042,0 0.042,0 0.043,10e-4 0.022,0.002 0.021,10e-4 0.022,0.002 0.021,0.002 0.021,0.003 0.02,0.003 0.02,0.004 0.02,0.005 0.019,0.006 0.019,0.006 0.018,0.007 0.017,0.008 0.017,0.008 0.015,0.01 0.015,0.011 0.014,0.012 0.013,0.013 0.012,0.014 0.005,0.008 0.005,0.008 0.005,0.008 0.005,0.008 0.004,0.009 0.004,0.01 0.003,0.009 0.003,0.01 0.003,0.01 0.003,0.011 0.002,0.011 0.002,0.011 10e-4,0.012 0.001,0.012 10e-4,0.013 0,0.013 c 0,0.297 -0.266,0.297 -0.5,0.297 h -9.375 c -0.219,0 -0.5,0 -0.5,-0.282 0,-0.296 0.266,-0.296 0.5,-0.296 z"
   id="path17"
   inkscape:connector-curvature="0"
   style="fill:#000000;stroke-width:0" />
<path
   d="m 48.168,18.09 0.042,0 0.042,0 0.043,0.002 0.022,0.001 0.021,0.001 0.022,0.002 0.021,0.003 0.021,0.003 0.02,0.003 0.02,0.005 0.02,0.005 0.019,0.005 0.019,0.007 0.018,0.007 0.017,0.009 0.017,0.009 0.015,0.01 0.015,0.012 0.014,0.012 0.013,0.014 0.012,0.015 0.005,0.008 0.005,0.008 0.005,0.009 0.005,0.009 0.004,0.009 0.004,0.01 0.003,0.01 0.003,0.011 0.003,0.011 0.003,0.011 0.002,0.011 0.002,0.012 10e-4,0.013 0.001,0.013 10e-4,0.013 0,0.014 c 0,0.297 -0.266,0.297 -0.5,0.297 h -9.375 c -0.219,0 -0.5,0 -0.5,-0.282 0,-0.312 0.266,-0.312 0.5,-0.312 z"
   id="path19"
   inkscape:connector-curvature="0"
   style="fill:#000000;stroke-width:0" />
<polygon
   points="58.844,1.7539 58.844,38.145 62.156,38.145 62.156,39.02 57.969,39.02 57.969,0.87891 62.156,0.87891 62.156,1.7539 "
   id="polygon21"
   style="fill:#000000;stroke-width:0" />
<path
   d="m 69.504,22.293 0.029,0 0.027,0 0.027,0 0.025,0.001 0.025,0 0.023,0.001 0.023,10e-4 0.021,0.002 0.02,0.002 0.02,0.002 0.018,0.003 0.018,0.004 0.016,0.004 0.016,0.005 0.014,0.006 0.014,0.006 0.013,0.007 0.011,0.009 0.011,0.009 0.01,0.01 0.01,0.012 0.008,0.012 0.007,0.014 0.007,0.015 0.006,0.017 0.002,0.008 0.003,0.009 0.002,0.01 0.002,0.009 0.002,0.01 0.001,0.011 0.002,0.011 0.001,0.011 10e-4,0.012 0.001,0.012 0.001,0.012 0,0.013 0,0.013 0,0.014 c 0,0.156 -0.125,0.156 -0.406,0.156 h -1.297 c 0.313,1.641 0.532,2.766 0.657,3.281 0.093,0.375 0.421,0.75 0.843,0.75 0.328,0 0.672,-0.14 0.828,-0.297 -0.625,-0.062 -0.812,-0.515 -0.812,-0.781 0,-0.328 0.234,-0.515 0.547,-0.515 0.312,0 0.781,0.265 0.781,0.875 0,0.671 -0.656,1.031 -1.359,1.031 -0.688,0 -1.36,-0.5 -1.672,-1.125 -0.281,-0.563 -0.438,-1.125 -0.813,-3.219 h -1.062 c -0.297,0 -0.453,0 -0.453,-0.281 0,-0.172 0.093,-0.172 0.406,-0.172 h 1.016 c -0.282,-1.484 -0.938,-5.078 -1.297,-6.766 -0.282,-1.39 -0.516,-2.546 -1.313,-2.546 -0.047,0 -0.5,0 -0.797,0.296 0.813,0.063 0.813,0.766 0.813,0.782 0,0.312 -0.235,0.515 -0.531,0.515 -0.329,0 -0.797,-0.281 -0.797,-0.875 0,-0.687 0.703,-1.047 1.312,-1.047 1.625,0 2.297,2.922 2.469,3.703 0.281,1.235 1.062,5.454 1.141,5.938 z"
   id="path23"
   inkscape:connector-curvature="0"
   style="fill:#000000;stroke-width:0" />
<path
   d="m 85.59,1.0508 0,0.0057 -0.001,0.0056 0,0.0055 -0.001,0.0052 0,0.0052 L 85.587,1.0829 85.586,1.0878 85.584,1.0925 85.583,1.0971 85.582,1.1016 85.58,1.1061 85.578,1.1104 85.576,1.1146 85.574,1.1188 85.572,1.1229 85.57,1.127 85.566,1.1349 85.561,1.1428 85.556,1.1506 85.55,1.1584 85.545,1.1664 85.539,1.1745 85.533,1.1828 85.527,1.1914 C 84.934,1.7695 83.871,2.8477 82.809,4.5508 80.246,8.6602 79.09,13.816 79.09,19.941 c 0,4.282 0.578,9.797 3.187,14.532 1.266,2.25 2.563,3.562 3.266,4.25 0.047,0.047 0.047,0.078 0.047,0.14 0,0.157 -0.11,0.157 -0.328,0.157 -0.235,0 -0.266,0 -0.5,-0.25 -5.328,-4.844 -6.985,-12.125 -6.985,-18.813 0,-6.25 1.422,-12.5468 5.469,-17.2968 0.313,-0.3594 0.906,-1.0157 1.563,-1.5782 0.187,-0.20309 0.218,-0.20309 0.453,-0.20309 0.218,0 0.328,0 0.328,0.17189 z"
   id="path25"
   inkscape:connector-curvature="0"
   style="fill:#000000;stroke-width:0" />
<path
   d="m 91.996,21.855 -0.017,0.041 -0.018,0.041 -0.02,0.042 -0.021,0.043 -0.023,0.044 -0.025,0.044 -0.026,0.045 -0.028,0.044 -0.03,0.045 -0.031,0.045 -0.033,0.044 -0.035,0.044 -0.037,0.043 -0.038,0.043 -0.041,0.041 -0.042,0.041 -0.044,0.039 -0.046,0.038 -0.048,0.036 -0.05,0.035 -0.052,0.033 -0.055,0.031 -0.056,0.028 -0.058,0.026 -0.061,0.024 -0.063,0.021 -0.065,0.018 -0.067,0.016 -0.069,0.012 -0.072,0.009 -0.074,0.005 -0.077,0.002 c -1.797,0 -3.734,-2.328 -3.734,-4.672 0,-1.578 0.922,-2.5 2,-2.5 l 0.047,0.313 c -0.657,0 -1.016,0.593 -1.016,1.531 0,0.875 0.484,2.656 0.797,3.312 0.531,1.125 1.281,1.688 1.906,1.688 1.047,0 1.25,-1.297 1.25,-1.422 0,-0.016 -0.047,-0.234 -0.062,-0.266 L 90.98,17.793 c -0.078,-0.266 -0.078,-0.297 -0.296,-0.609 -0.36,-0.438 -1.047,-1.125 -1.797,-1.125 L 88.84,15.746 c 0.875,0 1.625,0.688 2.062,1.203 0.157,-0.937 0.907,-1.203 1.391,-1.203 0.469,0 0.859,0.281 1.141,0.859 0.25,0.532 0.468,1.5 0.468,1.563 0,0.094 -0.062,0.156 -0.156,0.156 -0.141,0 -0.156,-0.078 -0.219,-0.328 -0.234,-0.937 -0.547,-1.937 -1.187,-1.937 -0.469,0 -0.5,0.421 -0.5,0.734 0,0.359 0.047,0.547 0.187,1.156 0.11,0.406 0.203,0.75 0.328,1.219 0.579,2.375 0.719,2.953 0.719,3.047 0,0.219 -0.172,0.39 -0.406,0.39 -0.516,0 -0.641,-0.546 -0.672,-0.75 z"
   id="path27"
   inkscape:connector-curvature="0"
   style="fill:#000000;stroke-width:0" />
<path
   d="m 104.28,19.574 h 4.39 c 0.22,0 0.5,0 0.5,0.281 0,0.313 -0.27,0.313 -0.5,0.313 h -4.39 v 4.375 c 0,0.234 0,0.516 -0.28,0.516 -0.32,0 -0.32,-0.266 -0.32,-0.516 v -4.375 h -4.387 c -0.219,0 -0.5,0 -0.5,-0.297 0,-0.297 0.266,-0.297 0.5,-0.297 h 4.387 v -4.39 c 0,-0.219 0,-0.5 0.3,-0.5 0.3,0 0.3,0.265 0.3,0.5 z"
   id="path29"
   inkscape:connector-curvature="0"
   style="fill:#000000;stroke-width:0" />
<path
   d="m 122.81,37.328 0,0.006 0.01,0.006 0,0.006 0,0.007 0,0.013 0.01,0.014 0,0.014 0,0.015 0.01,0.015 0,0.015 0.01,0.016 0,0.015 0,0.016 0,0.016 0.01,0.015 0,0.016 0,0.007 0,0.008 0,0.007 0,0.007 c 0,0.157 -0.16,0.157 -0.19,0.157 -0.03,0 -0.79,-0.063 -0.87,-0.078 -0.28,-0.016 -0.52,-0.047 -0.8,-0.063 -0.41,-0.031 -0.52,-0.047 -0.52,-0.344 0,-0.156 0.13,-0.156 0.36,-0.156 0.77,0 0.78,-0.14 0.78,-0.297 0,-0.093 -0.03,-0.219 -0.04,-0.265 l -0.97,-3.875 c -0.17,0.421 -0.59,1.062 -1.42,1.062 -1.8,0 -3.74,-2.328 -3.74,-4.672 0,-1.578 0.93,-2.5 2,-2.5 l 0.05,0.313 c -0.66,0 -1.02,0.594 -1.02,1.531 0,0.875 0.49,2.656 0.8,3.313 0.53,1.124 1.28,1.687 1.91,1.687 1.04,0 1.25,-1.297 1.25,-1.422 0,-0.015 -0.05,-0.234 -0.06,-0.265 l -0.79,-3.11 c -0.07,-0.266 -0.07,-0.297 -0.29,-0.609 -0.36,-0.438 -1.05,-1.125 -1.8,-1.125 l -0.05,-0.313 c 0.88,0 1.63,0.688 2.07,1.203 0.15,-0.937 0.9,-1.203 1.39,-1.203 0.47,0 0.86,0.281 1.14,0.86 0.25,0.531 0.47,1.5 0.47,1.562 0,0.094 -0.07,0.156 -0.16,0.156 -0.14,0 -0.16,-0.078 -0.22,-0.328 -0.23,-0.937 -0.55,-1.937 -1.19,-1.937 -0.47,0 -0.5,0.422 -0.5,0.734 0,0.063 0,0.391 0.11,0.844 z"
   id="path31"
   inkscape:connector-curvature="0"
   style="fill:#000000;stroke-width:0" />
<path
   d="m 130.45,33.172 -0.05,-0.01 -0.04,-0.011 -0.04,-0.013 -0.04,-0.014 -0.04,-0.015 -0.04,-0.017 -0.04,-0.018 -0.03,-0.02 -0.03,-0.02 -0.04,-0.022 -0.03,-0.023 -0.02,-0.023 -0.03,-0.025 -0.02,-0.025 -0.03,-0.026 -0.02,-0.027 -0.02,-0.027 -0.02,-0.028 -0.02,-0.029 -0.01,-0.029 -0.02,-0.029 -0.01,-0.03 -0.01,-0.03 -0.01,-0.03 -0.01,-0.03 -0.01,-0.03 -0.01,-0.031 0,-0.03 -0.01,-0.03 0,-0.03 0,-0.03 0,-0.029 c 0,-0.375 0.31,-0.5 0.53,-0.5 0.47,0 0.81,0.406 0.81,0.843 0,0.657 -0.77,0.969 -1.44,0.969 -0.97,0 -1.5,-0.953 -1.64,-1.265 -0.37,1.203 -1.36,1.265 -1.64,1.265 -1.62,0 -2.48,-2.094 -2.48,-2.437 0,-0.063 0.06,-0.141 0.17,-0.141 0.12,0 0.15,0.094 0.19,0.156 0.54,1.766 1.61,2.094 2.07,2.094 0.71,0 0.86,-0.656 0.86,-1.047 0,-0.344 -0.09,-0.719 -0.29,-1.469 l -0.53,-2.187 c -0.25,-0.953 -0.71,-1.828 -1.55,-1.828 -0.08,0 -0.47,0 -0.81,0.203 0.57,0.125 0.7,0.594 0.7,0.781 0,0.328 -0.24,0.516 -0.55,0.516 -0.37,0 -0.79,-0.344 -0.79,-0.844 0,-0.672 0.75,-0.969 1.43,-0.969 0.77,0 1.3,0.594 1.64,1.25 0.25,-0.937 1.05,-1.25 1.64,-1.25 1.61,0 2.47,2.078 2.47,2.422 0,0.094 -0.06,0.156 -0.15,0.156 -0.14,0 -0.16,-0.078 -0.21,-0.218 -0.43,-1.391 -1.36,-2.047 -2.06,-2.047 -0.56,0 -0.86,0.422 -0.86,1.062 0,0.36 0.06,0.61 0.31,1.656 l 0.57,2.157 c 0.23,0.953 0.76,1.656 1.5,1.656 0.03,0 0.48,0 0.81,-0.203 z"
   id="path33"
   inkscape:connector-curvature="0"
   style="fill:#000000;stroke-width:0" />
<line
   x1="114.81"
   y1="19.891001"
   x2="131.78999"
   y2="19.891001"
   id="line35"
   style="stroke-width:0.63800001" />
<path
   d="m 126.4,7.6406 h -0.36 C 125.99,7.375 125.87,6.5 125.71,6.2344 125.6,6.0938 124.69,6.0938 124.21,6.0938 h -2.94 c 0.42,0.375 1.41,1.3906 1.82,1.7656 2.42,2.2346 3.31,3.0466 3.31,4.6246 0,1.828 -1.46,3.047 -3.3,3.047 -1.84,0 -2.92,-1.562 -2.92,-2.937 0,-0.813 0.7,-0.813 0.75,-0.813 0.33,0 0.73,0.25 0.73,0.75 0,0.453 -0.29,0.75 -0.73,0.75 -0.16,0 -0.19,0 -0.24,-0.015 0.32,1.078 1.18,1.812 2.21,1.812 1.34,0 2.17,-1.125 2.17,-2.594 0,-1.343 -0.78,-2.5309 -1.69,-3.5465 l -3.2,-3.5937 v -0.375 h 5.8 z"
   id="path37"
   inkscape:connector-curvature="0"
   style="fill:#000000;stroke-width:0" />
<path
   d="m 141.36,19.941 -0.02,1.172 -0.05,1.171 -0.09,1.167 -0.13,1.162 -0.16,1.153 -0.21,1.142 -0.26,1.13 -0.3,1.114 -0.34,1.097 -0.2,0.541 -0.2,0.536 -0.22,0.53 -0.23,0.525 -0.24,0.518 -0.26,0.512 -0.27,0.505 -0.28,0.498 -0.3,0.491 -0.31,0.483 -0.33,0.475 -0.34,0.467 -0.36,0.459 -0.37,0.449 c -0.31,0.36 -0.92,1.016 -1.58,1.578 -0.19,0.204 -0.22,0.204 -0.43,0.204 -0.19,0 -0.33,0 -0.33,-0.157 0,-0.078 0.06,-0.14 0.09,-0.172 0.55,-0.562 1.61,-1.625 2.69,-3.343 2.55,-4.11 3.72,-9.266 3.72,-15.391 0,-4.281 -0.58,-9.797 -3.21,-14.5312 -1.25,-2.25 -2.57,-3.5781 -3.23,-4.2344 -0.03,-0.0469 -0.06,-0.0937 -0.06,-0.1406 0,-0.17189 0.14,-0.17189 0.33,-0.17189 0.21,0 0.24,0 0.48,0.24999 5.33,4.8438 7,12.1251 7,18.8121 z"
   id="path39"
   inkscape:connector-curvature="0"
   style="fill:#000000;stroke-width:0" />
<path
   d="m 154.6,19.574 h 4.4 c 0.21,0 0.5,0 0.5,0.281 0,0.313 -0.27,0.313 -0.5,0.313 h -4.4 v 4.375 c 0,0.234 0,0.516 -0.28,0.516 -0.31,0 -0.31,-0.266 -0.31,-0.516 v -4.375 h -4.39 c -0.22,0 -0.5,0 -0.5,-0.297 0,-0.297 0.27,-0.297 0.5,-0.297 h 4.39 v -4.39 c 0,-0.219 0,-0.5 0.3,-0.5 0.29,0 0.29,0.265 0.29,0.5 z"
   id="path41"
   inkscape:connector-curvature="0"
   style="fill:#000000;stroke-width:0" />
<path
   d="m 171.04,22.293 0.03,0 0.03,0 0.02,0 0.03,0.001 0.02,0 0.03,0.001 0.02,10e-4 0.02,0.002 0.02,0.002 0.02,0.002 0.02,0.003 0.02,0.004 0.01,0.004 0.02,0.005 0.01,0.006 0.02,0.006 0.01,0.007 0.01,0.009 0.01,0.009 0.01,0.01 0.01,0.012 0.01,0.012 0.01,0.014 0,0.015 0.01,0.017 0,0.008 0,0.009 0.01,0.01 0,0.009 0,0.01 0,0.011 0,0.011 0,0.011 0,0.012 0.01,0.012 0,0.012 0,0.013 0,0.013 0,0.014 c 0,0.156 -0.13,0.156 -0.41,0.156 h -1.3 c 0.32,1.641 0.53,2.766 0.66,3.281 0.09,0.375 0.42,0.75 0.84,0.75 0.33,0 0.68,-0.14 0.83,-0.297 -0.62,-0.062 -0.81,-0.515 -0.81,-0.781 0,-0.328 0.23,-0.515 0.55,-0.515 0.31,0 0.78,0.265 0.78,0.875 0,0.671 -0.66,1.031 -1.36,1.031 -0.69,0 -1.36,-0.5 -1.67,-1.125 -0.29,-0.563 -0.44,-1.125 -0.82,-3.219 h -1.06 c -0.3,0 -0.45,0 -0.45,-0.281 0,-0.172 0.09,-0.172 0.4,-0.172 h 1.02 c -0.28,-1.484 -0.94,-5.078 -1.3,-6.766 -0.28,-1.39 -0.51,-2.546 -1.31,-2.546 -0.05,0 -0.5,0 -0.8,0.296 0.82,0.063 0.82,0.766 0.82,0.782 0,0.312 -0.24,0.515 -0.54,0.515 -0.32,0 -0.79,-0.281 -0.79,-0.875 0,-0.687 0.7,-1.047 1.31,-1.047 1.63,0 2.3,2.922 2.47,3.703 0.28,1.235 1.06,5.454 1.14,5.938 z"
   id="path43"
   inkscape:connector-curvature="0"
   style="fill:#000000;stroke-width:0" />
<path
   d="m 187.12,1.0508 0,0.0057 0,0.0056 0,0.0055 0,0.0052 0,0.0052 0,0.0049 0,0.0049 0,0.0047 -0.01,0.0046 0,0.0045 0,0.0045 0,0.0043 0,0.0042 0,0.0042 -0.01,0.0041 0,0.0041 0,0.0079 -0.01,0.0079 0,0.0078 -0.01,0.0078 0,0.008 -0.01,0.0081 -0.01,0.0083 0,0.0086 c -0.6,0.5781 -1.66,1.6563 -2.72,3.3594 -2.56,4.1094 -3.72,9.2652 -3.72,15.3902 0,4.282 0.58,9.797 3.19,14.532 1.26,2.25 2.56,3.562 3.26,4.25 0.05,0.047 0.05,0.078 0.05,0.14 0,0.157 -0.11,0.157 -0.33,0.157 -0.23,0 -0.26,0 -0.5,-0.25 -5.33,-4.844 -6.98,-12.125 -6.98,-18.813 0,-6.25 1.42,-12.5468 5.47,-17.2968 0.31,-0.3594 0.9,-1.0157 1.56,-1.5782 0.19,-0.20309 0.22,-0.20309 0.45,-0.20309 0.22,0 0.33,0 0.33,0.17189 z"
   id="path45"
   inkscape:connector-curvature="0"
   style="fill:#000000;stroke-width:0" />
<path
   d="m 193.53,21.855 -0.02,0.041 -0.02,0.041 -0.02,0.042 -0.02,0.043 -0.02,0.044 -0.03,0.044 -0.02,0.045 -0.03,0.044 -0.03,0.045 -0.03,0.045 -0.04,0.044 -0.03,0.044 -0.04,0.043 -0.04,0.043 -0.04,0.041 -0.04,0.041 -0.04,0.039 -0.05,0.038 -0.05,0.036 -0.05,0.035 -0.05,0.033 -0.05,0.031 -0.06,0.028 -0.06,0.026 -0.06,0.024 -0.06,0.021 -0.07,0.018 -0.06,0.016 -0.07,0.012 -0.07,0.009 -0.08,0.005 -0.08,0.002 c -1.79,0 -3.73,-2.328 -3.73,-4.672 0,-1.578 0.92,-2.5 2,-2.5 l 0.05,0.313 c -0.66,0 -1.02,0.593 -1.02,1.531 0,0.875 0.49,2.656 0.8,3.312 0.53,1.125 1.28,1.688 1.9,1.688 1.05,0 1.25,-1.297 1.25,-1.422 0,-0.016 -0.04,-0.234 -0.06,-0.266 l -0.78,-3.109 c -0.08,-0.266 -0.08,-0.297 -0.3,-0.609 -0.36,-0.438 -1.04,-1.125 -1.79,-1.125 l -0.05,-0.313 c 0.88,0 1.63,0.688 2.06,1.203 0.16,-0.937 0.91,-1.203 1.39,-1.203 0.47,0 0.86,0.281 1.14,0.859 0.25,0.532 0.47,1.5 0.47,1.563 0,0.094 -0.06,0.156 -0.15,0.156 -0.14,0 -0.16,-0.078 -0.22,-0.328 -0.24,-0.937 -0.55,-1.937 -1.19,-1.937 -0.47,0 -0.5,0.421 -0.5,0.734 0,0.359 0.05,0.547 0.19,1.156 0.11,0.406 0.2,0.75 0.33,1.219 0.57,2.375 0.71,2.953 0.71,3.047 0,0.219 -0.17,0.39 -0.4,0.39 -0.52,0 -0.64,-0.546 -0.67,-0.75 z"
   id="path47"
   inkscape:connector-curvature="0"
   style="fill:#000000;stroke-width:0" />
<path
   d="m 205.81,19.574 h 4.39 c 0.22,0 0.5,0 0.5,0.281 0,0.313 -0.27,0.313 -0.5,0.313 h -4.39 v 4.375 c 0,0.234 0,0.516 -0.28,0.516 -0.32,0 -0.32,-0.266 -0.32,-0.516 v -4.375 h -4.39 c -0.22,0 -0.5,0 -0.5,-0.297 0,-0.297 0.27,-0.297 0.5,-0.297 h 4.39 v -4.39 c 0,-0.219 0,-0.5 0.3,-0.5 0.3,0 0.3,0.265 0.3,0.5 z"
   id="path49"
   inkscape:connector-curvature="0"
   style="fill:#000000;stroke-width:0" />
<path
   d="m 223.15,26.543 0,0.006 0,0.006 0,0.006 0,0.007 0.01,0.013 0,0.014 0.01,0.014 0,0.015 0,0.015 0.01,0.015 0,0.016 0,0.015 0.01,0.016 0,0.016 0,0.015 0,0.015 0,0.008 0,0.007 0,0.008 0.01,0.007 c 0,0.157 -0.16,0.157 -0.19,0.157 -0.03,0 -0.8,-0.063 -0.88,-0.079 -0.28,-0.015 -0.51,-0.046 -0.79,-0.062 -0.41,-0.031 -0.52,-0.047 -0.52,-0.344 0,-0.156 0.13,-0.156 0.36,-0.156 0.77,0 0.78,-0.141 0.78,-0.297 0,-0.094 -0.03,-0.219 -0.05,-0.266 l -0.96,-3.875 c -0.18,0.422 -0.6,1.063 -1.43,1.063 -1.79,0 -3.73,-2.328 -3.73,-4.672 0,-1.578 0.92,-2.5 2,-2.5 l 0.05,0.313 c -0.66,0 -1.02,0.593 -1.02,1.531 0,0.875 0.48,2.656 0.8,3.312 0.53,1.125 1.28,1.688 1.9,1.688 1.05,0 1.25,-1.297 1.25,-1.422 0,-0.016 -0.04,-0.234 -0.06,-0.266 l -0.78,-3.109 c -0.08,-0.266 -0.08,-0.297 -0.3,-0.609 -0.36,-0.438 -1.04,-1.125 -1.79,-1.125 l -0.05,-0.313 c 0.87,0 1.62,0.688 2.06,1.203 0.16,-0.937 0.91,-1.203 1.39,-1.203 0.47,0 0.86,0.281 1.14,0.859 0.25,0.532 0.47,1.5 0.47,1.563 0,0.094 -0.06,0.156 -0.15,0.156 -0.15,0 -0.16,-0.078 -0.22,-0.328 -0.24,-0.937 -0.55,-1.937 -1.19,-1.937 -0.47,0 -0.5,0.421 -0.5,0.734 0,0.062 0,0.391 0.11,0.844 z"
   id="path51"
   inkscape:connector-curvature="0"
   style="fill:#000000;stroke-width:0" />
<path
   d="m 230.79,22.387 -0.05,-0.01 -0.05,-0.011 -0.04,-0.013 -0.04,-0.014 -0.04,-0.016 -0.04,-0.016 -0.03,-0.019 -0.04,-0.019 -0.03,-0.02 -0.03,-0.022 -0.03,-0.023 -0.03,-0.023 -0.02,-0.025 -0.03,-0.025 -0.02,-0.026 -0.02,-0.027 -0.02,-0.027 -0.02,-0.028 -0.02,-0.029 -0.02,-0.029 -0.01,-0.029 -0.02,-0.03 -0.01,-0.03 -0.01,-0.03 -0.01,-0.03 -0.01,-0.03 0,-0.031 -0.01,-0.03 0,-0.03 -0.01,-0.03 0,-0.03 0,-0.03 c 0,-0.375 0.32,-0.5 0.53,-0.5 0.47,0 0.82,0.407 0.82,0.844 0,0.656 -0.77,0.969 -1.44,0.969 -0.97,0 -1.5,-0.953 -1.64,-1.266 -0.38,1.203 -1.36,1.266 -1.64,1.266 -1.63,0 -2.49,-2.094 -2.49,-2.438 0,-0.062 0.07,-0.14 0.18,-0.14 0.12,0 0.15,0.094 0.18,0.156 0.55,1.766 1.61,2.094 2.08,2.094 0.7,0 0.86,-0.656 0.86,-1.047 0,-0.344 -0.09,-0.719 -0.3,-1.469 l -0.53,-2.187 c -0.25,-0.953 -0.7,-1.828 -1.54,-1.828 -0.08,0 -0.47,0 -0.82,0.203 0.58,0.125 0.71,0.593 0.71,0.781 0,0.328 -0.24,0.516 -0.55,0.516 -0.38,0 -0.8,-0.344 -0.8,-0.844 0,-0.672 0.75,-0.969 1.44,-0.969 0.77,0 1.3,0.594 1.64,1.25 0.25,-0.937 1.05,-1.25 1.64,-1.25 1.61,0 2.47,2.078 2.47,2.422 0,0.094 -0.06,0.156 -0.16,0.156 -0.14,0 -0.15,-0.078 -0.2,-0.219 -0.44,-1.39 -1.36,-2.046 -2.06,-2.046 -0.56,0 -0.86,0.421 -0.86,1.062 0,0.359 0.06,0.609 0.31,1.656 l 0.56,2.157 c 0.24,0.953 0.77,1.656 1.5,1.656 0.03,0 0.49,0 0.82,-0.203 z"
   id="path53"
   inkscape:connector-curvature="0"
   style="fill:#000000;stroke-width:0" />
<path
   d="m 242.01,19.574 h 4.39 c 0.22,0 0.5,0 0.5,0.281 0,0.313 -0.26,0.313 -0.5,0.313 h -4.39 v 4.375 c 0,0.234 0,0.516 -0.28,0.516 -0.31,0 -0.31,-0.266 -0.31,-0.516 v -4.375 h -4.39 c -0.22,0 -0.5,0 -0.5,-0.297 0,-0.297 0.26,-0.297 0.5,-0.297 h 4.39 v -4.39 c 0,-0.219 0,-0.5 0.29,-0.5 0.3,0 0.3,0.265 0.3,0.5 z"
   id="path55"
   inkscape:connector-curvature="0"
   style="fill:#000000;stroke-width:0" />
<path
   d="m 260.55,37.328 0,0.006 0,0.006 0,0.006 0,0.007 0.01,0.013 0,0.014 0,0.014 0.01,0.015 0,0.015 0.01,0.015 0,0.016 0,0.015 0.01,0.016 0,0.016 0,0.015 0,0.016 0,0.007 0,0.008 0,0.007 0,0.007 c 0,0.157 -0.15,0.157 -0.18,0.157 -0.03,0 -0.8,-0.063 -0.88,-0.078 -0.28,-0.016 -0.51,-0.047 -0.8,-0.063 -0.4,-0.031 -0.51,-0.047 -0.51,-0.344 0,-0.156 0.12,-0.156 0.36,-0.156 0.76,0 0.78,-0.14 0.78,-0.297 0,-0.093 -0.03,-0.219 -0.05,-0.265 l -0.97,-3.875 c -0.17,0.421 -0.59,1.062 -1.42,1.062 -1.8,0 -3.73,-2.328 -3.73,-4.672 0,-1.578 0.92,-2.5 2,-2.5 l 0.04,0.313 c -0.65,0 -1.01,0.594 -1.01,1.531 0,0.875 0.48,2.656 0.8,3.313 0.53,1.124 1.28,1.687 1.9,1.687 1.05,0 1.25,-1.297 1.25,-1.422 0,-0.015 -0.05,-0.234 -0.06,-0.265 l -0.78,-3.11 c -0.08,-0.266 -0.08,-0.297 -0.3,-0.609 -0.36,-0.438 -1.05,-1.125 -1.8,-1.125 l -0.04,-0.313 c 0.87,0 1.62,0.688 2.06,1.203 0.16,-0.937 0.91,-1.203 1.39,-1.203 0.47,0 0.86,0.281 1.14,0.86 0.25,0.531 0.47,1.5 0.47,1.562 0,0.094 -0.06,0.156 -0.16,0.156 -0.14,0 -0.15,-0.078 -0.21,-0.328 -0.24,-0.937 -0.55,-1.937 -1.19,-1.937 -0.47,0 -0.5,0.422 -0.5,0.734 0,0.063 0,0.391 0.11,0.844 z"
   id="path57"
   inkscape:connector-curvature="0"
   style="fill:#000000;stroke-width:0" />
<path
   d="m 268.18,33.172 -0.04,-0.01 -0.05,-0.011 -0.04,-0.013 -0.04,-0.014 -0.04,-0.015 -0.04,-0.017 -0.03,-0.018 -0.04,-0.02 -0.03,-0.02 -0.03,-0.022 -0.03,-0.023 -0.03,-0.023 -0.02,-0.025 -0.03,-0.025 -0.02,-0.026 -0.03,-0.027 -0.02,-0.027 -0.02,-0.028 -0.01,-0.029 -0.02,-0.029 -0.01,-0.029 -0.02,-0.03 -0.01,-0.03 -0.01,-0.03 -0.01,-0.03 -0.01,-0.03 0,-0.031 -0.01,-0.03 0,-0.03 -0.01,-0.03 0,-0.03 0,-0.029 c 0,-0.375 0.31,-0.5 0.53,-0.5 0.47,0 0.81,0.406 0.81,0.843 0,0.657 -0.76,0.969 -1.43,0.969 -0.97,0 -1.5,-0.953 -1.64,-1.265 -0.38,1.203 -1.36,1.265 -1.64,1.265 -1.63,0 -2.49,-2.094 -2.49,-2.437 0,-0.063 0.06,-0.141 0.17,-0.141 0.13,0 0.16,0.094 0.19,0.156 0.55,1.766 1.61,2.094 2.08,2.094 0.7,0 0.86,-0.656 0.86,-1.047 0,-0.344 -0.1,-0.719 -0.3,-1.469 l -0.53,-2.187 c -0.25,-0.953 -0.7,-1.828 -1.55,-1.828 -0.08,0 -0.47,0 -0.81,0.203 0.58,0.125 0.7,0.594 0.7,0.781 0,0.328 -0.23,0.516 -0.54,0.516 -0.38,0 -0.8,-0.344 -0.8,-0.844 0,-0.672 0.75,-0.969 1.44,-0.969 0.76,0 1.29,0.594 1.64,1.25 0.25,-0.937 1.04,-1.25 1.64,-1.25 1.61,0 2.47,2.078 2.47,2.422 0,0.094 -0.07,0.156 -0.16,0.156 -0.14,0 -0.16,-0.078 -0.2,-0.218 -0.44,-1.391 -1.36,-2.047 -2.06,-2.047 -0.57,0 -0.86,0.422 -0.86,1.062 0,0.36 0.06,0.61 0.31,1.656 l 0.56,2.157 c 0.24,0.953 0.77,1.656 1.5,1.656 0.03,0 0.49,0 0.81,-0.203 z"
   id="path59"
   inkscape:connector-curvature="0"
   style="fill:#000000;stroke-width:0" />
<line
   x1="252.55"
   y1="19.891001"
   x2="269.53"
   y2="19.891001"
   id="line61"
   style="stroke-width:0.63800001" />
<path
   d="m 264.13,7.6406 h -0.36 C 263.73,7.375 263.6,6.5 263.45,6.2344 263.34,6.0938 262.43,6.0938 261.95,6.0938 h -2.94 c 0.42,0.375 1.4,1.3906 1.81,1.7656 2.42,2.2346 3.31,3.0466 3.31,4.6246 0,1.828 -1.45,3.047 -3.29,3.047 -1.85,0 -2.93,-1.562 -2.93,-2.937 0,-0.813 0.71,-0.813 0.75,-0.813 0.33,0 0.74,0.25 0.74,0.75 0,0.453 -0.3,0.75 -0.74,0.75 -0.15,0 -0.18,0 -0.23,-0.015 0.31,1.078 1.17,1.812 2.2,1.812 1.35,0 2.17,-1.125 2.17,-2.594 0,-1.343 -0.78,-2.5309 -1.68,-3.5465 l -3.21,-3.5937 v -0.375 h 5.8 z"
   id="path63"
   inkscape:connector-curvature="0"
   style="fill:#000000;stroke-width:0" />
<path
   d="m 279.1,19.941 -0.02,1.172 -0.05,1.171 -0.09,1.167 -0.13,1.162 -0.17,1.153 -0.21,1.142 -0.25,1.13 -0.3,1.114 -0.35,1.097 -0.19,0.541 -0.2,0.536 -0.22,0.53 -0.23,0.525 -0.24,0.518 -0.26,0.512 -0.27,0.505 -0.28,0.498 -0.3,0.491 -0.31,0.483 -0.33,0.475 -0.34,0.467 -0.36,0.459 -0.37,0.449 c -0.31,0.36 -0.92,1.016 -1.58,1.578 -0.19,0.204 -0.22,0.204 -0.44,0.204 -0.18,0 -0.32,0 -0.32,-0.157 0,-0.078 0.06,-0.14 0.09,-0.172 0.55,-0.562 1.61,-1.625 2.69,-3.343 2.54,-4.11 3.72,-9.266 3.72,-15.391 0,-4.281 -0.58,-9.797 -3.21,-14.5312 -1.25,-2.25 -2.58,-3.5781 -3.23,-4.2344 -0.03,-0.0469 -0.06,-0.0937 -0.06,-0.1406 0,-0.17189 0.14,-0.17189 0.32,-0.17189 0.22,0 0.25,0 0.49,0.24999 5.33,4.8438 7,12.1251 7,18.8121 z"
   id="path65"
   inkscape:connector-curvature="0"
   style="fill:#000000;stroke-width:0" />
<path
   d="m 292.34,19.574 h 4.39 c 0.22,0 0.5,0 0.5,0.281 0,0.313 -0.27,0.313 -0.5,0.313 h -4.39 v 4.375 c 0,0.234 0,0.516 -0.28,0.516 -0.31,0 -0.31,-0.266 -0.31,-0.516 v -4.375 h -4.39 c -0.22,0 -0.5,0 -0.5,-0.297 0,-0.297 0.26,-0.297 0.5,-0.297 h 4.39 v -4.39 c 0,-0.219 0,-0.5 0.29,-0.5 0.3,0 0.3,0.265 0.3,0.5 z"
   id="path67"
   inkscape:connector-curvature="0"
   style="fill:#000000;stroke-width:0" />
<path
   d="m 308.77,22.293 0.03,0 0.03,0 0.03,0 0.02,0.001 0.03,0 0.02,0.001 0.02,10e-4 0.02,0.002 0.02,0.002 0.02,0.002 0.02,0.003 0.02,0.004 0.02,0.004 0.01,0.005 0.02,0.006 0.01,0.006 0.01,0.007 0.01,0.009 0.01,0.009 0.01,0.01 0.01,0.012 0.01,0.012 0.01,0.014 0.01,0.015 0,0.017 0,0.008 0.01,0.009 0,0.01 0,0.009 0,0.01 0.01,0.011 0,0.011 0,0.011 0,0.012 0,0.012 0,0.012 0,0.013 0,0.013 0,0.014 c 0,0.156 -0.12,0.156 -0.41,0.156 h -1.29 c 0.31,1.641 0.53,2.766 0.65,3.281 0.1,0.375 0.43,0.75 0.85,0.75 0.33,0 0.67,-0.14 0.83,-0.297 -0.63,-0.062 -0.82,-0.515 -0.82,-0.781 0,-0.328 0.24,-0.515 0.55,-0.515 0.31,0 0.78,0.265 0.78,0.875 0,0.671 -0.65,1.031 -1.36,1.031 -0.69,0 -1.36,-0.5 -1.67,-1.125 -0.28,-0.563 -0.44,-1.125 -0.81,-3.219 h -1.06 c -0.3,0 -0.46,0 -0.46,-0.281 0,-0.172 0.1,-0.172 0.41,-0.172 h 1.01 c -0.28,-1.484 -0.93,-5.078 -1.29,-6.766 -0.28,-1.39 -0.52,-2.546 -1.32,-2.546 -0.04,0 -0.5,0 -0.79,0.296 0.81,0.063 0.81,0.766 0.81,0.782 0,0.312 -0.23,0.515 -0.53,0.515 -0.33,0 -0.8,-0.281 -0.8,-0.875 0,-0.687 0.71,-1.047 1.31,-1.047 1.63,0 2.3,2.922 2.47,3.703 0.28,1.235 1.07,5.454 1.14,5.938 z"
   id="path69"
   inkscape:connector-curvature="0"
   style="fill:#000000;stroke-width:0" />
<path
   d="m 324.86,1.0508 -0.01,0.0057 0,0.0056 0,0.0055 0,0.0052 0,0.0052 0,0.0049 0,0.0049 0,0.0047 0,0.0046 0,0.0045 0,0.0045 -0.01,0.0043 0,0.0042 0,0.0042 0,0.0041 0,0.0041 -0.01,0.0079 0,0.0079 -0.01,0.0078 0,0.0078 -0.01,0.008 -0.01,0.0081 0,0.0083 -0.01,0.0086 c -0.59,0.5781 -1.65,1.6563 -2.72,3.3594 -2.56,4.1094 -3.71,9.2652 -3.71,15.3902 0,4.282 0.57,9.797 3.18,14.532 1.27,2.25 2.57,3.562 3.27,4.25 0.05,0.047 0.05,0.078 0.05,0.14 0,0.157 -0.11,0.157 -0.33,0.157 -0.24,0 -0.27,0 -0.5,-0.25 -5.33,-4.844 -6.99,-12.125 -6.99,-18.813 0,-6.25 1.42,-12.5468 5.47,-17.2968 0.31,-0.3594 0.91,-1.0157 1.56,-1.5782 0.19,-0.20309 0.22,-0.20309 0.46,-0.20309 0.22,0 0.33,0 0.33,0.17189 z"
   id="path71"
   inkscape:connector-curvature="0"
   style="fill:#000000;stroke-width:0" />
<path
   d="m 331.26,21.855 -0.01,0.041 -0.02,0.041 -0.02,0.042 -0.02,0.043 -0.03,0.044 -0.02,0.044 -0.03,0.045 -0.03,0.044 -0.03,0.045 -0.03,0.045 -0.03,0.044 -0.04,0.044 -0.03,0.043 -0.04,0.043 -0.04,0.041 -0.04,0.041 -0.05,0.039 -0.04,0.038 -0.05,0.036 -0.05,0.035 -0.05,0.033 -0.06,0.031 -0.05,0.028 -0.06,0.026 -0.06,0.024 -0.07,0.021 -0.06,0.018 -0.07,0.016 -0.07,0.012 -0.07,0.009 -0.07,0.005 -0.08,0.002 c -1.8,0 -3.73,-2.328 -3.73,-4.672 0,-1.578 0.92,-2.5 2,-2.5 l 0.04,0.313 c -0.65,0 -1.01,0.593 -1.01,1.531 0,0.875 0.48,2.656 0.79,3.312 0.53,1.125 1.28,1.688 1.91,1.688 1.05,0 1.25,-1.297 1.25,-1.422 0,-0.016 -0.05,-0.234 -0.06,-0.266 l -0.78,-3.109 c -0.08,-0.266 -0.08,-0.297 -0.3,-0.609 -0.36,-0.438 -1.05,-1.125 -1.8,-1.125 l -0.04,-0.313 c 0.87,0 1.62,0.688 2.06,1.203 0.15,-0.937 0.9,-1.203 1.39,-1.203 0.47,0 0.86,0.281 1.14,0.859 0.25,0.532 0.47,1.5 0.47,1.563 0,0.094 -0.06,0.156 -0.16,0.156 -0.14,0 -0.15,-0.078 -0.22,-0.328 -0.23,-0.937 -0.54,-1.937 -1.18,-1.937 -0.47,0 -0.5,0.421 -0.5,0.734 0,0.359 0.04,0.547 0.18,1.156 0.11,0.406 0.21,0.75 0.33,1.219 0.58,2.375 0.72,2.953 0.72,3.047 0,0.219 -0.17,0.39 -0.41,0.39 -0.51,0 -0.64,-0.546 -0.67,-0.75 z"
   id="path73"
   inkscape:connector-curvature="0"
   style="fill:#000000;stroke-width:0" />
<path
   d="m 343.54,19.574 h 4.39 c 0.22,0 0.5,0 0.5,0.281 0,0.313 -0.26,0.313 -0.5,0.313 h -4.39 v 4.375 c 0,0.234 0,0.516 -0.28,0.516 -0.31,0 -0.31,-0.266 -0.31,-0.516 v -4.375 h -4.39 c -0.22,0 -0.5,0 -0.5,-0.297 0,-0.297 0.26,-0.297 0.5,-0.297 h 4.39 v -4.39 c 0,-0.219 0,-0.5 0.3,-0.5 0.29,0 0.29,0.265 0.29,0.5 z"
   id="path75"
   inkscape:connector-curvature="0"
   style="fill:#000000;stroke-width:0" />
<path
   d="m 359.88,18.574 h -0.36 c -0.05,-0.265 -0.17,-1.14 -0.33,-1.406 -0.11,-0.141 -1.01,-0.141 -1.5,-0.141 h -2.94 c 0.43,0.375 1.41,1.391 1.82,1.766 2.42,2.234 3.31,3.047 3.31,4.625 0,1.828 -1.45,3.047 -3.3,3.047 -1.84,0 -2.92,-1.563 -2.92,-2.938 0,-0.812 0.7,-0.812 0.75,-0.812 0.33,0 0.73,0.25 0.73,0.75 0,0.453 -0.29,0.75 -0.73,0.75 -0.16,0 -0.19,0 -0.23,-0.016 0.31,1.078 1.17,1.813 2.2,1.813 1.34,0 2.17,-1.125 2.17,-2.594 0,-1.344 -0.78,-2.531 -1.69,-3.547 l -3.2,-3.594 v -0.375 h 5.8 z"
   id="path77"
   inkscape:connector-curvature="0"
   style="fill:#000000;stroke-width:0" />
<path
   d="m 368.69,26.543 0,0.006 0,0.006 0,0.006 0,0.007 0.01,0.013 0,0.014 0.01,0.014 0,0.015 0,0.015 0.01,0.015 0,0.016 0,0.015 0.01,0.016 0,0.016 0,0.015 0,0.015 0,0.008 0,0.007 0,0.008 0,0.007 c 0,0.157 -0.15,0.157 -0.18,0.157 -0.03,0 -0.8,-0.063 -0.88,-0.079 -0.28,-0.015 -0.51,-0.046 -0.79,-0.062 -0.41,-0.031 -0.52,-0.047 -0.52,-0.344 0,-0.156 0.12,-0.156 0.36,-0.156 0.76,0 0.78,-0.141 0.78,-0.297 0,-0.094 -0.03,-0.219 -0.05,-0.266 l -0.97,-3.875 c -0.17,0.422 -0.59,1.063 -1.42,1.063 -1.79,0 -3.73,-2.328 -3.73,-4.672 0,-1.578 0.92,-2.5 2,-2.5 l 0.05,0.313 c -0.66,0 -1.02,0.593 -1.02,1.531 0,0.875 0.48,2.656 0.8,3.312 0.53,1.125 1.28,1.688 1.9,1.688 1.05,0 1.25,-1.297 1.25,-1.422 0,-0.016 -0.04,-0.234 -0.06,-0.266 l -0.78,-3.109 c -0.08,-0.266 -0.08,-0.297 -0.3,-0.609 -0.36,-0.438 -1.05,-1.125 -1.79,-1.125 l -0.05,-0.313 c 0.87,0 1.62,0.688 2.06,1.203 0.16,-0.937 0.91,-1.203 1.39,-1.203 0.47,0 0.86,0.281 1.14,0.859 0.25,0.532 0.47,1.5 0.47,1.563 0,0.094 -0.06,0.156 -0.16,0.156 -0.14,0 -0.15,-0.078 -0.21,-0.328 -0.24,-0.937 -0.55,-1.937 -1.19,-1.937 -0.47,0 -0.5,0.421 -0.5,0.734 0,0.062 0,0.391 0.11,0.844 z"
   id="path79"
   inkscape:connector-curvature="0"
   style="fill:#000000;stroke-width:0" />
<path
   d="m 376.32,22.387 -0.04,-0.01 -0.05,-0.011 -0.04,-0.013 -0.04,-0.014 -0.04,-0.016 -0.04,-0.016 -0.03,-0.019 -0.04,-0.019 -0.03,-0.02 -0.03,-0.022 -0.03,-0.023 -0.03,-0.023 -0.02,-0.025 -0.03,-0.025 -0.02,-0.026 -0.02,-0.027 -0.03,-0.027 -0.01,-0.028 -0.02,-0.029 -0.02,-0.029 -0.01,-0.029 -0.02,-0.03 -0.01,-0.03 -0.01,-0.03 -0.01,-0.03 -0.01,-0.03 0,-0.031 -0.01,-0.03 0,-0.03 -0.01,-0.03 0,-0.03 0,-0.03 c 0,-0.375 0.31,-0.5 0.53,-0.5 0.47,0 0.81,0.407 0.81,0.844 0,0.656 -0.76,0.969 -1.43,0.969 -0.97,0 -1.5,-0.953 -1.64,-1.266 -0.38,1.203 -1.36,1.266 -1.64,1.266 -1.63,0 -2.49,-2.094 -2.49,-2.438 0,-0.062 0.06,-0.14 0.17,-0.14 0.13,0 0.16,0.094 0.19,0.156 0.55,1.766 1.61,2.094 2.08,2.094 0.7,0 0.86,-0.656 0.86,-1.047 0,-0.344 -0.1,-0.719 -0.3,-1.469 l -0.53,-2.187 c -0.25,-0.953 -0.7,-1.828 -1.55,-1.828 -0.07,0 -0.47,0 -0.81,0.203 0.58,0.125 0.7,0.593 0.7,0.781 0,0.328 -0.23,0.516 -0.54,0.516 -0.38,0 -0.8,-0.344 -0.8,-0.844 0,-0.672 0.75,-0.969 1.44,-0.969 0.76,0 1.29,0.594 1.64,1.25 0.25,-0.937 1.05,-1.25 1.64,-1.25 1.61,0 2.47,2.078 2.47,2.422 0,0.094 -0.06,0.156 -0.16,0.156 -0.14,0 -0.15,-0.078 -0.2,-0.219 -0.44,-1.39 -1.36,-2.046 -2.06,-2.046 -0.57,0 -0.86,0.421 -0.86,1.062 0,0.359 0.06,0.609 0.31,1.656 l 0.56,2.157 c 0.24,0.953 0.77,1.656 1.5,1.656 0.03,0 0.49,0 0.81,-0.203 z"
   id="path81"
   inkscape:connector-curvature="0"
   style="fill:#000000;stroke-width:0" />
<path
   d="m 387.55,19.574 h 4.39 c 0.22,0 0.5,0 0.5,0.281 0,0.313 -0.26,0.313 -0.5,0.313 h -4.39 v 4.375 c 0,0.234 0,0.516 -0.28,0.516 -0.31,0 -0.31,-0.266 -0.31,-0.516 v -4.375 h -4.39 c -0.22,0 -0.5,0 -0.5,-0.297 0,-0.297 0.26,-0.297 0.5,-0.297 h 4.39 v -4.39 c 0,-0.219 0,-0.5 0.29,-0.5 0.3,0 0.3,0.265 0.3,0.5 z"
   id="path83"
   inkscape:connector-curvature="0"
   style="fill:#000000;stroke-width:0" />
<path
   d="m 406.09,37.328 0,0.006 0,0.006 0,0.006 0,0.007 0.01,0.013 0,0.014 0,0.014 0.01,0.015 0,0.015 0.01,0.015 0,0.016 0,0.015 0.01,0.016 0,0.016 0,0.015 0,0.016 0,0.007 0,0.008 0,0.007 0,0.007 c 0,0.157 -0.15,0.157 -0.18,0.157 -0.04,0 -0.8,-0.063 -0.88,-0.078 -0.28,-0.016 -0.52,-0.047 -0.8,-0.063 -0.4,-0.031 -0.51,-0.047 -0.51,-0.344 0,-0.156 0.12,-0.156 0.36,-0.156 0.76,0 0.78,-0.14 0.78,-0.297 0,-0.093 -0.03,-0.219 -0.05,-0.265 l -0.97,-3.875 c -0.17,0.421 -0.59,1.062 -1.42,1.062 -1.8,0 -3.73,-2.328 -3.73,-4.672 0,-1.578 0.92,-2.5 2,-2.5 l 0.04,0.313 c -0.65,0 -1.01,0.594 -1.01,1.531 0,0.875 0.48,2.656 0.79,3.313 0.54,1.124 1.29,1.687 1.91,1.687 1.05,0 1.25,-1.297 1.25,-1.422 0,-0.015 -0.05,-0.234 -0.06,-0.265 l -0.78,-3.11 c -0.08,-0.266 -0.08,-0.297 -0.3,-0.609 -0.36,-0.438 -1.05,-1.125 -1.8,-1.125 l -0.04,-0.313 c 0.87,0 1.62,0.688 2.06,1.203 0.16,-0.937 0.91,-1.203 1.39,-1.203 0.47,0 0.86,0.281 1.14,0.86 0.25,0.531 0.47,1.5 0.47,1.562 0,0.094 -0.06,0.156 -0.16,0.156 -0.14,0 -0.15,-0.078 -0.22,-0.328 -0.23,-0.937 -0.54,-1.937 -1.18,-1.937 -0.47,0 -0.5,0.422 -0.5,0.734 0,0.063 0,0.391 0.11,0.844 z"
   id="path85"
   inkscape:connector-curvature="0"
   style="fill:#000000;stroke-width:0" />
<path
   d="m 413.72,33.172 -0.04,-0.01 -0.05,-0.011 -0.04,-0.013 -0.04,-0.014 -0.04,-0.015 -0.04,-0.017 -0.03,-0.018 -0.04,-0.02 -0.03,-0.02 -0.03,-0.022 -0.03,-0.023 -0.03,-0.023 -0.03,-0.025 -0.02,-0.025 -0.02,-0.026 -0.03,-0.027 -0.02,-0.027 -0.02,-0.028 -0.01,-0.029 -0.02,-0.029 -0.01,-0.029 -0.02,-0.03 -0.01,-0.03 -0.01,-0.03 -0.01,-0.03 -0.01,-0.03 0,-0.031 -0.01,-0.03 0,-0.03 -0.01,-0.03 0,-0.03 0,-0.029 c 0,-0.375 0.31,-0.5 0.53,-0.5 0.47,0 0.81,0.406 0.81,0.843 0,0.657 -0.76,0.969 -1.43,0.969 -0.97,0 -1.5,-0.953 -1.64,-1.265 -0.38,1.203 -1.36,1.265 -1.65,1.265 -1.62,0 -2.48,-2.094 -2.48,-2.437 0,-0.063 0.06,-0.141 0.17,-0.141 0.13,0 0.16,0.094 0.19,0.156 0.55,1.766 1.61,2.094 2.08,2.094 0.7,0 0.86,-0.656 0.86,-1.047 0,-0.344 -0.1,-0.719 -0.3,-1.469 l -0.53,-2.187 c -0.25,-0.953 -0.7,-1.828 -1.55,-1.828 -0.08,0 -0.47,0 -0.81,0.203 0.58,0.125 0.7,0.594 0.7,0.781 0,0.328 -0.23,0.516 -0.54,0.516 -0.38,0 -0.8,-0.344 -0.8,-0.844 0,-0.672 0.75,-0.969 1.44,-0.969 0.76,0 1.29,0.594 1.64,1.25 0.25,-0.937 1.04,-1.25 1.64,-1.25 1.61,0 2.47,2.078 2.47,2.422 0,0.094 -0.07,0.156 -0.16,0.156 -0.14,0 -0.16,-0.078 -0.2,-0.218 -0.44,-1.391 -1.36,-2.047 -2.07,-2.047 -0.56,0 -0.85,0.422 -0.85,1.062 0,0.36 0.06,0.61 0.31,1.656 l 0.56,2.157 c 0.23,0.953 0.77,1.656 1.5,1.656 0.03,0 0.48,0 0.81,-0.203 z"
   id="path87"
   inkscape:connector-curvature="0"
   style="fill:#000000;stroke-width:0" />
<line
   x1="398.09"
   y1="19.891001"
   x2="415.07001"
   y2="19.891001"
   id="line89"
   style="stroke-width:0.63800001" />
<path
   d="m 409.68,7.6406 h -0.36 C 409.27,7.375 409.14,6.5 408.99,6.2344 408.88,6.0938 407.97,6.0938 407.49,6.0938 h -2.94 c 0.42,0.375 1.41,1.3906 1.81,1.7656 2.43,2.2346 3.32,3.0466 3.32,4.6246 0,1.828 -1.46,3.047 -3.3,3.047 -1.84,0 -2.92,-1.562 -2.92,-2.937 0,-0.813 0.7,-0.813 0.75,-0.813 0.33,0 0.73,0.25 0.73,0.75 0,0.453 -0.3,0.75 -0.73,0.75 -0.16,0 -0.19,0 -0.24,-0.015 0.32,1.078 1.17,1.812 2.21,1.812 1.34,0 2.17,-1.125 2.17,-2.594 0,-1.343 -0.78,-2.5309 -1.69,-3.5465 l -3.2,-3.5937 v -0.375 h 5.79 z"
   id="path91"
   inkscape:connector-curvature="0"
   style="fill:#000000;stroke-width:0" />
<path
   d="m 424.64,19.941 -0.02,1.172 -0.05,1.171 -0.09,1.167 -0.13,1.162 -0.17,1.153 -0.21,1.142 -0.25,1.13 -0.3,1.114 -0.35,1.097 -0.19,0.541 -0.2,0.536 -0.22,0.53 -0.23,0.525 -0.24,0.518 -0.26,0.512 -0.27,0.505 -0.28,0.498 -0.3,0.491 -0.32,0.483 -0.32,0.475 -0.34,0.467 -0.36,0.459 -0.37,0.449 c -0.31,0.36 -0.92,1.016 -1.58,1.578 -0.19,0.204 -0.22,0.204 -0.44,0.204 -0.19,0 -0.33,0 -0.33,-0.157 0,-0.078 0.07,-0.14 0.1,-0.172 0.54,-0.562 1.61,-1.625 2.69,-3.343 2.54,-4.11 3.71,-9.266 3.71,-15.391 0,-4.281 -0.57,-9.797 -3.2,-14.5312 -1.25,-2.25 -2.58,-3.5781 -3.23,-4.2344 -0.03,-0.0469 -0.07,-0.0937 -0.07,-0.1406 0,-0.17189 0.14,-0.17189 0.33,-0.17189 0.22,0 0.25,0 0.49,0.24999 5.32,4.8438 7,12.1251 7,18.8121 z"
   id="path93"
   inkscape:connector-curvature="0"
   style="fill:#000000;stroke-width:0" />
<path
   d="m 437.88,19.574 h 4.39 c 0.22,0 0.5,0 0.5,0.281 0,0.313 -0.27,0.313 -0.5,0.313 h -4.39 v 4.375 c 0,0.234 0,0.516 -0.28,0.516 -0.31,0 -0.31,-0.266 -0.31,-0.516 v -4.375 h -4.4 c -0.21,0 -0.5,0 -0.5,-0.297 0,-0.297 0.27,-0.297 0.5,-0.297 h 4.4 v -4.39 c 0,-0.219 0,-0.5 0.29,-0.5 0.3,0 0.3,0.265 0.3,0.5 z"
   id="path95"
   inkscape:connector-curvature="0"
   style="fill:#000000;stroke-width:0" />
<path
   d="m 450.14,16.668 0,0.042 0,0.041 -0.01,0.041 -0.01,0.04 -0.01,0.038 -0.01,0.038 -0.01,0.037 -0.01,0.036 -0.02,0.035 -0.02,0.034 -0.02,0.033 -0.02,0.031 -0.02,0.031 -0.02,0.029 -0.03,0.028 -0.03,0.027 -0.02,0.025 -0.03,0.024 -0.03,0.022 -0.03,0.021 -0.03,0.02 -0.03,0.018 -0.04,0.017 -0.03,0.015 -0.03,0.013 -0.04,0.012 -0.03,0.01 -0.04,0.008 -0.04,0.007 -0.03,0.004 -0.04,0.003 -0.03,0.001 c -0.46,0 -0.79,-0.39 -0.79,-0.765 0,-0.469 0.39,-0.782 0.77,-0.782 0.47,0 0.78,0.375 0.78,0.766 z"
   id="path97"
   inkscape:connector-curvature="0"
   style="fill:#000000;stroke-width:0" />
<path
   d="m 454.47,16.668 0,0.042 0,0.041 -0.01,0.041 0,0.04 -0.01,0.038 -0.01,0.038 -0.02,0.037 -0.01,0.036 -0.02,0.035 -0.02,0.034 -0.02,0.033 -0.02,0.031 -0.02,0.031 -0.02,0.029 -0.03,0.028 -0.02,0.027 -0.03,0.025 -0.03,0.024 -0.03,0.022 -0.03,0.021 -0.03,0.02 -0.03,0.018 -0.03,0.017 -0.04,0.015 -0.03,0.013 -0.04,0.012 -0.03,0.01 -0.04,0.008 -0.03,0.007 -0.04,0.004 -0.04,0.003 -0.03,0.001 c -0.46,0 -0.78,-0.39 -0.78,-0.765 0,-0.469 0.39,-0.782 0.76,-0.782 0.47,0 0.78,0.375 0.78,0.766 z"
   id="path99"
   inkscape:connector-curvature="0"
   style="fill:#000000;stroke-width:0" />
<path
   d="m 458.8,16.668 0,0.042 0,0.041 0,0.041 -0.01,0.04 -0.01,0.038 -0.01,0.038 -0.02,0.037 -0.01,0.036 -0.02,0.035 -0.01,0.034 -0.02,0.033 -0.02,0.031 -0.03,0.031 -0.02,0.029 -0.03,0.028 -0.02,0.027 -0.03,0.025 -0.03,0.024 -0.03,0.022 -0.03,0.021 -0.03,0.02 -0.03,0.018 -0.03,0.017 -0.04,0.015 -0.03,0.013 -0.04,0.012 -0.03,0.01 -0.04,0.008 -0.03,0.007 -0.04,0.004 -0.03,0.003 -0.04,0.001 c -0.45,0 -0.78,-0.39 -0.78,-0.765 0,-0.469 0.39,-0.782 0.76,-0.782 0.47,0 0.78,0.375 0.78,0.766 z"
   id="path101"
   inkscape:connector-curvature="0"
   style="fill:#000000;stroke-width:0" />
<polygon
   points="464.63,0.87891 464.63,39.02 460.45,39.02 460.45,38.145 463.76,38.145 463.76,1.7539 460.45,1.7539 460.45,0.87891 "
   id="polygon103"
   style="fill:#000000;stroke-width:0" />
<path
   d="m 479.29,26.543 0,0.006 0.01,0.006 0,0.006 0,0.007 0,0.013 0.01,0.014 0,0.014 0,0.015 0.01,0.015 0,0.015 0.01,0.016 0,0.015 0,0.016 0,0.016 0.01,0.015 0,0.015 0,0.008 0,0.007 0,0.008 0,0.007 c 0,0.157 -0.16,0.157 -0.19,0.157 -0.03,0 -0.79,-0.063 -0.87,-0.079 -0.28,-0.015 -0.52,-0.046 -0.8,-0.062 -0.41,-0.031 -0.52,-0.047 -0.52,-0.344 0,-0.156 0.13,-0.156 0.36,-0.156 0.77,0 0.79,-0.141 0.79,-0.297 0,-0.094 -0.04,-0.219 -0.05,-0.266 l -0.97,-3.875 c -0.17,0.422 -0.59,1.063 -1.42,1.063 -1.8,0 -3.74,-2.328 -3.74,-4.672 0,-1.578 0.93,-2.5 2,-2.5 l 0.05,0.313 c -0.66,0 -1.02,0.593 -1.02,1.531 0,0.875 0.49,2.656 0.8,3.312 0.53,1.125 1.28,1.688 1.91,1.688 1.04,0 1.25,-1.297 1.25,-1.422 0,-0.016 -0.05,-0.234 -0.06,-0.266 l -0.79,-3.109 C 476,17.527 476,17.496 475.78,17.184 c -0.36,-0.438 -1.05,-1.125 -1.8,-1.125 l -0.05,-0.313 c 0.88,0 1.63,0.688 2.07,1.203 0.15,-0.937 0.9,-1.203 1.39,-1.203 0.47,0 0.86,0.281 1.14,0.859 0.25,0.532 0.47,1.5 0.47,1.563 0,0.094 -0.07,0.156 -0.16,0.156 -0.14,0 -0.16,-0.078 -0.22,-0.328 -0.23,-0.937 -0.55,-1.937 -1.19,-1.937 -0.47,0 -0.5,0.421 -0.5,0.734 0,0.062 0,0.391 0.11,0.844 z"
   id="path105"
   inkscape:connector-curvature="0"
   style="fill:#000000;stroke-width:0" />
<path
   d="m 486.93,22.387 -0.04,-0.01 -0.05,-0.011 -0.04,-0.013 -0.04,-0.014 -0.04,-0.016 -0.04,-0.016 -0.03,-0.019 -0.04,-0.019 -0.03,-0.02 -0.03,-0.022 -0.03,-0.023 -0.03,-0.023 -0.02,-0.025 -0.03,-0.025 -0.02,-0.026 -0.03,-0.027 -0.02,-0.027 -0.02,-0.028 -0.01,-0.029 -0.02,-0.029 -0.01,-0.029 -0.02,-0.03 -0.01,-0.03 -0.01,-0.03 -0.01,-0.03 -0.01,-0.03 0,-0.031 -0.01,-0.03 0,-0.03 -0.01,-0.03 0,-0.03 0,-0.03 c 0,-0.375 0.31,-0.5 0.53,-0.5 0.47,0 0.81,0.407 0.81,0.844 0,0.656 -0.76,0.969 -1.43,0.969 -0.97,0 -1.5,-0.953 -1.64,-1.266 -0.38,1.203 -1.36,1.266 -1.64,1.266 -1.63,0 -2.49,-2.094 -2.49,-2.438 0,-0.062 0.06,-0.14 0.17,-0.14 0.13,0 0.16,0.094 0.19,0.156 0.55,1.766 1.61,2.094 2.08,2.094 0.7,0 0.86,-0.656 0.86,-1.047 0,-0.344 -0.1,-0.719 -0.3,-1.469 l -0.53,-2.187 c -0.25,-0.953 -0.7,-1.828 -1.55,-1.828 -0.08,0 -0.47,0 -0.81,0.203 0.58,0.125 0.7,0.593 0.7,0.781 0,0.328 -0.23,0.516 -0.54,0.516 -0.38,0 -0.8,-0.344 -0.8,-0.844 0,-0.672 0.75,-0.969 1.44,-0.969 0.76,0 1.29,0.594 1.64,1.25 0.25,-0.937 1.04,-1.25 1.64,-1.25 1.61,0 2.47,2.078 2.47,2.422 0,0.094 -0.07,0.156 -0.16,0.156 -0.14,0 -0.16,-0.078 -0.2,-0.219 -0.44,-1.39 -1.36,-2.046 -2.06,-2.046 -0.57,0 -0.86,0.421 -0.86,1.062 0,0.359 0.06,0.609 0.31,1.656 l 0.56,2.157 c 0.24,0.953 0.77,1.656 1.5,1.656 0.03,0 0.49,0 0.81,-0.203 z"
   id="path107"
   inkscape:connector-curvature="0"
   style="fill:#000000;stroke-width:0" />
</g></svg>
