<?xml version="1.0" encoding="UTF-8" standalone="no"?>
<svg
   xmlns:dc="http://purl.org/dc/elements/1.1/"
   xmlns:cc="http://creativecommons.org/ns#"
   xmlns:rdf="http://www.w3.org/1999/02/22-rdf-syntax-ns#"
   xmlns:svg="http://www.w3.org/2000/svg"
   xmlns="http://www.w3.org/2000/svg"
   xmlns:sodipodi="http://sodipodi.sourceforge.net/DTD/sodipodi-0.dtd"
   xmlns:inkscape="http://www.inkscape.org/namespaces/inkscape"
   version="1.1"
   id="body"
   width="198.94405"
   height="100.38998"
   viewBox="0 0 0.27631118 0.13943053"
   preserveAspectRatio="none"
   inkscape:version="0.48.3.1 r9886"
   sodipodi:docname="ch1-Z-G-36.svg">
  <metadata
     id="metadata59">
    <rdf:RDF>
      <cc:Work
         rdf:about="">
        <dc:format>image/svg+xml</dc:format>
        <dc:type
           rdf:resource="http://purl.org/dc/dcmitype/StillImage" />
      </cc:Work>
    </rdf:RDF>
  </metadata>
  <defs
     id="defs57" />
  <sodipodi:namedview
     pagecolor="#ffffff"
     bordercolor="#666666"
     borderopacity="1"
     objecttolerance="10"
     gridtolerance="10"
     guidetolerance="10"
     inkscape:pageopacity="0"
     inkscape:pageshadow="2"
     inkscape:window-width="640"
     inkscape:window-height="480"
     id="namedview55"
     showgrid="false"
     inkscape:zoom="0.32777778"
     inkscape:cx="381.79688"
     inkscape:cy="459.40744"
     inkscape:window-x="0"
     inkscape:window-y="24"
     inkscape:window-maximized="0"
     inkscape:current-layer="body" />
  <title
     id="title3">SVG drawing</title>
  <desc
     id="desc5">This was produced by version 4.4 of GNU libplot, a free library for exporting 2-D vector graphics.</desc>
  <g
     id="content"
     transform="matrix(0.0017361,0,0,-0.0017361,-9.7655625e-4,0.14013582)"
     xml:space="preserve"
     stroke-miterlimit="10.433"
     font-style="normal"
     font-variant="normal"
     font-weight="normal"
     font-stretch="normal"
     font-size-adjust="none"
     letter-spacing="normal"
     word-spacing="normal"
     style="font-style:normal;font-variant:normal;font-weight:normal;font-stretch:normal;letter-spacing:normal;word-spacing:normal;text-anchor:start;fill:none;stroke:#000000;stroke-linecap:butt;stroke-linejoin:miter;stroke-miterlimit:10.43299961;stroke-opacity:1;stroke-dasharray:none;stroke-dashoffset:0">
<path
   d="m 3.4688,68.086 h 1.4687 c 0.2969,0 0.4687,0 0.4687,0.281 0,0.172 -0.1093,0.172 -0.4218,0.172 H 3.5938 l 0.5781,2.328 c 0.0625,0.219 0.0625,0.25 0.0625,0.36 0,0.265 -0.2032,0.406 -0.4063,0.406 -0.125,0 -0.5,-0.047 -0.625,-0.563 L 2.5781,68.539 H 1.0938 c -0.31255,0 -0.4688,0 -0.4688,-0.297 0,-0.156 0.10938,-0.156 0.4219,-0.156 H 2.4531 L 1.4062,63.883 C 1.2812,63.336 1.2344,63.18 1.2344,62.961 c 0,-0.734 0.5312,-1.422 1.4218,-1.422 1.5938,0 2.4532,2.313 2.4532,2.422 0,0.109 -0.0625,0.156 -0.1563,0.156 -0.0312,0 -0.0937,0 -0.125,-0.062 C 4.8125,64.039 4.7969,64.023 4.6875,63.758 4.3438,62.961 3.625,61.852 2.7031,61.852 c -0.4843,0 -0.5156,0.406 -0.5156,0.75 0,0.015 0,0.312 0.0469,0.515 z"
   id="path9"
   inkscape:connector-curvature="0"
   style="fill:#000000;stroke-width:0" />
<path
   d="m 11.715,67.648 -0.017,0.041 -0.018,0.041 -0.02,0.042 -0.022,0.043 -0.023,0.044 -0.024,0.044 -0.026,0.045 -0.028,0.044 -0.03,0.045 -0.031,0.045 -0.033,0.044 -0.035,0.044 -0.037,0.043 -0.038,0.043 -0.041,0.041 -0.042,0.041 -0.044,0.039 -0.046,0.038 -0.048,0.036 -0.051,0.035 -0.052,0.033 -0.054,0.03 -0.056,0.029 -0.059,0.026 -0.06,0.024 -0.063,0.021 -0.065,0.018 -0.067,0.016 -0.07,0.012 -0.071,0.009 -0.075,0.005 -0.076,0.002 c -1.7969,0 -3.7344,-2.328 -3.7344,-4.672 0,-1.578 0.9219,-2.5 2,-2.5 l 0.0469,0.313 c -0.6563,0 -1.0157,0.593 -1.0157,1.531 0,0.875 0.4844,2.656 0.7969,3.312 0.5313,1.125 1.2813,1.688 1.9063,1.688 1.047,0 1.25,-1.297 1.25,-1.422 0,-0.016 -0.047,-0.234 -0.062,-0.266 L 10.699,63.586 C 10.621,63.32 10.621,63.289 10.402,62.977 10.043,62.539 9.3555,61.852 8.6055,61.852 L 8.5586,61.539 c 0.875,0 1.6254,0.688 2.0624,1.203 0.156,-0.937 0.906,-1.203 1.391,-1.203 0.469,0 0.859,0.281 1.14,0.859 0.25,0.532 0.469,1.5 0.469,1.563 0,0.094 -0.062,0.156 -0.156,0.156 -0.141,0 -0.156,-0.078 -0.219,-0.328 -0.234,-0.937 -0.547,-1.937 -1.187,-1.937 -0.469,0 -0.5,0.421 -0.5,0.734 0,0.359 0.047,0.547 0.187,1.156 0.11,0.406 0.203,0.75 0.328,1.219 0.578,2.375 0.719,2.953 0.719,3.047 0,0.219 -0.172,0.39 -0.406,0.39 -0.516,0 -0.641,-0.546 -0.672,-0.75 z"
   id="path11"
   inkscape:connector-curvature="0"
   style="fill:#000000;stroke-width:0" />
<path
   d="m 17.391,66.352 0.004,0.01 0.006,0.015 0.008,0.019 0.01,0.022 0.012,0.025 0.014,0.029 0.016,0.032 0.018,0.034 0.02,0.038 0.021,0.039 0.024,0.043 0.025,0.044 0.027,0.046 0.029,0.048 0.03,0.05 0.033,0.05 0.033,0.053 0.036,0.053 0.037,0.054 0.038,0.055 0.04,0.055 0.042,0.056 0.043,0.056 0.044,0.056 0.046,0.055 0.048,0.056 0.048,0.054 0.05,0.054 0.052,0.053 0.052,0.052 0.054,0.051 0.055,0.049 c 0.406,0.375 0.953,0.625 1.563,0.625 0.64,0 0.859,-0.469 0.859,-1.11 0,-0.906 -0.64,-2.718 -0.969,-3.578 -0.14,-0.375 -0.218,-0.578 -0.218,-0.875 0,-0.718 0.5,-1.281 1.25,-1.281 1.484,0 2.047,2.328 2.047,2.422 0,0.094 -0.079,0.156 -0.172,0.156 -0.141,0 -0.157,-0.047 -0.235,-0.328 -0.359,-1.297 -0.969,-1.937 -1.593,-1.937 -0.157,0 -0.407,0.015 -0.407,0.531 0,0.39 0.172,0.875 0.266,1.094 0.328,0.875 0.984,2.656 0.984,3.562 0,0.953 -0.547,1.672 -1.765,1.672 -1.407,0 -2.157,-1 -2.438,-1.406 -0.047,0.906 -0.703,1.406 -1.406,1.406 -0.5,0 -0.86,-0.313 -1.125,-0.844 -0.281,-0.578 -0.516,-1.531 -0.516,-1.594 0,-0.062 0.078,-0.14 0.188,-0.14 0.125,0 0.14,0.015 0.234,0.375 0.25,0.969 0.531,1.875 1.172,1.875 0.375,0 0.5,-0.25 0.5,-0.735 0,-0.343 -0.156,-0.968 -0.281,-1.453 l -0.438,-1.718 c -0.062,-0.297 -0.234,-1.016 -0.312,-1.297 -0.125,-0.422 -0.297,-1.172 -0.297,-1.25 0,-0.219 0.172,-0.391 0.422,-0.391 0.187,0 0.406,0.094 0.531,0.328 0.031,0.078 0.188,0.641 0.266,0.953 l 0.343,1.438 z"
   id="path13"
   inkscape:connector-curvature="0"
   style="fill:#000000;stroke-width:0" />
<path
   d="M 33.617,68.18 33.571,68.17 33.527,68.159 33.484,68.146 33.443,68.132 33.404,68.116 33.367,68.1 33.331,68.081 33.296,68.062 33.264,68.041 33.233,68.02 33.203,67.997 33.175,67.974 33.149,67.949 33.124,67.924 33.1,67.898 l -0.022,-0.027 -0.02,-0.027 -0.019,-0.028 -0.018,-0.029 -0.016,-0.029 -0.015,-0.029 -0.014,-0.03 -0.012,-0.03 -0.01,-0.03 -0.01,-0.03 -0.008,-0.03 -0.007,-0.031 -0.005,-0.03 -0.004,-0.03 -0.003,-0.03 -0.002,-0.03 -10e-4,-0.03 c 0,-0.375 0.313,-0.5 0.531,-0.5 0.469,0 0.813,0.407 0.813,0.844 0,0.656 -0.766,0.969 -1.438,0.969 -0.968,0 -1.5,-0.953 -1.64,-1.266 -0.375,1.203 -1.36,1.266 -1.641,1.266 -1.625,0 -2.484,-2.094 -2.484,-2.438 0,-0.062 0.062,-0.14 0.172,-0.14 0.125,0 0.156,0.094 0.187,0.156 0.547,1.766 1.609,2.094 2.078,2.094 0.703,0 0.86,-0.656 0.86,-1.047 0,-0.344 -0.094,-0.719 -0.297,-1.469 L 29.523,63.68 c -0.25,-0.953 -0.703,-1.828 -1.546,-1.828 -0.079,0 -0.469,0 -0.813,0.203 0.578,0.125 0.703,0.593 0.703,0.781 0,0.328 -0.234,0.516 -0.547,0.516 -0.375,0 -0.797,-0.344 -0.797,-0.844 0,-0.672 0.75,-0.969 1.438,-0.969 0.766,0 1.297,0.594 1.641,1.25 0.25,-0.937 1.046,-1.25 1.64,-1.25 1.61,0 2.469,2.078 2.469,2.422 0,0.094 -0.063,0.156 -0.156,0.156 -0.141,0 -0.157,-0.078 -0.203,-0.219 -0.438,-1.39 -1.36,-2.046 -2.063,-2.046 -0.562,0 -0.859,0.421 -0.859,1.062 0,0.359 0.062,0.609 0.312,1.656 l 0.563,2.157 c 0.234,0.953 0.765,1.656 1.5,1.656 0.031,0 0.484,0 0.812,-0.203 z"
   id="path15"
   inkscape:connector-curvature="0"
   style="fill:#000000;stroke-width:0" />
<path
   d="m 50.117,66.852 0.042,0 0.042,0 0.044,10e-4 0.021,0.002 0.022,10e-4 0.021,0.002 0.021,0.002 0.021,0.003 0.021,0.003 0.02,0.004 0.019,0.005 0.02,0.006 0.018,0.006 0.018,0.007 0.017,0.008 0.017,0.008 0.016,0.01 0.014,0.011 0.014,0.012 0.013,0.013 0.012,0.014 0.005,0.008 0.005,0.008 0.005,0.008 0.005,0.008 0.004,0.009 0.004,0.01 0.003,0.009 0.004,0.01 0.003,0.01 0.002,0.011 0.002,0.011 0.002,0.011 0.001,0.012 10e-4,0.012 10e-4,0.013 0,0.013 c 0,0.297 -0.265,0.297 -0.5,0.297 h -9.375 c -0.219,0 -0.5,0 -0.5,-0.282 0,-0.296 0.266,-0.296 0.5,-0.296 z"
   id="path17"
   inkscape:connector-curvature="0"
   style="fill:#000000;stroke-width:0" />
<path
   d="m 50.117,63.883 0.042,0 0.042,0 0.044,0.002 0.021,0.001 0.022,10e-4 0.021,0.002 0.021,0.003 0.021,0.003 0.021,0.003 0.02,0.005 0.019,0.005 0.02,0.005 0.018,0.007 0.018,0.007 0.017,0.009 0.017,0.009 0.016,0.01 0.014,0.012 0.014,0.012 0.013,0.014 0.012,0.015 0.005,0.008 0.005,0.008 0.005,0.009 0.005,0.009 0.004,0.009 0.004,0.01 0.003,0.01 0.004,0.011 0.003,0.011 0.002,0.011 0.002,0.011 0.002,0.012 0.001,0.013 10e-4,0.013 10e-4,0.013 0,0.014 c 0,0.297 -0.265,0.297 -0.5,0.297 h -9.375 c -0.219,0 -0.5,0 -0.5,-0.282 0,-0.312 0.266,-0.312 0.5,-0.312 z"
   id="path19"
   inkscape:connector-curvature="0"
   style="fill:#000000;stroke-width:0" />
<path
   d="m 111.53,80.137 -0.05,-0.01 -0.04,-0.011 -0.05,-0.013 -0.04,-0.014 -0.04,-0.016 -0.03,-0.016 -0.04,-0.019 -0.03,-0.019 -0.04,-0.02 -0.03,-0.022 -0.03,-0.023 -0.03,-0.023 -0.02,-0.025 -0.03,-0.025 -0.02,-0.026 -0.02,-0.027 -0.02,-0.027 -0.02,-0.028 -0.02,-0.029 -0.02,-0.029 -0.01,-0.029 -0.01,-0.03 -0.02,-0.03 -0.01,-0.03 -0.01,-0.03 0,-0.03 -0.01,-0.031 -0.01,-0.03 0,-0.03 0,-0.03 -0.01,-0.03 0,-0.03 c 0,-0.375 0.32,-0.5 0.54,-0.5 0.46,0 0.81,0.407 0.81,0.844 0,0.656 -0.77,0.969 -1.44,0.969 -0.97,0 -1.5,-0.953 -1.64,-1.266 -0.38,1.203 -1.36,1.266 -1.64,1.266 -1.63,0 -2.49,-2.094 -2.49,-2.438 0,-0.062 0.07,-0.14 0.18,-0.14 0.12,0 0.15,0.094 0.18,0.156 0.55,1.766 1.61,2.094 2.08,2.094 0.71,0 0.86,-0.656 0.86,-1.047 0,-0.344 -0.09,-0.719 -0.3,-1.469 l -0.53,-2.187 c -0.25,-0.953 -0.7,-1.828 -1.54,-1.828 -0.08,0 -0.47,0 -0.82,0.203 0.58,0.125 0.71,0.593 0.71,0.781 0,0.328 -0.24,0.516 -0.55,0.516 -0.37,0 -0.8,-0.344 -0.8,-0.844 0,-0.672 0.75,-0.969 1.44,-0.969 0.77,0 1.3,0.594 1.64,1.25 0.25,-0.937 1.05,-1.25 1.64,-1.25 1.61,0 2.47,2.078 2.47,2.422 0,0.094 -0.06,0.156 -0.16,0.156 -0.14,0 -0.15,-0.078 -0.2,-0.219 -0.44,-1.39 -1.36,-2.046 -2.06,-2.046 -0.56,0 -0.86,0.421 -0.86,1.062 0,0.359 0.06,0.609 0.31,1.656 l 0.56,2.157 c 0.24,0.953 0.77,1.656 1.5,1.656 0.04,0 0.49,0 0.82,-0.203 z"
   id="path21"
   inkscape:connector-curvature="0"
   style="fill:#000000;stroke-width:0" />
<line
   x1="57.145"
   y1="65.68"
   x2="159.72"
   y2="65.68"
   id="line23"
   style="stroke-width:0.63800001" />
<path
   d="m 61.723,48.293 0,0.017 0,0.016 0,0.015 0,0.015 0,0.015 -10e-4,0.014 0,0.014 0,0.013 0,0.013 0,0.013 -0.001,0.011 0,0.012 -10e-4,0.011 -10e-4,0.011 0,0.01 -10e-4,0.01 -0.001,0.01 -10e-4,0.009 -10e-4,0.009 -0.002,0.008 -10e-4,0.008 -0.002,0.008 -0.002,0.007 -0.002,0.008 -0.004,0.013 -0.005,0.012 -0.006,0.011 -0.007,0.009 -0.008,0.009 -0.009,0.008 -0.01,0.006 -0.011,0.006 -0.012,0.005 -0.013,0.004 -0.014,0.004 -0.008,0.002 -0.008,10e-4 -0.009,0.001 -0.008,10e-4 -0.009,10e-4 -0.01,0.001 -0.01,10e-4 -0.01,10e-4 -0.011,0 -0.011,0.001 -0.011,0 -0.012,0 -0.012,10e-4 -0.013,0 -0.013,0 -0.013,0 -0.014,0 -0.015,0 c -0.39,-0.422 -1.187,-1.016 -2.812,-1.016 v -0.453 c 0.359,0 1.156,0 2.031,0.406 v -8.281 c 0,-0.562 -0.047,-0.765 -1.453,-0.765 h -0.485 v -0.454 c 0.422,0.032 1.969,0.032 2.485,0.032 0.531,0 2.062,0 2.484,-0.032 v 0.454 h -0.484 c -1.406,0 -1.453,0.203 -1.453,0.765 z"
   id="path25"
   inkscape:connector-curvature="0"
   style="fill:#000000;stroke-width:0" />
<path
   d="m 78.961,41.762 0.053,0 0.052,0 0.051,0.002 0.026,10e-4 0.024,0.002 0.025,0.002 0.024,0.002 0.024,0.003 0.022,0.004 0.023,0.005 0.022,0.005 0.02,0.006 0.021,0.007 0.019,0.008 0.018,0.008 0.018,0.01 0.017,0.011 0.015,0.012 0.015,0.013 0.013,0.015 0.012,0.016 0.011,0.017 0.005,0.009 0.005,0.009 0.004,0.01 0.004,0.01 0.003,0.011 0.004,0.011 0.003,0.011 0.002,0.012 0.002,0.013 0.002,0.012 0.002,0.013 10e-4,0.014 0,0.014 0,0.014 c 0,0.328 -0.281,0.328 -0.562,0.328 h -8.594 c -0.265,0 -0.562,0 -0.562,-0.328 0,-0.312 0.297,-0.312 0.562,-0.312 z"
   id="path27"
   inkscape:connector-curvature="0"
   style="fill:#000000;stroke-width:0" />
<path
   d="m 121.4,56.543 -0.04,-0.01 -0.05,-0.011 -0.04,-0.013 -0.04,-0.014 -0.04,-0.015 -0.04,-0.017 -0.03,-0.018 -0.04,-0.02 -0.03,-0.02 -0.03,-0.022 -0.03,-0.022 -0.03,-0.024 -0.03,-0.025 -0.02,-0.025 -0.03,-0.026 -0.02,-0.027 -0.02,-0.027 -0.02,-0.028 -0.01,-0.029 -0.02,-0.028 -0.02,-0.03 -0.01,-0.03 -0.01,-0.029 -0.01,-0.031 -0.01,-0.03 -0.01,-0.03 -0.01,-0.031 0,-0.03 -0.01,-0.03 0,-0.03 0,-0.03 0,-0.029 c 0,-0.375 0.31,-0.5 0.53,-0.5 0.47,0 0.81,0.406 0.81,0.843 0,0.657 -0.76,0.969 -1.43,0.969 -0.97,0 -1.5,-0.953 -1.65,-1.265 -0.37,1.203 -1.35,1.265 -1.64,1.265 -1.62,0 -2.48,-2.094 -2.48,-2.437 0,-0.063 0.06,-0.141 0.17,-0.141 0.13,0 0.16,0.094 0.19,0.156 0.55,1.766 1.61,2.094 2.08,2.094 0.7,0 0.86,-0.656 0.86,-1.047 0,-0.344 -0.1,-0.719 -0.3,-1.469 l -0.53,-2.187 c -0.25,-0.953 -0.7,-1.828 -1.55,-1.828 -0.08,0 -0.47,0 -0.81,0.203 0.58,0.125 0.7,0.594 0.7,0.781 0,0.328 -0.23,0.516 -0.54,0.516 -0.38,0 -0.8,-0.344 -0.8,-0.844 0,-0.672 0.75,-0.969 1.44,-0.969 0.76,0 1.29,0.594 1.64,1.25 0.25,-0.937 1.04,-1.25 1.64,-1.25 1.61,0 2.47,2.078 2.47,2.422 0,0.094 -0.07,0.156 -0.16,0.156 -0.14,0 -0.16,-0.078 -0.2,-0.218 -0.44,-1.391 -1.36,-2.047 -2.07,-2.047 -0.56,0 -0.86,0.422 -0.86,1.062 0,0.36 0.07,0.61 0.32,1.657 l 0.56,2.156 c 0.23,0.953 0.77,1.656 1.5,1.656 0.03,0 0.48,0 0.81,-0.203 z"
   id="path29"
   inkscape:connector-curvature="0"
   style="fill:#000000;stroke-width:0" />
<path
   d="m 126.82,56.703 1.17,1.156 c 1.75,1.532 2.42,2.141 2.42,3.25 0,1.266 -1.01,2.172 -2.37,2.172 -1.25,0 -2.08,-1.031 -2.08,-2.031 0,-0.625 0.55,-0.625 0.6,-0.625 0.18,0 0.57,0.141 0.57,0.594 0,0.297 -0.2,0.578 -0.59,0.578 -0.1,0 -0.11,0 -0.14,0 0.25,0.719 0.86,1.125 1.5,1.125 1.01,0 1.5,-0.891 1.5,-1.813 0,-0.89 -0.56,-1.781 -1.17,-2.468 l -2.14,-2.391 c -0.13,-0.109 -0.13,-0.141 -0.13,-0.406 h 4.14 l 0.31,1.937 h -0.28 c -0.06,-0.328 -0.14,-0.828 -0.25,-0.984 -0.08,-0.094 -0.81,-0.094 -1.06,-0.094 z"
   id="path31"
   inkscape:connector-curvature="0"
   style="fill:#000000;stroke-width:0" />
<line
   x1="85.628998"
   y1="42.09"
   x2="159.72"
   y2="42.09"
   id="line33"
   style="stroke-width:0.63800001" />
<path
   d="m 88.551,20.215 -0.013,-0.001 -0.012,-10e-4 -0.011,0 -0.012,-0.001 -0.011,-0.001 -0.011,-10e-4 -0.01,0 L 88.46,20.209 88.441,20.207 88.422,20.205 88.404,20.203 88.387,20.201 88.372,20.199 88.357,20.196 88.343,20.194 88.33,20.191 88.318,20.187 88.307,20.184 88.297,20.18 88.287,20.176 88.278,20.171 88.27,20.166 88.263,20.161 88.256,20.155 88.251,20.149 88.245,20.142 88.241,20.135 88.237,20.127 88.233,20.119 88.23,20.11 88.228,20.1 l -0.002,-0.01 -0.002,-0.011 -0.001,-0.011 0,-0.012 0,-0.013 c 0,-0.156 0.078,-0.156 0.359,-0.156 h 0.734 c 1.344,0 1.954,-1.11 1.954,-2.641 0,-2.078 -1.079,-2.64 -1.86,-2.64 -0.765,0 -2.062,0.359 -2.531,1.421 0.516,-0.078 0.969,0.203 0.969,0.766 0,0.469 -0.328,0.781 -0.766,0.781 -0.391,0 -0.797,-0.219 -0.797,-0.828 0,-1.406 1.406,-2.562 3.172,-2.562 1.891,0 3.297,1.437 3.297,3.046 0,1.469 -1.188,2.61 -2.703,2.875 1.375,0.391 2.265,1.563 2.265,2.797 0,1.25 -1.296,2.172 -2.843,2.172 -1.594,0 -2.766,-0.969 -2.766,-2.125 0,-0.64 0.5,-0.765 0.734,-0.765 0.329,0 0.719,0.25 0.719,0.718 0,0.516 -0.39,0.735 -0.734,0.735 -0.094,0 -0.125,0 -0.172,-0.016 0.594,1.078 2.094,1.078 2.172,1.078 0.531,0 1.562,-0.234 1.562,-1.797 0,-0.297 -0.047,-1.187 -0.515,-1.875 -0.469,-0.703 -1.016,-0.75 -1.438,-0.765 z"
   id="path35"
   inkscape:connector-curvature="0"
   style="fill:#000000;stroke-width:0" />
<path
   d="m 107.44,18.168 0.06,0 0.05,0.001 0.05,0.001 0.03,10e-4 0.02,0.002 0.03,0.002 0.02,0.003 0.02,0.003 0.03,0.003 0.02,0.005 0.02,0.005 0.02,0.006 0.02,0.007 0.02,0.008 0.02,0.009 0.02,0.009 0.01,0.011 0.02,0.012 0.01,0.014 0.02,0.014 0.01,0.016 0.01,0.017 0.01,0.009 0,0.01 0,0.009 0.01,0.011 0,0.01 0.01,0.011 0,0.012 0,0.012 0,0.012 0,0.012 0.01,0.014 0,0.013 0,0.014 0,0.014 c 0,0.329 -0.28,0.329 -0.57,0.329 h -8.588 c -0.266,0 -0.563,0 -0.563,-0.329 0,-0.312 0.297,-0.312 0.563,-0.312 z"
   id="path37"
   inkscape:connector-curvature="0"
   style="fill:#000000;stroke-width:0" />
<path
   d="m 135.65,32.953 -0.05,-0.009 -0.05,-0.012 -0.04,-0.012 -0.04,-0.015 -0.04,-0.015 -0.04,-0.017 -0.03,-0.018 -0.04,-0.02 -0.03,-0.02 -0.03,-0.022 -0.03,-0.022 -0.03,-0.024 -0.02,-0.024 -0.03,-0.026 -0.02,-0.026 -0.02,-0.026 -0.03,-0.028 -0.01,-0.028 -0.02,-0.028 -0.02,-0.029 -0.01,-0.03 -0.02,-0.029 -0.01,-0.03 -0.01,-0.03 -0.01,-0.031 -0.01,-0.03 0,-0.03 -0.01,-0.031 0,-0.03 -0.01,-0.03 0,-0.03 0,-0.029 c 0,-0.375 0.31,-0.5 0.53,-0.5 0.47,0 0.82,0.406 0.82,0.844 0,0.656 -0.77,0.968 -1.44,0.968 -0.97,0 -1.5,-0.953 -1.64,-1.265 -0.38,1.203 -1.36,1.265 -1.64,1.265 -1.63,0 -2.49,-2.093 -2.49,-2.437 0,-0.063 0.07,-0.141 0.17,-0.141 0.13,0 0.16,0.094 0.19,0.156 0.55,1.766 1.61,2.094 2.08,2.094 0.7,0 0.86,-0.656 0.86,-1.047 0,-0.343 -0.09,-0.718 -0.3,-1.468 l -0.53,-2.188 c -0.25,-0.953 -0.7,-1.828 -1.55,-1.828 -0.07,0 -0.46,0 -0.81,0.203 0.58,0.125 0.71,0.594 0.71,0.781 0,0.329 -0.24,0.516 -0.55,0.516 -0.38,0 -0.8,-0.344 -0.8,-0.844 0,-0.672 0.75,-0.969 1.44,-0.969 0.76,0 1.3,0.594 1.64,1.25 0.25,-0.937 1.05,-1.25 1.64,-1.25 1.61,0 2.47,2.079 2.47,2.422 0,0.094 -0.06,0.157 -0.16,0.157 -0.14,0 -0.15,-0.079 -0.2,-0.219 -0.44,-1.391 -1.36,-2.047 -2.06,-2.047 -0.57,0 -0.86,0.422 -0.86,1.063 0,0.359 0.06,0.609 0.31,1.656 l 0.56,2.156 c 0.24,0.953 0.77,1.656 1.5,1.656 0.03,0 0.49,0 0.82,-0.203 z"
   id="path39"
   inkscape:connector-curvature="0"
   style="fill:#000000;stroke-width:0" />
<path
   d="m 141.06,33.113 1.17,1.157 c 1.75,1.531 2.42,2.14 2.42,3.25 0,1.265 -1.01,2.171 -2.37,2.171 -1.25,0 -2.08,-1.031 -2.08,-2.031 0,-0.625 0.55,-0.625 0.59,-0.625 0.19,0 0.58,0.141 0.58,0.594 0,0.297 -0.2,0.578 -0.59,0.578 -0.1,0 -0.11,0 -0.14,0 0.25,0.719 0.86,1.125 1.5,1.125 1.01,0 1.5,-0.891 1.5,-1.812 0,-0.891 -0.57,-1.782 -1.18,-2.469 l -2.14,-2.391 c -0.12,-0.109 -0.12,-0.14 -0.12,-0.406 h 4.14 l 0.31,1.937 h -0.28 c -0.06,-0.328 -0.14,-0.828 -0.25,-0.984 -0.08,-0.094 -0.81,-0.094 -1.06,-0.094 z"
   id="path41"
   inkscape:connector-curvature="0"
   style="fill:#000000;stroke-width:0" />
<line
   x1="114.11"
   y1="18.496"
   x2="159.72"
   y2="18.496"
   id="line43"
   style="stroke-width:0.63800001" />
<path
   d="m 116.14,9.8789 0.07,-0.0199 0.06,-0.0188 0.06,-0.0176 0.06,-0.0166 0.06,-0.0155 0.06,-0.0144 0.06,-0.0135 0.06,-0.0126 0.06,-0.0116 0.05,-0.0108 0.05,-0.0099 0.06,-0.0091 0.05,-0.0083 0.05,-0.0076 0.05,-0.0068 0.05,-0.0062 0.04,-0.0056 0.04,-0.0049 0.05,-0.0044 0.04,-0.0038 0.04,-0.0033 0.04,-0.0029 0.03,-0.0024 0.03,-0.002 0.04,-0.0017 0.03,-0.0013 0.02,-10e-4 0.03,-8e-4 0.02,-5e-4 0.03,-3e-4 0.01,-2e-4 0.02,-10e-5 c 1.8,0 2.94,1.3125 2.94,1.5315 0,0.062 -0.03,0.14 -0.12,0.14 -0.04,0 -0.07,0 -0.21,-0.062 -0.89,-0.375 -1.65,-0.422 -2.08,-0.422 -1.04,0 -1.79,0.312 -2.09,0.437 -0.11,0.047 -0.14,0.047 -0.16,0.047 -0.12,0 -0.12,-0.093 -0.12,-0.343 V 6.2539 c 0,-0.2812 0,-0.375 0.19,-0.375 0.07,0 0.09,0.0156 0.25,0.2031 0.45,0.6407 1.2,1.0313 1.98,1.0313 0.84,0 1.27,-0.7813 1.39,-1.0469 0.27,-0.625 0.28,-1.4062 0.28,-2 0,-0.6094 0,-1.5156 -0.43,-2.2344 -0.36,-0.5625 -0.97,-0.96872 -1.68,-0.96872 -1.04,0 -2.08,0.71872 -2.37,1.87502 0.08,-0.0313 0.19,-0.0469 0.26,-0.0469 0.27,0 0.69,0.1563 0.69,0.7031 0,0.4375 -0.3,0.7032 -0.69,0.7032 -0.29,0 -0.7,-0.1563 -0.7,-0.7657 0,-1.3593 1.08,-2.89059 2.84,-2.89059 1.8,0 3.38,1.49999 3.38,3.51559 0,1.9063 -1.28,3.4688 -2.95,3.4688 -0.91,0 -1.6,-0.3906 -2.02,-0.8438 z"
   id="path45"
   inkscape:connector-curvature="0"
   style="fill:#000000;stroke-width:0" />
<path
   d="m 135.93,4.4258 0.05,1e-4 0.05,5e-4 0.05,0.0014 0.03,0.0013 0.02,0.0016 0.03,0.002 0.02,0.0026 0.02,0.0032 0.03,0.0038 0.02,0.0044 0.02,0.0052 0.02,0.0061 0.02,0.0068 0.02,0.0078 0.02,0.0088 0.02,0.0098 0.01,0.0109 0.02,0.012 0.01,0.0132 0.02,0.0145 0.01,0.0158 0.01,0.0172 0.01,0.0091 0,0.0095 0,0.0099 0.01,0.0102 0,0.0106 0.01,0.011 0,0.0114 0,0.0119 0,0.0122 0,0.0127 0.01,0.0131 0,0.0135 0,0.014 0,0.0144 c 0,0.3281 -0.28,0.3281 -0.56,0.3281 h -8.6 c -0.26,0 -0.56,0 -0.56,-0.3281 0,-0.3125 0.3,-0.3125 0.56,-0.3125 z"
   id="path47"
   inkscape:connector-curvature="0"
   style="fill:#000000;stroke-width:0" />
<path
   d="m 145.2,8.5234 0,0.0394 0,0.0388 -0.01,0.0382 0,0.0377 -0.01,0.037 -0.01,0.0363 -0.02,0.0355 -0.01,0.0347 -0.02,0.0339 -0.01,0.033 -0.02,0.0321 -0.02,0.0311 -0.02,0.03 -0.03,0.0289 -0.02,0.0278 -0.03,0.0267 -0.02,0.0253 -0.03,0.0241 -0.03,0.0228 -0.03,0.0213 -0.03,0.02 -0.03,0.0185 -0.04,0.0169 -0.03,0.0154 -0.04,0.0137 -0.03,0.0121 -0.04,0.0103 -0.03,0.0086 -0.04,0.0067 -0.04,0.0049 -0.03,0.003 -0.04,10e-4 c -0.46,0 -0.78,-0.375 -0.78,-0.7657 0,-0.4843 0.4,-0.7812 0.76,-0.7812 0.44,0 0.78,0.3281 0.78,0.7812 z"
   id="path49"
   inkscape:connector-curvature="0"
   style="fill:#000000;stroke-width:0" />
<path
   d="m 151.31,5.5352 0,0.0393 0,0.0388 -0.01,0.0382 0,0.0377 -0.01,0.037 -0.01,0.0363 -0.02,0.0355 -0.01,0.0348 -0.02,0.0339 -0.01,0.033 -0.02,0.032 -0.02,0.0311 -0.02,0.03 -0.03,0.029 -0.02,0.0278 -0.03,0.0266 -0.03,0.0253 -0.02,0.0241 -0.03,0.0228 -0.03,0.0214 -0.03,0.0199 -0.04,0.0185 -0.03,0.0169 -0.03,0.0154 -0.04,0.0137 -0.03,0.0121 -0.04,0.0103 -0.03,0.0086 -0.04,0.0067 -0.04,0.0049 -0.04,0.003 -0.03,10e-4 c -0.46,0 -0.78,-0.375 -0.78,-0.7656 0,-0.4844 0.4,-0.7813 0.76,-0.7813 0.44,0 0.78,0.3281 0.78,0.7813 z"
   id="path51"
   inkscape:connector-curvature="0"
   style="fill:#000000;stroke-width:0" />
<path
   d="m 157.42,2.5469 0,0.0393 -0.01,0.0388 0,0.0383 -0.01,0.0376 -0.01,0.037 -0.01,0.0363 -0.01,0.0355 -0.01,0.0348 -0.02,0.0339 -0.02,0.033 -0.02,0.0321 -0.02,0.031 -0.02,0.03 -0.02,0.029 -0.03,0.0278 -0.02,0.0266 -0.03,0.0254 -0.03,0.0241 -0.03,0.0227 -0.03,0.0214 -0.03,0.0199 -0.03,0.0185 -0.03,0.0169 -0.04,0.0154 -0.03,0.0137 -0.04,0.0121 -0.03,0.0103 -0.04,0.0086 -0.04,0.0068 -0.03,0.0048 -0.04,0.003 -0.04,10e-4 c -0.45,0 -0.78,-0.375 -0.78,-0.7656 0,-0.4844 0.41,-0.7813 0.77,-0.7813 0.43,0 0.78,0.3282 0.78,0.7813 z"
   id="path53"
   inkscape:connector-curvature="0"
   style="fill:#000000;stroke-width:0" />
</g></svg>
