<?xml version="1.0" encoding="UTF-8" standalone="no"?>
<svg
   xmlns:dc="http://purl.org/dc/elements/1.1/"
   xmlns:cc="http://creativecommons.org/ns#"
   xmlns:rdf="http://www.w3.org/1999/02/22-rdf-syntax-ns#"
   xmlns:svg="http://www.w3.org/2000/svg"
   xmlns="http://www.w3.org/2000/svg"
   xmlns:sodipodi="http://sodipodi.sourceforge.net/DTD/sodipodi-0.dtd"
   xmlns:inkscape="http://www.inkscape.org/namespaces/inkscape"
   version="1.1"
   id="body"
   width="241.09221"
   height="19.999872"
   viewBox="0 0 0.33485029 0.0277776"
   preserveAspectRatio="none"
   inkscape:version="0.48.3.1 r9886"
   sodipodi:docname="ch1-Z-G-33.svg">
  <metadata
     id="metadata67">
    <rdf:RDF>
      <cc:Work
         rdf:about="">
        <dc:format>image/svg+xml</dc:format>
        <dc:type
           rdf:resource="http://purl.org/dc/dcmitype/StillImage" />
      </cc:Work>
    </rdf:RDF>
  </metadata>
  <defs
     id="defs65" />
  <sodipodi:namedview
     pagecolor="#ffffff"
     bordercolor="#666666"
     borderopacity="1"
     objecttolerance="10"
     gridtolerance="10"
     guidetolerance="10"
     inkscape:pageopacity="0"
     inkscape:pageshadow="2"
     inkscape:window-width="640"
     inkscape:window-height="480"
     id="namedview63"
     showgrid="false"
     inkscape:zoom="0.32777778"
     inkscape:cx="381.28907"
     inkscape:cy="493.90626"
     inkscape:window-x="0"
     inkscape:window-y="24"
     inkscape:window-maximized="0"
     inkscape:current-layer="body" />
  <title
     id="title3">SVG drawing</title>
  <desc
     id="desc5">This was produced by version 4.4 of GNU libplot, a free library for exporting 2-D vector graphics.</desc>
  <g
     id="content"
     transform="matrix(0.0017361,0,0,-0.0017361,-0.00168185,0.02929669)"
     xml:space="preserve"
     stroke-miterlimit="10.433"
     font-style="normal"
     font-variant="normal"
     font-weight="normal"
     font-stretch="normal"
     font-size-adjust="none"
     letter-spacing="normal"
     word-spacing="normal"
     style="font-style:normal;font-variant:normal;font-weight:normal;font-stretch:normal;letter-spacing:normal;word-spacing:normal;text-anchor:start;fill:none;stroke:#000000;stroke-linecap:butt;stroke-linejoin:miter;stroke-miterlimit:10.43299961;stroke-opacity:1;stroke-dasharray:none;stroke-dashoffset:0">
<path
   d="m 7.293,11.301 0.0287,0 0.0277,0 0.0266,0 0.0255,0 0.0245,10e-4 0.0234,0.001 0.0224,10e-4 0.0214,10e-4 0.0203,0.002 0.0194,0.003 0.0184,0.003 0.0174,0.003 0.0165,0.005 0.0155,0.005 0.0146,0.005 0.0136,0.007 0.0127,0.007 0.0119,0.009 0.0109,0.009 0.01,0.01 0.0092,0.012 0.0083,0.012 0.0075,0.014 0.0067,0.015 0.0058,0.016 0.0026,0.009 0.0024,0.009 0.0022,0.009 0.002,0.01 0.0018,0.01 0.0016,0.011 0.0014,0.011 0.0012,0.011 0.0011,0.011 8e-4,0.012 6e-4,0.013 5e-4,0.013 3e-4,0.013 10e-5,0.014 c 0,0.156 -0.125,0.156 -0.4063,0.156 H 6.0273 c 0.3125,1.64 0.5313,2.765 0.6563,3.281 0.0937,0.375 0.4219,0.75 0.8437,0.75 0.3282,0 0.6719,-0.141 0.8282,-0.297 -0.625,-0.062 -0.8125,-0.515 -0.8125,-0.781 0,-0.328 0.2343,-0.516 0.5468,-0.516 0.3125,0 0.7813,0.266 0.7813,0.875 0,0.672 -0.6563,1.032 -1.3594,1.032 -0.6875,0 -1.3594,-0.5 -1.6719,-1.125 C 5.5586,14.41 5.4023,13.848 5.0273,11.754 H 3.9648 c -0.2968,0 -0.4531,0 -0.4531,-0.281 0,-0.172 0.0938,-0.172 0.4063,-0.172 H 4.9336 C 4.6523,9.8164 3.9961,6.2227 3.6367,4.5352 3.3555,3.1445 3.1211,1.9883 2.3242,1.9883 c -0.0469,0 -0.5,0 -0.7969,0.2969 0.8125,0.0625 0.8125,0.7656 0.8125,0.7812 0,0.3125 -0.2343,0.5156 -0.5312,0.5156 -0.3281,0 -0.7969,-0.2812 -0.7969,-0.875 0,-0.6875 0.7031,-1.0468 1.3125,-1.0468 1.625,0 2.2969,2.9218 2.4688,3.7031 0.2812,1.2344 1.0625,5.4527 1.1406,5.9377 z"
   id="path9"
   inkscape:connector-curvature="0"
   style="fill:#000000;stroke-width:0" />
<path
   d="m 14.766,1.0508 0,0.0086 -10e-4,0.0087 0,0.0045 -0.001,0.0045 -10e-4,0.0048 -0.002,0.005 -0.002,0.0053 -0.002,0.0056 -0.003,0.0059 -0.003,0.0064 -0.004,0.0068 -0.005,0.0074 -0.005,0.0079 -0.007,0.0084 -0.007,0.0091 -0.007,0.0098 -0.009,0.0106 -0.01,0.0113 -0.005,0.006 -0.006,0.0061 -0.006,0.0064 -0.006,0.0066 -0.006,0.0069 -0.007,0.0071 -0.007,0.0073 -0.007,0.0076 -0.008,0.0078 -0.007,0.008 -0.009,0.0084 -0.008,0.0086 -0.009,0.0089 -0.009,0.0091 -0.01,0.0095 -0.01,0.0097 -0.01,0.0101 -0.011,0.0103 -0.011,0.0106 -0.011,0.011 -0.012,0.0113 -0.012,0.0116 -0.013,0.0119 -0.013,0.0123 c -1.578,1.6094 -2.468,4.2344 -2.468,7.4688 0,3.0937 0.734,5.7347 2.578,7.6247 0.172,0.141 0.172,0.172 0.172,0.219 0,0.094 -0.078,0.125 -0.157,0.125 -0.203,0 -1.5,-1.141 -2.281,-2.703 -0.812,-1.61 -1.172,-3.313 -1.172,-5.2657 0,-1.4063 0.219,-3.2969 1.047,-5 0.938,-1.9063 2.235,-2.93752 2.406,-2.93752 0.079,0 0.157,0.03125 0.157,0.12502 z"
   id="path11"
   inkscape:connector-curvature="0"
   style="fill:#000000;stroke-width:0" />
<path
   d="m 23.195,11.394 -0.046,-0.009 -0.044,-0.011 -0.043,-0.013 -0.04,-0.014 -0.04,-0.016 -0.037,-0.017 -0.036,-0.018 -0.034,-0.019 -0.033,-0.021 -0.031,-0.021 -0.03,-0.023 -0.028,-0.023 -0.026,-0.025 -0.025,-0.025 -0.024,-0.026 -0.022,-0.027 -0.02,-0.027 -0.019,-0.028 -0.018,-0.029 -0.016,-0.029 -0.015,-0.029 -0.013,-0.03 -0.013,-0.03 -0.01,-0.03 -0.01,-0.03 -0.008,-0.031 -0.007,-0.03 -0.005,-0.03 -0.004,-0.03 -0.003,-0.03 -0.002,-0.03 -10e-4,-0.03 c 0,-0.375 0.313,-0.5 0.531,-0.5 0.469,0 0.813,0.406 0.813,0.844 0,0.656 -0.766,0.969 -1.438,0.969 -0.968,0 -1.5,-0.953 -1.64,-1.266 -0.375,1.203 -1.36,1.266 -1.641,1.266 -1.625,0 -2.484,-2.094 -2.484,-2.4377 0,-0.0625 0.062,-0.1406 0.172,-0.1406 0.125,0 0.156,0.0937 0.187,0.1562 0.547,1.7651 1.61,2.0941 2.078,2.0941 0.703,0 0.86,-0.657 0.86,-1.047 0,-0.344 -0.094,-0.719 -0.297,-1.469 L 19.102,6.8945 c -0.25,-0.9531 -0.704,-1.8281 -1.547,-1.8281 -0.078,0 -0.469,0 -0.813,0.2031 0.578,0.125 0.703,0.5938 0.703,0.7813 0,0.3281 -0.234,0.5156 -0.547,0.5156 -0.375,0 -0.796,-0.3437 -0.796,-0.8437 0,-0.6719 0.75,-0.9688 1.437,-0.9688 0.766,0 1.297,0.5938 1.641,1.25 0.25,-0.9375 1.047,-1.25 1.64,-1.25 1.61,0 2.469,2.0781 2.469,2.4219 0,0.0937 -0.062,0.1562 -0.156,0.1562 -0.141,0 -0.156,-0.0781 -0.203,-0.2187 -0.438,-1.3906 -1.36,-2.0469 -2.063,-2.0469 -0.562,0 -0.859,0.4219 -0.859,1.0625 0,0.3594 0.062,0.6094 0.312,1.6563 l 0.563,2.1562 c 0.234,0.9526 0.765,1.6566 1.5,1.6566 0.031,0 0.484,0 0.812,-0.204 z"
   id="path13"
   inkscape:connector-curvature="0"
   style="fill:#000000;stroke-width:0" />
<path
   d="m 29.016,8.8633 -10e-4,0.1164 -0.001,0.1207 -0.003,0.1247 -0.004,0.1287 -0.005,0.1324 -0.007,0.136 -0.018,0.2821 -0.025,0.2947 -0.033,0.306 -0.042,0.315 -0.051,0.325 -0.062,0.331 -0.073,0.338 -0.085,0.342 -0.098,0.346 -0.112,0.348 -0.061,0.174 -0.066,0.175 -0.069,0.174 -0.073,0.175 -0.077,0.173 -0.081,0.173 c -0.938,1.907 -2.25,2.938 -2.422,2.938 -0.063,0 -0.141,-0.031 -0.141,-0.125 0,-0.047 0,-0.078 0.266,-0.359 1.594,-1.594 2.484,-4.219 2.484,-7.4691 0,-3.0781 -0.75,-5.7344 -2.594,-7.6094 -0.156,-0.1406 -0.156,-0.1718 -0.156,-0.2187 0,-0.09377 0.078,-0.12502 0.141,-0.12502 0.203,0 1.515,1.14062 2.297,2.70312 0.797,1.6094 1.172,3.3281 1.172,5.2344 z"
   id="path15"
   inkscape:connector-curvature="0"
   style="fill:#000000;stroke-width:0" />
<path
   d="M 33.695,4.8477 33.694,4.9334 33.692,5.0177 33.687,5.1004 33.681,5.1815 33.673,5.2609 33.664,5.3385 33.652,5.4142 33.639,5.488 33.623,5.5598 33.606,5.6294 33.588,5.6969 33.567,5.762 33.544,5.8248 33.52,5.8851 33.493,5.9429 33.465,5.998 33.435,6.0505 33.402,6.1002 33.368,6.147 33.332,6.1909 33.294,6.2317 33.254,6.2694 33.212,6.304 33.168,6.3352 33.122,6.3631 33.074,6.3875 33.024,6.4084 32.972,6.4257 32.917,6.4393 32.861,6.4491 32.803,6.455 32.742,6.457 c -0.5,0 -0.765,-0.4218 -0.765,-0.7656 0,-0.3594 0.25,-0.7812 0.781,-0.7812 0.219,0 0.39,0.0625 0.531,0.2031 0.031,0.0312 0.047,0.0312 0.063,0.0312 0.031,0 0.031,-0.2187 0.031,-0.2968 0,-0.5313 -0.094,-1.5625 -1.016,-2.5938 -0.172,-0.1875 -0.172,-0.2187 -0.172,-0.25 0,-0.0781 0.078,-0.1562 0.157,-0.1562 0.125,0 1.343,1.1718 1.343,3 z"
   id="path17"
   inkscape:connector-curvature="0"
   style="fill:#000000;stroke-width:0" />
<path
   d="m 44.691,11.301 0.029,0 0.028,0 0.026,0 0.026,0 0.024,10e-4 0.024,0.001 0.022,10e-4 0.022,10e-4 0.02,0.002 0.019,0.003 0.019,0.003 0.017,0.003 0.017,0.005 0.015,0.005 0.015,0.005 0.013,0.007 0.013,0.007 0.012,0.009 0.011,0.009 0.01,0.01 0.009,0.012 0.008,0.012 0.008,0.014 0.006,0.015 0.006,0.016 0.003,0.009 0.002,0.009 0.003,0.009 0.002,0.01 0.001,0.01 0.002,0.011 0.001,0.011 0.002,0.011 0.001,0.011 0,0.012 10e-4,0.013 10e-4,0.013 0,0.013 0,0.014 c 0,0.156 -0.125,0.156 -0.406,0.156 h -1.297 c 0.312,1.64 0.531,2.765 0.656,3.281 0.094,0.375 0.422,0.75 0.844,0.75 0.328,0 0.672,-0.141 0.828,-0.297 -0.625,-0.062 -0.813,-0.515 -0.813,-0.781 0,-0.328 0.235,-0.516 0.547,-0.516 0.313,0 0.782,0.266 0.782,0.875 0,0.672 -0.657,1.032 -1.36,1.032 -0.687,0 -1.359,-0.5 -1.672,-1.125 -0.281,-0.563 -0.437,-1.125 -0.812,-3.219 h -1.063 c -0.297,0 -0.453,0 -0.453,-0.281 0,-0.172 0.094,-0.172 0.406,-0.172 h 1.016 C 42.051,9.8164 41.395,6.2227 41.035,4.5352 40.754,3.1445 40.52,1.9883 39.723,1.9883 c -0.047,0 -0.5,0 -0.797,0.2969 0.812,0.0625 0.812,0.7656 0.812,0.7812 0,0.3125 -0.234,0.5156 -0.531,0.5156 -0.328,0 -0.797,-0.2812 -0.797,-0.875 0,-0.6875 0.703,-1.0468 1.313,-1.0468 1.625,0 2.297,2.9218 2.468,3.7031 0.282,1.2344 1.063,5.4527 1.141,5.9377 z"
   id="path19"
   inkscape:connector-curvature="0"
   style="fill:#000000;stroke-width:0" />
<path
   d="m 52.16,1.0508 0,0.0086 0,0.0087 -10e-4,0.0045 -10e-4,0.0045 -0.001,0.0048 -10e-4,0.005 -0.002,0.0053 -0.002,0.0056 -0.003,0.0059 -0.004,0.0064 -0.004,0.0068 -0.004,0.0074 -0.006,0.0079 -0.006,0.0084 -0.007,0.0091 -0.008,0.0098 -0.009,0.0106 -0.009,0.0113 -0.006,0.006 -0.005,0.0061 -0.006,0.0064 -0.006,0.0066 -0.007,0.0069 -0.006,0.0071 -0.007,0.0073 -0.007,0.0076 -0.008,0.0078 -0.008,0.008 -0.008,0.0084 -0.009,0.0086 -0.009,0.0089 -0.009,0.0091 -0.009,0.0095 -0.01,0.0097 -0.011,0.0101 -0.01,0.0103 -0.011,0.0106 -0.012,0.011 -0.011,0.0113 -0.013,0.0116 -0.012,0.0119 -0.013,0.0123 c -1.578,1.6094 -2.469,4.2344 -2.469,7.4688 0,3.0937 0.735,5.7347 2.578,7.6247 0.172,0.141 0.172,0.172 0.172,0.219 0,0.094 -0.078,0.125 -0.156,0.125 -0.203,0 -1.5,-1.141 -2.281,-2.703 -0.813,-1.61 -1.172,-3.313 -1.172,-5.2657 0,-1.4063 0.219,-3.2969 1.047,-5 0.937,-1.9063 2.234,-2.93752 2.406,-2.93752 0.078,0 0.156,0.03125 0.156,0.12502 z"
   id="path21"
   inkscape:connector-curvature="0"
   style="fill:#000000;stroke-width:0" />
<path
   d="m 60.152,11.301 0.029,0 0.028,0 0.026,0 0.026,0 0.024,10e-4 0.024,0.001 0.022,10e-4 0.021,10e-4 0.021,0.002 0.019,0.003 0.019,0.003 0.017,0.003 0.017,0.005 0.015,0.005 0.015,0.005 0.013,0.007 0.013,0.007 0.012,0.009 0.011,0.009 0.01,0.01 0.009,0.012 0.008,0.012 0.008,0.014 0.006,0.015 0.006,0.016 0.003,0.009 0.002,0.009 0.002,0.009 0.002,0.01 0.002,0.01 0.002,0.011 10e-4,0.011 10e-4,0.011 0.001,0.011 10e-4,0.012 10e-4,0.013 0,0.013 0.001,0.013 0,0.014 c 0,0.156 -0.125,0.156 -0.406,0.156 h -1.297 c 0.312,1.64 0.531,2.765 0.656,3.281 0.094,0.375 0.422,0.75 0.844,0.75 0.328,0 0.672,-0.141 0.828,-0.297 -0.625,-0.062 -0.813,-0.515 -0.813,-0.781 0,-0.328 0.235,-0.516 0.547,-0.516 0.313,0 0.781,0.266 0.781,0.875 0,0.672 -0.656,1.032 -1.359,1.032 -0.687,0 -1.359,-0.5 -1.672,-1.125 -0.281,-0.563 -0.437,-1.125 -0.812,-3.219 h -1.063 c -0.297,0 -0.453,0 -0.453,-0.281 0,-0.172 0.094,-0.172 0.406,-0.172 h 1.016 C 57.512,9.8164 56.855,6.2227 56.496,4.5352 56.215,3.1445 55.98,1.9883 55.184,1.9883 c -0.047,0 -0.5,0 -0.797,0.2969 0.812,0.0625 0.812,0.7656 0.812,0.7812 0,0.3125 -0.234,0.5156 -0.531,0.5156 -0.328,0 -0.797,-0.2812 -0.797,-0.875 0,-0.6875 0.703,-1.0468 1.313,-1.0468 1.625,0 2.296,2.9218 2.468,3.7031 0.282,1.2344 1.063,5.4527 1.141,5.9377 z"
   id="path23"
   inkscape:connector-curvature="0"
   style="fill:#000000;stroke-width:0" />
<path
   d="m 67.629,1.0508 0,0.0086 -0.001,0.0087 0,0.0045 -0.001,0.0045 -10e-4,0.0048 -0.001,0.005 L 67.623,1.0922 67.62,1.0978 67.617,1.1037 67.614,1.1101 67.61,1.1169 67.605,1.1243 67.6,1.1322 67.594,1.1406 67.587,1.1497 67.579,1.1595 67.57,1.1701 67.56,1.1814 67.555,1.1874 67.549,1.1935 67.544,1.1999 67.538,1.2065 67.531,1.2134 67.524,1.2205 67.518,1.2278 67.51,1.2354 67.503,1.2432 67.495,1.2512 67.487,1.2596 67.478,1.2682 67.469,1.2771 67.46,1.2862 67.45,1.2957 67.441,1.3054 67.43,1.3155 67.42,1.3258 67.409,1.3364 67.397,1.3474 67.385,1.3587 67.373,1.3703 67.361,1.3822 67.348,1.3945 c -1.578,1.6094 -2.469,4.2344 -2.469,7.4688 0,3.0937 0.734,5.7347 2.578,7.6247 0.172,0.141 0.172,0.172 0.172,0.219 0,0.094 -0.078,0.125 -0.156,0.125 -0.203,0 -1.5,-1.141 -2.282,-2.703 -0.812,-1.61 -1.171,-3.313 -1.171,-5.2657 0,-1.4063 0.218,-3.2969 1.046,-5 0.938,-1.9063 2.235,-2.93752 2.407,-2.93752 0.078,0 0.156,0.03125 0.156,0.12502 z"
   id="path25"
   inkscape:connector-curvature="0"
   style="fill:#000000;stroke-width:0" />
<path
   d="m 76.055,11.394 -0.046,-0.009 -0.045,-0.011 -0.042,-0.013 -0.041,-0.014 -0.039,-0.016 -0.038,-0.017 -0.036,-0.018 -0.034,-0.019 -0.033,-0.021 -0.031,-0.021 -0.029,-0.023 -0.028,-0.023 -0.027,-0.025 -0.025,-0.025 -0.023,-0.026 -0.022,-0.027 -0.021,-0.027 -0.019,-0.028 -0.018,-0.029 -0.016,-0.029 -0.015,-0.029 -0.013,-0.03 -0.012,-0.03 -0.011,-0.03 -0.009,-0.03 -0.008,-0.031 -0.007,-0.03 -0.006,-0.03 -0.004,-0.03 -0.003,-0.03 -0.002,-0.03 0,-0.03 c 0,-0.375 0.312,-0.5 0.531,-0.5 0.469,0 0.812,0.406 0.812,0.844 0,0.656 -0.765,0.969 -1.437,0.969 -0.969,0 -1.5,-0.953 -1.641,-1.266 -0.375,1.203 -1.359,1.266 -1.64,1.266 -1.625,0 -2.485,-2.094 -2.485,-2.4377 0,-0.0625 0.063,-0.1406 0.172,-0.1406 0.125,0 0.156,0.0937 0.188,0.1562 0.546,1.7651 1.609,2.0941 2.078,2.0941 0.703,0 0.859,-0.657 0.859,-1.047 0,-0.344 -0.094,-0.719 -0.297,-1.469 L 71.961,6.8945 c -0.25,-0.9531 -0.703,-1.8281 -1.547,-1.8281 -0.078,0 -0.469,0 -0.812,0.2031 0.578,0.125 0.703,0.5938 0.703,0.7813 0,0.3281 -0.235,0.5156 -0.547,0.5156 -0.375,0 -0.797,-0.3437 -0.797,-0.8437 0,-0.6719 0.75,-0.9688 1.437,-0.9688 0.766,0 1.297,0.5938 1.641,1.25 0.25,-0.9375 1.047,-1.25 1.641,-1.25 1.609,0 2.468,2.0781 2.468,2.4219 0,0.0937 -0.062,0.1562 -0.156,0.1562 -0.14,0 -0.156,-0.0781 -0.203,-0.2187 -0.437,-1.3906 -1.359,-2.0469 -2.062,-2.0469 -0.563,0 -0.86,0.4219 -0.86,1.0625 0,0.3594 0.063,0.6094 0.313,1.6563 l 0.562,2.1562 c 0.235,0.9526 0.766,1.6566 1.5,1.6566 0.031,0 0.485,0 0.813,-0.204 z"
   id="path27"
   inkscape:connector-curvature="0"
   style="fill:#000000;stroke-width:0" />
<path
   d="m 81.879,8.8633 -0.001,0.1164 -0.001,0.1207 -0.003,0.1247 -0.004,0.1287 -0.005,0.1324 -0.006,0.136 -0.018,0.2821 -0.026,0.2947 -0.032,0.306 -0.042,0.315 -0.052,0.325 -0.061,0.331 -0.073,0.338 -0.086,0.342 -0.098,0.346 -0.112,0.348 -0.061,0.174 -0.065,0.175 -0.069,0.174 -0.073,0.175 -0.078,0.173 -0.081,0.173 c -0.937,1.907 -2.25,2.938 -2.422,2.938 -0.062,0 -0.14,-0.031 -0.14,-0.125 0,-0.047 0,-0.078 0.265,-0.359 1.594,-1.594 2.485,-4.219 2.485,-7.4691 0,-3.0781 -0.75,-5.7344 -2.594,-7.6094 C 78.27,1.1289 78.27,1.0977 78.27,1.0508 c 0,-0.09377 0.078,-0.12502 0.14,-0.12502 0.203,0 1.516,1.14062 2.297,2.70312 0.797,1.6094 1.172,3.3281 1.172,5.2344 z"
   id="path29"
   inkscape:connector-curvature="0"
   style="fill:#000000;stroke-width:0" />
<path
   d="m 87.945,8.8633 0,0.1164 -0.002,0.1207 -0.002,0.1247 -0.004,0.1287 -0.005,0.1324 -0.007,0.136 -0.018,0.2821 -0.025,0.2947 -0.033,0.306 -0.042,0.315 -0.051,0.325 -0.062,0.331 -0.073,0.338 -0.085,0.342 -0.098,0.346 -0.112,0.348 -0.062,0.174 -0.065,0.175 -0.069,0.174 -0.073,0.175 -0.077,0.173 -0.082,0.173 c -0.937,1.907 -2.25,2.938 -2.421,2.938 -0.063,0 -0.141,-0.031 -0.141,-0.125 0,-0.047 0,-0.078 0.266,-0.359 1.593,-1.594 2.484,-4.219 2.484,-7.4691 0,-3.0781 -0.75,-5.7344 -2.594,-7.6094 -0.156,-0.1406 -0.156,-0.1718 -0.156,-0.2187 0,-0.09377 0.078,-0.12502 0.141,-0.12502 0.203,0 1.515,1.14062 2.296,2.70312 0.797,1.6094 1.172,3.3281 1.172,5.2344 z"
   id="path31"
   inkscape:connector-curvature="0"
   style="fill:#000000;stroke-width:0" />
<path
   d="M 92.629,4.8477 92.628,4.9334 92.625,5.0177 92.621,5.1004 92.615,5.1815 92.607,5.2609 92.597,5.3385 92.586,5.4142 92.572,5.488 92.557,5.5598 92.54,5.6294 92.521,5.6969 92.5,5.762 92.478,5.8248 92.453,5.8851 92.427,5.9429 92.398,5.998 92.368,6.0505 92.336,6.1002 92.302,6.147 92.266,6.1909 92.228,6.2317 92.188,6.2694 92.146,6.304 92.102,6.3352 92.056,6.3631 92.007,6.3875 91.957,6.4084 91.905,6.4257 91.851,6.4393 91.795,6.4491 91.736,6.455 91.676,6.457 c -0.5,0 -0.766,-0.4218 -0.766,-0.7656 0,-0.3594 0.25,-0.7812 0.781,-0.7812 0.219,0 0.391,0.0625 0.532,0.2031 0.031,0.0312 0.047,0.0312 0.062,0.0312 0.031,0 0.031,-0.2187 0.031,-0.2968 0,-0.5313 -0.093,-1.5625 -1.015,-2.5938 -0.172,-0.1875 -0.172,-0.2187 -0.172,-0.25 0,-0.0781 0.078,-0.1562 0.156,-0.1562 0.125,0 1.344,1.1718 1.344,3 z"
   id="path33"
   inkscape:connector-curvature="0"
   style="fill:#000000;stroke-width:0" />
<path
   d="m 103.62,11.301 0.03,0 0.03,0 0.02,0 0.03,0 0.02,10e-4 0.03,0.001 0.02,10e-4 0.02,10e-4 0.02,0.002 0.02,0.003 0.02,0.003 0.02,0.003 0.01,0.005 0.02,0.005 0.01,0.005 0.02,0.007 0.01,0.007 0.01,0.009 0.01,0.009 0.01,0.01 0.01,0.012 0.01,0.012 0.01,0.014 0,0.015 0.01,0.016 0,0.009 0.01,0.009 0,0.009 0,0.01 0,0.01 0,0.011 0,0.011 0.01,0.011 0,0.011 0,0.012 0,0.013 0,0.013 0,0.013 0,0.014 c 0,0.156 -0.13,0.156 -0.41,0.156 h -1.29 c 0.31,1.64 0.53,2.765 0.65,3.281 0.1,0.375 0.42,0.75 0.85,0.75 0.32,0 0.67,-0.141 0.82,-0.297 -0.62,-0.062 -0.81,-0.515 -0.81,-0.781 0,-0.328 0.24,-0.516 0.55,-0.516 0.31,0 0.78,0.266 0.78,0.875 0,0.672 -0.66,1.032 -1.36,1.032 -0.69,0 -1.36,-0.5 -1.67,-1.125 -0.28,-0.563 -0.44,-1.125 -0.81,-3.219 h -1.07 c -0.294,0 -0.45,0 -0.45,-0.281 0,-0.172 0.094,-0.172 0.41,-0.172 h 1.01 C 100.98,9.8164 100.32,6.2227 99.965,4.5352 99.684,3.1445 99.449,1.9883 98.652,1.9883 c -0.047,0 -0.5,0 -0.797,0.2969 0.813,0.0625 0.813,0.7656 0.813,0.7812 0,0.3125 -0.234,0.5156 -0.531,0.5156 -0.328,0 -0.797,-0.2812 -0.797,-0.875 0,-0.6875 0.703,-1.0468 1.312,-1.0468 1.628,0 2.298,2.9218 2.468,3.7031 0.28,1.2344 1.06,5.4527 1.14,5.9377 z"
   id="path35"
   inkscape:connector-curvature="0"
   style="fill:#000000;stroke-width:0" />
<path
   d="m 111.09,1.0508 0,0.0086 0,0.0087 0,0.0045 0,0.0045 0,0.0048 0,0.005 0,0.0053 0,0.0056 -0.01,0.0059 0,0.0064 0,0.0068 -0.01,0.0074 -0.01,0.0079 0,0.0084 -0.01,0.0091 -0.01,0.0098 -0.01,0.0106 0,0.0113 -0.01,0.006 -0.01,0.0061 0,0.0064 -0.01,0.0066 0,0.0069 -0.01,0.0071 -0.01,0.0073 0,0.0076 -0.01,0.0078 -0.01,0.008 -0.01,0.0084 -0.01,0.0086 -0.01,0.0089 -0.01,0.0091 0,0.0095 -0.01,0.0097 -0.02,0.0101 -0.01,0.0103 -0.01,0.0106 -0.01,0.011 -0.01,0.0113 -0.01,0.0116 -0.01,0.0119 -0.02,0.0123 c -1.58,1.6094 -2.47,4.2344 -2.47,7.4688 0,3.0937 0.74,5.7347 2.58,7.6247 0.17,0.141 0.17,0.172 0.17,0.219 0,0.094 -0.07,0.125 -0.15,0.125 -0.21,0 -1.5,-1.141 -2.28,-2.703 -0.82,-1.61 -1.18,-3.313 -1.18,-5.2657 0,-1.4063 0.22,-3.2969 1.05,-5 0.94,-1.9063 2.24,-2.93752 2.41,-2.93752 0.08,0 0.15,0.03125 0.15,0.12502 z"
   id="path37"
   inkscape:connector-curvature="0"
   style="fill:#000000;stroke-width:0" />
<path
   d="m 119.09,11.301 0.02,0 0.03,0 0.03,0 0.02,0 0.03,10e-4 0.02,0.001 0.02,10e-4 0.03,10e-4 0.02,0.002 0.02,0.003 0.01,0.003 0.02,0.003 0.02,0.005 0.01,0.005 0.02,0.005 0.01,0.007 0.01,0.007 0.02,0.009 0.01,0.009 0.01,0.01 0.01,0.012 0,0.012 0.01,0.014 0.01,0.015 0,0.016 0.01,0.009 0,0.009 0,0.009 0,0.01 0.01,0.01 0,0.011 0,0.011 0,0.011 0,0.011 0,0.012 0,0.013 0,0.013 0,0.013 0,0.014 c 0,0.156 -0.12,0.156 -0.4,0.156 h -1.3 c 0.31,1.64 0.53,2.765 0.66,3.281 0.09,0.375 0.42,0.75 0.84,0.75 0.33,0 0.67,-0.141 0.83,-0.297 -0.63,-0.062 -0.81,-0.515 -0.81,-0.781 0,-0.328 0.23,-0.516 0.54,-0.516 0.31,0 0.78,0.266 0.78,0.875 0,0.672 -0.65,1.032 -1.35,1.032 -0.69,0 -1.37,-0.5 -1.68,-1.125 -0.28,-0.563 -0.44,-1.125 -0.81,-3.219 h -1.06 c -0.3,0 -0.45,0 -0.45,-0.281 0,-0.172 0.09,-0.172 0.4,-0.172 h 1.02 c -0.29,-1.4846 -0.94,-5.0783 -1.3,-6.7658 -0.28,-1.3907 -0.52,-2.5469 -1.31,-2.5469 -0.05,0 -0.5,0 -0.8,0.2969 0.81,0.0625 0.81,0.7656 0.81,0.7812 0,0.3125 -0.23,0.5156 -0.53,0.5156 -0.33,0 -0.79,-0.2812 -0.79,-0.875 0,-0.6875 0.7,-1.0468 1.31,-1.0468 1.62,0 2.29,2.9218 2.47,3.7031 0.28,1.2344 1.06,5.4527 1.14,5.9377 z"
   id="path39"
   inkscape:connector-curvature="0"
   style="fill:#000000;stroke-width:0" />
<path
   d="m 126.56,1.0508 0,0.0086 0,0.0087 0,0.0045 0,0.0045 0,0.0048 -0.01,0.005 0,0.0053 0,0.0056 0,0.0059 -0.01,0.0064 0,0.0068 0,0.0074 -0.01,0.0079 -0.01,0.0084 0,0.0091 -0.01,0.0098 -0.01,0.0106 -0.01,0.0113 -0.01,0.006 0,0.0061 -0.01,0.0064 0,0.0066 -0.01,0.0069 -0.01,0.0071 0,0.0073 -0.01,0.0076 -0.01,0.0078 -0.01,0.008 0,0.0084 -0.01,0.0086 -0.01,0.0089 -0.01,0.0091 -0.01,0.0095 -0.01,0.0097 -0.01,0.0101 -0.01,0.0103 -0.01,0.0106 -0.01,0.011 -0.02,0.0113 -0.01,0.0116 -0.01,0.0119 -0.01,0.0123 c -1.58,1.6094 -2.47,4.2344 -2.47,7.4688 0,3.0937 0.73,5.7347 2.58,7.6247 0.17,0.141 0.17,0.172 0.17,0.219 0,0.094 -0.08,0.125 -0.16,0.125 -0.2,0 -1.5,-1.141 -2.28,-2.703 -0.81,-1.61 -1.17,-3.313 -1.17,-5.2657 0,-1.4063 0.22,-3.2969 1.05,-5 0.93,-1.9063 2.23,-2.93752 2.4,-2.93752 0.08,0 0.16,0.03125 0.16,0.12502 z"
   id="path41"
   inkscape:connector-curvature="0"
   style="fill:#000000;stroke-width:0" />
<path
   d="m 134.55,11.301 0.03,0 0.03,0 0.02,0 0.03,0 0.02,10e-4 0.03,0.001 0.02,10e-4 0.02,10e-4 0.02,0.002 0.02,0.003 0.02,0.003 0.02,0.003 0.01,0.005 0.02,0.005 0.01,0.005 0.02,0.007 0.01,0.007 0.01,0.009 0.01,0.009 0.01,0.01 0.01,0.012 0.01,0.012 0.01,0.014 0,0.015 0.01,0.016 0,0.009 0,0.009 0.01,0.009 0,0.01 0,0.01 0,0.011 0,0.011 0,0.011 0.01,0.011 0,0.012 0,0.013 0,0.013 0,0.013 0,0.014 c 0,0.156 -0.13,0.156 -0.41,0.156 h -1.29 c 0.31,1.64 0.53,2.765 0.65,3.281 0.1,0.375 0.42,0.75 0.85,0.75 0.32,0 0.67,-0.141 0.82,-0.297 -0.62,-0.062 -0.81,-0.515 -0.81,-0.781 0,-0.328 0.24,-0.516 0.55,-0.516 0.31,0 0.78,0.266 0.78,0.875 0,0.672 -0.66,1.032 -1.36,1.032 -0.69,0 -1.36,-0.5 -1.67,-1.125 -0.28,-0.563 -0.44,-1.125 -0.81,-3.219 h -1.07 c -0.29,0 -0.45,0 -0.45,-0.281 0,-0.172 0.09,-0.172 0.41,-0.172 h 1.01 c -0.28,-1.4846 -0.94,-5.0783 -1.29,-6.7658 -0.29,-1.3907 -0.52,-2.5469 -1.32,-2.5469 -0.04,0 -0.5,0 -0.79,0.2969 0.81,0.0625 0.81,0.7656 0.81,0.7812 0,0.3125 -0.24,0.5156 -0.53,0.5156 -0.33,0 -0.8,-0.2812 -0.8,-0.875 0,-0.6875 0.7,-1.0468 1.31,-1.0468 1.63,0 2.3,2.9218 2.47,3.7031 0.28,1.2344 1.06,5.4527 1.14,5.9377 z"
   id="path43"
   inkscape:connector-curvature="0"
   style="fill:#000000;stroke-width:0" />
<path
   d="m 142.02,1.0508 0,0.0086 0,0.0087 0,0.0045 0,0.0045 0,0.0048 0,0.005 0,0.0053 -0.01,0.0056 0,0.0059 0,0.0064 -0.01,0.0068 0,0.0074 -0.01,0.0079 0,0.0084 -0.01,0.0091 -0.01,0.0098 -0.01,0.0106 -0.01,0.0113 0,0.006 -0.01,0.0061 0,0.0064 -0.01,0.0066 0,0.0069 -0.01,0.0071 -0.01,0.0073 -0.01,0.0076 0,0.0078 -0.01,0.008 -0.01,0.0084 -0.01,0.0086 -0.01,0.0089 -0.01,0.0091 -0.01,0.0095 -0.01,0.0097 -0.01,0.0101 -0.01,0.0103 -0.01,0.0106 -0.01,0.011 -0.01,0.0113 -0.01,0.0116 -0.02,0.0119 -0.01,0.0123 c -1.58,1.6094 -2.47,4.2344 -2.47,7.4688 0,3.0937 0.74,5.7347 2.58,7.6247 0.17,0.141 0.17,0.172 0.17,0.219 0,0.094 -0.07,0.125 -0.15,0.125 -0.21,0 -1.5,-1.141 -2.28,-2.703 -0.82,-1.61 -1.18,-3.313 -1.18,-5.2657 0,-1.4063 0.22,-3.2969 1.05,-5 0.94,-1.9063 2.24,-2.93752 2.41,-2.93752 0.08,0 0.15,0.03125 0.15,0.12502 z"
   id="path45"
   inkscape:connector-curvature="0"
   style="fill:#000000;stroke-width:0" />
<path
   d="m 150.45,11.394 -0.04,-0.009 -0.05,-0.011 -0.04,-0.013 -0.04,-0.014 -0.04,-0.016 -0.04,-0.017 -0.03,-0.018 -0.04,-0.019 -0.03,-0.021 -0.03,-0.021 -0.03,-0.023 -0.03,-0.023 -0.03,-0.025 -0.02,-0.025 -0.02,-0.026 -0.03,-0.027 -0.02,-0.027 -0.02,-0.028 -0.01,-0.029 -0.02,-0.029 -0.01,-0.029 -0.02,-0.03 -0.01,-0.03 -0.01,-0.03 -0.01,-0.03 -0.01,-0.031 0,-0.03 -0.01,-0.03 0,-0.03 -0.01,-0.03 0,-0.03 0,-0.03 c 0,-0.375 0.31,-0.5 0.53,-0.5 0.47,0 0.81,0.406 0.81,0.844 0,0.656 -0.76,0.969 -1.43,0.969 -0.97,0 -1.5,-0.953 -1.64,-1.266 -0.38,1.203 -1.36,1.266 -1.64,1.266 -1.63,0 -2.49,-2.094 -2.49,-2.4377 0,-0.0625 0.06,-0.1406 0.17,-0.1406 0.13,0 0.16,0.0937 0.19,0.1562 0.55,1.7651 1.61,2.0941 2.08,2.0941 0.7,0 0.86,-0.657 0.86,-1.047 0,-0.344 -0.1,-0.719 -0.3,-1.469 l -0.53,-2.1875 c -0.25,-0.9531 -0.7,-1.8281 -1.55,-1.8281 -0.08,0 -0.47,0 -0.81,0.2031 0.58,0.125 0.7,0.5938 0.7,0.7813 0,0.3281 -0.23,0.5156 -0.54,0.5156 -0.38,0 -0.8,-0.3437 -0.8,-0.8437 0,-0.6719 0.75,-0.9688 1.44,-0.9688 0.76,0 1.29,0.5938 1.64,1.25 0.25,-0.9375 1.04,-1.25 1.64,-1.25 1.61,0 2.47,2.0781 2.47,2.4219 0,0.0937 -0.07,0.1562 -0.16,0.1562 -0.14,0 -0.16,-0.0781 -0.2,-0.2187 -0.44,-1.3906 -1.36,-2.0469 -2.07,-2.0469 -0.56,0 -0.85,0.4219 -0.85,1.0625 0,0.3594 0.06,0.6094 0.31,1.6563 l 0.56,2.1562 c 0.24,0.9526 0.77,1.6566 1.5,1.6566 0.03,0 0.48,0 0.81,-0.204 z"
   id="path47"
   inkscape:connector-curvature="0"
   style="fill:#000000;stroke-width:0" />
<path
   d="m 156.27,8.8633 0,0.1164 0,0.1207 0,0.1247 -0.01,0.1287 0,0.1324 -0.01,0.136 -0.02,0.2821 -0.02,0.2947 -0.03,0.306 -0.04,0.315 -0.06,0.325 -0.06,0.331 -0.07,0.338 -0.09,0.342 -0.09,0.346 -0.12,0.348 -0.06,0.174 -0.06,0.175 -0.07,0.174 -0.07,0.175 -0.08,0.173 -0.08,0.173 c -0.94,1.907 -2.25,2.938 -2.43,2.938 -0.06,0 -0.14,-0.031 -0.14,-0.125 0,-0.047 0,-0.078 0.27,-0.359 1.59,-1.594 2.48,-4.219 2.48,-7.4691 0,-3.0781 -0.75,-5.7344 -2.59,-7.6094 -0.16,-0.1406 -0.16,-0.1718 -0.16,-0.2187 0,-0.09377 0.08,-0.12502 0.14,-0.12502 0.21,0 1.52,1.14062 2.3,2.70312 0.8,1.6094 1.17,3.3281 1.17,5.2344 z"
   id="path49"
   inkscape:connector-curvature="0"
   style="fill:#000000;stroke-width:0" />
<path
   d="m 162.34,8.8633 0,0.1164 0,0.1207 0,0.1247 0,0.1287 -0.01,0.1324 -0.01,0.136 -0.01,0.2821 -0.03,0.2947 -0.03,0.306 -0.04,0.315 -0.06,0.325 -0.06,0.331 -0.07,0.338 -0.09,0.342 -0.09,0.346 -0.12,0.348 -0.06,0.174 -0.06,0.175 -0.07,0.174 -0.07,0.175 -0.08,0.173 -0.08,0.173 c -0.94,1.907 -2.25,2.938 -2.42,2.938 -0.07,0 -0.15,-0.031 -0.15,-0.125 0,-0.047 0,-0.078 0.27,-0.359 1.59,-1.594 2.48,-4.219 2.48,-7.4691 0,-3.0781 -0.75,-5.7344 -2.59,-7.6094 -0.16,-0.1406 -0.16,-0.1718 -0.16,-0.2187 0,-0.09377 0.08,-0.12502 0.15,-0.12502 0.2,0 1.51,1.14062 2.29,2.70312 0.8,1.6094 1.17,3.3281 1.17,5.2344 z"
   id="path51"
   inkscape:connector-curvature="0"
   style="fill:#000000;stroke-width:0" />
<path
   d="m 168.41,8.8633 0,0.1164 0,0.1207 0,0.1247 -0.01,0.1287 0,0.1324 -0.01,0.136 -0.02,0.2821 -0.02,0.2947 -0.04,0.306 -0.04,0.315 -0.05,0.325 -0.06,0.331 -0.07,0.338 -0.09,0.342 -0.1,0.346 -0.11,0.348 -0.06,0.174 -0.07,0.175 -0.07,0.174 -0.07,0.175 -0.08,0.173 -0.08,0.173 c -0.93,1.907 -2.25,2.938 -2.42,2.938 -0.06,0 -0.14,-0.031 -0.14,-0.125 0,-0.047 0,-0.078 0.27,-0.359 1.59,-1.594 2.48,-4.219 2.48,-7.4691 0,-3.0781 -0.75,-5.7344 -2.59,-7.6094 -0.16,-0.1406 -0.16,-0.1718 -0.16,-0.2187 0,-0.09377 0.08,-0.12502 0.14,-0.12502 0.21,0 1.52,1.14062 2.3,2.70312 0.8,1.6094 1.17,3.3281 1.17,5.2344 z"
   id="path53"
   inkscape:connector-curvature="0"
   style="fill:#000000;stroke-width:0" />
<path
   d="m 173.09,4.8477 0,0.0857 0,0.0843 0,0.0827 -0.01,0.0811 -0.01,0.0794 -0.01,0.0776 -0.01,0.0757 -0.01,0.0738 -0.02,0.0718 -0.01,0.0696 -0.02,0.0675 -0.02,0.0651 -0.03,0.0628 -0.02,0.0603 -0.03,0.0578 -0.03,0.0551 -0.03,0.0525 -0.03,0.0497 -0.03,0.0468 -0.04,0.0439 -0.04,0.0408 -0.04,0.0377 -0.04,0.0346 -0.04,0.0312 -0.05,0.0279 -0.05,0.0244 -0.05,0.0209 -0.05,0.0173 -0.05,0.0136 -0.06,0.0098 -0.06,0.0059 -0.06,0.002 c -0.5,0 -0.76,-0.4218 -0.76,-0.7656 0,-0.3594 0.24,-0.7812 0.78,-0.7812 0.22,0 0.39,0.0625 0.53,0.2031 0.03,0.0312 0.04,0.0312 0.06,0.0312 0.03,0 0.03,-0.2187 0.03,-0.2968 0,-0.5313 -0.09,-1.5625 -1.01,-2.5938 -0.18,-0.1875 -0.18,-0.2187 -0.18,-0.25 0,-0.0781 0.08,-0.1562 0.16,-0.1562 0.13,0 1.34,1.1718 1.34,3 z"
   id="path55"
   inkscape:connector-curvature="0"
   style="fill:#000000;stroke-width:0" />
<path
   d="m 179.91,5.6758 0,0.0421 0,0.0413 -0.01,0.0406 0,0.0396 -0.01,0.0389 -0.01,0.0378 -0.02,0.037 -0.01,0.0359 -0.02,0.0349 -0.01,0.0339 -0.02,0.0327 -0.03,0.0316 -0.02,0.0304 -0.02,0.0292 -0.03,0.028 -0.02,0.0266 -0.03,0.0254 -0.03,0.0239 -0.03,0.0226 -0.03,0.0211 -0.03,0.0197 -0.03,0.0181 -0.03,0.0166 -0.04,0.015 -0.03,0.0134 -0.04,0.0117 -0.03,0.01 -0.04,0.0082 -0.03,0.0065 -0.04,0.0047 -0.04,0.0029 -0.03,9e-4 c -0.45,0 -0.78,-0.3906 -0.78,-0.7656 0,-0.4687 0.39,-0.7812 0.76,-0.7812 0.47,0 0.78,0.375 0.78,0.7656 z"
   id="path57"
   inkscape:connector-curvature="0"
   style="fill:#000000;stroke-width:0" />
<path
   d="m 186.85,5.6758 0,0.0421 -0.01,0.0413 0,0.0406 -0.01,0.0396 -0.01,0.0389 -0.01,0.0378 -0.01,0.037 -0.02,0.0359 -0.01,0.0349 -0.02,0.0339 -0.02,0.0327 -0.02,0.0316 -0.02,0.0304 -0.03,0.0292 -0.02,0.028 -0.03,0.0266 -0.03,0.0254 -0.02,0.0239 -0.03,0.0226 -0.03,0.0211 -0.04,0.0197 -0.03,0.0181 -0.03,0.0166 -0.03,0.015 -0.04,0.0134 -0.03,0.0117 -0.04,0.01 -0.03,0.0082 -0.04,0.0065 -0.03,0.0047 -0.04,0.0029 -0.04,9e-4 c -0.45,0 -0.78,-0.3906 -0.78,-0.7656 0,-0.4687 0.39,-0.7812 0.77,-0.7812 0.47,0 0.78,0.375 0.78,0.7656 z"
   id="path59"
   inkscape:connector-curvature="0"
   style="fill:#000000;stroke-width:0" />
<path
   d="m 193.78,5.6758 0,0.0421 -0.01,0.0413 0,0.0406 -0.01,0.0396 -0.01,0.0389 -0.01,0.0378 -0.01,0.037 -0.02,0.0359 -0.01,0.0349 -0.02,0.0339 -0.02,0.0327 -0.02,0.0316 -0.02,0.0304 -0.03,0.0292 -0.02,0.028 -0.03,0.0266 -0.03,0.0254 -0.02,0.0239 -0.03,0.0226 -0.03,0.0211 -0.04,0.0197 -0.03,0.0181 -0.03,0.0166 -0.03,0.015 -0.04,0.0134 -0.03,0.0117 -0.04,0.01 -0.03,0.0082 -0.04,0.0065 -0.04,0.0047 -0.03,0.0029 -0.04,9e-4 c -0.45,0 -0.78,-0.3906 -0.78,-0.7656 0,-0.4687 0.39,-0.7812 0.77,-0.7812 0.46,0 0.78,0.375 0.78,0.7656 z"
   id="path61"
   inkscape:connector-curvature="0"
   style="fill:#000000;stroke-width:0" />
</g></svg>
