<?xml version="1.0" encoding="UTF-8" standalone="no"?>
<svg
   xmlns:dc="http://purl.org/dc/elements/1.1/"
   xmlns:cc="http://creativecommons.org/ns#"
   xmlns:rdf="http://www.w3.org/1999/02/22-rdf-syntax-ns#"
   xmlns:svg="http://www.w3.org/2000/svg"
   xmlns="http://www.w3.org/2000/svg"
   xmlns:sodipodi="http://sodipodi.sourceforge.net/DTD/sodipodi-0.dtd"
   xmlns:inkscape="http://www.inkscape.org/namespaces/inkscape"
   version="1.1"
   id="body"
   width="465.03607"
   height="41.484108"
   viewBox="0 0 0.64588343 0.057616817"
   preserveAspectRatio="none"
   inkscape:version="0.48.3.1 r9886"
   sodipodi:docname="ch1-Z-G-29.svg">
  <metadata
     id="metadata97">
    <rdf:RDF>
      <cc:Work
         rdf:about="">
        <dc:format>image/svg+xml</dc:format>
        <dc:type
           rdf:resource="http://purl.org/dc/dcmitype/StillImage" />
      </cc:Work>
    </rdf:RDF>
  </metadata>
  <defs
     id="defs95" />
  <sodipodi:namedview
     pagecolor="#ffffff"
     bordercolor="#666666"
     borderopacity="1"
     objecttolerance="10"
     gridtolerance="10"
     guidetolerance="10"
     inkscape:pageopacity="0"
     inkscape:pageshadow="2"
     inkscape:window-width="640"
     inkscape:window-height="480"
     id="namedview93"
     showgrid="false"
     inkscape:zoom="0.32777778"
     inkscape:cx="381.64063"
     inkscape:cy="458.82151"
     inkscape:window-x="0"
     inkscape:window-y="24"
     inkscape:window-maximized="0"
     inkscape:current-layer="body" />
  <title
     id="title3">SVG drawing</title>
  <desc
     id="desc5">This was produced by version 4.4 of GNU libplot, a free library for exporting 2-D vector graphics.</desc>
  <g
     id="content"
     transform="matrix(0.0017361,0,0,-0.0017361,-0.00119357,0.05913591)"
     xml:space="preserve"
     stroke-miterlimit="10.433"
     font-style="normal"
     font-variant="normal"
     font-weight="normal"
     font-stretch="normal"
     font-size-adjust="none"
     letter-spacing="normal"
     word-spacing="normal"
     style="font-style:normal;font-variant:normal;font-weight:normal;font-stretch:normal;letter-spacing:normal;word-spacing:normal;text-anchor:start;fill:none;stroke:#000000;stroke-linecap:butt;stroke-linejoin:miter;stroke-miterlimit:10.43299961;stroke-opacity:1;stroke-dasharray:none;stroke-dashoffset:0">
<path
   d="m 5.1445,33.613 0.0015,0.006 0.0016,0.006 0.0017,0.007 0.0017,0.006 0.0037,0.013 0.0037,0.014 0.0039,0.015 0.0039,0.014 0.0039,0.015 0.0037,0.016 0.0036,0.015 0.0033,0.016 0.003,0.015 0.0026,0.016 0.0021,0.015 0.0016,0.016 6e-4,0.007 5e-4,0.008 2e-4,0.007 10e-5,0.008 c 0,0.156 -0.1562,0.156 -0.1875,0.156 -0.0156,0 -0.7969,-0.063 -0.875,-0.078 C 3.8477,33.91 3.6133,33.879 3.332,33.863 2.9258,33.832 2.8164,33.816 2.8164,33.52 c 0,-0.157 0.125,-0.157 0.3594,-0.157 0.7812,0 0.7969,-0.14 0.7969,-0.297 0,-0.093 -0.0313,-0.218 -0.0469,-0.265 L 1.6133,23.598 c -0.0625,-0.25 -0.0625,-0.282 -0.0625,-0.375 0,-0.344 0.2656,-0.407 0.4219,-0.407 0.2812,0 0.4843,0.204 0.5625,0.375 l 0.7187,2.875 c 0.0781,0.36 0.1719,0.688 0.25,1.032 0.1719,0.672 0.1719,0.687 0.4844,1.156 0.2969,0.453 1.0156,1.406 2.2344,1.406 0.6406,0 0.8593,-0.469 0.8593,-1.109 0,-0.891 -0.625,-2.625 -0.9687,-3.578 -0.1406,-0.375 -0.2188,-0.578 -0.2188,-0.875 0,-0.719 0.4844,-1.282 1.25,-1.282 1.4844,0 2.0313,2.329 2.0313,2.422 0,0.094 -0.0625,0.157 -0.1563,0.157 -0.1406,0 -0.1562,-0.047 -0.2343,-0.329 -0.375,-1.265 -0.9532,-1.937 -1.5938,-1.937 -0.1562,0 -0.4062,0.016 -0.4062,0.531 0,0.406 0.1875,0.922 0.25,1.094 0.2812,0.766 1,2.641 1,3.562 0,0.954 -0.5625,1.672 -1.7657,1.672 -0.9062,0 -1.7031,-0.437 -2.3437,-1.265 z"
   id="path9"
   inkscape:connector-curvature="0"
   style="fill:#000000;stroke-width:0" />
<line
   x1="0.67578"
   y1="16.172001"
   x2="9.6602001"
   y2="16.172001"
   id="line11"
   style="stroke-width:0.63800001" />
<path
   d="M 4.1875,6.957 4.1752,6.9563 4.1632,6.9556 4.1515,6.9548 4.14,6.9541 4.1289,6.9533 4.118,6.9525 4.1074,6.9517 4.0971,6.9509 4.0773,6.9492 4.0586,6.9474 4.0409,6.9455 4.0242,6.9434 4.0085,6.9411 3.9937,6.9386 3.9799,6.9358 3.967,6.9329 3.9549,6.9296 3.9437,6.9261 3.9334,6.9222 3.9238,6.918 3.9151,6.9134 3.907,6.9084 3.8998,6.903 3.8932,6.8972 3.8872,6.8909 3.882,6.8842 3.8773,6.8769 3.8733,6.8691 3.8698,6.8608 3.8669,6.8519 3.8645,6.8424 3.8626,6.8323 3.8611,6.8215 3.8601,6.8101 3.8596,6.798 3.8594,6.7852 c 0,-0.1563 0.0781,-0.1563 0.3594,-0.1563 h 0.7343 c 1.3438,0 1.9531,-1.1094 1.9531,-2.6406 0,-2.0781 -1.0781,-2.6406 -1.8593,-2.6406 -0.7657,0 -2.0625,0.3593 -2.5313,1.4218 0.5156,-0.0781 0.9688,0.2032 0.9688,0.7657 0,0.4687 -0.3282,0.7812 -0.7656,0.7812 -0.3907,0 -0.7969,-0.2187 -0.7969,-0.8281 0,-1.4063 1.4062,-2.56252 3.1719,-2.56252 1.8906,0 3.2968,1.43752 3.2968,3.04692 0,1.4687 -1.1875,2.6093 -2.7031,2.875 1.375,0.3906 2.2656,1.5625 2.2656,2.7968 0,1.2495 -1.2969,2.1715 -2.8437,2.1715 -1.5938,0 -2.7656,-0.968 -2.7656,-2.1246 0,-0.6406 0.5,-0.7656 0.7343,-0.7656 0.3281,0 0.7188,0.25 0.7188,0.7187 0,0.5155 -0.3907,0.7345 -0.7344,0.7345 -0.0937,0 -0.125,0 -0.1719,-0.016 0.5938,1.078 2.0938,1.078 2.1719,1.078 0.5313,0 1.5625,-0.234 1.5625,-1.7965 C 6.625,9.3477 6.5781,8.457 6.1094,7.7695 5.6406,7.0664 5.0938,7.0195 4.6719,7.0039 z"
   id="path13"
   inkscape:connector-curvature="0"
   style="fill:#000000;stroke-width:0" />
<polygon
   points="13.293,23.516 14.824,23.516 14.824,24.109 12.699,24.109 12.699,8.2188 14.824,8.2188 14.824,8.7969 13.293,8.7969 "
   id="polygon15"
   style="fill:#000000;stroke-width:0" />
<path
   d="M 19.379,10.406 19.295,10.293 19.206,10.182 19.113,10.075 19.016,9.9709 18.966,9.9207 18.915,9.8717 18.863,9.8239 18.81,9.7775 18.756,9.7326 18.701,9.6892 18.645,9.6475 18.588,9.6074 18.53,9.5691 18.471,9.5327 18.411,9.4983 18.35,9.4658 18.289,9.4355 18.226,9.4074 18.162,9.3816 18.098,9.3582 18.033,9.3371 17.966,9.3187 17.899,9.3028 17.831,9.2896 17.762,9.2793 17.693,9.2717 17.622,9.2672 17.551,9.2656 c -0.203,0 -0.953,0.0313 -1.203,0.7654 0.047,-0.015 0.125,-0.015 0.156,-0.015 0.484,0 0.797,0.406 0.797,0.765 0,0.375 -0.297,0.5 -0.531,0.5 -0.266,0 -0.813,-0.187 -0.813,-0.969 0,-0.812 0.688,-1.3745 1.594,-1.3745 1.578,0 3.187,1.4685 3.625,3.2345 l 1.562,6.203 c 0.016,0.078 0.047,0.172 0.047,0.266 0,0.234 -0.187,0.39 -0.422,0.39 -0.14,0 -0.484,-0.062 -0.609,-0.531 l -1.172,-4.672 c -0.078,-0.297 -0.078,-0.328 -0.203,-0.5 -0.328,-0.437 -0.844,-0.984 -1.609,-0.984 -0.891,0 -0.969,0.875 -0.969,1.312 0,0.906 0.422,2.125 0.859,3.266 0.172,0.469 0.266,0.687 0.266,1 0,0.672 -0.469,1.281 -1.25,1.281 -1.469,0 -2.063,-2.312 -2.063,-2.437 0,-0.063 0.078,-0.141 0.188,-0.141 0.14,0 0.156,0.063 0.219,0.281 0.375,1.344 0.984,1.969 1.609,1.969 0.141,0 0.406,0 0.406,-0.516 0,-0.421 -0.172,-0.875 -0.406,-1.484 -0.781,-2.078 -0.781,-2.609 -0.781,-2.984 0,-1.516 1.078,-1.86 1.875,-1.86 0.453,0 1.031,0.141 1.593,0.735 l 0.016,-0.016 c -0.25,-0.938 -0.406,-1.562 -0.953,-2.344 z"
   id="path17"
   inkscape:connector-curvature="0"
   style="fill:#000000;stroke-width:0" />
<path
   d="m 27.926,13.359 -10e-4,0.17 -0.002,0.169 -0.004,0.169 -0.007,0.168 -0.009,0.168 -0.013,0.167 -0.016,0.166 -0.02,0.165 -0.026,0.164 -0.03,0.164 -0.035,0.162 -0.042,0.161 -0.047,0.16 -0.055,0.159 -0.061,0.157 -0.034,0.079 -0.036,0.077 c -0.515,1.063 -1.437,1.25 -1.89,1.25 -0.672,0 -1.485,-0.296 -1.953,-1.328 -0.36,-0.781 -0.407,-1.64 -0.407,-2.547 0,-0.828 0.047,-1.828 0.5,-2.687 0.485,-0.8908 1.297,-1.1251 1.844,-1.1251 v 0.25 c -0.437,0 -1.094,0.2811 -1.297,1.3441 -0.125,0.671 -0.125,1.703 -0.125,2.359 0,0.719 0,1.453 0.094,2.047 0.203,1.328 1.047,1.437 1.328,1.437 0.359,0 1.094,-0.203 1.313,-1.312 0.109,-0.625 0.109,-1.469 0.109,-2.172 0,-0.844 0,-1.594 -0.125,-2.312 -0.156,-1.063 -0.797,-1.3911 -1.297,-1.3911 h 0 v -0.25 c 0.594,0 1.453,0.2343 1.938,1.2971 0.359,0.765 0.406,1.64 0.406,2.515 z"
   id="path19"
   inkscape:connector-curvature="0"
   style="fill:#000000;stroke-width:0" />
<path
   d="m 38.766,15.859 h 4.39 c 0.219,0 0.5,0 0.5,0.282 0,0.312 -0.265,0.312 -0.5,0.312 h -4.39 v 4.375 c 0,0.234 0,0.516 -0.282,0.516 -0.312,0 -0.312,-0.266 -0.312,-0.516 v -4.375 h -4.391 c -0.219,0 -0.5,0 -0.5,-0.297 0,-0.297 0.266,-0.297 0.5,-0.297 h 4.391 v -4.39 c 0,-0.219 0,-0.5 0.297,-0.5 0.297,0 0.297,0.265 0.297,0.5 z"
   id="path21"
   inkscape:connector-curvature="0"
   style="fill:#000000;stroke-width:0" />
<path
   d="m 53.832,22.531 0,0.015 0,0.014 0,0.014 0,0.013 0,0.026 0,0.025 -10e-4,0.023 0,0.022 -0.001,0.021 -10e-4,0.02 -0.002,0.019 -0.002,0.017 -0.002,0.017 -0.003,0.015 -0.003,0.015 -0.003,0.013 -0.005,0.012 -0.004,0.012 -0.006,0.01 -0.006,0.01 -0.007,0.009 -0.007,0.008 -0.009,0.007 -0.009,0.006 -0.01,0.006 -0.011,0.005 -0.012,0.004 -0.013,0.004 -0.014,0.003 -0.016,0.002 -0.016,0.002 -0.017,10e-4 -0.019,0.001 -0.01,0 -0.01,0 c -0.125,0 -0.172,0 -0.297,-0.203 L 48.52,15.297 h 0.406 l 3.859,6 v -6 H 48.926 48.52 v -0.453 h 4.187 v -1.453 c 0,-0.579 -0.031,-0.75 -1.187,-0.75 h -0.329 v -0.453 c 0.375,0.031 1.625,0.031 2.079,0.031 0.437,0 1.703,0 2.078,-0.031 v 0.453 h -0.313 c -1.156,0 -1.203,0.171 -1.203,0.75 v 1.453 h 1.609 v 0.453 h -1.609 z"
   id="path23"
   inkscape:connector-curvature="0"
   style="fill:#000000;stroke-width:0" />
<path
   d="M 60.094,10.406 60.01,10.293 59.921,10.182 59.828,10.075 59.731,9.9709 59.681,9.9207 59.63,9.8717 59.578,9.8239 59.525,9.7775 59.471,9.7326 59.416,9.6892 59.36,9.6475 59.303,9.6074 59.245,9.5691 59.186,9.5327 59.126,9.4983 59.065,9.4658 59.003,9.4355 58.941,9.4074 58.877,9.3816 58.813,9.3582 58.747,9.3371 58.681,9.3187 58.614,9.3028 58.546,9.2896 58.477,9.2793 58.407,9.2717 58.337,9.2672 58.266,9.2656 c -0.204,0 -0.954,0.0313 -1.204,0.7654 0.047,-0.015 0.126,-0.015 0.157,-0.015 0.484,0 0.797,0.406 0.797,0.765 0,0.375 -0.297,0.5 -0.532,0.5 -0.265,0 -0.812,-0.187 -0.812,-0.969 0,-0.812 0.687,-1.3745 1.594,-1.3745 1.578,0 3.187,1.4685 3.625,3.2345 l 1.562,6.203 c 0.016,0.078 0.047,0.172 0.047,0.266 0,0.234 -0.188,0.39 -0.422,0.39 -0.14,0 -0.484,-0.062 -0.609,-0.531 l -1.172,-4.672 c -0.078,-0.297 -0.078,-0.328 -0.203,-0.5 -0.328,-0.437 -0.844,-0.984 -1.61,-0.984 -0.89,0 -0.968,0.875 -0.968,1.312 0,0.906 0.422,2.125 0.859,3.266 0.172,0.469 0.266,0.687 0.266,1 0,0.672 -0.469,1.281 -1.25,1.281 -1.469,0 -2.063,-2.312 -2.063,-2.437 0,-0.063 0.078,-0.141 0.188,-0.141 0.14,0 0.156,0.063 0.218,0.281 0.375,1.344 0.985,1.969 1.61,1.969 0.14,0 0.406,0 0.406,-0.516 0,-0.421 -0.172,-0.875 -0.406,-1.484 -0.782,-2.078 -0.782,-2.609 -0.782,-2.984 0,-1.516 1.079,-1.86 1.876,-1.86 0.453,0 1.031,0.141 1.593,0.735 l 0.016,-0.016 c -0.25,-0.938 -0.406,-1.562 -0.953,-2.344 z"
   id="path25"
   inkscape:connector-curvature="0"
   style="fill:#000000;stroke-width:0" />
<path
   d="m 66.797,16.938 0,0.012 0,0.012 0,0.011 0,0.012 0,0.011 0,0.01 0,0.011 -10e-4,0.01 0,0.009 0,0.01 0,0.009 -0.001,0.009 -0.001,0.016 -10e-4,0.016 -0.002,0.015 -0.002,0.013 -0.003,0.013 -0.003,0.011 -0.004,0.011 -0.004,0.01 -0.005,0.008 -0.006,0.009 -0.007,0.007 -0.007,0.006 -0.009,0.006 -0.009,0.005 -0.01,0.005 -0.006,0.002 -0.005,0.002 -0.006,0.002 -0.007,0.001 -0.006,0.002 -0.007,0.001 -0.007,0.002 -0.008,0.001 -0.008,10e-4 -0.008,0.001 -0.008,0.001 -0.009,0 -0.009,10e-4 -0.009,0.001 -0.01,0 -0.01,0 -0.01,0.001 -0.011,0 -0.011,0 -0.012,0 -0.012,0 -0.012,0 c -0.687,-0.718 -1.672,-0.718 -2.015,-0.718 v -0.344 c 0.218,0 0.875,0 1.453,0.281 v -5.781 c 0,-0.391 -0.031,-0.531 -1.031,-0.531 h -0.36 V 9.7969 c 0.391,0.0312 1.36,0.0312 1.797,0.0312 0.453,0 1.422,0 1.813,-0.0312 v 0.3441 h -0.36 c -1,0 -1.031,0.125 -1.031,0.531 z"
   id="path27"
   inkscape:connector-curvature="0"
   style="fill:#000000;stroke-width:0" />
<path
   d="m 79.48,15.859 h 4.391 c 0.219,0 0.5,0 0.5,0.282 0,0.312 -0.266,0.312 -0.5,0.312 H 79.48 v 4.375 c 0,0.234 0,0.516 -0.281,0.516 -0.312,0 -0.312,-0.266 -0.312,-0.516 v -4.375 h -4.391 c -0.219,0 -0.5,0 -0.5,-0.297 0,-0.297 0.266,-0.297 0.5,-0.297 h 4.391 v -4.39 c 0,-0.219 0,-0.5 0.297,-0.5 0.296,0 0.296,0.265 0.296,0.5 z"
   id="path29"
   inkscape:connector-curvature="0"
   style="fill:#000000;stroke-width:0" />
<path
   d="m 95.816,14.859 h -0.359 c -0.047,-0.265 -0.172,-1.14 -0.328,-1.406 -0.109,-0.141 -1.016,-0.141 -1.5,-0.141 h -2.938 c 0.422,0.376 1.407,1.391 1.813,1.766 2.422,2.234 3.312,3.047 3.312,4.625 0,1.828 -1.453,3.047 -3.296,3.047 -1.844,0 -2.922,-1.562 -2.922,-2.938 0,-0.812 0.703,-0.812 0.75,-0.812 0.328,0 0.734,0.25 0.734,0.75 0,0.453 -0.297,0.75 -0.734,0.75 -0.157,0 -0.188,0 -0.235,-0.016 0.313,1.078 1.172,1.813 2.203,1.813 1.344,0 2.172,-1.125 2.172,-2.594 0,-1.344 -0.781,-2.531 -1.687,-3.547 l -3.203,-3.594 v -0.374 h 5.797 z"
   id="path31"
   inkscape:connector-curvature="0"
   style="fill:#000000;stroke-width:0" />
<path
   d="m 100.81,10.406 -0.09,-0.113 -0.08,-0.111 -0.1,-0.107 L 100.45,9.9709 100.4,9.9207 100.35,9.8717 100.29,9.8239 100.24,9.7775 100.19,9.7326 100.13,9.6892 100.07,9.6475 100.02,9.6074 99.96,9.5691 99.901,9.5327 99.841,9.4983 99.78,9.4658 99.718,9.4355 99.656,9.4074 99.592,9.3816 99.528,9.3582 99.462,9.3371 99.396,9.3187 99.329,9.3028 99.261,9.2896 99.192,9.2793 99.122,9.2717 99.052,9.2672 98.98,9.2656 c -0.203,0 -0.953,0.0313 -1.203,0.7654 0.047,-0.015 0.125,-0.015 0.157,-0.015 0.484,0 0.796,0.406 0.796,0.765 0,0.375 -0.296,0.5 -0.531,0.5 -0.265,0 -0.812,-0.187 -0.812,-0.969 0,-0.812 0.687,-1.3745 1.593,-1.3745 1.58,0 3.19,1.4685 3.63,3.2345 l 1.56,6.203 c 0.01,0.078 0.04,0.172 0.04,0.266 0,0.234 -0.18,0.39 -0.42,0.39 -0.14,0 -0.48,-0.062 -0.61,-0.531 l -1.17,-4.672 c -0.08,-0.297 -0.08,-0.328 -0.2,-0.5 -0.33,-0.437 -0.85,-0.984 -1.61,-0.984 -0.891,0 -0.97,0.875 -0.97,1.312 0,0.906 0.422,2.125 0.86,3.266 0.17,0.469 0.27,0.687 0.27,1 0,0.672 -0.473,1.281 -1.255,1.281 -1.468,0 -2.062,-2.312 -2.062,-2.437 0,-0.063 0.078,-0.141 0.187,-0.141 0.141,0 0.157,0.063 0.219,0.281 0.375,1.344 0.985,1.969 1.61,1.969 0.14,0 0.406,0 0.406,-0.516 0,-0.421 -0.172,-0.875 -0.406,-1.484 -0.782,-2.078 -0.782,-2.609 -0.782,-2.984 0,-1.516 1.078,-1.86 1.873,-1.86 0.46,0 1.03,0.141 1.6,0.735 l 0.01,-0.016 c -0.25,-0.938 -0.4,-1.562 -0.95,-2.344 z"
   id="path33"
   inkscape:connector-curvature="0"
   style="fill:#000000;stroke-width:0" />
<path
   d="m 105.66,10.656 1.17,1.156 c 1.75,1.532 2.42,2.141 2.42,3.25 0,1.266 -1.02,2.172 -2.37,2.172 -1.26,0 -2.08,-1.031 -2.08,-2.031 0,-0.625 0.54,-0.625 0.59,-0.625 0.19,0 0.58,0.141 0.58,0.594 0,0.297 -0.2,0.578 -0.59,0.578 -0.1,0 -0.11,0 -0.15,0 0.25,0.719 0.86,1.125 1.5,1.125 1.02,0 1.5,-0.891 1.5,-1.813 0,-0.89 -0.56,-1.781 -1.17,-2.468 l -2.14,-2.391 C 104.8,10.094 104.8,10.062 104.8,9.7969 h 4.14 l 0.31,1.9371 h -0.28 c -0.06,-0.328 -0.14,-0.828 -0.25,-0.984 -0.08,-0.094 -0.81,-0.094 -1.06,-0.094 z"
   id="path35"
   inkscape:connector-curvature="0"
   style="fill:#000000;stroke-width:0" />
<path
   d="m 120.19,15.859 h 4.4 c 0.22,0 0.5,0 0.5,0.282 0,0.312 -0.27,0.312 -0.5,0.312 h -4.4 v 4.375 c 0,0.234 0,0.516 -0.28,0.516 -0.31,0 -0.31,-0.266 -0.31,-0.516 v -4.375 h -4.39 c -0.22,0 -0.5,0 -0.5,-0.297 0,-0.297 0.27,-0.297 0.5,-0.297 h 4.39 v -4.39 c 0,-0.219 0,-0.5 0.3,-0.5 0.29,0 0.29,0.265 0.29,0.5 z"
   id="path37"
   inkscape:connector-curvature="0"
   style="fill:#000000;stroke-width:0" />
<path
   d="m 135.27,22.531 0,0.015 0,0.014 0,0.014 0,0.013 0,0.026 0,0.025 0,0.023 -0.01,0.022 0,0.021 0,0.02 0,0.019 0,0.017 0,0.017 -0.01,0.015 0,0.015 0,0.013 -0.01,0.012 0,0.012 -0.01,0.01 0,0.01 -0.01,0.009 -0.01,0.008 -0.01,0.007 -0.01,0.006 -0.01,0.006 -0.01,0.005 -0.01,0.004 -0.01,0.004 -0.02,0.003 -0.01,0.002 -0.02,0.002 -0.01,10e-4 -0.02,0.001 -0.01,0 -0.01,0 c -0.13,0 -0.17,0 -0.3,-0.203 l -4.8,-7.422 h 0.41 l 3.86,6 v -6 h -3.86 -0.41 v -0.453 h 4.19 v -1.453 c 0,-0.579 -0.03,-0.75 -1.19,-0.75 h -0.33 v -0.453 c 0.38,0.031 1.63,0.031 2.08,0.031 0.44,0 1.71,0 2.08,-0.031 v 0.453 h -0.31 c -1.16,0 -1.2,0.171 -1.2,0.75 v 1.453 h 1.61 v 0.453 h -1.61 z"
   id="path39"
   inkscape:connector-curvature="0"
   style="fill:#000000;stroke-width:0" />
<path
   d="m 141.53,10.406 -0.09,-0.113 -0.09,-0.111 -0.09,-0.107 -0.1,-0.1041 -0.05,-0.0502 -0.05,-0.049 L 141.01,9.8239 140.96,9.7775 140.9,9.7326 140.85,9.6892 140.79,9.6475 140.74,9.6074 140.68,9.5691 140.62,9.5327 140.56,9.4983 140.5,9.4658 140.44,9.4355 140.37,9.4074 140.31,9.3816 140.25,9.3582 140.18,9.3371 140.11,9.3187 140.05,9.3028 139.98,9.2896 139.91,9.2793 139.84,9.2717 139.77,9.2672 139.7,9.2656 c -0.2,0 -0.95,0.0313 -1.2,0.7654 0.04,-0.015 0.12,-0.015 0.15,-0.015 0.49,0 0.8,0.406 0.8,0.765 0,0.375 -0.3,0.5 -0.53,0.5 -0.27,0 -0.82,-0.187 -0.82,-0.969 0,-0.812 0.69,-1.3745 1.6,-1.3745 1.58,0 3.19,1.4685 3.62,3.2345 l 1.57,6.203 c 0.01,0.078 0.04,0.172 0.04,0.266 0,0.234 -0.18,0.39 -0.42,0.39 -0.14,0 -0.48,-0.062 -0.61,-0.531 l -1.17,-4.672 c -0.08,-0.297 -0.08,-0.328 -0.2,-0.5 -0.33,-0.437 -0.85,-0.984 -1.61,-0.984 -0.89,0 -0.97,0.875 -0.97,1.312 0,0.906 0.42,2.125 0.86,3.266 0.17,0.469 0.26,0.687 0.26,1 0,0.672 -0.47,1.281 -1.25,1.281 -1.47,0 -2.06,-2.312 -2.06,-2.437 0,-0.063 0.08,-0.141 0.19,-0.141 0.14,0 0.15,0.063 0.22,0.281 0.37,1.344 0.98,1.969 1.61,1.969 0.14,0 0.4,0 0.4,-0.516 0,-0.421 -0.17,-0.875 -0.4,-1.484 C 139,14.797 139,14.266 139,13.891 c 0,-1.516 1.07,-1.86 1.87,-1.86 0.45,0 1.03,0.141 1.59,0.735 l 0.02,-0.016 c -0.25,-0.938 -0.41,-1.562 -0.95,-2.344 z"
   id="path41"
   inkscape:connector-curvature="0"
   style="fill:#000000;stroke-width:0" />
<path
   d="m 148.18,13.719 0.09,0.03 0.08,0.034 0.09,0.036 0.08,0.038 0.07,0.041 0.08,0.044 0.07,0.045 0.08,0.048 0.07,0.05 0.06,0.053 0.07,0.054 0.06,0.056 0.06,0.059 0.06,0.06 0.06,0.062 0.05,0.063 0.05,0.065 0.05,0.067 0.04,0.069 0.04,0.069 0.04,0.072 0.04,0.072 0.03,0.074 0.03,0.075 0.03,0.076 0.02,0.077 0.02,0.078 0.02,0.079 0.01,0.079 0.01,0.081 0,0.081 0.01,0.082 c 0,0.921 -0.99,1.546 -2.05,1.546 -1.13,0 -1.99,-0.672 -1.99,-1.531 0,-0.359 0.25,-0.578 0.58,-0.578 0.35,0 0.56,0.25 0.56,0.578 0,0.547 -0.51,0.547 -0.68,0.547 0.34,0.547 1.08,0.703 1.48,0.703 0.45,0 1.06,-0.25 1.06,-1.25 0,-0.141 -0.01,-0.781 -0.31,-1.281 -0.33,-0.531 -0.7,-0.563 -0.98,-0.578 -0.1,-0.016 -0.36,-0.032 -0.44,-0.032 -0.09,-0.015 -0.17,-0.015 -0.17,-0.14 0,-0.11 0.08,-0.11 0.26,-0.11 h 0.5 c 0.91,0 1.33,-0.765 1.33,-1.859 0,-1.515 -0.78,-1.8436 -1.26,-1.8436 -0.49,0 -1.32,0.1876 -1.71,0.8596 0.39,-0.063 0.74,0.187 0.74,0.609 0,0.406 -0.3,0.625 -0.63,0.625 -0.26,0 -0.62,-0.156 -0.62,-0.656 0,-1.016 1.03,-1.7501 2.25,-1.7501 1.36,0 2.37,1.0151 2.37,2.1561 0,0.922 -0.7,1.781 -1.86,2.016 z"
   id="path43"
   inkscape:connector-curvature="0"
   style="fill:#000000;stroke-width:0" />
<path
   d="m 160.91,15.859 h 4.39 c 0.22,0 0.5,0 0.5,0.282 0,0.312 -0.26,0.312 -0.5,0.312 h -4.39 v 4.375 c 0,0.234 0,0.516 -0.28,0.516 -0.31,0 -0.31,-0.266 -0.31,-0.516 v -4.375 h -4.39 c -0.22,0 -0.5,0 -0.5,-0.297 0,-0.297 0.27,-0.297 0.5,-0.297 h 4.39 v -4.39 c 0,-0.219 0,-0.5 0.3,-0.5 0.29,0 0.29,0.265 0.29,0.5 z"
   id="path45"
   inkscape:connector-curvature="0"
   style="fill:#000000;stroke-width:0" />
<path
   d="m 177.25,14.859 h -0.36 c -0.05,-0.265 -0.18,-1.14 -0.33,-1.406 -0.11,-0.141 -1.02,-0.141 -1.5,-0.141 h -2.94 c 0.42,0.376 1.41,1.391 1.81,1.766 2.42,2.234 3.32,3.047 3.32,4.625 0,1.828 -1.46,3.047 -3.3,3.047 -1.85,0 -2.92,-1.562 -2.92,-2.938 0,-0.812 0.7,-0.812 0.75,-0.812 0.32,0 0.73,0.25 0.73,0.75 0,0.453 -0.3,0.75 -0.73,0.75 -0.16,0 -0.19,0 -0.24,-0.016 0.31,1.078 1.17,1.813 2.21,1.813 1.34,0 2.17,-1.125 2.17,-2.594 0,-1.344 -0.78,-2.531 -1.69,-3.547 l -3.2,-3.594 v -0.374 h 5.79 z"
   id="path47"
   inkscape:connector-curvature="0"
   style="fill:#000000;stroke-width:0" />
<path
   d="m 182.24,10.406 -0.08,-0.113 -0.09,-0.111 -0.09,-0.107 -0.1,-0.1041 -0.05,-0.0502 -0.05,-0.049 -0.05,-0.0478 -0.06,-0.0464 -0.05,-0.0449 -0.06,-0.0434 -0.05,-0.0417 -0.06,-0.0401 -0.06,-0.0383 -0.06,-0.0364 -0.06,-0.0344 -0.06,-0.0325 -0.06,-0.0303 -0.06,-0.0281 -0.06,-0.0258 -0.07,-0.0234 -0.06,-0.0211 -0.07,-0.0184 -0.07,-0.0159 -0.07,-0.0132 -0.06,-0.0103 -0.07,-0.0076 -0.07,-0.0045 -0.08,-0.0016 c -0.2,0 -0.95,0.0313 -1.2,0.7654 0.05,-0.015 0.13,-0.015 0.16,-0.015 0.48,0 0.79,0.406 0.79,0.765 0,0.375 -0.29,0.5 -0.53,0.5 -0.26,0 -0.81,-0.187 -0.81,-0.969 0,-0.812 0.69,-1.3745 1.59,-1.3745 1.58,0 3.19,1.4685 3.63,3.2345 l 1.56,6.203 c 0.02,0.078 0.05,0.172 0.05,0.266 0,0.234 -0.19,0.39 -0.42,0.39 -0.14,0 -0.49,-0.062 -0.61,-0.531 l -1.17,-4.672 c -0.08,-0.297 -0.08,-0.328 -0.21,-0.5 -0.33,-0.437 -0.84,-0.984 -1.61,-0.984 -0.89,0 -0.97,0.875 -0.97,1.312 0,0.906 0.43,2.125 0.86,3.266 0.18,0.469 0.27,0.687 0.27,1 0,0.672 -0.47,1.281 -1.25,1.281 -1.47,0 -2.06,-2.312 -2.06,-2.437 0,-0.063 0.07,-0.141 0.18,-0.141 0.14,0 0.16,0.063 0.22,0.281 0.38,1.344 0.99,1.969 1.61,1.969 0.14,0 0.41,0 0.41,-0.516 0,-0.421 -0.17,-0.875 -0.41,-1.484 -0.78,-2.078 -0.78,-2.609 -0.78,-2.984 0,-1.516 1.08,-1.86 1.88,-1.86 0.45,0 1.03,0.141 1.59,0.735 l 0.02,-0.016 c -0.25,-0.938 -0.41,-1.562 -0.96,-2.344 z"
   id="path49"
   inkscape:connector-curvature="0"
   style="fill:#000000;stroke-width:0" />
<path
   d="m 188.95,11.641 v -0.969 c 0,-0.406 -0.04,-0.531 -0.85,-0.531 h -0.23 V 9.7969 c 0.45,0.0312 1.03,0.0312 1.5,0.0312 0.47,0 1.06,0 1.51,-0.0312 v 0.3441 h -0.23 c -0.83,0 -0.85,0.125 -0.85,0.531 v 0.969 h 1.11 v 0.343 h -1.11 v 5.078 c 0,0.219 0,0.282 -0.18,0.282 -0.1,0 -0.13,0 -0.22,-0.125 l -3.42,-5.235 h 0.31 l 2.72,4.157 v -4.157 h -2.72 -0.31 v -0.343 z"
   id="path51"
   inkscape:connector-curvature="0"
   style="fill:#000000;stroke-width:0" />
<path
   d="m 201.63,15.859 h 4.39 c 0.22,0 0.5,0 0.5,0.282 0,0.312 -0.27,0.312 -0.5,0.312 h -4.39 v 4.375 c 0,0.234 0,0.516 -0.28,0.516 -0.31,0 -0.31,-0.266 -0.31,-0.516 v -4.375 h -4.39 c -0.22,0 -0.5,0 -0.5,-0.297 0,-0.297 0.26,-0.297 0.5,-0.297 h 4.39 v -4.39 c 0,-0.219 0,-0.5 0.29,-0.5 0.3,0 0.3,0.265 0.3,0.5 z"
   id="path53"
   inkscape:connector-curvature="0"
   style="fill:#000000;stroke-width:0" />
<path
   d="m 213.89,12.953 0,0.042 -0.01,0.042 0,0.04 -0.01,0.04 -0.01,0.039 -0.01,0.037 -0.01,0.037 -0.02,0.036 -0.01,0.035 -0.02,0.034 -0.02,0.033 -0.02,0.031 -0.02,0.031 -0.03,0.029 -0.02,0.028 -0.03,0.027 -0.03,0.025 -0.03,0.024 -0.02,0.023 -0.03,0.021 -0.04,0.019 -0.03,0.018 -0.03,0.017 -0.03,0.015 -0.04,0.013 -0.03,0.012 -0.04,0.01 -0.03,0.008 -0.04,0.007 -0.04,0.005 -0.03,0.002 -0.04,10e-4 c -0.45,0 -0.78,-0.39 -0.78,-0.765 0,-0.469 0.39,-0.781 0.76,-0.781 0.47,0 0.79,0.374 0.79,0.765 z"
   id="path55"
   inkscape:connector-curvature="0"
   style="fill:#000000;stroke-width:0" />
<path
   d="m 218.22,12.953 0,0.042 -0.01,0.042 0,0.04 -0.01,0.04 -0.01,0.039 -0.01,0.037 -0.01,0.037 -0.02,0.036 -0.01,0.035 -0.02,0.034 -0.02,0.033 -0.02,0.031 -0.02,0.031 -0.03,0.029 -0.02,0.028 -0.03,0.027 -0.02,0.025 -0.03,0.024 -0.03,0.023 -0.03,0.021 -0.03,0.019 -0.04,0.018 -0.03,0.017 -0.03,0.015 -0.04,0.013 -0.03,0.012 -0.04,0.01 -0.03,0.008 -0.04,0.007 -0.03,0.005 -0.04,0.002 -0.04,10e-4 c -0.45,0 -0.78,-0.39 -0.78,-0.765 0,-0.469 0.39,-0.781 0.77,-0.781 0.47,0 0.78,0.374 0.78,0.765 z"
   id="path57"
   inkscape:connector-curvature="0"
   style="fill:#000000;stroke-width:0" />
<path
   d="m 222.55,12.953 0,0.042 0,0.042 -0.01,0.04 -0.01,0.04 -0.01,0.039 -0.01,0.037 -0.01,0.037 -0.01,0.036 -0.02,0.035 -0.02,0.034 -0.02,0.033 -0.02,0.031 -0.02,0.031 -0.02,0.029 -0.03,0.028 -0.03,0.027 -0.02,0.025 -0.03,0.024 -0.03,0.023 -0.03,0.021 -0.03,0.019 -0.03,0.018 -0.04,0.017 -0.03,0.015 -0.03,0.013 -0.04,0.012 -0.03,0.01 -0.04,0.008 -0.04,0.007 -0.03,0.005 -0.04,0.002 -0.03,10e-4 c -0.46,0 -0.79,-0.39 -0.79,-0.765 0,-0.469 0.4,-0.781 0.77,-0.781 0.47,0 0.78,0.374 0.78,0.765 z"
   id="path59"
   inkscape:connector-curvature="0"
   style="fill:#000000;stroke-width:0" />
<path
   d="m 233.86,15.859 h 4.39 c 0.22,0 0.5,0 0.5,0.282 0,0.312 -0.27,0.312 -0.5,0.312 h -4.39 v 4.375 c 0,0.234 0,0.516 -0.28,0.516 -0.31,0 -0.31,-0.266 -0.31,-0.516 v -4.375 h -4.39 c -0.22,0 -0.5,0 -0.5,-0.297 0,-0.297 0.26,-0.297 0.5,-0.297 h 4.39 v -4.39 c 0,-0.219 0,-0.5 0.29,-0.5 0.3,0 0.3,0.265 0.3,0.5 z"
   id="path61"
   inkscape:connector-curvature="0"
   style="fill:#000000;stroke-width:0" />
<path
   d="m 250.19,14.859 h -0.36 c -0.04,-0.265 -0.17,-1.14 -0.33,-1.406 -0.1,-0.141 -1.01,-0.141 -1.5,-0.141 h -2.93 c 0.42,0.376 1.4,1.391 1.81,1.766 2.42,2.234 3.31,3.047 3.31,4.625 0,1.828 -1.45,3.047 -3.29,3.047 -1.85,0 -2.93,-1.562 -2.93,-2.938 0,-0.812 0.71,-0.812 0.75,-0.812 0.33,0 0.74,0.25 0.74,0.75 0,0.453 -0.3,0.75 -0.74,0.75 -0.15,0 -0.18,0 -0.23,-0.016 0.31,1.078 1.17,1.813 2.2,1.813 1.35,0 2.17,-1.125 2.17,-2.594 0,-1.344 -0.78,-2.531 -1.68,-3.547 l -3.21,-3.594 v -0.374 h 5.8 z"
   id="path63"
   inkscape:connector-curvature="0"
   style="fill:#000000;stroke-width:0" />
<path
   d="m 255.19,10.406 -0.09,-0.113 -0.08,-0.111 -0.1,-0.107 -0.09,-0.1041 -0.05,-0.0502 -0.06,-0.049 L 254.67,9.8239 254.62,9.7775 254.56,9.7326 254.51,9.6892 254.45,9.6475 254.4,9.6074 254.34,9.5691 254.28,9.5327 254.22,9.4983 254.16,9.4658 254.1,9.4355 254.03,9.4074 253.97,9.3816 253.91,9.3582 253.84,9.3371 253.77,9.3187 253.71,9.3028 253.64,9.2896 253.57,9.2793 253.5,9.2717 253.43,9.2672 253.36,9.2656 c -0.2,0 -0.95,0.0313 -1.2,0.7654 0.04,-0.015 0.12,-0.015 0.15,-0.015 0.49,0 0.8,0.406 0.8,0.765 0,0.375 -0.3,0.5 -0.53,0.5 -0.27,0 -0.81,-0.187 -0.81,-0.969 0,-0.812 0.68,-1.3745 1.59,-1.3745 1.58,0 3.19,1.4685 3.62,3.2345 l 1.57,6.203 c 0.01,0.078 0.04,0.172 0.04,0.266 0,0.234 -0.18,0.39 -0.42,0.39 -0.14,0 -0.48,-0.062 -0.61,-0.531 l -1.17,-4.672 c -0.08,-0.297 -0.08,-0.328 -0.2,-0.5 -0.33,-0.437 -0.85,-0.984 -1.61,-0.984 -0.89,0 -0.97,0.875 -0.97,1.312 0,0.906 0.42,2.125 0.86,3.266 0.17,0.469 0.26,0.687 0.26,1 0,0.672 -0.46,1.281 -1.25,1.281 -1.46,0 -2.06,-2.312 -2.06,-2.437 0,-0.063 0.08,-0.141 0.19,-0.141 0.14,0 0.16,0.063 0.22,0.281 0.37,1.344 0.98,1.969 1.61,1.969 0.14,0 0.4,0 0.4,-0.516 0,-0.421 -0.17,-0.875 -0.4,-1.484 -0.78,-2.078 -0.78,-2.609 -0.78,-2.984 0,-1.516 1.07,-1.86 1.87,-1.86 0.45,0 1.03,0.141 1.59,0.735 l 0.02,-0.016 c -0.25,-0.938 -0.41,-1.562 -0.95,-2.344 z"
   id="path65"
   inkscape:connector-curvature="0"
   style="fill:#000000;stroke-width:0" />
<path
   d="m 259.59,10.453 0,-0.016 0,-0.017 -0.01,-0.017 0,-0.018 -0.01,-0.035 -0.01,-0.036 -0.01,-0.037 0,-0.036 -0.01,-0.036 -0.01,-0.035 -0.01,-0.017 0,-0.017 -0.01,-0.016 0,-0.016 0,-0.015 -0.01,-0.015 0,-0.014 0,-0.013 -0.01,-0.013 0,-0.012 0,-0.011 0,-0.011 0,-0.009 -0.01,-0.0084 0,-0.0075 0,-0.0063 c 0,-0.1876 0.16,-0.2969 0.33,-0.2969 0.14,0 0.35,0.0937 0.42,0.3125 0,0.0316 0.15,0.5466 0.21,0.8276 l 0.25,1 c 0.06,0.25 0.12,0.5 0.19,0.75 0.04,0.188 0.14,0.516 0.14,0.563 0.17,0.344 0.76,1.359 1.82,1.359 0.5,0 0.6,-0.422 0.6,-0.781 0,-0.687 -0.55,-2.125 -0.72,-2.594 -0.11,-0.265 -0.11,-0.39 -0.11,-0.515 0,-0.532 0.39,-0.9221 0.91,-0.9221 1.04,0 1.46,1.6251 1.46,1.7191 0,0.109 -0.1,0.109 -0.14,0.109 -0.11,0 -0.11,-0.031 -0.17,-0.203 -0.22,-0.75 -0.58,-1.3751 -1.12,-1.3751 -0.21,0 -0.28,0.1091 -0.28,0.3591 0,0.281 0.11,0.547 0.2,0.797 0.22,0.594 0.69,1.813 0.69,2.453 0,0.75 -0.49,1.203 -1.28,1.203 -1.02,0 -1.55,-0.718 -1.76,-0.984 -0.04,0.625 -0.5,0.984 -1.01,0.984 -0.52,0 -0.73,-0.437 -0.84,-0.64 -0.18,-0.375 -0.33,-1.047 -0.33,-1.078 0,-0.125 0.11,-0.125 0.12,-0.125 0.11,0 0.13,0.015 0.19,0.265 0.2,0.797 0.42,1.328 0.83,1.328 0.22,0 0.34,-0.14 0.34,-0.515 0,-0.235 -0.03,-0.36 -0.19,-0.938 z"
   id="path67"
   inkscape:connector-curvature="0"
   style="fill:#000000;stroke-width:0" />
<path
   d="m 272.67,12.359 0.03,0 0.04,10e-4 0.03,0.001 0.02,10e-4 0.02,10e-4 0.01,0.002 0.02,0.002 0.02,0.002 0.01,0.003 0.02,0.003 0.01,0.004 0.02,0.005 0.01,0.005 0.02,0.006 0.01,0.006 0.01,0.007 0.01,0.009 0.02,0.009 0.01,0.01 0.01,0.01 0,0.012 0.01,0.007 0,0.006 0.01,0.007 0,0.007 0,0.008 0,0.007 0.01,0.008 0,0.008 0,0.009 0,0.009 0.01,0.009 0,0.01 0,0.009 0,0.011 0,0.01 0,0.011 c 0,0.218 -0.2,0.218 -0.39,0.218 h -6.05 c -0.19,0 -0.39,0 -0.39,-0.218 0,-0.235 0.2,-0.235 0.39,-0.235 z"
   id="path69"
   inkscape:connector-curvature="0"
   style="fill:#000000;stroke-width:0" />
<path
   d="m 275.41,10.656 1.17,1.156 c 1.75,1.532 2.42,2.141 2.42,3.25 0,1.266 -1.01,2.172 -2.37,2.172 -1.25,0 -2.08,-1.031 -2.08,-2.031 0,-0.625 0.55,-0.625 0.59,-0.625 0.19,0 0.58,0.141 0.58,0.594 0,0.297 -0.2,0.578 -0.59,0.578 -0.09,0 -0.11,0 -0.14,0 0.25,0.719 0.86,1.125 1.5,1.125 1.01,0 1.5,-0.891 1.5,-1.813 0,-0.89 -0.56,-1.781 -1.17,-2.468 l -2.14,-2.391 c -0.13,-0.109 -0.13,-0.141 -0.13,-0.4061 h 4.14 L 279,11.734 h -0.28 c -0.06,-0.328 -0.14,-0.828 -0.25,-0.984 -0.08,-0.094 -0.81,-0.094 -1.06,-0.094 z"
   id="path71"
   inkscape:connector-curvature="0"
   style="fill:#000000;stroke-width:0" />
<path
   d="m 289.95,15.859 h 4.39 c 0.22,0 0.5,0 0.5,0.282 0,0.312 -0.27,0.312 -0.5,0.312 h -4.39 v 4.375 c 0,0.234 0,0.516 -0.28,0.516 -0.31,0 -0.31,-0.266 -0.31,-0.516 v -4.375 h -4.4 c -0.21,0 -0.5,0 -0.5,-0.297 0,-0.297 0.27,-0.297 0.5,-0.297 h 4.4 v -4.39 c 0,-0.219 0,-0.5 0.29,-0.5 0.3,0 0.3,0.265 0.3,0.5 z"
   id="path73"
   inkscape:connector-curvature="0"
   style="fill:#000000;stroke-width:0" />
<path
   d="m 305.02,22.531 0,0.015 0,0.014 0,0.014 0,0.013 0,0.026 0,0.025 0,0.023 -0.01,0.022 0,0.021 0,0.02 0,0.019 0,0.017 0,0.017 -0.01,0.015 0,0.015 0,0.013 -0.01,0.012 0,0.012 -0.01,0.01 0,0.01 -0.01,0.009 -0.01,0.008 -0.01,0.007 -0.01,0.006 -0.01,0.006 -0.01,0.005 -0.01,0.004 -0.01,0.004 -0.02,0.003 -0.01,0.002 -0.02,0.002 -0.01,10e-4 -0.02,0.001 -0.01,0 -0.01,0 c -0.13,0 -0.18,0 -0.3,-0.203 l -4.8,-7.422 h 0.41 l 3.86,6 v -6 h -3.86 -0.41 v -0.453 h 4.19 v -1.453 c 0,-0.579 -0.03,-0.75 -1.19,-0.75 h -0.32 v -0.453 c 0.37,0.031 1.62,0.031 2.07,0.031 0.44,0 1.71,0 2.08,-0.031 v 0.453 h -0.31 c -1.16,0 -1.2,0.171 -1.2,0.75 v 1.453 h 1.6 v 0.453 h -1.6 z"
   id="path75"
   inkscape:connector-curvature="0"
   style="fill:#000000;stroke-width:0" />
<path
   d="m 311.28,10.406 -0.08,-0.113 -0.09,-0.111 -0.09,-0.107 -0.1,-0.1041 -0.05,-0.0502 -0.05,-0.049 L 310.77,9.8239 310.71,9.7775 310.66,9.7326 310.6,9.6892 310.55,9.6475 310.49,9.6074 310.43,9.5691 310.37,9.5327 310.31,9.4983 310.25,9.4658 310.19,9.4355 310.13,9.4074 310.06,9.3816 310,9.3582 309.93,9.3371 309.87,9.3187 309.8,9.3028 309.73,9.2896 309.66,9.2793 309.59,9.2717 309.52,9.2672 309.45,9.2656 c -0.2,0 -0.95,0.0313 -1.2,0.7654 0.05,-0.015 0.13,-0.015 0.16,-0.015 0.48,0 0.79,0.406 0.79,0.765 0,0.375 -0.29,0.5 -0.53,0.5 -0.26,0 -0.81,-0.187 -0.81,-0.969 0,-0.812 0.69,-1.3745 1.59,-1.3745 1.58,0 3.19,1.4685 3.63,3.2345 l 1.56,6.203 c 0.02,0.078 0.05,0.172 0.05,0.266 0,0.234 -0.19,0.39 -0.42,0.39 -0.15,0 -0.49,-0.062 -0.61,-0.531 l -1.18,-4.672 c -0.07,-0.297 -0.07,-0.328 -0.2,-0.5 -0.33,-0.437 -0.84,-0.984 -1.61,-0.984 -0.89,0 -0.97,0.875 -0.97,1.312 0,0.906 0.42,2.125 0.86,3.266 0.17,0.469 0.27,0.687 0.27,1 0,0.672 -0.47,1.281 -1.25,1.281 -1.47,0 -2.06,-2.312 -2.06,-2.437 0,-0.063 0.07,-0.141 0.18,-0.141 0.14,0 0.16,0.063 0.22,0.281 0.38,1.344 0.99,1.969 1.61,1.969 0.14,0 0.41,0 0.41,-0.516 0,-0.421 -0.17,-0.875 -0.41,-1.484 -0.78,-2.078 -0.78,-2.609 -0.78,-2.984 0,-1.516 1.08,-1.86 1.87,-1.86 0.46,0 1.04,0.141 1.6,0.735 l 0.01,-0.016 c -0.25,-0.938 -0.4,-1.562 -0.95,-2.344 z"
   id="path77"
   inkscape:connector-curvature="0"
   style="fill:#000000;stroke-width:0" />
<path
   d="m 315.69,10.453 -0.01,-0.016 0,-0.017 0,-0.017 -0.01,-0.018 0,-0.035 -0.01,-0.036 -0.01,-0.037 -0.01,-0.036 -0.01,-0.036 -0.01,-0.035 0,-0.017 -0.01,-0.017 0,-0.016 -0.01,-0.016 0,-0.015 0,-0.015 -0.01,-0.014 0,-0.013 0,-0.013 0,-0.012 -0.01,-0.011 0,-0.011 0,-0.009 0,-0.0084 0,-0.0075 0,-0.0063 c 0,-0.1876 0.15,-0.2969 0.33,-0.2969 0.14,0 0.34,0.0937 0.42,0.3125 0,0.0316 0.14,0.5466 0.2,0.8276 l 0.25,1 c 0.06,0.25 0.13,0.5 0.19,0.75 0.05,0.188 0.14,0.516 0.14,0.563 0.17,0.344 0.77,1.359 1.83,1.359 0.5,0 0.59,-0.422 0.59,-0.781 0,-0.687 -0.55,-2.125 -0.72,-2.594 -0.11,-0.265 -0.11,-0.39 -0.11,-0.515 0,-0.532 0.39,-0.9221 0.91,-0.9221 1.05,0 1.47,1.6251 1.47,1.7191 0,0.109 -0.11,0.109 -0.14,0.109 -0.11,0 -0.11,-0.031 -0.17,-0.203 -0.22,-0.75 -0.58,-1.3751 -1.13,-1.3751 -0.2,0 -0.28,0.1091 -0.28,0.3591 0,0.281 0.11,0.547 0.2,0.797 0.22,0.594 0.69,1.813 0.69,2.453 0,0.75 -0.48,1.203 -1.28,1.203 -1.02,0 -1.55,-0.718 -1.75,-0.984 -0.05,0.625 -0.5,0.984 -1.02,0.984 -0.51,0 -0.73,-0.437 -0.84,-0.64 -0.17,-0.375 -0.33,-1.047 -0.33,-1.078 0,-0.125 0.11,-0.125 0.13,-0.125 0.11,0 0.12,0.015 0.18,0.265 0.21,0.797 0.43,1.328 0.83,1.328 0.22,0 0.35,-0.14 0.35,-0.515 0,-0.235 -0.04,-0.36 -0.19,-0.938 z"
   id="path79"
   inkscape:connector-curvature="0"
   style="fill:#000000;stroke-width:0" />
<path
   d="m 328.76,12.359 0.03,0 0.04,10e-4 0.03,0.001 0.02,10e-4 0.02,10e-4 0.01,0.002 0.02,0.002 0.02,0.002 0.01,0.003 0.02,0.003 0.01,0.004 0.02,0.005 0.01,0.005 0.02,0.006 0.01,0.006 0.01,0.007 0.01,0.009 0.01,0.009 0.02,0.01 0,0.01 0.01,0.012 0.01,0.007 0,0.006 0,0.007 0.01,0.007 0,0.008 0,0.007 0.01,0.008 0,0.008 0,0.009 0,0.009 0,0.009 0.01,0.01 0,0.009 0,0.011 0,0.01 0,0.011 c 0,0.218 -0.2,0.218 -0.39,0.218 h -6.05 c -0.19,0 -0.39,0 -0.39,-0.218 0,-0.235 0.2,-0.235 0.39,-0.235 z"
   id="path81"
   inkscape:connector-curvature="0"
   style="fill:#000000;stroke-width:0" />
<path
   d="m 333.36,16.938 0,0.012 0,0.012 0,0.011 0,0.012 0,0.011 0,0.01 0,0.011 0,0.01 0,0.009 0,0.01 0,0.009 0,0.009 0,0.016 -0.01,0.016 0,0.015 0,0.013 0,0.013 0,0.011 -0.01,0.011 0,0.01 -0.01,0.008 0,0.009 -0.01,0.007 -0.01,0.006 -0.01,0.006 -0.01,0.005 -0.01,0.005 0,0.002 -0.01,0.002 0,0.002 -0.01,0.001 -0.01,0.002 0,0.001 -0.01,0.002 -0.01,0.001 -0.01,10e-4 0,0.001 -0.01,0.001 -0.01,0 -0.01,10e-4 -0.01,0.001 -0.01,0 -0.01,0 -0.01,0.001 -0.01,0 -0.01,0 -0.01,0 -0.01,0 -0.02,0 c -0.68,-0.718 -1.67,-0.718 -2.01,-0.718 v -0.344 c 0.22,0 0.87,0 1.45,0.281 v -5.781 c 0,-0.391 -0.03,-0.531 -1.03,-0.531 h -0.36 V 9.7969 c 0.39,0.0312 1.36,0.0312 1.8,0.0312 0.45,0 1.42,0 1.81,-0.0312 v 0.3441 h -0.36 c -1,0 -1.03,0.125 -1.03,0.531 z"
   id="path83"
   inkscape:connector-curvature="0"
   style="fill:#000000;stroke-width:0" />
<path
   d="m 346.04,15.859 h 4.39 c 0.22,0 0.5,0 0.5,0.282 0,0.312 -0.26,0.312 -0.5,0.312 h -4.39 v 4.375 c 0,0.234 0,0.516 -0.28,0.516 -0.31,0 -0.31,-0.266 -0.31,-0.516 v -4.375 h -4.39 c -0.22,0 -0.5,0 -0.5,-0.297 0,-0.297 0.26,-0.297 0.5,-0.297 h 4.39 v -4.39 c 0,-0.219 0,-0.5 0.3,-0.5 0.29,0 0.29,0.265 0.29,0.5 z"
   id="path85"
   inkscape:connector-curvature="0"
   style="fill:#000000;stroke-width:0" />
<path
   d="M 359.57,10.406 359.48,10.293 359.39,10.182 359.3,10.075 359.2,9.9709 359.15,9.9207 359.1,9.8717 359.05,9.8239 359,9.7775 358.94,9.7326 358.89,9.6892 358.83,9.6475 358.78,9.6074 358.72,9.5691 358.66,9.5327 358.6,9.4983 358.54,9.4658 358.48,9.4355 358.41,9.4074 358.35,9.3816 358.29,9.3582 358.22,9.3371 358.15,9.3187 358.09,9.3028 358.02,9.2896 357.95,9.2793 357.88,9.2717 357.81,9.2672 357.74,9.2656 c -0.2,0 -0.95,0.0313 -1.2,0.7654 0.04,-0.015 0.12,-0.015 0.15,-0.015 0.49,0 0.8,0.406 0.8,0.765 0,0.375 -0.3,0.5 -0.53,0.5 -0.27,0 -0.82,-0.187 -0.82,-0.969 0,-0.812 0.69,-1.3745 1.6,-1.3745 1.58,0 3.19,1.4685 3.62,3.2345 l 1.57,6.203 c 0.01,0.078 0.04,0.172 0.04,0.266 0,0.234 -0.18,0.39 -0.42,0.39 -0.14,0 -0.48,-0.062 -0.61,-0.531 l -1.17,-4.672 c -0.08,-0.297 -0.08,-0.328 -0.2,-0.5 -0.33,-0.437 -0.85,-0.984 -1.61,-0.984 -0.89,0 -0.97,0.875 -0.97,1.312 0,0.906 0.42,2.125 0.86,3.266 0.17,0.469 0.26,0.687 0.26,1 0,0.672 -0.47,1.281 -1.25,1.281 -1.47,0 -2.06,-2.312 -2.06,-2.437 0,-0.063 0.08,-0.141 0.19,-0.141 0.14,0 0.15,0.063 0.22,0.281 0.37,1.344 0.98,1.969 1.61,1.969 0.14,0 0.4,0 0.4,-0.516 0,-0.421 -0.17,-0.875 -0.4,-1.484 -0.78,-2.078 -0.78,-2.609 -0.78,-2.984 0,-1.516 1.07,-1.86 1.87,-1.86 0.45,0 1.03,0.141 1.59,0.735 l 0.02,-0.016 c -0.25,-0.938 -0.41,-1.562 -0.95,-2.344 z"
   id="path87"
   inkscape:connector-curvature="0"
   style="fill:#000000;stroke-width:0" />
<path
   d="m 363.97,10.453 0,-0.016 0,-0.017 -0.01,-0.017 0,-0.018 -0.01,-0.035 -0.01,-0.036 -0.01,-0.037 -0.01,-0.036 -0.01,-0.036 0,-0.035 -0.01,-0.017 0,-0.017 -0.01,-0.016 0,-0.016 0,-0.015 -0.01,-0.015 0,-0.014 0,-0.013 -0.01,-0.013 0,-0.012 0,-0.011 0,-0.011 -0.01,-0.009 0,-0.0084 0,-0.0075 0,-0.0063 c 0,-0.1876 0.16,-0.2969 0.33,-0.2969 0.14,0 0.35,0.0937 0.42,0.3125 0,0.0316 0.14,0.5466 0.21,0.8276 l 0.25,1 c 0.06,0.25 0.12,0.5 0.18,0.75 0.05,0.188 0.14,0.516 0.14,0.563 0.18,0.344 0.77,1.359 1.83,1.359 0.5,0 0.6,-0.422 0.6,-0.781 0,-0.687 -0.55,-2.125 -0.72,-2.594 -0.11,-0.265 -0.11,-0.39 -0.11,-0.515 0,-0.532 0.39,-0.9221 0.9,-0.9221 1.05,0 1.47,1.6251 1.47,1.7191 0,0.109 -0.11,0.109 -0.14,0.109 -0.11,0 -0.11,-0.031 -0.17,-0.203 -0.22,-0.75 -0.58,-1.3751 -1.12,-1.3751 -0.21,0 -0.29,0.1091 -0.29,0.3591 0,0.281 0.11,0.547 0.21,0.797 0.22,0.594 0.69,1.813 0.69,2.453 0,0.75 -0.49,1.203 -1.29,1.203 -1.01,0 -1.54,-0.718 -1.75,-0.984 -0.04,0.625 -0.5,0.984 -1.01,0.984 -0.52,0 -0.74,-0.437 -0.85,-0.64 -0.17,-0.375 -0.32,-1.047 -0.32,-1.078 0,-0.125 0.11,-0.125 0.12,-0.125 0.11,0 0.13,0.015 0.19,0.265 0.2,0.797 0.42,1.328 0.83,1.328 0.22,0 0.34,-0.14 0.34,-0.515 0,-0.235 -0.03,-0.36 -0.19,-0.938 z"
   id="path89"
   inkscape:connector-curvature="0"
   style="fill:#000000;stroke-width:0" />
<polygon
   points="372.06,23.516 372.06,8.7969 370.52,8.7969 370.52,8.2188 372.66,8.2188 372.66,24.109 370.52,24.109 370.52,23.516 "
   id="polygon91"
   style="fill:#000000;stroke-width:0" />
</g></svg>
