<?xml version="1.0" encoding="UTF-8" standalone="no"?>
<svg
   xmlns:dc="http://purl.org/dc/elements/1.1/"
   xmlns:cc="http://creativecommons.org/ns#"
   xmlns:rdf="http://www.w3.org/1999/02/22-rdf-syntax-ns#"
   xmlns:svg="http://www.w3.org/2000/svg"
   xmlns="http://www.w3.org/2000/svg"
   xmlns:sodipodi="http://sodipodi.sourceforge.net/DTD/sodipodi-0.dtd"
   xmlns:inkscape="http://www.inkscape.org/namespaces/inkscape"
   version="1.1"
   id="body"
   width="82.655724"
   height="44.218468"
   viewBox="0 0 0.11479962 0.061414538"
   preserveAspectRatio="none"
   inkscape:version="0.48.3.1 r9886"
   sodipodi:docname="ch1-Z-G-5.svg">
  <metadata
     id="metadata31">
    <rdf:RDF>
      <cc:Work
         rdf:about="">
        <dc:format>image/svg+xml</dc:format>
        <dc:type
           rdf:resource="http://purl.org/dc/dcmitype/StillImage" />
      </cc:Work>
    </rdf:RDF>
  </metadata>
  <defs
     id="defs29" />
  <sodipodi:namedview
     pagecolor="#ffffff"
     bordercolor="#666666"
     borderopacity="1"
     objecttolerance="10"
     gridtolerance="10"
     guidetolerance="10"
     inkscape:pageopacity="0"
     inkscape:pageshadow="2"
     inkscape:window-width="640"
     inkscape:window-height="480"
     id="namedview27"
     showgrid="false"
     inkscape:zoom="0.32777778"
     inkscape:cx="381.32813"
     inkscape:cy="459.95432"
     inkscape:window-x="0"
     inkscape:window-y="24"
     inkscape:window-maximized="0"
     inkscape:current-layer="body" />
  <title
     id="title3">SVG drawing</title>
  <desc
     id="desc5">This was produced by version 4.4 of GNU libplot, a free library for exporting 2-D vector graphics.</desc>
  <g
     id="content"
     transform="matrix(0.0017361,0,0,-0.0017361,-0.00162759,0.06136028)"
     xml:space="preserve"
     stroke-miterlimit="10.433"
     font-style="normal"
     font-variant="normal"
     font-weight="normal"
     font-stretch="normal"
     font-size-adjust="none"
     letter-spacing="normal"
     word-spacing="normal"
     style="font-style:normal;font-variant:normal;font-weight:normal;font-stretch:normal;letter-spacing:normal;word-spacing:normal;text-anchor:start;fill:none;stroke:#000000;stroke-linecap:butt;stroke-linejoin:miter;stroke-miterlimit:10.43299961;stroke-opacity:1;stroke-dasharray:none;stroke-dashoffset:0">
<path
   d="M 8.4609,28.551 8.4149,28.541 8.3706,28.53 8.3281,28.517 8.2872,28.503 8.248,28.488 8.2104,28.471 8.1745,28.452 8.1401,28.433 8.1074,28.413 8.0763,28.391 8.0467,28.368 8.0187,28.345 7.9923,28.32 7.9673,28.295 7.9439,28.269 7.9219,28.242 7.9014,28.215 7.8823,28.187 7.8647,28.158 7.8484,28.129 7.8336,28.1 7.8202,28.07 7.8081,28.04 7.7974,28.01 7.788,27.98 7.7799,27.95 7.773,27.919 7.7675,27.889 7.7632,27.859 7.7602,27.829 7.7584,27.799 7.7578,27.77 c 0,-0.375 0.3125,-0.5 0.5313,-0.5 0.4687,0 0.8125,0.406 0.8125,0.843 0,0.657 -0.7657,0.969 -1.4375,0.969 -0.9688,0 -1.5,-0.953 -1.6407,-1.266 -0.375,1.204 -1.3593,1.266 -1.6406,1.266 -1.625,0 -2.4844,-2.094 -2.4844,-2.437 0,-0.063 0.0625,-0.141 0.1719,-0.141 0.125,0 0.1563,0.094 0.1875,0.156 0.5469,1.766 1.6094,2.094 2.0781,2.094 0.7032,0 0.8594,-0.656 0.8594,-1.047 0,-0.344 -0.0937,-0.719 -0.2969,-1.469 L 4.3672,24.051 c -0.25,-0.953 -0.7031,-1.828 -1.5469,-1.828 -0.0781,0 -0.4687,0 -0.8125,0.203 0.5781,0.125 0.7031,0.594 0.7031,0.781 0,0.328 -0.2343,0.516 -0.5468,0.516 -0.375,0 -0.7969,-0.344 -0.7969,-0.844 0,-0.672 0.75,-0.969 1.4375,-0.969 0.7656,0 1.2969,0.594 1.6406,1.25 0.25,-0.937 1.0469,-1.25 1.6406,-1.25 1.6094,0 2.4688,2.078 2.4688,2.422 0,0.094 -0.0625,0.156 -0.1563,0.156 -0.1406,0 -0.1562,-0.078 -0.2031,-0.218 -0.4375,-1.391 -1.3594,-2.047 -2.0625,-2.047 -0.5625,0 -0.8594,0.422 -0.8594,1.062 0,0.36 0.0625,0.61 0.3125,1.656 l 0.5625,2.157 c 0.2344,0.953 0.7657,1.656 1.5,1.656 0.0313,0 0.4844,0 0.8125,-0.203 z"
   id="path9"
   inkscape:connector-curvature="0"
   style="fill:#000000;stroke-width:0" />
<path
   d="m 16.605,33.395 0.001,0 0,0.002 0,0.001 10e-4,0.002 0,0.002 0.001,0.003 0.001,0.002 10e-4,0.003 0.001,0.004 10e-4,0.003 0.001,0.004 0.001,0.004 0.002,0.004 0.001,0.005 0.003,0.009 0.004,0.01 0.003,0.011 0.004,0.011 0.004,0.012 0.004,0.012 0.005,0.013 0.008,0.025 0.009,0.026 0.004,0.012 0.005,0.013 0.004,0.012 0.003,0.012 0.004,0.011 0.004,0.011 0.003,0.01 0.003,0.01 0.001,0.004 0.001,0.004 10e-4,0.005 0.001,0.003 0.001,0.004 10e-4,0.003 0.001,0.003 0,0.003 0.001,0.003 0,0.002 0,0.002 0,0.001 c 0,0.188 -0.156,0.297 -0.281,0.297 -0.078,0 -0.219,0 -0.344,-0.343 L 10.746,18.676 c 0,-0.016 -0.094,-0.25 -0.094,-0.281 0,-0.188 0.157,-0.297 0.282,-0.297 0.093,0 0.234,0.015 0.359,0.343 z"
   id="path11"
   inkscape:connector-curvature="0"
   style="fill:#000000;stroke-width:0" />
<path
   d="m 21.785,20.285 -0.084,-0.113 -0.089,-0.111 -0.092,-0.107 -0.097,-0.104 -0.05,-0.05 -0.051,-0.049 -0.053,-0.048 -0.053,-0.047 -0.054,-0.044 -0.055,-0.044 -0.056,-0.042 -0.057,-0.04 -0.058,-0.038 -0.059,-0.036 -0.06,-0.035 -0.06,-0.032 -0.062,-0.031 -0.063,-0.028 -0.063,-0.026 -0.065,-0.023 -0.065,-0.021 -0.066,-0.018 -0.068,-0.016 -0.068,-0.013 -0.068,-0.011 -0.07,-0.007 -0.071,-0.005 -0.071,-0.001 c -0.203,0 -0.953,0.031 -1.203,0.765 0.047,-0.015 0.125,-0.015 0.156,-0.015 0.485,0 0.797,0.406 0.797,0.765 0,0.375 -0.297,0.5 -0.531,0.5 -0.266,0 -0.813,-0.187 -0.813,-0.969 0,-0.812 0.688,-1.375 1.594,-1.375 1.578,0 3.188,1.469 3.625,3.235 l 1.563,6.203 c 0.015,0.078 0.046,0.172 0.046,0.266 0,0.234 -0.187,0.39 -0.421,0.39 -0.141,0 -0.485,-0.062 -0.61,-0.531 l -1.172,-4.672 c -0.078,-0.297 -0.078,-0.328 -0.203,-0.5 -0.328,-0.437 -0.844,-0.984 -1.609,-0.984 -0.891,0 -0.969,0.875 -0.969,1.312 0,0.906 0.422,2.125 0.859,3.266 0.172,0.469 0.266,0.687 0.266,1 0,0.672 -0.469,1.281 -1.25,1.281 -1.469,0 -2.062,-2.312 -2.062,-2.437 0,-0.063 0.078,-0.141 0.187,-0.141 0.141,0 0.156,0.062 0.219,0.281 0.375,1.344 0.984,1.969 1.609,1.969 0.141,0 0.406,0 0.406,-0.516 0,-0.422 -0.171,-0.875 -0.406,-1.484 -0.781,-2.078 -0.781,-2.609 -0.781,-2.984 0,-1.516 1.078,-1.86 1.875,-1.86 0.453,0 1.031,0.141 1.594,0.735 l 0.015,-0.016 c -0.25,-0.938 -0.406,-1.563 -0.953,-2.344 z"
   id="path13"
   inkscape:connector-curvature="0"
   style="fill:#000000;stroke-width:0" />
<path
   d="m 27.207,28.711 1.172,1.156 c 1.75,1.531 2.422,2.141 2.422,3.25 0,1.266 -1.016,2.172 -2.375,2.172 -1.25,0 -2.078,-1.031 -2.078,-2.031 0,-0.625 0.547,-0.625 0.593,-0.625 0.188,0 0.579,0.14 0.579,0.594 0,0.296 -0.204,0.578 -0.594,0.578 -0.094,0 -0.11,0 -0.141,0 0.25,0.718 0.86,1.125 1.5,1.125 1.016,0 1.5,-0.891 1.5,-1.813 0,-0.89 -0.562,-1.781 -1.172,-2.469 l -2.14,-2.39 c -0.125,-0.11 -0.125,-0.141 -0.125,-0.406 h 4.14 l 0.313,1.937 H 30.52 c -0.063,-0.328 -0.141,-0.828 -0.25,-0.984 -0.079,-0.094 -0.813,-0.094 -1.063,-0.094 z"
   id="path15"
   inkscape:connector-curvature="0"
   style="fill:#000000;stroke-width:0" />
<path
   d="m 41.746,25.738 h 4.391 c 0.218,0 0.5,0 0.5,0.282 0,0.312 -0.266,0.312 -0.5,0.312 h -4.391 v 4.375 c 0,0.234 0,0.516 -0.281,0.516 -0.313,0 -0.313,-0.266 -0.313,-0.516 v -4.375 h -4.39 c -0.219,0 -0.5,0 -0.5,-0.297 0,-0.297 0.265,-0.297 0.5,-0.297 h 4.39 v -4.39 c 0,-0.219 0,-0.5 0.297,-0.5 0.297,0 0.297,0.265 0.297,0.5 z"
   id="path17"
   inkscape:connector-curvature="0"
   style="fill:#000000;stroke-width:0" />
<path
   d="m 58.082,24.738 h -0.359 c -0.047,-0.265 -0.172,-1.14 -0.328,-1.406 -0.11,-0.141 -1.016,-0.141 -1.5,-0.141 h -2.938 c 0.422,0.375 1.406,1.391 1.813,1.766 2.421,2.234 3.312,3.047 3.312,4.625 0,1.828 -1.453,3.047 -3.297,3.047 -1.844,0 -2.922,-1.563 -2.922,-2.938 0,-0.812 0.703,-0.812 0.75,-0.812 0.328,0 0.735,0.25 0.735,0.75 0,0.453 -0.297,0.75 -0.735,0.75 -0.156,0 -0.187,0 -0.234,-0.016 0.312,1.078 1.172,1.813 2.203,1.813 1.344,0 2.172,-1.125 2.172,-2.594 0,-1.344 -0.781,-2.531 -1.688,-3.547 l -3.203,-3.594 v -0.375 h 5.797 z"
   id="path19"
   inkscape:connector-curvature="0"
   style="fill:#000000;stroke-width:0" />
<path
   d="M 63.078,20.285 62.994,20.172 62.905,20.061 62.813,19.954 62.716,19.85 62.666,19.8 62.614,19.751 62.562,19.703 62.509,19.656 62.455,19.612 62.4,19.568 62.344,19.526 62.287,19.486 62.229,19.448 62.17,19.412 62.11,19.377 62.05,19.345 61.988,19.314 61.925,19.286 61.862,19.26 61.797,19.237 61.732,19.216 61.666,19.198 61.598,19.182 61.53,19.169 61.462,19.158 61.392,19.151 61.321,19.146 61.25,19.145 c -0.203,0 -0.953,0.031 -1.203,0.765 0.047,-0.015 0.125,-0.015 0.156,-0.015 0.485,0 0.797,0.406 0.797,0.765 0,0.375 -0.297,0.5 -0.531,0.5 -0.266,0 -0.813,-0.187 -0.813,-0.969 0,-0.812 0.688,-1.375 1.594,-1.375 1.578,0 3.188,1.469 3.625,3.235 l 1.563,6.203 c 0.015,0.078 0.046,0.172 0.046,0.266 0,0.234 -0.187,0.39 -0.422,0.39 -0.14,0 -0.484,-0.062 -0.609,-0.531 l -1.172,-4.672 c -0.078,-0.297 -0.078,-0.328 -0.203,-0.5 -0.328,-0.437 -0.844,-0.984 -1.609,-0.984 -0.891,0 -0.969,0.875 -0.969,1.312 0,0.906 0.422,2.125 0.859,3.266 0.172,0.469 0.266,0.687 0.266,1 0,0.672 -0.469,1.281 -1.25,1.281 -1.469,0 -2.063,-2.312 -2.063,-2.437 0,-0.063 0.079,-0.141 0.188,-0.141 0.141,0 0.156,0.062 0.219,0.281 0.375,1.344 0.984,1.969 1.609,1.969 0.141,0 0.406,0 0.406,-0.516 0,-0.422 -0.172,-0.875 -0.406,-1.484 -0.781,-2.078 -0.781,-2.609 -0.781,-2.984 0,-1.516 1.078,-1.86 1.875,-1.86 0.453,0 1.031,0.141 1.594,0.735 l 0.015,-0.016 c -0.25,-0.938 -0.406,-1.563 -0.953,-2.344 z"
   id="path21"
   inkscape:connector-curvature="0"
   style="fill:#000000;stroke-width:0" />
<line
   x1="0.92969"
   y1="15.266"
   x2="67.07"
   y2="15.266"
   id="line23"
   style="stroke-width:0.63800001" />
<path
   d="m 33.02,6.0508 -0.013,-8e-4 -0.012,-7e-4 -0.012,-7e-4 -0.011,-8e-4 -0.011,-7e-4 -0.011,-8e-4 -0.011,-8e-4 -0.01,-8e-4 L 32.909,6.043 32.891,6.0412 32.873,6.0392 32.856,6.0371 32.84,6.0348 32.826,6.0323 32.812,6.0296 32.799,6.0266 32.787,6.0234 32.776,6.0198 32.765,6.0159 32.756,6.0117 32.747,6.0071 32.739,6.0022 32.732,5.9968 32.725,5.991 32.719,5.9847 32.714,5.9779 32.709,5.9707 32.705,5.9629 32.702,5.9546 32.699,5.9457 32.697,5.9361 32.695,5.926 32.693,5.9153 32.692,5.9038 l 0,-0.0121 -10e-4,-0.0128 c 0,-0.1562 0.079,-0.1562 0.36,-0.1562 h 0.734 c 1.344,0 1.953,-1.1094 1.953,-2.6407 0,-2.0781 -1.078,-2.64059 -1.859,-2.64059 -0.766,0 -2.063,0.35937 -2.531,1.42189 0.515,-0.0781 0.968,0.2031 0.968,0.7656 0,0.4688 -0.328,0.7813 -0.765,0.7813 -0.391,0 -0.797,-0.2188 -0.797,-0.8282 0,-1.4062 1.406,-2.562469 3.172,-2.562469 1.89,0 3.297,1.437469 3.297,3.046869 0,1.4688 -1.188,2.6094 -2.703,2.875 1.375,0.3906 2.265,1.5625 2.265,2.7969 0,1.25 -1.297,2.1717 -2.844,2.1717 -1.593,0 -2.765,-0.9686 -2.765,-2.1248 0,-0.6407 0.5,-0.7657 0.734,-0.7657 0.328,0 0.719,0.25 0.719,0.7188 0,0.5156 -0.391,0.7344 -0.734,0.7344 -0.094,0 -0.125,0 -0.172,-0.0157 0.593,1.078 2.093,1.078 2.172,1.078 0.531,0 1.562,-0.234 1.562,-1.7967 0,-0.2969 -0.047,-1.1875 -0.516,-1.875 -0.468,-0.7031 -1.015,-0.75 -1.437,-0.7656 z"
   id="path25"
   inkscape:connector-curvature="0"
   style="fill:#000000;stroke-width:0" />
</g></svg>
