<?xml version="1.0" encoding="UTF-8" standalone="no"?>
<svg
   xmlns:dc="http://purl.org/dc/elements/1.1/"
   xmlns:cc="http://creativecommons.org/ns#"
   xmlns:rdf="http://www.w3.org/1999/02/22-rdf-syntax-ns#"
   xmlns:svg="http://www.w3.org/2000/svg"
   xmlns="http://www.w3.org/2000/svg"
   xmlns:sodipodi="http://sodipodi.sourceforge.net/DTD/sodipodi-0.dtd"
   xmlns:inkscape="http://www.inkscape.org/namespaces/inkscape"
   version="1.1"
   id="body"
   width="127.42106"
   height="104.3001"
   viewBox="0 0 0.17697369 0.14486125"
   preserveAspectRatio="none"
   inkscape:version="0.48.3.1 r9886"
   sodipodi:docname="ch1-Z-G-35.svg">
  <metadata
     id="metadata49">
    <rdf:RDF>
      <cc:Work
         rdf:about="">
        <dc:format>image/svg+xml</dc:format>
        <dc:type
           rdf:resource="http://purl.org/dc/dcmitype/StillImage" />
      </cc:Work>
    </rdf:RDF>
  </metadata>
  <defs
     id="defs47" />
  <sodipodi:namedview
     pagecolor="#ffffff"
     bordercolor="#666666"
     borderopacity="1"
     objecttolerance="10"
     gridtolerance="10"
     guidetolerance="10"
     inkscape:pageopacity="0"
     inkscape:pageshadow="2"
     inkscape:window-width="640"
     inkscape:window-height="480"
     id="namedview45"
     showgrid="false"
     inkscape:zoom="0.32777778"
     inkscape:cx="381.71875"
     inkscape:cy="459.75901"
     inkscape:window-x="0"
     inkscape:window-y="24"
     inkscape:window-maximized="0"
     inkscape:current-layer="body" />
  <title
     id="title3">SVG drawing</title>
  <desc
     id="desc5">This was produced by version 4.4 of GNU libplot, a free library for exporting 2-D vector graphics.</desc>
  <g
     id="content"
     transform="matrix(0.0017361,0,0,-0.0017361,-0.00108506,0.14507826)"
     xml:space="preserve"
     stroke-miterlimit="10.433"
     font-style="normal"
     font-variant="normal"
     font-weight="normal"
     font-stretch="normal"
     font-size-adjust="none"
     letter-spacing="normal"
     word-spacing="normal"
     style="font-style:normal;font-variant:normal;font-weight:normal;font-stretch:normal;letter-spacing:normal;word-spacing:normal;text-anchor:start;fill:none;stroke:#000000;stroke-linecap:butt;stroke-linejoin:miter;stroke-miterlimit:10.43299961;stroke-opacity:1;stroke-dasharray:none;stroke-dashoffset:0">
<path
   d="m 54.074,81.84 0.017,0.064 0.017,0.062 0.017,0.061 0.019,0.06 0.02,0.058 0.021,0.057 0.023,0.055 0.024,0.054 0.026,0.052 0.027,0.051 0.03,0.049 0.033,0.047 0.034,0.046 0.037,0.044 0.04,0.042 0.043,0.04 0.046,0.038 0.049,0.036 0.052,0.035 0.056,0.032 0.06,0.03 0.064,0.029 0.068,0.026 0.071,0.024 0.077,0.022 0.081,0.019 0.085,0.018 0.09,0.015 0.096,0.013 0.1,0.01 0.106,0.008 0.055,0.003 0.057,0.003 c 0.047,0 0.234,0.016 0.234,0.297 0,0.172 -0.14,0.172 -0.203,0.172 -0.328,0 -1.141,-0.032 -1.453,-0.032 h -0.766 c -0.218,0 -0.5,0.032 -0.734,0.032 -0.094,0 -0.281,0 -0.281,-0.313 0,-0.156 0.125,-0.156 0.234,-0.156 0.953,-0.031 1.016,-0.391 1.016,-0.672 0,-0.156 -0.016,-0.203 -0.063,-0.422 l -1.797,-7.172 -3.39,8.453 c -0.11,0.266 -0.125,0.282 -0.485,0.282 H 46.09 c -0.313,0 -0.453,0 -0.453,-0.313 0,-0.156 0.109,-0.156 0.406,-0.156 0.078,0 1.016,0 1.016,-0.141 0,-0.031 -0.032,-0.156 -0.047,-0.203 l -2.11,-8.422 c -0.187,-0.781 -0.578,-1.109 -1.625,-1.172 -0.078,0 -0.234,-0.015 -0.234,-0.296 0,-0.157 0.156,-0.157 0.203,-0.157 0.313,0 1.125,0.032 1.453,0.032 h 0.75 c 0.235,0 0.5,-0.032 0.719,-0.032 0.109,0 0.281,0 0.281,0.297 0,0.141 -0.156,0.156 -0.219,0.156 -0.515,0.032 -1.031,0.125 -1.031,0.688 0,0.125 0.031,0.281 0.063,0.406 l 2.156,8.5 c 0.094,-0.156 0.094,-0.187 0.156,-0.328 l 3.781,-9.437 c 0.079,-0.188 0.11,-0.282 0.25,-0.282 0.157,0 0.172,0.047 0.235,0.313 z"
   id="path9"
   inkscape:connector-curvature="0"
   style="fill:#000000;stroke-width:0" />
<path
   d="m 58.09,77.402 0,0.013 0,0.012 0,0.011 0,0.011 0,0.011 0,0.011 -0.001,0.01 0,0.01 0,0.01 0,0.009 -10e-4,0.01 0,0.008 -10e-4,0.017 -0.001,0.016 -0.002,0.014 -0.002,0.014 -0.003,0.012 -0.003,0.012 -0.004,0.011 -0.004,0.009 -0.006,0.009 -0.005,0.008 -0.007,0.008 -0.007,0.006 -0.009,0.006 -0.009,0.005 -0.01,0.005 -0.006,0.002 -0.006,0.002 -0.006,0.002 -0.006,10e-4 -0.006,0.002 -0.007,0.001 -0.007,0.001 -0.008,0.002 -0.008,0.001 -0.008,10e-4 -0.008,0 -0.009,0.001 -0.009,0.001 -0.009,0 -0.01,10e-4 -0.01,0 -0.01,0.001 -0.011,0 -0.011,0 -0.012,0 -0.012,0 -0.012,0 C 57.137,76.98 56.152,76.98 55.809,76.98 v -0.343 c 0.218,0 0.875,0 1.453,0.281 v -5.781 c 0,-0.391 -0.032,-0.532 -1.032,-0.532 h -0.359 v -0.343 c 0.391,0.031 1.359,0.031 1.797,0.031 0.453,0 1.422,0 1.812,-0.031 v 0.343 h -0.359 c -1,0 -1.031,0.125 -1.031,0.532 z"
   id="path11"
   inkscape:connector-curvature="0"
   style="fill:#000000;stroke-width:0" />
<line
   x1="0.63281"
   y1="64.68"
   x2="102.56"
   y2="64.68"
   id="line13"
   style="stroke-width:0.63800001" />
<path
   d="M 3.1328,38.277 3.1199,38.227 3.1074,38.179 3.0952,38.133 3.0829,38.089 3.0703,38.048 3.0573,38.008 3.0436,37.97 3.0291,37.934 3.0133,37.9 2.9963,37.868 2.9777,37.838 2.9573,37.81 2.9349,37.783 2.9103,37.758 2.8832,37.735 2.8535,37.713 2.8209,37.693 2.7852,37.674 2.7462,37.657 2.7036,37.642 2.6572,37.628 2.6069,37.615 2.5802,37.609 2.5524,37.604 2.5235,37.599 2.4934,37.594 2.4622,37.59 2.4298,37.585 2.3962,37.582 2.3613,37.578 2.3252,37.575 2.2878,37.572 2.249,37.569 2.2089,37.567 2.1674,37.565 2.1245,37.563 2.0802,37.562 2.0344,37.561 1.9871,37.56 1.9382,37.559 l -0.0503,0 -0.052,0 c -0.2968,0 -0.4531,0 -0.4531,-0.282 0,-0.172 0.0938,-0.172 0.4063,-0.172 H 6.8359 L 6.5703,37.559 H 4.7578 c -0.2187,0 -0.25,0 -0.3437,0.031 -0.1719,0.015 -0.1875,0.047 -0.1875,0.172 0,0.109 0.0312,0.203 0.0625,0.343 l 2.1875,8.782 c 0.1406,0.578 0.2187,0.609 0.8281,0.609 h 1.75 c 1.5003,0 2.8593,-0.812 2.8593,-3 0,-0.797 -0.312,-3.562 -1.859,-5.312 C 9.6172,38.668 8.3984,37.559 6.5703,37.559 l 0.2656,-0.454 c 3.2031,0 6.3441,3.329 6.3441,6.86 0,2.297 -1.375,4 -3.6409,4 H 4.4297 c -0.2969,0 -0.4375,0 -0.4375,-0.313 0,-0.156 0.1406,-0.156 0.375,-0.156 0.9687,0 0.9687,-0.125 0.9687,-0.297 0,-0.031 0,-0.125 -0.0625,-0.359 z"
   id="path15"
   inkscape:connector-curvature="0"
   style="fill:#000000;stroke-width:0" />
<path
   d="m 16.875,41.855 0,0.013 0,0.012 0,0.011 0,0.012 0,0.011 0,0.01 0,0.011 -0.001,0.01 0,0.009 0,0.01 0,0.009 -10e-4,0.009 -0.001,0.016 -0.001,0.016 -0.002,0.014 -0.002,0.014 -0.003,0.013 -0.003,0.011 -0.004,0.011 -0.004,0.01 -0.005,0.008 -0.006,0.009 -0.007,0.007 -0.007,0.006 -0.009,0.006 -0.009,0.005 -0.01,0.005 -0.006,0.002 -0.005,0.002 -0.006,0.002 -0.007,10e-4 -0.006,0.002 -0.007,10e-4 -0.007,0.002 -0.008,10e-4 -0.007,10e-4 -0.008,0.001 -0.009,10e-4 -0.009,0 -0.009,10e-4 -0.009,0 -0.01,0.001 -0.01,0 -0.01,10e-4 -0.011,0 -0.011,0 -0.011,0 -0.012,0 -0.013,0 C 15.922,41.434 14.938,41.434 14.594,41.434 V 41.09 c 0.218,0 0.875,0 1.453,0.281 V 35.59 c 0,-0.391 -0.031,-0.531 -1.031,-0.531 h -0.36 v -0.344 c 0.391,0.031 1.36,0.031 1.797,0.031 0.453,0 1.422,0 1.813,-0.031 v 0.344 h -0.36 c -1,0 -1.031,0.125 -1.031,0.531 z"
   id="path17"
   inkscape:connector-curvature="0"
   style="fill:#000000;stroke-width:0" />
<path
   d="m 29.559,40.777 h 4.39 c 0.219,0 0.5,0 0.5,0.282 0,0.312 -0.265,0.312 -0.5,0.312 h -4.39 v 4.375 c 0,0.234 0,0.516 -0.282,0.516 -0.312,0 -0.312,-0.266 -0.312,-0.516 v -4.375 h -4.391 c -0.219,0 -0.5,0 -0.5,-0.297 0,-0.297 0.266,-0.297 0.5,-0.297 h 4.391 v -4.39 c 0,-0.219 0,-0.5 0.297,-0.5 0.297,0 0.297,0.265 0.297,0.5 z"
   id="path19"
   inkscape:connector-curvature="0"
   style="fill:#000000;stroke-width:0" />
<path
   d="m 73.805,58.246 0.016,0.064 0.017,0.062 0.018,0.062 0.019,0.059 0.019,0.059 0.022,0.056 0.022,0.056 0.024,0.054 0.026,0.052 0.028,0.05 0.03,0.049 0.032,0.048 0.035,0.045 0.037,0.044 0.04,0.042 0.042,0.04 0.046,0.038 0.049,0.036 0.053,0.035 0.056,0.032 0.06,0.031 0.063,0.028 0.068,0.026 0.072,0.024 0.076,0.022 0.081,0.02 0.086,0.017 0.09,0.015 0.095,0.013 0.101,0.011 0.106,0.008 0.055,0.003 0.056,0.002 c 0.047,0 0.235,0.016 0.235,0.297 0,0.172 -0.141,0.172 -0.203,0.172 -0.329,0 -1.141,-0.031 -1.454,-0.031 h -0.765 c -0.219,0 -0.5,0.031 -0.735,0.031 -0.093,0 -0.281,0 -0.281,-0.313 0,-0.156 0.125,-0.156 0.235,-0.156 0.953,-0.031 1.015,-0.39 1.015,-0.672 0,-0.156 -0.015,-0.203 -0.062,-0.422 l -1.797,-7.171 -3.391,8.453 c -0.109,0.265 -0.125,0.281 -0.484,0.281 H 65.82 c -0.312,0 -0.453,0 -0.453,-0.313 0,-0.156 0.11,-0.156 0.406,-0.156 0.079,0 1.016,0 1.016,-0.14 0,-0.032 -0.031,-0.157 -0.047,-0.204 l -2.109,-8.421 c -0.188,-0.782 -0.578,-1.11 -1.625,-1.172 -0.078,0 -0.235,-0.016 -0.235,-0.297 0,-0.156 0.157,-0.156 0.204,-0.156 0.312,0 1.125,0.031 1.453,0.031 h 0.75 c 0.234,0 0.5,-0.031 0.718,-0.031 0.11,0 0.282,0 0.282,0.296 0,0.141 -0.157,0.157 -0.219,0.157 -0.516,0.031 -1.031,0.125 -1.031,0.687 0,0.125 0.031,0.281 0.062,0.406 l 2.156,8.5 c 0.094,-0.156 0.094,-0.187 0.157,-0.328 l 3.781,-9.437 c 0.078,-0.188 0.109,-0.281 0.25,-0.281 0.156,0 0.172,0.046 0.234,0.312 z"
   id="path21"
   inkscape:connector-curvature="0"
   style="fill:#000000;stroke-width:0" />
<path
   d="m 75.957,47.527 1.172,1.157 c 1.75,1.531 2.422,2.14 2.422,3.25 0,1.265 -1.016,2.171 -2.375,2.171 -1.25,0 -2.078,-1.031 -2.078,-2.031 0,-0.625 0.547,-0.625 0.593,-0.625 0.188,0 0.579,0.141 0.579,0.594 0,0.297 -0.204,0.578 -0.594,0.578 -0.094,0 -0.11,0 -0.141,0 0.25,0.719 0.86,1.125 1.5,1.125 1.016,0 1.5,-0.891 1.5,-1.812 0,-0.891 -0.562,-1.782 -1.172,-2.469 l -2.14,-2.391 c -0.125,-0.109 -0.125,-0.14 -0.125,-0.406 h 4.14 l 0.313,1.937 H 79.27 c -0.063,-0.328 -0.141,-0.828 -0.25,-0.984 -0.079,-0.094 -0.813,-0.094 -1.063,-0.094 z"
   id="path23"
   inkscape:connector-curvature="0"
   style="fill:#000000;stroke-width:0" />
<line
   x1="40.09"
   y1="41.09"
   x2="102.56"
   y2="41.09"
   id="line25"
   style="stroke-width:0.63800001" />
<path
   d="m 43.898,21.27 -0.001,0.039 -0.003,0.039 -0.005,0.038 -0.007,0.038 -0.009,0.037 -0.01,0.036 -0.013,0.035 -0.014,0.035 -0.016,0.034 -0.017,0.033 -0.019,0.032 -0.021,0.031 -0.022,0.03 -0.023,0.029 -0.024,0.028 -0.026,0.027 -0.027,0.025 -0.028,0.024 -0.029,0.023 -0.03,0.021 -0.032,0.02 -0.032,0.019 -0.032,0.017 -0.034,0.015 -0.035,0.014 -0.035,0.012 -0.035,0.01 -0.037,0.009 -0.036,0.006 -0.038,0.005 -0.037,0.003 -0.038,0.001 c -0.453,0 -0.781,-0.375 -0.781,-0.765 0,-0.485 0.406,-0.782 0.765,-0.782 0.438,0 0.781,0.328 0.781,0.782 z"
   id="path27"
   inkscape:connector-curvature="0"
   style="fill:#000000;stroke-width:0" />
<path
   d="m 50.004,18.277 -10e-4,0.04 -0.003,0.038 -0.005,0.039 -0.007,0.037 -0.009,0.037 -0.011,0.037 -0.012,0.035 -0.015,0.035 -0.015,0.034 -0.018,0.033 -0.019,0.032 -0.02,0.031 -0.022,0.03 -0.023,0.029 -0.025,0.028 -0.026,0.026 -0.027,0.026 -0.028,0.024 -0.029,0.023 -0.03,0.021 -0.031,0.02 -0.032,0.018 -0.033,0.017 -0.034,0.016 -0.034,0.013 -0.035,0.012 -0.036,0.011 -0.036,0.008 -0.037,0.007 -0.037,0.005 -0.038,0.003 -0.038,10e-4 c -0.453,0 -0.781,-0.375 -0.781,-0.766 0,-0.484 0.406,-0.781 0.766,-0.781 0.437,0 0.781,0.328 0.781,0.781 z"
   id="path29"
   inkscape:connector-curvature="0"
   style="fill:#000000;stroke-width:0" />
<path
   d="m 56.109,15.293 -0.001,0.039 -0.003,0.039 -0.005,0.038 -0.007,0.038 -0.009,0.037 -0.01,0.036 -0.013,0.036 -0.014,0.035 -0.016,0.033 -0.017,0.033 -0.019,0.033 -0.021,0.031 -0.022,0.03 -0.023,0.029 -0.024,0.027 -0.026,0.027 -0.027,0.025 -0.028,0.024 -0.029,0.023 -0.03,0.022 -0.032,0.02 -0.032,0.018 -0.033,0.017 -0.033,0.015 -0.035,0.014 -0.035,0.012 -0.035,0.01 -0.037,0.009 -0.036,0.007 -0.038,0.005 -0.037,0.003 -0.038,0.001 c -0.453,0 -0.782,-0.375 -0.782,-0.766 0,-0.484 0.407,-0.781 0.766,-0.781 0.438,0 0.781,0.328 0.781,0.781 z"
   id="path31"
   inkscape:connector-curvature="0"
   style="fill:#000000;stroke-width:0" />
<path
   d="m 68.297,17.184 h 4.391 c 0.218,0 0.5,0 0.5,0.281 0,0.312 -0.266,0.312 -0.5,0.312 h -4.391 v 4.375 c 0,0.235 0,0.516 -0.281,0.516 -0.313,0 -0.313,-0.266 -0.313,-0.516 v -4.375 h -4.391 c -0.218,0 -0.5,0 -0.5,-0.297 0,-0.296 0.266,-0.296 0.5,-0.296 h 4.391 v -4.391 c 0,-0.219 0,-0.5 0.297,-0.5 0.297,0 0.297,0.266 0.297,0.5 z"
   id="path33"
   inkscape:connector-curvature="0"
   style="fill:#000000;stroke-width:0" />
<path
   d="m 90.824,34.656 0.017,0.064 0.017,0.063 0.017,0.061 0.019,0.059 0.02,0.059 0.021,0.057 0.023,0.055 0.024,0.054 0.026,0.052 0.027,0.051 0.03,0.048 0.033,0.048 0.034,0.045 0.037,0.044 0.04,0.042 0.043,0.04 0.046,0.038 0.049,0.037 0.052,0.034 0.056,0.032 0.06,0.031 0.064,0.028 0.068,0.026 0.071,0.024 0.077,0.022 0.081,0.02 0.085,0.017 0.09,0.015 0.096,0.013 0.1,0.011 0.106,0.008 0.055,0.003 0.057,0.002 c 0.047,0 0.234,0.016 0.234,0.297 0,0.172 -0.14,0.172 -0.203,0.172 -0.328,0 -1.141,-0.031 -1.453,-0.031 h -0.766 c -0.218,0 -0.5,0.031 -0.734,0.031 -0.094,0 -0.281,0 -0.281,-0.312 0,-0.157 0.125,-0.157 0.234,-0.157 0.953,-0.031 1.016,-0.39 1.016,-0.671 0,-0.157 -0.016,-0.204 -0.063,-0.422 l -1.797,-7.172 -3.39,8.453 c -0.11,0.265 -0.125,0.281 -0.485,0.281 H 82.84 c -0.313,0 -0.453,0 -0.453,-0.312 0,-0.157 0.109,-0.157 0.406,-0.157 0.078,0 1.016,0 1.016,-0.14 0,-0.031 -0.032,-0.157 -0.047,-0.203 l -2.11,-8.422 c -0.187,-0.782 -0.578,-1.11 -1.625,-1.172 -0.078,0 -0.234,-0.016 -0.234,-0.297 0,-0.156 0.156,-0.156 0.203,-0.156 0.313,0 1.125,0.031 1.453,0.031 h 0.75 c 0.235,0 0.5,-0.031 0.719,-0.031 0.109,0 0.281,0 0.281,0.297 0,0.14 -0.156,0.156 -0.219,0.156 -0.515,0.031 -1.031,0.125 -1.031,0.687 0,0.125 0.031,0.282 0.063,0.407 l 2.156,8.5 c 0.094,-0.157 0.094,-0.188 0.156,-0.328 l 3.781,-9.438 c 0.079,-0.188 0.11,-0.281 0.25,-0.281 0.157,0 0.172,0.047 0.235,0.312 z"
   id="path35"
   inkscape:connector-curvature="0"
   style="fill:#000000;stroke-width:0" />
<path
   d="m 97.23,27.578 0,0.005 0,0.004 -0.001,0.005 -0.001,0.005 -10e-4,0.005 -0.001,0.005 -0.001,0.006 -0.002,0.005 -0.002,0.005 -0.001,0.006 -0.004,0.011 -0.005,0.011 -0.004,0.011 -0.004,0.011 -0.002,0.005 -0.003,0.006 -0.002,0.005 -0.002,0.005 -0.001,0.005 -0.002,0.004 -0.002,0.005 -10e-4,0.004 -0.001,0.005 -10e-4,0.004 -0.001,0.003 -0.001,0.004 0,0.003 0,0.003 c 0,0.016 0.203,0.172 0.328,0.266 l 1.953,1.5 c 1.045,0.781 1.465,0.812 1.815,0.859 0.09,0 0.2,0.016 0.2,0.219 0,0.047 -0.03,0.125 -0.12,0.125 -0.25,0 -0.54,-0.031 -0.8,-0.031 -0.41,0 -0.83,0.031 -1.236,0.031 -0.078,0 -0.219,0 -0.219,-0.234 0,-0.078 0.063,-0.11 0.141,-0.11 0.25,-0.031 0.344,-0.078 0.344,-0.234 0,-0.203 -0.328,-0.469 -0.406,-0.516 l -4.344,-3.359 0.89,3.594 c 0.094,0.39 0.125,0.515 0.938,0.515 0.281,0 0.375,0 0.375,0.219 0,0.094 -0.078,0.125 -0.156,0.125 -0.313,0 -1.11,-0.031 -1.422,-0.031 -0.328,0 -1.11,0.031 -1.438,0.031 -0.078,0 -0.218,0 -0.218,-0.219 0,-0.125 0.093,-0.125 0.312,-0.125 0.156,0 0.344,-0.015 0.484,-0.031 0.172,-0.016 0.25,-0.047 0.25,-0.172 0,-0.047 -0.015,-0.078 -0.046,-0.218 l -1.5,-5.985 c -0.11,-0.437 -0.125,-0.531 -1.016,-0.531 -0.188,0 -0.313,0 -0.313,-0.203 0,-0.141 0.141,-0.141 0.172,-0.141 0.313,0 1.11,0.031 1.422,0.031 0.235,0 0.469,-0.015 0.703,-0.015 0.25,0 0.5,-0.016 0.735,-0.016 0.078,0 0.218,0 0.218,0.219 0,0.125 -0.109,0.125 -0.312,0.125 -0.422,0 -0.719,0 -0.719,0.203 0,0.078 0.063,0.328 0.094,0.484 0.156,0.594 0.297,1.172 0.437,1.766 l 1.672,1.281 1.297,-3 c 0.125,-0.297 0.125,-0.312 0.125,-0.39 0,-0.328 -0.469,-0.344 -0.578,-0.344 -0.125,0 -0.25,0 -0.25,-0.219 0,-0.125 0.141,-0.125 0.156,-0.125 0.453,0 0.922,0.031 1.375,0.031 0.235,0 0.844,-0.031 1.094,-0.031 0.047,0 0.188,0 0.188,0.219 0,0.125 -0.11,0.125 -0.219,0.125 -0.453,0.016 -0.594,0.109 -0.766,0.5 z"
   id="path37"
   inkscape:connector-curvature="0"
   style="fill:#000000;stroke-width:0" />
<line
   x1="78.828003"
   y1="17.496"
   x2="102.56"
   y2="17.496"
   id="line39"
   style="stroke-width:0.63800001" />
<path
   d="M 81.328,3.75 81.315,3.6998 81.303,3.6518 81.29,3.6059 81.278,3.5621 81.266,3.5203 81.253,3.4806 81.239,3.4428 81.224,3.407 81.209,3.373 81.192,3.341 81.173,3.3107 81.153,3.2823 81.13,3.2555 81.106,3.2305 81.079,3.2072 81.049,3.1855 81.016,3.1655 80.98,3.147 80.941,3.13 80.899,3.1145 80.853,3.1004 80.802,3.0878 80.775,3.082 80.748,3.0766 80.719,3.0714 80.689,3.0666 80.657,3.0622 80.625,3.058 80.591,3.0542 80.557,3.0507 80.52,3.0475 80.483,3.0446 80.444,3.042 80.404,3.0397 80.363,3.0377 80.32,3.0359 80.275,3.0345 80.23,3.0333 l -0.048,-9e-4 -0.049,-6e-4 -0.05,-4e-4 -0.052,-2e-4 c -0.297,0 -0.453,0 -0.453,-0.2812 0,-0.1719 0.094,-0.1719 0.406,-0.1719 h 5.047 l -0.265,0.4531 h -1.813 c -0.219,0 -0.25,0 -0.344,0.0313 -0.171,0.0156 -0.187,0.0469 -0.187,0.1719 0,0.1094 0.031,0.2031 0.062,0.3437 l 2.188,8.7809 c 0.14,0.579 0.219,0.61 0.828,0.61 h 1.75 c 1.5,0 2.859,-0.813 2.859,-3.0002 0,-0.7969 -0.312,-3.5626 -1.859,-5.3126 -0.438,-0.5156 -1.656,-1.625 -3.484,-1.625 l 0.265,-0.4531 c 3.203,0 6.344,3.3281 6.344,6.8594 0,2.2965 -1.375,4.0005 -3.641,4.0005 h -5.109 c -0.297,0 -0.437,0 -0.437,-0.313 0,-0.156 0.14,-0.156 0.374,-0.156 0.969,0 0.969,-0.125 0.969,-0.297 0,-0.031 0,-0.125 -0.062,-0.36 z"
   id="path41"
   inkscape:connector-curvature="0"
   style="fill:#000000;stroke-width:0" />
<path
   d="m 97.461,4.6875 0,0.0045 -0.001,0.0046 0,0.0048 -10e-4,0.005 -0.001,0.0051 -0.001,0.0051 -0.002,0.0053 -0.001,0.0054 -0.002,0.0054 -0.002,0.0055 -0.004,0.0111 -0.004,0.0111 -0.004,0.0111 -0.005,0.0109 -0.002,0.0053 -0.002,0.0052 -0.002,0.0052 -0.002,0.005 -0.002,0.0049 -0.002,0.0047 -0.001,0.0046 -0.002,0.0044 -0.001,0.0043 -0.001,0.004 -10e-4,0.0038 0,0.0036 -0.001,0.0033 0,0.0031 c 0,0.0156 0.203,0.1718 0.328,0.2656 l 1.953,1.5 c 1.045,0.7812 1.465,0.8125 1.815,0.8594 0.09,0 0.2,0.0156 0.2,0.2187 0,0.0469 -0.03,0.125 -0.12,0.125 -0.25,0 -0.53,-0.0313 -0.8,-0.0313 -0.41,0 -0.829,0.0313 -1.235,0.0313 -0.078,0 -0.219,0 -0.219,-0.2344 0,-0.0781 0.062,-0.1093 0.141,-0.1093 0.25,-0.0313 0.343,-0.0782 0.343,-0.2344 0,-0.2032 -0.328,-0.4688 -0.406,-0.5156 L 95.07,3.3594 95.961,6.9531 c 0.094,0.3907 0.125,0.5157 0.937,0.5157 0.282,0 0.375,0 0.375,0.2187 0,0.0937 -0.078,0.125 -0.156,0.125 -0.312,0 -1.109,-0.0313 -1.422,-0.0313 -0.328,0 -1.109,0.0313 -1.437,0.0313 -0.078,0 -0.219,0 -0.219,-0.2187 0,-0.125 0.094,-0.125 0.313,-0.125 0.156,0 0.343,-0.0157 0.484,-0.0313 0.172,-0.0156 0.25,-0.0469 0.25,-0.1719 0,-0.0468 -0.016,-0.0781 -0.047,-0.2187 l -1.5,-5.9844 C 93.43,0.625 93.414,0.53125 92.523,0.53125 c -0.187,0 -0.312,0 -0.312,-0.20313 0,-0.14062 0.141,-0.14062 0.172,-0.14062 0.312,0 1.109,0.03125 1.422,0.03125 0.234,0 0.468,-0.01563 0.703,-0.01563 0.25,0 0.5,-0.01562 0.734,-0.01562 0.078,0 0.219,0 0.219,0.21875 0,0.125 -0.109,0.125 -0.313,0.125 -0.421,0 -0.718,0 -0.718,0.20313 0,0.07812 0.062,0.32812 0.093,0.48442 0.157,0.5937 0.297,1.1718 0.438,1.7656 l 1.672,1.2812 1.297,-3 c 0.125,-0.29685 0.125,-0.31248 0.125,-0.3906 0,-0.32812 -0.469,-0.34375 -0.578,-0.34375 -0.125,0 -0.25,0 -0.25,-0.21875 0,-0.125 0.14,-0.125 0.156,-0.125 0.453,0 0.922,0.03125 1.375,0.03125 0.234,0 0.844,-0.03125 1.094,-0.03125 0.046,0 0.188,0 0.188,0.21875 0,0.125 -0.11,0.125 -0.22,0.125 -0.453,0.01563 -0.593,0.10937 -0.765,0.49995 z"
   id="path43"
   inkscape:connector-curvature="0"
   style="fill:#000000;stroke-width:0" />
</g></svg>
