<?xml version="1.0" encoding="UTF-8" standalone="no"?>
<svg
   xmlns:dc="http://purl.org/dc/elements/1.1/"
   xmlns:cc="http://creativecommons.org/ns#"
   xmlns:rdf="http://www.w3.org/1999/02/22-rdf-syntax-ns#"
   xmlns:svg="http://www.w3.org/2000/svg"
   xmlns="http://www.w3.org/2000/svg"
   xmlns:sodipodi="http://sodipodi.sourceforge.net/DTD/sodipodi-0.dtd"
   xmlns:inkscape="http://www.inkscape.org/namespaces/inkscape"
   version="1.1"
   id="body"
   width="205.54556"
   height="40.859112"
   viewBox="0 0 0.28547995 0.056748766"
   preserveAspectRatio="none"
   inkscape:version="0.48.3.1 r9886"
   sodipodi:docname="ch1-Z-G-26.svg">
  <metadata
     id="metadata57">
    <rdf:RDF>
      <cc:Work
         rdf:about="">
        <dc:format>image/svg+xml</dc:format>
        <dc:type
           rdf:resource="http://purl.org/dc/dcmitype/StillImage" />
      </cc:Work>
    </rdf:RDF>
  </metadata>
  <defs
     id="defs55" />
  <sodipodi:namedview
     pagecolor="#ffffff"
     bordercolor="#666666"
     borderopacity="1"
     objecttolerance="10"
     gridtolerance="10"
     guidetolerance="10"
     inkscape:pageopacity="0"
     inkscape:pageshadow="2"
     inkscape:window-width="640"
     inkscape:window-height="480"
     id="namedview53"
     showgrid="false"
     inkscape:zoom="0.32777778"
     inkscape:cx="381.64063"
     inkscape:cy="459.05588"
     inkscape:window-x="0"
     inkscape:window-y="24"
     inkscape:window-maximized="0"
     inkscape:current-layer="body" />
  <title
     id="title3">SVG drawing</title>
  <desc
     id="desc5">This was produced by version 4.4 of GNU libplot, a free library for exporting 2-D vector graphics.</desc>
  <g
     id="content"
     transform="matrix(0.0017361,0,0,-0.0017361,-0.00119357,0.05794234)"
     xml:space="preserve"
     stroke-miterlimit="10.433"
     font-style="normal"
     font-variant="normal"
     font-weight="normal"
     font-stretch="normal"
     font-size-adjust="none"
     letter-spacing="normal"
     word-spacing="normal"
     style="font-style:normal;font-variant:normal;font-weight:normal;font-stretch:normal;letter-spacing:normal;word-spacing:normal;text-anchor:start;fill:none;stroke:#000000;stroke-linecap:butt;stroke-linejoin:miter;stroke-miterlimit:10.43299961;stroke-opacity:1;stroke-dasharray:none;stroke-dashoffset:0">
<path
   d="m 14.922,32.957 0,0.017 0,0.016 0,0.015 0,0.015 0,0.015 0,0.014 -0.001,0.014 0,0.013 0,0.013 0,0.013 -10e-4,0.012 0,0.011 -10e-4,0.011 0,0.011 -0.001,0.01 -10e-4,0.01 -10e-4,0.01 -0.001,0.009 -10e-4,0.009 -0.002,0.008 -0.001,0.008 -0.002,0.008 -0.002,0.008 -0.002,0.007 -0.004,0.013 -0.005,0.012 -0.006,0.011 -0.007,0.009 -0.008,0.009 -0.009,0.008 -0.01,0.006 -0.01,0.006 -0.012,0.005 -0.014,0.004 -0.014,0.004 -0.008,0.002 -0.008,10e-4 -0.008,0.001 -0.009,10e-4 -0.009,10e-4 -0.01,0.001 -0.01,10e-4 -0.01,10e-4 -0.01,0 -0.011,0.001 -0.012,0 -0.012,0 -0.012,10e-4 -0.013,0 -0.013,0 -0.013,0 -0.014,0 -0.015,0 c -0.39,-0.422 -1.187,-1.016 -2.812,-1.016 v -0.453 c 0.359,0 1.156,0 2.031,0.407 v -8.282 c 0,-0.562 -0.047,-0.765 -1.453,-0.765 H 11.891 V 22.77 c 0.421,0.031 1.968,0.031 2.484,0.031 0.531,0 2.063,0 2.484,-0.031 v 0.453 h -0.484 c -1.406,0 -1.453,0.203 -1.453,0.765 z"
   id="path9"
   inkscape:connector-curvature="0"
   style="fill:#000000;stroke-width:0" />
<line
   x1="0.6875"
   y1="15.969"
   x2="27.809"
   y2="15.969"
   id="line11"
   style="stroke-width:0.63800001" />
<path
   d="m 5.2656,11.238 0,0.017 0,0.016 0,0.016 -10e-5,0.015 0,0.014 -1e-4,0.015 -2e-4,0.013 -2e-4,0.014 -2e-4,0.012 -4e-4,0.013 -4e-4,0.012 -4e-4,0.011 -6e-4,0.012 -7e-4,0.01 -7e-4,0.011 -9e-4,0.01 -9e-4,0.009 -0.0011,0.009 -0.0013,0.009 -0.0013,0.009 -0.0015,0.008 -0.0017,0.007 -0.0018,0.008 -0.002,0.007 -0.0044,0.013 -0.0052,0.012 -0.0061,0.011 -0.0068,0.01 -0.0078,0.008 -0.0088,0.008 -0.0098,0.007 -0.0109,0.005 -0.012,0.005 -0.0132,0.005 -0.0145,0.003 -0.0077,0.002 -0.0081,0.001 -0.0084,0.002 -0.0088,0.001 -0.0091,10e-4 -0.0095,0 -0.0099,10e-4 -0.0102,0.001 -0.0106,0 -0.011,10e-4 -0.0114,0 -0.0119,10e-4 -0.0122,0 -0.0127,0 -0.0131,0 -0.0135,0 -0.014,0 -0.0144,0 C 4.5625,11.191 3.7656,10.598 2.1406,10.598 v -0.454 c 0.3594,0 1.1563,0 2.0313,0.407 V 2.2695 C 4.1719,1.707 4.125,1.5039 2.7188,1.5039 H 2.2344 V 1.0508 C 2.6562,1.082 4.2031,1.082 4.7188,1.082 c 0.5312,0 2.0624,0 2.4843,-0.0312 V 1.5039 H 6.7188 c -1.4063,0 -1.4532,0.2031 -1.4532,0.7656 z"
   id="path13"
   inkscape:connector-curvature="0"
   style="fill:#000000;stroke-width:0" />
<path
   d="m 15.078,5.0195 -10e-4,0.0437 -0.003,0.0431 -0.006,0.0424 -0.007,0.0417 -0.009,0.0409 -0.012,0.0402 -0.013,0.0392 -0.015,0.0384 -0.017,0.0374 -0.018,0.0364 -0.02,0.0354 -0.022,0.0342 -0.024,0.033 -0.025,0.0319 -0.026,0.0305 -0.028,0.0293 -0.029,0.0279 -0.031,0.0264 -0.032,0.025 -0.033,0.0234 -0.034,0.0219 -0.035,0.0202 -0.037,0.0185 -0.037,0.0169 -0.038,0.015 -0.04,0.0132 -0.04,0.0113 -0.041,0.0094 -0.041,0.0073 -0.043,0.0054 -0.043,0.0032 -0.044,0.0011 c -0.453,0 -0.843,-0.375 -0.843,-0.8438 0,-0.4531 0.39,-0.8437 0.843,-0.8437 0.469,0 0.844,0.3906 0.844,0.8437 z"
   id="path15"
   inkscape:connector-curvature="0"
   style="fill:#000000;stroke-width:0" />
<path
   d="m 22.926,6.7539 -0.013,-7e-4 -0.012,-8e-4 -0.011,-7e-4 -0.012,-8e-4 -0.011,-7e-4 -0.011,-8e-4 -0.01,-8e-4 -0.011,-8e-4 L 22.816,6.7461 22.797,6.7443 22.779,6.7423 22.762,6.7402 22.747,6.7379 22.732,6.7354 22.718,6.7327 22.705,6.7297 22.693,6.7265 22.682,6.7229 22.672,6.7191 22.662,6.7148 22.653,6.7103 22.645,6.7053 22.638,6.6999 22.631,6.6941 22.626,6.6878 22.62,6.6811 22.616,6.6738 22.612,6.666 22.608,6.6577 22.605,6.6488 22.603,6.6393 22.601,6.6292 22.599,6.6184 22.598,6.607 l 0,-0.0121 0,-0.0129 c 0,-0.1562 0.078,-0.1562 0.359,-0.1562 h 0.734 c 1.344,0 1.954,-1.1094 1.954,-2.6406 0,-2.0782 -1.079,-2.6407 -1.86,-2.6407 -0.765,0 -2.062,0.3594 -2.531,1.4219 0.516,-0.0781 0.969,0.2031 0.969,0.7656 0,0.4688 -0.328,0.7813 -0.766,0.7813 -0.391,0 -0.797,-0.2188 -0.797,-0.8281 0,-1.4063 1.406,-2.56254 3.172,-2.56254 1.891,0 3.297,1.43754 3.297,3.04684 0,1.4688 -1.188,2.6094 -2.703,2.875 1.375,0.3907 2.265,1.5625 2.265,2.7969 0,1.2496 -1.296,2.1716 -2.843,2.1716 -1.594,0 -2.766,-0.969 -2.766,-2.1247 0,-0.6406 0.5,-0.7656 0.734,-0.7656 0.329,0 0.719,0.25 0.719,0.7187 0,0.5156 -0.39,0.7346 -0.734,0.7346 -0.094,0 -0.125,0 -0.172,-0.016 0.594,1.078 2.094,1.078 2.172,1.078 0.531,0 1.562,-0.234 1.562,-1.7966 0,-0.2969 -0.047,-1.1875 -0.515,-1.875 -0.469,-0.7031 -1.016,-0.75 -1.438,-0.7656 z"
   id="path17"
   inkscape:connector-curvature="0"
   style="fill:#000000;stroke-width:0" />
<path
   d="m 38.891,15.656 h 4.39 c 0.219,0 0.5,0 0.5,0.282 0,0.312 -0.265,0.312 -0.5,0.312 h -4.39 v 4.375 c 0,0.234 0,0.516 -0.282,0.516 -0.312,0 -0.312,-0.266 -0.312,-0.516 V 16.25 h -4.391 c -0.218,0 -0.5,0 -0.5,-0.297 0,-0.297 0.266,-0.297 0.5,-0.297 h 4.391 v -4.39 c 0,-0.219 0,-0.5 0.297,-0.5 0.297,0 0.297,0.265 0.297,0.5 z"
   id="path19"
   inkscape:connector-curvature="0"
   style="fill:#000000;stroke-width:0" />
<path
   d="m 63.66,32.957 0,0.017 0,0.016 0,0.015 0,0.015 0,0.015 0,0.014 0,0.014 0,0.013 -10e-4,0.013 0,0.013 0,0.012 -10e-4,0.011 0,0.011 -0.001,0.011 -10e-4,0.01 -10e-4,0.01 -10e-4,0.01 -0.001,0.009 -10e-4,0.009 -10e-4,0.008 -0.002,0.008 -10e-4,0.008 -0.002,0.008 -0.002,0.007 -0.005,0.013 -0.005,0.012 -0.006,0.011 -0.007,0.009 -0.008,0.009 -0.008,0.008 -0.01,0.006 -0.011,0.006 -0.012,0.005 -0.013,0.004 -0.015,0.004 -0.008,0.002 -0.008,10e-4 -0.008,0.001 -0.009,10e-4 -0.009,10e-4 -0.009,0.001 -0.01,10e-4 -0.011,10e-4 -0.01,0 -0.011,0.001 -0.012,0 -0.011,0 -0.013,10e-4 -0.012,0 -0.013,0 -0.014,0 -0.014,0 -0.014,0 C 62.957,32.91 62.16,32.316 60.535,32.316 v -0.453 c 0.36,0 1.156,0 2.031,0.407 v -8.282 c 0,-0.562 -0.046,-0.765 -1.453,-0.765 H 60.629 V 22.77 c 0.422,0.031 1.969,0.031 2.484,0.031 0.532,0 2.063,0 2.485,-0.031 v 0.453 h -0.485 c -1.406,0 -1.453,0.203 -1.453,0.765 z"
   id="path21"
   inkscape:connector-curvature="0"
   style="fill:#000000;stroke-width:0" />
<line
   x1="49.422001"
   y1="15.969"
   x2="76.542999"
   y2="15.969"
   id="line23"
   style="stroke-width:0.63800001" />
<path
   d="m 51.453,10.16 0.064,-0.02 0.063,-0.018 0.063,-0.018 0.062,-0.017 0.06,-0.015 0.06,-0.015 0.059,-0.013 0.057,-0.013 0.057,-0.011 0.055,-0.011 0.054,-0.01 L 52.16,9.9899 52.211,9.9816 52.261,9.974 52.31,9.9671 52.357,9.9609 52.403,9.9554 52.447,9.9505 52.49,9.9461 52.531,9.9423 52.57,9.9389 52.608,9.9361 52.643,9.9337 52.677,9.9316 52.709,9.93 l 0.03,-0.0013 0.028,-0.0011 0.026,-7e-4 0.024,-6e-4 0.021,-3e-4 0.02,-2e-4 0.017,0 c 1.797,0 2.937,1.3122 2.937,1.5312 0,0.062 -0.031,0.141 -0.124,0.141 -0.032,0 -0.063,0 -0.204,-0.063 -0.89,-0.375 -1.656,-0.422 -2.078,-0.422 -1.047,0 -1.797,0.313 -2.094,0.438 -0.109,0.047 -0.14,0.047 -0.156,0.047 -0.125,0 -0.125,-0.094 -0.125,-0.344 V 6.5352 c 0,-0.2813 0,-0.375 0.188,-0.375 0.078,0 0.093,0.0156 0.25,0.2031 0.453,0.6406 1.203,1.0312 1.984,1.0312 0.844,0 1.266,-0.7812 1.391,-1.0468 0.265,-0.625 0.281,-1.4063 0.281,-2 0,-0.6094 0,-1.5157 -0.437,-2.2344 -0.36,-0.5625 -0.969,-0.9688 -1.672,-0.9688 -1.047,0 -2.078,0.7188 -2.375,1.875 0.078,-0.0312 0.187,-0.0468 0.265,-0.0468 0.266,0 0.688,0.1562 0.688,0.7031 0,0.4375 -0.297,0.7031 -0.688,0.7031 -0.297,0 -0.703,-0.1562 -0.703,-0.7656 0,-1.3594 1.078,-2.89064 2.844,-2.89064 1.797,0 3.375,1.50004 3.375,3.51564 0,1.9062 -1.281,3.4687 -2.953,3.4687 -0.907,0 -1.594,-0.3906 -2.016,-0.8437 z"
   id="path25"
   inkscape:connector-curvature="0"
   style="fill:#000000;stroke-width:0" />
<path
   d="M 63.816,5.0195 63.815,5.0632 63.812,5.1063 63.807,5.1487 63.799,5.1904 63.79,5.2313 63.779,5.2715 63.766,5.3107 63.75,5.3491 63.734,5.3865 63.715,5.4229 63.695,5.4583 63.673,5.4925 63.65,5.5255 63.625,5.5574 63.598,5.5879 63.57,5.6172 63.541,5.6451 63.511,5.6715 63.479,5.6965 63.446,5.7199 63.411,5.7418 63.376,5.762 63.34,5.7805 63.302,5.7974 63.264,5.8124 63.225,5.8256 63.184,5.8369 63.144,5.8463 63.102,5.8536 63.059,5.859 63.016,5.8622 62.973,5.8633 c -0.453,0 -0.844,-0.375 -0.844,-0.8438 0,-0.4531 0.391,-0.8437 0.844,-0.8437 0.468,0 0.843,0.3906 0.843,0.8437 z"
   id="path27"
   inkscape:connector-curvature="0"
   style="fill:#000000;stroke-width:0" />
<path
   d="m 76.285,10.926 v 0.359 h -3.828 c -1.922,0 -1.953,0.203 -2.016,0.516 H 70.082 L 69.598,8.6133 h 0.343 c 0.047,0.2969 0.204,1.2812 0.407,1.4527 0.125,0.094 1.312,0.094 1.531,0.094 h 3.375 L 73.566,7.7383 C 73.145,7.1289 71.535,4.5195 71.535,1.5352 c 0,-0.1875 0,-0.81254 0.656,-0.81254 0.657,0 0.657,0.60934 0.657,0.82814 V 2.332 c 0,2.375 0.39,4.2188 1.14,5.2813 z"
   id="path29"
   inkscape:connector-curvature="0"
   style="fill:#000000;stroke-width:0" />
<path
   d="m 87.625,15.656 h 4.391 c 0.218,0 0.5,0 0.5,0.282 0,0.312 -0.266,0.312 -0.5,0.312 h -4.391 v 4.375 c 0,0.234 0,0.516 -0.281,0.516 -0.313,0 -0.313,-0.266 -0.313,-0.516 V 16.25 h -4.39 c -0.219,0 -0.5,0 -0.5,-0.297 0,-0.297 0.265,-0.297 0.5,-0.297 h 4.39 v -4.39 c 0,-0.219 0,-0.5 0.297,-0.5 0.297,0 0.297,0.265 0.297,0.5 z"
   id="path31"
   inkscape:connector-curvature="0"
   style="fill:#000000;stroke-width:0" />
<path
   d="m 116.3,32.957 0,0.017 0,0.016 0,0.015 0,0.015 0,0.015 0,0.014 0,0.014 0,0.013 0,0.013 0,0.013 0,0.012 -0.01,0.011 0,0.011 0,0.011 0,0.01 0,0.01 0,0.01 0,0.009 0,0.009 0,0.008 0,0.008 -0.01,0.008 0,0.008 0,0.007 0,0.013 -0.01,0.012 -0.01,0.011 0,0.009 -0.01,0.009 -0.01,0.008 -0.01,0.006 -0.01,0.006 -0.01,0.005 -0.01,0.004 -0.02,0.004 -0.01,0.002 -0.01,10e-4 0,0.001 -0.01,10e-4 -0.01,10e-4 -0.01,0.001 -0.01,10e-4 -0.01,10e-4 -0.01,0 -0.01,0.001 -0.01,0 -0.02,0 -0.01,10e-4 -0.01,0 -0.01,0 -0.02,0 -0.01,0 -0.02,0 c -0.39,-0.422 -1.18,-1.016 -2.81,-1.016 v -0.453 c 0.36,0 1.16,0 2.03,0.407 v -8.282 c 0,-0.562 -0.04,-0.765 -1.45,-0.765 h -0.48 V 22.77 c 0.42,0.031 1.96,0.031 2.48,0.031 0.53,0 2.06,0 2.48,-0.031 v 0.453 h -0.48 c -1.41,0 -1.45,0.203 -1.45,0.765 z"
   id="path33"
   inkscape:connector-curvature="0"
   style="fill:#000000;stroke-width:0" />
<line
   x1="98.155998"
   y1="15.969"
   x2="133.08"
   y2="15.969"
   id="line35"
   style="stroke-width:0.63800001" />
<path
   d="m 103.97,5.6758 0,-0.1736 -0.01,-0.1694 0,-0.165 -0.01,-0.1609 -0.01,-0.1567 -0.01,-0.1526 -0.02,-0.1486 -0.01,-0.1446 -0.02,-0.1406 -0.02,-0.1367 -0.03,-0.1329 -0.02,-0.1291 -0.03,-0.1253 -0.03,-0.1217 -0.03,-0.118 -0.03,-0.1144 -0.06,-0.2182 -0.08,-0.2044 -0.08,-0.191 -0.08,-0.178 -0.09,-0.1654 -0.09,-0.1533 -0.1,-0.1414 -0.1,-0.1301 -0.1,-0.1191 -0.1,-0.1085 -0.11,-0.0983 -0.11,-0.0885 -0.11,-0.0792 -0.1,-0.0701 -0.11,-0.0616 -0.11,-0.0534 -0.11,-0.0456 -0.11,-0.0383 -0.11,-0.0312 -0.1,-0.0247 -0.1,-0.0185 -0.1,-0.0127 -0.09,-0.0073 -0.1,-0.0024 c -0.37,0 -1.22,0.0469 -1.606,0.6094 h 0.094 c 0.11,-0.0312 0.692,0.0625 0.692,0.6406 0,0.3594 -0.25,0.6563 -0.661,0.6563 -0.421,0 -0.671,-0.2656 -0.671,-0.6875 0,-0.9844 0.796,-1.64064 2.172,-1.64064 2,0 3.92,2.10934 3.92,5.56254 0,4.2658 -1.78,5.3278 -3.19,5.3278 -1.75,0 -3.278,-1.453 -3.278,-3.5466 0,-2.1094 1.468,-3.5312 3.068,-3.5312 l 0.06,0.3125 c -1,0 -1.42,0.8125 -1.58,1.1093 -0.25,0.6094 -0.25,1.375 -0.25,2.0938 0,0.8906 0,1.6406 0.42,2.2972 0.28,0.437 0.7,0.89 1.56,0.89 0.91,0 1.38,-0.797 1.53,-1.156 0.32,-0.7812 0.32,-2.1406 0.32,-2.375 0,-1.3281 -0.6,-2.8593 -2,-2.8593 h 0 l -0.06,-0.3125 c 1.17,0 1.78,0.8593 2.09,1.6718 z"
   id="path37"
   inkscape:connector-curvature="0"
   style="fill:#000000;stroke-width:0" />
<path
   d="m 112.55,5.0195 0,0.0437 0,0.0431 -0.01,0.0424 -0.01,0.0417 -0.01,0.0409 -0.01,0.0402 -0.01,0.0392 -0.01,0.0384 -0.02,0.0374 -0.02,0.0364 -0.02,0.0354 -0.02,0.0342 -0.03,0.033 -0.02,0.0319 -0.03,0.0305 -0.03,0.0293 -0.02,0.0279 -0.03,0.0264 -0.04,0.025 -0.03,0.0234 -0.03,0.0219 -0.04,0.0202 -0.04,0.0185 -0.03,0.0169 -0.04,0.015 -0.04,0.0132 -0.04,0.0113 -0.04,0.0094 -0.04,0.0073 -0.05,0.0054 -0.04,0.0032 -0.04,0.0011 c -0.46,0 -0.85,-0.375 -0.85,-0.8438 0,-0.4531 0.39,-0.8437 0.85,-0.8437 0.47,0 0.84,0.3906 0.84,0.8437 z"
   id="path39"
   inkscape:connector-curvature="0"
   style="fill:#000000;stroke-width:0" />
<path
   d="m 122.05,11.238 0,0.017 0,0.016 0,0.016 0,0.015 0,0.014 0,0.015 0,0.013 0,0.014 0,0.012 0,0.013 0,0.012 0,0.011 0,0.012 0,0.01 0,0.011 0,0.01 0,0.009 -0.01,0.009 0,0.009 0,0.009 0,0.008 0,0.007 0,0.008 -0.01,0.007 0,0.013 -0.01,0.012 0,0.011 -0.01,0.01 -0.01,0.008 0,0.008 -0.01,0.007 -0.02,0.005 -0.01,0.005 -0.01,0.005 -0.02,0.003 0,0.002 -0.01,0.001 -0.01,0.002 -0.01,0.001 -0.01,10e-4 -0.01,0 -0.01,10e-4 -0.01,0.001 -0.01,0 -0.01,10e-4 -0.01,0 -0.01,10e-4 -0.01,0 -0.02,0 -0.01,0 -0.01,0 -0.02,0 -0.01,0 c -0.39,-0.422 -1.19,-1.015 -2.81,-1.015 v -0.454 c 0.36,0 1.15,0 2.03,0.407 V 2.2695 c 0,-0.5625 -0.05,-0.7656 -1.46,-0.7656 h -0.48 V 1.0508 c 0.42,0.0312 1.97,0.0312 2.48,0.0312 0.54,0 2.07,0 2.49,-0.0312 v 0.4531 h -0.49 c -1.4,0 -1.45,0.2031 -1.45,0.7656 z"
   id="path41"
   inkscape:connector-curvature="0"
   style="fill:#000000;stroke-width:0" />
<path
   d="m 129.85,11.238 0,0.017 0,0.016 0,0.016 0,0.015 0,0.014 0,0.015 0,0.013 0,0.014 0,0.012 0,0.013 0,0.012 0,0.011 0,0.012 0,0.01 0,0.011 0,0.01 0,0.009 0,0.009 0,0.009 0,0.009 -0.01,0.008 0,0.007 0,0.008 0,0.007 0,0.007 -0.01,0.006 0,0.012 -0.01,0.011 0,0.01 -0.01,0.008 -0.01,0.008 -0.01,0.007 -0.01,0.005 -0.01,0.005 -0.02,0.005 -0.01,0.003 -0.01,0.002 -0.01,0.001 -0.01,0.002 0,0.001 -0.01,10e-4 -0.01,0 -0.01,10e-4 -0.01,0.001 -0.01,0 -0.01,10e-4 -0.02,0 -0.01,10e-4 -0.01,0 -0.01,0 -0.02,0 -0.01,0 -0.01,0 -0.02,0 c -0.39,-0.422 -1.19,-1.015 -2.81,-1.015 v -0.454 c 0.36,0 1.16,0 2.03,0.407 V 2.2695 c 0,-0.5625 -0.05,-0.7656 -1.45,-0.7656 h -0.49 V 1.0508 c 0.43,0.0312 1.97,0.0312 2.49,0.0312 0.53,0 2.06,0 2.48,-0.0312 v 0.4531 h -0.48 c -1.41,0 -1.46,0.2031 -1.46,0.7656 z"
   id="path43"
   inkscape:connector-curvature="0"
   style="fill:#000000;stroke-width:0" />
<path
   d="m 144.16,15.656 h 4.39 c 0.22,0 0.5,0 0.5,0.282 0,0.312 -0.26,0.312 -0.5,0.312 h -4.39 v 4.375 c 0,0.234 0,0.516 -0.28,0.516 -0.31,0 -0.31,-0.266 -0.31,-0.516 V 16.25 h -4.39 c -0.22,0 -0.5,0 -0.5,-0.297 0,-0.297 0.27,-0.297 0.5,-0.297 h 4.39 v -4.39 c 0,-0.219 0,-0.5 0.3,-0.5 0.29,0 0.29,0.265 0.29,0.5 z"
   id="path45"
   inkscape:connector-curvature="0"
   style="fill:#000000;stroke-width:0" />
<path
   d="m 156.42,12.75 0,0.042 0,0.041 -0.01,0.041 0,0.04 -0.01,0.038 -0.02,0.038 -0.01,0.037 -0.01,0.036 -0.02,0.035 -0.02,0.034 -0.02,0.033 -0.02,0.031 -0.02,0.031 -0.02,0.029 -0.03,0.028 -0.02,0.027 -0.03,0.025 -0.03,0.024 -0.03,0.022 -0.03,0.021 -0.03,0.02 -0.03,0.018 -0.04,0.017 -0.03,0.015 -0.03,0.013 -0.04,0.012 -0.03,0.01 -0.04,0.008 -0.03,0.007 -0.04,0.004 -0.04,0.003 -0.03,0.001 c -0.46,0 -0.78,-0.39 -0.78,-0.765 0,-0.469 0.39,-0.782 0.76,-0.782 0.47,0 0.78,0.375 0.78,0.766 z"
   id="path47"
   inkscape:connector-curvature="0"
   style="fill:#000000;stroke-width:0" />
<path
   d="m 160.75,12.75 0,0.042 0,0.041 -0.01,0.041 0,0.04 -0.01,0.038 -0.01,0.038 -0.02,0.037 -0.01,0.036 -0.02,0.035 -0.01,0.034 -0.02,0.033 -0.03,0.031 -0.02,0.031 -0.02,0.029 -0.03,0.028 -0.02,0.027 -0.03,0.025 -0.03,0.024 -0.03,0.022 -0.03,0.021 -0.03,0.02 -0.03,0.018 -0.03,0.017 -0.04,0.015 -0.03,0.013 -0.04,0.012 -0.03,0.01 -0.04,0.008 -0.03,0.007 -0.04,0.004 -0.04,0.003 -0.03,0.001 c -0.45,0 -0.78,-0.39 -0.78,-0.765 0,-0.469 0.39,-0.782 0.76,-0.782 0.47,0 0.78,0.375 0.78,0.766 z"
   id="path49"
   inkscape:connector-curvature="0"
   style="fill:#000000;stroke-width:0" />
<path
   d="m 165.09,12.75 0,0.042 0,0.041 -0.01,0.041 -0.01,0.04 -0.01,0.038 -0.01,0.038 -0.01,0.037 -0.01,0.036 -0.02,0.035 -0.02,0.034 -0.02,0.033 -0.02,0.031 -0.02,0.031 -0.03,0.029 -0.02,0.028 -0.03,0.027 -0.02,0.025 -0.03,0.024 -0.03,0.022 -0.03,0.021 -0.03,0.02 -0.04,0.018 -0.03,0.017 -0.03,0.015 -0.04,0.013 -0.03,0.012 -0.04,0.01 -0.03,0.008 -0.04,0.007 -0.03,0.004 -0.04,0.003 -0.04,0.001 c -0.45,0 -0.78,-0.39 -0.78,-0.765 0,-0.469 0.39,-0.782 0.77,-0.782 0.47,0 0.78,0.375 0.78,0.766 z"
   id="path51"
   inkscape:connector-curvature="0"
   style="fill:#000000;stroke-width:0" />
</g></svg>
