<?xml version="1.0" encoding="UTF-8" standalone="no"?>
<svg
   xmlns:dc="http://purl.org/dc/elements/1.1/"
   xmlns:cc="http://creativecommons.org/ns#"
   xmlns:rdf="http://www.w3.org/1999/02/22-rdf-syntax-ns#"
   xmlns:svg="http://www.w3.org/2000/svg"
   xmlns="http://www.w3.org/2000/svg"
   xmlns:sodipodi="http://sodipodi.sourceforge.net/DTD/sodipodi-0.dtd"
   xmlns:inkscape="http://www.inkscape.org/namespaces/inkscape"
   version="1.1"
   id="body"
   width="230.62788"
   height="57.773067"
   viewBox="0 0 0.32031651 0.080240371"
   preserveAspectRatio="none"
   inkscape:version="0.48.3.1 r9886"
   sodipodi:docname="ch1-Z-G-27.svg">
  <metadata
     id="metadata63">
    <rdf:RDF>
      <cc:Work
         rdf:about="">
        <dc:format>image/svg+xml</dc:format>
        <dc:type
           rdf:resource="http://purl.org/dc/dcmitype/StillImage" />
      </cc:Work>
    </rdf:RDF>
  </metadata>
  <defs
     id="defs61" />
  <sodipodi:namedview
     pagecolor="#ffffff"
     bordercolor="#666666"
     borderopacity="1"
     objecttolerance="10"
     gridtolerance="10"
     guidetolerance="10"
     inkscape:pageopacity="0"
     inkscape:pageshadow="2"
     inkscape:window-width="640"
     inkscape:window-height="480"
     id="namedview59"
     showgrid="false"
     inkscape:zoom="0.32777778"
     inkscape:cx="381.99655"
     inkscape:cy="459.56369"
     inkscape:window-x="0"
     inkscape:window-y="24"
     inkscape:window-maximized="0"
     inkscape:current-layer="body" />
  <title
     id="title3">SVG drawing</title>
  <desc
     id="desc5">This was produced by version 4.4 of GNU libplot, a free library for exporting 2-D vector graphics.</desc>
  <g
     id="content"
     transform="matrix(0.0017361,0,0,-0.0017361,-6.9923667e-4,0.08072865)"
     xml:space="preserve"
     stroke-miterlimit="10.433"
     font-style="normal"
     font-variant="normal"
     font-weight="normal"
     font-stretch="normal"
     font-size-adjust="none"
     letter-spacing="normal"
     word-spacing="normal"
     style="font-style:normal;font-variant:normal;font-weight:normal;font-stretch:normal;letter-spacing:normal;word-spacing:normal;text-anchor:start;fill:none;stroke:#000000;stroke-linecap:butt;stroke-linejoin:miter;stroke-miterlimit:10.43299961;stroke-opacity:1;stroke-dasharray:none;stroke-dashoffset:0">
<path
   d="m 11.348,46.324 0,0 0,0.001 0,0 0,10e-4 0,0 0,10e-4 -0.001,0.001 0,0.002 0,0.002 0,0.004 -10e-4,0.004 -10e-4,0.004 -0.001,0.004 -10e-4,0.005 -0.002,0.005 -0.002,0.006 -0.002,0.005 -0.002,0.006 -0.003,0.006 -0.004,0.006 -0.004,0.006 -0.004,0.005 -0.005,0.006 -0.003,0.003 -0.002,0.003 -0.003,0.002 -0.003,0.003 -0.004,0.003 -0.003,0.002 -0.004,0.003 -0.003,0.002 -0.004,0.002 -0.004,0.003 -0.004,0.002 -0.005,0.002 -0.004,0.002 -0.005,0.002 -0.005,10e-4 -0.005,0.002 -0.005,10e-4 -0.006,0.002 -0.006,10e-4 -0.006,10e-4 -0.006,0.001 -0.006,10e-4 -0.007,0 -0.006,10e-4 -0.007,0 -0.008,0 c -0.25,0 -1.062,-0.094 -1.359,-0.125 -0.0781,0 -0.2031,-0.015 -0.2031,-0.219 0,-0.125 0.0938,-0.125 0.2656,-0.125 0.5315,0 0.5625,-0.078 0.5625,-0.203 0,-0.078 -0.109,-0.453 -0.156,-0.687 L 9.3789,41.449 C 9.2383,40.902 9.207,40.715 9.207,40.324 c 0,-1.062 0.5782,-1.75 1.406,-1.75 v 0.25 c -0.375,0 -0.7497,0.297 -0.7497,1.125 0,0.219 0,0.422 0.1877,1.125 l 0.25,1.031 c 0.062,0.235 0.062,0.266 0.156,0.391 0.547,0.719 1.047,0.891 1.344,0.891 0.406,0 0.703,-0.344 0.703,-1.047 0,-0.656 -0.375,-1.938 -0.578,-2.375 -0.36,-0.735 -0.875,-1.141 -1.313,-1.141 v -0.25 c 1.313,0 2.688,1.672 2.688,3.266 0,1.015 -0.594,1.797 -1.485,1.797 -0.5,0 -0.968,-0.328 -1.297,-0.672 z"
   id="path9"
   inkscape:connector-curvature="0"
   style="fill:#000000;stroke-width:0" />
<path
   d="m 19.684,11.664 1.921,5.078 h -0.406 c -0.609,-1.64 -2.297,-2.734 -4.125,-3.203 -0.328,-0.078 -1.89,-0.5 -4.937,-0.5 H 2.543 l 8.094,9.5 c 0.109,0.125 0.14,0.172 0.14,0.25 0,0.031 0,0.078 -0.109,0.234 L 3.2617,33.148 h 8.7033 c 2.141,0 3.578,-0.218 3.719,-0.25 0.859,-0.125 2.25,-0.406 3.5,-1.187 0.406,-0.266 1.484,-0.969 2.015,-2.266 h 0.406 l -1.921,4.469 H 0.88672 c -0.35938,0 -0.375,-0.016 -0.42188,-0.109 C 0.44922,33.758 0.44922,33.461 0.44922,33.273 L 8.8555,21.773 0.62109,12.117 C 0.46484,11.93 0.46484,11.852 0.46484,11.836 c 0,-0.172 0.14063,-0.172 0.42188,-0.172 z"
   id="path11"
   inkscape:connector-curvature="0"
   style="fill:#000000;stroke-width:0" />
<path
   d="M 1.418,1.0977 1.4149,1.0813 1.4116,1.0646 1.408,1.0475 1.4043,1.0301 1.3963,0.99449 1.3877,0.95825 1.3788,0.92174 1.3696,0.88535 1.3605,0.84945 1.3516,0.81445 1.3472,0.79741 1.343,0.78074 1.3389,0.76448 1.335,0.74869 1.3312,0.73341 1.3277,0.7187 1.3243,0.7046 1.3213,0.69116 1.3185,0.67843 1.316,0.66646 1.3138,0.6553 1.312,0.64499 1.3105,0.63558 1.3095,0.62713 1.3088,0.61968 1.3086,0.61328 c 0,-0.1875 0.1562,-0.29687 0.3281,-0.29687 0.1406,0 0.3438,0.09375 0.4219,0.3125 0,0.03125 0.1406,0.54689 0.2031,0.82809 l 0.25,1 c 0.0625,0.25 0.125,0.5 0.1875,0.75 0.0469,0.1875 0.1406,0.5157 0.1406,0.5625 0.1719,0.3438 0.7657,1.3594 1.8282,1.3594 0.5,0 0.5937,-0.4219 0.5937,-0.7812 C 5.2617,3.6602 4.7148,2.2227 4.543,1.7539 4.4336,1.4883 4.4336,1.3633 4.4336,1.2383 c 0,-0.53127 0.3906,-0.92189 0.9062,-0.92189 1.0469,0 1.4688,1.62499 1.4688,1.71879 0,0.1093 -0.1094,0.1093 -0.1406,0.1093 -0.1094,0 -0.1094,-0.0312 -0.1719,-0.2031 -0.2188,-0.75 -0.5781,-1.37499 -1.125,-1.37499 -0.2031,0 -0.2813,0.10937 -0.2813,0.35937 0,0.28122 0.1094,0.54692 0.2032,0.79692 0.2187,0.5937 0.6875,1.8125 0.6875,2.4531 0,0.75 -0.4844,1.2031 -1.2813,1.2031 -1.0156,0 -1.5469,-0.7187 -1.75,-0.9844 -0.0469,0.625 -0.5,0.9844 -1.0156,0.9844 C 1.418,5.3789 1.1992,4.9414 1.0898,4.7383 0.91797,4.3633 0.76172,3.6914 0.76172,3.6602 c 0,-0.125 0.10937,-0.125 0.125,-0.125 0.10937,0 0.12498,0.0156 0.18748,0.2656 0.2031,0.7969 0.4219,1.3281 0.8281,1.3281 0.2188,0 0.3438,-0.1406 0.3438,-0.5156 0,-0.2344 -0.0313,-0.3594 -0.1875,-0.9375 z"
   id="path13"
   inkscape:connector-curvature="0"
   style="fill:#000000;stroke-width:0" />
<path
   d="m 14.805,4.082 0.015,0 0.015,10e-5 0.031,4e-4 0.031,0.0011 0.016,9e-4 0.016,0.0012 0.016,0.0015 0.016,0.002 0.016,0.0024 0.015,0.0028 0.015,0.0033 0.015,0.004 0.015,0.0045 0.014,0.0051 0.013,0.0059 0.014,0.0065 0.012,0.0074 0.012,0.0082 0.012,0.009 0.01,0.0099 0.01,0.0109 0.005,0.0058 0.004,0.006 0.004,0.0063 0.004,0.0066 0.004,0.0068 0.003,0.0071 0.004,0.0074 0.003,0.0077 0.003,0.008 0.002,0.0082 0.002,0.0086 0.002,0.0089 0.002,0.0092 10e-4,0.0095 0.001,0.0098 10e-4,0.0101 10e-4,0.0105 0,0.0108 c 0,0.2188 -0.219,0.2188 -0.375,0.2188 H 8.1328 c -0.1562,0 -0.375,0 -0.375,-0.2188 0,-0.2344 0.2188,-0.2344 0.375,-0.2344 z"
   id="path15"
   inkscape:connector-curvature="0"
   style="fill:#000000;stroke-width:0" />
<path
   d="m 14.805,1.9258 0.015,0 0.015,0 0.031,4e-4 0.031,0.001 0.032,0.002 0.016,0.0014 0.016,0.0019 0.016,0.0022 0.015,0.0026 0.015,0.0031 0.015,0.0037 0.015,0.0042 0.014,0.0048 0.013,0.0055 0.014,0.0061 0.012,0.0069 0.012,0.0076 0.012,0.0084 0.01,0.0093 0.01,0.0101 0.009,0.0111 0.004,0.0059 0.004,0.0061 0.004,0.0064 0.003,0.0066 0.004,0.0069 0.003,0.0072 0.003,0.0074 0.002,0.0077 0.002,0.008 0.002,0.0083 0.002,0.0086 10e-4,0.0088 0.001,0.0092 10e-4,0.0095 10e-4,0.0097 0,0.0101 c 0,0.2344 -0.219,0.2344 -0.375,0.2344 H 8.1328 c -0.1562,0 -0.375,0 -0.375,-0.2344 0,-0.2187 0.2188,-0.2187 0.375,-0.2187 z"
   id="path17"
   inkscape:connector-curvature="0"
   style="fill:#000000;stroke-width:0" />
<path
   d="m 19.965,4.6602 -0.04,0.075 -0.02,0.0366 -0.022,0.0359 -0.022,0.0352 -0.022,0.0344 -0.024,0.0337 -0.024,0.0329 -0.025,0.0319 -0.026,0.0311 -0.027,0.0301 -0.027,0.0291 -0.028,0.0281 -0.029,0.027 -0.03,0.0259 -0.031,0.0248 -0.031,0.0235 -0.033,0.0224 -0.033,0.0211 -0.034,0.0197 -0.035,0.0184 -0.037,0.017 -0.037,0.0156 -0.038,0.0141 -0.039,0.0126 -0.04,0.0111 -0.041,0.0095 -0.042,0.0078 -0.043,0.0062 -0.044,0.0044 -0.045,0.0027 -0.047,9e-4 v -0.25 c 0.735,0 0.891,-0.9219 0.891,-0.9844 0,-0.0625 -0.031,-0.1406 -0.031,-0.1875 L 19.246,1.7695 C 19.184,1.5664 19.184,1.5508 19.027,1.3633 18.527,0.73828 18.074,0.56641 17.762,0.56641 c -0.563,0 -0.719,0.60939 -0.719,1.04689 0,0.5625 0.359,1.9219 0.625,2.4375 0.344,0.6562 0.844,1.0781 1.281,1.0781 v 0.25 c -1.312,0 -2.687,-1.6406 -2.687,-3.2812 0,-1.0469 0.609,-1.78129 1.484,-1.78129 0.219,0 0.781,0.04687 1.438,0.84379 0.093,-0.46879 0.484,-0.84379 1.015,-0.84379 0.391,0 0.656,0.26562 0.828,0.60937 0.188,0.40622 0.344,1.09372 0.344,1.10942 0,0.1093 -0.109,0.1093 -0.141,0.1093 -0.109,0 -0.125,-0.0468 -0.156,-0.2031 -0.187,-0.7187 -0.39,-1.37499 -0.844,-1.37499 -0.312,0 -0.343,0.28125 -0.343,0.51559 0,0.2344 0.031,0.3282 0.156,0.8282 0.109,0.4687 0.141,0.5781 0.234,1 l 0.407,1.5625 c 0.078,0.3125 0.078,0.3281 0.078,0.375 0,0.1875 -0.141,0.2968 -0.328,0.2968 -0.266,0 -0.438,-0.2343 -0.469,-0.4843 z"
   id="path19"
   inkscape:connector-curvature="0"
   style="fill:#000000;stroke-width:0" />
<path
   d="m 32.336,25.164 0.029,0 0.027,0 0.027,0 0.025,10e-4 0.025,0 0.023,0.001 0.023,0.001 0.021,0.002 0.02,0.002 0.02,0.002 0.018,0.003 0.018,0.004 0.016,0.004 0.016,0.005 0.014,0.006 0.014,0.006 0.013,0.008 0.011,0.008 0.011,0.009 0.01,0.011 0.01,0.011 0.008,0.013 0.007,0.013 0.007,0.015 0.006,0.017 0.002,0.008 0.003,0.009 0.002,0.01 0.002,0.009 0.002,0.01 0.001,0.011 0.002,0.011 0.001,0.011 10e-4,0.012 10e-4,0.012 0.001,0.012 0,0.013 0,0.013 0,0.014 c 0,0.156 -0.125,0.156 -0.406,0.156 H 31.07 c 0.313,1.641 0.532,2.766 0.657,3.281 0.093,0.375 0.421,0.75 0.843,0.75 0.328,0 0.672,-0.14 0.828,-0.296 -0.625,-0.063 -0.812,-0.516 -0.812,-0.782 0,-0.328 0.234,-0.515 0.547,-0.515 0.312,0 0.781,0.265 0.781,0.875 0,0.672 -0.656,1.031 -1.359,1.031 -0.688,0 -1.36,-0.5 -1.672,-1.125 -0.281,-0.563 -0.438,-1.125 -0.813,-3.219 h -1.062 c -0.297,0 -0.453,0 -0.453,-0.281 0,-0.172 0.093,-0.172 0.406,-0.172 h 1.016 c -0.282,-1.484 -0.938,-5.078 -1.297,-6.766 -0.282,-1.39 -0.516,-2.546 -1.313,-2.546 -0.047,0 -0.5,0 -0.797,0.296 0.813,0.063 0.813,0.766 0.813,0.782 0,0.312 -0.235,0.515 -0.531,0.515 -0.329,0 -0.797,-0.281 -0.797,-0.875 0,-0.687 0.703,-1.047 1.312,-1.047 1.625,0 2.297,2.922 2.469,3.704 0.281,1.234 1.062,5.453 1.141,5.937 z"
   id="path21"
   inkscape:connector-curvature="0"
   style="fill:#000000;stroke-width:0" />
<path
   d="m 39.809,14.914 0,0.009 -10e-4,0.008 0,0.005 -10e-4,0.004 -0.001,0.005 -0.002,0.005 -0.002,0.005 -0.002,0.006 -0.003,0.006 -0.003,0.006 -0.004,0.007 -0.005,0.008 -0.005,0.007 -0.007,0.009 -0.007,0.009 -0.007,0.01 -0.009,0.01 -0.01,0.012 -0.005,0.006 -0.006,0.006 -0.006,0.006 -0.006,0.007 -0.006,0.007 -0.007,0.007 -0.007,0.007 -0.007,0.008 -0.008,0.007 -0.008,0.009 -0.008,0.008 -0.008,0.008 -0.009,0.009 -0.009,0.01 -0.01,0.009 -0.01,0.01 -0.01,0.01 -0.011,0.01 -0.011,0.011 -0.011,0.011 -0.012,0.011 -0.012,0.012 -0.013,0.012 -0.013,0.012 c -1.578,1.609 -2.468,4.234 -2.468,7.469 0,3.093 0.734,5.734 2.578,7.625 0.172,0.14 0.172,0.171 0.172,0.218 0,0.094 -0.079,0.125 -0.157,0.125 -0.203,0 -1.5,-1.14 -2.281,-2.703 -0.812,-1.609 -1.172,-3.312 -1.172,-5.265 0,-1.407 0.219,-3.297 1.047,-5 0.938,-1.907 2.234,-2.938 2.406,-2.938 0.078,0 0.157,0.031 0.157,0.125 z"
   id="path23"
   inkscape:connector-curvature="0"
   style="fill:#000000;stroke-width:0" />
<path
   d="m 43.988,23.43 0.004,0.011 0.006,0.014 0.008,0.019 0.011,0.022 0.012,0.025 0.014,0.029 0.016,0.032 0.018,0.034 0.019,0.038 0.022,0.04 0.024,0.042 0.025,0.044 0.027,0.046 0.029,0.048 0.03,0.05 0.032,0.051 0.034,0.052 0.035,0.053 0.037,0.054 0.039,0.055 0.04,0.055 0.042,0.056 0.043,0.056 0.044,0.056 0.046,0.055 0.047,0.056 0.049,0.054 0.05,0.054 0.051,0.053 0.053,0.052 0.054,0.051 0.055,0.049 c 0.406,0.375 0.953,0.625 1.562,0.625 0.641,0 0.86,-0.469 0.86,-1.109 0,-0.907 -0.641,-2.719 -0.969,-3.579 -0.141,-0.375 -0.219,-0.578 -0.219,-0.875 0,-0.718 0.5,-1.281 1.25,-1.281 1.485,0 2.047,2.328 2.047,2.422 0,0.094 -0.078,0.156 -0.172,0.156 -0.14,0 -0.156,-0.047 -0.234,-0.328 C 48.77,19.57 48.16,18.93 47.535,18.93 c -0.156,0 -0.406,0.015 -0.406,0.531 0,0.391 0.172,0.875 0.266,1.094 0.328,0.875 0.984,2.656 0.984,3.562 0,0.953 -0.547,1.672 -1.766,1.672 -1.406,0 -2.156,-1 -2.437,-1.406 -0.047,0.906 -0.703,1.406 -1.406,1.406 -0.5,0 -0.86,-0.312 -1.125,-0.844 -0.282,-0.578 -0.516,-1.531 -0.516,-1.593 0,-0.063 0.078,-0.141 0.187,-0.141 0.125,0 0.141,0.016 0.235,0.375 0.25,0.969 0.531,1.875 1.172,1.875 0.375,0 0.5,-0.25 0.5,-0.734 0,-0.344 -0.157,-0.969 -0.282,-1.454 l -0.437,-1.718 c -0.063,-0.297 -0.234,-1.016 -0.313,-1.297 -0.125,-0.422 -0.296,-1.172 -0.296,-1.25 0,-0.219 0.171,-0.391 0.421,-0.391 0.188,0 0.407,0.094 0.532,0.328 0.031,0.078 0.187,0.641 0.265,0.953 l 0.344,1.438 z"
   id="path25"
   inkscape:connector-curvature="0"
   style="fill:#000000;stroke-width:0" />
<path
   d="m 54.508,22.727 -0.001,0.116 -10e-4,0.121 -0.003,0.124 -0.004,0.129 -0.005,0.132 -0.006,0.136 -0.019,0.283 -0.025,0.294 -0.033,0.306 -0.041,0.316 -0.052,0.324 -0.061,0.331 -0.073,0.338 -0.086,0.342 -0.098,0.346 -0.112,0.348 -0.061,0.175 -0.065,0.174 -0.069,0.175 -0.074,0.174 -0.077,0.174 -0.081,0.173 c -0.938,1.906 -2.25,2.937 -2.422,2.937 -0.062,0 -0.141,-0.031 -0.141,-0.125 0,-0.047 0,-0.078 0.266,-0.359 1.594,-1.594 2.484,-4.219 2.484,-7.469 0,-3.078 -0.75,-5.734 -2.593,-7.609 -0.157,-0.141 -0.157,-0.172 -0.157,-0.219 0,-0.094 0.079,-0.125 0.141,-0.125 0.203,0 1.516,1.141 2.297,2.703 0.797,1.61 1.172,3.328 1.172,5.235 z"
   id="path27"
   inkscape:connector-curvature="0"
   style="fill:#000000;stroke-width:0" />
<path
   d="m 71.254,23.93 0.042,0 0.042,0 0.043,0.002 0.022,0.001 0.021,0.001 0.022,0.002 0.021,0.002 0.021,0.003 0.02,0.004 0.02,0.004 0.02,0.004 0.019,0.006 0.019,0.006 0.018,0.007 0.017,0.008 0.017,0.009 0.015,0.009 0.015,0.011 0.014,0.012 0.013,0.013 0.012,0.014 0.005,0.008 0.005,0.008 0.005,0.008 0.005,0.009 0.004,0.008 0.004,0.01 0.003,0.009 0.003,0.01 0.003,0.01 0.003,0.011 0.002,0.011 0.002,0.011 10e-4,0.012 0.001,0.012 0.001,0.013 0,0.013 c 0,0.297 -0.266,0.297 -0.5,0.297 h -9.375 c -0.219,0 -0.5,0 -0.5,-0.281 0,-0.297 0.266,-0.297 0.5,-0.297 z"
   id="path29"
   inkscape:connector-curvature="0"
   style="fill:#000000;stroke-width:0" />
<path
   d="m 71.254,20.961 0.042,0 0.042,0 0.043,0.002 0.022,10e-4 0.021,0.002 0.022,0.002 0.021,0.002 0.021,0.003 0.02,0.004 0.02,0.004 0.02,0.005 0.019,0.005 0.019,0.007 0.018,0.007 0.017,0.009 0.017,0.009 0.015,0.01 0.015,0.012 0.014,0.012 0.013,0.014 0.012,0.015 0.005,0.008 0.005,0.008 0.005,0.009 0.005,0.009 0.004,0.01 0.004,0.009 0.003,0.01 0.003,0.011 0.003,0.011 0.003,0.011 0.002,0.012 0.002,0.012 10e-4,0.012 0.001,0.013 0.001,0.013 0,0.014 c 0,0.297 -0.266,0.297 -0.5,0.297 h -9.375 c -0.219,0 -0.5,0 -0.5,-0.282 0,-0.312 0.266,-0.312 0.5,-0.312 z"
   id="path31"
   inkscape:connector-curvature="0"
   style="fill:#000000;stroke-width:0" />
<path
   d="m 84.18,25.164 0.028,0 0.028,0 0.027,0 0.025,10e-4 0.025,0 0.023,0.001 0.023,0.001 0.021,0.002 0.02,0.002 0.02,0.002 0.018,0.003 0.017,0.004 0.017,0.004 0.015,0.005 0.015,0.006 0.014,0.006 0.012,0.008 0.012,0.008 0.011,0.009 0.01,0.011 0.009,0.011 0.009,0.013 0.007,0.013 0.007,0.015 0.006,0.017 0.002,0.008 0.003,0.009 0.002,0.01 0.002,0.009 0.002,0.01 0.001,0.011 0.002,0.011 0.001,0.011 10e-4,0.012 0.001,0.012 0,0.012 0.001,0.013 0,0.013 0,0.014 c 0,0.156 -0.125,0.156 -0.406,0.156 h -1.297 c 0.313,1.641 0.531,2.766 0.656,3.281 0.094,0.375 0.422,0.75 0.844,0.75 0.328,0 0.672,-0.14 0.828,-0.296 -0.625,-0.063 -0.812,-0.516 -0.812,-0.782 0,-0.328 0.234,-0.515 0.547,-0.515 0.312,0 0.781,0.265 0.781,0.875 0,0.672 -0.656,1.031 -1.36,1.031 -0.687,0 -1.359,-0.5 -1.671,-1.125 -0.282,-0.563 -0.438,-1.125 -0.813,-3.219 h -1.062 c -0.297,0 -0.454,0 -0.454,-0.281 0,-0.172 0.094,-0.172 0.407,-0.172 h 1.015 c -0.281,-1.484 -0.937,-5.078 -1.297,-6.766 -0.281,-1.39 -0.515,-2.546 -1.312,-2.546 -0.047,0 -0.5,0 -0.797,0.296 0.813,0.063 0.813,0.766 0.813,0.782 0,0.312 -0.235,0.515 -0.532,0.515 -0.328,0 -0.797,-0.281 -0.797,-0.875 0,-0.687 0.704,-1.047 1.313,-1.047 1.625,0 2.297,2.922 2.469,3.704 0.281,1.234 1.062,5.453 1.14,5.937 z"
   id="path33"
   inkscape:connector-curvature="0"
   style="fill:#000000;stroke-width:0" />
<path
   d="m 91.656,14.914 0,0.009 0,0.008 -0.001,0.005 -0.001,0.004 -10e-4,0.005 -0.001,0.005 -0.002,0.005 -0.002,0.006 -0.003,0.006 -0.004,0.006 -0.004,0.007 -0.004,0.008 -0.006,0.007 -0.006,0.009 -0.007,0.009 -0.008,0.01 -0.009,0.01 -0.009,0.012 -0.006,0.006 -0.005,0.006 -0.006,0.006 -0.006,0.007 -0.007,0.007 -0.006,0.007 -0.007,0.007 -0.007,0.008 -0.008,0.007 -0.008,0.009 -0.008,0.008 -0.009,0.008 -0.009,0.009 -0.009,0.01 -0.009,0.009 -0.01,0.01 -0.01,0.01 -0.011,0.01 -0.011,0.011 -0.012,0.011 -0.011,0.011 -0.012,0.012 -0.013,0.012 -0.013,0.012 c -1.578,1.609 -2.469,4.234 -2.469,7.469 0,3.093 0.735,5.734 2.578,7.625 0.172,0.14 0.172,0.171 0.172,0.218 0,0.094 -0.078,0.125 -0.156,0.125 -0.203,0 -1.5,-1.14 -2.281,-2.703 -0.813,-1.609 -1.172,-3.312 -1.172,-5.265 0,-1.407 0.219,-3.297 1.047,-5 0.937,-1.907 2.234,-2.938 2.406,-2.938 0.078,0 0.156,0.031 0.156,0.125 z"
   id="path35"
   inkscape:connector-curvature="0"
   style="fill:#000000;stroke-width:0" />
<path
   d="m 98.348,24.727 -0.017,0.04 -0.018,0.041 -0.02,0.042 -0.022,0.043 -0.023,0.044 -0.024,0.044 -0.027,0.045 -0.028,0.045 -0.029,0.044 -0.031,0.045 -0.034,0.044 -0.034,0.044 -0.037,0.043 -0.039,0.043 -0.04,0.042 -0.042,0.04 -0.044,0.039 -0.046,0.038 -0.049,0.037 -0.05,0.034 -0.052,0.033 -0.054,0.031 -0.056,0.028 -0.059,0.026 -0.06,0.024 -0.063,0.021 -0.065,0.018 -0.067,0.016 -0.07,0.012 -0.072,0.009 -0.074,0.005 -0.076,0.002 c -1.797,0 -3.735,-2.328 -3.735,-4.672 0,-1.578 0.922,-2.5 2,-2.5 l 0.047,0.313 c -0.656,0 -1.015,0.593 -1.015,1.531 0,0.875 0.484,2.656 0.797,3.312 0.531,1.125 1.281,1.688 1.906,1.688 1.047,0 1.25,-1.297 1.25,-1.422 0,-0.016 -0.047,-0.234 -0.063,-0.266 L 97.332,20.664 C 97.254,20.398 97.254,20.367 97.035,20.055 96.676,19.617 95.988,18.93 95.238,18.93 l -0.047,-0.313 c 0.875,0 1.625,0.688 2.063,1.203 0.156,-0.937 0.906,-1.203 1.391,-1.203 0.468,0 0.859,0.281 1.14,0.86 0.255,0.531 0.465,1.5 0.465,1.562 0,0.094 -0.06,0.156 -0.15,0.156 -0.143,0 -0.159,-0.078 -0.221,-0.328 -0.234,-0.937 -0.547,-1.937 -1.188,-1.937 -0.468,0 -0.5,0.422 -0.5,0.734 0,0.359 0.047,0.547 0.188,1.156 0.109,0.407 0.203,0.75 0.328,1.219 0.578,2.375 0.719,2.953 0.719,3.047 0,0.219 -0.172,0.391 -0.406,0.391 -0.516,0 -0.641,-0.547 -0.672,-0.75 z"
   id="path37"
   inkscape:connector-curvature="0"
   style="fill:#000000;stroke-width:0" />
<path
   d="m 105.23,22.727 0,0.116 0,0.121 0,0.124 -0.01,0.129 0,0.132 -0.01,0.136 -0.02,0.283 -0.02,0.294 -0.04,0.306 -0.04,0.316 -0.05,0.324 -0.06,0.331 -0.07,0.338 -0.09,0.342 -0.1,0.346 -0.11,0.348 -0.06,0.175 -0.07,0.174 -0.06,0.175 -0.08,0.174 -0.07,0.174 -0.09,0.173 c -0.93,1.906 -2.25,2.937 -2.42,2.937 -0.06,0 -0.14,-0.031 -0.14,-0.125 0,-0.047 0,-0.078 0.27,-0.359 1.59,-1.594 2.48,-4.219 2.48,-7.469 0,-3.078 -0.75,-5.734 -2.59,-7.609 -0.16,-0.141 -0.16,-0.172 -0.16,-0.219 0,-0.094 0.08,-0.125 0.14,-0.125 0.2,0 1.52,1.141 2.3,2.703 0.8,1.61 1.17,3.328 1.17,5.235 z"
   id="path39"
   inkscape:connector-curvature="0"
   style="fill:#000000;stroke-width:0" />
<path
   d="m 116.69,22.445 h 4.4 c 0.22,0 0.5,0 0.5,0.282 0,0.312 -0.27,0.312 -0.5,0.312 h -4.4 v 4.375 c 0,0.234 0,0.516 -0.28,0.516 -0.31,0 -0.31,-0.266 -0.31,-0.516 v -4.375 h -4.39 c -0.22,0 -0.5,0 -0.5,-0.297 0,-0.297 0.27,-0.297 0.5,-0.297 h 4.39 v -4.39 c 0,-0.219 0,-0.5 0.3,-0.5 0.29,0 0.29,0.265 0.29,0.5 z"
   id="path41"
   inkscape:connector-curvature="0"
   style="fill:#000000;stroke-width:0" />
<path
   d="m 128.96,19.539 0,0.042 0,0.042 -0.01,0.04 -0.01,0.04 -0.01,0.039 -0.01,0.037 -0.01,0.037 -0.01,0.036 -0.02,0.035 -0.02,0.034 -0.02,0.033 -0.02,0.031 -0.02,0.031 -0.02,0.029 -0.03,0.028 -0.03,0.027 -0.02,0.025 -0.03,0.024 -0.03,0.022 -0.03,0.022 -0.03,0.019 -0.03,0.018 -0.04,0.017 -0.03,0.015 -0.03,0.013 -0.04,0.012 -0.03,0.01 -0.04,0.008 -0.04,0.007 -0.03,0.005 -0.04,0.002 -0.03,0.001 c -0.46,0 -0.79,-0.39 -0.79,-0.765 0,-0.469 0.4,-0.782 0.77,-0.782 0.47,0 0.78,0.375 0.78,0.766 z"
   id="path43"
   inkscape:connector-curvature="0"
   style="fill:#000000;stroke-width:0" />
<path
   d="m 133.29,19.539 0,0.042 0,0.042 -0.01,0.04 0,0.04 -0.01,0.039 -0.01,0.037 -0.02,0.037 -0.01,0.036 -0.02,0.035 -0.02,0.034 -0.02,0.033 -0.02,0.031 -0.02,0.031 -0.02,0.029 -0.03,0.028 -0.02,0.027 -0.03,0.025 -0.03,0.024 -0.03,0.022 -0.03,0.022 -0.03,0.019 -0.03,0.018 -0.03,0.017 -0.04,0.015 -0.03,0.013 -0.04,0.012 -0.03,0.01 -0.04,0.008 -0.03,0.007 -0.04,0.005 -0.04,0.002 -0.03,0.001 c -0.46,0 -0.78,-0.39 -0.78,-0.765 0,-0.469 0.39,-0.782 0.76,-0.782 0.47,0 0.78,0.375 0.78,0.766 z"
   id="path45"
   inkscape:connector-curvature="0"
   style="fill:#000000;stroke-width:0" />
<path
   d="m 137.62,19.539 0,0.042 0,0.042 0,0.04 -0.01,0.04 -0.01,0.039 -0.01,0.037 -0.02,0.037 -0.01,0.036 -0.02,0.035 -0.01,0.034 -0.02,0.033 -0.02,0.031 -0.03,0.031 -0.02,0.029 -0.03,0.028 -0.02,0.027 -0.03,0.025 -0.03,0.024 -0.03,0.022 -0.03,0.022 -0.03,0.019 -0.03,0.018 -0.03,0.017 -0.04,0.015 -0.03,0.013 -0.04,0.012 -0.03,0.01 -0.04,0.008 -0.03,0.007 -0.04,0.005 -0.03,0.002 -0.04,0.001 c -0.45,0 -0.78,-0.39 -0.78,-0.765 0,-0.469 0.39,-0.782 0.76,-0.782 0.47,0 0.78,0.375 0.78,0.766 z"
   id="path47"
   inkscape:connector-curvature="0"
   style="fill:#000000;stroke-width:0" />
<path
   d="m 148.93,22.445 h 4.39 c 0.22,0 0.5,0 0.5,0.282 0,0.312 -0.26,0.312 -0.5,0.312 h -4.39 v 4.375 c 0,0.234 0,0.516 -0.28,0.516 -0.31,0 -0.31,-0.266 -0.31,-0.516 v -4.375 h -4.39 c -0.22,0 -0.5,0 -0.5,-0.297 0,-0.297 0.26,-0.297 0.5,-0.297 h 4.39 v -4.39 c 0,-0.219 0,-0.5 0.3,-0.5 0.29,0 0.29,0.265 0.29,0.5 z"
   id="path49"
   inkscape:connector-curvature="0"
   style="fill:#000000;stroke-width:0" />
<path
   d="m 165.36,25.164 0.03,0 0.03,0 0.03,0 0.02,10e-4 0.03,0 0.02,0.001 0.02,0.001 0.02,0.002 0.02,0.002 0.02,0.002 0.02,0.003 0.02,0.004 0.02,0.004 0.01,0.005 0.02,0.006 0.01,0.006 0.01,0.008 0.01,0.008 0.01,0.009 0.01,0.011 0.01,0.011 0.01,0.013 0.01,0.013 0.01,0.015 0,0.017 0,0.008 0.01,0.009 0,0.01 0,0.009 0,0.01 0.01,0.011 0,0.011 0,0.011 0,0.012 0,0.012 0,0.012 0,0.013 0,0.013 0,0.014 c 0,0.156 -0.12,0.156 -0.4,0.156 h -1.3 c 0.31,1.641 0.53,2.766 0.65,3.281 0.1,0.375 0.43,0.75 0.85,0.75 0.33,0 0.67,-0.14 0.83,-0.296 -0.63,-0.063 -0.82,-0.516 -0.82,-0.782 0,-0.328 0.24,-0.515 0.55,-0.515 0.31,0 0.78,0.265 0.78,0.875 0,0.672 -0.65,1.031 -1.36,1.031 -0.68,0 -1.36,-0.5 -1.67,-1.125 -0.28,-0.563 -0.44,-1.125 -0.81,-3.219 h -1.06 c -0.3,0 -0.46,0 -0.46,-0.281 0,-0.172 0.1,-0.172 0.41,-0.172 H 163 c -0.28,-1.484 -0.93,-5.078 -1.29,-6.766 -0.28,-1.39 -0.52,-2.546 -1.31,-2.546 -0.05,0 -0.5,0 -0.8,0.296 0.81,0.063 0.81,0.766 0.81,0.782 0,0.312 -0.23,0.515 -0.53,0.515 -0.33,0 -0.8,-0.281 -0.8,-0.875 0,-0.687 0.71,-1.047 1.32,-1.047 1.62,0 2.29,2.922 2.46,3.704 0.29,1.234 1.07,5.453 1.14,5.937 z"
   id="path51"
   inkscape:connector-curvature="0"
   style="fill:#000000;stroke-width:0" />
<path
   d="m 172.84,14.914 0,0.009 0,0.008 -0.01,0.005 0,0.004 0,0.005 0,0.005 0,0.005 0,0.006 -0.01,0.006 0,0.006 0,0.007 -0.01,0.008 0,0.007 -0.01,0.009 -0.01,0.009 0,0.01 -0.01,0.01 -0.01,0.012 -0.01,0.006 0,0.006 -0.01,0.006 -0.01,0.007 0,0.007 -0.01,0.007 -0.01,0.007 0,0.008 -0.01,0.007 -0.01,0.009 -0.01,0.008 0,0.008 -0.01,0.009 -0.01,0.01 -0.01,0.009 -0.01,0.01 -0.01,0.01 -0.01,0.01 -0.01,0.011 -0.02,0.011 -0.01,0.011 -0.01,0.012 -0.01,0.012 -0.02,0.012 c -1.57,1.609 -2.46,4.234 -2.46,7.469 0,3.093 0.73,5.734 2.57,7.625 0.18,0.14 0.18,0.171 0.18,0.218 0,0.094 -0.08,0.125 -0.16,0.125 -0.2,0 -1.5,-1.14 -2.28,-2.703 -0.81,-1.609 -1.17,-3.312 -1.17,-5.265 0,-1.407 0.22,-3.297 1.04,-5 0.94,-1.907 2.24,-2.938 2.41,-2.938 0.08,0 0.16,0.031 0.16,0.125 z"
   id="path53"
   inkscape:connector-curvature="0"
   style="fill:#000000;stroke-width:0" />
<path
   d="m 177.41,29.414 0,0.006 0,0.006 0,0.006 0,0.007 0.01,0.013 0,0.014 0,0.014 0.01,0.015 0,0.015 0.01,0.015 0,0.016 0,0.015 0.01,0.016 0,0.016 0,0.015 0,0.015 0,0.008 0,0.008 0,0.007 0,0.007 c 0,0.157 -0.15,0.157 -0.18,0.157 -0.02,0 -0.6,-0.047 -0.88,-0.078 -0.27,-0.016 -0.51,-0.047 -0.8,-0.063 -0.37,-0.031 -0.5,-0.047 -0.5,-0.344 0,-0.156 0.18,-0.156 0.33,-0.156 0.81,0 0.81,-0.141 0.81,-0.297 0,-0.109 -0.12,-0.578 -0.2,-0.859 l -0.37,-1.531 c -0.16,-0.625 -1.07,-4.235 -1.13,-4.532 -0.08,-0.39 -0.08,-0.656 -0.08,-0.875 0,-1.609 0.91,-2.453 1.94,-2.453 l 0.02,0.313 c -0.52,0 -1.07,0.39 -1.07,1.625 0,0.515 0.05,0.828 0.33,1.937 0.05,0.203 0.3,1.219 0.36,1.438 0.05,0.125 0.99,1.531 2.06,1.531 0.69,0 1.02,-0.703 1.02,-1.516 0,-0.765 -0.45,-2.562 -0.84,-3.39 -0.41,-0.86 -1.13,-1.625 -1.86,-1.625 h 0 l -0.02,-0.313 c 1.84,0 3.75,2.36 3.75,4.672 0,1.453 -0.83,2.5 -2.02,2.5 -0.82,0 -1.57,-0.687 -1.87,-1 z"
   id="path55"
   inkscape:connector-curvature="0"
   style="fill:#000000;stroke-width:0" />
<path
   d="m 184.85,22.727 0,0.116 0,0.121 0,0.124 0,0.129 -0.01,0.132 -0.01,0.136 -0.01,0.283 -0.03,0.294 -0.03,0.306 -0.04,0.316 -0.05,0.324 -0.07,0.331 -0.07,0.338 -0.08,0.342 -0.1,0.346 -0.11,0.348 -0.07,0.175 -0.06,0.174 -0.07,0.175 -0.07,0.174 -0.08,0.174 -0.08,0.173 c -0.94,1.906 -2.25,2.937 -2.42,2.937 -0.07,0 -0.14,-0.031 -0.14,-0.125 0,-0.047 0,-0.078 0.26,-0.359 1.59,-1.594 2.49,-4.219 2.49,-7.469 0,-3.078 -0.75,-5.734 -2.6,-7.609 -0.15,-0.141 -0.15,-0.172 -0.15,-0.219 0,-0.094 0.07,-0.125 0.14,-0.125 0.2,0 1.51,1.141 2.29,2.703 0.8,1.61 1.17,3.328 1.17,5.235 z"
   id="path57"
   inkscape:connector-curvature="0"
   style="fill:#000000;stroke-width:0" />
</g></svg>
