<?xml version="1.0" encoding="UTF-8" standalone="no"?>
<svg
   xmlns:dc="http://purl.org/dc/elements/1.1/"
   xmlns:cc="http://creativecommons.org/ns#"
   xmlns:rdf="http://www.w3.org/1999/02/22-rdf-syntax-ns#"
   xmlns:svg="http://www.w3.org/2000/svg"
   xmlns="http://www.w3.org/2000/svg"
   xmlns:sodipodi="http://sodipodi.sourceforge.net/DTD/sodipodi-0.dtd"
   xmlns:inkscape="http://www.inkscape.org/namespaces/inkscape"
   version="1.1"
   id="body"
   width="201.24872"
   height="104.61259"
   viewBox="0 0 0.27951211 0.14529526"
   preserveAspectRatio="none"
   inkscape:version="0.48.3.1 r9886"
   sodipodi:docname="ch1-Z-G-34.svg">
  <metadata
     id="metadata61">
    <rdf:RDF>
      <cc:Work
         rdf:about="">
        <dc:format>image/svg+xml</dc:format>
        <dc:type
           rdf:resource="http://purl.org/dc/dcmitype/StillImage" />
      </cc:Work>
    </rdf:RDF>
  </metadata>
  <defs
     id="defs59" />
  <sodipodi:namedview
     pagecolor="#ffffff"
     bordercolor="#666666"
     borderopacity="1"
     objecttolerance="10"
     gridtolerance="10"
     guidetolerance="10"
     inkscape:pageopacity="0"
     inkscape:pageshadow="2"
     inkscape:window-width="640"
     inkscape:window-height="480"
     id="namedview57"
     showgrid="false"
     inkscape:zoom="0.32777778"
     inkscape:cx="381.40626"
     inkscape:cy="458.82151"
     inkscape:window-x="0"
     inkscape:window-y="24"
     inkscape:window-maximized="0"
     inkscape:current-layer="body" />
  <title
     id="title3">SVG drawing</title>
  <desc
     id="desc5">This was produced by version 4.4 of GNU libplot, a free library for exporting 2-D vector graphics.</desc>
  <g
     id="content"
     transform="matrix(0.0017361,0,0,-0.0017361,-0.00151909,0.14681434)"
     xml:space="preserve"
     stroke-miterlimit="10.433"
     font-style="normal"
     font-variant="normal"
     font-weight="normal"
     font-stretch="normal"
     font-size-adjust="none"
     letter-spacing="normal"
     word-spacing="normal"
     style="font-style:normal;font-variant:normal;font-weight:normal;font-stretch:normal;letter-spacing:normal;word-spacing:normal;text-anchor:start;fill:none;stroke:#000000;stroke-linecap:butt;stroke-linejoin:miter;stroke-miterlimit:10.43299961;stroke-opacity:1;stroke-dasharray:none;stroke-dashoffset:0">
<path
   d="m 7.2109,68.086 0.0288,0 0.0277,0 0.0265,0 0.0256,0 0.0244,0.001 0.0235,10e-4 0.0224,0.001 0.0213,0.002 0.0204,0.002 0.0194,0.002 0.0184,0.003 0.0174,0.004 0.0165,0.004 0.0155,0.005 0.0145,0.005 0.0137,0.007 0.0127,0.007 0.0118,0.009 0.011,0.009 0.01,0.01 0.0092,0.012 0.0083,0.012 0.0075,0.014 0.0066,0.015 0.0058,0.016 0.0026,0.009 0.0024,0.009 0.0022,0.01 0.002,0.009 0.0019,0.01 0.0016,0.011 0.0014,0.011 0.0012,0.011 10e-4,0.012 9e-4,0.012 6e-4,0.012 5e-4,0.013 2e-4,0.013 10e-5,0.014 c 0,0.156 -0.125,0.156 -0.4062,0.156 H 5.9453 c 0.3125,1.641 0.5313,2.766 0.6563,3.281 0.0937,0.375 0.4218,0.75 0.8437,0.75 0.3281,0 0.6719,-0.14 0.8281,-0.297 -0.625,-0.062 -0.8125,-0.515 -0.8125,-0.781 0,-0.328 0.2344,-0.515 0.5469,-0.515 0.3125,0 0.7813,0.265 0.7813,0.875 0,0.671 -0.6563,1.031 -1.3594,1.031 -0.6875,0 -1.3594,-0.5 -1.6719,-1.125 C 5.4766,71.195 5.3203,70.633 4.9453,68.539 H 3.8828 c -0.2969,0 -0.4531,0 -0.4531,-0.281 0,-0.172 0.0937,-0.172 0.4062,-0.172 H 4.8516 C 4.5703,66.602 3.9141,63.008 3.5547,61.32 3.2734,59.93 3.0391,58.773 2.2422,58.773 c -0.0469,0 -0.5,0 -0.7969,0.297 0.8125,0.063 0.8125,0.766 0.8125,0.782 0,0.312 -0.2344,0.515 -0.5312,0.515 -0.3282,0 -0.79691,-0.281 -0.79691,-0.875 0,-0.687 0.70311,-1.047 1.31251,-1.047 1.625,0 2.2969,2.922 2.4687,3.703 0.2813,1.235 1.0625,5.454 1.1407,5.938 z"
   id="path9"
   inkscape:connector-curvature="0"
   style="fill:#000000;stroke-width:0" />
<path
   d="m 24.676,66.852 0.041,0 0.043,0 0.043,10e-4 0.022,0.002 0.021,10e-4 0.022,0.002 0.021,0.002 0.021,0.003 0.02,0.003 0.02,0.004 0.02,0.005 0.019,0.006 0.019,0.006 0.018,0.007 0.017,0.008 0.017,0.008 0.015,0.01 0.015,0.011 0.014,0.012 0.013,0.013 0.011,0.014 0.006,0.008 0.005,0.008 0.005,0.008 0.004,0.008 0.005,0.009 0.004,0.01 0.003,0.009 0.003,0.01 0.003,0.01 0.003,0.011 0.002,0.011 0.002,0.011 0.001,0.012 0.001,0.012 10e-4,0.013 0,0.013 c 0,0.297 -0.266,0.297 -0.5,0.297 h -9.375 c -0.219,0 -0.5,0 -0.5,-0.282 0,-0.296 0.265,-0.296 0.5,-0.296 z"
   id="path11"
   inkscape:connector-curvature="0"
   style="fill:#000000;stroke-width:0" />
<path
   d="m 24.676,63.883 0.041,0 0.043,0 0.043,0.002 0.022,0.001 0.021,10e-4 0.022,0.002 0.021,0.003 0.021,0.003 0.02,0.003 0.02,0.005 0.02,0.005 0.019,0.005 0.019,0.007 0.018,0.007 0.017,0.009 0.017,0.009 0.015,0.01 0.015,0.012 0.014,0.012 0.013,0.014 0.011,0.015 0.006,0.008 0.005,0.008 0.005,0.009 0.004,0.009 0.005,0.009 0.004,0.01 0.003,0.01 0.003,0.011 0.003,0.011 0.003,0.011 0.002,0.011 0.002,0.012 0.001,0.013 0.001,0.013 10e-4,0.013 0,0.014 c 0,0.297 -0.266,0.297 -0.5,0.297 h -9.375 c -0.219,0 -0.5,0 -0.5,-0.282 0,-0.312 0.265,-0.312 0.5,-0.312 z"
   id="path13"
   inkscape:connector-curvature="0"
   style="fill:#000000;stroke-width:0" />
<path
   d="m 99.27,82.84 0.016,0.064 0.017,0.062 0.018,0.061 0.018,0.06 0.02,0.058 0.021,0.057 0.023,0.055 0.024,0.054 0.026,0.052 0.028,0.051 0.03,0.049 0.032,0.047 0.034,0.046 0.038,0.044 0.039,0.042 0.043,0.04 0.046,0.038 0.049,0.036 0.053,0.035 0.056,0.032 0.06,0.03 0.059,0.029 0.07,0.026 0.07,0.024 0.08,0.022 0.08,0.019 0.09,0.018 0.09,0.015 0.09,0.013 0.1,0.01 0.11,0.008 0.05,0.003 0.06,0.003 c 0.05,0 0.23,0.016 0.23,0.297 0,0.172 -0.14,0.172 -0.2,0.172 -0.33,0 -1.139,-0.032 -1.452,-0.032 h -0.765 c -0.219,0 -0.5,0.032 -0.735,0.032 -0.093,0 -0.281,0 -0.281,-0.313 0,-0.156 0.125,-0.156 0.234,-0.156 0.954,-0.031 1.016,-0.391 1.016,-0.672 0,-0.156 -0.016,-0.203 -0.062,-0.422 l -1.797,-7.172 -3.391,8.453 c -0.109,0.266 -0.125,0.282 -0.484,0.282 h -1.938 c -0.312,0 -0.453,0 -0.453,-0.313 0,-0.156 0.109,-0.156 0.406,-0.156 0.078,0 1.016,0 1.016,-0.141 0,-0.031 -0.031,-0.156 -0.047,-0.203 l -2.109,-8.422 c -0.188,-0.781 -0.578,-1.109 -1.625,-1.172 -0.078,0 -0.235,-0.015 -0.235,-0.296 0,-0.157 0.157,-0.157 0.203,-0.157 0.313,0 1.125,0.032 1.454,0.032 h 0.75 c 0.234,0 0.5,-0.032 0.718,-0.032 0.11,0 0.282,0 0.282,0.297 0,0.141 -0.157,0.156 -0.219,0.156 -0.516,0.032 -1.031,0.125 -1.031,0.688 0,0.125 0.031,0.281 0.062,0.406 l 2.156,8.5 c 0.094,-0.156 0.094,-0.187 0.157,-0.328 l 3.781,-9.437 c 0.078,-0.188 0.109,-0.282 0.25,-0.282 0.156,0 0.172,0.047 0.234,0.313 z"
   id="path15"
   inkscape:connector-curvature="0"
   style="fill:#000000;stroke-width:0" />
<path
   d="m 103.29,78.402 0,0.013 -0.01,0.012 0,0.011 0,0.011 0,0.011 0,0.011 0,0.01 0,0.01 0,0.01 0,0.009 0,0.01 0,0.008 0,0.017 0,0.016 0,0.014 0,0.014 -0.01,0.012 0,0.012 0,0.011 -0.01,0.009 0,0.009 -0.01,0.008 0,0.008 -0.01,0.006 -0.01,0.006 -0.01,0.005 -0.01,0.005 -0.01,0.002 0,0.002 -0.01,0.002 0,10e-4 -0.01,0.002 -0.01,0.001 0,0.001 -0.01,0.002 -0.01,0.001 -0.01,10e-4 -0.01,0 0,0.001 -0.01,0.001 -0.01,0 -0.01,10e-4 -0.01,0 -0.01,0.001 -0.01,0 -0.01,0 -0.02,0 -0.01,0 -0.01,0 C 102.33,77.98 101.35,77.98 101,77.98 v -0.343 c 0.22,0 0.88,0 1.46,0.281 v -5.781 c 0,-0.391 -0.03,-0.532 -1.03,-0.532 h -0.36 v -0.343 c 0.39,0.031 1.36,0.031 1.79,0.031 0.46,0 1.43,0 1.82,-0.031 v 0.343 h -0.36 c -1,0 -1.03,0.125 -1.03,0.532 z"
   id="path17"
   inkscape:connector-curvature="0"
   style="fill:#000000;stroke-width:0" />
<line
   x1="31.702999"
   y1="65.68"
   x2="161.88"
   y2="65.68"
   id="line19"
   style="stroke-width:0.63800001" />
<path
   d="M 34.203,39.277 34.19,39.227 34.178,39.179 34.165,39.133 34.153,39.089 34.141,39.048 34.128,39.008 34.114,38.97 34.099,38.934 34.084,38.9 34.067,38.868 34.048,38.838 34.028,38.81 34.005,38.783 33.981,38.758 33.954,38.735 33.924,38.713 33.891,38.693 33.855,38.674 33.816,38.657 33.774,38.642 33.728,38.628 33.677,38.615 33.65,38.609 33.623,38.604 33.594,38.599 33.564,38.594 33.532,38.59 33.5,38.585 33.466,38.582 33.432,38.578 33.395,38.575 33.358,38.572 33.319,38.569 33.279,38.567 33.238,38.565 33.195,38.563 33.15,38.562 33.105,38.561 33.057,38.56 l -0.048,-0.001 -0.051,0 -0.052,0 c -0.297,0 -0.453,0 -0.453,-0.282 0,-0.172 0.094,-0.172 0.406,-0.172 h 5.047 l -0.265,0.454 h -1.813 c -0.219,0 -0.25,0 -0.344,0.031 -0.172,0.015 -0.187,0.047 -0.187,0.172 0,0.109 0.031,0.203 0.062,0.343 l 2.188,8.782 c 0.141,0.578 0.219,0.609 0.828,0.609 h 1.75 c 1.5,0 2.859,-0.812 2.859,-3 0,-0.797 -0.312,-3.562 -1.859,-5.312 -0.437,-0.516 -1.656,-1.625 -3.484,-1.625 l 0.265,-0.454 c 3.203,0 6.344,3.329 6.344,6.86 0,2.297 -1.375,4 -3.641,4 H 35.5 c -0.297,0 -0.438,0 -0.438,-0.313 0,-0.156 0.141,-0.156 0.376,-0.156 0.968,0 0.968,-0.125 0.968,-0.297 0,-0.031 0,-0.125 -0.062,-0.359 z"
   id="path21"
   inkscape:connector-curvature="0"
   style="fill:#000000;stroke-width:0" />
<path
   d="m 47.945,42.855 0,0.013 0,0.012 0,0.011 0,0.012 0,0.011 0,0.01 0,0.011 0,0.01 0,0.009 -10e-4,0.01 0,0.009 0,0.009 -0.001,0.016 -0.002,0.016 -0.002,0.014 -0.002,0.014 -0.002,0.013 -0.004,0.011 -0.004,0.011 -0.004,0.01 -0.005,0.008 -0.006,0.009 -0.007,0.007 -0.007,0.006 -0.008,0.006 -0.01,0.005 -0.01,0.005 -0.005,0.002 -0.006,0.002 -0.006,0.002 -0.006,10e-4 -0.007,0.002 -0.007,10e-4 -0.007,0.002 -0.007,10e-4 -0.008,10e-4 -0.008,0.001 -0.009,10e-4 -0.008,0 -0.009,10e-4 -0.01,0 -0.009,0.001 -0.01,0 -0.011,10e-4 -0.011,0 -0.011,0 -0.011,0 -0.012,0 -0.012,0 C 46.992,42.434 46.008,42.434 45.664,42.434 V 42.09 c 0.219,0 0.875,0 1.453,0.281 V 36.59 c 0,-0.391 -0.031,-0.531 -1.031,-0.531 h -0.359 v -0.344 c 0.39,0.031 1.359,0.031 1.796,0.031 0.454,0 1.422,0 1.813,-0.031 v 0.344 h -0.359 c -1,0 -1.032,0.125 -1.032,0.531 z"
   id="path23"
   inkscape:connector-curvature="0"
   style="fill:#000000;stroke-width:0" />
<path
   d="m 60.625,41.777 h 4.391 c 0.218,0 0.5,0 0.5,0.282 0,0.312 -0.266,0.312 -0.5,0.312 h -4.391 v 4.375 c 0,0.234 0,0.516 -0.281,0.516 -0.313,0 -0.313,-0.266 -0.313,-0.516 v -4.375 h -4.39 c -0.219,0 -0.5,0 -0.5,-0.297 0,-0.297 0.265,-0.297 0.5,-0.297 h 4.39 v -4.39 c 0,-0.219 0,-0.5 0.297,-0.5 0.297,0 0.297,0.265 0.297,0.5 z"
   id="path25"
   inkscape:connector-curvature="0"
   style="fill:#000000;stroke-width:0" />
<path
   d="m 119,59.246 0.02,0.064 0.01,0.062 0.02,0.062 0.02,0.059 0.02,0.059 0.02,0.056 0.02,0.056 0.03,0.054 0.02,0.052 0.03,0.05 0.03,0.049 0.03,0.048 0.04,0.045 0.04,0.044 0.04,0.042 0.04,0.04 0.04,0.038 0.05,0.036 0.06,0.035 0.05,0.032 0.06,0.031 0.06,0.028 0.07,0.026 0.07,0.024 0.08,0.022 0.08,0.02 0.09,0.017 0.09,0.015 0.09,0.013 0.1,0.011 0.11,0.008 0.05,0.003 0.06,0.002 c 0.05,0 0.24,0.016 0.24,0.297 0,0.172 -0.15,0.172 -0.21,0.172 -0.33,0 -1.14,-0.031 -1.45,-0.031 h -0.77 c -0.22,0 -0.5,0.031 -0.73,0.031 -0.1,0 -0.28,0 -0.28,-0.313 0,-0.156 0.12,-0.156 0.23,-0.156 0.95,-0.031 1.02,-0.39 1.02,-0.672 0,-0.156 -0.02,-0.203 -0.07,-0.422 l -1.79,-7.171 -3.39,8.453 c -0.11,0.265 -0.13,0.281 -0.49,0.281 h -1.93 c -0.32,0 -0.46,0 -0.46,-0.313 0,-0.156 0.11,-0.156 0.41,-0.156 0.08,0 1.01,0 1.01,-0.14 0,-0.032 -0.03,-0.157 -0.04,-0.204 l -2.11,-8.421 c -0.19,-0.782 -0.58,-1.11 -1.63,-1.172 -0.08,0 -0.23,-0.016 -0.23,-0.297 0,-0.156 0.15,-0.156 0.2,-0.156 0.31,0 1.13,0.031 1.45,0.031 h 0.76 c 0.23,0 0.5,-0.031 0.71,-0.031 0.11,0 0.29,0 0.29,0.296 0,0.141 -0.16,0.157 -0.22,0.157 -0.52,0.031 -1.04,0.125 -1.04,0.687 0,0.125 0.04,0.281 0.07,0.406 l 2.15,8.5 c 0.1,-0.156 0.1,-0.187 0.16,-0.328 l 3.78,-9.437 c 0.08,-0.188 0.11,-0.281 0.25,-0.281 0.16,0 0.17,0.046 0.24,0.312 z"
   id="path27"
   inkscape:connector-curvature="0"
   style="fill:#000000;stroke-width:0" />
<path
   d="m 121.15,48.527 1.17,1.157 c 1.75,1.531 2.43,2.14 2.43,3.25 0,1.265 -1.02,2.171 -2.38,2.171 -1.25,0 -2.08,-1.031 -2.08,-2.031 0,-0.625 0.55,-0.625 0.6,-0.625 0.18,0 0.57,0.141 0.57,0.594 0,0.297 -0.2,0.578 -0.59,0.578 -0.09,0 -0.11,0 -0.14,0 0.25,0.719 0.86,1.125 1.5,1.125 1.02,0 1.5,-0.891 1.5,-1.812 0,-0.891 -0.56,-1.782 -1.17,-2.469 l -2.14,-2.391 c -0.13,-0.109 -0.13,-0.14 -0.13,-0.406 h 4.14 l 0.32,1.937 h -0.29 c -0.06,-0.328 -0.14,-0.828 -0.25,-0.984 -0.07,-0.094 -0.81,-0.094 -1.06,-0.094 z"
   id="path29"
   inkscape:connector-curvature="0"
   style="fill:#000000;stroke-width:0" />
<line
   x1="71.160004"
   y1="42.09"
   x2="161.88"
   y2="42.09"
   id="line31"
   style="stroke-width:0.63800001" />
<path
   d="M 73.66,15.684 73.647,15.633 73.635,15.585 73.623,15.54 73.61,15.496 73.598,15.454 73.585,15.414 73.571,15.376 73.556,15.341 73.541,15.307 73.524,15.275 73.505,15.244 73.485,15.216 73.462,15.189 73.438,15.164 73.411,15.141 73.381,15.119 73.348,15.099 73.313,15.081 73.274,15.064 73.231,15.048 73.185,15.034 73.134,15.021 73.108,15.016 73.08,15.01 73.051,15.005 73.021,15 72.99,14.996 l -0.033,-0.004 -0.033,-0.004 -0.035,-0.004 -0.036,-0.003 -0.038,-0.003 -0.039,-0.002 -0.04,-0.003 -0.041,-0.002 -0.043,-0.002 -0.044,-10e-4 -0.046,-10e-4 -0.048,-0.001 -0.048,-10e-4 -0.051,0 -0.052,0 c -0.297,0 -0.453,0 -0.453,-0.281 0,-0.172 0.094,-0.172 0.406,-0.172 h 5.047 l -0.265,0.453 h -1.813 c -0.219,0 -0.25,0 -0.344,0.031 -0.171,0.016 -0.187,0.047 -0.187,0.172 0,0.109 0.031,0.203 0.062,0.344 l 2.188,8.781 c 0.141,0.578 0.219,0.609 0.828,0.609 h 1.75 c 1.5,0 2.859,-0.812 2.859,-3 0,-0.797 -0.312,-3.562 -1.859,-5.312 -0.437,-0.516 -1.656,-1.625 -3.484,-1.625 l 0.265,-0.453 c 3.203,0 6.344,3.328 6.344,6.859 0,2.297 -1.375,4 -3.641,4 h -5.109 c -0.297,0 -0.437,0 -0.437,-0.312 0,-0.157 0.14,-0.157 0.375,-0.157 0.968,0 0.968,-0.125 0.968,-0.297 0,-0.031 0,-0.125 -0.062,-0.359 z"
   id="path33"
   inkscape:connector-curvature="0"
   style="fill:#000000;stroke-width:0" />
<path
   d="m 85.539,12.981 1.172,1.156 c 1.75,1.531 2.422,2.14 2.422,3.25 0,1.265 -1.016,2.172 -2.375,2.172 -1.25,0 -2.078,-1.032 -2.078,-2.032 0,-0.625 0.547,-0.625 0.593,-0.625 0.188,0 0.579,0.141 0.579,0.594 0,0.297 -0.204,0.578 -0.594,0.578 -0.094,0 -0.11,0 -0.141,0 0.25,0.719 0.86,1.125 1.5,1.125 1.016,0 1.5,-0.89 1.5,-1.812 0,-0.891 -0.562,-1.781 -1.172,-2.469 l -2.14,-2.391 C 84.68,12.418 84.68,12.387 84.68,12.121 h 4.14 l 0.313,1.938 h -0.281 c -0.063,-0.328 -0.141,-0.828 -0.25,-0.985 -0.079,-0.093 -0.813,-0.093 -1.063,-0.093 z"
   id="path35"
   inkscape:connector-curvature="0"
   style="fill:#000000;stroke-width:0" />
<path
   d="m 100.08,18.184 h 4.39 c 0.22,0 0.5,0 0.5,0.281 0,0.312 -0.26,0.312 -0.5,0.312 h -4.39 v 4.375 c 0,0.235 0,0.516 -0.279,0.516 -0.313,0 -0.313,-0.266 -0.313,-0.516 v -4.375 h -4.39 c -0.219,0 -0.5,0 -0.5,-0.297 0,-0.296 0.265,-0.296 0.5,-0.296 h 4.39 v -4.391 c 0,-0.219 0,-0.5 0.297,-0.5 0.295,0 0.295,0.266 0.295,0.5 z"
   id="path37"
   inkscape:connector-curvature="0"
   style="fill:#000000;stroke-width:0" />
<path
   d="m 138.73,35.656 0.01,0.064 0.02,0.063 0.02,0.061 0.02,0.059 0.02,0.059 0.02,0.057 0.02,0.055 0.02,0.054 0.03,0.052 0.03,0.051 0.03,0.048 0.03,0.048 0.03,0.045 0.04,0.044 0.04,0.042 0.04,0.04 0.05,0.038 0.05,0.037 0.05,0.034 0.06,0.032 0.06,0.031 0.06,0.028 0.07,0.026 0.07,0.024 0.08,0.022 0.08,0.02 0.08,0.017 0.09,0.015 0.1,0.013 0.1,0.011 0.11,0.008 0.05,0.003 0.06,0.002 c 0.04,0 0.23,0.016 0.23,0.297 0,0.172 -0.14,0.172 -0.2,0.172 -0.33,0 -1.14,-0.031 -1.45,-0.031 h -0.77 c -0.22,0 -0.5,0.031 -0.73,0.031 -0.1,0 -0.29,0 -0.29,-0.312 0,-0.157 0.13,-0.157 0.24,-0.157 0.95,-0.031 1.01,-0.39 1.01,-0.671 0,-0.157 -0.01,-0.204 -0.06,-0.422 l -1.8,-7.172 -3.39,8.453 c -0.11,0.265 -0.12,0.281 -0.48,0.281 h -1.94 c -0.31,0 -0.45,0 -0.45,-0.312 0,-0.157 0.11,-0.157 0.41,-0.157 0.07,0 1.01,0 1.01,-0.14 0,-0.031 -0.03,-0.157 -0.05,-0.203 l -2.11,-8.422 c -0.18,-0.782 -0.57,-1.11 -1.62,-1.172 -0.08,0 -0.24,-0.016 -0.24,-0.297 0,-0.156 0.16,-0.156 0.21,-0.156 0.31,0 1.12,0.031 1.45,0.031 h 0.75 c 0.24,0 0.5,-0.031 0.72,-0.031 0.11,0 0.28,0 0.28,0.297 0,0.14 -0.15,0.156 -0.22,0.156 -0.51,0.031 -1.03,0.125 -1.03,0.687 0,0.125 0.03,0.282 0.06,0.407 l 2.16,8.5 c 0.09,-0.157 0.09,-0.188 0.16,-0.328 l 3.78,-9.438 c 0.08,-0.188 0.11,-0.281 0.25,-0.281 0.15,0 0.17,0.047 0.23,0.312 z"
   id="path39"
   inkscape:connector-curvature="0"
   style="fill:#000000;stroke-width:0" />
<path
   d="m 142.69,28 0.09,0.031 0.08,0.033 0.08,0.036 0.08,0.038 0.08,0.041 0.08,0.044 0.07,0.045 0.07,0.048 0.07,0.051 0.07,0.052 0.07,0.054 0.06,0.057 0.06,0.058 0.06,0.06 0.06,0.062 0.05,0.063 0.05,0.066 0.05,0.067 0.04,0.068 0.04,0.07 0.04,0.071 0.04,0.072 0.03,0.074 0.03,0.075 0.03,0.076 0.02,0.077 0.02,0.078 0.01,0.079 0.02,0.079 0.01,0.081 0,0.081 0,0.082 c 0,0.922 -0.98,1.547 -2.04,1.547 -1.13,0 -1.99,-0.672 -1.99,-1.532 0,-0.359 0.25,-0.578 0.58,-0.578 0.35,0 0.56,0.25 0.56,0.578 0,0.547 -0.51,0.547 -0.68,0.547 0.34,0.547 1.07,0.703 1.48,0.703 0.45,0 1.06,-0.25 1.06,-1.25 0,-0.14 -0.01,-0.781 -0.31,-1.281 -0.33,-0.531 -0.7,-0.562 -0.98,-0.578 -0.1,-0.016 -0.36,-0.031 -0.44,-0.031 -0.09,-0.016 -0.17,-0.016 -0.17,-0.141 0,-0.109 0.08,-0.109 0.26,-0.109 h 0.5 c 0.91,0 1.33,-0.766 1.33,-1.86 0,-1.515 -0.78,-1.843 -1.26,-1.843 -0.49,0 -1.32,0.187 -1.71,0.859 0.39,-0.062 0.74,0.188 0.74,0.609 0,0.407 -0.3,0.625 -0.63,0.625 -0.26,0 -0.62,-0.156 -0.62,-0.656 0,-1.016 1.03,-1.75 2.25,-1.75 1.36,0 2.37,1.016 2.37,2.156 0,0.922 -0.7,1.782 -1.86,2.016 z"
   id="path41"
   inkscape:connector-curvature="0"
   style="fill:#000000;stroke-width:0" />
<line
   x1="110.61"
   y1="18.496"
   x2="161.88"
   y2="18.496"
   id="line43"
   style="stroke-width:0.63800001" />
<path
   d="M 113.11,4.75 113.1,4.6998 113.09,4.6518 113.08,4.6059 113.06,4.5621 113.05,4.5203 113.04,4.4806 113.02,4.4428 113.01,4.407 112.99,4.373 112.98,4.341 112.96,4.3107 112.94,4.2823 112.92,4.2555 112.89,4.2305 112.86,4.2072 112.83,4.1855 112.8,4.1655 112.77,4.147 112.73,4.13 112.68,4.1145 112.64,4.1004 112.59,4.0878 112.56,4.082 112.53,4.0766 112.5,4.0714 112.47,4.0666 112.44,4.0622 112.41,4.058 112.38,4.0542 112.34,4.0507 112.31,4.0475 112.27,4.0446 112.23,4.042 l -0.04,-0.0023 -0.04,-0.002 -0.05,-0.0018 -0.04,-0.0014 -0.05,-0.0012 -0.04,-9e-4 -0.05,-6e-4 -0.05,-4e-4 -0.05,-2e-4 c -0.3,0 -0.46,0 -0.46,-0.2812 0,-0.1719 0.1,-0.1719 0.41,-0.1719 h 5.05 l -0.27,0.4531 h -1.81 c -0.22,0 -0.25,0 -0.35,0.0313 -0.17,0.0156 -0.18,0.0469 -0.18,0.1719 0,0.1094 0.03,0.2031 0.06,0.3437 l 2.19,8.7809 c 0.14,0.579 0.22,0.61 0.83,0.61 h 1.75 c 1.5,0 2.85,-0.813 2.85,-3 0,-0.797 -0.31,-3.5628 -1.85,-5.3128 -0.44,-0.5156 -1.66,-1.625 -3.49,-1.625 l 0.27,-0.4531 c 3.2,0 6.34,3.3281 6.34,6.8599 0,2.296 -1.37,4 -3.64,4 h -5.11 c -0.3,0 -0.44,0 -0.44,-0.313 0,-0.156 0.14,-0.156 0.38,-0.156 0.97,0 0.97,-0.125 0.97,-0.297 0,-0.031 0,-0.125 -0.07,-0.36 z"
   id="path45"
   inkscape:connector-curvature="0"
   style="fill:#000000;stroke-width:0" />
<path
   d="m 126.81,5.1094 0.08,0.0306 0.09,0.0334 0.08,0.0359 0.08,0.0385 0.08,0.041 0.08,0.0433 0.07,0.0457 0.07,0.048 0.07,0.0501 0.07,0.0523 0.06,0.0544 0.07,0.0563 0.06,0.0583 0.06,0.0601 0.05,0.0619 0.06,0.0636 0.05,0.0653 0.04,0.0668 0.05,0.0684 0.04,0.0698 0.04,0.0711 0.03,0.0725 0.04,0.0737 0.03,0.0749 0.02,0.076 0.03,0.077 0.02,0.078 0.01,0.0788 0.01,0.0797 0.01,0.0804 0.01,0.0812 0,0.0817 c 0,0.9219 -0.98,1.5469 -2.05,1.5469 -1.12,0 -1.98,-0.6719 -1.98,-1.5312 0,-0.3594 0.25,-0.5782 0.58,-0.5782 0.34,0 0.56,0.25 0.56,0.5782 0,0.5468 -0.52,0.5468 -0.69,0.5468 0.35,0.5469 1.08,0.7032 1.49,0.7032 0.45,0 1.06,-0.25 1.06,-1.25 0,-0.1407 -0.02,-0.7813 -0.31,-1.2813 -0.33,-0.5313 -0.71,-0.5625 -0.99,-0.5781 -0.09,-0.0156 -0.36,-0.0313 -0.43,-0.0313 -0.1,-0.0156 -0.18,-0.0156 -0.18,-0.1406 0,-0.1094 0.08,-0.1094 0.27,-0.1094 h 0.5 c 0.91,0 1.33,-0.7656 1.33,-1.8593 0,-1.5157 -0.78,-1.8438 -1.27,-1.8438 -0.48,0 -1.31,0.1875 -1.7,0.8594 0.39,-0.0625 0.73,0.1875 0.73,0.6094 0,0.4062 -0.29,0.625 -0.62,0.625 -0.27,0 -0.63,-0.1563 -0.63,-0.6563 0,-1.0156 1.03,-1.75 2.25,-1.75 1.36,0 2.38,1.0156 2.38,2.1563 0,0.9218 -0.71,1.7812 -1.86,2.0156 z"
   id="path47"
   inkscape:connector-curvature="0"
   style="fill:#000000;stroke-width:0" />
<path
   d="m 139.54,7.25 h 4.39 c 0.22,0 0.5,0 0.5,0.2812 0,0.3126 -0.27,0.3126 -0.5,0.3126 h -4.39 v 4.3752 c 0,0.234 0,0.515 -0.28,0.515 -0.31,0 -0.31,-0.265 -0.31,-0.515 V 7.8438 h -4.4 c -0.21,0 -0.5,0 -0.5,-0.2969 0,-0.2969 0.27,-0.2969 0.5,-0.2969 h 4.4 V 2.8594 c 0,-0.2188 0,-0.5 0.29,-0.5 0.3,0 0.3,0.2656 0.3,0.5 z"
   id="path49"
   inkscape:connector-curvature="0"
   style="fill:#000000;stroke-width:0" />
<path
   d="m 151.8,4.3438 0,0.0421 -0.01,0.0413 0,0.0405 -0.01,0.0397 -0.01,0.0388 -0.01,0.0379 -0.01,0.0369 -0.02,0.036 -0.01,0.0349 -0.02,0.0338 -0.02,0.0328 -0.02,0.0316 -0.02,0.0304 -0.03,0.0292 -0.02,0.0279 -0.03,0.0267 -0.03,0.0253 -0.03,0.024 -0.02,0.0226 -0.03,0.0211 -0.04,0.0196 -0.03,0.0182 -0.03,0.0166 -0.03,0.015 -0.04,0.0133 -0.03,0.0117 -0.04,0.01 -0.03,0.0083 -0.04,0.0065 -0.04,0.0047 -0.03,0.0028 -0.04,0.001 c -0.45,0 -0.78,-0.3906 -0.78,-0.7656 0,-0.4688 0.39,-0.7813 0.77,-0.7813 0.46,0 0.78,0.375 0.78,0.7657 z"
   id="path51"
   inkscape:connector-curvature="0"
   style="fill:#000000;stroke-width:0" />
<path
   d="m 156.13,4.3438 0,0.0421 -0.01,0.0413 0,0.0405 -0.01,0.0397 -0.01,0.0388 -0.01,0.0379 -0.01,0.0369 -0.02,0.036 -0.01,0.0349 -0.02,0.0338 -0.02,0.0328 -0.02,0.0316 -0.02,0.0304 -0.03,0.0292 -0.02,0.0279 -0.03,0.0267 -0.02,0.0253 -0.03,0.024 -0.03,0.0226 -0.03,0.0211 -0.03,0.0196 -0.04,0.0182 -0.03,0.0166 -0.03,0.015 -0.04,0.0133 -0.03,0.0117 -0.04,0.01 -0.03,0.0083 -0.04,0.0065 -0.03,0.0047 -0.04,0.0028 -0.04,0.001 c -0.45,0 -0.78,-0.3906 -0.78,-0.7656 0,-0.4688 0.39,-0.7813 0.77,-0.7813 0.47,0 0.78,0.375 0.78,0.7657 z"
   id="path53"
   inkscape:connector-curvature="0"
   style="fill:#000000;stroke-width:0" />
<path
   d="m 160.46,4.3438 0,0.0421 0,0.0413 -0.01,0.0405 -0.01,0.0397 -0.01,0.0388 -0.01,0.0379 -0.01,0.0369 -0.01,0.036 -0.02,0.0349 -0.02,0.0338 -0.02,0.0328 -0.02,0.0316 -0.02,0.0304 -0.02,0.0292 -0.03,0.0279 -0.03,0.0267 -0.02,0.0253 -0.03,0.024 -0.03,0.0226 -0.03,0.0211 -0.03,0.0196 -0.03,0.0182 -0.04,0.0166 -0.03,0.015 -0.03,0.0133 -0.04,0.0117 -0.03,0.01 -0.04,0.0083 -0.04,0.0065 -0.03,0.0047 -0.04,0.0028 -0.03,0.001 c -0.46,0 -0.79,-0.3906 -0.79,-0.7656 0,-0.4688 0.39,-0.7813 0.77,-0.7813 0.47,0 0.78,0.375 0.78,0.7657 z"
   id="path55"
   inkscape:connector-curvature="0"
   style="fill:#000000;stroke-width:0" />
</g></svg>
