<?xml version="1.0" encoding="UTF-8" standalone="no"?>
<svg
   xmlns:dc="http://purl.org/dc/elements/1.1/"
   xmlns:cc="http://creativecommons.org/ns#"
   xmlns:rdf="http://www.w3.org/1999/02/22-rdf-syntax-ns#"
   xmlns:svg="http://www.w3.org/2000/svg"
   xmlns="http://www.w3.org/2000/svg"
   xmlns:sodipodi="http://sodipodi.sourceforge.net/DTD/sodipodi-0.dtd"
   xmlns:inkscape="http://www.inkscape.org/namespaces/inkscape"
   version="1.1"
   id="body"
   width="128.43668"
   height="47.148136"
   viewBox="0 0 0.17838427 0.065483522"
   preserveAspectRatio="none"
   inkscape:version="0.48.3.1 r9886"
   sodipodi:docname="ch2-Z-G-7.svg">
  <metadata
     id="metadata57">
    <rdf:RDF>
      <cc:Work
         rdf:about="">
        <dc:format>image/svg+xml</dc:format>
        <dc:type
           rdf:resource="http://purl.org/dc/dcmitype/StillImage" />
      </cc:Work>
    </rdf:RDF>
  </metadata>
  <defs
     id="defs55" />
  <sodipodi:namedview
     pagecolor="#ffffff"
     bordercolor="#666666"
     borderopacity="1"
     objecttolerance="10"
     gridtolerance="10"
     guidetolerance="10"
     inkscape:pageopacity="0"
     inkscape:pageshadow="2"
     inkscape:window-width="640"
     inkscape:window-height="480"
     id="namedview53"
     showgrid="false"
     inkscape:zoom="0.32777778"
     inkscape:cx="381.71875"
     inkscape:cy="459.48557"
     inkscape:window-x="0"
     inkscape:window-y="24"
     inkscape:window-maximized="0"
     inkscape:current-layer="body" />
  <title
     id="title3">SVG drawing</title>
  <desc
     id="desc5">This was produced by version 4.4 of GNU libplot, a free library for exporting 2-D vector graphics.</desc>
  <g
     id="content"
     transform="matrix(0.0017361,0,0,-0.0017361,-0.00108506,0.06608031)"
     xml:space="preserve"
     stroke-miterlimit="10.433"
     font-style="normal"
     font-variant="normal"
     font-weight="normal"
     font-stretch="normal"
     font-size-adjust="none"
     letter-spacing="normal"
     word-spacing="normal"
     style="font-style:normal;font-variant:normal;font-weight:normal;font-stretch:normal;letter-spacing:normal;word-spacing:normal;text-anchor:start;fill:none;stroke:#000000;stroke-linecap:butt;stroke-linejoin:miter;stroke-miterlimit:10.43299961;stroke-opacity:1;stroke-dasharray:none;stroke-dashoffset:0">
<path
   d="m 6.8945,22.234 0,0.009 -5e-4,0.009 -5e-4,0.004 -8e-4,0.005 -0.0011,0.005 -0.0015,0.004 -0.0018,0.006 -0.0024,0.005 -0.0028,0.006 -0.0034,0.007 -0.004,0.007 -0.0047,0.007 -0.0054,0.008 -0.0062,0.008 -0.007,0.009 -0.0079,0.01 -0.0088,0.011 -0.0098,0.011 -0.0053,0.006 -0.0056,0.006 -0.0058,0.007 -0.0061,0.006 -0.0063,0.007 -0.0067,0.007 -0.007,0.007 -0.0072,0.008 -0.0076,0.008 -0.0079,0.008 -0.0082,0.008 -0.0085,0.009 -0.0089,0.009 -0.0092,0.009 -0.0096,0.009 -0.0099,0.01 -0.0103,0.01 -0.0106,0.01 -0.011,0.011 -0.0114,0.011 -0.0118,0.011 -0.0122,0.012 -0.0125,0.012 -0.013,0.012 c -1.5781,1.61 -2.4688,4.234 -2.4688,7.469 0,3.094 0.7344,5.734 2.5782,7.625 0.1718,0.14 0.1718,0.172 0.1718,0.219 0,0.093 -0.0781,0.125 -0.1562,0.125 -0.2031,0 -1.5,-1.141 -2.2813,-2.704 C 3.6445,33.703 3.2852,32 3.2852,30.047 c 0,-1.406 0.2187,-3.297 1.0468,-5 0.9375,-1.906 2.2344,-2.938 2.4063,-2.938 0.0781,0 0.1562,0.032 0.1562,0.125 z"
   id="path9"
   inkscape:connector-curvature="0"
   style="fill:#000000;stroke-width:0" />
<path
   d="m 14.867,29.953 0,0.136 0,0.13 0,0.125 -0.001,0.119 0,0.114 -10e-4,0.108 -0.002,0.104 -0.002,0.099 -0.002,0.094 -0.003,0.09 -0.004,0.086 -0.005,0.083 -0.005,0.078 -0.006,0.075 -0.007,0.072 -0.009,0.069 -0.009,0.066 -0.011,0.064 -0.011,0.06 -0.013,0.059 -0.015,0.057 -0.016,0.055 -0.017,0.053 -0.019,0.052 -0.021,0.051 -0.022,0.049 -0.024,0.049 -0.026,0.049 -0.028,0.048 -0.03,0.048 -0.032,0.047 -0.034,0.049 c -0.453,0.609 -1.203,0.718 -1.75,0.718 -1.531,0 -2.14,-1.328 -2.265,-1.64 h -0.016 v 1.64 L 8.3047,32.922 v -0.453 c 1.0781,0 1.2031,-0.11 1.2031,-0.891 v -4.312 c 0,-0.719 -0.1719,-0.719 -1.2031,-0.719 v -0.453 c 0.4062,0.031 1.2656,0.031 1.7033,0.031 0.469,0 1.328,0 1.734,-0.031 v 0.453 c -1.015,0 -1.203,0 -1.203,0.719 v 2.953 c 0,1.672 1.094,2.562 2.078,2.562 0.985,0 1.219,-0.812 1.219,-1.781 v -3.734 c 0,-0.719 -0.188,-0.719 -1.219,-0.719 v -0.453 c 0.422,0.031 1.281,0.031 1.719,0.031 0.469,0 1.328,0 1.734,-0.031 v 0.453 c -0.797,0 -1.187,0 -1.203,0.484 z"
   id="path11"
   inkscape:connector-curvature="0"
   style="fill:#000000;stroke-width:0" />
<path
   d="m 20.855,32.922 v -0.453 c 1.079,0 1.219,-0.11 1.219,-0.891 v -2.844 c 0,-1.359 -0.719,-2.484 -1.922,-2.484 -1.297,0 -1.375,0.75 -1.375,1.594 v 5.265 l -2.234,-0.187 v -0.453 c 1.203,0 1.203,-0.047 1.203,-1.469 v -2.375 c 0,-0.984 0,-1.563 0.469,-2.094 0.39,-0.406 1.031,-0.593 1.844,-0.593 0.281,0 0.781,0 1.328,0.453 0.453,0.375 0.718,0.968 0.718,0.968 v -1.421 l 2.204,0.156 v 0.453 c -1.079,0 -1.204,0.125 -1.204,0.891 v 5.671 z"
   id="path13"
   inkscape:connector-curvature="0"
   style="fill:#000000;stroke-width:0" />
<path
   d="m 36.086,29.953 0,0.136 0,0.13 0,0.125 -10e-4,0.119 0,0.114 -10e-4,0.108 -0.002,0.104 -0.002,0.099 -0.002,0.094 -0.003,0.09 -0.004,0.086 -0.004,0.083 -0.005,0.078 -0.006,0.075 -0.007,0.072 -0.008,0.069 -0.009,0.066 -0.01,0.064 -0.011,0.06 -0.013,0.059 -0.014,0.057 -0.015,0.055 -0.017,0.053 -0.018,0.052 -0.019,0.051 -0.022,0.049 -0.023,0.049 -0.025,0.049 -0.027,0.048 -0.028,0.048 -0.031,0.047 -0.032,0.049 c -0.469,0.609 -1.204,0.718 -1.75,0.718 -1.313,0 -1.985,-0.953 -2.235,-1.578 -0.234,1.219 -1.094,1.578 -2.094,1.578 -1.531,0 -2.14,-1.328 -2.265,-1.64 h -0.016 v 1.64 l -2.156,-0.187 v -0.453 c 1.078,0 1.203,-0.11 1.203,-0.891 v -4.312 c 0,-0.719 -0.172,-0.719 -1.203,-0.719 v -0.453 c 0.406,0.031 1.266,0.031 1.703,0.031 0.469,0 1.328,0 1.734,-0.031 v 0.453 c -1.015,0 -1.203,0 -1.203,0.719 v 2.953 c 0,1.672 1.094,2.562 2.078,2.562 0.985,0 1.219,-0.812 1.219,-1.781 v -3.734 c 0,-0.719 -0.187,-0.719 -1.219,-0.719 v -0.453 c 0.422,0.031 1.282,0.031 1.719,0.031 0.469,0 1.328,0 1.735,-0.031 v 0.453 c -1.016,0 -1.204,0 -1.204,0.719 v 2.953 c 0,1.672 1.094,2.562 2.079,2.562 0.984,0 1.203,-0.812 1.203,-1.781 v -3.734 c 0,-0.719 -0.172,-0.719 -1.203,-0.719 v -0.453 c 0.406,0.031 1.265,0.031 1.718,0.031 0.453,0 1.313,0 1.735,-0.031 v 0.453 c -0.797,0 -1.203,0 -1.219,0.484 z"
   id="path15"
   inkscape:connector-curvature="0"
   style="fill:#000000;stroke-width:0" />
<path
   d="m 43.793,29.781 0.016,0 0.015,0 0.015,0 0.015,0 0.014,0 0.014,0 0.013,0.001 0.013,0 0.012,0 0.012,0 0.012,0.001 0.011,0 0.011,10e-4 0.011,0 0.01,0.001 0.01,0.001 0.009,10e-4 0.009,0.001 0.009,0.001 0.008,10e-4 0.016,0.003 0.015,0.004 0.013,0.004 0.012,0.005 0.011,0.006 0.01,0.006 0.009,0.008 0.008,0.008 0.008,0.009 0.006,0.011 0.005,0.011 0.005,0.013 0.004,0.013 0.004,0.015 10e-4,0.008 0.002,0.009 10e-4,0.008 10e-4,0.009 0.001,0.01 10e-4,0.01 0,0.01 10e-4,0.01 0.001,0.011 0,0.011 0,0.012 10e-4,0.012 0,0.012 0,0.013 0,0.013 0,0.014 c 0,1.61 -0.859,3.11 -2.781,3.11 -1.813,0 -3.203,-1.641 -3.203,-3.61 0,-2.109 1.609,-3.64 3.375,-3.64 1.89,0 2.609,1.718 2.609,2.046 0,0.094 -0.078,0.157 -0.172,0.157 -0.125,0 -0.156,-0.079 -0.187,-0.157 -0.422,-1.328 -1.485,-1.703 -2.157,-1.703 -0.656,0 -2.265,0.453 -2.265,3.203 v 0.297 l 0.015,0.297 c 0.125,2.5 1.516,2.781 1.969,2.781 1.703,0 1.797,-2.234 1.813,-2.781 h -3.782 l -0.015,-0.297 z"
   id="path17"
   inkscape:connector-curvature="0"
   style="fill:#000000;stroke-width:0" />
<path
   d="m 47.293,29.797 0.002,0.145 0.005,0.143 0.01,0.143 0.013,0.141 0.017,0.14 0.02,0.138 0.024,0.135 0.028,0.134 0.032,0.131 0.035,0.128 0.039,0.124 0.042,0.122 0.046,0.118 0.05,0.114 0.053,0.11 0.057,0.106 0.06,0.101 0.064,0.097 0.067,0.092 0.071,0.086 0.075,0.081 0.078,0.075 0.082,0.069 0.085,0.062 0.088,0.057 0.092,0.049 0.096,0.043 0.099,0.035 0.102,0.028 0.106,0.021 0.109,0.012 0.112,0.004 c 0.125,0 0.157,0 0.219,-0.015 -0.125,-0.063 -0.375,-0.157 -0.375,-0.578 0,-0.469 0.359,-0.641 0.609,-0.641 0.329,0 0.641,0.203 0.641,0.641 0,0.468 -0.422,0.921 -1.109,0.921 -1.36,0 -1.813,-1.468 -1.907,-1.765 h -0.015 v 1.765 l -2.141,-0.187 v -0.453 c 1.094,0 1.219,-0.11 1.219,-0.891 v -4.312 c 0,-0.719 -0.172,-0.719 -1.219,-0.719 v -0.453 c 0.453,0.031 1.328,0.031 1.797,0.031 0.438,0 1.563,0 1.938,-0.031 v 0.453 H 48.48 c -1.156,0 -1.187,0.187 -1.187,0.75 z"
   id="path19"
   inkscape:connector-curvature="0"
   style="fill:#000000;stroke-width:0" />
<path
   d="m 60.352,29.844 0.043,0.058 0.044,0.059 0.092,0.121 0.095,0.126 0.097,0.127 0.099,0.129 0.1,0.13 0.1,0.128 0.099,0.126 0.097,0.122 0.095,0.119 0.045,0.057 0.045,0.055 0.044,0.054 0.043,0.052 0.041,0.05 0.04,0.048 0.038,0.046 0.037,0.043 0.035,0.041 0.032,0.038 0.031,0.035 0.029,0.033 c 0.657,0.734 1.407,0.843 1.907,0.843 v 0.454 c -0.672,-0.032 -0.703,-0.032 -1.328,-0.032 -0.61,0 -0.641,0 -1.438,0.032 v -0.454 c 0.219,-0.031 0.469,-0.125 0.469,-0.5 0,-0.265 -0.141,-0.437 -0.235,-0.562 l -1.015,-1.297 -1.25,1.641 c -0.047,0.062 -0.141,0.203 -0.141,0.312 0,0.11 0.078,0.391 0.563,0.406 v 0.454 c -0.407,-0.032 -1.219,-0.032 -1.641,-0.032 -0.531,0 -0.562,0 -1.531,0.032 v -0.454 c 0.812,0 1.109,-0.031 1.453,-0.468 l 1.859,-2.422 c 0.032,-0.032 0.094,-0.125 0.094,-0.172 0,-0.047 -1.234,-1.61 -1.406,-1.813 -0.688,-0.859 -1.391,-1.031 -2.078,-1.062 v -0.453 c 0.609,0.031 0.64,0.031 1.328,0.031 0.594,0 0.625,0 1.422,-0.031 v 0.453 c -0.375,0.062 -0.438,0.297 -0.438,0.515 0,0.25 0.11,0.376 0.266,0.594 0.234,0.328 0.765,0.985 1.14,1.469 l 1.313,-1.703 c 0.266,-0.344 0.266,-0.375 0.266,-0.469 0,-0.125 -0.125,-0.375 -0.563,-0.406 v -0.453 c 0.422,0.031 1.203,0.031 1.641,0.031 0.531,0 0.562,0 1.515,-0.031 v 0.453 c -0.843,0 -1.14,0.047 -1.515,0.547 z"
   id="path21"
   inkscape:connector-curvature="0"
   style="fill:#000000;stroke-width:0" />
<path
   d="m 68.621,30.047 0,0.116 -0.002,0.121 -0.002,0.125 -0.004,0.128 -0.006,0.133 -0.006,0.136 -0.018,0.282 -0.025,0.294 -0.033,0.306 -0.042,0.316 -0.051,0.324 -0.062,0.332 -0.073,0.337 -0.085,0.343 -0.098,0.346 -0.112,0.348 -0.062,0.174 -0.065,0.175 -0.069,0.174 -0.073,0.174 -0.077,0.174 -0.082,0.173 c -0.937,1.906 -2.25,2.938 -2.422,2.938 -0.062,0 -0.14,-0.032 -0.14,-0.125 0,-0.047 0,-0.079 0.265,-0.36 1.594,-1.593 2.485,-4.219 2.485,-7.469 0,-3.078 -0.75,-5.734 -2.594,-7.609 -0.156,-0.141 -0.156,-0.172 -0.156,-0.219 0,-0.093 0.078,-0.125 0.14,-0.125 0.203,0 1.516,1.141 2.297,2.703 0.797,1.61 1.172,3.329 1.172,5.235 z"
   id="path23"
   inkscape:connector-curvature="0"
   style="fill:#000000;stroke-width:0" />
<line
   x1="0.63672"
   y1="19.292999"
   x2="71.305"
   y2="19.292999"
   id="line25"
   style="stroke-width:0.63800001" />
<path
   d="M 5.8086,0.51562 5.8085,0.52429 5.808,0.53296 5.8075,0.53741 5.8067,0.54199 5.8056,0.54676 5.8042,0.55176 5.8023,0.55703 5.8,0.56262 5.7972,0.56858 5.7938,0.57495 5.7897,0.58178 5.785,0.58911 5.7796,0.59699 5.7734,0.60547 5.7664,0.61459 5.7585,0.62439 5.7497,0.63493 5.7399,0.64624 5.7346,0.6522 5.7291,0.65838 5.7233,0.66477 5.7172,0.67139 5.7108,0.67823 5.7042,0.68531 5.6972,0.69263 5.6899,0.7002 5.6824,0.70801 5.6745,0.71609 5.6663,0.72443 5.6577,0.73303 5.6489,0.74191 5.6396,0.75108 5.6301,0.76052 5.6202,0.77026 5.6099,0.7803 5.5993,0.79064 5.5882,0.80129 5.5768,0.81226 5.5651,0.82354 5.5529,0.83515 5.5403,0.84709 5.5273,0.85938 C 3.9492,2.4688 3.0586,5.0938 3.0586,8.3281 c 0,3.0939 0.7344,5.7339 2.5781,7.6249 0.1719,0.141 0.1719,0.172 0.1719,0.219 0,0.094 -0.0781,0.125 -0.1563,0.125 -0.2031,0 -1.5,-1.141 -2.2812,-2.703 -0.8125,-1.61 -1.1719,-3.313 -1.1719,-5.2659 0,-1.4062 0.2188,-3.2969 1.0469,-5 0.9375,-1.9062 2.2344,-2.93748 2.4062,-2.93748 0.0782,0 0.1563,0.03126 0.1563,0.125 z"
   id="path27"
   inkscape:connector-curvature="0"
   style="fill:#000000;stroke-width:0" />
<path
   d="m 11.469,15.234 v -0.468 c 1.078,0 1.203,-0.11 1.203,-0.891 v -3.516 c -0.328,0.469 -1.016,1.032 -1.984,1.032 -1.8442,0 -3.4224,-1.5629 -3.4224,-3.5941 0,-2.0157 1.5,-3.5781 3.2504,-3.5781 1.203,0 1.906,0.7968 2.125,1.0937 L 12.422,5.5469 C 12.047,5 11.391,4.5312 10.594,4.5312 c -0.406,0 -2.1252,0.1563 -2.1252,3.25 0,1.1407 0.1874,1.7813 0.5312,2.2968 0.3281,0.5 0.9688,0.984 1.75,0.984 0.984,0 1.547,-0.718 1.703,-0.968 0.188,-0.2659 0.188,-0.2971 0.188,-0.5784 V 6.2344 c 0,-0.2813 0,-0.3282 -0.219,-0.6875 L 12.641,5.3125 V 4.2188 l 2.25,0.1562 v 0.4531 c -1.079,0 -1.203,0.125 -1.203,0.8907 v 9.6872 z"
   id="path29"
   inkscape:connector-curvature="0"
   style="fill:#000000;stroke-width:0" />
<path
   d="m 21.465,8.0625 0.016,0 0.015,0 0.015,0 0.015,10e-5 0.014,0 0.013,10e-5 0.014,2e-4 0.013,2e-4 0.012,2e-4 0.012,3e-4 0.012,4e-4 0.011,5e-4 0.011,5e-4 0.01,6e-4 0.011,7e-4 0.009,8e-4 0.01,10e-4 0.009,0.001 0.009,0.0012 0.008,0.0013 0.016,0.003 0.015,0.0036 0.013,0.0042 0.012,0.005 0.011,0.0057 0.01,0.0065 0.009,0.0074 0.008,0.0083 0.007,0.0093 0.007,0.0104 0.005,0.0114 0.005,0.0126 0.004,0.0137 0.004,0.015 0.001,0.008 0.001,0.0084 0.002,0.0086 0.001,0.009 10e-4,0.0094 0,0.0097 0.001,0.0101 0.001,0.0105 0,0.0108 10e-4,0.0113 0,0.0116 0,0.012 0.001,0.0125 0,0.0128 0,0.0133 0,0.0137 c 0,1.6094 -0.86,3.1096 -2.781,3.1096 -1.813,0 -3.203,-1.6409 -3.203,-3.6096 0,-2.1094 1.609,-3.6406 3.374,-3.6406 1.891,0 2.61,1.7187 2.61,2.0468 0,0.0938 -0.078,0.1563 -0.172,0.1563 -0.125,0 -0.156,-0.0781 -0.188,-0.1563 -0.421,-1.3281 -1.484,-1.7031 -2.156,-1.7031 -0.656,0 -2.265,0.4531 -2.265,3.2031 v 0.2969 l 0.015,0.2969 c 0.125,2.4996 1.516,2.7816 1.969,2.7816 1.703,0 1.797,-2.2348 1.812,-2.7816 H 17.074 L 17.059,8.0625 z"
   id="path31"
   inkscape:connector-curvature="0"
   style="fill:#000000;stroke-width:0" />
<path
   d="m 29.387,8.2344 0,0.1361 0,0.1302 -0.001,0.1245 0,0.1189 -10e-4,0.1137 -0.001,0.1085 -0.001,0.1037 -0.002,0.0989 -0.003,0.0945 -0.003,0.0902 -0.004,0.0861 -0.004,0.0823 -0.005,0.0785 -0.007,0.0752 -0.007,0.0719 -0.008,0.0688 -0.01,0.066 -0.01,0.0634 -0.012,0.0612 -0.013,0.058 -0.014,0.057 -0.016,0.055 -0.018,0.053 -0.019,0.052 -0.02,0.051 -0.022,0.05 -0.025,0.049 -0.026,0.048 -0.027,0.048 -0.03,0.048 -0.032,0.048 -0.034,0.048 c -0.453,0.609 -1.203,0.719 -1.75,0.719 -1.532,0 -2.141,-1.329 -2.266,-1.641 H 24.98 v 1.641 L 22.824,11.203 V 10.75 c 1.078,0 1.203,-0.109 1.203,-0.8906 V 5.5469 c 0,-0.7188 -0.172,-0.7188 -1.203,-0.7188 V 4.375 c 0.406,0.0312 1.266,0.0312 1.703,0.0312 0.469,0 1.328,0 1.735,-0.0312 v 0.4531 c -1.016,0 -1.203,0 -1.203,0.7188 V 8.5 c 0,1.672 1.093,2.562 2.078,2.562 0.984,0 1.218,-0.812 1.218,-1.7808 V 5.5469 c 0,-0.7188 -0.187,-0.7188 -1.218,-0.7188 V 4.375 c 0.422,0.0312 1.281,0.0312 1.718,0.0312 0.469,0 1.329,0 1.735,-0.0312 v 0.4531 c -0.797,0 -1.188,0 -1.203,0.4844 z"
   id="path33"
   inkscape:connector-curvature="0"
   style="fill:#000000;stroke-width:0" />
<path
   d="M 38.273,7.7812 38.269,7.9719 38.255,8.16 38.233,8.3452 38.203,8.5274 38.164,8.7063 38.117,8.8816 38.063,9.0533 38,9.221 l -0.069,0.1634 -0.076,0.1591 -0.083,0.1544 -0.09,0.1496 -0.096,0.1445 -0.103,0.139 -0.108,0.134 -0.113,0.128 -0.119,0.121 -0.125,0.116 -0.129,0.109 -0.134,0.103 -0.138,0.095 -0.143,0.089 -0.146,0.081 -0.151,0.073 -0.154,0.066 -0.157,0.058 -0.16,0.049 -0.163,0.041 -0.166,0.033 -0.168,0.023 -0.17,0.014 -0.172,0.005 -0.015,-0.328 c 0.625,0 1.296,-0.282 1.718,-0.907 0.5,-0.7184 0.5,-1.734 0.5,-2.3121 0,-0.5625 0,-1.5469 -0.422,-2.2969 -0.437,-0.75 -1.171,-1.0625 -1.781,-1.0625 h 0 c -0.578,0 -1.297,0.25 -1.765,1.0313 -0.422,0.7187 -0.438,1.6562 -0.438,2.3281 0,0.5937 0,1.5781 0.484,2.2811 0.454,0.688 1.157,0.938 1.704,0.938 l 0.015,0.328 c -1.906,0 -3.406,-1.6878 -3.406,-3.6878 0,-2.0468 1.578,-3.5624 3.391,-3.5624 1.875,0 3.421,1.5624 3.421,3.5624 z"
   id="path35"
   inkscape:connector-curvature="0"
   style="fill:#000000;stroke-width:0" />
<path
   d="m 50.172,8.2344 0,0.1361 0,0.1302 0,0.1245 -10e-4,0.1189 0,0.1137 -10e-4,0.1085 -0.002,0.1037 -0.002,0.0989 -0.002,0.0945 -0.003,0.0902 -0.004,0.0861 -0.004,0.0823 -0.005,0.0785 -0.006,0.0752 -0.007,0.0719 -0.008,0.0688 -0.009,0.066 -0.01,0.0634 -0.011,0.0612 -0.013,0.058 -0.014,0.057 -0.015,0.055 -0.017,0.053 -0.018,0.052 -0.019,0.051 -0.022,0.05 -0.023,0.049 -0.025,0.048 -0.027,0.048 -0.028,0.048 -0.031,0.048 -0.033,0.048 c -0.468,0.609 -1.203,0.719 -1.75,0.719 -1.312,0 -1.984,-0.953 -2.234,-1.5785 -0.234,1.2185 -1.094,1.5785 -2.094,1.5785 -1.531,0 -2.14,-1.329 -2.265,-1.641 h -0.016 v 1.641 L 39.297,11.203 V 10.75 c 1.078,0 1.203,-0.109 1.203,-0.8906 V 5.5469 C 40.5,4.8281 40.328,4.8281 39.297,4.8281 V 4.375 c 0.406,0.0312 1.265,0.0312 1.703,0.0312 0.469,0 1.328,0 1.734,-0.0312 v 0.4531 c -1.015,0 -1.203,0 -1.203,0.7188 V 8.5 c 0,1.672 1.094,2.562 2.078,2.562 0.985,0 1.219,-0.812 1.219,-1.7808 V 5.5469 c 0,-0.7188 -0.187,-0.7188 -1.219,-0.7188 V 4.375 c 0.422,0.0312 1.282,0.0312 1.719,0.0312 0.469,0 1.328,0 1.734,-0.0312 v 0.4531 c -1.015,0 -1.203,0 -1.203,0.7188 V 8.5 c 0,1.672 1.094,2.562 2.079,2.562 0.984,0 1.203,-0.812 1.203,-1.7808 V 5.5469 c 0,-0.7188 -0.172,-0.7188 -1.203,-0.7188 V 4.375 c 0.406,0.0312 1.265,0.0312 1.718,0.0312 0.453,0 1.313,0 1.735,-0.0312 v 0.4531 c -0.797,0 -1.203,0 -1.219,0.4844 z"
   id="path37"
   inkscape:connector-curvature="0"
   style="fill:#000000;stroke-width:0" />
<path
   d="m 61.434,8.125 0.043,0.0578 0.044,0.0592 0.092,0.1217 0.095,0.1253 0.097,0.1277 0.099,0.129 0.1,0.1291 0.1,0.1281 0.099,0.126 0.097,0.1227 0.095,0.1182 0.046,0.0571 0.044,0.0556 0.044,0.0538 0.043,0.0521 0.041,0.0501 0.04,0.0479 0.038,0.0457 0.037,0.0434 0.035,0.0407 0.033,0.0381 0.031,0.0353 0.028,0.0323 c 0.657,0.7341 1.407,0.8441 1.907,0.8441 v 0.453 c -0.672,-0.031 -0.703,-0.031 -1.328,-0.031 -0.61,0 -0.641,0 -1.438,0.031 v -0.453 c 0.219,-0.032 0.469,-0.125 0.469,-0.5 0,-0.266 -0.141,-0.4379 -0.235,-0.5629 l -1.015,-1.2969 -1.25,1.6408 c -0.047,0.062 -0.141,0.203 -0.141,0.312 0,0.11 0.078,0.391 0.563,0.407 v 0.453 c -0.407,-0.031 -1.219,-0.031 -1.641,-0.031 -0.531,0 -0.562,0 -1.531,0.031 v -0.453 c 0.812,0 1.109,-0.032 1.453,-0.469 L 60.527,7.875 C 60.559,7.8438 60.621,7.75 60.621,7.7031 60.621,7.6562 59.387,6.0938 59.215,5.8906 58.527,5.0312 57.824,4.8594 57.137,4.8281 V 4.375 c 0.609,0.0312 0.64,0.0312 1.328,0.0312 0.594,0 0.625,0 1.422,-0.0312 v 0.4531 c -0.375,0.0625 -0.438,0.2969 -0.438,0.5157 0,0.25 0.11,0.375 0.266,0.5937 0.234,0.3281 0.765,0.9844 1.14,1.4687 l 1.313,-1.7031 c 0.266,-0.3437 0.266,-0.375 0.266,-0.4687 0,-0.125 -0.125,-0.375 -0.563,-0.4063 V 4.375 c 0.422,0.0312 1.203,0.0312 1.641,0.0312 0.531,0 0.562,0 1.515,-0.0312 v 0.4531 c -0.843,0 -1.14,0.0469 -1.515,0.5469 z"
   id="path39"
   inkscape:connector-curvature="0"
   style="fill:#000000;stroke-width:0" />
<path
   d="m 69.699,8.3281 0,0.1164 -0.002,0.1207 -0.002,0.1247 -0.004,0.1287 -0.005,0.1324 -0.007,0.136 -0.018,0.2821 -0.025,0.2946 -0.033,0.3058 -0.042,0.3155 -0.051,0.324 -0.062,0.332 -0.073,0.338 -0.085,0.342 -0.098,0.346 -0.112,0.348 -0.062,0.174 -0.065,0.175 -0.069,0.174 -0.073,0.174 -0.077,0.174 -0.082,0.173 c -0.937,1.907 -2.25,2.938 -2.422,2.938 -0.062,0 -0.14,-0.031 -0.14,-0.125 0,-0.047 0,-0.078 0.265,-0.36 1.594,-1.593 2.485,-4.218 2.485,-7.4682 0,-3.0782 -0.75,-5.7344 -2.594,-7.60942 C 66.09,0.59375 66.09,0.5625 66.09,0.51562 c 0,-0.09374 0.078,-0.125 0.14,-0.125 0.204,0 1.516,1.14058 2.297,2.70318 0.797,1.6093 1.172,3.3281 1.172,5.2343 z"
   id="path41"
   inkscape:connector-curvature="0"
   style="fill:#000000;stroke-width:0" />
<path
   d="m 87.664,20.465 0.042,0 0.042,0 0.043,0.002 0.022,0.001 0.021,0.001 0.022,0.002 0.021,0.002 0.021,0.003 0.02,0.004 0.021,0.004 0.019,0.004 0.019,0.006 0.019,0.006 0.018,0.007 0.017,0.008 0.017,0.009 0.016,0.009 0.014,0.011 0.014,0.012 0.013,0.013 0.012,0.014 0.005,0.008 0.005,0.008 0.005,0.008 0.005,0.009 0.004,0.009 0.004,0.009 0.003,0.009 0.004,0.01 0.002,0.011 0.003,0.01 0.002,0.011 0.002,0.012 0.001,0.011 10e-4,0.013 0.001,0.012 0,0.013 c 0,0.297 -0.266,0.297 -0.5,0.297 h -9.375 c -0.219,0 -0.5,0 -0.5,-0.281 0,-0.297 0.266,-0.297 0.5,-0.297 z"
   id="path43"
   inkscape:connector-curvature="0"
   style="fill:#000000;stroke-width:0" />
<path
   d="m 87.664,17.496 0.042,0 0.042,0.001 0.043,0.001 0.022,10e-4 0.021,0.002 0.022,0.002 0.021,0.002 0.021,0.003 0.02,0.004 0.021,0.004 0.019,0.005 0.019,0.006 0.019,0.006 0.018,0.008 0.017,0.008 0.017,0.009 0.016,0.011 0.014,0.011 0.014,0.013 0.013,0.013 0.012,0.015 0.005,0.008 0.005,0.009 0.005,0.008 0.005,0.009 0.004,0.01 0.004,0.009 0.003,0.011 0.004,0.01 0.002,0.011 0.003,0.011 0.002,0.012 0.002,0.012 0.001,0.012 10e-4,0.013 0.001,0.013 0,0.014 c 0,0.297 -0.266,0.297 -0.5,0.297 h -9.375 c -0.219,0 -0.5,0 -0.5,-0.281 0,-0.313 0.266,-0.313 0.5,-0.313 z"
   id="path45"
   inkscape:connector-curvature="0"
   style="fill:#000000;stroke-width:0" />
<path
   d="m 101.77,29.953 0,0.136 0,0.13 0,0.125 0,0.119 0,0.114 0,0.108 0,0.104 -0.01,0.099 0,0.094 0,0.09 -0.01,0.086 0,0.083 -0.01,0.078 0,0.075 -0.01,0.072 -0.01,0.069 -0.01,0.066 -0.01,0.064 -0.01,0.06 -0.01,0.059 -0.02,0.057 -0.01,0.055 -0.02,0.053 -0.02,0.052 -0.02,0.051 -0.02,0.049 -0.03,0.049 -0.02,0.049 -0.03,0.048 -0.03,0.048 -0.03,0.047 -0.04,0.049 c -0.45,0.609 -1.2,0.718 -1.745,0.718 -1.532,0 -2.141,-1.328 -2.266,-1.64 h -0.016 v 1.64 l -2.156,-0.187 v -0.453 c 1.078,0 1.203,-0.11 1.203,-0.891 v -4.312 c 0,-0.719 -0.172,-0.719 -1.203,-0.719 v -0.453 c 0.406,0.031 1.266,0.031 1.703,0.031 0.469,0 1.328,0 1.735,-0.031 v 0.453 c -1.016,0 -1.204,0 -1.204,0.719 v 2.953 c 0,1.672 1.094,2.562 2.079,2.562 0.98,0 1.22,-0.812 1.22,-1.781 v -3.734 c 0,-0.719 -0.19,-0.719 -1.22,-0.719 v -0.453 c 0.421,0.031 1.28,0.031 1.72,0.031 0.47,0 1.33,0 1.73,-0.031 v 0.453 c -0.79,0 -1.18,0 -1.2,0.484 z"
   id="path47"
   inkscape:connector-curvature="0"
   style="fill:#000000;stroke-width:0" />
<line
   x1="94.691002"
   y1="19.292999"
   x2="103.36"
   y2="19.292999"
   id="line49"
   style="stroke-width:0.63800001" />
<path
   d="m 99.457,15.234 v -0.468 c 1.083,0 1.203,-0.11 1.203,-0.891 v -3.516 c -0.33,0.469 -1.015,1.032 -1.984,1.032 -1.844,0 -3.422,-1.5629 -3.422,-3.5941 0,-2.0157 1.5,-3.5781 3.25,-3.5781 1.203,0 1.906,0.7968 2.126,1.0937 l -0.22,0.2344 C 100.04,5 99.379,4.5312 98.582,4.5312 c -0.406,0 -2.125,0.1563 -2.125,3.25 0,1.1407 0.188,1.7813 0.531,2.2968 0.328,0.5 0.969,0.984 1.75,0.984 0.985,0 1.552,-0.718 1.702,-0.968 0.19,-0.2659 0.19,-0.2971 0.19,-0.5784 V 6.2344 c 0,-0.2813 0,-0.3282 -0.22,-0.6875 l 0.22,-0.2344 V 4.2188 l 2.25,0.1562 v 0.4531 c -1.08,0 -1.2,0.125 -1.2,0.8907 v 9.6872 z"
   id="path51"
   inkscape:connector-curvature="0"
   style="fill:#000000;stroke-width:0" />
</g></svg>
