<?xml version="1.0" encoding="UTF-8" standalone="no"?>
<svg
   xmlns:dc="http://purl.org/dc/elements/1.1/"
   xmlns:cc="http://creativecommons.org/ns#"
   xmlns:rdf="http://www.w3.org/1999/02/22-rdf-syntax-ns#"
   xmlns:svg="http://www.w3.org/2000/svg"
   xmlns="http://www.w3.org/2000/svg"
   xmlns:sodipodi="http://sodipodi.sourceforge.net/DTD/sodipodi-0.dtd"
   xmlns:inkscape="http://www.inkscape.org/namespaces/inkscape"
   version="1.1"
   id="body"
   width="167.30362"
   height="42.382542"
   viewBox="0 0 0.23236614 0.058864641"
   preserveAspectRatio="none"
   inkscape:version="0.48.3.1 r9886"
   sodipodi:docname="ch2-Z-G-49.svg">
  <metadata
     id="metadata47">
    <rdf:RDF>
      <cc:Work
         rdf:about="">
        <dc:format>image/svg+xml</dc:format>
        <dc:type
           rdf:resource="http://purl.org/dc/dcmitype/StillImage" />
      </cc:Work>
    </rdf:RDF>
  </metadata>
  <defs
     id="defs45" />
  <sodipodi:namedview
     pagecolor="#ffffff"
     bordercolor="#666666"
     borderopacity="1"
     objecttolerance="10"
     gridtolerance="10"
     guidetolerance="10"
     inkscape:pageopacity="0"
     inkscape:pageshadow="2"
     inkscape:window-width="640"
     inkscape:window-height="480"
     id="namedview43"
     showgrid="false"
     inkscape:zoom="0.32777778"
     inkscape:cx="381.99219"
     inkscape:cy="459.71994"
     inkscape:window-x="0"
     inkscape:window-y="24"
     inkscape:window-maximized="0"
     inkscape:current-layer="body" />
  <title
     id="title3">SVG drawing</title>
  <desc
     id="desc5">This was produced by version 4.4 of GNU libplot, a free library for exporting 2-D vector graphics.</desc>
  <g
     id="content"
     transform="matrix(0.0017361,0,0,-0.0017361,-7.0529063e-4,0.05913591)"
     xml:space="preserve"
     stroke-miterlimit="10.433"
     font-style="normal"
     font-variant="normal"
     font-weight="normal"
     font-stretch="normal"
     font-size-adjust="none"
     letter-spacing="normal"
     word-spacing="normal"
     style="font-style:normal;font-variant:normal;font-weight:normal;font-stretch:normal;letter-spacing:normal;word-spacing:normal;text-anchor:start;fill:none;stroke:#000000;stroke-linecap:butt;stroke-linejoin:miter;stroke-miterlimit:10.43299961;stroke-opacity:1;stroke-dasharray:none;stroke-dashoffset:0">
<path
   d="m 8.3984,32.734 0.0015,0.006 0.0016,0.006 0.0017,0.007 0.0017,0.006 0.0037,0.014 0.0038,0.013 0.0038,0.015 0.0039,0.014 0.0039,0.015 0.0037,0.016 0.0036,0.015 0.0033,0.016 0.003,0.015 0.0026,0.016 0.0021,0.015 0.0016,0.016 6e-4,0.007 5e-4,0.008 2e-4,0.007 10e-5,0.008 c 0,0.156 -0.1562,0.156 -0.1875,0.156 -0.0312,0 -0.7969,-0.063 -0.875,-0.078 C 7.1016,33.031 6.8672,33 6.5859,32.984 6.1797,32.953 6.0703,32.938 6.0703,32.641 c 0,-0.157 0.125,-0.157 0.3594,-0.157 0.7656,0 0.7812,-0.14 0.7812,-0.296 0,-0.094 -0.0312,-0.219 -0.0468,-0.266 L 6.1953,28.047 c -0.1719,0.422 -0.5937,1.062 -1.4219,1.062 -1.7968,0 -3.7343,-2.328 -3.7343,-4.671 0,-1.579 0.9218,-2.5 2,-2.5 l 0.0468,0.312 c -0.6562,0 -1.0156,0.594 -1.0156,1.531 0,0.875 0.4844,2.657 0.7969,3.313 0.5312,1.125 1.2812,1.687 1.9062,1.687 1.0469,0 1.25,-1.297 1.25,-1.422 0,-0.015 -0.0468,-0.234 -0.0625,-0.265 L 5.1797,23.984 C 5.1016,23.719 5.1016,23.688 4.8828,23.375 4.5234,22.938 3.8359,22.25 3.0859,22.25 L 3.0391,21.938 c 0.875,0 1.625,0.687 2.0625,1.203 0.1562,-0.938 0.9062,-1.203 1.3906,-1.203 0.4687,0 0.8594,0.281 1.1406,0.859 0.25,0.531 0.4688,1.5 0.4688,1.562 0,0.094 -0.0625,0.157 -0.1563,0.157 -0.1406,0 -0.1562,-0.078 -0.2187,-0.328 C 7.4922,23.25 7.1797,22.25 6.5391,22.25 c -0.4688,0 -0.5,0.422 -0.5,0.734 0,0.063 0,0.391 0.1093,0.844 z"
   id="path9"
   inkscape:connector-curvature="0"
   style="fill:#000000;stroke-width:0" />
<path
   d="m 13.68,18.234 0,0.009 -10e-4,0.009 0,0.004 -10e-4,0.005 -0.001,0.005 -0.002,0.004 -0.002,0.006 -0.002,0.005 -0.003,0.006 -0.003,0.007 -0.004,0.007 -0.005,0.007 -0.005,0.008 -0.006,0.008 -0.007,0.009 -0.008,0.01 -0.009,0.011 -0.01,0.011 -0.005,0.006 -0.006,0.006 -0.006,0.007 -0.006,0.006 -0.006,0.007 -0.007,0.007 -0.007,0.007 -0.007,0.008 -0.008,0.008 -0.007,0.008 -0.009,0.008 -0.008,0.009 -0.009,0.009 -0.009,0.009 -0.01,0.009 -0.01,0.01 -0.01,0.01 -0.011,0.01 -0.011,0.011 -0.011,0.011 -0.012,0.011 -0.012,0.012 -0.013,0.012 -0.013,0.012 c -1.578,1.61 -2.468,4.234 -2.468,7.469 0,3.094 0.734,5.734 2.578,7.625 0.172,0.14 0.172,0.172 0.172,0.219 0,0.093 -0.078,0.125 -0.157,0.125 -0.203,0 -1.5,-1.141 -2.281,-2.704 C 10.43,29.703 10.07,28 10.07,26.047 c 0,-1.406 0.219,-3.297 1.047,-5 0.938,-1.906 2.235,-2.938 2.406,-2.938 0.079,0 0.157,0.032 0.157,0.125 z"
   id="path11"
   inkscape:connector-curvature="0"
   style="fill:#000000;stroke-width:0" />
<path
   d="m 22.109,28.578 -0.046,-0.009 -0.044,-0.012 -0.042,-0.012 -0.041,-0.015 -0.04,-0.015 -0.037,-0.017 -0.036,-0.018 -0.034,-0.02 -0.033,-0.02 -0.031,-0.022 -0.03,-0.022 -0.028,-0.024 -0.026,-0.024 -0.025,-0.026 -0.024,-0.026 -0.022,-0.026 -0.02,-0.028 -0.019,-0.028 -0.018,-0.028 -0.016,-0.029 -0.015,-0.03 -0.013,-0.029 -0.012,-0.03 -0.011,-0.03 -0.01,-0.031 -0.008,-0.03 -0.007,-0.03 -0.005,-0.031 -0.004,-0.03 -0.003,-0.03 -0.002,-0.03 -0.001,-0.029 c 0,-0.375 0.313,-0.5 0.532,-0.5 0.468,0 0.812,0.406 0.812,0.844 0,0.656 -0.766,0.968 -1.438,0.968 -0.968,0 -1.5,-0.953 -1.64,-1.265 -0.375,1.203 -1.36,1.265 -1.641,1.265 -1.625,0 -2.484,-2.093 -2.484,-2.437 0,-0.063 0.062,-0.141 0.172,-0.141 0.125,0 0.156,0.094 0.187,0.157 0.547,1.765 1.61,2.093 2.078,2.093 0.704,0 0.86,-0.656 0.86,-1.047 0,-0.343 -0.094,-0.718 -0.297,-1.468 l -0.531,-2.188 c -0.25,-0.953 -0.704,-1.828 -1.547,-1.828 -0.078,0 -0.469,0 -0.813,0.203 0.578,0.125 0.703,0.594 0.703,0.781 0,0.328 -0.234,0.516 -0.547,0.516 -0.374,0 -0.796,-0.344 -0.796,-0.844 0,-0.672 0.75,-0.968 1.437,-0.968 0.766,0 1.297,0.593 1.641,1.25 0.25,-0.938 1.047,-1.25 1.64,-1.25 1.61,0 2.469,2.078 2.469,2.421 0,0.094 -0.062,0.157 -0.156,0.157 -0.141,0 -0.156,-0.078 -0.203,-0.219 -0.438,-1.391 -1.36,-2.047 -2.063,-2.047 -0.562,0 -0.859,0.422 -0.859,1.062 0,0.36 0.062,0.61 0.312,1.657 l 0.563,2.156 c 0.234,0.953 0.765,1.656 1.5,1.656 0.031,0 0.484,0 0.812,-0.203 z"
   id="path13"
   inkscape:connector-curvature="0"
   style="fill:#000000;stroke-width:0" />
<path
   d="m 27.633,20.312 -0.084,-0.113 -0.089,-0.11 -0.093,-0.108 -0.097,-0.104 -0.05,-0.05 -0.051,-0.049 -0.052,-0.048 -0.053,-0.046 -0.054,-0.045 -0.055,-0.043 -0.056,-0.042 -0.057,-0.04 -0.058,-0.039 -0.059,-0.036 -0.06,-0.034 -0.061,-0.033 -0.062,-0.03 -0.062,-0.028 -0.064,-0.026 -0.064,-0.024 -0.066,-0.021 -0.066,-0.018 -0.067,-0.016 -0.068,-0.013 -0.069,-0.01 -0.069,-0.008 -0.071,-0.005 -0.071,-10e-4 c -0.203,0 -0.953,0.031 -1.203,0.766 0.046,-0.016 0.125,-0.016 0.156,-0.016 0.484,0 0.797,0.406 0.797,0.766 0,0.374 -0.297,0.5 -0.532,0.5 -0.265,0 -0.812,-0.188 -0.812,-0.969 0,-0.813 0.687,-1.375 1.594,-1.375 1.578,0 3.187,1.468 3.625,3.234 l 1.562,6.203 c 0.016,0.078 0.047,0.172 0.047,0.266 0,0.234 -0.187,0.391 -0.422,0.391 -0.14,0 -0.484,-0.063 -0.609,-0.532 l -1.172,-4.672 c -0.078,-0.296 -0.078,-0.328 -0.203,-0.5 -0.328,-0.437 -0.844,-0.984 -1.61,-0.984 -0.89,0 -0.968,0.875 -0.968,1.312 0,0.907 0.422,2.126 0.859,3.266 0.172,0.469 0.266,0.688 0.266,1 0,0.672 -0.469,1.281 -1.25,1.281 -1.469,0 -2.063,-2.312 -2.063,-2.437 0,-0.063 0.078,-0.141 0.188,-0.141 0.14,0 0.156,0.063 0.218,0.281 0.375,1.344 0.985,1.969 1.61,1.969 0.14,0 0.406,0 0.406,-0.515 0,-0.422 -0.172,-0.875 -0.406,-1.485 -0.781,-2.078 -0.781,-2.609 -0.781,-2.984 0,-1.516 1.078,-1.859 1.875,-1.859 0.453,0 1.031,0.14 1.593,0.734 l 0.016,-0.016 c -0.25,-0.937 -0.406,-1.562 -0.953,-2.344 z"
   id="path15"
   inkscape:connector-curvature="0"
   style="fill:#000000;stroke-width:0" />
<path
   d="m 36.113,26.047 0,0.116 -0.002,0.121 -0.002,0.125 -0.004,0.128 -0.005,0.133 -0.007,0.136 -0.018,0.282 -0.025,0.294 -0.033,0.306 -0.042,0.316 -0.051,0.324 -0.062,0.332 -0.073,0.337 -0.085,0.343 -0.098,0.346 -0.112,0.348 -0.062,0.174 -0.065,0.175 -0.069,0.174 -0.073,0.174 -0.077,0.174 -0.082,0.173 c -0.937,1.906 -2.25,2.938 -2.421,2.938 -0.063,0 -0.141,-0.032 -0.141,-0.125 0,-0.047 0,-0.079 0.266,-0.36 1.593,-1.593 2.484,-4.219 2.484,-7.469 0,-3.078 -0.75,-5.734 -2.594,-7.609 -0.156,-0.141 -0.156,-0.172 -0.156,-0.219 0,-0.093 0.078,-0.125 0.141,-0.125 0.203,0 1.515,1.141 2.296,2.703 0.797,1.61 1.172,3.329 1.172,5.235 z"
   id="path17"
   inkscape:connector-curvature="0"
   style="fill:#000000;stroke-width:0" />
<line
   x1="0.39844"
   y1="15.293"
   x2="37.699001"
   y2="15.293"
   id="line19"
   style="stroke-width:0.63800001" />
<path
   d="m 18.559,11.016 10e-4,0.006 0.002,0.006 10e-4,0.006 0.002,0.006 0.004,0.014 0.004,0.014 0.003,0.014 0.004,0.015 0.004,0.015 0.004,0.015 0.003,0.015 0.004,0.016 0.003,0.016 0.002,0.015 0.003,0.016 10e-4,0.015 0.001,0.008 0,0.007 0,0.008 0,0.007 c 0,0.156 -0.156,0.156 -0.187,0.156 -0.031,0 -0.797,-0.062 -0.875,-0.078 -0.281,-0.016 -0.516,-0.047 -0.797,-0.062 -0.406,-0.032 -0.516,-0.047 -0.516,-0.344 0,-0.156 0.125,-0.156 0.36,-0.156 0.765,0 0.781,-0.141 0.781,-0.297 0,-0.094 -0.031,-0.219 -0.047,-0.266 L 16.355,6.3281 c -0.171,0.4219 -0.593,1.0625 -1.421,1.0625 -1.797,0 -3.735,-2.3281 -3.735,-4.6718 0,-1.5782 0.922,-2.50005 2,-2.50005 l 0.047,0.3125 c -0.656,0 -1.015,0.59375 -1.015,1.53125 0,0.875 0.484,2.6563 0.796,3.3125 0.532,1.125 1.282,1.6875 1.907,1.6875 1.047,0 1.25,-1.2969 1.25,-1.4219 0,-0.0156 -0.047,-0.2344 -0.063,-0.2656 L 15.34,2.2656 C 15.262,2 15.262,1.9688 15.043,1.6562 14.684,1.2188 13.996,0.53125 13.246,0.53125 l -0.047,-0.3125 c 0.875,0 1.625,0.6875 2.063,1.20315 0.156,-0.93752 0.906,-1.20315 1.39,-1.20315 0.469,0 0.86,0.28125 1.141,0.85935 0.25,0.5313 0.469,1.5 0.469,1.5625 0,0.0938 -0.063,0.1563 -0.157,0.1563 -0.14,0 -0.156,-0.0781 -0.218,-0.3281 -0.235,-0.9376 -0.547,-1.93755 -1.188,-1.93755 -0.469,0 -0.5,0.42187 -0.5,0.73435 0,0.0625 0,0.3906 0.11,0.8438 z"
   id="path21"
   inkscape:connector-curvature="0"
   style="fill:#000000;stroke-width:0" />
<path
   d="M 26.195,6.8594 26.149,6.8498 26.105,6.8386 26.062,6.8259 26.022,6.8117 25.982,6.7961 25.945,6.7792 25.909,6.7611 25.875,6.7417 25.842,6.7212 25.811,6.6996 25.781,6.677 25.753,6.6534 25.727,6.6289 25.702,6.6036 25.678,6.5775 25.656,6.5508 25.636,6.5234 25.617,6.4954 25.599,6.4669 25.583,6.4379 25.568,6.4086 25.555,6.3789 25.542,6.349 25.532,6.3188 25.522,6.2886 25.514,6.2582 25.507,6.2279 25.502,6.1976 25.498,6.1674 25.495,6.1374 25.493,6.1076 25.492,6.0781 c 0,-0.375 0.313,-0.5 0.531,-0.5 0.469,0 0.813,0.4063 0.813,0.8438 0,0.6562 -0.766,0.9687 -1.438,0.9687 -0.968,0 -1.5,-0.9531 -1.64,-1.2656 -0.375,1.2031 -1.36,1.2656 -1.641,1.2656 -1.625,0 -2.484,-2.0937 -2.484,-2.4375 0,-0.0625 0.062,-0.1406 0.172,-0.1406 0.125,0 0.156,0.0937 0.187,0.1563 0.547,1.7656 1.61,2.0937 2.078,2.0937 0.703,0 0.86,-0.6563 0.86,-1.0469 0,-0.3437 -0.094,-0.7187 -0.297,-1.4687 L 22.102,2.3594 c -0.25,-0.9532 -0.704,-1.82815 -1.547,-1.82815 -0.078,0 -0.469,0 -0.813,0.20313 0.578,0.125 0.703,0.59372 0.703,0.78122 0,0.3282 -0.234,0.5156 -0.547,0.5156 -0.375,0 -0.796,-0.3437 -0.796,-0.8437 0,-0.67188 0.75,-0.96875 1.437,-0.96875 0.766,0 1.297,0.59375 1.641,1.25005 0.25,-0.93755 1.047,-1.25005 1.64,-1.25005 1.61,0 2.469,2.07815 2.469,2.42185 0,0.0938 -0.062,0.1563 -0.156,0.1563 -0.141,0 -0.156,-0.0781 -0.203,-0.2188 -0.438,-1.3906 -1.36,-2.04685 -2.063,-2.04685 -0.562,0 -0.859,0.42187 -0.859,1.06255 0,0.3593 0.062,0.6093 0.312,1.6562 l 0.563,2.1562 c 0.234,0.9532 0.765,1.6563 1.5,1.6563 0.031,0 0.484,0 0.812,-0.2031 z"
   id="path23"
   inkscape:connector-curvature="0"
   style="fill:#000000;stroke-width:0" />
<path
   d="m 54.055,16.465 0.041,0 0.043,0 0.043,0.002 0.022,0.001 0.021,0.001 0.021,0.002 0.022,0.002 0.02,0.003 0.021,0.004 0.02,0.004 0.02,0.004 0.019,0.006 0.019,0.006 0.018,0.007 0.017,0.008 0.016,0.009 0.016,0.009 0.015,0.011 0.014,0.012 0.013,0.013 0.011,0.014 0.006,0.008 0.005,0.008 0.005,0.008 0.004,0.009 0.005,0.009 0.003,0.009 0.004,0.009 0.003,0.01 0.003,0.011 0.003,0.01 0.002,0.011 0.001,0.012 0.002,0.011 0.001,0.013 0,0.012 10e-4,0.013 c 0,0.297 -0.266,0.297 -0.5,0.297 H 44.68 c -0.219,0 -0.5,0 -0.5,-0.281 0,-0.297 0.265,-0.297 0.5,-0.297 z"
   id="path25"
   inkscape:connector-curvature="0"
   style="fill:#000000;stroke-width:0" />
<path
   d="m 54.055,13.496 0.041,0 0.043,10e-4 0.043,10e-4 0.022,0.001 0.021,0.002 0.021,0.002 0.022,0.002 0.02,0.003 0.021,0.004 0.02,0.004 0.02,0.005 0.019,0.006 0.019,0.006 0.018,0.008 0.017,0.008 0.016,0.009 0.016,0.011 0.015,0.011 0.014,0.013 0.013,0.013 0.011,0.015 0.006,0.008 0.005,0.009 0.005,0.008 0.004,0.009 0.005,0.01 0.003,0.009 0.004,0.011 0.003,0.01 0.003,0.011 0.003,0.011 0.002,0.012 0.001,0.012 0.002,0.012 0.001,0.013 0,0.013 10e-4,0.014 c 0,0.297 -0.266,0.297 -0.5,0.297 H 44.68 c -0.219,0 -0.5,0 -0.5,-0.281 0,-0.313 0.265,-0.313 0.5,-0.313 z"
   id="path27"
   inkscape:connector-curvature="0"
   style="fill:#000000;stroke-width:0" />
<path
   d="m 67.422,17.793 -0.046,-0.01 -0.044,-0.011 -0.043,-0.013 -0.041,-0.014 -0.039,-0.015 -0.038,-0.017 -0.036,-0.018 -0.034,-0.02 -0.033,-0.02 -0.031,-0.022 -0.029,-0.022 -0.028,-0.024 -0.027,-0.025 -0.025,-0.025 -0.023,-0.026 -0.022,-0.027 -0.021,-0.027 -0.019,-0.028 -0.017,-0.029 -0.017,-0.028 -0.014,-0.03 -0.014,-0.03 -0.012,-0.029 -0.011,-0.031 -0.009,-0.03 -0.008,-0.03 -0.007,-0.031 -0.005,-0.03 -0.005,-0.03 -0.003,-0.03 -0.002,-0.03 0,-0.029 c 0,-0.375 0.312,-0.5 0.531,-0.5 0.469,0 0.812,0.406 0.812,0.843 0,0.657 -0.765,0.969 -1.437,0.969 -0.969,0 -1.5,-0.953 -1.641,-1.265 -0.375,1.203 -1.359,1.265 -1.64,1.265 -1.625,0 -2.485,-2.094 -2.485,-2.437 0,-0.063 0.063,-0.141 0.172,-0.141 0.125,0 0.157,0.094 0.188,0.156 0.547,1.766 1.609,2.094 2.078,2.094 0.703,0 0.859,-0.656 0.859,-1.047 0,-0.344 -0.094,-0.719 -0.297,-1.468 l -0.531,-2.188 c -0.25,-0.953 -0.703,-1.828 -1.547,-1.828 -0.078,0 -0.469,0 -0.812,0.203 0.578,0.125 0.703,0.594 0.703,0.781 0,0.328 -0.234,0.516 -0.547,0.516 -0.375,0 -0.797,-0.344 -0.797,-0.844 0,-0.672 0.75,-0.969 1.438,-0.969 0.765,0 1.296,0.594 1.64,1.25 0.25,-0.937 1.047,-1.25 1.641,-1.25 1.609,0 2.469,2.079 2.469,2.422 0,0.094 -0.063,0.157 -0.157,0.157 -0.14,0 -0.156,-0.079 -0.203,-0.219 -0.437,-1.391 -1.359,-2.047 -2.062,-2.047 -0.563,0 -0.86,0.422 -0.86,1.062 0,0.36 0.063,0.61 0.313,1.657 l 0.562,2.156 c 0.235,0.953 0.766,1.656 1.5,1.656 0.032,0 0.485,0 0.813,-0.203 z"
   id="path29"
   inkscape:connector-curvature="0"
   style="fill:#000000;stroke-width:0" />
<path
   d="m 75.348,15.277 -0.001,0.044 -0.004,0.043 -0.005,0.042 -0.007,0.042 -0.01,0.041 -0.011,0.04 -0.013,0.04 -0.015,0.038 -0.017,0.037 -0.019,0.037 -0.02,0.035 -0.022,0.034 -0.023,0.033 -0.025,0.032 -0.027,0.031 -0.027,0.029 -0.03,0.028 -0.03,0.026 -0.032,0.025 -0.033,0.024 -0.034,0.022 -0.036,0.02 -0.036,0.018 -0.037,0.017 -0.039,0.015 -0.039,0.013 -0.04,0.012 -0.041,0.009 -0.042,0.007 -0.042,0.006 -0.043,0.003 -0.044,10e-4 c -0.453,0 -0.844,-0.375 -0.844,-0.844 0,-0.453 0.391,-0.843 0.844,-0.843 0.469,0 0.844,0.39 0.844,0.843 z"
   id="path31"
   inkscape:connector-curvature="0"
   style="fill:#000000;stroke-width:0" />
<path
   d="m 87.395,16.402 -0.002,0.246 -0.003,0.245 -0.007,0.244 -0.01,0.243 -0.014,0.243 -0.02,0.241 -0.025,0.24 -0.031,0.24 -0.038,0.238 -0.045,0.237 -0.053,0.236 -0.062,0.235 -0.071,0.233 -0.082,0.232 -0.091,0.231 -0.05,0.114 -0.053,0.115 c -0.656,1.312 -1.797,1.656 -2.578,1.656 -0.922,0 -2.047,-0.453 -2.64,-1.766 -0.438,-1.015 -0.594,-2 -0.594,-3.703 0,-1.546 0.109,-2.703 0.672,-3.843 0.625,-1.203 1.718,-1.578 2.547,-1.578 v 0.312 c -0.5,0 -1.532,0.281 -1.844,2.016 -0.172,0.953 -0.172,2.172 -0.172,3.281 0,1.297 0,2.469 0.25,3.406 0.281,1.078 1.078,1.563 1.766,1.563 0.609,0 1.531,-0.36 1.828,-1.735 0.203,-0.906 0.203,-2.156 0.203,-3.234 0,-1.063 0,-2.281 -0.172,-3.25 -0.297,-1.75 -1.297,-2.047 -1.859,-2.047 h 0 v -0.312 c 1.39,0 2.187,0.828 2.64,1.75 0.578,1.187 0.61,2.75 0.61,3.671 z"
   id="path33"
   inkscape:connector-curvature="0"
   style="fill:#000000;stroke-width:0" />
<path
   d="m 97.957,14.981 h 4.393 c 0.22,0 0.5,0 0.5,0.281 0,0.312 -0.27,0.312 -0.5,0.312 h -4.393 v 4.375 c 0,0.235 0,0.516 -0.281,0.516 -0.313,0 -0.313,-0.266 -0.313,-0.516 v -4.375 h -4.39 c -0.219,0 -0.5,0 -0.5,-0.297 0,-0.296 0.265,-0.296 0.5,-0.296 h 4.39 V 10.59 c 0,-0.219 0,-0.5 0.297,-0.5 0.297,0 0.297,0.266 0.297,0.5 z"
   id="path35"
   inkscape:connector-curvature="0"
   style="fill:#000000;stroke-width:0" />
<path
   d="m 111.87,21.496 0,0.017 0,0.016 0,0.015 0,0.016 0,0.014 0,0.014 0,0.014 0,0.013 0,0.013 0,0.013 0,0.012 -0.01,0.011 0,0.011 0,0.011 0,0.01 0,0.01 0,0.01 0,0.009 0,0.009 0,0.008 0,0.008 -0.01,0.008 0,0.008 0,0.007 0,0.006 0,0.007 -0.01,0.012 -0.01,0.011 0,0.009 -0.01,0.009 -0.01,0.008 -0.01,0.006 -0.01,0.006 -0.01,0.005 -0.01,0.005 -0.02,0.003 -0.01,0.002 0,0.001 -0.01,0.001 -0.01,10e-4 -0.01,0.001 -0.01,0.001 -0.01,10e-4 -0.01,0.001 -0.01,0 -0.01,0.001 -0.01,0 -0.02,0 -0.01,10e-4 -0.01,0 -0.01,0 -0.02,0 -0.01,0 -0.01,0 c -0.4,-0.422 -1.19,-1.016 -2.82,-1.016 v -0.453 c 0.36,0 1.16,0 2.03,0.407 v -8.282 c 0,-0.562 -0.04,-0.765 -1.45,-0.765 h -0.48 v -0.453 c 0.42,0.031 1.97,0.031 2.48,0.031 0.53,0 2.06,0 2.49,-0.031 v 0.453 h -0.49 c -1.41,0 -1.45,0.203 -1.45,0.765 z"
   id="path37"
   inkscape:connector-curvature="0"
   style="fill:#000000;stroke-width:0" />
<path
   d="m 121.69,15.277 0,0.044 0,0.043 -0.01,0.042 -0.01,0.042 -0.01,0.041 -0.01,0.04 -0.01,0.04 -0.01,0.038 -0.02,0.037 -0.02,0.037 -0.02,0.035 -0.02,0.034 -0.03,0.033 -0.02,0.032 -0.03,0.031 -0.02,0.029 -0.03,0.028 -0.03,0.026 -0.04,0.025 -0.03,0.024 -0.03,0.022 -0.04,0.02 -0.04,0.018 -0.03,0.017 -0.04,0.015 -0.04,0.013 -0.04,0.012 -0.04,0.009 -0.04,0.007 -0.05,0.006 -0.04,0.003 -0.04,10e-4 c -0.46,0 -0.85,-0.375 -0.85,-0.844 0,-0.453 0.39,-0.843 0.85,-0.843 0.47,0 0.84,0.39 0.84,0.843 z"
   id="path39"
   inkscape:connector-curvature="0"
   style="fill:#000000;stroke-width:0" />
<path
   d="m 130.8,9.5273 -0.08,-0.1132 -0.09,-0.1107 -0.09,-0.1076 -0.1,-0.1038 -0.05,-0.0502 -0.05,-0.049 -0.05,-0.0478 -0.05,-0.0463 -0.06,-0.045 -0.05,-0.0434 -0.06,-0.0417 -0.06,-0.0401 -0.05,-0.0383 -0.06,-0.0364 -0.06,-0.0344 -0.06,-0.0325 -0.07,-0.0303 -0.06,-0.0281 -0.06,-0.0258 -0.07,-0.0235 -0.06,-0.021 -0.07,-0.0184 -0.06,-0.0159 -0.07,-0.0132 -0.07,-0.0103 -0.07,-0.0076 -0.07,-0.0045 -0.07,-0.0016 c -0.21,0 -0.96,0.0313 -1.21,0.7656 0.05,-0.0156 0.13,-0.0156 0.16,-0.0156 0.48,0 0.8,0.4063 0.8,0.7656 0,0.3747 -0.3,0.4997 -0.53,0.4997 -0.27,0 -0.82,-0.187 -0.82,-0.9684 0,-0.8125 0.69,-1.375 1.6,-1.375 1.57,0 3.18,1.4687 3.62,3.2344 l 1.56,6.203 c 0.02,0.078 0.05,0.172 0.05,0.266 0,0.234 -0.19,0.39 -0.42,0.39 -0.14,0 -0.49,-0.062 -0.61,-0.531 l -1.17,-4.672 c -0.08,-0.297 -0.08,-0.328 -0.21,-0.5 -0.32,-0.437 -0.84,-0.984 -1.6,-0.984 -0.9,0 -0.97,0.875 -0.97,1.312 0,0.907 0.42,2.125 0.86,3.266 0.17,0.469 0.26,0.687 0.26,1 0,0.672 -0.47,1.281 -1.25,1.281 -1.47,0 -2.06,-2.312 -2.06,-2.437 0,-0.063 0.08,-0.141 0.19,-0.141 0.14,0 0.15,0.063 0.21,0.281 0.38,1.344 0.99,1.969 1.61,1.969 0.15,0 0.41,0 0.41,-0.516 0,-0.421 -0.17,-0.875 -0.41,-1.484 -0.78,-2.078 -0.78,-2.609 -0.78,-2.984 0,-1.516 1.08,-1.86 1.88,-1.86 0.45,0 1.03,0.141 1.59,0.735 l 0.02,-0.016 c -0.25,-0.937 -0.41,-1.562 -0.96,-2.3437 z"
   id="path41"
   inkscape:connector-curvature="0"
   style="fill:#000000;stroke-width:0" />
</g></svg>
