<?xml version="1.0" encoding="UTF-8" standalone="no"?>
<svg
   xmlns:dc="http://purl.org/dc/elements/1.1/"
   xmlns:cc="http://creativecommons.org/ns#"
   xmlns:rdf="http://www.w3.org/1999/02/22-rdf-syntax-ns#"
   xmlns:svg="http://www.w3.org/2000/svg"
   xmlns="http://www.w3.org/2000/svg"
   xmlns:sodipodi="http://sodipodi.sourceforge.net/DTD/sodipodi-0.dtd"
   xmlns:inkscape="http://www.inkscape.org/namespaces/inkscape"
   version="1.1"
   id="body"
   width="107.96806"
   height="45.429398"
   viewBox="0 0 0.14995563 0.063096386"
   preserveAspectRatio="none"
   inkscape:version="0.48.3.1 r9886"
   sodipodi:docname="ch2-Z-G-10.svg">
  <metadata
     id="metadata35">
    <rdf:RDF>
      <cc:Work
         rdf:about="">
        <dc:format>image/svg+xml</dc:format>
        <dc:type
           rdf:resource="http://purl.org/dc/dcmitype/StillImage" />
      </cc:Work>
    </rdf:RDF>
  </metadata>
  <defs
     id="defs33" />
  <sodipodi:namedview
     pagecolor="#ffffff"
     bordercolor="#666666"
     borderopacity="1"
     objecttolerance="10"
     gridtolerance="10"
     guidetolerance="10"
     inkscape:pageopacity="0"
     inkscape:pageshadow="2"
     inkscape:window-width="640"
     inkscape:window-height="480"
     id="namedview31"
     showgrid="false"
     inkscape:zoom="0.32777778"
     inkscape:cx="381.48438"
     inkscape:cy="459.87619"
     inkscape:window-x="0"
     inkscape:window-y="24"
     inkscape:window-maximized="0"
     inkscape:current-layer="body" />
  <title
     id="title3">SVG drawing</title>
  <desc
     id="desc5">This was produced by version 4.4 of GNU libplot, a free library for exporting 2-D vector graphics.</desc>
  <g
     id="content"
     transform="matrix(0.0017361,0,0,-0.0017361,-0.00141058,0.06315064)"
     xml:space="preserve"
     stroke-miterlimit="10.433"
     font-style="normal"
     font-variant="normal"
     font-weight="normal"
     font-stretch="normal"
     font-size-adjust="none"
     letter-spacing="normal"
     word-spacing="normal"
     style="font-style:normal;font-variant:normal;font-weight:normal;font-stretch:normal;letter-spacing:normal;word-spacing:normal;text-anchor:start;fill:none;stroke:#000000;stroke-linecap:butt;stroke-linejoin:miter;stroke-miterlimit:10.43299961;stroke-opacity:1;stroke-dasharray:none;stroke-dashoffset:0">
<path
   d="m 44.676,35.965 0,0.016 0,0.016 0,0.016 0,0.015 0,0.015 0,0.014 -0.001,0.014 0,0.013 0,0.013 0,0.012 -10e-4,0.012 0,0.012 -10e-4,0.011 0,0.011 -0.001,0.01 -10e-4,0.01 -10e-4,0.01 -0.001,0.009 -10e-4,0.009 -0.002,0.008 -10e-4,0.008 -0.002,0.008 -0.002,0.007 -0.002,0.007 -0.004,0.014 -0.005,0.012 -0.006,0.01 -0.007,0.01 -0.008,0.009 -0.009,0.007 -0.01,0.007 -0.01,0.006 -0.013,0.005 -0.013,0.004 -0.014,0.004 -0.008,10e-4 -0.008,0.002 -0.008,10e-4 -0.009,0.001 -0.009,10e-4 -0.01,10e-4 -0.01,0.001 -0.01,0 -0.011,10e-4 -0.011,0 -0.011,10e-4 -0.012,0 -0.012,0 -0.013,0.001 -0.013,0 -0.013,0 -0.014,0 -0.015,0 c -0.39,-0.422 -1.187,-1.016 -2.812,-1.016 v -0.453 c 0.359,0 1.156,0 2.031,0.406 v -8.281 c 0,-0.562 -0.047,-0.766 -1.453,-0.766 h -0.484 v -0.453 c 0.421,0.032 1.968,0.032 2.484,0.032 0.531,0 2.062,0 2.484,-0.032 v 0.453 h -0.484 c -1.406,0 -1.453,0.204 -1.453,0.766 z"
   id="path9"
   inkscape:connector-curvature="0"
   style="fill:#000000;stroke-width:0" />
<line
   x1="0.82422"
   y1="18.976999"
   x2="87.18"
   y2="18.976999"
   id="line11"
   style="stroke-width:0.63800001" />
<path
   d="m 5.4023,14.246 0,0.017 0,0.016 0,0.015 0,0.016 -1e-4,0.014 -10e-5,0.014 -2e-4,0.014 -2e-4,0.013 -2e-4,0.013 -4e-4,0.013 -3e-4,0.012 -5e-4,0.011 -6e-4,0.011 -6e-4,0.011 -8e-4,0.01 -8e-4,0.01 -0.001,0.01 -0.0011,0.009 -0.0012,0.009 -0.0014,0.008 -0.0015,0.008 -0.0017,0.008 -0.0018,0.008 -0.0019,0.007 -0.0045,0.013 -0.0052,0.012 -0.006,0.011 -0.0069,0.009 -0.0078,0.009 -0.0088,0.008 -0.0098,0.006 -0.0109,0.006 -0.012,0.005 -0.0132,0.005 -0.0145,0.003 -0.0077,0.002 -0.0081,10e-4 -0.0084,0.001 -0.0088,10e-4 -0.0091,10e-4 -0.0095,0.001 -0.0098,10e-4 -0.0103,10e-4 -0.0106,0 -0.011,10e-4 -0.0114,0 -0.0119,0 -0.0122,0.001 -0.0127,0 -0.013,0 -0.0136,0 -0.0139,0 -0.0145,0 C 4.6992,14.199 3.9023,13.606 2.2773,13.606 v -0.454 c 0.3594,0 1.1563,0 2.0313,0.407 V 5.2773 C 4.3086,4.7148 4.2617,4.5117 2.8555,4.5117 H 2.3711 V 4.0586 c 0.4219,0.0312 1.9687,0.0312 2.4844,0.0312 0.5312,0 2.0625,0 2.4843,-0.0312 V 4.5117 H 6.8555 c -1.4063,0 -1.4532,0.2031 -1.4532,0.7656 z"
   id="path13"
   inkscape:connector-curvature="0"
   style="fill:#000000;stroke-width:0" />
<path
   d="m 15.441,15.387 0,10e-4 10e-4,10e-4 0,0.001 0,0.002 10e-4,0.002 0.001,0.003 10e-4,0.003 0,0.003 10e-4,0.003 0.002,0.003 10e-4,0.004 10e-4,0.004 0.001,0.004 0.002,0.005 0.003,0.009 0.003,0.01 0.004,0.011 0.004,0.011 0.004,0.012 0.004,0.012 0.005,0.013 0.008,0.025 0.009,0.026 0.004,0.013 0.005,0.012 0.004,0.012 0.003,0.012 0.004,0.011 0.004,0.011 0.003,0.01 0.003,0.01 0.001,0.004 10e-4,0.005 10e-4,0.004 0.001,0.003 10e-4,0.004 10e-4,0.003 0.001,0.003 0,0.003 10e-4,0.003 0,0.002 0,0.002 0,0.002 c 0,0.187 -0.156,0.297 -0.281,0.297 -0.078,0 -0.219,0 -0.344,-0.344 L 9.582,0.66797 c 0,-0.01563 -0.0937,-0.25 -0.0937,-0.28125 0,-0.1875 0.1562,-0.296876 0.2812,-0.296876 0.0938,0 0.2345,0.015626 0.3595,0.343746 z"
   id="path15"
   inkscape:connector-curvature="0"
   style="fill:#000000;stroke-width:0" />
<path
   d="m 24.492,9.4648 0.183,0.0421 0.181,0.0469 0.178,0.0517 0.174,0.0563 0.172,0.0608 0.168,0.065 0.164,0.0693 0.16,0.0733 0.156,0.0768 0.152,0.081 0.147,0.085 0.143,0.088 0.137,0.091 0.133,0.095 0.127,0.097 0.121,0.101 0.116,0.103 0.11,0.105 0.103,0.109 0.098,0.11 0.09,0.113 0.084,0.115 0.077,0.116 0.069,0.119 0.063,0.12 0.054,0.121 0.047,0.123 0.038,0.124 0.031,0.125 0.022,0.126 0.013,0.126 0.005,0.127 c 0,1.25 -1.266,2.391 -3.469,2.391 h -4.312 c -0.313,0 -0.454,0 -0.454,-0.312 0,-0.157 0.11,-0.157 0.407,-0.157 0.953,0 0.953,-0.125 0.953,-0.297 0,-0.031 0,-0.125 -0.063,-0.359 L 18.93,5.2305 C 18.789,4.6836 18.758,4.5117 17.648,4.5117 c -0.359,0 -0.468,0 -0.468,-0.2969 0,-0.1562 0.172,-0.1562 0.218,-0.1562 0.282,0 0.625,0.0312 0.922,0.0312 h 1.875 c 0.282,0 0.625,-0.0312 0.907,-0.0312 0.125,0 0.296,0 0.296,0.2969 0,0.1562 -0.14,0.1562 -0.375,0.1562 -0.968,0 -0.968,0.1406 -0.968,0.2969 0,0.0156 0,0.125 0.031,0.25 l 1.062,4.2812 h 1.907 l -0.032,0.3125 h -1.796 l 1.046,4.1877 c 0.141,0.578 0.219,0.609 0.829,0.609 h 1.14 c 1.375,0 2.391,-0.406 2.391,-1.656 0,-0.797 -0.406,-3.1407 -3.61,-3.1407 l 0.032,-0.3125 c 1.515,0 1.797,-0.9531 1.797,-1.4843 0,-0.2344 -0.157,-0.8594 -0.266,-1.2657 -0.172,-0.7343 -0.219,-0.9062 -0.219,-1.2187 0,-1.125 0.922,-1.6406 1.985,-1.6406 1.281,0 1.843,1.5625 1.843,1.7968 0,0.1094 -0.078,0.1563 -0.172,0.1563 -0.14,0 -0.171,-0.0938 -0.203,-0.2188 C 27.445,4.3242 26.789,4.043 26.398,4.043 c -0.406,0 -0.656,0.1718 -0.656,0.8906 0,0.375 0.188,1.8281 0.203,1.9062 0.078,0.5938 0.078,0.6563 0.078,0.7813 0,1.1562 -0.937,1.6562 -1.531,1.8437 z"
   id="path17"
   inkscape:connector-curvature="0"
   style="fill:#000000;stroke-width:0" />
<path
   d="m 31.594,8.8086 0,0.0123 0,0.0119 0,0.0116 0,0.0113 0,0.011 0,0.0106 -0.001,0.0103 0,0.01 0,0.0097 0,0.0094 -0.001,0.0091 0,0.0088 -10e-4,0.0168 -0.001,0.0156 -0.002,0.0146 -0.002,0.0136 -0.003,0.0125 -0.003,0.0116 -0.004,0.0106 -0.004,0.0098 -0.006,0.0089 -0.005,0.008 -0.007,0.0073 -0.007,0.0066 -0.009,0.0059 -0.009,0.0052 -0.01,0.0045 -0.006,0.0021 -0.006,0.0019 -0.006,0.0018 -0.006,0.0016 -0.006,0.0015 -0.007,0.0014 -0.007,0.0013 -0.008,0.0012 -0.008,10e-4 -0.008,9e-4 -0.008,9e-4 -0.009,7e-4 -0.009,7e-4 -0.009,5e-4 -0.01,5e-4 -0.01,4e-4 -0.01,3e-4 -0.011,3e-4 -0.011,10e-5 -0.012,2e-4 -0.012,0 -0.012,10e-5 C 30.641,8.3867 29.656,8.3867 29.312,8.3867 V 8.043 c 0.219,0 0.876,0 1.454,0.2812 V 2.543 c 0,-0.3907 -0.032,-0.5313 -1.032,-0.5313 H 29.375 V 1.668 c 0.391,0.0312 1.359,0.0312 1.797,0.0312 0.453,0 1.422,0 1.812,-0.0312 v 0.3437 h -0.359 c -1,0 -1.031,0.125 -1.031,0.5313 z"
   id="path19"
   inkscape:connector-curvature="0"
   style="fill:#000000;stroke-width:0" />
<path
   d="m 44.273,7.7305 h 4.391 c 0.219,0 0.5,0 0.5,0.2812 0,0.3125 -0.266,0.3125 -0.5,0.3125 h -4.391 v 4.3748 c 0,0.235 0,0.516 -0.281,0.516 -0.312,0 -0.312,-0.266 -0.312,-0.516 V 8.3242 h -4.391 c -0.219,0 -0.5,0 -0.5,-0.2969 0,-0.2968 0.266,-0.2968 0.5,-0.2968 H 43.68 V 3.3398 c 0,-0.2187 0,-0.5 0.297,-0.5 0.296,0 0.296,0.2657 0.296,0.5 z"
   id="path21"
   inkscape:connector-curvature="0"
   style="fill:#000000;stroke-width:0" />
<path
   d="m 58.184,14.246 0,0.017 0,0.016 0,0.015 0,0.016 -10e-4,0.014 0,0.014 0,0.014 0,0.013 0,0.013 -10e-4,0.013 0,0.012 0,0.011 -0.001,0.011 -10e-4,0.011 0,0.01 -10e-4,0.01 -0.001,0.01 -10e-4,0.009 -0.002,0.009 -10e-4,0.008 -10e-4,0.008 -0.002,0.008 -0.002,0.008 -0.002,0.007 -0.004,0.013 -0.006,0.012 -0.006,0.011 -0.006,0.009 -0.008,0.009 -0.009,0.008 -0.01,0.006 -0.011,0.006 -0.012,0.005 -0.013,0.005 -0.014,0.003 -0.008,0.002 -0.008,10e-4 -0.009,0.001 -0.008,10e-4 -0.01,10e-4 -0.009,0.001 -0.01,10e-4 -0.01,10e-4 -0.011,0 -0.011,10e-4 -0.011,0 -0.012,0 -0.012,0.001 -0.013,0 -0.013,0 -0.014,0 -0.013,0 -0.015,0 C 57.48,14.199 56.684,13.606 55.059,13.606 v -0.454 c 0.359,0 1.156,0 2.031,0.407 V 5.2773 c 0,-0.5625 -0.047,-0.7656 -1.453,-0.7656 H 55.152 V 4.0586 c 0.422,0.0312 1.969,0.0312 2.485,0.0312 0.531,0 2.062,0 2.484,-0.0312 v 0.4531 h -0.484 c -1.407,0 -1.453,0.2031 -1.453,0.7656 z"
   id="path23"
   inkscape:connector-curvature="0"
   style="fill:#000000;stroke-width:0" />
<path
   d="m 68.227,15.387 0,10e-4 0,10e-4 0,0.001 10e-4,0.002 0,0.002 0.001,0.003 0.001,0.003 10e-4,0.003 0.001,0.003 0.001,0.003 10e-4,0.004 0.001,0.004 0.002,0.004 0.001,0.005 0.003,0.009 0.004,0.01 0.003,0.011 0.004,0.011 0.004,0.012 0.004,0.012 0.005,0.013 0.008,0.025 0.009,0.026 0.004,0.013 0.005,0.012 0.004,0.012 0.004,0.012 0.003,0.011 0.004,0.011 0.003,0.01 0.003,0.01 0.001,0.004 10e-4,0.005 0.001,0.004 0.001,0.003 10e-4,0.004 0.001,0.003 0.001,0.003 0,0.003 10e-4,0.003 0,0.002 0,0.002 0,0.002 c 0,0.187 -0.156,0.297 -0.281,0.297 -0.078,0 -0.219,0 -0.344,-0.344 L 62.367,0.66797 c 0,-0.01563 -0.094,-0.25 -0.094,-0.28125 0,-0.1875 0.157,-0.296876 0.282,-0.296876 0.093,0 0.234,0.015626 0.359,0.343746 z"
   id="path25"
   inkscape:connector-curvature="0"
   style="fill:#000000;stroke-width:0" />
<path
   d="m 77.281,9.4648 0.184,0.0421 0.18,0.0469 0.178,0.0517 0.175,0.0563 0.171,0.0608 0.168,0.065 0.164,0.0693 0.16,0.0733 0.156,0.0768 0.152,0.081 0.147,0.085 0.143,0.088 0.137,0.091 0.133,0.095 0.127,0.097 0.121,0.101 0.116,0.103 0.11,0.105 0.103,0.109 0.098,0.11 0.09,0.113 0.084,0.115 0.077,0.116 0.069,0.119 0.063,0.12 0.054,0.121 0.047,0.123 0.039,0.124 0.03,0.125 0.022,0.126 0.013,0.126 0.005,0.127 c 0,1.25 -1.266,2.391 -3.469,2.391 h -4.312 c -0.313,0 -0.454,0 -0.454,-0.312 0,-0.157 0.11,-0.157 0.407,-0.157 0.953,0 0.953,-0.125 0.953,-0.297 0,-0.031 0,-0.125 -0.063,-0.359 L 71.719,5.2305 C 71.578,4.6836 71.547,4.5117 70.438,4.5117 c -0.36,0 -0.469,0 -0.469,-0.2969 0,-0.1562 0.172,-0.1562 0.219,-0.1562 0.281,0 0.624,0.0312 0.921,0.0312 h 1.875 c 0.282,0 0.625,-0.0312 0.907,-0.0312 0.125,0 0.297,0 0.297,0.2969 0,0.1562 -0.141,0.1562 -0.376,0.1562 -0.968,0 -0.968,0.1406 -0.968,0.2969 0,0.0156 0,0.125 0.031,0.25 l 1.063,4.2812 h 1.906 l -0.032,0.3125 h -1.796 l 1.046,4.1877 c 0.141,0.578 0.219,0.609 0.829,0.609 h 1.14 c 1.375,0 2.391,-0.406 2.391,-1.656 0,-0.797 -0.406,-3.1407 -3.61,-3.1407 l 0.032,-0.3125 c 1.515,0 1.797,-0.9531 1.797,-1.4843 0,-0.2344 -0.157,-0.8594 -0.266,-1.2657 -0.172,-0.7343 -0.219,-0.9062 -0.219,-1.2187 0,-1.125 0.922,-1.6406 1.985,-1.6406 1.281,0 1.843,1.5625 1.843,1.7968 0,0.1094 -0.078,0.1563 -0.172,0.1563 -0.14,0 -0.171,-0.0938 -0.203,-0.2188 C 80.234,4.3242 79.578,4.043 79.188,4.043 c -0.407,0 -0.657,0.1718 -0.657,0.8906 0,0.375 0.188,1.8281 0.203,1.9062 0.078,0.5938 0.078,0.6563 0.078,0.7813 0,1.1562 -0.937,1.6562 -1.531,1.8437 z"
   id="path27"
   inkscape:connector-curvature="0"
   style="fill:#000000;stroke-width:0" />
<path
   d="m 82.523,2.5273 1.172,1.1563 c 1.75,1.5312 2.422,2.1406 2.422,3.25 0,1.2656 -1.015,2.1719 -2.375,2.1719 -1.25,0 -2.078,-1.0313 -2.078,-2.0313 0,-0.625 0.547,-0.625 0.594,-0.625 0.187,0 0.578,0.1406 0.578,0.5938 0,0.2968 -0.203,0.5781 -0.594,0.5781 -0.094,0 -0.109,0 -0.14,0 0.25,0.7187 0.859,1.125 1.5,1.125 1.015,0 1.5,-0.8906 1.5,-1.8125 0,-0.8906 -0.563,-1.7813 -1.172,-2.4688 L 81.789,2.0742 C 81.664,1.9648 81.664,1.9336 81.664,1.668 h 4.141 l 0.312,1.9375 H 85.836 C 85.773,3.2773 85.695,2.7773 85.586,2.6211 85.508,2.5273 84.773,2.5273 84.523,2.5273 z"
   id="path29"
   inkscape:connector-curvature="0"
   style="fill:#000000;stroke-width:0" />
</g></svg>
