<?xml version="1.0" encoding="UTF-8" standalone="no"?>
<svg
   xmlns:dc="http://purl.org/dc/elements/1.1/"
   xmlns:cc="http://creativecommons.org/ns#"
   xmlns:rdf="http://www.w3.org/1999/02/22-rdf-syntax-ns#"
   xmlns:svg="http://www.w3.org/2000/svg"
   xmlns="http://www.w3.org/2000/svg"
   xmlns:sodipodi="http://sodipodi.sourceforge.net/DTD/sodipodi-0.dtd"
   xmlns:inkscape="http://www.inkscape.org/namespaces/inkscape"
   version="1.1"
   id="body"
   width="114.45239"
   height="47.148136"
   viewBox="0 0 0.15896166 0.065483522"
   preserveAspectRatio="none"
   inkscape:version="0.48.3.1 r9886"
   sodipodi:docname="ch2-Z-G-4.svg">
  <metadata
     id="metadata57">
    <rdf:RDF>
      <cc:Work
         rdf:about="">
        <dc:format>image/svg+xml</dc:format>
        <dc:type
           rdf:resource="http://purl.org/dc/dcmitype/StillImage" />
      </cc:Work>
    </rdf:RDF>
  </metadata>
  <defs
     id="defs55" />
  <sodipodi:namedview
     pagecolor="#ffffff"
     bordercolor="#666666"
     borderopacity="1"
     objecttolerance="10"
     gridtolerance="10"
     guidetolerance="10"
     inkscape:pageopacity="0"
     inkscape:pageshadow="2"
     inkscape:window-width="640"
     inkscape:window-height="480"
     id="namedview53"
     showgrid="false"
     inkscape:zoom="0.32777778"
     inkscape:cx="382.22656"
     inkscape:cy="459.48557"
     inkscape:window-x="0"
     inkscape:window-y="24"
     inkscape:window-maximized="0"
     inkscape:current-layer="body" />
  <title
     id="title3">SVG drawing</title>
  <desc
     id="desc5">This was produced by version 4.4 of GNU libplot, a free library for exporting 2-D vector graphics.</desc>
  <g
     id="content"
     transform="matrix(0.0017361,0,0,-0.0017361,-3.7977188e-4,0.06608031)"
     xml:space="preserve"
     stroke-miterlimit="10.433"
     font-style="normal"
     font-variant="normal"
     font-weight="normal"
     font-stretch="normal"
     font-size-adjust="none"
     letter-spacing="normal"
     word-spacing="normal"
     style="font-style:normal;font-variant:normal;font-weight:normal;font-stretch:normal;letter-spacing:normal;word-spacing:normal;text-anchor:start;fill:none;stroke:#000000;stroke-linecap:butt;stroke-linejoin:miter;stroke-miterlimit:10.43299961;stroke-opacity:1;stroke-dasharray:none;stroke-dashoffset:0">
<path
   d="m 3.5,30.75 0.004,0.011 0.006,0.015 0.0081,0.018 0.0102,0.022 0.0121,0.026 0.0141,0.028 0.016,0.032 0.0179,0.035 0.0198,0.037 0.0216,0.04 0.0235,0.042 0.0252,0.044 0.027,0.046 0.0288,0.048 0.0304,0.05 0.0322,0.051 0.0338,0.052 0.0354,0.053 0.0369,0.055 0.0386,0.054 0.0401,0.056 0.0416,0.055 0.043,0.056 0.0445,0.056 0.046,0.056 0.0473,0.055 0.0487,0.055 0.05,0.054 0.0513,0.053 0.0526,0.051 0.0539,0.051 0.055,0.049 c 0.4063,0.375 0.9532,0.625 1.5625,0.625 0.6407,0 0.8594,-0.469 0.8594,-1.109 0,-0.906 -0.6406,-2.719 -0.9687,-3.578 C 5.8281,27.719 5.75,27.516 5.75,27.219 5.75,26.5 6.25,25.938 7,25.938 c 1.4844,0 2.0469,2.328 2.0469,2.421 0,0.094 -0.0781,0.157 -0.1719,0.157 -0.1406,0 -0.1562,-0.047 -0.2344,-0.328 C 8.2812,26.891 7.6719,26.25 7.0469,26.25 c -0.1563,0 -0.4063,0.016 -0.4063,0.531 0,0.391 0.1719,0.875 0.2656,1.094 0.3282,0.875 0.9844,2.656 0.9844,3.563 0,0.953 -0.5468,1.671 -1.7656,1.671 -1.4062,0 -2.1562,-1 -2.4375,-1.406 -0.0469,0.906 -0.7031,1.406 -1.4063,1.406 -0.5,0 -0.8593,-0.312 -1.125,-0.843 -0.2812,-0.578 -0.51558,-1.532 -0.51558,-1.594 0,-0.063 0.07813,-0.141 0.1875,-0.141 0.125,0 0.14063,0.016 0.23438,0.375 0.25,0.969 0.5313,1.875 1.1719,1.875 0.375,0 0.5,-0.25 0.5,-0.734 0,-0.344 -0.1563,-0.969 -0.2813,-1.453 L 2.0156,28.875 C 1.9531,28.578 1.7812,27.859 1.7031,27.578 1.5781,27.156 1.4062,26.406 1.4062,26.328 c 0,-0.219 0.1719,-0.39 0.4219,-0.39 0.1875,0 0.4063,0.093 0.5313,0.328 0.0312,0.078 0.1875,0.64 0.2656,0.953 l 0.3438,1.437 z"
   id="path9"
   inkscape:connector-curvature="0"
   style="fill:#000000;stroke-width:0" />
<path
   d="m 12.816,30.844 0,0.012 0,0.012 0,0.012 0,0.011 0,0.011 0,0.01 0,0.011 0,0.01 0,0.01 -0.001,0.009 0,0.009 0,0.009 -10e-4,0.017 -0.002,0.015 -0.002,0.015 -0.002,0.013 -0.002,0.013 -0.004,0.011 -0.003,0.011 -0.005,0.01 -0.005,0.009 -0.006,0.008 -0.006,0.007 -0.008,0.007 -0.008,0.006 -0.009,0.005 -0.011,0.004 -0.005,0.002 -0.006,0.002 -0.006,0.002 -0.006,0.002 -0.007,10e-4 -0.007,0.002 -0.007,10e-4 -0.007,0.001 -0.008,0.001 -0.008,10e-4 -0.008,0.001 -0.009,0.001 -0.009,0 -0.01,10e-4 -0.009,0 -0.01,0.001 -0.011,0 -0.01,0 -0.012,0 -0.011,10e-4 -0.012,0 -0.012,0 c -0.688,-0.719 -1.672,-0.719 -2.016,-0.719 v -0.344 c 0.219,0 0.875,0 1.453,0.281 v -5.781 c 0,-0.39 -0.031,-0.531 -1.031,-0.531 h -0.359 v -0.344 c 0.39,0.031 1.359,0.031 1.796,0.031 0.454,0 1.422,0 1.813,-0.031 v 0.344 h -0.359 c -1,0 -1.032,0.125 -1.032,0.531 z"
   id="path11"
   inkscape:connector-curvature="0"
   style="fill:#000000;stroke-width:0" />
<path
   d="m 22.426,37.422 0,0.001 0,10e-4 0,0.002 0.001,10e-4 0,0.003 0.001,0.002 10e-4,0.003 0.001,0.003 0.001,0.003 10e-4,0.004 0.001,0.003 0.001,0.004 0.002,0.005 0.001,0.004 0.003,0.009 0.004,0.011 0.004,0.01 0.003,0.012 0.004,0.011 0.005,0.013 0.004,0.012 0.009,0.025 0.008,0.026 0.005,0.013 0.004,0.012 0.004,0.012 0.004,0.012 0.003,0.012 0.004,0.01 0.003,0.011 0.003,0.009 0.001,0.005 0.001,0.004 10e-4,0.004 0.001,0.004 10e-4,0.003 0.001,0.004 0.001,0.003 0,0.002 10e-4,0.003 0,0.002 0,0.002 0.001,0.002 c 0,0.187 -0.157,0.297 -0.282,0.297 -0.078,0 -0.218,0 -0.343,-0.344 L 16.566,22.703 c 0,-0.015 -0.093,-0.25 -0.093,-0.281 0,-0.188 0.156,-0.297 0.281,-0.297 0.094,0 0.234,0.016 0.359,0.344 z"
   id="path13"
   inkscape:connector-curvature="0"
   style="fill:#000000;stroke-width:0" />
<path
   d="m 31.418,36.734 0.002,0.006 10e-4,0.006 0.002,0.007 0.001,0.006 0.004,0.014 0.004,0.013 0.004,0.015 0.004,0.014 0.004,0.015 0.003,0.016 0.004,0.015 0.003,0.016 0.003,0.015 0.003,0.016 0.002,0.015 0.001,0.016 10e-4,0.007 0,0.008 0.001,0.007 0,0.008 c 0,0.156 -0.156,0.156 -0.188,0.156 -0.031,0 -0.797,-0.063 -0.875,-0.078 C 30.121,37.031 29.887,37 29.605,36.984 29.199,36.953 29.09,36.938 29.09,36.641 c 0,-0.157 0.125,-0.157 0.359,-0.157 0.766,0 0.781,-0.14 0.781,-0.296 0,-0.094 -0.031,-0.219 -0.046,-0.266 l -0.969,-3.875 c -0.172,0.422 -0.594,1.062 -1.422,1.062 -1.797,0 -3.734,-2.328 -3.734,-4.671 0,-1.579 0.921,-2.5 2,-2.5 l 0.046,0.312 c -0.656,0 -1.015,0.594 -1.015,1.531 0,0.875 0.484,2.657 0.797,3.313 0.531,1.125 1.281,1.687 1.906,1.687 1.047,0 1.25,-1.297 1.25,-1.422 0,-0.015 -0.047,-0.234 -0.063,-0.265 l -0.781,-3.11 C 28.121,27.719 28.121,27.688 27.902,27.375 27.543,26.938 26.855,26.25 26.105,26.25 l -0.046,-0.312 c 0.875,0 1.625,0.687 2.062,1.203 0.156,-0.938 0.906,-1.203 1.391,-1.203 0.468,0 0.859,0.281 1.14,0.859 0.25,0.531 0.469,1.5 0.469,1.562 0,0.094 -0.062,0.157 -0.156,0.157 -0.141,0 -0.156,-0.078 -0.219,-0.328 -0.234,-0.938 -0.547,-1.938 -1.187,-1.938 -0.469,0 -0.5,0.422 -0.5,0.734 0,0.063 0,0.391 0.109,0.844 z"
   id="path15"
   inkscape:connector-curvature="0"
   style="fill:#000000;stroke-width:0" />
<path
   d="m 34.809,30.844 0,0.012 0,0.012 0,0.012 0,0.011 -10e-4,0.011 0,0.01 0,0.011 0,0.01 0,0.01 0,0.009 -10e-4,0.009 0,0.009 -0.001,0.017 -0.002,0.015 -0.001,0.015 -0.003,0.013 -0.002,0.013 -0.003,0.011 -0.004,0.011 -0.005,0.01 -0.005,0.009 -0.006,0.008 -0.006,0.007 -0.008,0.007 -0.008,0.006 -0.009,0.005 -0.01,0.004 -0.006,0.002 -0.006,0.002 -0.006,0.002 -0.006,0.002 -0.007,10e-4 -0.006,0.002 -0.008,10e-4 -0.007,0.001 -0.008,0.001 -0.008,10e-4 -0.008,0.001 -0.009,0.001 -0.009,0 -0.009,10e-4 -0.01,0 -0.01,0.001 -0.01,0 -0.011,0 -0.011,0 -0.012,10e-4 -0.012,0 -0.012,0 c -0.688,-0.719 -1.672,-0.719 -2.016,-0.719 v -0.344 c 0.219,0 0.875,0 1.453,0.281 v -5.781 c 0,-0.39 -0.031,-0.531 -1.031,-0.531 H 32.59 v -0.344 c 0.39,0.031 1.359,0.031 1.797,0.031 0.453,0 1.422,0 1.812,-0.031 v 0.344 H 35.84 c -1,0 -1.031,0.125 -1.031,0.531 z"
   id="path17"
   inkscape:connector-curvature="0"
   style="fill:#000000;stroke-width:0" />
<line
   x1="0.21875"
   y1="19.292999"
   x2="37.605"
   y2="19.292999"
   id="line19"
   style="stroke-width:0.63800001" />
<path
   d="m 3.5,9.0312 0.004,0.0109 0.006,0.0147 0.0081,0.0185 0.0102,0.0221 0.0121,0.0255 0.0141,0.0288 0.016,0.0317 0.0179,0.0346 0.0198,0.0373 0.0216,0.0398 0.0235,0.0421 0.0252,0.0442 0.027,0.0462 0.0288,0.048 0.0304,0.0496 0.0322,0.051 0.0338,0.0522 0.0354,0.0533 0.0369,0.0541 0.0386,0.0549 0.0401,0.0553 0.0416,0.0557 0.043,0.0559 0.0445,0.0554 0.046,0.056 0.0473,0.055 0.0487,0.055 0.05,0.054 0.0513,0.053 0.0526,0.052 0.0539,0.05 0.055,0.05 c 0.4063,0.374 0.9532,0.624 1.5625,0.624 0.6407,0 0.8594,-0.468 0.8594,-1.1089 C 6.9375,9.0469 6.2969,7.2344 5.9688,6.375 5.8281,6 5.75,5.7969 5.75,5.5 5.75,4.7812 6.25,4.2188 7,4.2188 c 1.4844,0 2.0469,2.3281 2.0469,2.4218 0,0.0938 -0.0781,0.1563 -0.1719,0.1563 C 8.7344,6.7969 8.7188,6.75 8.6406,6.4688 8.2812,5.1719 7.6719,4.5312 7.0469,4.5312 c -0.1563,0 -0.4063,0.0157 -0.4063,0.5313 0,0.3906 0.1719,0.875 0.2656,1.0937 0.3282,0.875 0.9844,2.6563 0.9844,3.5626 0,0.9532 -0.5468,1.6722 -1.7656,1.6722 -1.4062,0 -2.1562,-1 -2.4375,-1.4066 -0.0469,0.9066 -0.7031,1.4066 -1.4063,1.4066 -0.5,0 -0.8593,-0.313 -1.125,-0.844 C 0.875,9.9688 0.64062,9.0156 0.64062,8.9531 c 0,-0.0625 0.07813,-0.1406 0.1875,-0.1406 0.125,0 0.14063,0.0156 0.23438,0.375 0.25,0.9685 0.5313,1.8745 1.1719,1.8745 0.375,0 0.5,-0.25 0.5,-0.734 0,-0.3436 -0.1563,-0.9686 -0.2813,-1.453 L 2.0156,7.1562 C 1.9531,6.8594 1.7812,6.1406 1.7031,5.8594 1.5781,5.4375 1.4062,4.6875 1.4062,4.6094 c 0,-0.2188 0.1719,-0.3906 0.4219,-0.3906 0.1875,0 0.4063,0.0937 0.5313,0.3281 C 2.3906,4.625 2.5469,5.1875 2.625,5.5 l 0.3438,1.4375 z"
   id="path21"
   inkscape:connector-curvature="0"
   style="fill:#000000;stroke-width:0" />
<path
   d="M 10.957,2.8438 12.129,4 c 1.75,1.5312 2.422,2.1406 2.422,3.25 0,1.2656 -1.016,2.1719 -2.375,2.1719 -1.25,0 -2.078,-1.0313 -2.078,-2.0313 0,-0.625 0.546,-0.625 0.593,-0.625 0.188,0 0.578,0.1406 0.578,0.5938 0,0.2968 -0.203,0.5781 -0.593,0.5781 -0.094,0 -0.11,0 -0.141,0 0.25,0.7187 0.859,1.125 1.5,1.125 1.016,0 1.5,-0.8906 1.5,-1.8125 0,-0.8906 -0.562,-1.7812 -1.172,-2.4688 L 10.223,2.3906 C 10.098,2.2812 10.098,2.25 10.098,1.9844 h 4.14 l 0.313,1.9375 H 14.269 C 14.207,3.5938 14.129,3.0938 14.019,2.9375 13.941,2.8438 13.207,2.8438 12.957,2.8438 z"
   id="path23"
   inkscape:connector-curvature="0"
   style="fill:#000000;stroke-width:0" />
<path
   d="m 22.426,15.703 0,0.001 0,10e-4 0,0.002 0.001,0.002 0,0.002 0.001,0.002 10e-4,0.003 0.001,0.003 0.001,0.003 10e-4,0.004 0.001,0.004 0.001,0.004 0.002,0.004 0.001,0.004 0.003,0.01 0.004,0.01 0.004,0.011 0.003,0.011 0.004,0.012 0.005,0.012 0.004,0.012 0.009,0.026 0.008,0.025 0.005,0.013 0.004,0.012 0.004,0.013 0.004,0.011 0.003,0.012 0.004,0.011 0.003,0.01 0.003,0.009 0.001,0.005 0.001,0.004 10e-4,0.004 0.001,0.004 10e-4,0.004 0.001,0.003 0.001,0.003 0,0.003 10e-4,0.002 0,0.002 0,0.002 L 22.52,16 c 0,0.188 -0.157,0.297 -0.282,0.297 -0.078,0 -0.218,0 -0.343,-0.344 L 16.566,0.98438 c 0,-0.01563 -0.093,-0.25 -0.093,-0.28126 0,-0.1875 0.156,-0.29687 0.281,-0.29687 0.094,0 0.234,0.01563 0.359,0.34375 z"
   id="path25"
   inkscape:connector-curvature="0"
   style="fill:#000000;stroke-width:0" />
<path
   d="m 31.418,15.016 0.002,0.006 10e-4,0.006 0.002,0.006 0.001,0.006 0.004,0.014 0.004,0.014 0.004,0.014 0.004,0.015 0.004,0.015 0.003,0.015 0.004,0.015 0.003,0.016 0.003,0.016 0.003,0.015 0.002,0.016 0.001,0.015 10e-4,0.008 0,0.007 0.001,0.008 0,0.007 c 0,0.156 -0.156,0.156 -0.188,0.156 -0.031,0 -0.797,-0.062 -0.875,-0.078 -0.281,-0.016 -0.515,-0.047 -0.797,-0.062 -0.406,-0.032 -0.515,-0.047 -0.515,-0.344 0,-0.156 0.125,-0.156 0.359,-0.156 0.766,0 0.781,-0.141 0.781,-0.297 0,-0.094 -0.031,-0.219 -0.046,-0.266 l -0.969,-3.875 c -0.172,0.422 -0.594,1.063 -1.422,1.063 -1.797,0 -3.734,-2.3285 -3.734,-4.6722 0,-1.5782 0.921,-2.5 2,-2.5 l 0.046,0.3124 c -0.656,0 -1.015,0.5938 -1.015,1.5313 0,0.875 0.484,2.6563 0.797,3.3125 0.531,1.125 1.281,1.687 1.906,1.687 1.047,0 1.25,-1.2964 1.25,-1.4214 0,-0.0156 -0.047,-0.2344 -0.063,-0.2656 L 28.199,6.2656 C 28.121,6 28.121,5.9688 27.902,5.6562 27.543,5.2188 26.855,4.5312 26.105,4.5312 L 26.059,4.2188 c 0.875,0 1.625,0.6874 2.062,1.2031 0.156,-0.9375 0.906,-1.2031 1.391,-1.2031 0.468,0 0.859,0.2812 1.14,0.8593 0.25,0.5313 0.469,1.5 0.469,1.5625 0,0.0938 -0.062,0.1563 -0.156,0.1563 -0.141,0 -0.156,-0.0781 -0.219,-0.3281 -0.234,-0.9376 -0.547,-1.9376 -1.187,-1.9376 -0.469,0 -0.5,0.4219 -0.5,0.7344 0,0.0625 0,0.3906 0.109,0.8438 z"
   id="path27"
   inkscape:connector-curvature="0"
   style="fill:#000000;stroke-width:0" />
<path
   d="M 32.949,2.8438 34.121,4 c 1.75,1.5312 2.422,2.1406 2.422,3.25 0,1.2656 -1.016,2.1719 -2.375,2.1719 -1.25,0 -2.078,-1.0313 -2.078,-2.0313 0,-0.625 0.547,-0.625 0.594,-0.625 0.187,0 0.578,0.1406 0.578,0.5938 0,0.2968 -0.203,0.5781 -0.594,0.5781 -0.094,0 -0.109,0 -0.141,0 0.25,0.7187 0.86,1.125 1.5,1.125 1.016,0 1.5,-0.8906 1.5,-1.8125 0,-0.8906 -0.562,-1.7812 -1.172,-2.4688 L 32.215,2.3906 C 32.09,2.2812 32.09,2.25 32.09,1.9844 h 4.14 l 0.313,1.9375 H 36.262 C 36.199,3.5938 36.121,3.0938 36.012,2.9375 35.934,2.8438 35.199,2.8438 34.949,2.8438 z"
   id="path29"
   inkscape:connector-curvature="0"
   style="fill:#000000;stroke-width:0" />
<path
   d="m 53.965,20.465 0.041,0 0.043,0 0.043,0.002 0.022,0.001 0.021,0.001 0.022,0.002 0.021,0.002 0.021,0.003 0.02,0.004 0.02,0.004 0.02,0.004 0.019,0.006 0.019,0.006 0.018,0.007 0.017,0.008 0.017,0.009 0.015,0.009 0.015,0.011 0.014,0.012 0.013,0.013 0.011,0.014 0.006,0.008 0.005,0.008 0.005,0.008 0.004,0.009 0.005,0.009 0.004,0.009 0.003,0.009 0.003,0.01 0.003,0.011 0.003,0.01 0.002,0.011 0.002,0.012 10e-4,0.011 10e-4,0.013 0.001,0.012 0,0.013 c 0,0.297 -0.266,0.297 -0.5,0.297 H 44.59 c -0.219,0 -0.5,0 -0.5,-0.281 0,-0.297 0.265,-0.297 0.5,-0.297 z"
   id="path31"
   inkscape:connector-curvature="0"
   style="fill:#000000;stroke-width:0" />
<path
   d="m 53.965,17.496 0.041,0 0.043,0.001 0.043,0.001 0.022,10e-4 0.021,0.002 0.022,0.002 0.021,0.002 0.021,0.003 0.02,0.004 0.02,0.004 0.02,0.005 0.019,0.006 0.019,0.006 0.018,0.008 0.017,0.008 0.017,0.009 0.015,0.011 0.015,0.011 0.014,0.013 0.013,0.013 0.011,0.015 0.006,0.008 0.005,0.009 0.005,0.008 0.004,0.009 0.005,0.01 0.004,0.009 0.003,0.011 0.003,0.01 0.003,0.011 0.003,0.011 0.002,0.012 0.002,0.012 10e-4,0.012 10e-4,0.013 0.001,0.013 0,0.014 c 0,0.297 -0.266,0.297 -0.5,0.297 H 44.59 c -0.219,0 -0.5,0 -0.5,-0.281 0,-0.313 0.265,-0.313 0.5,-0.313 z"
   id="path33"
   inkscape:connector-curvature="0"
   style="fill:#000000;stroke-width:0" />
<path
   d="m 64.273,30.75 0.004,0.011 0.006,0.015 0.009,0.018 0.01,0.022 0.012,0.026 0.014,0.028 0.016,0.032 0.018,0.035 0.02,0.037 0.021,0.04 0.024,0.042 0.025,0.044 0.027,0.046 0.029,0.048 0.03,0.05 0.032,0.051 0.034,0.052 0.035,0.053 0.037,0.055 0.039,0.054 0.04,0.056 0.042,0.055 0.043,0.056 0.044,0.056 0.046,0.056 0.048,0.055 0.048,0.055 0.05,0.054 0.052,0.053 0.052,0.051 0.054,0.051 0.055,0.049 c 0.406,0.375 0.953,0.625 1.563,0.625 0.64,0 0.859,-0.469 0.859,-1.109 0,-0.906 -0.641,-2.719 -0.969,-3.578 -0.14,-0.375 -0.219,-0.578 -0.219,-0.875 0,-0.719 0.5,-1.281 1.25,-1.281 1.485,0 2.047,2.328 2.047,2.421 0,0.094 -0.078,0.157 -0.172,0.157 -0.14,0 -0.156,-0.047 -0.234,-0.328 -0.359,-1.297 -0.969,-1.938 -1.594,-1.938 -0.156,0 -0.406,0.016 -0.406,0.531 0,0.391 0.172,0.875 0.266,1.094 0.328,0.875 0.984,2.656 0.984,3.563 0,0.953 -0.547,1.671 -1.766,1.671 -1.406,0 -2.156,-1 -2.437,-1.406 -0.047,0.906 -0.703,1.406 -1.406,1.406 -0.5,0 -0.86,-0.312 -1.125,-0.843 -0.282,-0.578 -0.516,-1.532 -0.516,-1.594 0,-0.063 0.078,-0.141 0.188,-0.141 0.125,0 0.14,0.016 0.234,0.375 0.25,0.969 0.531,1.875 1.172,1.875 0.375,0 0.5,-0.25 0.5,-0.734 0,-0.344 -0.156,-0.969 -0.281,-1.453 l -0.438,-1.719 c -0.062,-0.297 -0.234,-1.016 -0.312,-1.297 -0.125,-0.422 -0.297,-1.172 -0.297,-1.25 0,-0.219 0.172,-0.39 0.422,-0.39 0.187,0 0.406,0.093 0.531,0.328 0.031,0.078 0.187,0.64 0.265,0.953 l 0.344,1.437 z"
   id="path35"
   inkscape:connector-curvature="0"
   style="fill:#000000;stroke-width:0" />
<path
   d="m 73.59,30.844 0,0.012 0,0.012 0,0.012 0,0.011 0,0.011 0,0.01 -0.001,0.011 0,0.01 0,0.01 0,0.009 -0.001,0.009 0,0.009 -10e-4,0.017 -0.001,0.015 -0.002,0.015 -0.002,0.013 -0.003,0.013 -0.003,0.011 -0.004,0.011 -0.004,0.01 -0.006,0.009 -0.005,0.008 -0.007,0.007 -0.007,0.007 -0.009,0.006 -0.009,0.005 -0.01,0.004 -0.006,0.002 -0.006,0.002 -0.006,0.002 -0.006,0.002 -0.006,10e-4 -0.007,0.002 -0.007,10e-4 -0.008,0.001 -0.008,0.001 -0.008,10e-4 -0.008,0.001 -0.009,0.001 -0.009,0 -0.009,10e-4 -0.01,0 -0.01,0.001 -0.01,0 -0.011,0 -0.011,0 -0.012,10e-4 -0.012,0 -0.012,0 c -0.687,-0.719 -1.672,-0.719 -2.015,-0.719 v -0.344 c 0.218,0 0.875,0 1.453,0.281 v -5.781 c 0,-0.39 -0.032,-0.531 -1.032,-0.531 h -0.359 v -0.344 c 0.391,0.031 1.359,0.031 1.797,0.031 0.453,0 1.422,0 1.812,-0.031 v 0.344 h -0.359 c -1,0 -1.031,0.125 -1.031,0.531 z"
   id="path37"
   inkscape:connector-curvature="0"
   style="fill:#000000;stroke-width:0" />
<path
   d="m 79.668,30.75 0.004,0.011 0.006,0.015 0.008,0.018 0.01,0.022 0.012,0.026 0.014,0.028 0.016,0.032 0.018,0.035 0.02,0.037 0.022,0.04 0.023,0.042 0.025,0.044 0.027,0.046 0.029,0.048 0.031,0.05 0.032,0.051 0.034,0.052 0.035,0.053 0.037,0.055 0.039,0.054 0.04,0.056 0.041,0.055 0.043,0.056 0.045,0.056 0.046,0.056 0.047,0.055 0.049,0.055 0.05,0.054 0.051,0.053 0.053,0.051 0.054,0.051 0.055,0.049 c 0.406,0.375 0.953,0.625 1.562,0.625 0.641,0 0.859,-0.469 0.859,-1.109 0,-0.906 -0.64,-2.719 -0.968,-3.578 -0.141,-0.375 -0.219,-0.578 -0.219,-0.875 0,-0.719 0.5,-1.281 1.25,-1.281 1.484,0 2.047,2.328 2.047,2.421 0,0.094 -0.078,0.157 -0.172,0.157 -0.141,0 -0.156,-0.047 -0.234,-0.328 -0.36,-1.297 -0.969,-1.938 -1.594,-1.938 -0.156,0 -0.406,0.016 -0.406,0.531 0,0.391 0.171,0.875 0.265,1.094 0.328,0.875 0.985,2.656 0.985,3.563 0,0.953 -0.547,1.671 -1.766,1.671 -1.406,0 -2.156,-1 -2.438,-1.406 -0.046,0.906 -0.703,1.406 -1.406,1.406 -0.5,0 -0.859,-0.312 -1.125,-0.843 -0.281,-0.578 -0.515,-1.532 -0.515,-1.594 0,-0.063 0.078,-0.141 0.187,-0.141 0.125,0 0.141,0.016 0.234,0.375 0.25,0.969 0.532,1.875 1.172,1.875 0.375,0 0.5,-0.25 0.5,-0.734 0,-0.344 -0.156,-0.969 -0.281,-1.453 l -0.437,-1.719 c -0.063,-0.297 -0.235,-1.016 -0.313,-1.297 -0.125,-0.422 -0.297,-1.172 -0.297,-1.25 0,-0.219 0.172,-0.39 0.422,-0.39 0.188,0 0.406,0.093 0.531,0.328 0.032,0.078 0.188,0.64 0.266,0.953 l 0.344,1.437 z"
   id="path39"
   inkscape:connector-curvature="0"
   style="fill:#000000;stroke-width:0" />
<path
   d="m 87.125,24.562 1.172,1.157 c 1.75,1.531 2.422,2.14 2.422,3.25 0,1.265 -1.016,2.172 -2.375,2.172 -1.25,0 -2.078,-1.032 -2.078,-2.032 0,-0.625 0.546,-0.625 0.593,-0.625 0.188,0 0.579,0.141 0.579,0.594 0,0.297 -0.204,0.578 -0.594,0.578 -0.094,0 -0.11,0 -0.141,0 0.25,0.719 0.859,1.125 1.5,1.125 1.016,0 1.5,-0.89 1.5,-1.812 0,-0.891 -0.562,-1.781 -1.172,-2.469 l -2.14,-2.391 C 86.266,24 86.266,23.969 86.266,23.703 h 4.14 l 0.313,1.938 h -0.281 c -0.063,-0.329 -0.141,-0.829 -0.25,-0.985 -0.079,-0.094 -0.813,-0.094 -1.063,-0.094 z"
   id="path41"
   inkscape:connector-curvature="0"
   style="fill:#000000;stroke-width:0" />
<line
   x1="60.992001"
   y1="19.292999"
   x2="91.780998"
   y2="19.292999"
   id="line43"
   style="stroke-width:0.63800001" />
<path
   d="m 70.199,15.016 0.002,0.006 0.001,0.006 0.002,0.006 0.002,0.006 0.003,0.014 0.004,0.014 0.004,0.014 0.004,0.015 0.004,0.015 0.004,0.015 0.003,0.015 0.003,0.016 0.003,0.016 0.003,0.015 0.002,0.016 0.002,0.015 0,0.008 10e-4,0.007 0,0.008 0,0.007 c 0,0.156 -0.156,0.156 -0.187,0.156 -0.032,0 -0.797,-0.062 -0.875,-0.078 -0.282,-0.016 -0.516,-0.047 -0.797,-0.062 -0.407,-0.032 -0.516,-0.047 -0.516,-0.344 0,-0.156 0.125,-0.156 0.359,-0.156 0.766,0 0.782,-0.141 0.782,-0.297 0,-0.094 -0.032,-0.219 -0.047,-0.266 l -0.969,-3.875 c -0.172,0.422 -0.594,1.063 -1.422,1.063 -1.797,0 -3.734,-2.3285 -3.734,-4.6722 0,-1.5782 0.922,-2.5 2,-2.5 l 0.047,0.3124 c -0.657,0 -1.016,0.5938 -1.016,1.5313 0,0.875 0.484,2.6563 0.797,3.3125 0.531,1.125 1.281,1.687 1.906,1.687 1.047,0 1.25,-1.2964 1.25,-1.4214 0,-0.0156 -0.047,-0.2344 -0.062,-0.2656 L 66.98,6.2656 C 66.902,6 66.902,5.9688 66.684,5.6562 66.324,5.2188 65.637,4.5312 64.887,4.5312 L 64.84,4.2188 c 0.875,0 1.625,0.6874 2.062,1.2031 0.157,-0.9375 0.907,-1.2031 1.391,-1.2031 0.469,0 0.859,0.2812 1.141,0.8593 0.25,0.5313 0.468,1.5 0.468,1.5625 0,0.0938 -0.062,0.1563 -0.156,0.1563 -0.141,0 -0.156,-0.0781 -0.219,-0.3281 C 69.293,5.5312 68.98,4.5312 68.34,4.5312 c -0.469,0 -0.5,0.4219 -0.5,0.7344 0,0.0625 0,0.3906 0.109,0.8438 z"
   id="path45"
   inkscape:connector-curvature="0"
   style="fill:#000000;stroke-width:0" />
<path
   d="m 73.59,9.125 0,0.0123 0,0.0119 0,0.0116 0,0.0113 0,0.011 0,0.0106 -0.001,0.0103 0,0.01 0,0.0097 0,0.0094 -0.001,0.0091 0,0.0088 -10e-4,0.0168 -0.001,0.0156 -0.002,0.0146 -0.002,0.0136 -0.003,0.0125 -0.003,0.0116 -0.004,0.0106 -0.004,0.0098 -0.006,0.0089 -0.005,0.008 -0.007,0.0074 -0.007,0.0065 -0.009,0.0059 -0.009,0.0052 -0.01,0.0045 -0.006,0.0021 -0.006,0.0019 -0.006,0.0018 -0.006,0.0016 -0.006,0.0016 -0.007,0.0013 -0.007,0.0013 -0.008,0.0012 -0.008,10e-4 -0.008,9e-4 -0.008,9e-4 -0.009,7e-4 -0.009,7e-4 -0.009,5e-4 -0.01,5e-4 -0.01,4e-4 -0.01,3e-4 -0.011,3e-4 -0.011,2e-4 -0.012,10e-5 -0.012,1e-4 -0.012,0 C 72.637,8.7031 71.652,8.7031 71.309,8.7031 V 8.3594 c 0.218,0 0.875,0 1.453,0.2812 V 2.8594 C 72.762,2.4688 72.73,2.3281 71.73,2.3281 H 71.371 V 1.9844 c 0.391,0.0312 1.359,0.0312 1.797,0.0312 0.453,0 1.422,0 1.812,-0.0312 v 0.3437 h -0.359 c -1,0 -1.031,0.125 -1.031,0.5313 z"
   id="path47"
   inkscape:connector-curvature="0"
   style="fill:#000000;stroke-width:0" />
<path
   d="m 84.387,15.016 0.001,0.006 0.002,0.006 0.001,0.006 0.002,0.006 0.004,0.014 0.004,0.014 0.003,0.014 0.004,0.015 0.004,0.015 0.004,0.015 0.004,0.015 0.003,0.016 0.003,0.016 0.002,0.015 0.003,0.016 0.001,0.015 0.001,0.008 0,0.007 10e-4,0.008 0,0.007 c 0,0.156 -0.157,0.156 -0.188,0.156 -0.031,0 -0.797,-0.062 -0.875,-0.078 -0.281,-0.016 -0.516,-0.047 -0.797,-0.062 -0.406,-0.032 -0.515,-0.047 -0.515,-0.344 0,-0.156 0.125,-0.156 0.359,-0.156 0.766,0 0.781,-0.141 0.781,-0.297 0,-0.094 -0.031,-0.219 -0.047,-0.266 l -0.968,-3.875 c -0.172,0.422 -0.594,1.063 -1.422,1.063 -1.797,0 -3.735,-2.3285 -3.735,-4.6722 0,-1.5782 0.922,-2.5 2,-2.5 l 0.047,0.3124 c -0.656,0 -1.015,0.5938 -1.015,1.5313 0,0.875 0.484,2.6563 0.796,3.3125 0.532,1.125 1.282,1.687 1.907,1.687 1.047,0 1.25,-1.2964 1.25,-1.4214 0,-0.0156 -0.047,-0.2344 -0.063,-0.2656 L 81.168,6.2656 C 81.09,6 81.09,5.9688 80.871,5.6562 80.512,5.2188 79.824,4.5312 79.074,4.5312 L 79.027,4.2188 c 0.875,0 1.625,0.6874 2.063,1.2031 0.156,-0.9375 0.906,-1.2031 1.39,-1.2031 0.469,0 0.86,0.2812 1.141,0.8593 0.25,0.5313 0.469,1.5 0.469,1.5625 0,0.0938 -0.063,0.1563 -0.156,0.1563 -0.141,0 -0.157,-0.0781 -0.219,-0.3281 -0.235,-0.9376 -0.547,-1.9376 -1.188,-1.9376 -0.468,0 -0.5,0.4219 -0.5,0.7344 0,0.0625 0,0.3906 0.11,0.8438 z"
   id="path49"
   inkscape:connector-curvature="0"
   style="fill:#000000;stroke-width:0" />
<path
   d="M 85.918,2.8438 87.09,4 c 1.75,1.5312 2.422,2.1406 2.422,3.25 0,1.2656 -1.016,2.1719 -2.375,2.1719 -1.25,0 -2.078,-1.0313 -2.078,-2.0313 0,-0.625 0.546,-0.625 0.593,-0.625 0.188,0 0.578,0.1406 0.578,0.5938 0,0.2968 -0.203,0.5781 -0.593,0.5781 -0.094,0 -0.11,0 -0.141,0 0.25,0.7187 0.859,1.125 1.5,1.125 1.016,0 1.5,-0.8906 1.5,-1.8125 0,-0.8906 -0.562,-1.7812 -1.172,-2.4688 L 85.184,2.3906 C 85.059,2.2812 85.059,2.25 85.059,1.9844 h 4.14 l 0.313,1.9375 H 89.23 C 89.168,3.5938 89.09,3.0938 88.98,2.9375 88.902,2.8438 88.168,2.8438 87.918,2.8438 z"
   id="path51"
   inkscape:connector-curvature="0"
   style="fill:#000000;stroke-width:0" />
</g></svg>
