<?xml version="1.0" encoding="UTF-8" standalone="no"?>
<svg
   xmlns:dc="http://purl.org/dc/elements/1.1/"
   xmlns:cc="http://creativecommons.org/ns#"
   xmlns:rdf="http://www.w3.org/1999/02/22-rdf-syntax-ns#"
   xmlns:svg="http://www.w3.org/2000/svg"
   xmlns="http://www.w3.org/2000/svg"
   xmlns:sodipodi="http://sodipodi.sourceforge.net/DTD/sodipodi-0.dtd"
   xmlns:inkscape="http://www.inkscape.org/namespaces/inkscape"
   version="1.1"
   id="body"
   width="157.27541"
   height="45.429398"
   viewBox="0 0 0.21843806 0.063096386"
   preserveAspectRatio="none"
   inkscape:version="0.48.3.1 r9886"
   sodipodi:docname="ch2-Z-G-8.svg">
  <metadata
     id="metadata43">
    <rdf:RDF>
      <cc:Work
         rdf:about="">
        <dc:format>image/svg+xml</dc:format>
        <dc:type
           rdf:resource="http://purl.org/dc/dcmitype/StillImage" />
      </cc:Work>
    </rdf:RDF>
  </metadata>
  <defs
     id="defs41" />
  <sodipodi:namedview
     pagecolor="#ffffff"
     bordercolor="#666666"
     borderopacity="1"
     objecttolerance="10"
     gridtolerance="10"
     guidetolerance="10"
     inkscape:pageopacity="0"
     inkscape:pageshadow="2"
     inkscape:window-width="640"
     inkscape:window-height="480"
     id="namedview39"
     showgrid="false"
     inkscape:zoom="0.32777778"
     inkscape:cx="381.45611"
     inkscape:cy="459.87619"
     inkscape:window-x="0"
     inkscape:window-y="24"
     inkscape:window-maximized="0"
     inkscape:current-layer="body" />
  <title
     id="title3">SVG drawing</title>
  <desc
     id="desc5">This was produced by version 4.4 of GNU libplot, a free library for exporting 2-D vector graphics.</desc>
  <g
     id="content"
     transform="matrix(0.0017361,0,0,-0.0017361,-0.00144985,0.06315064)"
     xml:space="preserve"
     stroke-miterlimit="10.433"
     font-style="normal"
     font-variant="normal"
     font-weight="normal"
     font-stretch="normal"
     font-size-adjust="none"
     letter-spacing="normal"
     word-spacing="normal"
     style="font-style:normal;font-variant:normal;font-weight:normal;font-stretch:normal;letter-spacing:normal;word-spacing:normal;text-anchor:start;fill:none;stroke:#000000;stroke-linecap:butt;stroke-linejoin:miter;stroke-miterlimit:10.43299961;stroke-opacity:1;stroke-dasharray:none;stroke-dashoffset:0">
<path
   d="m 8.1953,20.398 0.1833,0.042 0.1806,0.047 0.1778,0.052 0.1746,0.056 0.1714,0.061 0.1678,0.065 0.1642,0.069 0.1602,0.074 0.1561,0.077 0.1518,0.081 0.1469,0.084 0.143,0.088 0.137,0.092 0.133,0.094 0.127,0.098 0.121,0.1 0.116,0.103 0.11,0.106 0.103,0.108 0.098,0.111 0.09,0.113 0.084,0.114 0.077,0.117 0.069,0.118 0.063,0.12 0.054,0.122 0.047,0.122 0.039,0.124 0.03,0.125 0.022,0.126 0.013,0.127 0.005,0.127 c 0,1.25 -1.266,2.391 -3.4688,2.391 H 3.9297 c -0.3125,0 -0.4531,0 -0.4531,-0.313 0,-0.156 0.1093,-0.156 0.4062,-0.156 0.9531,0 0.9531,-0.125 0.9531,-0.297 0,-0.031 0,-0.125 -0.0625,-0.359 L 2.6328,16.164 C 2.4922,15.617 2.4609,15.445 1.3516,15.445 c -0.35941,0 -0.46879,0 -0.46879,-0.297 0,-0.156 0.17189,-0.156 0.21879,-0.156 0.2812,0 0.625,0.031 0.9218,0.031 h 1.875 c 0.2813,0 0.625,-0.031 0.9063,-0.031 0.125,0 0.2969,0 0.2969,0.297 0,0.156 -0.1407,0.156 -0.375,0.156 -0.9688,0 -0.9688,0.141 -0.9688,0.297 0,0.016 0,0.125 0.0313,0.25 l 1.0625,4.281 H 6.7578 L 6.7266,20.586 H 4.9297 l 1.0469,4.187 c 0.1406,0.579 0.2187,0.61 0.8281,0.61 h 1.1406 c 1.375,0 2.3907,-0.406 2.3907,-1.656 0,-0.797 -0.4063,-3.141 -3.6094,-3.141 l 0.0312,-0.313 c 1.5156,0 1.7969,-0.953 1.7969,-1.484 0,-0.234 -0.1563,-0.859 -0.2656,-1.266 -0.1719,-0.734 -0.2188,-0.906 -0.2188,-1.218 0,-1.125 0.9219,-1.641 1.9847,-1.641 1.281,0 1.843,1.563 1.843,1.797 0,0.109 -0.078,0.156 -0.171,0.156 -0.141,0 -0.172,-0.094 -0.204,-0.219 -0.375,-1.14 -1.031,-1.421 -1.421,-1.421 -0.4067,0 -0.6567,0.171 -0.6567,0.89 0,0.375 0.1875,1.828 0.2031,1.906 0.0782,0.594 0.0782,0.657 0.0782,0.782 0,1.156 -0.9375,1.656 -1.5313,1.843 z"
   id="path9"
   inkscape:connector-curvature="0"
   style="fill:#000000;stroke-width:0" />
<path
   d="m 12.516,11.242 -0.009,-0.034 -0.008,-0.033 -0.008,-0.031 -0.008,-0.029 -0.008,-0.028 -0.007,-0.026 -0.008,-0.025 -0.009,-0.023 -0.008,-0.022 -0.009,-0.02 -0.01,-0.019 -0.01,-0.018 -0.011,-0.017 -0.011,-0.015 -0.013,-0.014 -0.014,-0.013 -0.015,-0.012 -0.016,-0.011 -0.017,-0.01 -0.019,-0.008 -0.021,-0.008 -0.022,-0.007 -0.024,-0.006 -0.025,-0.006 -0.028,-0.004 -0.014,-0.002 -0.016,-0.002 -0.015,-0.002 -0.016,-0.001 -0.017,-0.002 -0.017,-0.001 -0.018,-10e-4 -0.019,-10e-4 -0.019,0 -0.02,-0.001 -0.02,0 -0.021,-10e-4 -0.022,0 -0.022,0 c -0.141,0 -0.266,0 -0.266,-0.219 0,-0.093 0.063,-0.14 0.141,-0.14 0.312,0 0.625,0.047 0.937,0.047 0.375,0 0.75,-0.047 1.11,-0.047 0.062,0 0.203,0 0.203,0.234 0,0.125 -0.109,0.125 -0.266,0.125 -0.562,0 -0.562,0.078 -0.562,0.172 0,0.141 0.469,1.953 0.547,2.234 0.14,-0.328 0.453,-0.718 1.031,-0.718 l -0.016,0.25 c -0.734,0 -0.875,0.921 -0.875,0.984 0,0.031 0,0.047 0.032,0.187 l 0.546,2.188 c 0.078,0.297 0.375,0.609 0.578,0.781 0.391,0.344 0.719,0.422 0.907,0.422 0.437,0 0.703,-0.391 0.703,-1.047 0,-0.656 -0.36,-1.937 -0.563,-2.375 -0.375,-0.781 -0.921,-1.14 -1.328,-1.14 l 0.016,-0.25 c 1.297,0 2.687,1.625 2.687,3.265 0,1.047 -0.64,1.797 -1.484,1.797 -0.562,0 -1.094,-0.406 -1.469,-0.844 -0.109,0.61 -0.578,0.844 -1,0.844 -0.515,0 -0.719,-0.437 -0.828,-0.641 -0.203,-0.375 -0.344,-1.046 -0.344,-1.078 0,-0.125 0.11,-0.125 0.141,-0.125 0.109,0 0.125,0.016 0.188,0.266 0.187,0.797 0.406,1.328 0.812,1.328 0.188,0 0.344,-0.094 0.344,-0.516 0,-0.25 -0.032,-0.375 -0.078,-0.562 z"
   id="path11"
   inkscape:connector-curvature="0"
   style="fill:#000000;stroke-width:0" />
<path
   d="m 33.289,20.148 0.042,0 0.042,0.001 0.043,10e-4 0.022,0.001 0.021,0.002 0.022,0.002 0.021,0.002 0.021,0.003 0.02,0.003 0.021,0.004 0.019,0.005 0.019,0.005 0.019,0.007 0.018,0.007 0.017,0.007 0.017,0.009 0.016,0.01 0.014,0.011 0.014,0.012 0.013,0.013 0.012,0.014 0.005,0.008 0.005,0.008 0.005,0.008 0.005,0.008 0.004,0.009 0.004,0.009 0.003,0.01 0.004,0.01 0.002,0.01 0.003,0.011 0.002,0.011 0.002,0.011 10e-4,0.012 10e-4,0.012 0.001,0.013 0,0.013 c 0,0.297 -0.266,0.297 -0.5,0.297 h -9.375 c -0.219,0 -0.5,0 -0.5,-0.282 0,-0.297 0.266,-0.297 0.5,-0.297 z"
   id="path13"
   inkscape:connector-curvature="0"
   style="fill:#000000;stroke-width:0" />
<path
   d="m 33.289,17.18 0.042,0 0.042,0 0.043,0.002 0.022,0.001 0.021,0.001 0.022,0.002 0.021,0.003 0.021,0.003 0.02,0.003 0.021,0.005 0.019,0.005 0.019,0.005 0.019,0.007 0.018,0.007 0.017,0.009 0.017,0.009 0.016,0.01 0.014,0.012 0.014,0.012 0.013,0.014 0.012,0.015 0.005,0.008 0.005,0.008 0.005,0.009 0.005,0.009 0.004,0.009 0.004,0.01 0.003,0.01 0.004,0.011 0.002,0.01 0.003,0.012 0.002,0.011 0.002,0.012 10e-4,0.013 10e-4,0.013 0.001,0.013 0,0.014 c 0,0.296 -0.266,0.296 -0.5,0.296 h -9.375 c -0.219,0 -0.5,0 -0.5,-0.281 0,-0.312 0.266,-0.312 0.5,-0.312 z"
   id="path15"
   inkscape:connector-curvature="0"
   style="fill:#000000;stroke-width:0" />
<path
   d="m 84.172,35.965 0,0.016 0,0.016 0,0.016 0,0.015 0,0.015 0,0.014 -10e-4,0.014 0,0.013 0,0.013 0,0.012 -0.001,0.012 0,0.012 -0.001,0.011 0,0.011 -10e-4,0.01 -0.001,0.01 -0.001,0.01 -10e-4,0.009 -0.001,0.009 -0.002,0.008 -0.001,0.008 -0.002,0.008 -0.002,0.007 -0.002,0.007 -0.004,0.014 -0.005,0.012 -0.006,0.01 -0.007,0.01 -0.008,0.009 -0.009,0.007 -0.01,0.007 -0.01,0.006 -0.012,0.005 -0.014,0.004 -0.014,0.004 -0.008,10e-4 -0.008,0.002 -0.008,10e-4 -0.009,0.001 -0.009,10e-4 -0.01,10e-4 -0.01,0.001 -0.01,0 -0.01,10e-4 -0.011,0 -0.012,10e-4 -0.012,0 -0.012,0 -0.013,0.001 -0.013,0 -0.013,0 -0.014,0 -0.015,0 c -0.39,-0.422 -1.187,-1.016 -2.812,-1.016 v -0.453 c 0.359,0 1.156,0 2.031,0.406 v -8.281 c 0,-0.562 -0.047,-0.766 -1.453,-0.766 h -0.484 v -0.453 c 0.421,0.032 1.968,0.032 2.484,0.032 0.531,0 2.063,0 2.484,-0.032 v 0.453 h -0.484 c -1.406,0 -1.453,0.204 -1.453,0.766 z"
   id="path17"
   inkscape:connector-curvature="0"
   style="fill:#000000;stroke-width:0" />
<line
   x1="40.316002"
   y1="18.976999"
   x2="126.67"
   y2="18.976999"
   id="line19"
   style="stroke-width:0.63800001" />
<path
   d="m 44.895,14.246 -0.001,0.017 0,0.016 0,0.015 0,0.016 0,0.014 0,0.014 0,0.014 0,0.013 0,0.013 -10e-4,0.013 0,0.012 -10e-4,0.011 0,0.011 -0.001,0.011 -10e-4,0.01 0,0.01 -10e-4,0.01 -0.001,0.009 -0.002,0.009 -0.001,0.008 -0.002,0.008 -0.001,0.008 -0.002,0.008 -0.002,0.007 -0.004,0.013 -0.006,0.012 -0.006,0.011 -0.007,0.009 -0.007,0.009 -0.009,0.008 -0.01,0.006 -0.011,0.006 -0.012,0.005 -0.013,0.005 -0.015,0.003 -0.007,0.002 -0.008,10e-4 -0.009,0.001 -0.009,10e-4 -0.009,10e-4 -0.009,0.001 -0.01,10e-4 -0.01,10e-4 -0.011,0 -0.011,10e-4 -0.011,0 -0.012,0 -0.012,0.001 -0.013,0 -0.013,0 -0.014,0 -0.014,0 -0.014,0 C 44.191,14.199 43.395,13.606 41.77,13.606 v -0.454 c 0.359,0 1.156,0 2.031,0.407 V 5.2773 c 0,-0.5625 -0.047,-0.7656 -1.453,-0.7656 H 41.863 V 4.0586 c 0.422,0.0312 1.969,0.0312 2.485,0.0312 0.531,0 2.062,0 2.484,-0.0312 v 0.4531 h -0.484 c -1.407,0 -1.453,0.2031 -1.453,0.7656 z"
   id="path21"
   inkscape:connector-curvature="0"
   style="fill:#000000;stroke-width:0" />
<path
   d="m 54.934,15.387 0,10e-4 0,10e-4 0,0.001 0.001,0.002 0,0.002 10e-4,0.003 10e-4,0.003 0.001,0.003 10e-4,0.003 10e-4,0.003 0.001,0.004 10e-4,0.004 0.002,0.004 10e-4,0.005 0.003,0.009 0.004,0.01 0.003,0.011 0.004,0.011 0.004,0.012 0.004,0.012 0.005,0.013 0.008,0.025 0.009,0.026 0.004,0.013 0.005,0.012 0.004,0.012 0.004,0.012 0.003,0.011 0.004,0.011 0.003,0.01 0.003,0.01 0.001,0.004 10e-4,0.005 10e-4,0.004 0.001,0.003 10e-4,0.004 10e-4,0.003 0.001,0.003 0,0.003 10e-4,0.003 0,0.002 0,0.002 0,0.002 c 0,0.187 -0.156,0.297 -0.281,0.297 -0.078,0 -0.219,0 -0.344,-0.344 L 49.074,0.66797 c 0,-0.01563 -0.094,-0.25 -0.094,-0.28125 0,-0.1875 0.157,-0.296876 0.282,-0.296876 0.093,0 0.234,0.015626 0.359,0.343746 z"
   id="path23"
   inkscape:connector-curvature="0"
   style="fill:#000000;stroke-width:0" />
<path
   d="m 63.984,9.4648 0.184,0.0421 0.18,0.0469 0.178,0.0517 0.175,0.0563 0.171,0.0608 0.168,0.065 0.164,0.0693 0.16,0.0733 0.156,0.0768 0.152,0.081 0.147,0.085 0.143,0.088 0.137,0.091 0.133,0.095 0.127,0.097 0.121,0.101 0.116,0.103 0.11,0.105 0.104,0.109 0.097,0.11 0.09,0.113 0.084,0.115 0.077,0.116 0.07,0.119 0.062,0.12 0.054,0.121 0.047,0.123 0.039,0.124 0.03,0.125 0.022,0.126 0.014,0.126 0.004,0.127 c 0,1.25 -1.266,2.391 -3.469,2.391 h -4.312 c -0.313,0 -0.453,0 -0.453,-0.312 0,-0.157 0.109,-0.157 0.406,-0.157 0.953,0 0.953,-0.125 0.953,-0.297 0,-0.031 0,-0.125 -0.063,-0.359 L 58.422,5.2305 C 58.281,4.6836 58.25,4.5117 57.141,4.5117 c -0.36,0 -0.469,0 -0.469,-0.2969 0,-0.1562 0.172,-0.1562 0.219,-0.1562 0.281,0 0.625,0.0312 0.921,0.0312 h 1.876 c 0.281,0 0.624,-0.0312 0.906,-0.0312 0.125,0 0.297,0 0.297,0.2969 0,0.1562 -0.141,0.1562 -0.375,0.1562 -0.969,0 -0.969,0.1406 -0.969,0.2969 0,0.0156 0,0.125 0.031,0.25 l 1.063,4.2812 h 1.906 l -0.031,0.3125 h -1.797 l 1.047,4.1877 c 0.14,0.578 0.218,0.609 0.828,0.609 h 1.14 c 1.375,0 2.391,-0.406 2.391,-1.656 0,-0.797 -0.406,-3.1407 -3.609,-3.1407 l 0.031,-0.3125 c 1.515,0 1.797,-0.9531 1.797,-1.4843 0,-0.2344 -0.156,-0.8594 -0.266,-1.2657 -0.172,-0.7343 -0.219,-0.9062 -0.219,-1.2187 0,-1.125 0.922,-1.6406 1.985,-1.6406 1.281,0 1.844,1.5625 1.844,1.7968 0,0.1094 -0.079,0.1563 -0.172,0.1563 -0.141,0 -0.172,-0.0938 -0.204,-0.2188 C 66.938,4.3242 66.281,4.043 65.891,4.043 c -0.407,0 -0.657,0.1718 -0.657,0.8906 0,0.375 0.188,1.8281 0.204,1.9062 0.078,0.5938 0.078,0.6563 0.078,0.7813 0,1.1562 -0.938,1.6562 -1.532,1.8437 z"
   id="path25"
   inkscape:connector-curvature="0"
   style="fill:#000000;stroke-width:0" />
<path
   d="m 71.086,8.8086 0,0.0123 0,0.0119 0,0.0116 0,0.0113 0,0.011 0,0.0106 0,0.0103 -0.001,0.01 0,0.0097 0,0.0094 0,0.0091 L 71.084,8.9346 71.083,8.9514 71.082,8.967 71.08,8.9816 71.078,8.9952 71.075,9.0077 71.072,9.0193 71.068,9.0299 71.064,9.0397 71.059,9.0486 71.053,9.0566 71.046,9.0639 71.039,9.0705 71.03,9.0764 71.021,9.0816 71.011,9.0861 71.005,9.0882 71,9.0901 70.994,9.0919 70.987,9.0935 70.981,9.095 l -0.007,0.0014 -0.007,0.0013 -0.008,0.0012 -0.008,10e-4 -0.008,9e-4 -0.008,9e-4 -0.009,7e-4 -0.009,7e-4 -0.009,5e-4 -0.01,5e-4 -0.01,4e-4 -0.01,3e-4 -0.011,3e-4 -0.011,10e-5 -0.012,2e-4 -0.011,0 -0.013,10e-5 C 70.133,8.3867 69.148,8.3867 68.805,8.3867 V 8.043 c 0.218,0 0.875,0 1.453,0.2812 V 2.543 c 0,-0.3907 -0.031,-0.5313 -1.031,-0.5313 h -0.36 V 1.668 c 0.391,0.0312 1.36,0.0312 1.797,0.0312 0.453,0 1.422,0 1.813,-0.0312 v 0.3437 h -0.36 c -1,0 -1.031,0.125 -1.031,0.5313 z"
   id="path27"
   inkscape:connector-curvature="0"
   style="fill:#000000;stroke-width:0" />
<path
   d="m 83.77,7.7305 h 4.39 c 0.219,0 0.5,0 0.5,0.2812 0,0.3125 -0.265,0.3125 -0.5,0.3125 h -4.39 v 4.3748 c 0,0.235 0,0.516 -0.282,0.516 -0.312,0 -0.312,-0.266 -0.312,-0.516 V 8.3242 h -4.391 c -0.219,0 -0.5,0 -0.5,-0.2969 0,-0.2968 0.266,-0.2968 0.5,-0.2968 h 4.391 V 3.3398 c 0,-0.2187 0,-0.5 0.297,-0.5 0.297,0 0.297,0.2657 0.297,0.5 z"
   id="path29"
   inkscape:connector-curvature="0"
   style="fill:#000000;stroke-width:0" />
<path
   d="m 97.68,14.246 0,0.017 0,0.016 0,0.015 0,0.016 0,0.014 -0.001,0.014 0,0.014 0,0.013 0,0.013 0,0.013 -0.001,0.012 0,0.011 -10e-4,0.011 -0.001,0.011 0,0.01 -0.001,0.01 -10e-4,0.01 -0.001,0.009 -0.001,0.009 -0.002,0.008 -0.001,0.008 -0.002,0.008 -0.002,0.008 -0.002,0.007 -0.004,0.013 -0.005,0.012 -0.006,0.011 -0.007,0.009 -0.008,0.009 -0.009,0.008 -0.01,0.006 -0.011,0.006 -0.012,0.005 -0.013,0.005 -0.014,0.003 -0.008,0.002 -0.008,10e-4 -0.009,0.001 -0.008,10e-4 -0.009,10e-4 -0.01,0.001 -0.01,10e-4 -0.01,10e-4 -0.011,0 -0.011,10e-4 -0.011,0 -0.012,0 -0.012,0.001 -0.013,0 -0.013,0 -0.013,0 -0.014,0 -0.015,0 c -0.39,-0.422 -1.187,-1.015 -2.812,-1.015 v -0.454 c 0.359,0 1.156,0 2.031,0.407 V 5.2773 c 0,-0.5625 -0.047,-0.7656 -1.453,-0.7656 H 94.648 V 4.0586 c 0.422,0.0312 1.969,0.0312 2.485,0.0312 0.531,0 2.062,0 2.484,-0.0312 v 0.4531 h -0.484 c -1.406,0 -1.453,0.2031 -1.453,0.7656 z"
   id="path31"
   inkscape:connector-curvature="0"
   style="fill:#000000;stroke-width:0" />
<path
   d="m 107.72,15.387 0,10e-4 0,10e-4 0,0.001 0,0.002 0,0.002 0.01,0.003 0,0.003 0,0.003 0,0.003 0,0.003 0,0.004 0,0.004 0,0.004 0,0.005 0.01,0.009 0,0.01 0,0.011 0.01,0.011 0,0.012 0.01,0.012 0,0.013 0.01,0.025 0.01,0.026 0,0.013 0.01,0.012 0,0.012 0,0.012 0.01,0.011 0,0.011 0,0.01 0.01,0.01 0,0.004 0,0.005 0,0.004 0,0.003 0,0.004 0,0.003 0,0.003 0,0.003 0.01,0.003 0,0.002 0,0.002 0,0.002 c 0,0.187 -0.16,0.297 -0.28,0.297 -0.08,0 -0.22,0 -0.35,-0.344 L 101.86,0.66797 c 0,-0.01563 -0.09,-0.25 -0.09,-0.28125 0,-0.1875 0.16,-0.296876 0.28,-0.296876 0.09,0 0.24,0.015626 0.36,0.343746 z"
   id="path33"
   inkscape:connector-curvature="0"
   style="fill:#000000;stroke-width:0" />
<path
   d="m 116.77,9.4648 0.19,0.0421 0.18,0.0469 0.17,0.0517 0.18,0.0563 0.17,0.0608 0.17,0.065 0.16,0.0693 0.16,0.0733 0.16,0.0768 0.15,0.081 0.15,0.085 0.14,0.088 0.14,0.091 0.13,0.095 0.13,0.097 0.12,0.101 0.12,0.103 0.1,0.105 0.11,0.109 0.1,0.11 0.09,0.113 0.08,0.115 0.08,0.116 0.07,0.119 0.06,0.12 0.05,0.121 0.05,0.123 0.04,0.124 0.03,0.125 0.02,0.126 0.01,0.126 0.01,0.127 c 0,1.25 -1.27,2.391 -3.47,2.391 h -4.31 c -0.32,0 -0.45,0 -0.45,-0.312 0,-0.157 0.1,-0.157 0.4,-0.157 0.95,0 0.95,-0.125 0.95,-0.297 0,-0.031 0,-0.125 -0.06,-0.359 l -2.14,-8.5625 c -0.14,-0.5469 -0.17,-0.7188 -1.28,-0.7188 -0.36,0 -0.47,0 -0.47,-0.2969 0,-0.1562 0.17,-0.1562 0.22,-0.1562 0.28,0 0.63,0.0312 0.92,0.0312 h 1.88 c 0.28,0 0.62,-0.0312 0.9,-0.0312 0.13,0 0.3,0 0.3,0.2969 0,0.1562 -0.14,0.1562 -0.37,0.1562 -0.97,0 -0.97,0.1406 -0.97,0.2969 0,0.0156 0,0.125 0.03,0.25 l 1.06,4.2812 h 1.91 l -0.03,0.3125 h -1.8 l 1.05,4.1877 c 0.13,0.578 0.21,0.609 0.82,0.609 h 1.14 c 1.38,0 2.39,-0.406 2.39,-1.656 0,-0.797 -0.4,-3.1407 -3.6,-3.1407 l 0.03,-0.3125 c 1.51,0 1.79,-0.9531 1.79,-1.4843 0,-0.2344 -0.15,-0.8594 -0.26,-1.2657 -0.18,-0.7343 -0.22,-0.9062 -0.22,-1.2187 0,-1.125 0.92,-1.6406 1.98,-1.6406 1.28,0 1.85,1.5625 1.85,1.7968 0,0.1094 -0.08,0.1563 -0.17,0.1563 -0.15,0 -0.18,-0.0938 -0.21,-0.2188 -0.37,-1.1406 -1.03,-1.4218 -1.42,-1.4218 -0.41,0 -0.66,0.1718 -0.66,0.8906 0,0.375 0.19,1.8281 0.21,1.9062 0.08,0.5938 0.08,0.6563 0.08,0.7813 0,1.1562 -0.94,1.6562 -1.54,1.8437 z"
   id="path35"
   inkscape:connector-curvature="0"
   style="fill:#000000;stroke-width:0" />
<path
   d="m 122.02,2.5273 1.17,1.1563 c 1.75,1.5312 2.42,2.1406 2.42,3.25 0,1.2656 -1.02,2.1719 -2.38,2.1719 -1.25,0 -2.07,-1.0313 -2.07,-2.0313 0,-0.625 0.54,-0.625 0.59,-0.625 0.19,0 0.58,0.1406 0.58,0.5938 0,0.2968 -0.21,0.5781 -0.6,0.5781 -0.09,0 -0.11,0 -0.14,0 0.25,0.7187 0.86,1.125 1.5,1.125 1.02,0 1.5,-0.8906 1.5,-1.8125 0,-0.8906 -0.56,-1.7813 -1.17,-2.4688 L 121.28,2.0742 C 121.16,1.9648 121.16,1.9336 121.16,1.668 h 4.14 l 0.31,1.9375 h -0.28 C 125.27,3.2773 125.19,2.7773 125.08,2.6211 125,2.5273 124.27,2.5273 124.02,2.5273 z"
   id="path37"
   inkscape:connector-curvature="0"
   style="fill:#000000;stroke-width:0" />
</g></svg>
