<?xml version="1.0" encoding="UTF-8" standalone="no"?>
<svg
   xmlns:dc="http://purl.org/dc/elements/1.1/"
   xmlns:cc="http://creativecommons.org/ns#"
   xmlns:rdf="http://www.w3.org/1999/02/22-rdf-syntax-ns#"
   xmlns:svg="http://www.w3.org/2000/svg"
   xmlns="http://www.w3.org/2000/svg"
   xmlns:sodipodi="http://sodipodi.sourceforge.net/DTD/sodipodi-0.dtd"
   xmlns:inkscape="http://www.inkscape.org/namespaces/inkscape"
   version="1.1"
   id="body"
   width="311.63864"
   height="45.31221"
   viewBox="0 0 0.43283145 0.062933625"
   preserveAspectRatio="none"
   inkscape:version="0.48.3.1 r9886"
   sodipodi:docname="ch2-Z-G-78.svg">
  <metadata
     id="metadata89">
    <rdf:RDF>
      <cc:Work
         rdf:about="">
        <dc:format>image/svg+xml</dc:format>
        <dc:type
           rdf:resource="http://purl.org/dc/dcmitype/StillImage" />
      </cc:Work>
    </rdf:RDF>
  </metadata>
  <defs
     id="defs87" />
  <sodipodi:namedview
     pagecolor="#ffffff"
     bordercolor="#666666"
     borderopacity="1"
     objecttolerance="10"
     gridtolerance="10"
     guidetolerance="10"
     inkscape:pageopacity="0"
     inkscape:pageshadow="2"
     inkscape:window-width="640"
     inkscape:window-height="480"
     id="namedview85"
     showgrid="false"
     inkscape:zoom="0.32777778"
     inkscape:cx="382.07032"
     inkscape:cy="459.79807"
     inkscape:window-x="0"
     inkscape:window-y="24"
     inkscape:window-maximized="0"
     inkscape:current-layer="body" />
  <title
     id="title3">SVG drawing</title>
  <desc
     id="desc5">This was produced by version 4.4 of GNU libplot, a free library for exporting 2-D vector graphics.</desc>
  <g
     id="content"
     transform="matrix(0.0017361,0,0,-0.0017361,-5.9678437e-4,0.06309638)"
     xml:space="preserve"
     stroke-miterlimit="10.433"
     font-style="normal"
     font-variant="normal"
     font-weight="normal"
     font-stretch="normal"
     font-size-adjust="none"
     letter-spacing="normal"
     word-spacing="normal"
     style="font-style:normal;font-variant:normal;font-weight:normal;font-stretch:normal;letter-spacing:normal;word-spacing:normal;text-anchor:start;fill:none;stroke:#000000;stroke-linecap:butt;stroke-linejoin:miter;stroke-miterlimit:10.43299961;stroke-opacity:1;stroke-dasharray:none;stroke-dashoffset:0">
<path
   d="M 11.043,29.559 10.997,29.549 10.953,29.538 10.91,29.525 10.869,29.511 10.83,29.495 10.792,29.478 10.757,29.46 10.722,29.441 10.689,29.42 10.658,29.399 10.629,29.376 10.601,29.353 10.574,29.328 10.549,29.303 10.526,29.277 10.504,29.25 10.483,29.223 10.464,29.195 10.447,29.166 10.43,29.137 l -0.014,-0.029 -0.014,-0.03 -0.012,-0.03 -0.011,-0.03 -0.009,-0.03 -0.008,-0.031 -0.007,-0.03 -0.005,-0.03 -0.005,-0.03 -0.003,-0.03 -0.002,-0.03 0,-0.03 c 0,-0.375 0.312,-0.5 0.531,-0.5 0.469,0 0.813,0.407 0.813,0.844 0,0.656 -0.766,0.969 -1.438,0.969 -0.9687,0 -1.4999,-0.953 -1.6405,-1.266 -0.375,1.203 -1.3594,1.266 -1.6407,1.266 -1.625,0 -2.4843,-2.094 -2.4843,-2.438 0,-0.062 0.0625,-0.14 0.1718,-0.14 0.125,0 0.1563,0.093 0.1875,0.156 0.5469,1.766 1.6094,2.094 2.0782,2.094 0.7031,0 0.8593,-0.657 0.8593,-1.047 0,-0.344 -0.0937,-0.719 -0.2968,-1.469 L 6.9492,25.059 C 6.6992,24.105 6.2461,23.23 5.4023,23.23 c -0.0781,0 -0.4687,0 -0.8125,0.204 0.5782,0.125 0.7032,0.593 0.7032,0.781 0,0.328 -0.2344,0.515 -0.5469,0.515 -0.375,0 -0.7969,-0.343 -0.7969,-0.843 0,-0.672 0.75,-0.969 1.4375,-0.969 0.7656,0 1.2969,0.594 1.6406,1.25 0.25,-0.938 1.0469,-1.25 1.6407,-1.25 1.609,0 2.469,2.078 2.469,2.422 0,0.094 -0.063,0.156 -0.156,0.156 -0.141,0 -0.157,-0.078 -0.204,-0.219 -0.437,-1.39 -1.359,-2.047 -2.0622,-2.047 -0.5625,0 -0.8593,0.422 -0.8593,1.063 0,0.359 0.0625,0.609 0.3125,1.656 l 0.5625,2.156 c 0.2343,0.954 0.7656,1.657 1.5005,1.657 0.031,0 0.484,0 0.812,-0.203 z"
   id="path9"
   inkscape:connector-curvature="0"
   style="fill:#000000;stroke-width:0" />
<path
   d="m 22.266,26.746 h 4.39 c 0.219,0 0.5,0 0.5,0.281 0,0.313 -0.265,0.313 -0.5,0.313 h -4.39 v 4.375 c 0,0.234 0,0.515 -0.282,0.515 -0.312,0 -0.312,-0.265 -0.312,-0.515 V 27.34 h -4.391 c -0.219,0 -0.5,0 -0.5,-0.297 0,-0.297 0.266,-0.297 0.5,-0.297 h 4.391 v -4.391 c 0,-0.218 0,-0.5 0.297,-0.5 0.297,0 0.297,0.266 0.297,0.5 z"
   id="path11"
   inkscape:connector-curvature="0"
   style="fill:#000000;stroke-width:0" />
<path
   d="m 36.176,33.262 0,0.016 0,0.016 0,0.016 0,0.015 0,0.015 0,0.014 -0.001,0.014 0,0.013 0,0.013 0,0.012 -10e-4,0.012 0,0.012 -10e-4,0.011 0,0.011 -0.001,0.01 -10e-4,0.01 -10e-4,0.009 -0.001,0.01 -10e-4,0.008 -0.002,0.009 -10e-4,0.008 -0.002,0.008 -0.002,0.007 -0.002,0.007 -0.004,0.014 -0.005,0.011 -0.006,0.011 -0.007,0.01 -0.008,0.009 -0.009,0.007 -0.01,0.007 -0.01,0.006 -0.013,0.005 -0.013,0.004 -0.014,0.004 -0.008,0.001 -0.008,0.002 -0.008,0.001 -0.009,10e-4 -0.009,10e-4 -0.01,0.001 -0.01,10e-4 -0.01,0 -0.011,10e-4 -0.011,0 -0.011,0.001 -0.012,0 -0.012,0 -0.013,0 -0.013,10e-4 -0.013,0 -0.014,0 -0.015,0 c -0.39,-0.422 -1.187,-1.016 -2.812,-1.016 v -0.453 c 0.359,0 1.156,0 2.031,0.406 v -8.281 c 0,-0.563 -0.047,-0.766 -1.453,-0.766 h -0.484 v -0.453 c 0.421,0.031 1.968,0.031 2.484,0.031 0.531,0 2.062,0 2.484,-0.031 v 0.453 h -0.484 c -1.406,0 -1.453,0.203 -1.453,0.766 z"
   id="path13"
   inkscape:connector-curvature="0"
   style="fill:#000000;stroke-width:0" />
<line
   x1="0.34375"
   y1="16.273001"
   x2="42.577999"
   y2="16.273001"
   id="line15"
   style="stroke-width:0.63800001" />
<path
   d="M 7.875,7.8398 7.829,7.8302 7.7847,7.819 7.7421,7.8063 7.7012,7.7922 7.662,7.7766 7.6244,7.7597 7.5885,7.7415 7.5542,7.7222 7.5215,7.7016 7.4904,7.68 7.4608,7.6574 7.4328,7.6338 7.4063,7.6094 7.3814,7.5841 7.3579,7.558 7.3359,7.5312 7.3154,7.5038 7.2964,7.4758 7.2787,7.4473 7.2625,7.4184 7.2477,7.389 7.2342,7.3594 7.2222,7.3294 7.2114,7.2993 7.202,7.269 7.1939,7.2387 7.1871,7.2083 7.1816,7.178 7.1773,7.1478 7.1743,7.1178 7.1725,7.0881 7.1719,7.0586 c 0,-0.375 0.3125,-0.5 0.5312,-0.5 0.4688,0 0.8125,0.4062 0.8125,0.8437 0,0.6563 -0.7656,0.9688 -1.4375,0.9688 -0.9687,0 -1.5,-0.9531 -1.6406,-1.2656 -0.375,1.2031 -1.3594,1.2656 -1.6406,1.2656 -1.625,0 -2.4844,-2.0938 -2.4844,-2.4375 0,-0.0625 0.0625,-0.1406 0.1719,-0.1406 0.125,0 0.1562,0.0937 0.1875,0.1562 C 2.2188,7.7148 3.2812,8.043 3.75,8.043 4.4531,8.043 4.6094,7.3867 4.6094,6.9961 4.6094,6.6523 4.5156,6.2773 4.3125,5.5273 L 3.7812,3.3398 C 3.5312,2.3867 3.0781,1.5117 2.2344,1.5117 c -0.0782,0 -0.4688,0 -0.8125,0.2031 C 2,1.8398 2.125,2.3086 2.125,2.4961 c 0,0.3281 -0.2344,0.5156 -0.5469,0.5156 -0.375,0 -0.79685,-0.3437 -0.79685,-0.8437 0,-0.6719 0.74995,-0.9688 1.43755,-0.9688 0.7656,0 1.2968,0.5938 1.6406,1.25 0.25,-0.9375 1.0468,-1.25 1.6406,-1.25 1.6094,0 2.4688,2.0781 2.4688,2.4219 0,0.0937 -0.0626,0.1562 -0.1563,0.1562 C 7.6719,3.7773 7.6562,3.6992 7.6094,3.5586 7.1719,2.168 6.25,1.5117 5.5469,1.5117 4.9844,1.5117 4.6875,1.9336 4.6875,2.5742 4.6875,2.9336 4.75,3.1836 5,4.2305 l 0.5625,2.1562 c 0.2344,0.9531 0.7656,1.6563 1.5,1.6563 0.0313,0 0.4844,0 0.8125,-0.2032 z"
   id="path17"
   inkscape:connector-curvature="0"
   style="fill:#000000;stroke-width:0" />
<path
   d="m 12.445,9.8828 0.086,0.0307 0.084,0.0333 0.082,0.0359 0.08,0.0383 0.078,0.041 0.077,0.044 0.074,0.045 0.072,0.048 0.07,0.05 0.068,0.053 0.066,0.054 0.063,0.056 0.06,0.059 0.059,0.06 0.055,0.062 0.053,0.063 0.051,0.066 0.047,0.066 0.045,0.069 0.041,0.07 0.039,0.071 0.036,0.072 0.033,0.074 0.029,0.075 0.027,0.076 0.023,0.077 0.019,0.078 0.016,0.079 0.013,0.079 0.009,0.081 0.006,0.081 0.002,0.082 c 0,0.921 -0.985,1.546 -2.047,1.546 -1.125,0 -1.9844,-0.671 -1.9844,-1.531 0,-0.359 0.2504,-0.578 0.5784,-0.578 0.343,0 0.562,0.25 0.562,0.578 0,0.547 -0.515,0.547 -0.687,0.547 0.343,0.547 1.078,0.703 1.484,0.703 0.453,0 1.063,-0.25 1.063,-1.25 0,-0.14 -0.016,-0.781 -0.313,-1.281 C 12.336,10.055 11.961,10.023 11.68,10.008 11.586,9.9922 11.32,9.9766 11.242,9.9766 11.148,9.9609 11.07,9.9609 11.07,9.8359 c 0,-0.1093 0.078,-0.1093 0.266,-0.1093 h 0.5 c 0.906,0 1.328,-0.7657 1.328,-1.8594 0,-1.5156 -0.781,-1.8438 -1.266,-1.8438 -0.484,0 -1.312,0.1875 -1.703,0.8594 0.391,-0.0625 0.735,0.1875 0.735,0.6094 0,0.4062 -0.297,0.625 -0.625,0.625 -0.266,0 -0.6253,-0.1563 -0.6253,-0.6563 0,-1.0156 1.0313,-1.75 2.2503,-1.75 1.359,0 2.375,1.0157 2.375,2.1563 0,0.9219 -0.703,1.7812 -1.86,2.0156 z"
   id="path19"
   inkscape:connector-curvature="0"
   style="fill:#000000;stroke-width:0" />
<path
   d="m 29.301,5.0117 0.052,10e-5 0.053,5e-4 0.051,0.0015 0.025,0.0012 0.025,0.0016 0.025,0.0021 0.024,0.0026 0.023,0.0031 0.023,0.0038 0.023,0.0045 0.021,0.0052 0.021,0.006 0.021,0.0069 0.019,0.0078 0.018,0.0087 0.018,0.0098 0.016,0.0109 0.016,0.012 0.014,0.0133 0.014,0.0145 0.012,0.0158 0.011,0.0171 0.005,0.0092 0.004,0.0094 0.005,0.0099 0.004,0.0102 0.003,0.0107 0.004,0.011 0.003,0.0114 0.002,0.0118 0.002,0.0123 0.002,0.0126 0.001,0.0131 10e-4,0.0135 0.001,0.014 0,0.0144 c 0,0.3281 -0.281,0.3281 -0.562,0.3281 h -8.594 c -0.266,0 -0.562,0 -0.562,-0.3281 0,-0.3125 0.296,-0.3125 0.562,-0.3125 z"
   id="path21"
   inkscape:connector-curvature="0"
   style="fill:#000000;stroke-width:0" />
<path
   d="m 39.352,11.543 0,0.017 0,0.016 0,0.015 0,0.015 -10e-4,0.015 0,0.014 0,0.014 0,0.013 0,0.013 -10e-4,0.013 0,0.011 0,0.012 -0.001,0.011 -10e-4,0.011 0,0.01 -10e-4,0.01 -0.001,0.01 -10e-4,0.009 -0.002,0.009 -0.001,0.008 -10e-4,0.008 -0.002,0.008 -0.002,0.007 -0.002,0.008 -0.004,0.013 -0.006,0.012 -0.006,0.011 -0.006,0.009 -0.008,0.009 -0.009,0.008 -0.01,0.006 -0.011,0.006 -0.012,0.005 -0.013,0.004 -0.014,0.004 -0.008,0.002 -0.008,10e-4 -0.009,10e-4 -0.008,0.001 -0.01,10e-4 -0.009,10e-4 -0.01,10e-4 -0.01,0.001 -0.011,0 -0.011,10e-4 -0.011,0 -0.012,0 -0.012,10e-4 -0.013,0 -0.013,0 -0.014,0 -0.013,0 -0.015,0 c -0.391,-0.422 -1.187,-1.016 -2.812,-1.016 v -0.453 c 0.359,0 1.156,0 2.031,0.407 V 2.5742 c 0,-0.5625 -0.047,-0.7656 -1.453,-0.7656 H 36.32 V 1.3555 c 0.422,0.0312 1.969,0.0312 2.485,0.0312 0.531,0 2.062,0 2.484,-0.0312 v 0.4531 h -0.484 c -1.407,0 -1.453,0.2031 -1.453,0.7656 z"
   id="path23"
   inkscape:connector-curvature="0"
   style="fill:#000000;stroke-width:0" />
<path
   d="m 53.656,15.961 h 4.391 c 0.219,0 0.5,0 0.5,0.281 0,0.313 -0.266,0.313 -0.5,0.313 h -4.391 v 4.375 c 0,0.234 0,0.515 -0.281,0.515 -0.313,0 -0.313,-0.265 -0.313,-0.515 v -4.375 h -4.39 c -0.219,0 -0.5,0 -0.5,-0.297 0,-0.297 0.266,-0.297 0.5,-0.297 h 4.39 V 11.57 c 0,-0.218 0,-0.5 0.297,-0.5 0.297,0 0.297,0.266 0.297,0.5 z"
   id="path25"
   inkscape:connector-curvature="0"
   style="fill:#000000;stroke-width:0" />
<path
   d="m 88.402,29.559 -0.046,-0.01 -0.044,-0.011 -0.043,-0.013 -0.04,-0.014 -0.04,-0.016 -0.037,-0.017 -0.036,-0.018 -0.034,-0.019 -0.033,-0.021 -0.031,-0.021 -0.03,-0.023 -0.028,-0.023 -0.026,-0.025 -0.025,-0.025 -0.024,-0.026 -0.022,-0.027 -0.02,-0.027 -0.019,-0.028 -0.018,-0.029 -0.016,-0.029 -0.015,-0.029 -0.013,-0.03 -0.013,-0.03 -0.01,-0.03 -0.01,-0.03 -0.008,-0.031 -0.007,-0.03 -0.005,-0.03 -0.004,-0.03 -0.003,-0.03 -0.002,-0.03 -0.001,-0.03 c 0,-0.375 0.313,-0.5 0.531,-0.5 0.469,0 0.813,0.407 0.813,0.844 0,0.656 -0.766,0.969 -1.438,0.969 -0.968,0 -1.5,-0.953 -1.64,-1.266 -0.375,1.203 -1.36,1.266 -1.641,1.266 -1.625,0 -2.484,-2.094 -2.484,-2.438 0,-0.062 0.062,-0.14 0.172,-0.14 0.125,0 0.156,0.093 0.187,0.156 0.547,1.766 1.61,2.094 2.078,2.094 0.703,0 0.86,-0.657 0.86,-1.047 0,-0.344 -0.094,-0.719 -0.297,-1.469 l -0.531,-2.187 c -0.25,-0.954 -0.704,-1.829 -1.547,-1.829 -0.078,0 -0.469,0 -0.813,0.204 0.578,0.125 0.703,0.593 0.703,0.781 0,0.328 -0.234,0.515 -0.547,0.515 -0.375,0 -0.796,-0.343 -0.796,-0.843 0,-0.672 0.75,-0.969 1.437,-0.969 0.766,0 1.297,0.594 1.641,1.25 0.25,-0.938 1.047,-1.25 1.64,-1.25 1.61,0 2.469,2.078 2.469,2.422 0,0.094 -0.062,0.156 -0.156,0.156 -0.141,0 -0.156,-0.078 -0.203,-0.219 -0.438,-1.39 -1.36,-2.047 -2.063,-2.047 -0.562,0 -0.859,0.422 -0.859,1.063 0,0.359 0.062,0.609 0.312,1.656 l 0.563,2.156 c 0.234,0.954 0.765,1.657 1.5,1.657 0.031,0 0.484,0 0.812,-0.203 z"
   id="path27"
   inkscape:connector-curvature="0"
   style="fill:#000000;stroke-width:0" />
<line
   x1="64.191002"
   y1="16.273001"
   x2="106.43"
   y2="16.273001"
   id="line29"
   style="stroke-width:0.63800001" />
<path
   d="M 71.723,7.8398 71.677,7.8302 71.632,7.819 71.59,7.8063 71.549,7.7922 71.51,7.7766 71.472,7.7597 71.436,7.7415 71.402,7.7222 71.369,7.7016 71.338,7.68 71.308,7.6574 71.28,7.6338 71.254,7.6094 71.229,7.5841 71.206,7.558 71.184,7.5312 71.163,7.5038 71.144,7.4758 71.126,7.4473 71.11,7.4184 71.095,7.389 71.082,7.3594 71.07,7.3294 71.059,7.2993 71.05,7.269 71.042,7.2387 71.035,7.2083 71.029,7.178 71.025,7.1478 71.022,7.1178 71.02,7.0881 l 0,-0.0295 c 0,-0.375 0.312,-0.5 0.531,-0.5 0.469,0 0.812,0.4062 0.812,0.8437 0,0.6563 -0.765,0.9688 -1.437,0.9688 -0.969,0 -1.5,-0.9531 -1.641,-1.2656 -0.375,1.2031 -1.359,1.2656 -1.64,1.2656 -1.625,0 -2.485,-2.0938 -2.485,-2.4375 0,-0.0625 0.063,-0.1406 0.172,-0.1406 0.125,0 0.156,0.0937 0.188,0.1562 0.546,1.7656 1.609,2.0938 2.078,2.0938 0.703,0 0.859,-0.6563 0.859,-1.0469 0,-0.3438 -0.094,-0.7188 -0.297,-1.4688 L 67.629,3.3398 c -0.25,-0.9531 -0.703,-1.8281 -1.547,-1.8281 -0.078,0 -0.469,0 -0.812,0.2031 0.578,0.125 0.703,0.5938 0.703,0.7813 0,0.3281 -0.235,0.5156 -0.547,0.5156 -0.375,0 -0.797,-0.3437 -0.797,-0.8437 0,-0.6719 0.75,-0.9688 1.437,-0.9688 0.766,0 1.297,0.5938 1.641,1.25 0.25,-0.9375 1.047,-1.25 1.641,-1.25 1.609,0 2.468,2.0781 2.468,2.4219 0,0.0937 -0.062,0.1562 -0.156,0.1562 -0.14,0 -0.156,-0.0781 -0.203,-0.2187 C 71.02,2.168 70.098,1.5117 69.395,1.5117 c -0.563,0 -0.86,0.4219 -0.86,1.0625 0,0.3594 0.063,0.6094 0.313,1.6563 l 0.562,2.1562 c 0.235,0.9531 0.766,1.6563 1.5,1.6563 0.031,0 0.485,0 0.813,-0.2032 z"
   id="path31"
   inkscape:connector-curvature="0"
   style="fill:#000000;stroke-width:0" />
<path
   d="m 74.48,6.8203 1.172,1.1563 c 1.75,1.5312 2.422,2.1404 2.422,3.2504 0,1.265 -1.015,2.171 -2.375,2.171 -1.25,0 -2.078,-1.031 -2.078,-2.031 0,-0.625 0.547,-0.625 0.594,-0.625 0.187,0 0.578,0.141 0.578,0.594 0,0.297 -0.203,0.578 -0.594,0.578 -0.094,0 -0.109,0 -0.14,0 0.25,0.719 0.859,1.125 1.5,1.125 1.015,0 1.5,-0.891 1.5,-1.812 0,-0.891 -0.563,-1.7817 -1.172,-2.4692 L 73.746,6.3672 C 73.621,6.2578 73.621,6.2266 73.621,5.9609 h 4.141 l 0.312,1.9375 H 77.793 C 77.73,7.5703 77.652,7.0703 77.543,6.9141 77.465,6.8203 76.73,6.8203 76.48,6.8203 z"
   id="path33"
   inkscape:connector-curvature="0"
   style="fill:#000000;stroke-width:0" />
<path
   d="m 93.148,5.0117 0.053,10e-5 0.052,5e-4 0.052,0.0015 0.025,0.0012 0.025,0.0016 0.024,0.0021 0.025,0.0026 0.023,0.0031 0.023,0.0038 0.022,0.0045 0.022,0.0052 0.021,0.006 0.02,0.0069 0.019,0.0078 0.019,0.0087 0.018,0.0098 0.016,0.0109 0.016,0.012 0.014,0.0133 0.013,0.0145 0.013,0.0158 0.01,0.0171 0.005,0.0092 0.005,0.0094 0.004,0.0099 0.004,0.0102 0.004,0.0107 0.003,0.011 0.003,0.0114 0.003,0.0118 0.002,0.0123 0.002,0.0126 0.001,0.0131 10e-4,0.0135 0.001,0.014 0,0.0144 c 0,0.3281 -0.281,0.3281 -0.563,0.3281 h -8.593 c -0.266,0 -0.563,0 -0.563,-0.3281 0,-0.3125 0.297,-0.3125 0.563,-0.3125 z"
   id="path35"
   inkscape:connector-curvature="0"
   style="fill:#000000;stroke-width:0" />
<path
   d="m 103.2,11.543 0,0.017 0,0.016 0,0.015 0,0.015 0,0.015 0,0.014 0,0.014 0,0.013 0,0.013 0,0.013 0,0.011 0,0.012 0,0.011 0,0.011 -0.01,0.01 0,0.01 0,0.01 0,0.009 0,0.009 0,0.008 0,0.008 0,0.008 -0.01,0.007 0,0.008 0,0.013 -0.01,0.012 0,0.011 -0.01,0.009 -0.01,0.009 -0.01,0.008 -0.01,0.006 -0.01,0.006 -0.01,0.005 -0.01,0.004 -0.02,0.004 0,0.002 -0.01,10e-4 -0.01,10e-4 -0.01,0.001 -0.01,10e-4 -0.01,10e-4 -0.01,10e-4 -0.01,0.001 -0.01,0 -0.01,10e-4 -0.01,0 -0.01,0 -0.02,10e-4 -0.01,0 -0.01,0 -0.01,0 -0.02,0 -0.01,0 c -0.39,-0.422 -1.19,-1.016 -2.82,-1.016 v -0.453 c 0.36,0 1.16,0 2.04,0.407 V 2.5742 c 0,-0.5625 -0.05,-0.7656 -1.46,-0.7656 h -0.48 V 1.3555 c 0.42,0.0312 1.97,0.0312 2.48,0.0312 0.53,0 2.06,0 2.49,-0.0312 v 0.4531 h -0.49 c -1.4,0 -1.45,0.2031 -1.45,0.7656 z"
   id="path37"
   inkscape:connector-curvature="0"
   style="fill:#000000;stroke-width:0" />
<path
   d="m 122.78,17.445 0.04,0 0.05,0.001 0.04,10e-4 0.02,0.001 0.02,0.002 0.02,0.002 0.02,0.002 0.02,0.003 0.03,0.003 0.02,0.004 0.02,0.005 0.01,0.005 0.02,0.006 0.02,0.007 0.02,0.008 0.01,0.009 0.02,0.01 0.02,0.011 0.01,0.012 0.01,0.013 0.01,0.014 0.01,0.008 0,0.007 0.01,0.009 0,0.008 0.01,0.009 0,0.009 0.01,0.01 0,0.01 0,0.01 0,0.011 0.01,0.011 0,0.011 0,0.012 0,0.012 0,0.013 0,0.013 c 0,0.296 -0.26,0.296 -0.5,0.296 h -9.37 c -0.22,0 -0.5,0 -0.5,-0.281 0,-0.297 0.26,-0.297 0.5,-0.297 z"
   id="path39"
   inkscape:connector-curvature="0"
   style="fill:#000000;stroke-width:0" />
<path
   d="m 122.78,14.477 0.04,0 0.05,0 0.04,0.002 0.02,0.001 0.02,10e-4 0.02,0.002 0.02,0.003 0.02,0.003 0.03,0.003 0.02,0.004 0.02,0.005 0.01,0.006 0.02,0.007 0.02,0.007 0.02,0.008 0.01,0.01 0.02,0.01 0.02,0.011 0.01,0.013 0.01,0.014 0.01,0.015 0.01,0.008 0,0.008 0.01,0.009 0,0.009 0.01,0.009 0,0.01 0.01,0.01 0,0.01 0,0.011 0,0.012 0.01,0.011 0,0.012 0,0.013 0,0.012 0,0.014 0,0.013 c 0,0.297 -0.26,0.297 -0.5,0.297 h -9.37 c -0.22,0 -0.5,0 -0.5,-0.281 0,-0.312 0.26,-0.312 0.5,-0.312 z"
   id="path41"
   inkscape:connector-curvature="0"
   style="fill:#000000;stroke-width:0" />
<path
   d="m 137.34,29.559 -0.05,-0.01 -0.04,-0.011 -0.04,-0.013 -0.04,-0.014 -0.04,-0.016 -0.04,-0.017 -0.04,-0.018 -0.03,-0.019 -0.03,-0.021 -0.03,-0.021 -0.03,-0.023 -0.03,-0.023 -0.03,-0.025 -0.02,-0.025 -0.03,-0.026 -0.02,-0.027 -0.02,-0.027 -0.02,-0.028 -0.02,-0.029 -0.01,-0.029 -0.02,-0.029 -0.01,-0.03 -0.01,-0.03 -0.01,-0.03 -0.01,-0.03 -0.01,-0.031 -0.01,-0.03 0,-0.03 -0.01,-0.03 0,-0.03 0,-0.03 0,-0.03 c 0,-0.375 0.31,-0.5 0.53,-0.5 0.47,0 0.81,0.407 0.81,0.844 0,0.656 -0.77,0.969 -1.44,0.969 -0.97,0 -1.5,-0.953 -1.64,-1.266 -0.37,1.203 -1.36,1.266 -1.64,1.266 -1.62,0 -2.48,-2.094 -2.48,-2.438 0,-0.062 0.06,-0.14 0.17,-0.14 0.12,0 0.15,0.093 0.19,0.156 0.54,1.766 1.61,2.094 2.07,2.094 0.71,0 0.86,-0.657 0.86,-1.047 0,-0.344 -0.09,-0.719 -0.29,-1.469 l -0.53,-2.187 C 133,24.105 132.54,23.23 131.7,23.23 c -0.08,0 -0.47,0 -0.81,0.204 0.57,0.125 0.7,0.593 0.7,0.781 0,0.328 -0.24,0.515 -0.55,0.515 -0.37,0 -0.79,-0.343 -0.79,-0.843 0,-0.672 0.75,-0.969 1.43,-0.969 0.77,0 1.3,0.594 1.64,1.25 0.25,-0.938 1.05,-1.25 1.64,-1.25 1.61,0 2.47,2.078 2.47,2.422 0,0.094 -0.06,0.156 -0.15,0.156 -0.14,0 -0.16,-0.078 -0.21,-0.219 -0.43,-1.39 -1.36,-2.047 -2.06,-2.047 -0.56,0 -0.86,0.422 -0.86,1.063 0,0.359 0.06,0.609 0.31,1.656 l 0.57,2.156 c 0.23,0.954 0.76,1.657 1.5,1.657 0.03,0 0.48,0 0.81,-0.203 z"
   id="path43"
   inkscape:connector-curvature="0"
   style="fill:#000000;stroke-width:0" />
<path
   d="m 141.91,32.781 0.09,0.031 0.08,0.033 0.09,0.036 0.08,0.039 0.07,0.041 0.08,0.043 0.07,0.046 0.08,0.048 0.07,0.05 0.07,0.052 0.06,0.054 0.06,0.057 0.06,0.058 0.06,0.06 0.06,0.062 0.05,0.064 0.05,0.065 0.05,0.067 0.04,0.068 0.05,0.07 0.03,0.071 0.04,0.073 0.03,0.073 0.03,0.075 0.03,0.076 0.02,0.077 0.02,0.078 0.02,0.079 0.01,0.08 0.01,0.08 0.01,0.081 0,0.082 c 0,0.922 -0.99,1.547 -2.05,1.547 -1.13,0 -1.98,-0.672 -1.98,-1.531 0,-0.36 0.25,-0.578 0.57,-0.578 0.35,0 0.57,0.25 0.57,0.578 0,0.546 -0.52,0.546 -0.69,0.546 0.34,0.547 1.08,0.704 1.48,0.704 0.46,0 1.07,-0.25 1.07,-1.25 0,-0.141 -0.02,-0.782 -0.32,-1.282 -0.33,-0.531 -0.7,-0.562 -0.98,-0.578 -0.1,-0.015 -0.36,-0.031 -0.44,-0.031 -0.09,-0.016 -0.17,-0.016 -0.17,-0.141 0,-0.109 0.08,-0.109 0.26,-0.109 h 0.5 c 0.91,0 1.33,-0.766 1.33,-1.859 0,-1.516 -0.78,-1.844 -1.26,-1.844 -0.49,0 -1.32,0.187 -1.71,0.859 0.39,-0.062 0.74,0.188 0.74,0.61 0,0.406 -0.3,0.625 -0.63,0.625 -0.26,0 -0.62,-0.157 -0.62,-0.657 0,-1.015 1.03,-1.75 2.25,-1.75 1.36,0 2.37,1.016 2.37,2.157 0,0.922 -0.7,1.781 -1.86,2.015 z"
   id="path45"
   inkscape:connector-curvature="0"
   style="fill:#000000;stroke-width:0" />
<path
   d="m 154.64,26.746 h 4.39 c 0.22,0 0.5,0 0.5,0.281 0,0.313 -0.26,0.313 -0.5,0.313 h -4.39 v 4.375 c 0,0.234 0,0.515 -0.28,0.515 -0.31,0 -0.31,-0.265 -0.31,-0.515 V 27.34 h -4.39 c -0.22,0 -0.5,0 -0.5,-0.297 0,-0.297 0.26,-0.297 0.5,-0.297 h 4.39 v -4.391 c 0,-0.218 0,-0.5 0.29,-0.5 0.3,0 0.3,0.266 0.3,0.5 z"
   id="path47"
   inkscape:connector-curvature="0"
   style="fill:#000000;stroke-width:0" />
<path
   d="m 170.98,25.746 h -0.36 c -0.05,-0.266 -0.17,-1.141 -0.33,-1.406 -0.11,-0.141 -1.02,-0.141 -1.5,-0.141 h -2.94 c 0.42,0.375 1.41,1.391 1.81,1.766 2.43,2.234 3.32,3.047 3.32,4.625 0,1.828 -1.46,3.047 -3.3,3.047 -1.84,0 -2.92,-1.563 -2.92,-2.938 0,-0.812 0.7,-0.812 0.75,-0.812 0.33,0 0.73,0.25 0.73,0.75 0,0.453 -0.29,0.75 -0.73,0.75 -0.16,0 -0.19,0 -0.24,-0.016 0.32,1.078 1.18,1.813 2.21,1.813 1.34,0 2.17,-1.125 2.17,-2.594 0,-1.344 -0.78,-2.531 -1.69,-3.547 l -3.2,-3.594 v -0.375 h 5.79 z"
   id="path49"
   inkscape:connector-curvature="0"
   style="fill:#000000;stroke-width:0" />
<path
   d="m 179.32,29.559 -0.05,-0.01 -0.04,-0.011 -0.05,-0.013 -0.04,-0.014 -0.04,-0.016 -0.03,-0.017 -0.04,-0.018 -0.03,-0.019 -0.04,-0.021 -0.03,-0.021 -0.03,-0.023 -0.03,-0.023 -0.02,-0.025 -0.03,-0.025 -0.02,-0.026 -0.02,-0.027 -0.02,-0.027 -0.02,-0.028 -0.02,-0.029 -0.02,-0.029 -0.01,-0.029 -0.01,-0.03 -0.02,-0.03 -0.01,-0.03 -0.01,-0.03 0,-0.031 -0.01,-0.03 -0.01,-0.03 0,-0.03 0,-0.03 -0.01,-0.03 0,-0.03 c 0,-0.375 0.32,-0.5 0.54,-0.5 0.46,0 0.81,0.407 0.81,0.844 0,0.656 -0.77,0.969 -1.44,0.969 -0.97,0 -1.5,-0.953 -1.64,-1.266 -0.38,1.203 -1.36,1.266 -1.64,1.266 -1.63,0 -2.49,-2.094 -2.49,-2.438 0,-0.062 0.07,-0.14 0.18,-0.14 0.12,0 0.15,0.093 0.18,0.156 0.55,1.766 1.61,2.094 2.08,2.094 0.71,0 0.86,-0.657 0.86,-1.047 0,-0.344 -0.09,-0.719 -0.3,-1.469 l -0.53,-2.187 c -0.25,-0.954 -0.7,-1.829 -1.54,-1.829 -0.08,0 -0.47,0 -0.82,0.204 0.58,0.125 0.71,0.593 0.71,0.781 0,0.328 -0.24,0.515 -0.55,0.515 -0.37,0 -0.8,-0.343 -0.8,-0.843 0,-0.672 0.75,-0.969 1.44,-0.969 0.77,0 1.3,0.594 1.64,1.25 0.25,-0.938 1.05,-1.25 1.64,-1.25 1.61,0 2.47,2.078 2.47,2.422 0,0.094 -0.06,0.156 -0.16,0.156 -0.14,0 -0.15,-0.078 -0.2,-0.219 -0.44,-1.39 -1.36,-2.047 -2.06,-2.047 -0.56,0 -0.86,0.422 -0.86,1.063 0,0.359 0.06,0.609 0.31,1.656 l 0.56,2.156 c 0.24,0.954 0.77,1.657 1.5,1.657 0.04,0 0.49,0 0.82,-0.203 z"
   id="path51"
   inkscape:connector-curvature="0"
   style="fill:#000000;stroke-width:0" />
<path
   d="m 182.07,29.719 1.18,1.156 c 1.75,1.531 2.42,2.141 2.42,3.25 0,1.266 -1.02,2.172 -2.38,2.172 -1.25,0 -2.08,-1.031 -2.08,-2.031 0,-0.625 0.55,-0.625 0.6,-0.625 0.19,0 0.58,0.14 0.58,0.593 0,0.297 -0.21,0.578 -0.6,0.578 -0.09,0 -0.11,0 -0.14,0 0.25,0.719 0.86,1.126 1.5,1.126 1.02,0 1.5,-0.891 1.5,-1.813 0,-0.891 -0.56,-1.781 -1.17,-2.469 l -2.14,-2.39 c -0.13,-0.11 -0.13,-0.141 -0.13,-0.407 h 4.14 l 0.32,1.938 h -0.28 c -0.07,-0.328 -0.14,-0.828 -0.25,-0.985 -0.08,-0.093 -0.82,-0.093 -1.07,-0.093 z"
   id="path53"
   inkscape:connector-curvature="0"
   style="fill:#000000;stroke-width:0" />
<path
   d="m 196.62,26.746 h 4.39 c 0.22,0 0.5,0 0.5,0.281 0,0.313 -0.27,0.313 -0.5,0.313 h -4.39 v 4.375 c 0,0.234 0,0.515 -0.28,0.515 -0.32,0 -0.32,-0.265 -0.32,-0.515 V 27.34 h -4.39 c -0.22,0 -0.5,0 -0.5,-0.297 0,-0.297 0.27,-0.297 0.5,-0.297 h 4.39 v -4.391 c 0,-0.218 0,-0.5 0.3,-0.5 0.3,0 0.3,0.266 0.3,0.5 z"
   id="path55"
   inkscape:connector-curvature="0"
   style="fill:#000000;stroke-width:0" />
<path
   d="m 208.87,28.777 -0.01,0 -0.01,-0.001 -0.02,-0.001 -0.01,-10e-4 -0.01,0 -0.01,-0.001 -0.01,-0.001 -0.01,-10e-4 -0.02,-0.001 -0.02,-0.002 -0.02,-0.002 -0.01,-0.002 -0.02,-0.003 -0.01,-0.002 -0.02,-0.003 -0.01,-0.003 -0.01,-0.003 -0.01,-0.004 -0.01,-0.004 -0.01,-0.004 -0.01,-0.004 -0.01,-0.005 -0.01,-0.006 0,-0.005 -0.01,-0.007 0,-0.006 -0.01,-0.008 0,-0.008 -0.01,-0.008 0,-0.009 0,-0.009 0,-0.01 -0.01,-0.011 0,-0.012 0,-0.012 0,-0.013 c 0,-0.156 0.08,-0.156 0.36,-0.156 h 0.74 c 1.34,0 1.95,-1.109 1.95,-2.64 0,-2.079 -1.08,-2.641 -1.86,-2.641 -0.77,0 -2.06,0.359 -2.53,1.422 0.51,-0.078 0.97,0.203 0.97,0.765 0,0.469 -0.33,0.782 -0.77,0.782 -0.39,0 -0.8,-0.219 -0.8,-0.828 0,-1.407 1.41,-2.563 3.18,-2.563 1.89,0 3.29,1.438 3.29,3.047 0,1.469 -1.18,2.609 -2.7,2.875 1.38,0.391 2.27,1.562 2.27,2.797 0,1.25 -1.3,2.172 -2.85,2.172 -1.59,0 -2.76,-0.969 -2.76,-2.125 0,-0.641 0.5,-0.766 0.73,-0.766 0.33,0 0.72,0.25 0.72,0.719 0,0.515 -0.39,0.734 -0.73,0.734 -0.1,0 -0.13,0 -0.18,-0.015 0.6,1.078 2.1,1.078 2.18,1.078 0.53,0 1.56,-0.235 1.56,-1.797 0,-0.297 -0.05,-1.188 -0.52,-1.875 -0.47,-0.703 -1.01,-0.75 -1.44,-0.766 z"
   id="path57"
   inkscape:connector-curvature="0"
   style="fill:#000000;stroke-width:0" />
<path
   d="m 221.29,29.559 -0.04,-0.01 -0.05,-0.011 -0.04,-0.013 -0.04,-0.014 -0.04,-0.016 -0.04,-0.017 -0.03,-0.018 -0.04,-0.019 -0.03,-0.021 -0.03,-0.021 -0.03,-0.023 -0.03,-0.023 -0.03,-0.025 -0.02,-0.025 -0.02,-0.026 -0.03,-0.027 -0.02,-0.027 -0.02,-0.028 -0.01,-0.029 -0.02,-0.029 -0.01,-0.029 -0.02,-0.03 -0.01,-0.03 -0.01,-0.03 -0.01,-0.03 -0.01,-0.031 0,-0.03 -0.01,-0.03 0,-0.03 -0.01,-0.03 0,-0.03 0,-0.03 c 0,-0.375 0.31,-0.5 0.53,-0.5 0.47,0 0.81,0.407 0.81,0.844 0,0.656 -0.76,0.969 -1.43,0.969 -0.97,0 -1.5,-0.953 -1.65,-1.266 -0.37,1.203 -1.35,1.266 -1.64,1.266 -1.62,0 -2.48,-2.094 -2.48,-2.438 0,-0.062 0.06,-0.14 0.17,-0.14 0.13,0 0.16,0.093 0.19,0.156 0.55,1.766 1.61,2.094 2.08,2.094 0.7,0 0.86,-0.657 0.86,-1.047 0,-0.344 -0.1,-0.719 -0.3,-1.469 l -0.53,-2.187 c -0.25,-0.954 -0.7,-1.829 -1.55,-1.829 -0.08,0 -0.47,0 -0.81,0.204 0.58,0.125 0.7,0.593 0.7,0.781 0,0.328 -0.23,0.515 -0.54,0.515 -0.38,0 -0.8,-0.343 -0.8,-0.843 0,-0.672 0.75,-0.969 1.44,-0.969 0.76,0 1.29,0.594 1.64,1.25 0.25,-0.938 1.04,-1.25 1.64,-1.25 1.61,0 2.47,2.078 2.47,2.422 0,0.094 -0.07,0.156 -0.16,0.156 -0.14,0 -0.16,-0.078 -0.2,-0.219 -0.44,-1.39 -1.36,-2.047 -2.07,-2.047 -0.56,0 -0.86,0.422 -0.86,1.063 0,0.359 0.07,0.609 0.32,1.656 l 0.56,2.156 c 0.23,0.954 0.77,1.657 1.5,1.657 0.03,0 0.48,0 0.81,-0.203 z"
   id="path59"
   inkscape:connector-curvature="0"
   style="fill:#000000;stroke-width:0" />
<path
   d="m 232.52,26.746 h 4.39 c 0.21,0 0.5,0 0.5,0.281 0,0.313 -0.27,0.313 -0.5,0.313 h -4.39 v 4.375 c 0,0.234 0,0.515 -0.29,0.515 -0.31,0 -0.31,-0.265 -0.31,-0.515 V 27.34 h -4.39 c -0.22,0 -0.5,0 -0.5,-0.297 0,-0.297 0.27,-0.297 0.5,-0.297 h 4.39 v -4.391 c 0,-0.218 0,-0.5 0.3,-0.5 0.3,0 0.3,0.266 0.3,0.5 z"
   id="path61"
   inkscape:connector-curvature="0"
   style="fill:#000000;stroke-width:0" />
<path
   d="m 246.43,33.262 0,0.016 0,0.016 0,0.016 0,0.015 0,0.015 0,0.014 0,0.014 0,0.013 0,0.013 -0.01,0.012 0,0.012 0,0.012 0,0.011 0,0.011 0,0.01 0,0.01 0,0.009 0,0.01 0,0.008 0,0.009 -0.01,0.008 0,0.008 0,0.007 0,0.007 0,0.014 -0.01,0.011 -0.01,0.011 0,0.01 -0.01,0.009 -0.01,0.007 -0.01,0.007 -0.01,0.006 -0.01,0.005 -0.02,0.004 -0.01,0.004 -0.01,0.001 -0.01,0.002 0,0.001 -0.01,10e-4 -0.01,10e-4 -0.01,0.001 -0.01,10e-4 -0.01,0 -0.01,10e-4 -0.01,0 -0.02,0.001 -0.01,0 -0.01,0 -0.01,0 -0.02,10e-4 -0.01,0 -0.01,0 -0.02,0 c -0.39,-0.422 -1.18,-1.016 -2.81,-1.016 v -0.453 c 0.36,0 1.16,0 2.03,0.406 v -8.281 c 0,-0.563 -0.04,-0.766 -1.45,-0.766 h -0.48 v -0.453 c 0.42,0.031 1.96,0.031 2.48,0.031 0.53,0 2.06,0 2.48,-0.031 v 0.453 h -0.48 c -1.41,0 -1.45,0.203 -1.45,0.766 z"
   id="path63"
   inkscape:connector-curvature="0"
   style="fill:#000000;stroke-width:0" />
<line
   x1="129.81"
   y1="16.273001"
   x2="249.66"
   y2="16.273001"
   id="line65"
   style="stroke-width:0.63800001" />
<path
   d="M 144.89,7.8398 144.84,7.8302 144.8,7.819 144.75,7.8063 144.71,7.7922 144.67,7.7766 144.64,7.7597 144.6,7.7415 144.57,7.7222 144.53,7.7016 144.5,7.68 144.47,7.6574 144.44,7.6338 144.42,7.6094 144.39,7.5841 144.37,7.558 l -0.02,-0.0268 -0.02,-0.0274 -0.02,-0.028 -0.02,-0.0285 -0.02,-0.0289 -0.01,-0.0294 -0.01,-0.0296 -0.02,-0.03 -0.01,-0.0301 -0.01,-0.0303 0,-0.0303 -0.01,-0.0304 -0.01,-0.0303 0,-0.0302 0,-0.03 -0.01,-0.0297 0,-0.0295 c 0,-0.375 0.32,-0.5 0.53,-0.5 0.47,0 0.82,0.4062 0.82,0.8437 0,0.6563 -0.77,0.9688 -1.44,0.9688 -0.97,0 -1.5,-0.9531 -1.64,-1.2656 -0.38,1.2031 -1.36,1.2656 -1.64,1.2656 -1.63,0 -2.49,-2.0938 -2.49,-2.4375 0,-0.0625 0.07,-0.1406 0.18,-0.1406 0.12,0 0.15,0.0937 0.18,0.1562 0.55,1.7656 1.61,2.0938 2.08,2.0938 0.7,0 0.86,-0.6563 0.86,-1.0469 0,-0.3438 -0.09,-0.7188 -0.3,-1.4688 l -0.53,-2.1875 c -0.25,-0.9531 -0.7,-1.8281 -1.54,-1.8281 -0.08,0 -0.47,0 -0.82,0.2031 0.58,0.125 0.71,0.5938 0.71,0.7813 0,0.3281 -0.24,0.5156 -0.55,0.5156 -0.38,0 -0.8,-0.3437 -0.8,-0.8437 0,-0.6719 0.75,-0.9688 1.44,-0.9688 0.77,0 1.3,0.5938 1.64,1.25 0.25,-0.9375 1.05,-1.25 1.64,-1.25 1.61,0 2.47,2.0781 2.47,2.4219 0,0.0937 -0.06,0.1562 -0.16,0.1562 -0.14,0 -0.15,-0.0781 -0.2,-0.2187 -0.44,-1.3906 -1.36,-2.0469 -2.06,-2.0469 -0.56,0 -0.86,0.4219 -0.86,1.0625 0,0.3594 0.06,0.6094 0.31,1.6563 l 0.56,2.1562 c 0.24,0.9531 0.77,1.6563 1.5,1.6563 0.03,0 0.49,0 0.82,-0.2032 z"
   id="path67"
   inkscape:connector-curvature="0"
   style="fill:#000000;stroke-width:0" />
<path
   d="M 149.51,7.8047 V 6.8359 c 0,-0.4062 -0.03,-0.5312 -0.85,-0.5312 h -0.23 V 5.9609 c 0.45,0.0313 1.03,0.0313 1.5,0.0313 0.47,0 1.06,0 1.52,-0.0313 v 0.3438 h -0.24 c -0.83,0 -0.84,0.125 -0.84,0.5312 v 0.9688 h 1.11 v 0.3437 h -1.11 v 5.0786 c 0,0.218 0,0.281 -0.19,0.281 -0.09,0 -0.13,0 -0.22,-0.125 l -3.42,-5.2346 h 0.31 l 2.72,4.1566 V 8.1484 h -2.72 -0.31 V 7.8047 z"
   id="path69"
   inkscape:connector-curvature="0"
   style="fill:#000000;stroke-width:0" />
<path
   d="m 162.19,5.0273 h 4.39 c 0.22,0 0.5,0 0.5,0.2813 0,0.3125 -0.27,0.3125 -0.5,0.3125 h -4.39 v 4.375 c 0,0.2349 0,0.5159 -0.28,0.5159 -0.32,0 -0.32,-0.266 -0.32,-0.5159 v -4.375 h -4.39 c -0.22,0 -0.5,0 -0.5,-0.2969 0,-0.2969 0.27,-0.2969 0.5,-0.2969 h 4.39 V 0.63672 c 0,-0.21875 0,-0.5 0.3,-0.5 0.3,0 0.3,0.26562 0.3,0.5 z"
   id="path71"
   inkscape:connector-curvature="0"
   style="fill:#000000;stroke-width:0" />
<path
   d="M 179.06,7.8398 179.01,7.8302 178.97,7.819 178.93,7.8063 178.89,7.7922 178.85,7.7766 178.81,7.7597 178.77,7.7415 178.74,7.7222 178.71,7.7016 178.67,7.68 178.64,7.6574 178.62,7.6338 178.59,7.6094 178.57,7.5841 178.54,7.558 178.52,7.5312 178.5,7.5038 l -0.02,-0.028 -0.02,-0.0285 -0.01,-0.0289 -0.02,-0.0294 -0.01,-0.0296 -0.01,-0.03 -0.02,-0.0301 0,-0.0303 -0.01,-0.0303 -0.01,-0.0304 -0.01,-0.0303 0,-0.0302 0,-0.03 0,-0.0297 -0.01,-0.0295 c 0,-0.375 0.32,-0.5 0.54,-0.5 0.46,0 0.81,0.4062 0.81,0.8437 0,0.6563 -0.77,0.9688 -1.44,0.9688 -0.97,0 -1.5,-0.9531 -1.64,-1.2656 -0.37,1.2031 -1.36,1.2656 -1.64,1.2656 -1.63,0 -2.48,-2.0938 -2.48,-2.4375 0,-0.0625 0.06,-0.1406 0.17,-0.1406 0.12,0 0.15,0.0937 0.18,0.1562 0.55,1.7656 1.61,2.0938 2.08,2.0938 0.71,0 0.86,-0.6563 0.86,-1.0469 0,-0.3438 -0.09,-0.7188 -0.29,-1.4688 l -0.54,-2.1875 c -0.25,-0.9531 -0.7,-1.8281 -1.54,-1.8281 -0.08,0 -0.47,0 -0.82,0.2031 0.58,0.125 0.71,0.5938 0.71,0.7813 0,0.3281 -0.24,0.5156 -0.55,0.5156 -0.37,0 -0.8,-0.3437 -0.8,-0.8437 0,-0.6719 0.75,-0.9688 1.44,-0.9688 0.77,0 1.3,0.5938 1.64,1.25 0.25,-0.9375 1.05,-1.25 1.64,-1.25 1.61,0 2.47,2.0781 2.47,2.4219 0,0.0937 -0.06,0.1562 -0.15,0.1562 -0.15,0 -0.16,-0.0781 -0.21,-0.2187 -0.44,-1.3906 -1.36,-2.0469 -2.06,-2.0469 -0.56,0 -0.86,0.4219 -0.86,1.0625 0,0.3594 0.06,0.6094 0.31,1.6563 l 0.57,2.1562 c 0.23,0.9531 0.76,1.6563 1.5,1.6563 0.03,0 0.48,0 0.81,-0.2032 z"
   id="path73"
   inkscape:connector-curvature="0"
   style="fill:#000000;stroke-width:0" />
<path
   d="m 183.63,9.8828 0.08,0.0307 0.09,0.0333 0.08,0.0359 0.08,0.0383 0.08,0.041 0.08,0.044 0.07,0.045 0.07,0.048 0.07,0.05 0.07,0.053 0.07,0.054 0.06,0.056 0.06,0.059 0.06,0.06 0.05,0.062 0.06,0.063 0.05,0.066 0.04,0.066 0.05,0.069 0.04,0.07 0.04,0.071 0.03,0.072 0.04,0.074 0.03,0.075 0.02,0.076 0.03,0.077 0.02,0.078 0.01,0.079 0.01,0.079 0.01,0.081 0.01,0.081 0,0.082 c 0,0.921 -0.98,1.546 -2.04,1.546 -1.13,0 -1.99,-0.671 -1.99,-1.531 0,-0.359 0.25,-0.578 0.58,-0.578 0.34,0 0.56,0.25 0.56,0.578 0,0.547 -0.51,0.547 -0.69,0.547 0.35,0.547 1.08,0.703 1.49,0.703 0.45,0 1.06,-0.25 1.06,-1.25 0,-0.14 -0.01,-0.781 -0.31,-1.281 -0.33,-0.531 -0.7,-0.563 -0.99,-0.578 -0.09,-0.0158 -0.36,-0.0314 -0.43,-0.0314 -0.1,-0.0157 -0.18,-0.0157 -0.18,-0.1407 0,-0.1093 0.08,-0.1093 0.27,-0.1093 h 0.5 c 0.91,0 1.33,-0.7657 1.33,-1.8594 0,-1.5156 -0.78,-1.8438 -1.27,-1.8438 -0.48,0 -1.31,0.1875 -1.7,0.8594 0.39,-0.0625 0.73,0.1875 0.73,0.6094 0,0.4062 -0.29,0.625 -0.62,0.625 -0.27,0 -0.63,-0.1563 -0.63,-0.6563 0,-1.0156 1.04,-1.75 2.25,-1.75 1.36,0 2.38,1.0157 2.38,2.1563 0,0.9219 -0.7,1.7812 -1.86,2.0156 z"
   id="path75"
   inkscape:connector-curvature="0"
   style="fill:#000000;stroke-width:0" />
<path
   d="m 200.48,5.0117 0.06,10e-5 0.05,5e-4 0.05,0.0015 0.03,0.0012 0.02,0.0016 0.03,0.0021 0.02,0.0026 0.02,0.0031 0.03,0.0038 0.02,0.0045 0.02,0.0052 0.02,0.006 0.02,0.0069 0.02,0.0078 0.02,0.0087 0.02,0.0098 0.01,0.0109 0.02,0.012 0.01,0.0133 0.02,0.0145 0.01,0.0158 0.01,0.0171 0,0.0092 0.01,0.0094 0,0.0099 0.01,0.0102 0,0.0107 0,0.011 0.01,0.0114 0,0.0118 0,0.0123 0,0.0126 0.01,0.0131 0,0.0135 0,0.014 0,0.0144 c 0,0.3281 -0.28,0.3281 -0.57,0.3281 h -8.59 c -0.27,0 -0.56,0 -0.56,-0.3281 0,-0.3125 0.29,-0.3125 0.56,-0.3125 z"
   id="path77"
   inkscape:connector-curvature="0"
   style="fill:#000000;stroke-width:0" />
<path
   d="M 213.49,7.8398 213.44,7.8302 213.4,7.819 213.36,7.8063 213.31,7.7922 213.28,7.7766 213.24,7.7597 213.2,7.7415 213.17,7.7222 213.13,7.7016 213.1,7.68 213.07,7.6574 213.05,7.6338 213.02,7.6094 212.99,7.5841 212.97,7.558 l -0.02,-0.0268 -0.02,-0.0274 -0.02,-0.028 -0.02,-0.0285 -0.01,-0.0289 -0.02,-0.0294 -0.01,-0.0296 -0.01,-0.03 -0.02,-0.0301 0,-0.0303 -0.01,-0.0303 -0.01,-0.0304 -0.01,-0.0303 0,-0.0302 0,-0.03 0,-0.0297 0,-0.0295 c 0,-0.375 0.31,-0.5 0.53,-0.5 0.47,0 0.81,0.4062 0.81,0.8437 0,0.6563 -0.77,0.9688 -1.44,0.9688 -0.97,0 -1.5,-0.9531 -1.64,-1.2656 -0.37,1.2031 -1.36,1.2656 -1.64,1.2656 -1.62,0 -2.48,-2.0938 -2.48,-2.4375 0,-0.0625 0.06,-0.1406 0.17,-0.1406 0.12,0 0.15,0.0937 0.19,0.1562 0.54,1.7656 1.61,2.0938 2.07,2.0938 0.71,0 0.86,-0.6563 0.86,-1.0469 0,-0.3438 -0.09,-0.7188 -0.29,-1.4688 L 209.4,3.3398 c -0.25,-0.9531 -0.71,-1.8281 -1.55,-1.8281 -0.08,0 -0.47,0 -0.81,0.2031 0.57,0.125 0.7,0.5938 0.7,0.7813 0,0.3281 -0.24,0.5156 -0.55,0.5156 -0.37,0 -0.79,-0.3437 -0.79,-0.8437 0,-0.6719 0.75,-0.9688 1.43,-0.9688 0.77,0 1.3,0.5938 1.64,1.25 0.25,-0.9375 1.05,-1.25 1.64,-1.25 1.61,0 2.47,2.0781 2.47,2.4219 0,0.0937 -0.06,0.1562 -0.15,0.1562 -0.14,0 -0.16,-0.0781 -0.21,-0.2187 -0.43,-1.3906 -1.36,-2.0469 -2.06,-2.0469 -0.56,0 -0.86,0.4219 -0.86,1.0625 0,0.3594 0.06,0.6094 0.31,1.6563 l 0.57,2.1562 c 0.23,0.9531 0.76,1.6563 1.5,1.6563 0.03,0 0.48,0 0.81,-0.2032 z"
   id="path79"
   inkscape:connector-curvature="0"
   style="fill:#000000;stroke-width:0" />
<path
   d="m 228.84,5.0117 0.05,10e-5 0.05,5e-4 0.05,0.0015 0.03,0.0012 0.02,0.0016 0.03,0.0021 0.02,0.0026 0.02,0.0031 0.03,0.0038 0.02,0.0045 0.02,0.0052 0.02,0.006 0.02,0.0069 0.02,0.0078 0.02,0.0087 0.02,0.0098 0.01,0.0109 0.02,0.012 0.01,0.0133 0.02,0.0145 0.01,0.0158 0.01,0.0171 0.01,0.0092 0,0.0094 0,0.0099 0.01,0.0102 0,0.0107 0.01,0.011 0,0.0114 0,0.0118 0,0.0123 0,0.0126 0.01,0.0131 0,0.0135 0,0.014 0,0.0144 c 0,0.3281 -0.28,0.3281 -0.56,0.3281 h -8.6 c -0.26,0 -0.56,0 -0.56,-0.3281 0,-0.3125 0.3,-0.3125 0.56,-0.3125 z"
   id="path81"
   inkscape:connector-curvature="0"
   style="fill:#000000;stroke-width:0" />
<path
   d="m 238.89,11.543 0,0.017 0,0.016 0,0.015 0,0.015 0,0.015 0,0.014 0,0.014 0,0.013 0,0.013 0,0.013 0,0.011 -0.01,0.012 0,0.011 0,0.011 0,0.01 0,0.01 0,0.01 0,0.009 0,0.009 0,0.008 0,0.008 -0.01,0.008 0,0.007 0,0.008 0,0.013 -0.01,0.012 -0.01,0.011 0,0.009 -0.01,0.009 -0.01,0.008 -0.01,0.006 -0.01,0.006 -0.01,0.005 -0.01,0.004 -0.02,0.004 -0.01,0.002 -0.01,10e-4 0,10e-4 -0.01,0.001 -0.01,10e-4 -0.01,10e-4 -0.01,10e-4 -0.01,0.001 -0.01,0 -0.01,10e-4 -0.01,0 -0.02,0 -0.01,10e-4 -0.01,0 -0.01,0 -0.02,0 -0.01,0 -0.02,0 c -0.39,-0.422 -1.18,-1.016 -2.81,-1.016 v -0.453 c 0.36,0 1.16,0 2.03,0.407 V 2.5742 c 0,-0.5625 -0.04,-0.7656 -1.45,-0.7656 h -0.49 V 1.3555 c 0.43,0.0312 1.97,0.0312 2.49,0.0312 0.53,0 2.06,0 2.48,-0.0312 v 0.4531 h -0.48 c -1.41,0 -1.45,0.2031 -1.45,0.7656 z"
   id="path83"
   inkscape:connector-curvature="0"
   style="fill:#000000;stroke-width:0" />
</g></svg>
