<?xml version="1.0" encoding="UTF-8" standalone="no"?>
<svg
   xmlns:dc="http://purl.org/dc/elements/1.1/"
   xmlns:cc="http://creativecommons.org/ns#"
   xmlns:rdf="http://www.w3.org/1999/02/22-rdf-syntax-ns#"
   xmlns:svg="http://www.w3.org/2000/svg"
   xmlns="http://www.w3.org/2000/svg"
   xmlns:sodipodi="http://sodipodi.sourceforge.net/DTD/sodipodi-0.dtd"
   xmlns:inkscape="http://www.inkscape.org/namespaces/inkscape"
   version="1.1"
   id="body"
   width="169.29579"
   height="42.382641"
   viewBox="0 0 0.23513304 0.058864779"
   preserveAspectRatio="none"
   inkscape:version="0.48.3.1 r9886"
   sodipodi:docname="ch2-Z-G-47.svg">
  <metadata
     id="metadata57">
    <rdf:RDF>
      <cc:Work
         rdf:about="">
        <dc:format>image/svg+xml</dc:format>
        <dc:type
           rdf:resource="http://purl.org/dc/dcmitype/StillImage" />
      </cc:Work>
    </rdf:RDF>
  </metadata>
  <defs
     id="defs55" />
  <sodipodi:namedview
     pagecolor="#ffffff"
     bordercolor="#666666"
     borderopacity="1"
     objecttolerance="10"
     gridtolerance="10"
     guidetolerance="10"
     inkscape:pageopacity="0"
     inkscape:pageshadow="2"
     inkscape:window-width="640"
     inkscape:window-height="480"
     id="namedview53"
     showgrid="false"
     inkscape:zoom="0.32777778"
     inkscape:cx="382.14844"
     inkscape:cy="459.72004"
     inkscape:window-x="0"
     inkscape:window-y="24"
     inkscape:window-maximized="0"
     inkscape:current-layer="body" />
  <title
     id="title3">SVG drawing</title>
  <desc
     id="desc5">This was produced by version 4.4 of GNU libplot, a free library for exporting 2-D vector graphics.</desc>
  <g
     id="content"
     transform="matrix(0.0017361,0,0,-0.0017361,-4.8827812e-4,0.05913591)"
     xml:space="preserve"
     stroke-miterlimit="10.433"
     font-style="normal"
     font-variant="normal"
     font-weight="normal"
     font-stretch="normal"
     font-size-adjust="none"
     letter-spacing="normal"
     word-spacing="normal"
     style="font-style:normal;font-variant:normal;font-weight:normal;font-stretch:normal;letter-spacing:normal;word-spacing:normal;text-anchor:start;fill:none;stroke:#000000;stroke-linecap:butt;stroke-linejoin:miter;stroke-miterlimit:10.43299961;stroke-opacity:1;stroke-dasharray:none;stroke-dashoffset:0">
<path
   d="m 8.2734,32.734 0.0015,0.006 0.0016,0.006 0.0017,0.007 0.0017,0.006 0.0037,0.014 0.0038,0.013 0.0038,0.015 0.0039,0.014 0.0039,0.015 0.0037,0.016 0.0036,0.015 0.0033,0.016 0.003,0.015 0.0026,0.016 0.0021,0.015 0.0016,0.016 6e-4,0.007 5e-4,0.008 2e-4,0.007 10e-5,0.008 c 0,0.156 -0.1562,0.156 -0.1875,0.156 -0.0312,0 -0.7969,-0.063 -0.875,-0.078 C 6.9766,33.031 6.7422,33 6.4609,32.984 6.0547,32.953 5.9453,32.938 5.9453,32.641 c 0,-0.157 0.125,-0.157 0.3594,-0.157 0.7656,0 0.7812,-0.14 0.7812,-0.296 0,-0.094 -0.0312,-0.219 -0.0468,-0.266 L 6.0703,28.047 c -0.1719,0.422 -0.5937,1.062 -1.4219,1.062 -1.7968,0 -3.73434,-2.328 -3.73434,-4.671 0,-1.579 0.92184,-2.5 2.00004,-2.5 l 0.0468,0.312 c -0.6562,0 -1.0156,0.594 -1.0156,1.531 0,0.875 0.4844,2.657 0.7969,3.313 0.5312,1.125 1.2812,1.687 1.9062,1.687 1.0469,0 1.25,-1.297 1.25,-1.422 0,-0.015 -0.0468,-0.234 -0.0625,-0.265 L 5.0547,23.984 C 4.9766,23.719 4.9766,23.688 4.7578,23.375 4.3984,22.938 3.7109,22.25 2.9609,22.25 L 2.9141,21.938 c 0.875,0 1.625,0.687 2.0625,1.203 0.1562,-0.938 0.9062,-1.203 1.3906,-1.203 0.4687,0 0.8594,0.281 1.1406,0.859 0.25,0.531 0.4688,1.5 0.4688,1.562 0,0.094 -0.0625,0.157 -0.1563,0.157 -0.1406,0 -0.1562,-0.078 -0.2187,-0.328 C 7.3672,23.25 7.0547,22.25 6.4141,22.25 c -0.4688,0 -0.5,0.422 -0.5,0.734 0,0.063 0,0.391 0.1093,0.844 z"
   id="path9"
   inkscape:connector-curvature="0"
   style="fill:#000000;stroke-width:0" />
<path
   d="m 13.559,18.234 0,0.009 -10e-4,0.009 0,0.004 -10e-4,0.005 -0.001,0.005 -0.002,0.004 -0.002,0.006 -0.002,0.005 -0.003,0.006 -0.003,0.007 -0.004,0.007 -0.005,0.007 -0.005,0.008 -0.007,0.008 -0.007,0.009 -0.007,0.01 -0.009,0.011 -0.01,0.011 -0.005,0.006 -0.006,0.006 -0.006,0.007 -0.006,0.006 -0.006,0.007 -0.007,0.007 -0.007,0.007 -0.007,0.008 -0.008,0.008 -0.008,0.008 -0.008,0.008 -0.008,0.009 -0.009,0.009 -0.009,0.009 -0.01,0.009 -0.01,0.01 -0.01,0.01 -0.011,0.01 -0.011,0.011 -0.011,0.011 -0.012,0.011 -0.012,0.012 -0.013,0.012 -0.013,0.012 c -1.578,1.61 -2.468,4.234 -2.468,7.469 0,3.094 0.734,5.734 2.578,7.625 0.172,0.14 0.172,0.172 0.172,0.219 0,0.093 -0.078,0.125 -0.157,0.125 -0.203,0 -1.5,-1.141 -2.281,-2.704 C 10.309,29.703 9.9492,28 9.9492,26.047 c 0,-1.406 0.2188,-3.297 1.0468,-5 0.938,-1.906 2.235,-2.938 2.406,-2.938 0.079,0 0.157,0.032 0.157,0.125 z"
   id="path11"
   inkscape:connector-curvature="0"
   style="fill:#000000;stroke-width:0" />
<path
   d="m 19.879,23.016 0.01,-0.042 0.011,-0.04 0.023,-0.077 0.027,-0.074 0.03,-0.069 0.032,-0.066 0.034,-0.063 0.037,-0.058 0.039,-0.056 0.041,-0.051 0.042,-0.049 0.044,-0.046 0.045,-0.042 0.047,-0.039 0.048,-0.037 0.048,-0.033 0.049,-0.031 0.05,-0.029 0.05,-0.026 0.05,-0.023 0.05,-0.021 0.05,-0.019 0.05,-0.017 0.049,-0.015 0.048,-0.012 0.047,-0.011 0.047,-0.009 0.045,-0.008 0.044,-0.006 0.042,-0.004 0.04,-0.003 0.038,-0.002 0.037,0 c 0.515,0 0.89,0.328 1.156,0.874 0.266,0.563 0.469,1.5 0.469,1.547 0,0.094 -0.063,0.157 -0.157,0.157 -0.14,0 -0.156,-0.078 -0.218,-0.328 -0.297,-1.094 -0.578,-1.938 -1.219,-1.938 -0.469,0 -0.469,0.531 -0.469,0.734 0,0.36 0.047,0.532 0.203,1.188 0.11,0.437 0.219,0.859 0.313,1.312 l 0.656,2.578 c 0.109,0.407 0.109,0.438 0.109,0.485 0,0.234 -0.187,0.391 -0.421,0.391 -0.469,0 -0.579,-0.391 -0.672,-0.782 -0.157,-0.625 -1.016,-4.047 -1.125,-4.594 -0.016,0 -0.641,-1.312 -1.797,-1.312 -0.828,0 -0.985,0.719 -0.985,1.312 0,0.907 0.438,2.172 0.86,3.235 0.187,0.515 0.265,0.719 0.265,1.031 0,0.688 -0.484,1.281 -1.25,1.281 -1.468,0 -2.062,-2.312 -2.062,-2.437 0,-0.063 0.078,-0.141 0.187,-0.141 0.141,0 0.157,0.063 0.219,0.281 0.375,1.376 1,1.969 1.61,1.969 0.156,0 0.406,-0.015 0.406,-0.515 0,-0.422 -0.172,-0.875 -0.406,-1.485 -0.704,-1.89 -0.782,-2.5 -0.782,-2.969 0,-1.624 1.219,-1.874 1.875,-1.874 1.016,0 1.578,0.703 1.891,1.078 z"
   id="path13"
   inkscape:connector-curvature="0"
   style="fill:#000000;stroke-width:0" />
<path
   d="m 33.227,25.766 h 4.39 c 0.219,0 0.5,0 0.5,0.281 0,0.312 -0.265,0.312 -0.5,0.312 h -4.39 v 4.375 c 0,0.235 0,0.516 -0.282,0.516 -0.312,0 -0.312,-0.266 -0.312,-0.516 v -4.375 h -4.391 c -0.219,0 -0.5,0 -0.5,-0.297 0,-0.296 0.266,-0.296 0.5,-0.296 h 4.391 v -4.391 c 0,-0.219 0,-0.5 0.297,-0.5 0.297,0 0.297,0.266 0.297,0.5 z"
   id="path15"
   inkscape:connector-curvature="0"
   style="fill:#000000;stroke-width:0" />
<path
   d="m 49.828,28.031 0,0.047 -0.001,0.046 -0.002,0.044 -0.003,0.043 -0.003,0.041 -0.004,0.04 -0.004,0.039 -0.005,0.038 -0.006,0.037 -0.006,0.035 -0.007,0.034 -0.007,0.033 -0.008,0.032 -0.008,0.03 -0.009,0.03 -0.009,0.028 -0.01,0.028 -0.01,0.026 -0.011,0.025 -0.01,0.024 -0.011,0.024 -0.012,0.022 -0.012,0.021 -0.012,0.021 -0.012,0.019 -0.012,0.019 -0.026,0.035 -0.026,0.031 -0.027,0.028 -0.028,0.025 -0.027,0.023 -0.028,0.02 -0.027,0.017 -0.027,0.015 -0.027,0.013 -0.026,0.011 -0.025,0.009 -0.024,0.007 -0.023,0.006 -0.022,0.004 -0.02,0.004 -0.019,0.002 -0.017,0.001 -0.015,0.001 -0.012,0 c -0.376,0 -0.735,-0.39 -0.735,-0.703 0,-0.187 0.125,-0.297 0.188,-0.375 0.156,-0.14 0.562,-0.562 0.562,-1.39 0,-0.672 -0.953,-4.391 -2.859,-4.391 -0.969,0 -1.156,0.812 -1.156,1.406 0,0.797 0.359,1.906 0.796,3.047 0.25,0.656 0.313,0.813 0.313,1.125 0,0.672 -0.469,1.281 -1.25,1.281 -1.469,0 -2.063,-2.312 -2.063,-2.437 0,-0.063 0.078,-0.141 0.188,-0.141 0.14,0 0.156,0.063 0.219,0.281 0.375,1.376 1,1.969 1.609,1.969 0.141,0 0.406,0 0.406,-0.515 0,-0.422 -0.172,-0.875 -0.406,-1.485 -0.766,-2.031 -0.766,-2.531 -0.766,-2.906 0,-0.344 0.047,-1 0.532,-1.453 0.578,-0.484 1.375,-0.484 1.515,-0.484 2.641,0 3.547,5.187 3.547,6.093 z"
   id="path17"
   inkscape:connector-curvature="0"
   style="fill:#000000;stroke-width:0" />
<path
   d="m 55.164,26.047 0,0.116 -0.002,0.121 -0.002,0.125 -0.004,0.128 -0.006,0.133 -0.006,0.136 -0.018,0.282 -0.025,0.294 -0.033,0.306 -0.042,0.316 -0.051,0.324 -0.062,0.332 -0.073,0.337 -0.085,0.343 -0.098,0.346 -0.112,0.348 -0.062,0.174 -0.065,0.175 -0.069,0.174 -0.073,0.174 -0.077,0.174 -0.082,0.173 c -0.937,1.906 -2.25,2.938 -2.422,2.938 -0.062,0 -0.14,-0.032 -0.14,-0.125 0,-0.047 0,-0.079 0.265,-0.36 1.594,-1.593 2.485,-4.219 2.485,-7.469 0,-3.078 -0.75,-5.734 -2.594,-7.609 -0.156,-0.141 -0.156,-0.172 -0.156,-0.219 0,-0.093 0.078,-0.125 0.14,-0.125 0.203,0 1.516,1.141 2.297,2.703 0.797,1.61 1.172,3.329 1.172,5.235 z"
   id="path19"
   inkscape:connector-curvature="0"
   style="fill:#000000;stroke-width:0" />
<line
   x1="0.27344"
   y1="15.293"
   x2="56.75"
   y2="15.293"
   id="line21"
   style="stroke-width:0.63800001" />
<path
   d="m 28.023,11.016 0.002,0.006 0.002,0.006 10e-4,0.006 0.002,0.006 0.004,0.014 0.003,0.014 0.004,0.014 0.004,0.015 0.004,0.015 0.004,0.015 0.003,0.015 0.004,0.016 0.003,0.016 0.002,0.015 0.002,0.016 0.002,0.015 0.001,0.008 0,0.007 0,0.008 0,0.007 c 0,0.156 -0.156,0.156 -0.187,0.156 -0.031,0 -0.797,-0.062 -0.875,-0.078 -0.281,-0.016 -0.516,-0.047 -0.797,-0.062 -0.406,-0.032 -0.516,-0.047 -0.516,-0.344 0,-0.156 0.125,-0.156 0.36,-0.156 0.765,0 0.781,-0.141 0.781,-0.297 0,-0.094 -0.031,-0.219 -0.047,-0.266 L 25.82,6.3281 c -0.172,0.4219 -0.593,1.0625 -1.422,1.0625 -1.796,0 -3.734,-2.3281 -3.734,-4.6718 0,-1.5782 0.922,-2.50005 2,-2.50005 l 0.047,0.3125 c -0.656,0 -1.016,0.59375 -1.016,1.53125 0,0.875 0.485,2.6563 0.797,3.3125 0.531,1.125 1.281,1.6875 1.906,1.6875 1.047,0 1.25,-1.2969 1.25,-1.4219 0,-0.0156 -0.046,-0.2344 -0.062,-0.2656 L 24.805,2.2656 C 24.727,2 24.727,1.9688 24.508,1.6562 24.148,1.2188 23.461,0.53125 22.711,0.53125 l -0.047,-0.3125 c 0.875,0 1.625,0.6875 2.063,1.20315 0.156,-0.93752 0.906,-1.20315 1.39,-1.20315 0.469,0 0.86,0.28125 1.141,0.85935 0.25,0.5313 0.469,1.5 0.469,1.5625 0,0.0938 -0.063,0.1563 -0.157,0.1563 -0.14,0 -0.156,-0.0781 -0.218,-0.3281 -0.235,-0.9376 -0.547,-1.93755 -1.188,-1.93755 -0.469,0 -0.5,0.42187 -0.5,0.73435 0,0.0625 0,0.3906 0.109,0.8438 z"
   id="path23"
   inkscape:connector-curvature="0"
   style="fill:#000000;stroke-width:0" />
<path
   d="M 35.66,6.8594 35.614,6.8498 35.57,6.8386 35.527,6.8259 35.486,6.8117 35.447,6.7961 35.41,6.7792 35.374,6.7611 35.339,6.7417 35.307,6.7212 35.276,6.6996 35.246,6.677 35.218,6.6534 35.191,6.6289 35.167,6.6036 35.143,6.5775 35.121,6.5508 35.101,6.5234 35.082,6.4954 35.064,6.4669 35.048,6.4379 35.033,6.4086 35.019,6.3789 35.007,6.349 34.997,6.3188 34.987,6.2886 34.979,6.2582 34.972,6.2279 34.967,6.1976 34.962,6.1674 34.959,6.1374 34.958,6.1076 34.957,6.0781 c 0,-0.375 0.313,-0.5 0.531,-0.5 0.469,0 0.813,0.4063 0.813,0.8438 0,0.6562 -0.766,0.9687 -1.438,0.9687 -0.968,0 -1.5,-0.9531 -1.64,-1.2656 -0.375,1.2031 -1.36,1.2656 -1.641,1.2656 -1.625,0 -2.484,-2.0937 -2.484,-2.4375 0,-0.0625 0.062,-0.1406 0.172,-0.1406 0.125,0 0.156,0.0937 0.187,0.1563 0.547,1.7656 1.609,2.0937 2.078,2.0937 0.703,0 0.86,-0.6563 0.86,-1.0469 0,-0.3437 -0.094,-0.7187 -0.297,-1.4687 L 31.566,2.3594 C 31.316,1.4062 30.863,0.53125 30.02,0.53125 c -0.079,0 -0.469,0 -0.813,0.20313 0.578,0.125 0.703,0.59372 0.703,0.78122 0,0.3282 -0.234,0.5156 -0.547,0.5156 -0.375,0 -0.797,-0.3437 -0.797,-0.8437 0,-0.67188 0.75,-0.96875 1.438,-0.96875 0.766,0 1.297,0.59375 1.641,1.25005 0.25,-0.93755 1.046,-1.25005 1.64,-1.25005 1.61,0 2.469,2.07815 2.469,2.42185 0,0.0938 -0.063,0.1563 -0.156,0.1563 -0.141,0 -0.157,-0.0781 -0.203,-0.2188 -0.438,-1.3906 -1.36,-2.04685 -2.063,-2.04685 -0.562,0 -0.859,0.42187 -0.859,1.06255 0,0.3593 0.062,0.6093 0.312,1.6562 l 0.563,2.1562 c 0.234,0.9532 0.765,1.6563 1.5,1.6563 0.031,0 0.484,0 0.812,-0.2031 z"
   id="path25"
   inkscape:connector-curvature="0"
   style="fill:#000000;stroke-width:0" />
<path
   d="m 73.105,16.465 0.042,0 0.043,0 0.043,0.002 0.021,0.001 0.022,0.001 0.021,0.002 0.021,0.002 0.021,0.003 0.021,0.004 0.02,0.004 0.02,0.004 0.019,0.006 0.019,0.006 0.017,0.007 0.018,0.008 0.016,0.009 0.016,0.009 0.015,0.011 0.014,0.012 0.012,0.013 0.012,0.014 0.006,0.008 0.005,0.008 0.005,0.008 0.004,0.009 0.004,0.009 0.004,0.009 0.004,0.009 0.003,0.01 0.003,0.011 0.002,0.01 0.003,0.011 0.001,0.012 0.002,0.011 0.001,0.013 0,0.012 0,0.013 c 0,0.297 -0.265,0.297 -0.5,0.297 H 63.73 c -0.218,0 -0.5,0 -0.5,-0.281 0,-0.297 0.266,-0.297 0.5,-0.297 z"
   id="path27"
   inkscape:connector-curvature="0"
   style="fill:#000000;stroke-width:0" />
<path
   d="m 73.105,13.496 0.042,0 0.043,10e-4 0.043,10e-4 0.021,0.001 0.022,0.002 0.021,0.002 0.021,0.002 0.021,0.003 0.021,0.004 0.02,0.004 0.02,0.005 0.019,0.006 0.019,0.006 0.017,0.008 0.018,0.008 0.016,0.009 0.016,0.011 0.015,0.011 0.014,0.013 0.012,0.013 0.012,0.015 0.006,0.008 0.005,0.009 0.005,0.008 0.004,0.009 0.004,0.01 0.004,0.009 0.004,0.011 0.003,0.01 0.003,0.011 0.002,0.011 0.003,0.012 0.001,0.012 0.002,0.012 0.001,0.013 0,0.013 0,0.014 c 0,0.297 -0.265,0.297 -0.5,0.297 H 63.73 c -0.218,0 -0.5,0 -0.5,-0.281 0,-0.313 0.266,-0.313 0.5,-0.313 z"
   id="path29"
   inkscape:connector-curvature="0"
   style="fill:#000000;stroke-width:0" />
<path
   d="m 88.137,32.734 0.001,0.006 0.002,0.006 0.001,0.007 0.002,0.006 0.004,0.014 0.004,0.013 0.003,0.015 0.004,0.014 0.004,0.015 0.004,0.016 0.004,0.015 0.003,0.016 0.003,0.015 0.002,0.016 0.003,0.015 0.001,0.016 0.001,0.007 0,0.008 10e-4,0.007 0,0.008 c 0,0.156 -0.157,0.156 -0.188,0.156 -0.031,0 -0.797,-0.063 -0.875,-0.078 C 86.84,33.031 86.605,33 86.324,32.984 c -0.406,-0.031 -0.515,-0.046 -0.515,-0.343 0,-0.157 0.125,-0.157 0.359,-0.157 0.766,0 0.781,-0.14 0.781,-0.296 0,-0.094 -0.031,-0.219 -0.047,-0.266 l -0.968,-3.875 c -0.172,0.422 -0.594,1.062 -1.422,1.062 -1.797,0 -3.735,-2.328 -3.735,-4.671 0,-1.579 0.922,-2.5 2,-2.5 l 0.047,0.312 c -0.656,0 -1.015,0.594 -1.015,1.531 0,0.875 0.484,2.657 0.796,3.313 0.532,1.125 1.282,1.687 1.907,1.687 1.047,0 1.25,-1.297 1.25,-1.422 0,-0.015 -0.047,-0.234 -0.063,-0.265 l -0.781,-3.11 C 84.84,23.719 84.84,23.688 84.621,23.375 84.262,22.938 83.574,22.25 82.824,22.25 l -0.047,-0.312 c 0.875,0 1.625,0.687 2.063,1.203 0.156,-0.938 0.906,-1.203 1.39,-1.203 0.469,0 0.86,0.281 1.141,0.859 0.25,0.531 0.469,1.5 0.469,1.562 0,0.094 -0.063,0.157 -0.156,0.157 -0.141,0 -0.157,-0.078 -0.219,-0.328 -0.235,-0.938 -0.547,-1.938 -1.188,-1.938 -0.468,0 -0.5,0.422 -0.5,0.734 0,0.063 0,0.391 0.11,0.844 z"
   id="path31"
   inkscape:connector-curvature="0"
   style="fill:#000000;stroke-width:0" />
<path
   d="m 93.664,23.016 0.01,-0.042 0.011,-0.04 0.024,-0.077 0.026,-0.074 0.03,-0.069 0.032,-0.066 0.034,-0.063 0.037,-0.058 0.039,-0.056 0.041,-0.051 0.042,-0.049 0.044,-0.046 0.046,-0.042 0.046,-0.039 0.048,-0.037 0.048,-0.033 0.049,-0.031 0.05,-0.029 0.05,-0.026 0.05,-0.023 0.05,-0.021 0.05,-0.019 0.05,-0.017 0.049,-0.015 0.048,-0.012 0.048,-0.011 0.046,-0.009 0.045,-0.008 0.044,-0.006 0.042,-0.004 0.04,-0.003 0.039,-0.002 0.036,0 c 0.515,0 0.89,0.328 1.156,0.874 0.266,0.563 0.469,1.5 0.469,1.547 0,0.094 -0.063,0.157 -0.156,0.157 -0.141,0 -0.157,-0.078 -0.219,-0.328 -0.297,-1.094 -0.578,-1.938 -1.219,-1.938 -0.469,0 -0.469,0.531 -0.469,0.734 0,0.36 0.047,0.532 0.203,1.188 0.11,0.437 0.219,0.859 0.313,1.312 l 0.656,2.578 c 0.11,0.407 0.11,0.438 0.11,0.485 0,0.234 -0.188,0.391 -0.422,0.391 -0.469,0 -0.578,-0.391 -0.672,-0.782 -0.156,-0.625 -1.016,-4.047 -1.125,-4.594 -0.016,0 -0.641,-1.312 -1.797,-1.312 -0.828,0 -0.984,0.719 -0.984,1.312 0,0.907 0.437,2.172 0.859,3.235 0.187,0.515 0.266,0.719 0.266,1.031 0,0.688 -0.485,1.281 -1.25,1.281 -1.469,0 -2.063,-2.312 -2.063,-2.437 0,-0.063 0.078,-0.141 0.188,-0.141 0.14,0 0.156,0.063 0.218,0.281 0.375,1.376 1,1.969 1.61,1.969 0.156,0 0.406,-0.015 0.406,-0.515 0,-0.422 -0.172,-0.875 -0.406,-1.485 -0.703,-1.89 -0.782,-2.5 -0.782,-2.969 0,-1.624 1.219,-1.874 1.875,-1.874 1.016,0 1.579,0.703 1.891,1.078 z"
   id="path33"
   inkscape:connector-curvature="0"
   style="fill:#000000;stroke-width:0" />
<line
   x1="80.137001"
   y1="15.293"
   x2="97.128998"
   y2="15.293"
   id="line35"
   style="stroke-width:0.63800001" />
<path
   d="m 88.145,11.016 0.001,0.006 0.002,0.006 0.001,0.006 0.002,0.006 0.004,0.014 0.003,0.014 0.004,0.014 0.004,0.015 0.004,0.015 0.004,0.015 0.003,0.015 0.004,0.016 0.003,0.016 0.002,0.015 0.002,0.016 0.002,0.015 0.001,0.008 0,0.007 0,0.008 0,0.007 c 0,0.156 -0.156,0.156 -0.187,0.156 -0.031,0 -0.797,-0.062 -0.875,-0.078 -0.281,-0.016 -0.516,-0.047 -0.797,-0.062 -0.406,-0.032 -0.516,-0.047 -0.516,-0.344 0,-0.156 0.125,-0.156 0.36,-0.156 0.765,0 0.781,-0.141 0.781,-0.297 0,-0.094 -0.031,-0.219 -0.047,-0.266 L 85.941,6.3281 C 85.77,6.75 85.348,7.3906 84.52,7.3906 c -1.797,0 -3.735,-2.3281 -3.735,-4.6718 0,-1.5782 0.922,-2.50005 2,-2.50005 l 0.047,0.3125 c -0.656,0 -1.016,0.59375 -1.016,1.53125 0,0.875 0.485,2.6563 0.797,3.3125 0.532,1.125 1.282,1.6875 1.907,1.6875 1.046,0 1.25,-1.2969 1.25,-1.4219 0,-0.0156 -0.047,-0.2344 -0.063,-0.2656 L 84.926,2.2656 C 84.848,2 84.848,1.9688 84.629,1.6562 84.27,1.2188 83.582,0.53125 82.832,0.53125 l -0.047,-0.3125 c 0.875,0 1.625,0.6875 2.063,1.20315 0.156,-0.93752 0.906,-1.20315 1.39,-1.20315 0.469,0 0.86,0.28125 1.141,0.85935 0.25,0.5313 0.469,1.5 0.469,1.5625 0,0.0938 -0.063,0.1563 -0.157,0.1563 -0.14,0 -0.156,-0.0781 -0.218,-0.3281 -0.235,-0.9376 -0.547,-1.93755 -1.188,-1.93755 -0.469,0 -0.5,0.42187 -0.5,0.73435 0,0.0625 0,0.3906 0.11,0.8438 z"
   id="path37"
   inkscape:connector-curvature="0"
   style="fill:#000000;stroke-width:0" />
<path
   d="M 95.781,6.8594 95.735,6.8498 95.691,6.8386 95.648,6.8259 95.607,6.8117 95.568,6.7961 95.531,6.7792 95.495,6.7611 95.46,6.7417 95.428,6.7212 95.397,6.6996 95.367,6.677 95.339,6.6534 95.313,6.6289 95.288,6.6036 95.264,6.5775 95.242,6.5508 95.222,6.5234 95.203,6.4954 95.185,6.4669 95.169,6.4379 95.154,6.4086 95.14,6.3789 95.128,6.349 95.118,6.3188 95.108,6.2886 95.1,6.2582 95.093,6.2279 95.088,6.1976 95.084,6.1674 95.081,6.1374 95.079,6.1076 95.078,6.0781 c 0,-0.375 0.313,-0.5 0.531,-0.5 0.469,0 0.813,0.4063 0.813,0.8438 0,0.6562 -0.766,0.9687 -1.438,0.9687 -0.968,0 -1.5,-0.9531 -1.64,-1.2656 -0.375,1.2031 -1.36,1.2656 -1.641,1.2656 -1.625,0 -2.484,-2.0937 -2.484,-2.4375 0,-0.0625 0.062,-0.1406 0.172,-0.1406 0.125,0 0.156,0.0937 0.187,0.1563 0.547,1.7656 1.61,2.0937 2.078,2.0937 0.703,0 0.86,-0.6563 0.86,-1.0469 0,-0.3437 -0.094,-0.7187 -0.297,-1.4687 L 91.688,2.3594 c -0.25,-0.9532 -0.704,-1.82815 -1.547,-1.82815 -0.079,0 -0.469,0 -0.813,0.20313 0.578,0.125 0.703,0.59372 0.703,0.78122 0,0.3282 -0.234,0.5156 -0.547,0.5156 -0.375,0 -0.796,-0.3437 -0.796,-0.8437 0,-0.67188 0.75,-0.96875 1.437,-0.96875 0.766,0 1.297,0.59375 1.641,1.25005 0.25,-0.93755 1.046,-1.25005 1.64,-1.25005 1.61,0 2.469,2.07815 2.469,2.42185 0,0.0938 -0.063,0.1563 -0.156,0.1563 -0.141,0 -0.157,-0.0781 -0.203,-0.2188 -0.438,-1.3906 -1.36,-2.04685 -2.063,-2.04685 -0.562,0 -0.859,0.42187 -0.859,1.06255 0,0.3593 0.062,0.6093 0.312,1.6562 l 0.563,2.1562 c 0.234,0.9532 0.765,1.6563 1.5,1.6563 0.031,0 0.484,0 0.812,-0.2031 z"
   id="path39"
   inkscape:connector-curvature="0"
   style="fill:#000000;stroke-width:0" />
<path
   d="m 108.21,14.981 h 4.39 c 0.22,0 0.5,0 0.5,0.281 0,0.312 -0.26,0.312 -0.5,0.312 h -4.39 v 4.375 c 0,0.235 0,0.516 -0.28,0.516 -0.31,0 -0.31,-0.266 -0.31,-0.516 v -4.375 h -4.39 c -0.22,0 -0.5,0 -0.5,-0.297 0,-0.296 0.26,-0.296 0.5,-0.296 h 4.39 V 10.59 c 0,-0.219 0,-0.5 0.29,-0.5 0.3,0 0.3,0.266 0.3,0.5 z"
   id="path41"
   inkscape:connector-curvature="0"
   style="fill:#000000;stroke-width:0" />
<path
   d="m 127.12,32.734 0,0.006 0,0.006 0.01,0.007 0,0.006 0,0.014 0.01,0.013 0,0.015 0,0.014 0.01,0.015 0,0.016 0,0.015 0.01,0.016 0,0.015 0,0.016 0.01,0.015 0,0.016 0,0.007 0,0.008 0,0.007 0,0.008 c 0,0.156 -0.16,0.156 -0.19,0.156 -0.03,0 -0.8,-0.063 -0.87,-0.078 -0.29,-0.016 -0.52,-0.047 -0.8,-0.063 -0.41,-0.031 -0.52,-0.046 -0.52,-0.343 0,-0.157 0.13,-0.157 0.36,-0.157 0.77,0 0.78,-0.14 0.78,-0.296 0,-0.094 -0.03,-0.219 -0.04,-0.266 l -0.97,-3.875 c -0.17,0.422 -0.6,1.062 -1.42,1.062 -1.8,0 -3.74,-2.328 -3.74,-4.671 0,-1.579 0.92,-2.5 2,-2.5 l 0.05,0.312 c -0.66,0 -1.02,0.594 -1.02,1.531 0,0.875 0.49,2.657 0.8,3.313 0.53,1.125 1.28,1.687 1.91,1.687 1.04,0 1.25,-1.297 1.25,-1.422 0,-0.015 -0.05,-0.234 -0.07,-0.265 l -0.78,-3.11 c -0.08,-0.265 -0.08,-0.296 -0.29,-0.609 -0.36,-0.437 -1.05,-1.125 -1.8,-1.125 l -0.05,-0.312 c 0.88,0 1.63,0.687 2.06,1.203 0.16,-0.938 0.91,-1.203 1.39,-1.203 0.47,0 0.86,0.281 1.15,0.859 0.25,0.531 0.46,1.5 0.46,1.562 0,0.094 -0.06,0.157 -0.15,0.157 -0.14,0 -0.16,-0.078 -0.22,-0.328 -0.24,-0.938 -0.55,-1.938 -1.19,-1.938 -0.47,0 -0.5,0.422 -0.5,0.734 0,0.063 0,0.391 0.11,0.844 z"
   id="path43"
   inkscape:connector-curvature="0"
   style="fill:#000000;stroke-width:0" />
<path
   d="m 134.49,28.031 0,0.047 0,0.046 0,0.044 0,0.043 -0.01,0.041 0,0.04 -0.01,0.039 0,0.038 -0.01,0.037 0,0.035 -0.01,0.034 -0.01,0.033 0,0.032 -0.01,0.03 -0.01,0.03 -0.01,0.028 -0.01,0.028 -0.01,0.026 -0.01,0.025 -0.01,0.024 -0.01,0.024 -0.01,0.022 -0.02,0.021 -0.01,0.021 -0.01,0.019 -0.01,0.019 -0.03,0.035 -0.02,0.031 -0.03,0.028 -0.03,0.025 -0.03,0.023 -0.02,0.02 -0.03,0.017 -0.03,0.015 -0.02,0.013 -0.03,0.011 -0.03,0.009 -0.02,0.007 -0.02,0.006 -0.02,0.004 -0.02,0.004 -0.02,0.002 -0.02,0.001 -0.02,0.001 -0.01,0 c -0.37,0 -0.73,-0.39 -0.73,-0.703 0,-0.187 0.12,-0.297 0.18,-0.375 0.16,-0.14 0.57,-0.562 0.57,-1.39 0,-0.672 -0.96,-4.391 -2.86,-4.391 -0.97,0 -1.16,0.812 -1.16,1.406 0,0.797 0.36,1.906 0.8,3.047 0.25,0.656 0.31,0.813 0.31,1.125 0,0.672 -0.47,1.281 -1.25,1.281 -1.47,0 -2.06,-2.312 -2.06,-2.437 0,-0.063 0.08,-0.141 0.19,-0.141 0.14,0 0.15,0.063 0.21,0.281 0.38,1.376 1,1.969 1.61,1.969 0.14,0 0.41,0 0.41,-0.515 0,-0.422 -0.17,-0.875 -0.41,-1.485 -0.76,-2.031 -0.76,-2.531 -0.76,-2.906 0,-0.344 0.05,-1 0.53,-1.453 0.58,-0.484 1.37,-0.484 1.52,-0.484 2.64,0 3.54,5.187 3.54,6.093 z"
   id="path45"
   inkscape:connector-curvature="0"
   style="fill:#000000;stroke-width:0" />
<line
   x1="118.75"
   y1="15.293"
   x2="135.73"
   y2="15.293"
   id="line47"
   style="stroke-width:0.63800001" />
<path
   d="m 126.75,11.016 0,0.006 0,0.006 0,0.006 0,0.006 0.01,0.014 0,0.014 0,0.014 0.01,0.015 0,0.015 0.01,0.015 0,0.015 0,0.016 0.01,0.016 0,0.015 0,0.016 0,0.015 0,0.008 0,0.007 0,0.008 0,0.007 c 0,0.156 -0.15,0.156 -0.18,0.156 -0.04,0 -0.8,-0.062 -0.88,-0.078 -0.28,-0.016 -0.52,-0.047 -0.8,-0.062 -0.4,-0.032 -0.51,-0.047 -0.51,-0.344 0,-0.156 0.12,-0.156 0.36,-0.156 0.76,0 0.78,-0.141 0.78,-0.297 0,-0.094 -0.03,-0.219 -0.05,-0.266 l -0.97,-3.8749 c -0.17,0.4219 -0.59,1.0625 -1.42,1.0625 -1.8,0 -3.73,-2.3281 -3.73,-4.6718 0,-1.5782 0.92,-2.50005 2,-2.50005 l 0.04,0.3125 c -0.65,0 -1.01,0.59375 -1.01,1.53125 0,0.875 0.48,2.6563 0.79,3.3125 0.54,1.125 1.29,1.6875 1.91,1.6875 1.05,0 1.25,-1.2969 1.25,-1.4219 0,-0.0156 -0.05,-0.2344 -0.06,-0.2656 L 123.53,2.2656 C 123.45,2 123.45,1.9688 123.23,1.6562 122.87,1.2188 122.18,0.53125 121.43,0.53125 l -0.04,-0.3125 c 0.87,0 1.62,0.6875 2.06,1.20315 0.16,-0.93752 0.91,-1.20315 1.39,-1.20315 0.47,0 0.86,0.28125 1.14,0.85935 0.25,0.5313 0.47,1.5 0.47,1.5625 0,0.0938 -0.06,0.1563 -0.16,0.1563 -0.14,0 -0.15,-0.0781 -0.22,-0.3281 -0.23,-0.9376 -0.54,-1.93755 -1.18,-1.93755 -0.47,0 -0.5,0.42187 -0.5,0.73435 0,0.0625 0,0.3906 0.11,0.8438 z"
   id="path49"
   inkscape:connector-curvature="0"
   style="fill:#000000;stroke-width:0" />
<path
   d="M 134.38,6.8594 134.34,6.8498 134.29,6.8386 134.25,6.8259 134.21,6.8117 134.17,6.7961 134.13,6.7792 134.1,6.7611 134.06,6.7417 134.03,6.7212 134,6.6996 133.97,6.677 133.94,6.6534 133.91,6.6289 133.89,6.6036 133.87,6.5775 133.84,6.5508 133.82,6.5234 133.8,6.4954 133.79,6.4669 133.77,6.4379 133.76,6.4086 133.74,6.3789 133.73,6.349 133.72,6.3188 133.71,6.2886 133.7,6.2582 l 0,-0.0303 -0.01,-0.0303 0,-0.0302 -0.01,-0.03 0,-0.0298 0,-0.0295 c 0,-0.375 0.31,-0.5 0.53,-0.5 0.47,0 0.81,0.4063 0.81,0.8438 0,0.6562 -0.76,0.9687 -1.43,0.9687 -0.97,0 -1.5,-0.9531 -1.64,-1.2656 -0.38,1.2031 -1.36,1.2656 -1.65,1.2656 -1.62,0 -2.48,-2.0937 -2.48,-2.4375 0,-0.0625 0.06,-0.1406 0.17,-0.1406 0.13,0 0.16,0.0937 0.19,0.1563 0.55,1.7656 1.61,2.0937 2.08,2.0937 0.7,0 0.86,-0.6563 0.86,-1.0469 0,-0.3437 -0.1,-0.7187 -0.3,-1.4687 l -0.53,-2.1875 c -0.25,-0.9532 -0.7,-1.82815 -1.55,-1.82815 -0.08,0 -0.47,0 -0.81,0.20313 0.58,0.125 0.7,0.59372 0.7,0.78122 0,0.3282 -0.23,0.5156 -0.54,0.5156 -0.38,0 -0.8,-0.3437 -0.8,-0.8437 0,-0.67188 0.75,-0.96875 1.44,-0.96875 0.76,0 1.29,0.59375 1.64,1.25005 0.25,-0.93755 1.04,-1.25005 1.64,-1.25005 1.61,0 2.47,2.07815 2.47,2.42185 0,0.0938 -0.07,0.1563 -0.16,0.1563 -0.14,0 -0.16,-0.0781 -0.2,-0.2188 -0.44,-1.3906 -1.36,-2.04685 -2.07,-2.04685 -0.56,0 -0.85,0.42187 -0.85,1.06255 0,0.3593 0.06,0.6093 0.31,1.6562 l 0.56,2.1562 c 0.23,0.9532 0.77,1.6563 1.5,1.6563 0.03,0 0.48,0 0.81,-0.2031 z"
   id="path51"
   inkscape:connector-curvature="0"
   style="fill:#000000;stroke-width:0" />
</g></svg>
