<?xml version="1.0" encoding="UTF-8" standalone="no"?>
<svg
   xmlns:dc="http://purl.org/dc/elements/1.1/"
   xmlns:cc="http://creativecommons.org/ns#"
   xmlns:rdf="http://www.w3.org/1999/02/22-rdf-syntax-ns#"
   xmlns:svg="http://www.w3.org/2000/svg"
   xmlns="http://www.w3.org/2000/svg"
   xmlns:sodipodi="http://sodipodi.sourceforge.net/DTD/sodipodi-0.dtd"
   xmlns:inkscape="http://www.inkscape.org/namespaces/inkscape"
   version="1.1"
   id="body"
   width="175.46762"
   height="47.803802"
   viewBox="0 0 0.24370503 0.06639417"
   preserveAspectRatio="none"
   inkscape:version="0.48.3.1 r9886"
   sodipodi:docname="ch2-Z-G-50.svg">
  <metadata
     id="metadata57">
    <rdf:RDF>
      <cc:Work
         rdf:about="">
        <dc:format>image/svg+xml</dc:format>
        <dc:type
           rdf:resource="http://purl.org/dc/dcmitype/StillImage" />
      </cc:Work>
    </rdf:RDF>
  </metadata>
  <defs
     id="defs55" />
  <sodipodi:namedview
     pagecolor="#ffffff"
     bordercolor="#666666"
     borderopacity="1"
     objecttolerance="10"
     gridtolerance="10"
     guidetolerance="10"
     inkscape:pageopacity="0"
     inkscape:pageshadow="2"
     inkscape:window-width="640"
     inkscape:window-height="480"
     id="namedview53"
     showgrid="false"
     inkscape:zoom="0.32777778"
     inkscape:cx="381.56251"
     inkscape:cy="458.83842"
     inkscape:window-x="0"
     inkscape:window-y="24"
     inkscape:window-maximized="0"
     inkscape:current-layer="body" />
  <title
     id="title3">SVG drawing</title>
  <desc
     id="desc5">This was produced by version 4.4 of GNU libplot, a free library for exporting 2-D vector graphics.</desc>
  <g
     id="content"
     transform="matrix(0.0017361,0,0,-0.0017361,-0.00130208,0.06788977)"
     xml:space="preserve"
     stroke-miterlimit="10.433"
     font-style="normal"
     font-variant="normal"
     font-weight="normal"
     font-stretch="normal"
     font-size-adjust="none"
     letter-spacing="normal"
     word-spacing="normal"
     style="font-style:normal;font-variant:normal;font-weight:normal;font-stretch:normal;letter-spacing:normal;word-spacing:normal;text-anchor:start;fill:none;stroke:#000000;stroke-linecap:butt;stroke-linejoin:miter;stroke-miterlimit:10.43299961;stroke-opacity:1;stroke-dasharray:none;stroke-dashoffset:0">
<path
   d="m 8.7578,37.359 0.0015,0.006 0.0016,0.006 0.0017,0.007 0.0017,0.006 0.0036,0.014 0.0038,0.013 0.0039,0.015 0.0039,0.014 0.0039,0.015 0.0037,0.016 0.0036,0.015 0.0033,0.016 0.003,0.015 0.0026,0.016 0.0021,0.015 0.0016,0.016 6e-4,0.007 4e-4,0.008 3e-4,0.007 10e-5,0.008 c 0,0.156 -0.1563,0.156 -0.1875,0.156 -0.0313,0 -0.7969,-0.062 -0.875,-0.078 C 7.4609,37.656 7.2266,37.625 6.9453,37.609 6.5391,37.578 6.4297,37.562 6.4297,37.266 c 0,-0.157 0.125,-0.157 0.3594,-0.157 0.7656,0 0.7812,-0.14 0.7812,-0.297 0,-0.093 -0.0312,-0.218 -0.0469,-0.265 L 6.5547,32.672 c -0.1719,0.422 -0.5938,1.062 -1.4219,1.062 -1.7969,0 -3.7344,-2.328 -3.7344,-4.672 0,-1.578 0.9219,-2.5 2,-2.5 l 0.0469,0.313 c -0.6562,0 -1.0156,0.594 -1.0156,1.531 0,0.875 0.4844,2.656 0.7969,3.313 0.5312,1.125 1.2812,1.687 1.9062,1.687 1.0469,0 1.25,-1.297 1.25,-1.422 0,-0.015 -0.0469,-0.234 -0.0625,-0.265 L 5.5391,28.609 C 5.4609,28.344 5.4609,28.312 5.2422,28 4.8828,27.562 4.1953,26.875 3.4453,26.875 L 3.3984,26.562 c 0.875,0 1.625,0.688 2.0625,1.204 0.1563,-0.938 0.9063,-1.204 1.3907,-1.204 0.4687,0 0.8593,0.282 1.1406,0.86 0.25,0.531 0.4687,1.5 0.4687,1.562 0,0.094 -0.0625,0.157 -0.1562,0.157 -0.1406,0 -0.1563,-0.079 -0.2188,-0.329 -0.2343,-0.937 -0.5468,-1.937 -1.1875,-1.937 -0.4687,0 -0.5,0.422 -0.5,0.734 0,0.063 0,0.391 0.1094,0.844 z"
   id="path9"
   inkscape:connector-curvature="0"
   style="fill:#000000;stroke-width:0" />
<path
   d="m 14.039,22.859 0,0.009 0,0.009 -10e-4,0.004 -10e-4,0.005 -0.001,0.005 -10e-4,0.004 -0.002,0.006 -0.002,0.005 -0.003,0.006 -0.004,0.007 -0.004,0.007 -0.004,0.007 -0.006,0.008 -0.006,0.008 -0.007,0.009 -0.008,0.01 -0.009,0.011 -0.01,0.011 -0.005,0.006 -0.005,0.006 -0.006,0.007 -0.006,0.006 -0.007,0.007 -0.006,0.007 -0.007,0.007 -0.008,0.008 -0.007,0.008 -0.008,0.008 -0.008,0.008 -0.009,0.009 -0.009,0.009 -0.009,0.009 -0.009,0.009 -0.01,0.01 -0.011,0.01 -0.01,0.01 -0.011,0.011 -0.012,0.011 -0.011,0.011 -0.013,0.012 -0.012,0.012 -0.013,0.012 c -1.578,1.609 -2.469,4.235 -2.469,7.469 0,3.094 0.734,5.734 2.578,7.625 0.172,0.141 0.172,0.172 0.172,0.219 0,0.093 -0.078,0.125 -0.156,0.125 -0.203,0 -1.5,-1.141 -2.281,-2.703 -0.813,-1.61 -1.172,-3.313 -1.172,-5.266 0,-1.406 0.218,-3.297 1.047,-5 0.937,-1.906 2.234,-2.938 2.406,-2.938 0.078,0 0.156,0.032 0.156,0.125 z"
   id="path11"
   inkscape:connector-curvature="0"
   style="fill:#000000;stroke-width:0" />
<path
   d="m 20.359,27.641 0.01,-0.042 0.011,-0.04 0.024,-0.077 0.027,-0.074 0.029,-0.069 0.032,-0.066 0.035,-0.063 0.036,-0.058 0.039,-0.056 0.041,-0.051 0.043,-0.049 0.044,-0.046 0.045,-0.042 0.047,-0.039 0.047,-0.037 0.049,-0.033 0.049,-0.031 0.049,-0.029 0.05,-0.026 0.051,-0.023 0.05,-0.021 0.05,-0.019 0.049,-0.017 0.049,-0.015 0.049,-0.012 0.047,-0.011 0.046,-0.009 0.045,-0.008 0.044,-0.006 0.042,-0.004 0.04,-0.003 0.039,-0.002 0.036,-10e-4 c 0.516,0 0.891,0.329 1.156,0.876 0.266,0.562 0.469,1.5 0.469,1.546 0,0.094 -0.062,0.157 -0.156,0.157 -0.141,0 -0.156,-0.079 -0.219,-0.329 -0.297,-1.093 -0.578,-1.937 -1.219,-1.937 -0.468,0 -0.468,0.531 -0.468,0.734 0,0.36 0.046,0.532 0.203,1.188 0.109,0.437 0.219,0.859 0.312,1.312 l 0.657,2.579 c 0.109,0.406 0.109,0.437 0.109,0.484 0,0.234 -0.188,0.39 -0.422,0.39 -0.469,0 -0.578,-0.39 -0.672,-0.781 -0.156,-0.625 -1.015,-4.047 -1.125,-4.593 -0.016,0 -0.64,-1.313 -1.797,-1.313 -0.828,0 -0.984,0.719 -0.984,1.313 0,0.906 0.437,2.171 0.859,3.234 0.188,0.516 0.266,0.719 0.266,1.031 0,0.688 -0.484,1.281 -1.25,1.281 -1.469,0 -2.063,-2.312 -2.063,-2.437 0,-0.063 0.079,-0.141 0.188,-0.141 0.141,0 0.156,0.063 0.219,0.282 0.375,1.374 1,1.968 1.609,1.968 0.156,0 0.406,-0.015 0.406,-0.515 0,-0.422 -0.172,-0.875 -0.406,-1.485 -0.703,-1.89 -0.781,-2.5 -0.781,-2.968 0,-1.626 1.218,-1.876 1.875,-1.876 1.015,0 1.578,0.704 1.89,1.079 z"
   id="path13"
   inkscape:connector-curvature="0"
   style="fill:#000000;stroke-width:0" />
<path
   d="M 24.805,33.16 24.802,33.144 24.798,33.127 24.795,33.11 24.791,33.093 24.783,33.057 24.774,33.021 24.765,32.984 24.756,32.948 24.747,32.912 24.738,32.877 24.734,32.86 24.73,32.843 l -0.004,-0.016 -0.004,-0.016 -0.004,-0.015 -0.004,-0.015 -0.003,-0.014 -0.003,-0.013 -0.003,-0.013 -0.002,-0.012 -0.002,-0.011 -0.002,-0.01 -0.002,-0.01 -10e-4,-0.008 0,-0.008 -0.001,-0.006 c 0,-0.188 0.157,-0.297 0.328,-0.297 0.141,0 0.344,0.094 0.422,0.312 0,0.032 0.141,0.547 0.203,0.829 l 0.25,1 c 0.063,0.25 0.125,0.5 0.188,0.75 0.047,0.187 0.141,0.515 0.141,0.562 0.171,0.344 0.765,1.359 1.828,1.359 0.5,0 0.593,-0.421 0.593,-0.781 0,-0.687 -0.546,-2.125 -0.718,-2.594 -0.11,-0.265 -0.11,-0.39 -0.11,-0.515 0,-0.531 0.391,-0.922 0.907,-0.922 1.046,0 1.468,1.625 1.468,1.719 0,0.109 -0.109,0.109 -0.14,0.109 -0.11,0 -0.11,-0.031 -0.172,-0.203 -0.219,-0.75 -0.578,-1.375 -1.125,-1.375 -0.203,0 -0.281,0.109 -0.281,0.359 0,0.282 0.109,0.547 0.203,0.797 0.218,0.594 0.687,1.813 0.687,2.453 0,0.75 -0.484,1.203 -1.281,1.203 -1.016,0 -1.547,-0.718 -1.75,-0.984 -0.047,0.625 -0.5,0.984 -1.016,0.984 -0.515,0 -0.734,-0.437 -0.843,-0.64 -0.172,-0.375 -0.329,-1.047 -0.329,-1.078 0,-0.125 0.11,-0.125 0.125,-0.125 0.11,0 0.125,0.015 0.188,0.265 0.203,0.797 0.422,1.328 0.828,1.328 0.219,0 0.344,-0.14 0.344,-0.515 0,-0.235 -0.031,-0.36 -0.188,-0.938 z"
   id="path15"
   inkscape:connector-curvature="0"
   style="fill:#000000;stroke-width:0" />
<path
   d="m 35.5,30.672 0,0.116 -0.002,0.121 -0.003,0.125 -0.003,0.128 -0.006,0.133 -0.006,0.136 -0.018,0.282 -0.025,0.294 -0.033,0.306 -0.042,0.316 -0.051,0.324 -0.062,0.332 -0.073,0.337 -0.085,0.343 -0.099,0.346 -0.112,0.348 -0.061,0.174 -0.065,0.175 -0.069,0.174 -0.073,0.174 -0.078,0.174 -0.081,0.173 c -0.937,1.906 -2.25,2.938 -2.422,2.938 -0.062,0 -0.14,-0.032 -0.14,-0.125 0,-0.047 0,-0.078 0.265,-0.36 1.594,-1.594 2.485,-4.218 2.485,-7.468 0,-3.079 -0.75,-5.735 -2.594,-7.61 -0.156,-0.14 -0.156,-0.172 -0.156,-0.219 0,-0.093 0.078,-0.125 0.14,-0.125 0.203,0 1.516,1.141 2.297,2.704 0.797,1.609 1.172,3.328 1.172,5.234 z"
   id="path17"
   inkscape:connector-curvature="0"
   style="fill:#000000;stroke-width:0" />
<line
   x1="0.75781"
   y1="19.917999"
   x2="37.085999"
   y2="19.917999"
   id="line19"
   style="stroke-width:0.63800001" />
<path
   d="m 18.43,15.641 0.001,0.006 0.002,0.006 0.001,0.006 0.002,0.006 0.004,0.014 0.004,0.014 0.003,0.014 0.004,0.015 0.004,0.015 0.004,0.015 0.004,0.015 0.003,0.016 0.003,0.016 0.002,0.015 0.003,0.016 0.001,0.015 10e-4,0.008 0,0.007 0.001,0.008 0,0.007 c 0,0.156 -0.157,0.156 -0.188,0.156 -0.031,0 -0.797,-0.062 -0.875,-0.078 -0.281,-0.015 -0.516,-0.047 -0.797,-0.062 -0.406,-0.032 -0.515,-0.047 -0.515,-0.344 0,-0.156 0.125,-0.156 0.359,-0.156 0.766,0 0.781,-0.141 0.781,-0.297 0,-0.094 -0.031,-0.219 -0.047,-0.266 l -0.968,-3.875 c -0.172,0.422 -0.594,1.063 -1.422,1.063 -1.797,0 -3.735,-2.3285 -3.735,-4.6722 0,-1.5782 0.922,-2.5 2,-2.5 l 0.047,0.3124 c -0.656,0 -1.015,0.5938 -1.015,1.5313 0,0.875 0.484,2.6563 0.796,3.3125 0.532,1.125 1.282,1.688 1.907,1.688 1.047,0 1.25,-1.297 1.25,-1.422 0,-0.016 -0.047,-0.235 -0.063,-0.266 L 15.211,6.8906 C 15.133,6.625 15.133,6.5938 14.914,6.2812 14.555,5.8438 13.867,5.1562 13.117,5.1562 L 13.07,4.8438 c 0.875,0 1.625,0.6874 2.063,1.2031 0.156,-0.9375 0.906,-1.2031 1.39,-1.2031 0.469,0 0.86,0.2812 1.141,0.8593 0.25,0.5313 0.469,1.5 0.469,1.5625 0,0.0938 -0.063,0.1563 -0.156,0.1563 -0.141,0 -0.157,-0.0781 -0.219,-0.3281 -0.235,-0.9376 -0.547,-1.9376 -1.188,-1.9376 -0.468,0 -0.5,0.4219 -0.5,0.7344 0,0.0625 0,0.3906 0.11,0.8438 z"
   id="path21"
   inkscape:connector-curvature="0"
   style="fill:#000000;stroke-width:0" />
<path
   d="m 26.07,11.484 -0.046,-0.009 -0.044,-0.011 -0.043,-0.013 -0.04,-0.014 -0.04,-0.016 -0.037,-0.017 -0.036,-0.018 -0.034,-0.019 -0.033,-0.021 -0.031,-0.021 -0.03,-0.023 -0.028,-0.024 -0.026,-0.024 -0.025,-0.025 -0.024,-0.026 -0.022,-0.027 -0.02,-0.028 -0.019,-0.028 -0.018,-0.028 -0.016,-0.029 -0.015,-0.029 -0.013,-0.03 -0.013,-0.03 -0.01,-0.03 -0.01,-0.03 -0.008,-0.031 -0.007,-0.03 -0.005,-0.03 -0.004,-0.031 -0.003,-0.03 -0.002,-0.029 -10e-4,-0.03 c 0,-0.375 0.313,-0.5 0.531,-0.5 0.469,0 0.813,0.406 0.813,0.844 0,0.656 -0.766,0.969 -1.438,0.969 -0.968,0 -1.5,-0.954 -1.64,-1.266 -0.375,1.203 -1.36,1.266 -1.641,1.266 -1.625,0 -2.484,-2.0941 -2.484,-2.4379 0,-0.0625 0.062,-0.1406 0.172,-0.1406 0.125,0 0.156,0.0937 0.187,0.1563 0.547,1.7652 1.61,2.0942 2.078,2.0942 0.703,0 0.86,-0.657 0.86,-1.047 0,-0.344 -0.094,-0.7191 -0.297,-1.4691 L 21.977,6.9844 C 21.727,6.0312 21.273,5.1562 20.43,5.1562 c -0.078,0 -0.469,0 -0.813,0.2032 0.578,0.125 0.703,0.5937 0.703,0.7812 0,0.3282 -0.234,0.5156 -0.547,0.5156 -0.375,0 -0.796,-0.3437 -0.796,-0.8437 0,-0.6719 0.75,-0.9687 1.437,-0.9687 0.766,0 1.297,0.5937 1.641,1.25 0.25,-0.9376 1.047,-1.25 1.64,-1.25 1.61,0 2.469,2.0781 2.469,2.4218 0,0.0938 -0.062,0.1563 -0.156,0.1563 -0.141,0 -0.156,-0.0781 -0.203,-0.2188 -0.438,-1.3906 -1.36,-2.0469 -2.063,-2.0469 -0.562,0 -0.859,0.4219 -0.859,1.0626 0,0.3593 0.062,0.6093 0.312,1.6562 l 0.563,2.156 c 0.234,0.953 0.765,1.657 1.5,1.657 0.031,0 0.484,0 0.812,-0.204 z"
   id="path23"
   inkscape:connector-curvature="0"
   style="fill:#000000;stroke-width:0" />
<path
   d="m 53.445,21.09 0.042,0 0.043,0 0.043,0.002 0.021,0.001 0.022,0.001 0.021,0.002 0.021,0.002 0.021,0.003 0.021,0.004 0.02,0.004 0.02,0.004 0.019,0.006 0.018,0.006 0.018,0.007 0.018,0.008 0.016,0.009 0.016,0.009 0.015,0.011 0.013,0.012 0.013,0.013 0.012,0.014 0.005,0.008 0.006,0.008 0.004,0.008 0.005,0.009 0.004,0.009 0.004,0.009 0.004,0.009 0.003,0.01 0.003,0.011 0.002,0.01 0.002,0.011 0.002,0.012 10e-4,0.011 0.001,0.013 10e-4,0.012 0,0.013 c 0,0.297 -0.265,0.297 -0.5,0.297 H 44.07 c -0.218,0 -0.5,0 -0.5,-0.281 0,-0.297 0.266,-0.297 0.5,-0.297 z"
   id="path25"
   inkscape:connector-curvature="0"
   style="fill:#000000;stroke-width:0" />
<path
   d="m 53.445,18.121 0.042,0 0.043,0.001 0.043,0.001 0.021,10e-4 0.022,0.002 0.021,0.002 0.021,0.002 0.021,0.003 0.021,0.004 0.02,0.004 0.02,0.005 0.019,0.006 0.018,0.006 0.018,0.008 0.018,0.008 0.016,0.009 0.016,0.011 0.015,0.011 0.013,0.013 0.013,0.013 0.012,0.015 0.005,0.008 0.006,0.009 0.004,0.008 0.005,0.009 0.004,0.01 0.004,0.009 0.004,0.011 0.003,0.01 0.003,0.011 0.002,0.011 0.002,0.012 0.002,0.012 10e-4,0.012 0.001,0.013 10e-4,0.013 0,0.014 c 0,0.297 -0.265,0.297 -0.5,0.297 H 44.07 c -0.218,0 -0.5,0 -0.5,-0.281 0,-0.313 0.266,-0.313 0.5,-0.313 z"
   id="path27"
   inkscape:connector-curvature="0"
   style="fill:#000000;stroke-width:0" />
<path
   d="m 62.559,20.59 0.004,0.011 0.006,0.014 0.008,0.019 0.01,0.022 0.012,0.026 0.014,0.028 0.016,0.032 0.018,0.035 0.02,0.037 0.021,0.04 0.024,0.042 0.025,0.044 0.027,0.046 0.029,0.048 0.03,0.05 0.032,0.051 0.034,0.052 0.036,0.053 0.037,0.054 0.038,0.055 0.04,0.056 0.042,0.055 0.043,0.056 0.044,0.056 0.046,0.056 0.048,0.055 0.048,0.055 0.05,0.053 0.052,0.053 0.052,0.052 0.054,0.051 0.055,0.049 c 0.406,0.375 0.953,0.625 1.563,0.625 0.64,0 0.859,-0.469 0.859,-1.109 0,-0.907 -0.641,-2.719 -0.969,-3.578 -0.14,-0.375 -0.218,-0.579 -0.218,-0.875 0,-0.719 0.5,-1.282 1.25,-1.282 1.484,0 2.046,2.328 2.046,2.422 0,0.094 -0.078,0.156 -0.171,0.156 -0.141,0 -0.157,-0.046 -0.235,-0.328 C 67.34,16.73 66.73,16.09 66.105,16.09 c -0.156,0 -0.406,0.015 -0.406,0.531 0,0.391 0.172,0.875 0.266,1.094 0.328,0.875 0.984,2.656 0.984,3.562 0,0.953 -0.547,1.672 -1.765,1.672 -1.407,0 -2.157,-1 -2.438,-1.406 -0.047,0.906 -0.703,1.406 -1.406,1.406 -0.5,0 -0.86,-0.312 -1.125,-0.844 -0.281,-0.578 -0.516,-1.531 -0.516,-1.593 0,-0.063 0.078,-0.141 0.188,-0.141 0.125,0 0.14,0.016 0.234,0.375 0.25,0.969 0.531,1.875 1.172,1.875 0.375,0 0.5,-0.25 0.5,-0.734 0,-0.344 -0.156,-0.969 -0.281,-1.453 l -0.438,-1.719 c -0.062,-0.297 -0.234,-1.016 -0.312,-1.297 -0.125,-0.422 -0.297,-1.172 -0.297,-1.25 0,-0.219 0.172,-0.391 0.422,-0.391 0.187,0 0.406,0.094 0.531,0.328 0.031,0.079 0.187,0.641 0.266,0.954 l 0.343,1.437 z"
   id="path29"
   inkscape:connector-curvature="0"
   style="fill:#000000;stroke-width:0" />
<path
   d="m 74.016,16.855 0.01,-0.041 0.01,-0.04 0.024,-0.077 0.027,-0.074 0.029,-0.07 0.032,-0.065 0.035,-0.063 0.037,-0.058 0.039,-0.056 0.04,-0.052 0.043,-0.048 0.044,-0.046 0.045,-0.042 0.047,-0.039 0.047,-0.037 0.049,-0.034 0.049,-0.031 0.05,-0.028 0.05,-0.026 0.05,-0.023 0.05,-0.021 0.05,-0.019 0.049,-0.017 0.05,-0.015 0.048,-0.012 0.047,-0.011 0.047,-0.01 0.045,-0.007 0.043,-0.006 0.042,-0.004 0.041,-0.003 0.038,-0.002 0.036,-0.001 c 0.516,0 0.891,0.328 1.157,0.875 0.265,0.563 0.468,1.5 0.468,1.547 0,0.094 -0.062,0.156 -0.156,0.156 -0.14,0 -0.156,-0.078 -0.219,-0.328 -0.297,-1.093 -0.578,-1.937 -1.218,-1.937 -0.469,0 -0.469,0.531 -0.469,0.734 0,0.36 0.047,0.531 0.203,1.188 0.109,0.437 0.219,0.859 0.313,1.312 l 0.656,2.578 c 0.109,0.407 0.109,0.438 0.109,0.485 0,0.234 -0.187,0.39 -0.422,0.39 -0.469,0 -0.578,-0.39 -0.672,-0.781 -0.156,-0.625 -1.015,-4.047 -1.125,-4.594 -0.015,0 -0.64,-1.312 -1.796,-1.312 -0.829,0 -0.985,0.719 -0.985,1.312 0,0.907 0.438,2.172 0.859,3.235 0.188,0.515 0.266,0.718 0.266,1.031 0,0.687 -0.484,1.281 -1.25,1.281 -1.469,0 -2.062,-2.312 -2.062,-2.437 0,-0.063 0.078,-0.141 0.187,-0.141 0.141,0 0.156,0.063 0.219,0.281 0.375,1.375 1,1.969 1.609,1.969 0.157,0 0.407,-0.016 0.407,-0.516 0,-0.421 -0.172,-0.875 -0.407,-1.484 -0.703,-1.891 -0.781,-2.5 -0.781,-2.969 0,-1.625 1.219,-1.875 1.875,-1.875 1.016,0 1.578,0.703 1.891,1.078 z"
   id="path31"
   inkscape:connector-curvature="0"
   style="fill:#000000;stroke-width:0" />
<path
   d="M 78.461,23.172 78.458,23.156 78.455,23.139 78.451,23.122 78.447,23.104 78.439,23.069 78.431,23.032 78.422,22.996 78.413,22.96 78.403,22.924 78.395,22.889 78.39,22.872 78.386,22.855 78.382,22.839 78.378,22.823 78.374,22.808 78.371,22.793 78.367,22.779 78.364,22.765 78.362,22.753 78.359,22.741 78.357,22.73 78.355,22.719 78.354,22.71 l -0.002,-0.009 0,-0.007 0,-0.006 c 0,-0.188 0.156,-0.297 0.328,-0.297 0.14,0 0.343,0.093 0.422,0.312 0,0.031 0.14,0.547 0.203,0.828 l 0.25,1 c 0.062,0.25 0.125,0.5 0.187,0.75 0.047,0.188 0.141,0.516 0.141,0.563 0.172,0.344 0.765,1.359 1.828,1.359 0.5,0 0.594,-0.422 0.594,-0.781 0,-0.688 -0.547,-2.125 -0.719,-2.594 -0.109,-0.266 -0.109,-0.39 -0.109,-0.516 0,-0.531 0.39,-0.921 0.906,-0.921 1.047,0 1.469,1.625 1.469,1.718 0,0.11 -0.11,0.11 -0.141,0.11 -0.109,0 -0.109,-0.031 -0.172,-0.203 -0.219,-0.75 -0.578,-1.375 -1.125,-1.375 -0.203,0 -0.281,0.109 -0.281,0.359 0,0.281 0.109,0.547 0.203,0.797 0.219,0.594 0.687,1.812 0.687,2.453 0,0.75 -0.484,1.203 -1.281,1.203 -1.015,0 -1.547,-0.719 -1.75,-0.984 -0.047,0.625 -0.5,0.984 -1.015,0.984 -0.516,0 -0.735,-0.437 -0.844,-0.641 -0.172,-0.374 -0.328,-1.046 -0.328,-1.078 0,-0.125 0.109,-0.125 0.125,-0.125 0.109,0 0.125,0.016 0.187,0.266 0.203,0.797 0.422,1.328 0.828,1.328 0.219,0 0.344,-0.141 0.344,-0.515 0,-0.235 -0.031,-0.36 -0.187,-0.938 z"
   id="path33"
   inkscape:connector-curvature="0"
   style="fill:#000000;stroke-width:0" />
<path
   d="m 91.535,25.078 0.035,0 0.036,0.001 0.035,10e-4 0.017,0.001 0.017,0.001 0.017,10e-4 0.017,0.002 0.016,0.003 0.016,0.002 0.016,0.004 0.015,0.004 0.015,0.004 0.014,0.005 0.013,0.006 0.013,0.007 0.013,0.007 0.012,0.008 0.011,0.009 0.01,0.01 0.009,0.011 0.009,0.012 0.004,0.006 0.004,0.007 0.003,0.007 0.004,0.007 0.003,0.007 0.003,0.008 0.002,0.008 0.003,0.008 0.002,0.009 0.002,0.009 10e-4,0.009 0.001,0.009 0.001,0.01 10e-4,0.01 0.001,0.011 0,0.01 c 0,0.219 -0.203,0.219 -0.391,0.219 h -6.047 c -0.187,0 -0.39,0 -0.39,-0.219 0,-0.234 0.203,-0.234 0.39,-0.234 z"
   id="path35"
   inkscape:connector-curvature="0"
   style="fill:#000000;stroke-width:0" />
<path
   d="m 96.133,29.656 0,0.012 0,0.012 0,0.012 0,0.011 0,0.011 0,0.011 -10e-4,0.01 0,0.01 0,0.01 0,0.009 -0.001,0.009 0,0.009 -0.001,0.017 -10e-4,0.016 -0.002,0.014 -0.002,0.014 -0.003,0.012 -0.003,0.012 -0.004,0.011 -0.004,0.009 -0.006,0.009 -0.005,0.008 -0.007,0.008 -0.007,0.006 -0.009,0.006 -0.009,0.005 -0.01,0.005 -0.006,0.002 -0.006,0.002 -0.006,0.002 -0.006,10e-4 -0.006,0.002 -0.007,10e-4 -0.007,0.001 -0.008,0.001 -0.008,0.002 -0.008,0 -0.008,0.001 -0.009,10e-4 -0.009,0.001 -0.009,0 -0.01,0.001 -0.01,0 -0.01,0 -0.011,10e-4 -0.011,0 -0.012,0 -0.012,0 -0.012,0 C 95.18,29.234 94.195,29.234 93.852,29.234 v -0.343 c 0.218,0 0.875,0 1.453,0.281 v -5.781 c 0,-0.391 -0.032,-0.532 -1.032,-0.532 h -0.359 v -0.343 c 0.391,0.031 1.359,0.031 1.797,0.031 0.453,0 1.422,0 1.812,-0.031 v 0.343 h -0.359 c -1,0 -1.031,0.125 -1.031,0.532 z"
   id="path37"
   inkscape:connector-curvature="0"
   style="fill:#000000;stroke-width:0" />
<path
   d="m 112.71,1.082 0,0.0058 0,0.0056 0,0.0054 0,0.0053 0,0.0051 0,0.005 0,0.0049 0,0.0047 -0.01,0.0046 0,0.0045 0,0.0044 0,0.0043 0,0.0043 0,0.0041 -0.01,0.0041 0,0.0041 0,0.008 -0.01,0.0078 0,0.0079 -0.01,0.0078 0,0.0079 -0.01,0.0081 -0.01,0.0083 0,0.0087 c -0.59,0.5781 -1.66,1.6562 -2.72,3.3593 -2.56,4.1094 -3.72,9.266 -3.72,15.391 0,4.281 0.58,9.797 3.19,14.531 1.26,2.25 2.56,3.562 3.26,4.25 0.05,0.047 0.05,0.078 0.05,0.141 0,0.156 -0.11,0.156 -0.33,0.156 -0.23,0 -0.26,0 -0.5,-0.25 -5.32,-4.844 -6.98,-12.125 -6.98,-18.813 0,-6.25 1.42,-12.5466 5.47,-17.2966 0.31,-0.3594 0.9,-1.0156 1.56,-1.5781 0.19,-0.20314 0.22,-0.20314 0.45,-0.20314 0.22,0 0.33,0 0.33,0.17184 z"
   id="path39"
   inkscape:connector-curvature="0"
   style="fill:#000000;stroke-width:0" />
<path
   d="m 122.52,37.359 0,0.006 0,0.006 0,0.007 0,0.006 0.01,0.014 0,0.013 0,0.015 0.01,0.014 0,0.015 0,0.016 0.01,0.015 0,0.016 0,0.015 0.01,0.016 0,0.015 0,0.016 0,0.007 0,0.008 0,0.007 0,0.008 c 0,0.156 -0.15,0.156 -0.18,0.156 -0.04,0 -0.8,-0.062 -0.88,-0.078 -0.28,-0.016 -0.52,-0.047 -0.8,-0.063 -0.4,-0.031 -0.51,-0.047 -0.51,-0.343 0,-0.157 0.12,-0.157 0.36,-0.157 0.76,0 0.78,-0.14 0.78,-0.297 0,-0.093 -0.03,-0.218 -0.05,-0.265 l -0.97,-3.875 c -0.17,0.422 -0.59,1.062 -1.42,1.062 -1.8,0 -3.73,-2.328 -3.73,-4.672 0,-1.578 0.92,-2.5 2,-2.5 l 0.04,0.313 c -0.65,0 -1.01,0.594 -1.01,1.531 0,0.875 0.48,2.656 0.79,3.313 0.54,1.125 1.29,1.687 1.91,1.687 1.05,0 1.25,-1.297 1.25,-1.422 0,-0.015 -0.05,-0.234 -0.06,-0.265 l -0.78,-3.11 C 119.22,28.344 119.22,28.312 119,28 c -0.36,-0.438 -1.05,-1.125 -1.8,-1.125 l -0.04,-0.313 c 0.87,0 1.62,0.688 2.06,1.204 0.16,-0.938 0.9,-1.204 1.39,-1.204 0.47,0 0.86,0.282 1.14,0.86 0.25,0.531 0.47,1.5 0.47,1.562 0,0.094 -0.06,0.157 -0.16,0.157 -0.14,0 -0.15,-0.079 -0.22,-0.329 -0.23,-0.937 -0.54,-1.937 -1.18,-1.937 -0.47,0 -0.5,0.422 -0.5,0.734 0,0.063 0,0.391 0.11,0.844 z"
   id="path41"
   inkscape:connector-curvature="0"
   style="fill:#000000;stroke-width:0" />
<path
   d="m 128.04,27.641 0.01,-0.042 0.01,-0.04 0.03,-0.077 0.02,-0.074 0.03,-0.069 0.04,-0.066 0.03,-0.063 0.04,-0.058 0.04,-0.056 0.04,-0.051 0.04,-0.049 0.04,-0.046 0.05,-0.042 0.05,-0.039 0.04,-0.037 0.05,-0.033 0.05,-0.031 0.05,-0.029 0.05,-0.026 0.05,-0.023 0.05,-0.021 0.05,-0.019 0.05,-0.017 0.05,-0.015 0.05,-0.012 0.04,-0.011 0.05,-0.009 0.05,-0.008 0.04,-0.006 0.04,-0.004 0.04,-0.003 0.04,-0.002 0.04,-10e-4 c 0.51,0 0.89,0.329 1.15,0.876 0.27,0.562 0.47,1.5 0.47,1.546 0,0.094 -0.06,0.157 -0.16,0.157 -0.14,0 -0.15,-0.079 -0.21,-0.329 -0.3,-1.093 -0.58,-1.937 -1.22,-1.937 -0.47,0 -0.47,0.531 -0.47,0.734 0,0.36 0.05,0.532 0.2,1.188 0.11,0.437 0.22,0.859 0.31,1.312 l 0.66,2.579 c 0.11,0.406 0.11,0.437 0.11,0.484 0,0.234 -0.19,0.39 -0.42,0.39 -0.47,0 -0.58,-0.39 -0.67,-0.781 -0.16,-0.625 -1.02,-4.047 -1.13,-4.593 -0.01,0 -0.64,-1.313 -1.8,-1.313 -0.82,0 -0.98,0.719 -0.98,1.313 0,0.906 0.44,2.171 0.86,3.234 0.19,0.516 0.27,0.719 0.27,1.031 0,0.688 -0.49,1.281 -1.25,1.281 -1.47,0 -2.07,-2.312 -2.07,-2.437 0,-0.063 0.08,-0.141 0.19,-0.141 0.14,0 0.16,0.063 0.22,0.282 0.37,1.374 1,1.968 1.61,1.968 0.15,0 0.4,-0.015 0.4,-0.515 0,-0.422 -0.17,-0.875 -0.4,-1.485 -0.7,-1.89 -0.78,-2.5 -0.78,-2.968 0,-1.626 1.22,-1.876 1.87,-1.876 1.02,0 1.58,0.704 1.89,1.079 z"
   id="path43"
   inkscape:connector-curvature="0"
   style="fill:#000000;stroke-width:0" />
<line
   x1="114.52"
   y1="19.917999"
   x2="131.50999"
   y2="19.917999"
   id="line45"
   style="stroke-width:0.63800001" />
<path
   d="m 122.52,15.641 0,0.006 0.01,0.006 0,0.006 0,0.006 0,0.014 0.01,0.014 0,0.014 0,0.015 0.01,0.015 0,0.015 0.01,0.015 0,0.016 0,0.016 0,0.015 0.01,0.016 0,0.015 0,0.008 0,0.007 0,0.008 0,0.007 c 0,0.156 -0.16,0.156 -0.19,0.156 -0.03,0 -0.79,-0.062 -0.87,-0.078 -0.28,-0.015 -0.52,-0.047 -0.8,-0.062 -0.4,-0.032 -0.52,-0.047 -0.52,-0.344 0,-0.156 0.13,-0.156 0.37,-0.156 0.76,0 0.78,-0.141 0.78,-0.297 0,-0.094 -0.03,-0.219 -0.05,-0.266 l -0.97,-3.875 c -0.17,0.422 -0.59,1.063 -1.42,1.063 -1.8,0 -3.74,-2.3285 -3.74,-4.6722 0,-1.5782 0.93,-2.5 2,-2.5 l 0.05,0.3124 c -0.65,0 -1.02,0.5938 -1.02,1.5313 0,0.875 0.49,2.6563 0.8,3.3125 0.53,1.125 1.28,1.688 1.91,1.688 1.04,0 1.25,-1.297 1.25,-1.422 0,-0.016 -0.05,-0.235 -0.06,-0.266 l -0.78,-3.1094 c -0.08,-0.2656 -0.08,-0.2968 -0.3,-0.6094 -0.36,-0.4374 -1.05,-1.125 -1.8,-1.125 l -0.05,-0.3124 c 0.88,0 1.63,0.6874 2.07,1.2031 0.15,-0.9375 0.9,-1.2031 1.39,-1.2031 0.47,0 0.86,0.2812 1.14,0.8593 0.25,0.5313 0.47,1.5 0.47,1.5625 0,0.0938 -0.07,0.1563 -0.16,0.1563 -0.14,0 -0.16,-0.0781 -0.22,-0.3281 -0.23,-0.9376 -0.54,-1.9376 -1.19,-1.9376 -0.47,0 -0.5,0.4219 -0.5,0.7344 0,0.0625 0,0.3906 0.11,0.8438 z"
   id="path47"
   inkscape:connector-curvature="0"
   style="fill:#000000;stroke-width:0" />
<path
   d="m 130.16,11.484 -0.05,-0.009 -0.04,-0.011 -0.04,-0.013 -0.04,-0.014 -0.04,-0.016 -0.04,-0.017 -0.04,-0.018 -0.03,-0.019 -0.03,-0.021 -0.03,-0.021 -0.03,-0.023 -0.03,-0.024 -0.03,-0.024 -0.02,-0.025 -0.03,-0.026 -0.02,-0.027 -0.02,-0.028 -0.02,-0.028 -0.02,-0.028 -0.01,-0.029 -0.02,-0.029 -0.01,-0.03 -0.01,-0.03 -0.01,-0.03 -0.01,-0.03 -0.01,-0.031 -0.01,-0.03 0,-0.03 -0.01,-0.031 0,-0.03 0,-0.029 0,-0.03 c 0,-0.375 0.31,-0.5 0.53,-0.5 0.47,0 0.81,0.406 0.81,0.844 0,0.656 -0.76,0.969 -1.44,0.969 -0.96,0 -1.5,-0.954 -1.64,-1.266 -0.37,1.203 -1.36,1.266 -1.64,1.266 -1.62,0 -2.48,-2.0941 -2.48,-2.4379 0,-0.0625 0.06,-0.1406 0.17,-0.1406 0.12,0 0.16,0.0937 0.19,0.1563 0.54,1.7652 1.61,2.0942 2.08,2.0942 0.7,0 0.85,-0.657 0.85,-1.047 0,-0.344 -0.09,-0.7191 -0.29,-1.4691 l -0.53,-2.1875 c -0.25,-0.9532 -0.71,-1.8282 -1.55,-1.8282 -0.08,0 -0.47,0 -0.81,0.2032 0.58,0.125 0.7,0.5937 0.7,0.7812 0,0.3282 -0.23,0.5156 -0.55,0.5156 -0.37,0 -0.79,-0.3437 -0.79,-0.8437 0,-0.6719 0.75,-0.9687 1.43,-0.9687 0.77,0 1.3,0.5937 1.64,1.25 0.25,-0.9376 1.05,-1.25 1.65,-1.25 1.61,0 2.46,2.0781 2.46,2.4218 0,0.0938 -0.06,0.1563 -0.15,0.1563 -0.14,0 -0.16,-0.0781 -0.2,-0.2188 -0.44,-1.3906 -1.36,-2.0469 -2.07,-2.0469 -0.56,0 -0.86,0.4219 -0.86,1.0626 0,0.3593 0.07,0.6093 0.32,1.6562 l 0.56,2.156 c 0.23,0.953 0.76,1.657 1.5,1.657 0.03,0 0.48,0 0.81,-0.204 z"
   id="path49"
   inkscape:connector-curvature="0"
   style="fill:#000000;stroke-width:0" />
<path
   d="m 141.08,19.973 -0.02,1.172 -0.05,1.171 -0.09,1.167 -0.13,1.161 -0.17,1.153 -0.21,1.143 -0.25,1.129 -0.3,1.115 -0.35,1.096 -0.19,0.541 -0.2,0.536 -0.22,0.53 -0.23,0.525 -0.24,0.518 -0.26,0.512 -0.27,0.505 -0.28,0.498 -0.3,0.491 -0.31,0.483 -0.33,0.475 -0.34,0.467 -0.36,0.459 -0.37,0.45 c -0.31,0.359 -0.92,1.015 -1.58,1.578 -0.19,0.203 -0.22,0.203 -0.44,0.203 -0.18,0 -0.32,0 -0.32,-0.156 0,-0.079 0.06,-0.141 0.09,-0.172 0.55,-0.563 1.61,-1.625 2.69,-3.344 2.54,-4.109 3.72,-9.266 3.72,-15.391 0,-4.281 -0.58,-9.797 -3.21,-14.531 -1.25,-2.25 -2.58,-3.5781 -3.23,-4.2343 -0.03,-0.0469 -0.06,-0.0938 -0.06,-0.1407 0,-0.17184 0.14,-0.17184 0.32,-0.17184 0.22,0 0.25,0 0.49,0.25004 5.33,4.8437 7,12.1248 7,18.8128 z"
   id="path51"
   inkscape:connector-curvature="0"
   style="fill:#000000;stroke-width:0" />
</g></svg>
