<?xml version="1.0" encoding="UTF-8" standalone="no"?>
<svg
   xmlns:dc="http://purl.org/dc/elements/1.1/"
   xmlns:cc="http://creativecommons.org/ns#"
   xmlns:rdf="http://www.w3.org/1999/02/22-rdf-syntax-ns#"
   xmlns:svg="http://www.w3.org/2000/svg"
   xmlns="http://www.w3.org/2000/svg"
   xmlns:sodipodi="http://sodipodi.sourceforge.net/DTD/sodipodi-0.dtd"
   xmlns:inkscape="http://www.inkscape.org/namespaces/inkscape"
   version="1.1"
   id="body"
   width="290.74033"
   height="39.02319"
   viewBox="0 0 0.40380601 0.054198874"
   preserveAspectRatio="none"
   inkscape:version="0.48.3.1 r9886"
   sodipodi:docname="ch2-Z-G-5.svg">
  <metadata
     id="metadata83">
    <rdf:RDF>
      <cc:Work
         rdf:about="">
        <dc:format>image/svg+xml</dc:format>
        <dc:type
           rdf:resource="http://purl.org/dc/dcmitype/StillImage" />
      </cc:Work>
    </rdf:RDF>
  </metadata>
  <defs
     id="defs81" />
  <sodipodi:namedview
     pagecolor="#ffffff"
     bordercolor="#666666"
     borderopacity="1"
     objecttolerance="10"
     gridtolerance="10"
     guidetolerance="10"
     inkscape:pageopacity="0"
     inkscape:pageshadow="2"
     inkscape:window-width="640"
     inkscape:window-height="480"
     id="namedview79"
     showgrid="false"
     inkscape:zoom="0.32777778"
     inkscape:cx="381.71875"
     inkscape:cy="459.2512"
     inkscape:window-x="0"
     inkscape:window-y="24"
     inkscape:window-maximized="0"
     inkscape:current-layer="body" />
  <title
     id="title3">SVG drawing</title>
  <desc
     id="desc5">This was produced by version 4.4 of GNU libplot, a free library for exporting 2-D vector graphics.</desc>
  <g
     id="content"
     transform="matrix(0.0017361,0,0,-0.0017361,-0.00108506,0.05512118)"
     xml:space="preserve"
     stroke-miterlimit="10.433"
     font-style="normal"
     font-variant="normal"
     font-weight="normal"
     font-stretch="normal"
     font-size-adjust="none"
     letter-spacing="normal"
     word-spacing="normal"
     style="font-style:normal;font-variant:normal;font-weight:normal;font-stretch:normal;letter-spacing:normal;word-spacing:normal;text-anchor:start;fill:none;stroke:#000000;stroke-linecap:butt;stroke-linejoin:miter;stroke-miterlimit:10.43299961;stroke-opacity:1;stroke-dasharray:none;stroke-dashoffset:0">
<path
   d="m 3.9062,29.355 0.004,0.011 0.0061,0.015 0.0081,0.019 0.0101,0.022 0.0121,0.025 0.0141,0.029 0.016,0.032 0.0179,0.034 0.0198,0.038 0.0217,0.039 0.0234,0.042 0.0253,0.045 0.027,0.046 0.0287,0.048 0.0305,0.049 0.0321,0.051 0.0338,0.053 0.0354,0.053 0.037,0.054 0.0385,0.055 0.0401,0.055 0.0416,0.056 0.0431,0.056 0.0445,0.056 0.0459,0.055 0.0473,0.055 0.0487,0.055 0.05,0.054 0.0514,0.053 0.0526,0.052 0.0538,0.051 0.0551,0.049 c 0.4062,0.375 0.9531,0.625 1.5625,0.625 0.6406,0 0.8594,-0.469 0.8594,-1.11 0,-0.906 -0.6407,-2.718 -0.9688,-3.578 -0.1406,-0.375 -0.2188,-0.578 -0.2188,-0.875 0,-0.719 0.5,-1.281 1.25,-1.281 1.4844,0 2.0469,2.328 2.0469,2.422 0,0.094 -0.0781,0.156 -0.1719,0.156 -0.1406,0 -0.1562,-0.047 -0.2343,-0.328 -0.3594,-1.297 -0.9688,-1.938 -1.5938,-1.938 -0.1562,0 -0.4062,0.016 -0.4062,0.532 0,0.39 0.1719,0.875 0.2656,1.093 0.3281,0.875 0.9844,2.657 0.9844,3.563 0,0.953 -0.5469,1.672 -1.7657,1.672 -1.4062,0 -2.1562,-1 -2.4374,-1.406 -0.0469,0.906 -0.7032,1.406 -1.4063,1.406 -0.5,0 -0.8594,-0.313 -1.125,-0.844 -0.2813,-0.578 -0.5156,-1.531 -0.5156,-1.594 0,-0.062 0.0781,-0.14 0.1875,-0.14 0.125,0 0.1406,0.015 0.2344,0.375 0.25,0.968 0.5312,1.875 1.1718,1.875 0.375,0 0.5,-0.25 0.5,-0.735 0,-0.343 -0.1562,-0.968 -0.2812,-1.453 L 2.4219,27.48 C 2.3594,27.184 2.1875,26.465 2.1094,26.184 1.9844,25.762 1.8125,25.012 1.8125,24.934 c 0,-0.219 0.1719,-0.391 0.4219,-0.391 0.1875,0 0.4062,0.094 0.5312,0.328 0.0313,0.078 0.1875,0.641 0.2656,0.953 l 0.3438,1.438 z"
   id="path9"
   inkscape:connector-curvature="0"
   style="fill:#000000;stroke-width:0" />
<path
   d="m 13.223,29.449 0,0.012 0,0.012 0,0.012 0,0.011 0,0.011 -0.001,0.011 0,0.01 0,0.01 0,0.01 0,0.009 -10e-4,0.009 0,0.009 -10e-4,0.017 -0.001,0.016 -0.002,0.014 -0.002,0.014 -0.003,0.012 -0.003,0.012 -0.004,0.011 -0.005,0.009 -0.005,0.009 -0.006,0.008 -0.006,0.008 -0.008,0.006 -0.008,0.006 -0.009,0.005 -0.01,0.005 -0.006,0.002 -0.006,0.002 -0.006,0.002 -0.006,0.001 -0.007,0.002 -0.006,10e-4 -0.008,0.001 -0.007,0.001 -0.008,0.002 -0.008,0 -0.008,0.001 -0.009,10e-4 -0.009,0.001 -0.009,0 -0.01,0.001 -0.01,0 -0.01,0 -0.011,10e-4 -0.011,0 -0.012,0 -0.012,0 -0.012,0 c -0.688,-0.719 -1.672,-0.719 -2.016,-0.719 v -0.343 c 0.219,0 0.875,0 1.453,0.281 v -5.781 c 0,-0.391 -0.031,-0.532 -1.031,-0.532 h -0.359 v -0.343 c 0.39,0.031 1.359,0.031 1.797,0.031 0.453,0 1.422,0 1.812,-0.031 v 0.343 h -0.359 c -1,0 -1.031,0.125 -1.031,0.532 z"
   id="path11"
   inkscape:connector-curvature="0"
   style="fill:#000000;stroke-width:0" />
<line
   x1="0.625"
   y1="17.902"
   x2="16.02"
   y2="17.902"
   id="line13"
   style="stroke-width:0.63800001" />
<path
   d="m 9.2305,13.621 0.0015,0.006 0.0016,0.006 0.0016,0.006 0.0018,0.007 0.0036,0.013 0.0038,0.014 0.0039,0.014 0.0039,0.015 0.0038,0.015 0.0038,0.015 0.0035,0.016 0.0033,0.015 0.003,0.016 0.0026,0.016 0.0022,0.015 0.0016,0.016 6e-4,0.007 4e-4,0.008 2e-4,0.007 10e-5,0.008 c 0,0.156 -0.1562,0.156 -0.1875,0.156 -0.0312,0 -0.7968,-0.063 -0.875,-0.078 C 7.9336,13.918 7.6992,13.887 7.418,13.871 7.0117,13.84 6.9023,13.824 6.9023,13.527 c 0,-0.156 0.125,-0.156 0.3594,-0.156 0.7656,0 0.7813,-0.14 0.7813,-0.297 0,-0.093 -0.0313,-0.218 -0.0469,-0.265 L 7.0273,8.9336 C 6.8555,9.3555 6.4336,9.9961 5.6055,9.9961 3.8086,9.9961 1.8711,7.668 1.8711,5.3242 c 0,-1.5781 0.9219,-2.5 2,-2.5 L 3.918,3.1367 c -0.6563,0 -1.0157,0.5938 -1.0157,1.5313 0,0.875 0.4844,2.6562 0.7969,3.3125 0.5313,1.125 1.2813,1.6875 1.9063,1.6875 1.0468,0 1.25,-1.2969 1.25,-1.4219 0,-0.0156 -0.0469,-0.2344 -0.0625,-0.2656 L 6.0117,4.8711 C 5.9336,4.6055 5.9336,4.5742 5.7148,4.2617 5.3555,3.8242 4.668,3.1367 3.918,3.1367 L 3.8711,2.8242 c 0.875,0 1.625,0.6875 2.0625,1.2031 0.1562,-0.9375 0.9062,-1.2031 1.3906,-1.2031 0.4688,0 0.8594,0.2813 1.1406,0.8594 0.25,0.5312 0.4688,1.5 0.4688,1.5625 0,0.0937 -0.0625,0.1562 -0.1563,0.1562 C 8.6367,5.4023 8.6211,5.3242 8.5586,5.0742 8.3242,4.1367 8.0117,3.1367 7.3711,3.1367 c -0.4688,0 -0.5,0.4219 -0.5,0.7344 0,0.0625 0,0.3906 0.1094,0.8437 z"
   id="path15"
   inkscape:connector-curvature="0"
   style="fill:#000000;stroke-width:0" />
<path
   d="m 12.621,7.7305 0,0.0123 0,0.0119 0,0.0116 0,0.0113 0,0.0109 0,0.0107 0,0.0103 0,0.01 -0.001,0.0097 0,0.0094 0,0.0091 -10e-4,0.0088 -10e-4,0.0168 -10e-4,0.0156 -0.002,0.0146 -0.002,0.0135 -0.003,0.0126 -0.003,0.0115 -0.004,0.0107 -0.004,0.0097 -0.005,0.0089 -0.006,0.0081 -0.007,0.0073 -0.007,0.0066 -0.008,0.0058 -0.01,0.0052 -0.01,0.0046 -0.005,0.0021 -0.006,0.0019 -0.006,0.0018 -0.007,0.0016 -0.006,0.0015 -0.007,0.0014 -0.007,0.0013 -0.008,0.0011 -0.007,0.0011 -0.008,9e-4 -0.009,8e-4 -0.008,8e-4 -0.009,6e-4 -0.01,6e-4 -0.01,5e-4 -0.01,3e-4 -0.01,4e-4 -0.011,2e-4 -0.011,2e-4 -0.011,10e-5 -0.012,10e-5 -0.012,0 C 11.668,7.3086 10.684,7.3086 10.34,7.3086 V 6.9648 c 0.219,0 0.875,0 1.453,0.2813 V 1.4648 c 0,-0.3906 -0.031,-0.53121 -1.031,-0.53121 h -0.36 V 0.58984 c 0.391,0.03125 1.36,0.03125 1.797,0.03125 0.453,0 1.422,0 1.813,-0.03125 v 0.34375 h -0.36 c -1,0 -1.031,0.12501 -1.031,0.53121 z"
   id="path17"
   inkscape:connector-curvature="0"
   style="fill:#000000;stroke-width:0" />
<path
   d="m 32.379,19.074 0.042,0 0.042,10e-4 0.043,0.001 0.022,0.001 0.021,0.002 0.022,10e-4 0.021,0.003 0.021,0.003 0.02,0.003 0.02,0.004 0.02,0.005 0.019,0.005 0.019,0.006 0.018,0.007 0.017,0.008 0.017,0.009 0.015,0.01 0.015,0.011 0.014,0.012 0.013,0.013 0.012,0.014 0.005,0.007 0.005,0.008 0.005,0.009 0.005,0.008 0.004,0.009 0.004,0.009 0.003,0.01 0.003,0.01 0.003,0.01 0.003,0.011 0.002,0.011 0.002,0.011 0.001,0.012 10e-4,0.012 10e-4,0.013 0,0.012 c 0,0.297 -0.266,0.297 -0.5,0.297 h -9.375 c -0.219,0 -0.5,0 -0.5,-0.281 0,-0.297 0.266,-0.297 0.5,-0.297 z"
   id="path19"
   inkscape:connector-curvature="0"
   style="fill:#000000;stroke-width:0" />
<path
   d="m 32.379,16.105 0.042,0.001 0.042,0 0.043,10e-4 0.022,0.002 0.021,10e-4 0.022,0.002 0.021,0.003 0.021,0.003 0.02,0.003 0.02,0.004 0.02,0.005 0.019,0.006 0.019,0.007 0.018,0.007 0.017,0.008 0.017,0.01 0.015,0.01 0.015,0.011 0.014,0.013 0.013,0.014 0.012,0.015 0.005,0.008 0.005,0.008 0.005,0.009 0.005,0.009 0.004,0.009 0.004,0.01 0.003,0.01 0.003,0.01 0.003,0.011 0.003,0.011 0.002,0.012 0.002,0.012 0.001,0.012 10e-4,0.013 10e-4,0.014 0,0.013 c 0,0.297 -0.266,0.297 -0.5,0.297 h -9.375 c -0.219,0 -0.5,0 -0.5,-0.281 0,-0.313 0.266,-0.313 0.5,-0.313 z"
   id="path21"
   inkscape:connector-curvature="0"
   style="fill:#000000;stroke-width:0" />
<path
   d="m 42.688,29.355 0.003,0.011 0.007,0.015 0.008,0.019 0.01,0.022 0.012,0.025 0.014,0.029 0.016,0.032 0.018,0.034 0.02,0.038 0.021,0.039 0.024,0.042 0.025,0.045 0.027,0.046 0.029,0.048 0.03,0.049 0.032,0.051 0.034,0.053 0.036,0.053 0.037,0.054 0.038,0.055 0.04,0.055 0.042,0.056 0.043,0.056 0.044,0.056 0.046,0.055 0.048,0.055 0.048,0.055 0.05,0.054 0.052,0.053 0.052,0.052 0.054,0.051 0.055,0.049 c 0.406,0.375 0.953,0.625 1.563,0.625 0.64,0 0.859,-0.469 0.859,-1.11 0,-0.906 -0.641,-2.718 -0.969,-3.578 -0.14,-0.375 -0.218,-0.578 -0.218,-0.875 0,-0.719 0.5,-1.281 1.25,-1.281 1.484,0 2.046,2.328 2.046,2.422 0,0.094 -0.078,0.156 -0.172,0.156 -0.14,0 -0.156,-0.047 -0.234,-0.328 -0.359,-1.297 -0.969,-1.938 -1.594,-1.938 -0.156,0 -0.406,0.016 -0.406,0.532 0,0.39 0.172,0.875 0.266,1.093 0.328,0.875 0.984,2.657 0.984,3.563 0,0.953 -0.547,1.672 -1.766,1.672 -1.406,0 -2.156,-1 -2.437,-1.406 -0.047,0.906 -0.703,1.406 -1.406,1.406 -0.5,0 -0.86,-0.313 -1.125,-0.844 -0.282,-0.578 -0.516,-1.531 -0.516,-1.594 0,-0.062 0.078,-0.14 0.188,-0.14 0.125,0 0.14,0.015 0.234,0.375 0.25,0.968 0.531,1.875 1.172,1.875 0.375,0 0.5,-0.25 0.5,-0.735 0,-0.343 -0.156,-0.968 -0.281,-1.453 L 41.203,27.48 c -0.062,-0.296 -0.234,-1.015 -0.312,-1.296 -0.125,-0.422 -0.297,-1.172 -0.297,-1.25 0,-0.219 0.172,-0.391 0.422,-0.391 0.187,0 0.406,0.094 0.531,0.328 0.031,0.078 0.187,0.641 0.265,0.953 l 0.344,1.438 z"
   id="path23"
   inkscape:connector-curvature="0"
   style="fill:#000000;stroke-width:0" />
<path
   d="m 50.145,23.168 1.171,1.156 c 1.75,1.531 2.422,2.141 2.422,3.25 0,1.266 -1.015,2.172 -2.375,2.172 -1.25,0 -2.078,-1.031 -2.078,-2.031 0,-0.625 0.547,-0.625 0.594,-0.625 0.187,0 0.578,0.14 0.578,0.594 0,0.296 -0.203,0.578 -0.594,0.578 -0.093,0 -0.109,0 -0.14,0 0.25,0.718 0.859,1.125 1.5,1.125 1.015,0 1.5,-0.891 1.5,-1.813 0,-0.89 -0.563,-1.781 -1.172,-2.469 l -2.141,-2.39 c -0.125,-0.11 -0.125,-0.141 -0.125,-0.406 h 4.141 l 0.312,1.937 h -0.281 c -0.062,-0.328 -0.141,-0.828 -0.25,-0.984 -0.078,-0.094 -0.812,-0.094 -1.062,-0.094 z"
   id="path25"
   inkscape:connector-curvature="0"
   style="fill:#000000;stroke-width:0" />
<line
   x1="39.405998"
   y1="17.902"
   x2="54.800999"
   y2="17.902"
   id="line27"
   style="stroke-width:0.63800001" />
<path
   d="m 48.008,13.621 10e-4,0.006 0.002,0.006 0.002,0.006 0.001,0.007 0.004,0.013 0.004,0.014 0.004,0.014 0.003,0.015 0.004,0.015 0.004,0.015 0.004,0.016 0.003,0.015 0.003,0.016 0.003,0.016 0.002,0.015 10e-4,0.016 0.001,0.007 0,0.008 10e-4,0.007 0,0.008 c 0,0.156 -0.157,0.156 -0.188,0.156 -0.031,0 -0.797,-0.063 -0.875,-0.078 -0.281,-0.016 -0.515,-0.047 -0.797,-0.063 -0.406,-0.031 -0.515,-0.047 -0.515,-0.344 0,-0.156 0.125,-0.156 0.359,-0.156 0.766,0 0.781,-0.14 0.781,-0.297 0,-0.093 -0.031,-0.218 -0.047,-0.265 L 45.805,8.9336 c -0.172,0.4219 -0.594,1.0625 -1.422,1.0625 -1.797,0 -3.735,-2.3281 -3.735,-4.6719 0,-1.5781 0.922,-2.5 2,-2.5 l 0.047,0.3125 c -0.656,0 -1.015,0.5938 -1.015,1.5313 0,0.875 0.484,2.6562 0.797,3.3125 0.531,1.125 1.281,1.6875 1.906,1.6875 1.047,0 1.25,-1.2969 1.25,-1.4219 0,-0.0156 -0.047,-0.2344 -0.063,-0.2656 L 44.789,4.8711 C 44.711,4.6055 44.711,4.5742 44.492,4.2617 44.133,3.8242 43.445,3.1367 42.695,3.1367 L 42.648,2.8242 c 0.875,0 1.625,0.6875 2.063,1.2031 0.156,-0.9375 0.906,-1.2031 1.391,-1.2031 0.468,0 0.859,0.2813 1.14,0.8594 0.25,0.5312 0.469,1.5 0.469,1.5625 0,0.0937 -0.063,0.1562 -0.156,0.1562 -0.141,0 -0.157,-0.0781 -0.219,-0.3281 -0.234,-0.9375 -0.547,-1.9375 -1.188,-1.9375 -0.468,0 -0.5,0.4219 -0.5,0.7344 0,0.0625 0,0.3906 0.11,0.8437 z"
   id="path29"
   inkscape:connector-curvature="0"
   style="fill:#000000;stroke-width:0" />
<path
   d="m 49.543,1.4492 1.172,1.1563 c 1.75,1.5312 2.422,2.1406 2.422,3.25 0,1.2656 -1.016,2.1718 -2.375,2.1718 -1.25,0 -2.078,-1.0312 -2.078,-2.0312 0,-0.625 0.546,-0.625 0.593,-0.625 0.188,0 0.578,0.1406 0.578,0.5937 0,0.2969 -0.203,0.5782 -0.593,0.5782 -0.094,0 -0.11,0 -0.141,0 0.25,0.7187 0.859,1.125 1.5,1.125 1.016,0 1.5,-0.8907 1.5,-1.8125 0,-0.8907 -0.562,-1.7813 -1.172,-2.4688 L 48.809,0.99609 C 48.684,0.88672 48.684,0.85547 48.684,0.58984 h 4.14 L 53.137,2.5273 H 52.855 C 52.793,2.1992 52.715,1.6992 52.605,1.543 52.527,1.4492 51.793,1.4492 51.543,1.4492 z"
   id="path31"
   inkscape:connector-curvature="0"
   style="fill:#000000;stroke-width:0" />
<path
   d="m 63.965,23.715 -0.001,0.038 -0.003,0.037 -0.005,0.038 -0.006,0.036 -0.008,0.037 -0.01,0.035 -0.012,0.035 -0.014,0.035 -0.015,0.034 -0.016,0.032 -0.018,0.032 -0.02,0.032 -0.021,0.03 -0.023,0.029 -0.024,0.028 -0.025,0.027 -0.027,0.026 -0.027,0.024 -0.03,0.024 -0.03,0.021 -0.032,0.021 -0.032,0.019 -0.034,0.017 -0.035,0.016 -0.036,0.014 -0.037,0.013 -0.038,0.01 -0.039,0.009 -0.039,0.007 -0.041,0.005 -0.041,0.003 -0.042,0.001 c -0.407,0 -0.766,-0.328 -0.766,-0.75 0,-0.484 0.391,-0.781 0.766,-0.781 0.5,0 0.781,0.406 0.781,0.766 z"
   id="path33"
   inkscape:connector-curvature="0"
   style="fill:#000000;stroke-width:0" />
<path
   d="m 61.777,20.746 v -0.453 c 1.016,0 1.157,-0.094 1.157,-0.875 V 15.09 c 0,-0.719 -0.172,-0.719 -1.204,-0.719 v -0.453 c 0.438,0.031 1.204,0.031 1.657,0.031 0.187,0 1.109,0 1.64,-0.031 v 0.453 c -1.031,0 -1.093,0.094 -1.093,0.703 v 5.86 z"
   id="path35"
   inkscape:connector-curvature="0"
   style="fill:#000000;stroke-width:0" />
<path
   d="m 68.266,20.309 h 1.796 v 0.453 h -1.828 v 1.859 c 0,1.438 0.735,2.172 1.375,2.172 0.141,0 0.375,-0.031 0.563,-0.125 -0.063,-0.016 -0.453,-0.172 -0.453,-0.625 0,-0.359 0.25,-0.625 0.609,-0.625 0.391,0 0.641,0.266 0.641,0.641 0,0.593 -0.578,1.046 -1.344,1.046 -1.109,0 -2.359,-0.859 -2.359,-2.484 v -1.859 h -1.235 v -0.453 h 1.235 V 15.09 c 0,-0.719 -0.172,-0.719 -1.204,-0.719 v -0.453 c 0.438,0.031 1.313,0.031 1.797,0.031 0.422,0 1.547,0 1.922,-0.031 v 0.453 h -0.328 c -1.156,0 -1.187,0.188 -1.187,0.75 z"
   id="path37"
   inkscape:connector-curvature="0"
   style="fill:#000000;stroke-width:0" />
<path
   d="m 81.637,18.168 0,0.158 -0.002,0.154 -0.003,0.148 -0.006,0.144 -0.011,0.14 -0.007,0.069 -0.008,0.067 -0.01,0.067 -0.012,0.066 -0.014,0.065 -0.015,0.065 -0.018,0.063 -0.019,0.063 -0.022,0.063 -0.025,0.062 -0.027,0.061 -0.03,0.061 -0.032,0.061 -0.036,0.06 -0.039,0.06 -0.041,0.059 -0.046,0.059 -0.048,0.059 -0.053,0.059 -0.056,0.059 -0.06,0.059 -0.063,0.058 c -0.563,0.5 -1.266,0.735 -1.969,0.735 -1.313,0 -2.313,-0.86 -2.313,-1.891 0,-0.469 0.313,-0.687 0.672,-0.687 0.375,0 0.656,0.265 0.656,0.656 0,0.64 -0.578,0.64 -0.812,0.64 0.359,0.672 1.125,0.954 1.766,0.954 0.734,0 1.671,-0.594 1.671,-2.032 v -0.64 -0.282 -1.578 c 0,-1.546 -1.171,-2.078 -1.843,-2.078 -0.782,0 -1.438,0.578 -1.438,1.344 0,2.094 2.703,2.281 3.281,2.312 v 0.282 c -3.203,-0.047 -4.406,-1.375 -4.406,-2.594 0,-1.266 1.453,-1.656 2.422,-1.656 1.063,0 1.766,0.64 2.078,1.39 0.063,-0.734 0.547,-1.312 1.235,-1.312 0.328,0 1.25,0.219 1.25,1.5 v 0.875 H 82.84 V 15.34 c 0,-0.906 -0.375,-1.047 -0.61,-1.047 -0.593,0 -0.593,0.844 -0.593,1.094 z"
   id="path39"
   inkscape:connector-curvature="0"
   style="fill:#000000;stroke-width:0" />
<path
   d="m 90.375,17.777 0,0.136 0,0.131 0,0.124 -0.001,0.119 0,0.114 -10e-4,0.108 -0.002,0.104 -0.002,0.099 -0.002,0.094 -0.003,0.091 -0.004,0.086 -0.005,0.082 -0.005,0.079 -0.006,0.075 -0.008,0.072 -0.008,0.068 -0.009,0.066 -0.011,0.064 -0.011,0.061 -0.014,0.058 -0.014,0.057 -0.016,0.055 -0.017,0.053 -0.019,0.052 -0.021,0.051 -0.022,0.05 -0.024,0.049 -0.026,0.048 -0.028,0.048 -0.03,0.048 -0.032,0.048 L 90,20.215 c -0.453,0.609 -1.203,0.719 -1.75,0.719 -1.531,0 -2.141,-1.329 -2.266,-1.641 h -0.015 v 1.641 l -2.157,-0.188 v -0.453 c 1.079,0 1.204,-0.109 1.204,-0.891 V 15.09 c 0,-0.719 -0.172,-0.719 -1.204,-0.719 v -0.453 c 0.407,0.031 1.266,0.031 1.704,0.031 0.468,0 1.328,0 1.734,-0.031 v 0.453 c -1.016,0 -1.203,0 -1.203,0.719 v 2.953 c 0,1.672 1.094,2.562 2.078,2.562 0.984,0 1.219,-0.812 1.219,-1.781 V 15.09 c 0,-0.719 -0.188,-0.719 -1.219,-0.719 v -0.453 c 0.422,0.031 1.281,0.031 1.719,0.031 0.468,0 1.328,0 1.734,-0.031 v 0.453 c -0.797,0 -1.187,0 -1.203,0.485 z"
   id="path41"
   inkscape:connector-curvature="0"
   style="fill:#000000;stroke-width:0" />
<path
   d="m 96.734,24.777 v -0.468 c 1.078,0 1.204,-0.11 1.204,-0.891 v -3.516 c -0.329,0.469 -1.016,1.032 -1.985,1.032 -1.844,0 -3.422,-1.563 -3.422,-3.594 0,-2.016 1.5,-3.578 3.25,-3.578 1.203,0 1.907,0.797 2.125,1.094 l -0.218,0.234 c -0.376,-0.547 -1.032,-1.016 -1.829,-1.016 -0.406,0 -2.125,0.157 -2.125,3.25 0,1.141 0.188,1.781 0.532,2.297 0.328,0.5 0.968,0.984 1.75,0.984 0.984,0 1.546,-0.718 1.703,-0.968 0.187,-0.266 0.187,-0.297 0.187,-0.578 v -3.282 c 0,-0.281 0,-0.328 -0.218,-0.687 l 0.218,-0.234 v -1.094 l 2.254,0.156 v 0.453 c -1.082,0 -1.207,0.125 -1.207,0.891 v 9.687 z"
   id="path43"
   inkscape:connector-curvature="0"
   style="fill:#000000;stroke-width:0" />
<path
   d="m 113.14,17.324 0,0.191 -0.01,0.188 -0.03,0.185 -0.03,0.182 -0.03,0.179 -0.05,0.176 -0.06,0.171 -0.06,0.168 -0.07,0.163 -0.07,0.159 -0.09,0.155 -0.09,0.149 -0.09,0.145 -0.11,0.139 -0.1,0.134 -0.12,0.128 -0.12,0.121 -0.12,0.116 -0.13,0.109 -0.13,0.103 -0.14,0.095 -0.14,0.089 -0.15,0.081 -0.15,0.073 -0.16,0.066 -0.15,0.058 -0.16,0.049 -0.17,0.041 -0.16,0.032 -0.17,0.024 -0.17,0.014 -0.17,0.005 -0.02,-0.328 c 0.63,0 1.3,-0.282 1.72,-0.907 0.5,-0.718 0.5,-1.734 0.5,-2.312 0,-0.563 0,-1.547 -0.42,-2.297 -0.44,-0.75 -1.17,-1.062 -1.78,-1.062 h 0 c -0.58,0 -1.3,0.25 -1.77,1.031 -0.42,0.719 -0.43,1.656 -0.43,2.328 0,0.594 0,1.578 0.48,2.281 0.45,0.688 1.16,0.938 1.7,0.938 l 0.02,0.328 c -1.91,0 -3.41,-1.688 -3.41,-3.688 0,-2.047 1.58,-3.562 3.39,-3.562 1.88,0 3.42,1.562 3.42,3.562 z"
   id="path45"
   inkscape:connector-curvature="0"
   style="fill:#000000;stroke-width:0" />
<path
   d="m 120.73,17.777 0,0.136 0,0.131 0,0.124 0,0.119 0,0.114 -0.01,0.108 0,0.104 0,0.099 0,0.094 0,0.091 -0.01,0.086 0,0.082 -0.01,0.079 0,0.075 -0.01,0.072 -0.01,0.068 -0.01,0.066 -0.01,0.064 -0.01,0.061 -0.01,0.058 -0.02,0.057 -0.01,0.055 -0.02,0.053 -0.02,0.052 -0.02,0.051 -0.02,0.05 -0.03,0.049 -0.02,0.048 -0.03,0.048 -0.03,0.048 -0.03,0.048 -0.04,0.048 c -0.45,0.609 -1.2,0.719 -1.75,0.719 -1.53,0 -2.14,-1.329 -2.26,-1.641 h -0.02 v 1.641 l -2.16,-0.188 v -0.453 c 1.08,0 1.21,-0.109 1.21,-0.891 V 15.09 c 0,-0.719 -0.18,-0.719 -1.21,-0.719 v -0.453 c 0.41,0.031 1.27,0.031 1.71,0.031 0.47,0 1.32,0 1.73,-0.031 v 0.453 c -1.01,0 -1.2,0 -1.2,0.719 v 2.953 c 0,1.672 1.09,2.562 2.08,2.562 0.98,0 1.21,-0.812 1.21,-1.781 V 15.09 c 0,-0.719 -0.18,-0.719 -1.21,-0.719 v -0.453 c 0.42,0.031 1.28,0.031 1.71,0.031 0.47,0 1.33,0 1.74,-0.031 v 0.453 c -0.8,0 -1.19,0 -1.2,0.485 z"
   id="path47"
   inkscape:connector-curvature="0"
   style="fill:#000000;stroke-width:0" />
<path
   d="m 125.06,24.949 -2.21,-0.172 v -0.468 c 1.08,0 1.21,-0.11 1.21,-0.891 V 15.09 c 0,-0.719 -0.18,-0.719 -1.21,-0.719 v -0.453 c 0.44,0.031 1.22,0.031 1.69,0.031 0.48,0 1.28,0 1.72,-0.031 v 0.453 c -1.02,0 -1.2,0 -1.2,0.719 z"
   id="path49"
   inkscape:connector-curvature="0"
   style="fill:#000000;stroke-width:0" />
<path
   d="m 133.09,19.23 0.02,0.05 0.02,0.047 0.02,0.046 0.02,0.045 0.02,0.043 0.03,0.042 0.02,0.04 0.02,0.039 0.03,0.038 0.02,0.036 0.05,0.069 0.05,0.063 0.05,0.059 0.05,0.054 0.05,0.05 0.05,0.046 0.05,0.042 0.06,0.037 0.05,0.034 0.05,0.031 0.05,0.027 0.06,0.024 0.05,0.021 0.05,0.019 0.05,0.016 0.05,0.013 0.05,0.012 0.04,0.009 0.05,0.008 0.04,0.006 0.05,0.004 0.04,0.004 0.04,0.002 0.04,10e-4 0.03,0.001 0.03,0.001 0.03,0 v 0.453 c -0.47,-0.032 -0.68,-0.032 -1.2,-0.032 -0.36,0 -0.39,0 -1.28,0.032 v -0.453 c 0.59,-0.032 0.73,-0.407 0.73,-0.688 0,-0.141 -0.03,-0.219 -0.09,-0.375 l -1.63,-4.015 -1.76,4.328 c -0.09,0.218 -0.09,0.312 -0.09,0.328 0,0.422 0.54,0.422 0.87,0.422 v 0.453 c -0.42,-0.032 -1.2,-0.032 -1.64,-0.032 -0.61,0 -0.64,0 -1.55,0.032 v -0.453 c 0.93,0 1.05,-0.079 1.27,-0.579 l 2.36,-5.812 c -0.71,-1.687 -0.71,-1.719 -0.77,-1.844 -0.26,-0.484 -0.69,-1.078 -1.4,-1.078 -0.5,0 -0.8,0.281 -0.8,0.281 0,0 0.56,0.063 0.56,0.625 0,0.375 -0.31,0.579 -0.59,0.579 -0.27,0 -0.61,-0.157 -0.61,-0.61 0,-0.609 0.59,-1.203 1.44,-1.203 0.89,0 1.54,0.781 1.95,1.781 z"
   id="path51"
   inkscape:connector-curvature="0"
   style="fill:#000000;stroke-width:0" />
<path
   d="m 142.85,23.715 0,0.038 -0.01,0.037 0,0.038 -0.01,0.036 -0.01,0.037 -0.01,0.035 -0.01,0.035 -0.01,0.035 -0.02,0.034 -0.01,0.032 -0.02,0.032 -0.02,0.032 -0.02,0.03 -0.02,0.029 -0.03,0.028 -0.02,0.027 -0.03,0.026 -0.03,0.024 -0.03,0.024 -0.03,0.021 -0.03,0.021 -0.03,0.019 -0.04,0.017 -0.03,0.016 -0.04,0.014 -0.03,0.013 -0.04,0.01 -0.04,0.009 -0.04,0.007 -0.04,0.005 -0.04,0.003 -0.04,0.001 c -0.41,0 -0.77,-0.328 -0.77,-0.75 0,-0.484 0.39,-0.781 0.77,-0.781 0.5,0 0.78,0.406 0.78,0.766 z"
   id="path53"
   inkscape:connector-curvature="0"
   style="fill:#000000;stroke-width:0" />
<path
   d="m 140.66,20.746 v -0.453 c 1.02,0 1.16,-0.094 1.16,-0.875 V 15.09 c 0,-0.719 -0.17,-0.719 -1.21,-0.719 v -0.453 c 0.44,0.031 1.21,0.031 1.66,0.031 0.19,0 1.11,0 1.64,-0.031 v 0.453 c -1.03,0 -1.09,0.094 -1.09,0.703 v 5.86 z"
   id="path55"
   inkscape:connector-curvature="0"
   style="fill:#000000;stroke-width:0" />
<path
   d="m 147.15,20.309 h 1.8 v 0.453 h -1.83 v 1.859 c 0,1.438 0.73,2.172 1.37,2.172 0.14,0 0.38,-0.031 0.56,-0.125 -0.06,-0.016 -0.45,-0.172 -0.45,-0.625 0,-0.359 0.25,-0.625 0.61,-0.625 0.39,0 0.64,0.266 0.64,0.641 0,0.593 -0.58,1.046 -1.34,1.046 -1.11,0 -2.36,-0.859 -2.36,-2.484 v -1.859 h -1.24 v -0.453 h 1.24 V 15.09 c 0,-0.719 -0.17,-0.719 -1.2,-0.719 v -0.453 c 0.43,0.031 1.31,0.031 1.79,0.031 0.42,0 1.55,0 1.92,-0.031 v 0.453 h -0.32 c -1.16,0 -1.19,0.188 -1.19,0.75 z"
   id="path57"
   inkscape:connector-curvature="0"
   style="fill:#000000;stroke-width:0" />
<path
   d="m 157.7,18.574 0,0.011 0.01,0.015 0,0.018 0.01,0.022 0.02,0.026 0.01,0.029 0.02,0.031 0.01,0.035 0.02,0.037 0.03,0.04 0.02,0.042 0.02,0.044 0.03,0.047 0.03,0.048 0.03,0.049 0.03,0.051 0.04,0.052 0.03,0.054 0.04,0.054 0.04,0.055 0.04,0.055 0.04,0.056 0.04,0.056 0.05,0.055 0.04,0.056 0.05,0.055 0.05,0.055 0.05,0.054 0.05,0.053 0.05,0.052 0.06,0.05 0.05,0.049 c 0.41,0.375 0.95,0.625 1.56,0.625 0.64,0 0.86,-0.468 0.86,-1.109 0,-0.906 -0.64,-2.719 -0.97,-3.578 -0.14,-0.375 -0.21,-0.578 -0.21,-0.875 0,-0.719 0.5,-1.281 1.25,-1.281 1.48,0 2.04,2.328 2.04,2.422 0,0.093 -0.08,0.156 -0.17,0.156 -0.14,0 -0.16,-0.047 -0.23,-0.328 -0.36,-1.297 -0.97,-1.938 -1.6,-1.938 -0.15,0 -0.4,0.016 -0.4,0.532 0,0.39 0.17,0.875 0.26,1.093 0.33,0.875 0.99,2.656 0.99,3.563 0,0.953 -0.55,1.672 -1.77,1.672 -1.41,0 -2.16,-1 -2.44,-1.407 -0.04,0.907 -0.7,1.407 -1.4,1.407 -0.5,0 -0.86,-0.313 -1.13,-0.844 -0.28,-0.578 -0.51,-1.531 -0.51,-1.594 0,-0.062 0.07,-0.141 0.18,-0.141 0.13,0 0.14,0.016 0.24,0.375 0.25,0.969 0.53,1.875 1.17,1.875 0.37,0 0.5,-0.25 0.5,-0.734 0,-0.344 -0.16,-0.969 -0.28,-1.453 l -0.44,-1.719 c -0.06,-0.297 -0.23,-1.015 -0.31,-1.297 -0.13,-0.421 -0.3,-1.171 -0.3,-1.25 0,-0.218 0.17,-0.39 0.42,-0.39 0.19,0 0.41,0.094 0.53,0.328 0.04,0.078 0.19,0.641 0.27,0.953 l 0.34,1.437 z"
   id="path59"
   inkscape:connector-curvature="0"
   style="fill:#000000;stroke-width:0" />
<path
   d="m 167.01,18.668 0,0.012 0,0.012 0,0.012 0,0.011 0,0.011 0,0.011 0,0.01 0,0.01 0,0.01 0,0.009 0,0.009 0,0.009 0,0.017 0,0.015 0,0.015 -0.01,0.014 0,0.012 0,0.012 -0.01,0.01 0,0.01 -0.01,0.009 0,0.008 -0.01,0.007 -0.01,0.007 0,0.006 -0.01,0.005 -0.01,0.004 -0.01,0.003 0,0.001 -0.01,0.002 -0.01,0.002 0,0.001 -0.01,0.002 -0.01,0.001 0,10e-4 -0.01,0.001 -0.01,0.001 -0.01,10e-4 -0.01,0.001 -0.01,0 -0.01,0.001 -0.01,0 -0.01,10e-4 -0.01,0 -0.01,0 -0.01,0.001 -0.01,0 -0.01,0 -0.01,0 c -0.69,-0.719 -1.68,-0.719 -2.02,-0.719 v -0.344 c 0.22,0 0.87,0 1.45,0.282 v -5.782 c 0,-0.39 -0.03,-0.531 -1.03,-0.531 h -0.36 v -0.344 c 0.39,0.032 1.36,0.032 1.8,0.032 0.45,0 1.42,0 1.81,-0.032 v 0.344 h -0.36 c -1,0 -1.03,0.125 -1.03,0.531 z"
   id="path61"
   inkscape:connector-curvature="0"
   style="fill:#000000;stroke-width:0" />
<path
   d="m 177.8,24.559 0.01,0.006 0,0.006 0,0.006 0,0.006 0,0.014 0.01,0.014 0,0.014 0.01,0.015 0,0.015 0,0.015 0.01,0.015 0,0.016 0,0.016 0.01,0.015 0,0.016 0,0.015 0,0.008 0,0.007 0,0.008 0,0.007 c 0,0.156 -0.15,0.156 -0.19,0.156 -0.03,0 -0.79,-0.062 -0.87,-0.078 -0.28,-0.016 -0.52,-0.047 -0.8,-0.062 -0.4,-0.032 -0.51,-0.047 -0.51,-0.344 0,-0.156 0.12,-0.156 0.36,-0.156 0.76,0 0.78,-0.141 0.78,-0.297 0,-0.094 -0.03,-0.219 -0.05,-0.266 l -0.97,-3.875 c -0.17,0.422 -0.59,1.063 -1.42,1.063 -1.8,0 -3.73,-2.329 -3.73,-4.672 0,-1.578 0.92,-2.5 2,-2.5 l 0.04,0.312 c -0.65,0 -1.01,0.594 -1.01,1.532 0,0.874 0.48,2.656 0.79,3.312 0.53,1.125 1.28,1.687 1.91,1.687 1.05,0 1.25,-1.296 1.25,-1.421 0,-0.016 -0.05,-0.235 -0.06,-0.266 l -0.78,-3.109 c -0.08,-0.266 -0.08,-0.297 -0.3,-0.61 -0.36,-0.437 -1.05,-1.125 -1.8,-1.125 l -0.04,-0.312 c 0.87,0 1.62,0.687 2.06,1.203 0.15,-0.938 0.9,-1.203 1.39,-1.203 0.47,0 0.86,0.281 1.14,0.859 0.25,0.531 0.47,1.5 0.47,1.563 0,0.093 -0.06,0.156 -0.16,0.156 -0.14,0 -0.15,-0.078 -0.22,-0.328 -0.23,-0.938 -0.54,-1.938 -1.18,-1.938 -0.47,0 -0.5,0.422 -0.5,0.735 0,0.062 0,0.39 0.1,0.843 z"
   id="path63"
   inkscape:connector-curvature="0"
   style="fill:#000000;stroke-width:0" />
<path
   d="m 179.34,12.387 1.17,1.156 c 1.75,1.531 2.42,2.141 2.42,3.25 0,1.266 -1.01,2.172 -2.37,2.172 -1.25,0 -2.08,-1.031 -2.08,-2.031 0,-0.625 0.55,-0.625 0.59,-0.625 0.19,0 0.58,0.14 0.58,0.593 0,0.297 -0.2,0.578 -0.59,0.578 -0.1,0 -0.11,0 -0.14,0 0.25,0.719 0.86,1.125 1.5,1.125 1.01,0 1.5,-0.89 1.5,-1.812 0,-0.891 -0.57,-1.781 -1.17,-2.469 l -2.15,-2.39 c -0.12,-0.11 -0.12,-0.141 -0.12,-0.407 h 4.14 l 0.31,1.938 h -0.28 c -0.06,-0.328 -0.14,-0.828 -0.25,-0.984 -0.08,-0.094 -0.81,-0.094 -1.06,-0.094 z"
   id="path65"
   inkscape:connector-curvature="0"
   style="fill:#000000;stroke-width:0" />
<path
   d="m 199.16,19.074 0.04,0 0.04,10e-4 0.04,0.001 0.03,0.001 0.02,0.002 0.02,10e-4 0.02,0.003 0.02,0.003 0.02,0.003 0.02,0.004 0.02,0.005 0.02,0.005 0.02,0.006 0.02,0.007 0.01,0.008 0.02,0.009 0.02,0.01 0.01,0.011 0.01,0.012 0.02,0.013 0.01,0.014 0,0.007 0.01,0.008 0,0.009 0.01,0.008 0,0.009 0.01,0.009 0,0.01 0,0.01 0.01,0.01 0,0.011 0,0.011 0,0.011 0,0.012 0.01,0.012 0,0.013 0,0.012 c 0,0.297 -0.27,0.297 -0.5,0.297 h -9.38 c -0.22,0 -0.5,0 -0.5,-0.281 0,-0.297 0.27,-0.297 0.5,-0.297 z"
   id="path67"
   inkscape:connector-curvature="0"
   style="fill:#000000;stroke-width:0" />
<path
   d="m 199.16,16.105 0.04,0.001 0.04,0 0.04,10e-4 0.03,0.002 0.02,10e-4 0.02,0.002 0.02,0.003 0.02,0.003 0.02,0.003 0.02,0.004 0.02,0.005 0.02,0.006 0.02,0.007 0.02,0.007 0.01,0.008 0.02,0.01 0.02,0.01 0.01,0.011 0.01,0.013 0.02,0.014 0.01,0.015 0,0.008 0.01,0.008 0,0.009 0.01,0.009 0,0.009 0.01,0.01 0,0.01 0,0.01 0.01,0.011 0,0.011 0,0.012 0,0.012 0,0.012 0.01,0.013 0,0.014 0,0.013 c 0,0.297 -0.27,0.297 -0.5,0.297 h -9.38 c -0.22,0 -0.5,0 -0.5,-0.281 0,-0.313 0.27,-0.313 0.5,-0.313 z"
   id="path69"
   inkscape:connector-curvature="0"
   style="fill:#000000;stroke-width:0" />
<path
   d="m 208.27,18.574 0,0.011 0.01,0.015 0.01,0.018 0.01,0.022 0.01,0.026 0.01,0.029 0.02,0.031 0.02,0.035 0.02,0.037 0.02,0.04 0.02,0.042 0.03,0.044 0.03,0.047 0.02,0.048 0.03,0.049 0.04,0.051 0.03,0.052 0.04,0.054 0.03,0.054 0.04,0.055 0.04,0.055 0.04,0.056 0.05,0.056 0.04,0.055 0.05,0.056 0.04,0.055 0.05,0.055 0.05,0.054 0.05,0.053 0.06,0.052 0.05,0.05 0.06,0.049 c 0.4,0.375 0.95,0.625 1.56,0.625 0.64,0 0.86,-0.468 0.86,-1.109 0,-0.906 -0.64,-2.719 -0.97,-3.578 -0.14,-0.375 -0.22,-0.578 -0.22,-0.875 0,-0.719 0.5,-1.281 1.25,-1.281 1.48,0 2.05,2.328 2.05,2.422 0,0.093 -0.08,0.156 -0.17,0.156 -0.15,0 -0.16,-0.047 -0.24,-0.328 -0.36,-1.297 -0.97,-1.938 -1.59,-1.938 -0.16,0 -0.41,0.016 -0.41,0.532 0,0.39 0.17,0.875 0.27,1.093 0.32,0.875 0.98,2.656 0.98,3.563 0,0.953 -0.55,1.672 -1.76,1.672 -1.41,0 -2.16,-1 -2.44,-1.407 -0.05,0.907 -0.71,1.407 -1.41,1.407 -0.5,0 -0.86,-0.313 -1.12,-0.844 -0.28,-0.578 -0.52,-1.531 -0.52,-1.594 0,-0.062 0.08,-0.141 0.19,-0.141 0.12,0 0.14,0.016 0.23,0.375 0.25,0.969 0.53,1.875 1.17,1.875 0.38,0 0.5,-0.25 0.5,-0.734 0,-0.344 -0.15,-0.969 -0.28,-1.453 l -0.43,-1.719 c -0.07,-0.297 -0.24,-1.015 -0.32,-1.297 -0.12,-0.421 -0.29,-1.171 -0.29,-1.25 0,-0.218 0.17,-0.39 0.42,-0.39 0.19,0 0.4,0.094 0.53,0.328 0.03,0.078 0.19,0.641 0.27,0.953 l 0.34,1.437 z"
   id="path71"
   inkscape:connector-curvature="0"
   style="fill:#000000;stroke-width:0" />
<path
   d="m 215.73,12.387 1.17,1.156 c 1.75,1.531 2.42,2.141 2.42,3.25 0,1.266 -1.02,2.172 -2.37,2.172 -1.25,0 -2.08,-1.031 -2.08,-2.031 0,-0.625 0.54,-0.625 0.59,-0.625 0.19,0 0.58,0.14 0.58,0.593 0,0.297 -0.2,0.578 -0.59,0.578 -0.1,0 -0.11,0 -0.15,0 0.25,0.719 0.86,1.125 1.5,1.125 1.02,0 1.5,-0.89 1.5,-1.812 0,-0.891 -0.56,-1.781 -1.17,-2.469 l -2.14,-2.39 c -0.12,-0.11 -0.12,-0.141 -0.12,-0.407 h 4.14 l 0.31,1.938 h -0.28 c -0.06,-0.328 -0.14,-0.828 -0.25,-0.984 -0.08,-0.094 -0.81,-0.094 -1.06,-0.094 z"
   id="path73"
   inkscape:connector-curvature="0"
   style="fill:#000000;stroke-width:0" />
<path
   d="m 228.38,24.559 0,0.006 0.01,0.006 0,0.006 0,0.006 0,0.014 0.01,0.014 0,0.014 0,0.015 0.01,0.015 0,0.015 0.01,0.015 0,0.016 0,0.016 0,0.015 0.01,0.016 0,0.015 0,0.008 0,0.007 0,0.008 0,0.007 c 0,0.156 -0.16,0.156 -0.19,0.156 -0.03,0 -0.79,-0.062 -0.87,-0.078 -0.28,-0.016 -0.52,-0.047 -0.8,-0.062 -0.41,-0.032 -0.52,-0.047 -0.52,-0.344 0,-0.156 0.13,-0.156 0.36,-0.156 0.77,0 0.79,-0.141 0.79,-0.297 0,-0.094 -0.04,-0.219 -0.05,-0.266 l -0.97,-3.875 c -0.17,0.422 -0.59,1.063 -1.42,1.063 -1.8,0 -3.74,-2.329 -3.74,-4.672 0,-1.578 0.93,-2.5 2,-2.5 l 0.05,0.312 c -0.66,0 -1.02,0.594 -1.02,1.532 0,0.874 0.49,2.656 0.8,3.312 0.53,1.125 1.28,1.687 1.91,1.687 1.04,0 1.25,-1.296 1.25,-1.421 0,-0.016 -0.05,-0.235 -0.06,-0.266 l -0.79,-3.109 c -0.07,-0.266 -0.07,-0.297 -0.29,-0.61 -0.36,-0.437 -1.05,-1.125 -1.8,-1.125 l -0.05,-0.312 c 0.88,0 1.63,0.687 2.07,1.203 0.15,-0.938 0.9,-1.203 1.39,-1.203 0.47,0 0.86,0.281 1.14,0.859 0.25,0.531 0.47,1.5 0.47,1.563 0,0.093 -0.07,0.156 -0.16,0.156 -0.14,0 -0.16,-0.078 -0.22,-0.328 -0.23,-0.938 -0.55,-1.938 -1.19,-1.938 -0.47,0 -0.5,0.422 -0.5,0.735 0,0.062 0,0.39 0.11,0.843 z"
   id="path75"
   inkscape:connector-curvature="0"
   style="fill:#000000;stroke-width:0" />
<path
   d="m 231.77,18.668 0,0.012 0,0.012 0,0.012 0,0.011 0,0.011 0,0.011 0,0.01 0,0.01 0,0.01 0,0.009 0,0.009 0,0.009 0,0.017 0,0.015 0,0.015 -0.01,0.014 0,0.012 0,0.012 0,0.01 -0.01,0.01 0,0.009 -0.01,0.008 -0.01,0.007 0,0.007 -0.01,0.006 -0.01,0.005 -0.01,0.004 -0.01,0.003 0,0.001 -0.01,0.002 -0.01,0.002 0,0.001 -0.01,0.002 -0.01,0.001 0,10e-4 -0.01,0.001 -0.01,0.001 -0.01,10e-4 -0.01,0.001 -0.01,0 0,0.001 -0.01,0 -0.01,10e-4 -0.01,0 -0.02,0 -0.01,0.001 -0.01,0 -0.01,0 -0.01,0 c -0.69,-0.719 -1.67,-0.719 -2.02,-0.719 v -0.344 c 0.22,0 0.88,0 1.46,0.282 v -5.782 c 0,-0.39 -0.04,-0.531 -1.04,-0.531 h -0.36 v -0.344 c 0.4,0.032 1.36,0.032 1.8,0.032 0.45,0 1.42,0 1.81,-0.032 v 0.344 h -0.36 c -1,0 -1.03,0.125 -1.03,0.531 z"
   id="path77"
   inkscape:connector-curvature="0"
   style="fill:#000000;stroke-width:0" />
</g></svg>
