<?xml version="1.0" encoding="UTF-8" standalone="no"?>
<svg
   xmlns:dc="http://purl.org/dc/elements/1.1/"
   xmlns:cc="http://creativecommons.org/ns#"
   xmlns:rdf="http://www.w3.org/1999/02/22-rdf-syntax-ns#"
   xmlns:svg="http://www.w3.org/2000/svg"
   xmlns="http://www.w3.org/2000/svg"
   xmlns:sodipodi="http://sodipodi.sourceforge.net/DTD/sodipodi-0.dtd"
   xmlns:inkscape="http://www.inkscape.org/namespaces/inkscape"
   version="1.1"
   id="body"
   width="193.35814"
   height="44.06353"
   viewBox="0 0 0.26855297 0.061199347"
   preserveAspectRatio="none"
   inkscape:version="0.48.3.1 r9886"
   sodipodi:docname="ch2-Z-G-2.svg">
  <metadata
     id="metadata67">
    <rdf:RDF>
      <cc:Work
         rdf:about="">
        <dc:format>image/svg+xml</dc:format>
        <dc:type
           rdf:resource="http://purl.org/dc/dcmitype/StillImage" />
      </cc:Work>
    </rdf:RDF>
  </metadata>
  <defs
     id="defs65" />
  <sodipodi:namedview
     pagecolor="#ffffff"
     bordercolor="#666666"
     borderopacity="1"
     objecttolerance="10"
     gridtolerance="10"
     guidetolerance="10"
     inkscape:pageopacity="0"
     inkscape:pageshadow="2"
     inkscape:window-width="640"
     inkscape:window-height="480"
     id="namedview63"
     showgrid="false"
     inkscape:zoom="0.32777778"
     inkscape:cx="381.67969"
     inkscape:cy="458.89964"
     inkscape:window-x="0"
     inkscape:window-y="24"
     inkscape:window-maximized="0"
     inkscape:current-layer="body" />
  <title
     id="title3">SVG drawing</title>
  <desc
     id="desc5">This was produced by version 4.4 of GNU libplot, a free library for exporting 2-D vector graphics.</desc>
  <g
     id="content"
     transform="matrix(0.0017361,0,0,-0.0017361,-0.00113932,0.06260993)"
     xml:space="preserve"
     stroke-miterlimit="10.433"
     font-style="normal"
     font-variant="normal"
     font-weight="normal"
     font-stretch="normal"
     font-size-adjust="none"
     letter-spacing="normal"
     word-spacing="normal"
     style="font-style:normal;font-variant:normal;font-weight:normal;font-stretch:normal;letter-spacing:normal;word-spacing:normal;text-anchor:start;fill:none;stroke:#000000;stroke-linecap:butt;stroke-linejoin:miter;stroke-miterlimit:10.43299961;stroke-opacity:1;stroke-dasharray:none;stroke-dashoffset:0">
<path
   d="m 3.9336,29.637 0.004,0.011 0.006,0.014 0.0081,0.019 0.0101,0.022 0.0122,0.025 0.014,0.029 0.0161,0.032 0.0179,0.034 0.0198,0.038 0.0216,0.04 0.0235,0.042 0.0252,0.044 0.027,0.046 0.0288,0.048 0.0304,0.05 0.0322,0.051 0.0337,0.052 0.0354,0.053 0.037,0.054 0.0386,0.055 0.0401,0.056 0.0416,0.055 0.043,0.056 0.0445,0.056 0.046,0.056 0.0473,0.055 0.0487,0.054 0.05,0.054 0.0513,0.053 0.0526,0.052 0.0539,0.051 0.055,0.049 c 0.4063,0.375 0.9531,0.625 1.5625,0.625 0.6406,0 0.8594,-0.469 0.8594,-1.109 0,-0.907 -0.6406,-2.719 -0.9688,-3.579 -0.1406,-0.375 -0.2187,-0.578 -0.2187,-0.875 0,-0.718 0.5,-1.281 1.25,-1.281 1.4844,0 2.0469,2.328 2.0469,2.422 0,0.094 -0.0782,0.156 -0.1719,0.156 -0.1406,0 -0.1563,-0.047 -0.2344,-0.328 -0.3594,-1.297 -0.9687,-1.937 -1.5937,-1.937 -0.1563,0 -0.4063,0.015 -0.4063,0.531 0,0.391 0.1719,0.875 0.2656,1.094 0.3282,0.875 0.9844,2.656 0.9844,3.562 0,0.953 -0.5469,1.672 -1.7656,1.672 -1.4063,0 -2.1563,-1 -2.4375,-1.406 -0.0469,0.906 -0.7031,1.406 -1.4063,1.406 -0.5,0 -0.8593,-0.312 -1.125,-0.844 -0.2812,-0.578 -0.5156,-1.531 -0.5156,-1.593 0,-0.063 0.0781,-0.141 0.1875,-0.141 0.125,0 0.1406,0.016 0.2344,0.375 0.25,0.969 0.5312,1.875 1.1719,1.875 0.375,0 0.5,-0.25 0.5,-0.734 0,-0.344 -0.1563,-0.969 -0.2813,-1.454 L 2.4492,27.762 C 2.3867,27.465 2.2148,26.746 2.1367,26.465 2.0117,26.043 1.8398,25.293 1.8398,25.215 c 0,-0.219 0.1719,-0.391 0.4219,-0.391 0.1875,0 0.4063,0.094 0.5313,0.328 0.0312,0.078 0.1875,0.641 0.2656,0.953 l 0.3437,1.438 z"
   id="path9"
   inkscape:connector-curvature="0"
   style="fill:#000000;stroke-width:0" />
<path
   d="m 13.25,29.727 0,0.012 0,0.012 0,0.011 0,0.012 0,0.011 0,0.01 0,0.011 -10e-4,0.01 0,0.009 0,0.01 0,0.009 -0.001,0.009 -10e-4,0.016 -10e-4,0.016 -0.002,0.015 -0.002,0.013 -0.003,0.013 -0.003,0.011 -0.004,0.011 -0.004,0.01 -0.005,0.009 -0.006,0.008 -0.007,0.007 -0.007,0.006 -0.009,0.006 -0.009,0.006 -0.01,0.004 -0.006,0.002 -0.005,0.002 -0.006,0.002 -0.007,10e-4 -0.006,0.002 -0.007,10e-4 -0.007,0.002 -0.008,0.001 -0.007,0.001 -0.008,10e-4 -0.009,0.001 -0.009,0 -0.009,0.001 -0.009,10e-4 -0.01,0 -0.01,0 -0.01,0.001 -0.011,0 -0.011,0 -0.011,0 -0.012,0 -0.013,0 c -0.687,-0.718 -1.672,-0.718 -2.015,-0.718 v -0.344 c 0.219,0 0.875,0 1.453,0.281 v -5.781 c 0,-0.391 -0.031,-0.531 -1.031,-0.531 h -0.36 v -0.344 c 0.391,0.031 1.36,0.031 1.797,0.031 0.453,0 1.422,0 1.813,-0.031 v 0.344 h -0.36 c -1,0 -1.031,0.125 -1.031,0.531 z"
   id="path11"
   inkscape:connector-curvature="0"
   style="fill:#000000;stroke-width:0" />
<line
   x1="0.65233999"
   y1="18.18"
   x2="16.047001"
   y2="18.18"
   id="line13"
   style="stroke-width:0.63800001" />
<path
   d="m 9.2578,13.902 0.0015,0.006 0.0016,0.006 0.0017,0.007 0.0017,0.006 0.0036,0.013 0.0038,0.014 0.0039,0.015 0.0039,0.014 0.0039,0.015 0.0037,0.016 0.0036,0.015 0.0033,0.016 0.003,0.015 0.0026,0.016 0.0021,0.015 0.0016,0.016 6e-4,0.007 4e-4,0.008 3e-4,0.007 10e-5,0.008 c 0,0.156 -0.1563,0.156 -0.1875,0.156 -0.0313,0 -0.7969,-0.062 -0.875,-0.078 C 7.9609,14.199 7.7266,14.168 7.4453,14.152 7.0391,14.121 6.9297,14.106 6.9297,13.809 c 0,-0.157 0.125,-0.157 0.3594,-0.157 0.7656,0 0.7812,-0.14 0.7812,-0.296 0,-0.094 -0.0312,-0.219 -0.0469,-0.266 L 7.0547,9.2148 C 6.8828,9.6367 6.4609,10.277 5.6328,10.277 c -1.7969,0 -3.7344,-2.3278 -3.7344,-4.6715 0,-1.5782 0.9219,-2.5 2,-2.5 L 3.9453,3.418 c -0.6562,0 -1.0156,0.5937 -1.0156,1.5312 0,0.875 0.4844,2.6563 0.7969,3.3125 0.5312,1.125 1.2812,1.6875 1.9062,1.6875 1.0469,0 1.25,-1.2969 1.25,-1.4219 0,-0.0156 -0.0469,-0.2343 -0.0625,-0.2656 L 6.0391,5.1523 C 5.9609,4.8867 5.9609,4.8555 5.7422,4.543 5.3828,4.1055 4.6953,3.418 3.9453,3.418 L 3.8984,3.1055 c 0.875,0 1.625,0.6875 2.0625,1.2031 0.1563,-0.9375 0.9063,-1.2031 1.3907,-1.2031 0.4687,0 0.8593,0.2812 1.1406,0.8593 0.25,0.5313 0.4687,1.5 0.4687,1.5625 0,0.0938 -0.0625,0.1563 -0.1562,0.1563 C 8.6641,5.6836 8.6484,5.6055 8.5859,5.3555 8.3516,4.418 8.0391,3.418 7.3984,3.418 c -0.4687,0 -0.5,0.4218 -0.5,0.7343 0,0.0625 0,0.3907 0.1094,0.8438 z"
   id="path15"
   inkscape:connector-curvature="0"
   style="fill:#000000;stroke-width:0" />
<path
   d="m 12.648,8.0117 0,0.0123 0,0.0119 0,0.0116 0,0.0113 0,0.011 0,0.0106 0,0.0103 0,0.01 0,0.0097 -10e-4,0.0094 0,0.0091 0,0.0089 -10e-4,0.0167 -0.002,0.0157 -0.002,0.0145 -0.002,0.0136 -0.002,0.0125 -0.004,0.0116 -0.003,0.0106 -0.005,0.0098 -0.005,0.0089 -0.006,0.0081 -0.006,0.0073 -0.008,0.0065 -0.008,0.0059 -0.009,0.0052 -0.011,0.0046 -0.005,0.002 -0.006,0.0019 -0.006,0.0018 -0.006,0.0017 -0.007,0.0015 -0.007,0.0014 -0.007,0.0012 -0.007,0.0012 -0.008,0.001 -0.008,10e-4 -0.008,8e-4 -0.009,7e-4 -0.009,7e-4 -0.01,5e-4 -0.009,5e-4 -0.01,4e-4 -0.011,3e-4 -0.01,3e-4 -0.012,2e-4 -0.011,10e-5 -0.012,10e-5 -0.012,0 C 11.695,7.5898 10.711,7.5898 10.367,7.5898 V 7.2461 c 0.219,0 0.875,0 1.453,0.2812 V 1.7461 c 0,-0.3906 -0.031,-0.5313 -1.031,-0.5313 H 10.43 V 0.87109 c 0.39,0.03125 1.359,0.03125 1.797,0.03125 0.453,0 1.421,0 1.812,-0.03125 V 1.2148 H 13.68 c -1,0 -1.032,0.125 -1.032,0.5313 z"
   id="path17"
   inkscape:connector-curvature="0"
   style="fill:#000000;stroke-width:0" />
<path
   d="m 31.254,17.852 0.053,0 0.052,0 0.051,0.002 0.026,0.001 0.024,0.001 0.025,0.003 0.024,0.002 0.024,0.003 0.022,0.004 0.023,0.005 0.022,0.005 0.02,0.006 0.021,0.007 0.019,0.007 0.018,0.009 0.018,0.01 0.017,0.011 0.015,0.012 0.015,0.013 0.013,0.015 0.012,0.015 0.011,0.018 0.005,0.009 0.005,0.009 0.004,0.01 0.004,0.01 0.003,0.011 0.004,0.011 0.003,0.011 0.002,0.012 0.002,0.012 0.002,0.013 0.002,0.013 10e-4,0.014 0,0.014 0,0.014 c 0,0.328 -0.281,0.328 -0.562,0.328 H 22.66 c -0.265,0 -0.562,0 -0.562,-0.328 0,-0.312 0.297,-0.312 0.562,-0.312 z"
   id="path19"
   inkscape:connector-curvature="0"
   style="fill:#000000;stroke-width:0" />
<path
   d="m 41.203,29.637 0.004,0.011 0.006,0.014 0.008,0.019 0.01,0.022 0.012,0.025 0.015,0.029 0.016,0.032 0.018,0.034 0.019,0.038 0.022,0.04 0.023,0.042 0.026,0.044 0.027,0.046 0.028,0.048 0.031,0.05 0.032,0.051 0.034,0.052 0.035,0.053 0.037,0.054 0.039,0.055 0.04,0.056 0.041,0.055 0.043,0.056 0.045,0.056 0.046,0.056 0.047,0.055 0.049,0.054 0.05,0.054 0.051,0.053 0.053,0.052 0.054,0.051 0.055,0.049 c 0.406,0.375 0.953,0.625 1.562,0.625 0.641,0 0.86,-0.469 0.86,-1.109 0,-0.907 -0.641,-2.719 -0.969,-3.579 -0.141,-0.375 -0.219,-0.578 -0.219,-0.875 0,-0.718 0.5,-1.281 1.25,-1.281 1.485,0 2.047,2.328 2.047,2.422 0,0.094 -0.078,0.156 -0.172,0.156 -0.14,0 -0.156,-0.047 -0.234,-0.328 -0.36,-1.297 -0.969,-1.937 -1.594,-1.937 -0.156,0 -0.406,0.015 -0.406,0.531 0,0.391 0.172,0.875 0.265,1.094 0.329,0.875 0.985,2.656 0.985,3.562 0,0.953 -0.547,1.672 -1.766,1.672 -1.406,0 -2.156,-1 -2.437,-1.406 -0.047,0.906 -0.703,1.406 -1.407,1.406 -0.5,0 -0.859,-0.312 -1.125,-0.844 -0.281,-0.578 -0.515,-1.531 -0.515,-1.593 0,-0.063 0.078,-0.141 0.187,-0.141 0.125,0 0.141,0.016 0.235,0.375 0.25,0.969 0.531,1.875 1.172,1.875 0.374,0 0.5,-0.25 0.5,-0.734 0,-0.344 -0.157,-0.969 -0.282,-1.454 l -0.437,-1.718 c -0.063,-0.297 -0.235,-1.016 -0.313,-1.297 -0.125,-0.422 -0.297,-1.172 -0.297,-1.25 0,-0.219 0.172,-0.391 0.422,-0.391 0.188,0 0.407,0.094 0.531,0.328 0.032,0.078 0.188,0.641 0.266,0.953 l 0.344,1.438 z"
   id="path21"
   inkscape:connector-curvature="0"
   style="fill:#000000;stroke-width:0" />
<path
   d="m 48.66,23.445 1.172,1.157 c 1.75,1.531 2.422,2.14 2.422,3.25 0,1.265 -1.016,2.171 -2.375,2.171 -1.25,0 -2.078,-1.031 -2.078,-2.031 0,-0.625 0.547,-0.625 0.594,-0.625 0.187,0 0.578,0.141 0.578,0.594 0,0.297 -0.203,0.578 -0.594,0.578 -0.094,0 -0.109,0 -0.141,0 0.25,0.719 0.86,1.125 1.5,1.125 1.016,0 1.5,-0.891 1.5,-1.812 0,-0.891 -0.562,-1.782 -1.172,-2.469 l -2.14,-2.391 c -0.125,-0.109 -0.125,-0.14 -0.125,-0.406 h 4.14 l 0.313,1.937 H 51.973 C 51.91,24.195 51.832,23.695 51.723,23.539 51.645,23.445 50.91,23.445 50.66,23.445 z"
   id="path23"
   inkscape:connector-curvature="0"
   style="fill:#000000;stroke-width:0" />
<line
   x1="37.922001"
   y1="18.18"
   x2="53.316002"
   y2="18.18"
   id="line25"
   style="stroke-width:0.63800001" />
<path
   d="m 46.523,13.902 0.002,0.006 0.002,0.006 10e-4,0.007 0.002,0.006 0.004,0.013 0.003,0.014 0.004,0.015 0.004,0.014 0.004,0.015 0.004,0.016 0.003,0.015 0.004,0.016 0.003,0.015 0.002,0.016 0.002,0.015 0.002,0.016 10e-4,0.007 0,0.008 0,0.007 0,0.008 c 0,0.156 -0.156,0.156 -0.187,0.156 -0.031,0 -0.797,-0.062 -0.875,-0.078 -0.281,-0.016 -0.516,-0.047 -0.797,-0.063 -0.406,-0.031 -0.516,-0.046 -0.516,-0.343 0,-0.157 0.125,-0.157 0.36,-0.157 0.765,0 0.781,-0.14 0.781,-0.296 0,-0.094 -0.031,-0.219 -0.047,-0.266 L 44.32,9.2148 c -0.172,0.4219 -0.593,1.0622 -1.422,1.0622 -1.796,0 -3.734,-2.3278 -3.734,-4.6715 0,-1.5782 0.922,-2.5 2,-2.5 l 0.047,0.3125 c -0.656,0 -1.016,0.5937 -1.016,1.5312 0,0.875 0.485,2.6563 0.797,3.3125 0.531,1.125 1.281,1.6875 1.906,1.6875 1.047,0 1.25,-1.2969 1.25,-1.4219 0,-0.0156 -0.046,-0.2343 -0.062,-0.2656 L 43.305,5.1523 C 43.227,4.8867 43.227,4.8555 43.008,4.543 42.648,4.1055 41.961,3.418 41.211,3.418 L 41.164,3.1055 c 0.875,0 1.625,0.6875 2.063,1.2031 0.156,-0.9375 0.906,-1.2031 1.39,-1.2031 0.469,0 0.86,0.2812 1.141,0.8593 0.25,0.5313 0.469,1.5 0.469,1.5625 0,0.0938 -0.063,0.1563 -0.157,0.1563 -0.14,0 -0.156,-0.0781 -0.218,-0.3281 C 45.617,4.418 45.305,3.418 44.664,3.418 c -0.469,0 -0.5,0.4218 -0.5,0.7343 0,0.0625 0,0.3907 0.109,0.8438 z"
   id="path27"
   inkscape:connector-curvature="0"
   style="fill:#000000;stroke-width:0" />
<path
   d="m 48.055,1.7305 1.172,1.1562 c 1.75,1.5313 2.421,2.1406 2.421,3.25 0,1.2656 -1.015,2.1719 -2.375,2.1719 -1.25,0 -2.078,-1.0313 -2.078,-2.0313 0,-0.625 0.547,-0.625 0.594,-0.625 0.188,0 0.578,0.1407 0.578,0.5938 0,0.2969 -0.203,0.5781 -0.594,0.5781 -0.093,0 -0.109,0 -0.14,0 0.25,0.7188 0.859,1.125 1.5,1.125 1.015,0 1.5,-0.8906 1.5,-1.8125 0,-0.8906 -0.563,-1.7812 -1.172,-2.4687 L 47.32,1.2773 C 47.195,1.168 47.195,1.1367 47.195,0.87109 h 4.141 L 51.648,2.8086 H 51.367 C 51.305,2.4805 51.227,1.9805 51.117,1.8242 51.039,1.7305 50.305,1.7305 50.055,1.7305 z"
   id="path29"
   inkscape:connector-curvature="0"
   style="fill:#000000;stroke-width:0" />
<path
   d="m 69.672,19.352 0.042,0 0.042,0 0.043,0.001 0.022,0.002 0.021,0.001 0.022,0.002 0.021,0.002 0.021,0.003 0.02,0.003 0.02,0.004 0.02,0.005 0.019,0.006 0.019,0.006 0.018,0.007 0.017,0.008 0.017,0.008 0.015,0.01 0.015,0.011 0.014,0.012 0.013,0.013 0.012,0.014 0.005,0.008 0.005,0.008 0.005,0.008 0.004,0.008 0.005,0.009 0.004,0.01 0.003,0.009 0.003,0.01 0.003,0.01 0.003,0.011 0.002,0.011 0.002,0.011 0.001,0.012 0.001,0.012 10e-4,0.013 0,0.013 c 0,0.297 -0.266,0.297 -0.5,0.297 h -9.375 c -0.219,0 -0.5,0 -0.5,-0.282 0,-0.296 0.265,-0.296 0.5,-0.296 z"
   id="path31"
   inkscape:connector-curvature="0"
   style="fill:#000000;stroke-width:0" />
<path
   d="m 69.672,16.383 0.042,0 0.042,0 0.043,0.002 0.022,10e-4 0.021,0.001 0.022,0.002 0.021,0.003 0.021,0.003 0.02,0.003 0.02,0.005 0.02,0.005 0.019,0.005 0.019,0.007 0.018,0.007 0.017,0.009 0.017,0.009 0.015,0.01 0.015,0.012 0.014,0.012 0.013,0.014 0.012,0.015 0.005,0.008 0.005,0.008 0.005,0.009 0.004,0.009 0.005,0.009 0.004,0.01 0.003,0.01 0.003,0.011 0.003,0.011 0.003,0.011 0.002,0.011 0.002,0.012 0.001,0.013 0.001,0.013 10e-4,0.013 0,0.014 c 0,0.297 -0.266,0.297 -0.5,0.297 h -9.375 c -0.219,0 -0.5,0 -0.5,-0.282 0,-0.312 0.265,-0.312 0.5,-0.312 z"
   id="path33"
   inkscape:connector-curvature="0"
   style="fill:#000000;stroke-width:0" />
<path
   d="m 79.98,29.637 0.004,0.011 0.007,0.014 0.008,0.019 0.01,0.022 0.012,0.025 0.014,0.029 0.016,0.032 0.018,0.034 0.02,0.038 0.021,0.04 0.024,0.042 0.025,0.044 0.027,0.046 0.029,0.048 0.03,0.05 0.032,0.051 0.034,0.052 0.035,0.053 0.037,0.054 0.039,0.055 0.04,0.056 0.042,0.055 0.043,0.056 0.044,0.056 0.046,0.056 0.048,0.055 0.048,0.054 0.05,0.054 0.052,0.053 0.052,0.052 0.054,0.051 0.055,0.049 c 0.406,0.375 0.953,0.625 1.563,0.625 0.64,0 0.859,-0.469 0.859,-1.109 0,-0.907 -0.641,-2.719 -0.969,-3.579 -0.14,-0.375 -0.219,-0.578 -0.219,-0.875 0,-0.718 0.5,-1.281 1.25,-1.281 1.485,0 2.047,2.328 2.047,2.422 0,0.094 -0.078,0.156 -0.172,0.156 -0.14,0 -0.156,-0.047 -0.234,-0.328 -0.359,-1.297 -0.969,-1.937 -1.594,-1.937 -0.156,0 -0.406,0.015 -0.406,0.531 0,0.391 0.172,0.875 0.266,1.094 0.328,0.875 0.984,2.656 0.984,3.562 0,0.953 -0.547,1.672 -1.766,1.672 -1.406,0 -2.156,-1 -2.437,-1.406 -0.047,0.906 -0.703,1.406 -1.406,1.406 -0.5,0 -0.86,-0.312 -1.125,-0.844 -0.282,-0.578 -0.516,-1.531 -0.516,-1.593 0,-0.063 0.078,-0.141 0.188,-0.141 0.125,0 0.14,0.016 0.234,0.375 0.25,0.969 0.531,1.875 1.172,1.875 0.375,0 0.5,-0.25 0.5,-0.734 0,-0.344 -0.156,-0.969 -0.281,-1.454 l -0.438,-1.718 c -0.062,-0.297 -0.234,-1.016 -0.312,-1.297 -0.125,-0.422 -0.297,-1.172 -0.297,-1.25 0,-0.219 0.172,-0.391 0.422,-0.391 0.187,0 0.406,0.094 0.531,0.328 0.031,0.078 0.187,0.641 0.265,0.953 l 0.344,1.438 z"
   id="path35"
   inkscape:connector-curvature="0"
   style="fill:#000000;stroke-width:0" />
<path
   d="m 89.301,29.727 0,0.012 0,0.012 0,0.011 0,0.012 0,0.011 0,0.01 -0.001,0.011 0,0.01 0,0.009 0,0.01 -10e-4,0.009 0,0.009 -0.001,0.016 -0.001,0.016 -0.002,0.015 -0.002,0.013 -0.003,0.013 -0.003,0.011 -0.004,0.011 -0.004,0.01 -0.006,0.009 -0.005,0.008 -0.007,0.007 -0.007,0.006 -0.009,0.006 -0.009,0.006 -0.01,0.004 -0.006,0.002 -0.006,0.002 -0.006,0.002 -0.006,10e-4 -0.006,0.002 -0.007,10e-4 -0.007,0.002 -0.008,0.001 -0.008,0.001 -0.008,10e-4 -0.008,0.001 -0.009,0 -0.009,0.001 -0.009,10e-4 -0.01,0 -0.01,0 -0.01,0.001 -0.011,0 -0.011,0 -0.012,0 -0.012,0 -0.012,0 C 88.348,29.305 87.363,29.305 87.02,29.305 v -0.344 c 0.218,0 0.875,0 1.453,0.281 v -5.781 c 0,-0.391 -0.032,-0.531 -1.032,-0.531 h -0.359 v -0.344 c 0.391,0.031 1.359,0.031 1.797,0.031 0.453,0 1.422,0 1.812,-0.031 v 0.344 h -0.359 c -1,0 -1.031,0.125 -1.031,0.531 z"
   id="path37"
   inkscape:connector-curvature="0"
   style="fill:#000000;stroke-width:0" />
<path
   d="m 100.09,35.621 0.01,0.006 0,0.006 0,0.006 0,0.007 0,0.013 0.01,0.014 0,0.014 0.01,0.015 0,0.015 0,0.015 0.01,0.016 0,0.015 0,0.016 0.01,0.016 0,0.015 0,0.016 0,0.007 0,0.008 0,0.007 0,0.007 c 0,0.157 -0.156,0.157 -0.187,0.157 -0.031,0 -0.797,-0.063 -0.875,-0.078 -0.281,-0.016 -0.516,-0.047 -0.797,-0.063 -0.406,-0.031 -0.515,-0.047 -0.515,-0.344 0,-0.156 0.125,-0.156 0.359,-0.156 0.766,0 0.781,-0.141 0.781,-0.297 0,-0.094 -0.031,-0.219 -0.047,-0.265 l -0.968,-3.875 c -0.172,0.421 -0.594,1.062 -1.422,1.062 -1.797,0 -3.735,-2.328 -3.735,-4.672 0,-1.578 0.922,-2.5 2,-2.5 l 0.047,0.313 c -0.656,0 -1.015,0.593 -1.015,1.531 0,0.875 0.484,2.656 0.796,3.312 0.532,1.125 1.282,1.688 1.907,1.688 1.047,0 1.25,-1.297 1.25,-1.422 0,-0.016 -0.047,-0.234 -0.063,-0.266 l -0.781,-3.109 c -0.078,-0.266 -0.078,-0.297 -0.297,-0.609 -0.359,-0.438 -1.047,-1.125 -1.797,-1.125 l -0.047,-0.313 c 0.875,0 1.625,0.688 2.063,1.203 0.156,-0.937 0.906,-1.203 1.391,-1.203 0.468,0 0.859,0.281 1.14,0.86 0.25,0.531 0.469,1.5 0.469,1.562 0,0.094 -0.063,0.156 -0.156,0.156 -0.141,0 -0.157,-0.078 -0.219,-0.328 -0.234,-0.937 -0.547,-1.937 -1.188,-1.937 -0.468,0 -0.5,0.422 -0.5,0.734 0,0.063 0,0.391 0.11,0.844 z"
   id="path39"
   inkscape:connector-curvature="0"
   style="fill:#000000;stroke-width:0" />
<path
   d="m 101.62,23.445 1.18,1.157 c 1.75,1.531 2.42,2.14 2.42,3.25 0,1.265 -1.02,2.171 -2.38,2.171 -1.25,0 -2.07,-1.031 -2.07,-2.031 0,-0.625 0.54,-0.625 0.59,-0.625 0.19,0 0.58,0.141 0.58,0.594 0,0.297 -0.21,0.578 -0.6,0.578 -0.09,0 -0.11,0 -0.14,0 0.25,0.719 0.86,1.125 1.5,1.125 1.02,0 1.5,-0.891 1.5,-1.812 0,-0.891 -0.56,-1.782 -1.17,-2.469 l -2.14,-2.391 c -0.12,-0.109 -0.12,-0.14 -0.12,-0.406 h 4.14 l 0.31,1.937 h -0.28 c -0.06,-0.328 -0.14,-0.828 -0.25,-0.984 -0.08,-0.094 -0.81,-0.094 -1.07,-0.094 z"
   id="path41"
   inkscape:connector-curvature="0"
   style="fill:#000000;stroke-width:0" />
<path
   d="m 120.29,28.637 0.06,0 0.05,0 0.05,0.002 0.02,0.001 0.03,0.002 0.02,0.002 0.03,0.002 0.02,0.003 0.02,0.004 0.03,0.005 0.02,0.005 0.02,0.006 0.02,0.007 0.02,0.008 0.02,0.008 0.01,0.01 0.02,0.011 0.02,0.012 0.01,0.013 0.01,0.015 0.02,0.016 0.01,0.017 0,0.009 0.01,0.009 0,0.01 0.01,0.01 0,0.011 0,0.011 0.01,0.011 0,0.012 0,0.013 0,0.012 0,0.013 0,0.014 0,0.014 0.01,0.014 c 0,0.328 -0.29,0.328 -0.57,0.328 h -8.59 c -0.27,0 -0.56,0 -0.56,-0.328 0,-0.312 0.29,-0.312 0.56,-0.312 z"
   id="path43"
   inkscape:connector-curvature="0"
   style="fill:#000000;stroke-width:0" />
<path
   d="m 129.05,29.637 0,0.011 0.01,0.014 0.01,0.019 0.01,0.022 0.01,0.025 0.01,0.029 0.02,0.032 0.02,0.034 0.02,0.038 0.02,0.04 0.02,0.042 0.03,0.044 0.02,0.046 0.03,0.048 0.03,0.05 0.03,0.051 0.04,0.052 0.03,0.053 0.04,0.054 0.04,0.055 0.04,0.056 0.04,0.055 0.04,0.056 0.05,0.056 0.04,0.056 0.05,0.055 0.05,0.054 0.05,0.054 0.05,0.053 0.05,0.052 0.06,0.051 0.05,0.049 c 0.41,0.375 0.96,0.625 1.56,0.625 0.65,0 0.86,-0.469 0.86,-1.109 0,-0.907 -0.64,-2.719 -0.96,-3.579 -0.14,-0.375 -0.22,-0.578 -0.22,-0.875 0,-0.718 0.5,-1.281 1.25,-1.281 1.48,0 2.04,2.328 2.04,2.422 0,0.094 -0.07,0.156 -0.17,0.156 -0.14,0 -0.15,-0.047 -0.23,-0.328 -0.36,-1.297 -0.97,-1.937 -1.6,-1.937 -0.15,0 -0.4,0.015 -0.4,0.531 0,0.391 0.17,0.875 0.26,1.094 0.33,0.875 0.99,2.656 0.99,3.562 0,0.953 -0.55,1.672 -1.77,1.672 -1.4,0 -2.15,-1 -2.44,-1.406 -0.04,0.906 -0.7,1.406 -1.4,1.406 -0.5,0 -0.86,-0.312 -1.13,-0.844 -0.28,-0.578 -0.51,-1.531 -0.51,-1.593 0,-0.063 0.08,-0.141 0.19,-0.141 0.12,0 0.14,0.016 0.23,0.375 0.25,0.969 0.53,1.875 1.17,1.875 0.38,0 0.5,-0.25 0.5,-0.734 0,-0.344 -0.16,-0.969 -0.28,-1.454 l -0.44,-1.718 c -0.06,-0.297 -0.23,-1.016 -0.31,-1.297 -0.13,-0.422 -0.3,-1.172 -0.3,-1.25 0,-0.219 0.17,-0.391 0.43,-0.391 0.18,0 0.4,0.094 0.53,0.328 0.03,0.078 0.18,0.641 0.26,0.953 l 0.35,1.438 z"
   id="path45"
   inkscape:connector-curvature="0"
   style="fill:#000000;stroke-width:0" />
<path
   d="m 136.5,23.445 1.18,1.157 c 1.75,1.531 2.42,2.14 2.42,3.25 0,1.265 -1.02,2.171 -2.38,2.171 -1.25,0 -2.07,-1.031 -2.07,-2.031 0,-0.625 0.54,-0.625 0.59,-0.625 0.19,0 0.58,0.141 0.58,0.594 0,0.297 -0.21,0.578 -0.6,0.578 -0.09,0 -0.11,0 -0.14,0 0.25,0.719 0.86,1.125 1.5,1.125 1.02,0 1.5,-0.891 1.5,-1.812 0,-0.891 -0.56,-1.782 -1.17,-2.469 l -2.14,-2.391 c -0.12,-0.109 -0.12,-0.14 -0.12,-0.406 h 4.14 l 0.31,1.937 h -0.28 c -0.07,-0.328 -0.14,-0.828 -0.25,-0.984 -0.08,-0.094 -0.82,-0.094 -1.07,-0.094 z"
   id="path47"
   inkscape:connector-curvature="0"
   style="fill:#000000;stroke-width:0" />
<path
   d="m 149.16,35.621 0,0.006 0,0.006 0,0.006 0.01,0.007 0,0.013 0,0.014 0.01,0.014 0,0.015 0.01,0.015 0,0.015 0,0.016 0.01,0.015 0,0.016 0,0.016 0,0.015 0.01,0.016 0,0.007 0,0.008 0,0.007 0,0.007 c 0,0.157 -0.16,0.157 -0.19,0.157 -0.03,0 -0.8,-0.063 -0.87,-0.078 -0.29,-0.016 -0.52,-0.047 -0.8,-0.063 -0.41,-0.031 -0.52,-0.047 -0.52,-0.344 0,-0.156 0.13,-0.156 0.36,-0.156 0.77,0 0.78,-0.141 0.78,-0.297 0,-0.094 -0.03,-0.219 -0.04,-0.265 l -0.97,-3.875 c -0.17,0.421 -0.6,1.062 -1.42,1.062 -1.8,0 -3.74,-2.328 -3.74,-4.672 0,-1.578 0.92,-2.5 2,-2.5 l 0.05,0.313 c -0.66,0 -1.02,0.593 -1.02,1.531 0,0.875 0.49,2.656 0.8,3.312 0.53,1.125 1.28,1.688 1.91,1.688 1.04,0 1.25,-1.297 1.25,-1.422 0,-0.016 -0.05,-0.234 -0.07,-0.266 l -0.78,-3.109 c -0.08,-0.266 -0.08,-0.297 -0.29,-0.609 -0.36,-0.438 -1.05,-1.125 -1.8,-1.125 l -0.05,-0.313 c 0.88,0 1.63,0.688 2.06,1.203 0.16,-0.937 0.91,-1.203 1.39,-1.203 0.47,0 0.86,0.281 1.15,0.86 0.25,0.531 0.46,1.5 0.46,1.562 0,0.094 -0.06,0.156 -0.15,0.156 -0.14,0 -0.16,-0.078 -0.22,-0.328 -0.24,-0.937 -0.55,-1.937 -1.19,-1.937 -0.47,0 -0.5,0.422 -0.5,0.734 0,0.063 0,0.391 0.11,0.844 z"
   id="path49"
   inkscape:connector-curvature="0"
   style="fill:#000000;stroke-width:0" />
<path
   d="m 152.55,29.727 0,0.012 0,0.012 0,0.011 0,0.012 0,0.011 0,0.01 0,0.011 0,0.01 0,0.009 0,0.01 0,0.009 0,0.009 0,0.016 0,0.016 0,0.015 -0.01,0.013 0,0.013 0,0.011 -0.01,0.011 0,0.01 -0.01,0.009 0,0.008 -0.01,0.007 -0.01,0.006 0,0.006 -0.01,0.006 -0.01,0.004 -0.01,0.002 -0.01,0.002 0,0.002 -0.01,10e-4 0,0.002 -0.01,10e-4 -0.01,0.002 -0.01,0.001 0,0.001 -0.01,10e-4 -0.01,0.001 -0.01,0 -0.01,0.001 -0.01,10e-4 -0.01,0 -0.01,0 -0.01,0.001 -0.01,0 -0.01,0 -0.01,0 -0.01,0 -0.01,0 c -0.69,-0.718 -1.68,-0.718 -2.02,-0.718 v -0.344 c 0.22,0 0.88,0 1.45,0.281 v -5.781 c 0,-0.391 -0.03,-0.531 -1.03,-0.531 h -0.36 v -0.344 c 0.39,0.031 1.36,0.031 1.8,0.031 0.45,0 1.42,0 1.81,-0.031 v 0.344 h -0.36 c -1,0 -1.03,0.125 -1.03,0.531 z"
   id="path51"
   inkscape:connector-curvature="0"
   style="fill:#000000;stroke-width:0" />
<line
   x1="76.698997"
   y1="18.18"
   x2="155.35001"
   y2="18.18"
   id="line53"
   style="stroke-width:0.63800001" />
<path
   d="m 109.84,13.902 0,0.006 0,0.006 0,0.007 0,0.006 0.01,0.013 0,0.014 0,0.015 0.01,0.014 0,0.015 0.01,0.016 0,0.015 0,0.016 0.01,0.015 0,0.016 0,0.015 0,0.016 0,0.007 0,0.008 0,0.007 0,0.008 c 0,0.156 -0.15,0.156 -0.19,0.156 -0.03,0 -0.79,-0.062 -0.87,-0.078 -0.28,-0.016 -0.51,-0.047 -0.8,-0.063 -0.4,-0.031 -0.51,-0.046 -0.51,-0.343 0,-0.157 0.12,-0.157 0.36,-0.157 0.76,0 0.78,-0.14 0.78,-0.296 0,-0.094 -0.03,-0.219 -0.05,-0.266 l -0.97,-3.8752 c -0.17,0.4219 -0.59,1.0622 -1.42,1.0622 -1.8,0 -3.73,-2.3278 -3.73,-4.6715 0,-1.5782 0.92,-2.5 2,-2.5 l 0.04,0.3125 c -0.65,0 -1.01,0.5937 -1.01,1.5312 0,0.875 0.48,2.6563 0.8,3.3125 0.53,1.125 1.28,1.6875 1.9,1.6875 1.05,0 1.25,-1.2969 1.25,-1.4219 0,-0.0156 -0.05,-0.2343 -0.06,-0.2656 l -0.78,-3.1094 c -0.08,-0.2656 -0.08,-0.2968 -0.3,-0.6093 -0.36,-0.4375 -1.05,-1.125 -1.8,-1.125 l -0.04,-0.3125 c 0.87,0 1.62,0.6875 2.06,1.2031 0.15,-0.9375 0.9,-1.2031 1.39,-1.2031 0.47,0 0.86,0.2812 1.14,0.8593 0.25,0.5313 0.47,1.5 0.47,1.5625 0,0.0938 -0.06,0.1563 -0.16,0.1563 -0.14,0 -0.15,-0.0781 -0.22,-0.3281 -0.23,-0.9375 -0.54,-1.9375 -1.18,-1.9375 -0.47,0 -0.5,0.4218 -0.5,0.7343 0,0.0625 0,0.3907 0.11,0.8438 z"
   id="path55"
   inkscape:connector-curvature="0"
   style="fill:#000000;stroke-width:0" />
<path
   d="m 113.23,8.0117 0,0.0123 0,0.0119 0,0.0116 0,0.0113 0,0.011 0,0.0106 0,0.0103 0,0.01 0,0.0097 0,0.0094 0,0.0091 0,0.0089 -0.01,0.0167 0,0.0157 0,0.0145 0,0.0136 0,0.0125 -0.01,0.0116 0,0.0106 -0.01,0.0098 0,0.0089 -0.01,0.0081 0,0.0073 -0.01,0.0065 -0.01,0.0059 -0.01,0.0052 -0.01,0.0046 0,0.002 -0.01,0.0019 -0.01,0.0018 0,0.0017 -0.01,0.0015 -0.01,0.0014 0,0.0012 -0.01,0.0012 -0.01,0.001 -0.01,10e-4 0,8e-4 -0.01,7e-4 -0.01,7e-4 -0.01,5e-4 -0.01,5e-4 -0.01,4e-4 -0.01,3e-4 -0.01,3e-4 -0.01,2e-4 -0.01,10e-5 -0.02,10e-5 -0.01,0 C 112.27,7.5898 111.29,7.5898 110.94,7.5898 V 7.2461 c 0.22,0 0.88,0 1.46,0.2812 V 1.7461 c 0,-0.3906 -0.03,-0.5313 -1.03,-0.5313 h -0.36 V 0.87109 c 0.39,0.03125 1.36,0.03125 1.8,0.03125 0.45,0 1.42,0 1.81,-0.03125 V 1.2148 h -0.36 c -1,0 -1.03,0.125 -1.03,0.5313 z"
   id="path57"
   inkscape:connector-curvature="0"
   style="fill:#000000;stroke-width:0" />
<path
   d="m 124.02,13.902 0,0.006 0.01,0.006 0,0.007 0,0.006 0,0.013 0.01,0.014 0,0.015 0,0.014 0.01,0.015 0,0.016 0.01,0.015 0,0.016 0,0.015 0,0.016 0.01,0.015 0,0.016 0,0.007 0,0.008 0,0.007 0,0.008 c 0,0.156 -0.16,0.156 -0.19,0.156 -0.03,0 -0.79,-0.062 -0.87,-0.078 -0.28,-0.016 -0.52,-0.047 -0.8,-0.063 -0.4,-0.031 -0.52,-0.046 -0.52,-0.343 0,-0.157 0.13,-0.157 0.37,-0.157 0.76,0 0.78,-0.14 0.78,-0.296 0,-0.094 -0.03,-0.219 -0.05,-0.266 l -0.97,-3.8752 c -0.17,0.4219 -0.59,1.0622 -1.42,1.0622 -1.8,0 -3.74,-2.3278 -3.74,-4.6715 0,-1.5782 0.93,-2.5 2,-2.5 l 0.05,0.3125 c -0.65,0 -1.02,0.5937 -1.02,1.5312 0,0.875 0.49,2.6563 0.8,3.3125 0.53,1.125 1.28,1.6875 1.91,1.6875 1.04,0 1.25,-1.2969 1.25,-1.4219 0,-0.0156 -0.05,-0.2343 -0.06,-0.2656 l -0.78,-3.1094 c -0.08,-0.2656 -0.08,-0.2968 -0.3,-0.6093 -0.36,-0.4375 -1.05,-1.125 -1.8,-1.125 l -0.05,-0.3125 c 0.88,0 1.63,0.6875 2.07,1.2031 0.15,-0.9375 0.9,-1.2031 1.39,-1.2031 0.47,0 0.86,0.2812 1.14,0.8593 0.25,0.5313 0.47,1.5 0.47,1.5625 0,0.0938 -0.07,0.1563 -0.16,0.1563 -0.14,0 -0.16,-0.0781 -0.22,-0.3281 -0.23,-0.9375 -0.54,-1.9375 -1.19,-1.9375 -0.47,0 -0.5,0.4218 -0.5,0.7343 0,0.0625 0,0.3907 0.11,0.8438 z"
   id="path59"
   inkscape:connector-curvature="0"
   style="fill:#000000;stroke-width:0" />
<path
   d="m 125.56,1.7305 1.17,1.1562 c 1.75,1.5313 2.42,2.1406 2.42,3.25 0,1.2656 -1.02,2.1719 -2.38,2.1719 -1.25,0 -2.08,-1.0313 -2.08,-2.0313 0,-0.625 0.55,-0.625 0.6,-0.625 0.19,0 0.58,0.1407 0.58,0.5938 0,0.2969 -0.21,0.5781 -0.6,0.5781 -0.09,0 -0.11,0 -0.14,0 0.25,0.7188 0.86,1.125 1.5,1.125 1.02,0 1.5,-0.8906 1.5,-1.8125 0,-0.8906 -0.56,-1.7812 -1.17,-2.4687 L 124.82,1.2773 C 124.69,1.168 124.69,1.1367 124.69,0.87109 h 4.15 l 0.31,1.93751 h -0.28 C 128.8,2.4805 128.73,1.9805 128.62,1.8242 128.54,1.7305 127.81,1.7305 127.56,1.7305 z"
   id="path61"
   inkscape:connector-curvature="0"
   style="fill:#000000;stroke-width:0" />
</g></svg>
