<?xml version="1.0" encoding="UTF-8" standalone="no"?>
<svg
   xmlns:dc="http://purl.org/dc/elements/1.1/"
   xmlns:cc="http://creativecommons.org/ns#"
   xmlns:rdf="http://www.w3.org/1999/02/22-rdf-syntax-ns#"
   xmlns:svg="http://www.w3.org/2000/svg"
   xmlns="http://www.w3.org/2000/svg"
   xmlns:sodipodi="http://sodipodi.sourceforge.net/DTD/sodipodi-0.dtd"
   xmlns:inkscape="http://www.inkscape.org/namespaces/inkscape"
   version="1.1"
   id="body"
   width="229.21729"
   height="47.803829"
   viewBox="0 0 0.31835734 0.066394207"
   preserveAspectRatio="none"
   inkscape:version="0.48.3.1 r9886"
   sodipodi:docname="ch2-Z-G-48.svg">
  <metadata
     id="metadata67">
    <rdf:RDF>
      <cc:Work
         rdf:about="">
        <dc:format>image/svg+xml</dc:format>
        <dc:type
           rdf:resource="http://purl.org/dc/dcmitype/StillImage" />
      </cc:Work>
    </rdf:RDF>
  </metadata>
  <defs
     id="defs65" />
  <sodipodi:namedview
     pagecolor="#ffffff"
     bordercolor="#666666"
     borderopacity="1"
     objecttolerance="10"
     gridtolerance="10"
     guidetolerance="10"
     inkscape:pageopacity="0"
     inkscape:pageshadow="2"
     inkscape:window-width="640"
     inkscape:window-height="480"
     id="namedview63"
     showgrid="false"
     inkscape:zoom="0.32777778"
     inkscape:cx="382.1875"
     inkscape:cy="458.83841"
     inkscape:window-x="0"
     inkscape:window-y="24"
     inkscape:window-maximized="0"
     inkscape:current-layer="body" />
  <title
     id="title3">SVG drawing</title>
  <desc
     id="desc5">This was produced by version 4.4 of GNU libplot, a free library for exporting 2-D vector graphics.</desc>
  <g
     id="content"
     transform="matrix(0.0017361,0,0,-0.0017361,-4.34025e-4,0.06788982)"
     xml:space="preserve"
     stroke-miterlimit="10.433"
     font-style="normal"
     font-variant="normal"
     font-weight="normal"
     font-stretch="normal"
     font-size-adjust="none"
     letter-spacing="normal"
     word-spacing="normal"
     style="font-style:normal;font-variant:normal;font-weight:normal;font-stretch:normal;letter-spacing:normal;word-spacing:normal;text-anchor:start;fill:none;stroke:#000000;stroke-linecap:butt;stroke-linejoin:miter;stroke-miterlimit:10.43299961;stroke-opacity:1;stroke-dasharray:none;stroke-dashoffset:0">
<path
   d="m 8.2617,37.359 0.0015,0.006 0.0016,0.006 0.0017,0.007 0.0017,0.006 0.0036,0.014 0.0038,0.013 0.0039,0.015 0.0039,0.014 0.0039,0.015 0.0037,0.016 0.0036,0.015 0.0033,0.016 0.003,0.015 0.0026,0.016 0.0021,0.015 0.0016,0.016 6e-4,0.007 4e-4,0.008 3e-4,0.007 10e-5,0.008 c 0,0.156 -0.1563,0.156 -0.1875,0.156 -0.0313,0 -0.7969,-0.062 -0.875,-0.078 C 6.9648,37.656 6.7305,37.625 6.4492,37.609 6.043,37.578 5.9336,37.562 5.9336,37.266 c 0,-0.157 0.125,-0.157 0.3594,-0.157 0.7656,0 0.7812,-0.14 0.7812,-0.297 0,-0.093 -0.0312,-0.218 -0.0469,-0.265 L 6.0586,32.672 c -0.1719,0.422 -0.5938,1.062 -1.4219,1.062 -1.7969,0 -3.73436,-2.328 -3.73436,-4.672 0,-1.578 0.92186,-2.5 1.99996,-2.5 l 0.0469,0.313 c -0.6562,0 -1.0156,0.594 -1.0156,1.531 0,0.875 0.4844,2.656 0.7969,3.313 0.5312,1.125 1.2812,1.687 1.9062,1.687 1.0469,0 1.25,-1.297 1.25,-1.422 0,-0.015 -0.0469,-0.234 -0.0625,-0.265 L 5.043,28.609 C 4.9648,28.344 4.9648,28.312 4.7461,28 4.3867,27.562 3.6992,26.875 2.9492,26.875 L 2.9023,26.562 c 0.875,0 1.625,0.688 2.0625,1.204 0.1563,-0.938 0.9063,-1.204 1.3907,-1.204 0.4687,0 0.8593,0.282 1.1406,0.86 0.25,0.531 0.4687,1.5 0.4687,1.562 0,0.094 -0.0625,0.157 -0.1562,0.157 -0.1406,0 -0.1563,-0.079 -0.2188,-0.329 -0.2343,-0.937 -0.5468,-1.937 -1.1875,-1.937 -0.4687,0 -0.5,0.422 -0.5,0.734 0,0.063 0,0.391 0.1094,0.844 z"
   id="path9"
   inkscape:connector-curvature="0"
   style="fill:#000000;stroke-width:0" />
<path
   d="m 13.547,22.859 0,0.009 -0.001,0.009 0,0.004 -10e-4,0.005 -10e-4,0.005 -0.001,0.004 -0.002,0.006 -0.003,0.005 -0.003,0.006 -0.003,0.007 -0.004,0.007 -0.005,0.007 -0.005,0.008 -0.006,0.008 -0.007,0.009 -0.008,0.01 -0.009,0.011 -0.01,0.011 -0.005,0.006 -0.006,0.006 -0.005,0.007 -0.007,0.006 -0.006,0.007 -0.007,0.007 -0.007,0.007 -0.007,0.008 -0.007,0.008 -0.008,0.008 -0.008,0.008 -0.009,0.009 -0.009,0.009 -0.009,0.009 -0.01,0.009 -0.01,0.01 -0.01,0.01 -0.01,0.01 -0.011,0.011 -0.012,0.011 -0.012,0.011 -0.012,0.012 -0.012,0.012 -0.013,0.012 c -1.578,1.609 -2.469,4.235 -2.469,7.469 0,3.094 0.734,5.734 2.578,7.625 0.172,0.141 0.172,0.172 0.172,0.219 0,0.093 -0.078,0.125 -0.156,0.125 -0.203,0 -1.5,-1.141 -2.282,-2.703 -0.812,-1.61 -1.1715,-3.313 -1.1715,-5.266 0,-1.406 0.2185,-3.297 1.0465,-5 0.938,-1.906 2.235,-2.938 2.407,-2.938 0.078,0 0.156,0.032 0.156,0.125 z"
   id="path11"
   inkscape:connector-curvature="0"
   style="fill:#000000;stroke-width:0" />
<path
   d="m 19.863,27.641 0.01,-0.042 0.011,-0.04 0.024,-0.077 0.026,-0.074 0.03,-0.069 0.032,-0.066 0.035,-0.063 0.036,-0.058 0.039,-0.056 0.041,-0.051 0.042,-0.049 0.044,-0.046 0.046,-0.042 0.046,-0.039 0.048,-0.037 0.049,-0.033 0.049,-0.031 0.049,-0.029 0.05,-0.026 0.05,-0.023 0.051,-0.021 0.05,-0.019 0.049,-0.017 0.049,-0.015 0.048,-0.012 0.048,-0.011 0.046,-0.009 0.045,-0.008 0.044,-0.006 0.042,-0.004 0.04,-0.003 0.039,-0.002 0.036,-10e-4 c 0.516,0 0.891,0.329 1.156,0.876 0.266,0.562 0.469,1.5 0.469,1.546 0,0.094 -0.062,0.157 -0.156,0.157 -0.141,0 -0.156,-0.079 -0.219,-0.329 -0.297,-1.093 -0.578,-1.937 -1.219,-1.937 -0.468,0 -0.468,0.531 -0.468,0.734 0,0.36 0.046,0.532 0.203,1.188 0.109,0.437 0.218,0.859 0.312,1.312 l 0.656,2.579 c 0.11,0.406 0.11,0.437 0.11,0.484 0,0.234 -0.188,0.39 -0.422,0.39 -0.469,0 -0.578,-0.39 -0.672,-0.781 -0.156,-0.625 -1.016,-4.047 -1.125,-4.593 -0.016,0 -0.641,-1.313 -1.797,-1.313 -0.828,0 -0.984,0.719 -0.984,1.313 0,0.906 0.437,2.171 0.859,3.234 0.188,0.516 0.266,0.719 0.266,1.031 0,0.688 -0.485,1.281 -1.25,1.281 -1.469,0 -2.063,-2.312 -2.063,-2.437 0,-0.063 0.078,-0.141 0.188,-0.141 0.14,0 0.156,0.063 0.218,0.282 0.375,1.374 1.001,1.968 1.61,1.968 0.156,0 0.406,-0.015 0.406,-0.515 0,-0.422 -0.172,-0.875 -0.406,-1.485 -0.703,-1.89 -0.781,-2.5 -0.781,-2.968 0,-1.626 1.218,-1.876 1.875,-1.876 1.015,0 1.578,0.704 1.89,1.079 z"
   id="path13"
   inkscape:connector-curvature="0"
   style="fill:#000000;stroke-width:0" />
<path
   d="m 30.59,32.656 -0.001,0.047 -10e-4,0.046 -0.002,0.044 -0.002,0.043 -0.003,0.041 -0.004,0.04 -0.005,0.039 -0.005,0.038 -0.005,0.037 -0.007,0.035 -0.006,0.034 -0.008,0.033 -0.007,0.032 -0.009,0.03 -0.009,0.03 -0.009,0.028 -0.009,0.028 -0.01,0.026 -0.011,0.025 -0.011,0.024 -0.011,0.024 -0.011,0.022 -0.012,0.021 -0.012,0.021 -0.012,0.019 -0.013,0.019 -0.025,0.035 -0.027,0.031 -0.027,0.028 -0.027,0.025 -0.027,0.023 -0.028,0.02 -0.027,0.017 -0.027,0.015 -0.027,0.013 -0.026,0.011 -0.025,0.009 -0.024,0.007 -0.023,0.006 -0.022,0.004 -0.02,0.004 -0.019,0.002 -0.017,10e-4 -0.015,0.001 -0.013,0 c -0.375,0 -0.734,-0.39 -0.734,-0.703 0,-0.187 0.125,-0.297 0.187,-0.375 0.157,-0.14 0.563,-0.562 0.563,-1.39 0,-0.672 -0.953,-4.391 -2.86,-4.391 -0.968,0 -1.156,0.813 -1.156,1.406 0,0.797 0.36,1.907 0.797,3.047 0.25,0.656 0.313,0.813 0.313,1.125 0,0.672 -0.469,1.281 -1.25,1.281 -1.469,0 -2.063,-2.312 -2.063,-2.437 0,-0.063 0.078,-0.141 0.188,-0.141 0.14,0 0.156,0.063 0.218,0.282 0.375,1.374 1,1.968 1.61,1.968 0.14,0 0.406,0 0.406,-0.515 0,-0.422 -0.172,-0.875 -0.406,-1.485 -0.766,-2.031 -0.766,-2.531 -0.766,-2.906 0,-0.344 0.047,-1 0.531,-1.453 0.578,-0.485 1.375,-0.485 1.516,-0.485 2.641,0 3.547,5.188 3.547,6.094 z"
   id="path15"
   inkscape:connector-curvature="0"
   style="fill:#000000;stroke-width:0" />
<path
   d="m 35.93,30.672 -10e-4,0.116 -0.001,0.121 -0.003,0.125 -0.004,0.128 -0.005,0.133 -0.007,0.136 -0.018,0.282 -0.025,0.294 -0.033,0.306 -0.041,0.316 -0.052,0.324 -0.062,0.332 -0.073,0.337 -0.085,0.343 -0.098,0.346 -0.112,0.348 -0.061,0.174 -0.066,0.175 -0.069,0.174 -0.073,0.174 -0.077,0.174 -0.081,0.173 c -0.938,1.906 -2.25,2.938 -2.422,2.938 -0.063,0 -0.141,-0.032 -0.141,-0.125 0,-0.047 0,-0.078 0.266,-0.36 1.594,-1.594 2.484,-4.218 2.484,-7.468 0,-3.079 -0.75,-5.735 -2.593,-7.61 -0.157,-0.14 -0.157,-0.172 -0.157,-0.219 0,-0.093 0.078,-0.125 0.141,-0.125 0.203,0 1.516,1.141 2.297,2.704 0.797,1.609 1.172,3.328 1.172,5.234 z"
   id="path17"
   inkscape:connector-curvature="0"
   style="fill:#000000;stroke-width:0" />
<line
   x1="0.26172"
   y1="19.917999"
   x2="37.515999"
   y2="19.917999"
   id="line19"
   style="stroke-width:0.63800001" />
<path
   d="m 18.398,15.641 0.002,0.006 0.002,0.006 10e-4,0.006 0.002,0.006 0.004,0.014 0.003,0.014 0.004,0.014 0.004,0.015 0.004,0.015 0.004,0.015 0.003,0.015 0.004,0.016 0.003,0.016 0.002,0.015 0.002,0.016 0.002,0.015 0.001,0.008 0,0.007 0,0.008 0,0.007 c 0,0.156 -0.156,0.156 -0.187,0.156 -0.031,0 -0.797,-0.062 -0.875,-0.078 -0.281,-0.015 -0.516,-0.047 -0.797,-0.062 -0.406,-0.032 -0.516,-0.047 -0.516,-0.344 0,-0.156 0.125,-0.156 0.36,-0.156 0.765,0 0.781,-0.141 0.781,-0.297 0,-0.094 -0.031,-0.219 -0.047,-0.266 l -0.969,-3.875 c -0.172,0.422 -0.593,1.063 -1.422,1.063 -1.796,0 -3.734,-2.3285 -3.734,-4.6722 0,-1.5782 0.922,-2.5 2,-2.5 l 0.047,0.3124 c -0.656,0 -1.016,0.5938 -1.016,1.5313 0,0.875 0.485,2.6563 0.797,3.3125 0.531,1.125 1.281,1.688 1.906,1.688 1.047,0 1.25,-1.297 1.25,-1.422 0,-0.016 -0.046,-0.235 -0.062,-0.266 L 15.18,6.8906 C 15.102,6.625 15.102,6.5938 14.883,6.2812 14.523,5.8438 13.836,5.1562 13.086,5.1562 L 13.039,4.8438 c 0.875,0 1.625,0.6874 2.063,1.2031 0.156,-0.9375 0.906,-1.2031 1.39,-1.2031 0.469,0 0.86,0.2812 1.141,0.8593 0.25,0.5313 0.469,1.5 0.469,1.5625 0,0.0938 -0.063,0.1563 -0.157,0.1563 -0.14,0 -0.156,-0.0781 -0.218,-0.3281 -0.235,-0.9376 -0.547,-1.9376 -1.188,-1.9376 -0.469,0 -0.5,0.4219 -0.5,0.7344 0,0.0625 0,0.3906 0.109,0.8438 z"
   id="path21"
   inkscape:connector-curvature="0"
   style="fill:#000000;stroke-width:0" />
<path
   d="m 26.035,11.484 -0.046,-0.009 -0.044,-0.011 -0.043,-0.013 -0.041,-0.014 -0.039,-0.016 -0.037,-0.017 -0.036,-0.018 -0.035,-0.019 -0.032,-0.021 -0.031,-0.021 -0.03,-0.023 -0.028,-0.024 -0.026,-0.024 -0.025,-0.025 -0.024,-0.026 -0.022,-0.027 -0.02,-0.028 -0.019,-0.028 -0.018,-0.028 -0.016,-0.029 -0.015,-0.029 -0.014,-0.03 -0.012,-0.03 -0.01,-0.03 -0.01,-0.03 -0.008,-0.031 -0.007,-0.03 -0.005,-0.03 -0.005,-0.031 -0.003,-0.03 -0.001,-0.029 -10e-4,-0.03 c 0,-0.375 0.313,-0.5 0.531,-0.5 0.469,0 0.813,0.406 0.813,0.844 0,0.656 -0.766,0.969 -1.438,0.969 -0.968,0 -1.5,-0.954 -1.64,-1.266 -0.375,1.203 -1.36,1.266 -1.641,1.266 -1.625,0 -2.484,-2.0941 -2.484,-2.4379 0,-0.0625 0.062,-0.1406 0.172,-0.1406 0.125,0 0.156,0.0937 0.187,0.1563 0.547,1.7652 1.609,2.0942 2.078,2.0942 0.703,0 0.86,-0.657 0.86,-1.047 0,-0.344 -0.094,-0.7191 -0.297,-1.4691 L 21.941,6.9844 c -0.25,-0.9532 -0.703,-1.8282 -1.546,-1.8282 -0.079,0 -0.469,0 -0.813,0.2032 0.578,0.125 0.703,0.5937 0.703,0.7812 0,0.3282 -0.234,0.5156 -0.547,0.5156 -0.375,0 -0.797,-0.3437 -0.797,-0.8437 0,-0.6719 0.75,-0.9687 1.438,-0.9687 0.766,0 1.297,0.5937 1.641,1.25 0.25,-0.9376 1.046,-1.25 1.64,-1.25 1.61,0 2.469,2.0781 2.469,2.4218 0,0.0938 -0.063,0.1563 -0.156,0.1563 -0.141,0 -0.157,-0.0781 -0.203,-0.2188 -0.438,-1.3906 -1.36,-2.0469 -2.063,-2.0469 -0.562,0 -0.859,0.4219 -0.859,1.0626 0,0.3593 0.062,0.6093 0.312,1.6562 l 0.563,2.156 c 0.234,0.953 0.765,1.657 1.5,1.657 0.031,0 0.484,0 0.812,-0.204 z"
   id="path23"
   inkscape:connector-curvature="0"
   style="fill:#000000;stroke-width:0" />
<path
   d="m 53.871,21.09 0.042,0 0.042,0 0.043,0.002 0.022,0.001 0.021,0.001 0.022,0.002 0.021,0.002 0.021,0.003 0.02,0.004 0.021,0.004 0.019,0.004 0.019,0.006 0.019,0.006 0.018,0.007 0.017,0.008 0.017,0.009 0.016,0.009 0.014,0.011 0.014,0.012 0.013,0.013 0.012,0.014 0.005,0.008 0.005,0.008 0.005,0.008 0.005,0.009 0.004,0.009 0.004,0.009 0.003,0.009 0.004,0.01 0.002,0.011 0.003,0.01 0.002,0.011 0.002,0.012 10e-4,0.011 10e-4,0.013 0.001,0.012 0,0.013 c 0,0.297 -0.266,0.297 -0.5,0.297 h -9.375 c -0.219,0 -0.5,0 -0.5,-0.281 0,-0.297 0.266,-0.297 0.5,-0.297 z"
   id="path25"
   inkscape:connector-curvature="0"
   style="fill:#000000;stroke-width:0" />
<path
   d="m 53.871,18.121 0.042,0 0.042,0.001 0.043,0.001 0.022,10e-4 0.021,0.002 0.022,0.002 0.021,0.002 0.021,0.003 0.02,0.004 0.021,0.004 0.019,0.005 0.019,0.006 0.019,0.006 0.018,0.008 0.017,0.008 0.017,0.009 0.016,0.011 0.014,0.011 0.014,0.013 0.013,0.013 0.012,0.015 0.005,0.008 0.005,0.009 0.005,0.008 0.005,0.009 0.004,0.01 0.004,0.009 0.003,0.011 0.004,0.01 0.002,0.011 0.003,0.011 0.002,0.012 0.002,0.012 10e-4,0.012 10e-4,0.013 0.001,0.013 0,0.014 c 0,0.297 -0.266,0.297 -0.5,0.297 h -9.375 c -0.219,0 -0.5,0 -0.5,-0.281 0,-0.313 0.266,-0.313 0.5,-0.313 z"
   id="path27"
   inkscape:connector-curvature="0"
   style="fill:#000000;stroke-width:0" />
<path
   d="m 65.125,16.855 0.01,-0.041 0.011,-0.04 0.023,-0.077 0.027,-0.074 0.03,-0.07 0.032,-0.065 0.034,-0.063 0.037,-0.058 0.039,-0.056 0.041,-0.052 0.042,-0.048 0.044,-0.046 0.046,-0.042 0.046,-0.039 0.048,-0.037 0.048,-0.034 0.049,-0.031 0.05,-0.028 0.05,-0.026 0.05,-0.023 0.05,-0.021 0.05,-0.019 0.05,-0.017 0.049,-0.015 0.048,-0.012 0.048,-0.011 0.046,-0.01 0.045,-0.007 0.044,-0.006 0.042,-0.004 0.04,-0.003 0.039,-0.002 0.036,-0.001 c 0.515,0 0.89,0.328 1.156,0.875 0.266,0.563 0.469,1.5 0.469,1.547 0,0.094 -0.063,0.156 -0.156,0.156 -0.141,0 -0.157,-0.078 -0.219,-0.328 -0.297,-1.093 -0.578,-1.937 -1.219,-1.937 -0.469,0 -0.469,0.531 -0.469,0.734 0,0.36 0.047,0.531 0.203,1.188 0.11,0.437 0.219,0.859 0.313,1.312 l 0.656,2.578 c 0.109,0.407 0.109,0.438 0.109,0.485 0,0.234 -0.187,0.39 -0.421,0.39 -0.469,0 -0.579,-0.39 -0.672,-0.781 -0.157,-0.625 -1.016,-4.047 -1.125,-4.594 -0.016,0 -0.641,-1.312 -1.797,-1.312 -0.828,0 -0.985,0.719 -0.985,1.312 0,0.907 0.438,2.172 0.86,3.235 0.187,0.515 0.266,0.718 0.266,1.031 0,0.687 -0.485,1.281 -1.25,1.281 -1.469,0 -2.063,-2.312 -2.063,-2.437 0,-0.063 0.078,-0.141 0.187,-0.141 0.141,0 0.157,0.063 0.219,0.281 0.375,1.375 1,1.969 1.61,1.969 0.156,0 0.406,-0.016 0.406,-0.516 0,-0.421 -0.172,-0.875 -0.406,-1.484 -0.703,-1.891 -0.782,-2.5 -0.782,-2.969 0,-1.625 1.219,-1.875 1.875,-1.875 1.016,0 1.578,0.703 1.891,1.078 z"
   id="path29"
   inkscape:connector-curvature="0"
   style="fill:#000000;stroke-width:0" />
<path
   d="m 82.367,1.082 0,0.0058 0,0.0056 -0.001,0.0054 0,0.0053 -0.001,0.0051 -10e-4,0.005 L 82.363,1.1191 82.362,1.1238 82.36,1.1284 82.359,1.1329 82.357,1.1373 82.356,1.1416 82.354,1.1459 82.352,1.15 82.35,1.1541 82.348,1.1582 82.343,1.1662 82.338,1.174 82.333,1.1819 82.328,1.1897 82.322,1.1976 82.316,1.2057 82.311,1.214 82.305,1.2227 c -0.594,0.5781 -1.657,1.6562 -2.719,3.3593 -2.563,4.1094 -3.719,9.266 -3.719,15.391 0,4.281 0.578,9.797 3.188,14.531 1.265,2.25 2.562,3.562 3.265,4.25 0.047,0.047 0.047,0.078 0.047,0.141 0,0.156 -0.109,0.156 -0.328,0.156 -0.234,0 -0.266,0 -0.5,-0.25 -5.328,-4.844 -6.984,-12.125 -6.984,-18.813 0,-6.25 1.422,-12.5466 5.468,-17.2966 0.313,-0.3594 0.907,-1.0156 1.563,-1.5781 0.187,-0.20314 0.219,-0.20314 0.453,-0.20314 0.219,0 0.328,0 0.328,0.17184 z"
   id="path31"
   inkscape:connector-curvature="0"
   style="fill:#000000;stroke-width:0" />
<path
   d="m 92.547,37.359 0.001,0.006 0.002,0.006 0.002,0.007 10e-4,0.006 0.004,0.014 0.004,0.013 0.004,0.015 0.004,0.014 0.003,0.015 0.004,0.016 0.004,0.015 0.003,0.016 0.003,0.015 0.003,0.016 0.002,0.015 0.001,0.016 0.001,0.007 0,0.008 10e-4,0.007 0,0.008 c 0,0.156 -0.156,0.156 -0.188,0.156 -0.031,0 -0.797,-0.062 -0.875,-0.078 -0.281,-0.016 -0.515,-0.047 -0.797,-0.063 -0.406,-0.031 -0.515,-0.047 -0.515,-0.343 0,-0.157 0.125,-0.157 0.359,-0.157 0.766,0 0.781,-0.14 0.781,-0.297 0,-0.093 -0.031,-0.218 -0.047,-0.265 l -0.968,-3.875 c -0.172,0.422 -0.594,1.062 -1.422,1.062 -1.797,0 -3.734,-2.328 -3.734,-4.672 0,-1.578 0.921,-2.5 2,-2.5 l 0.046,0.313 c -0.656,0 -1.015,0.594 -1.015,1.531 0,0.875 0.484,2.656 0.797,3.313 0.531,1.125 1.281,1.687 1.906,1.687 1.047,0 1.25,-1.297 1.25,-1.422 0,-0.015 -0.047,-0.234 -0.063,-0.265 l -0.781,-3.11 C 89.25,28.344 89.25,28.312 89.031,28 88.672,27.562 87.984,26.875 87.234,26.875 l -0.046,-0.313 c 0.874,0 1.624,0.688 2.062,1.204 0.156,-0.938 0.906,-1.204 1.391,-1.204 0.468,0 0.859,0.282 1.14,0.86 0.25,0.531 0.469,1.5 0.469,1.562 0,0.094 -0.062,0.157 -0.156,0.157 -0.141,0 -0.156,-0.079 -0.219,-0.329 -0.234,-0.937 -0.547,-1.937 -1.187,-1.937 -0.469,0 -0.5,0.422 -0.5,0.734 0,0.063 0,0.391 0.109,0.844 z"
   id="path33"
   inkscape:connector-curvature="0"
   style="fill:#000000;stroke-width:0" />
<path
   d="m 99.922,32.656 0,0.047 -0.002,0.046 -0.001,0.044 -0.003,0.043 -0.003,0.041 -0.004,0.04 -0.004,0.039 -0.006,0.038 -0.005,0.037 -0.006,0.035 -0.007,0.034 -0.008,0.033 -0.007,0.032 -0.009,0.03 -0.008,0.03 -0.01,0.028 -0.009,0.028 -0.01,0.026 -0.011,0.025 -0.011,0.024 -0.011,0.024 -0.011,0.022 -0.012,0.021 -0.012,0.021 -0.012,0.019 -0.013,0.019 -0.025,0.035 -0.027,0.031 -0.027,0.028 -0.027,0.025 -0.027,0.023 -0.028,0.02 -0.027,0.017 -0.027,0.015 -0.027,0.013 -0.026,0.011 -0.025,0.009 -0.024,0.007 -0.023,0.006 -0.022,0.004 -0.02,0.004 -0.019,0.002 -0.017,10e-4 -0.015,0.001 -0.013,0 c -0.375,0 -0.734,-0.39 -0.734,-0.703 0,-0.187 0.125,-0.297 0.187,-0.375 0.157,-0.14 0.563,-0.562 0.563,-1.39 0,-0.672 -0.953,-4.391 -2.859,-4.391 -0.969,0 -1.157,0.813 -1.157,1.406 0,0.797 0.36,1.907 0.797,3.047 0.25,0.656 0.313,0.813 0.313,1.125 0,0.672 -0.469,1.281 -1.25,1.281 -1.469,0 -2.063,-2.312 -2.063,-2.437 0,-0.063 0.078,-0.141 0.188,-0.141 0.14,0 0.156,0.063 0.218,0.282 0.375,1.374 1,1.968 1.61,1.968 0.14,0 0.406,0 0.406,-0.515 0,-0.422 -0.172,-0.875 -0.406,-1.485 -0.766,-2.031 -0.766,-2.531 -0.766,-2.906 0,-0.344 0.047,-1 0.531,-1.453 0.579,-0.485 1.375,-0.485 1.516,-0.485 2.641,0 3.547,5.188 3.547,6.094 z"
   id="path35"
   inkscape:connector-curvature="0"
   style="fill:#000000;stroke-width:0" />
<line
   x1="84.171997"
   y1="19.917999"
   x2="101.15"
   y2="19.917999"
   id="line37"
   style="stroke-width:0.63800001" />
<path
   d="m 92.172,15.641 0.001,0.006 0.002,0.006 0.002,0.006 10e-4,0.006 0.004,0.014 0.004,0.014 0.004,0.014 0.004,0.015 0.003,0.015 0.004,0.015 0.004,0.015 0.003,0.016 0.003,0.016 0.003,0.015 0.002,0.016 0.001,0.015 0.001,0.008 0,0.007 10e-4,0.008 0,0.007 c 0,0.156 -0.157,0.156 -0.188,0.156 -0.031,0 -0.797,-0.062 -0.875,-0.078 -0.281,-0.015 -0.515,-0.047 -0.797,-0.062 -0.406,-0.032 -0.515,-0.047 -0.515,-0.344 0,-0.156 0.125,-0.156 0.359,-0.156 0.766,0 0.781,-0.141 0.781,-0.297 0,-0.094 -0.031,-0.219 -0.046,-0.266 l -0.969,-3.875 c -0.172,0.422 -0.594,1.063 -1.422,1.063 -1.797,0 -3.735,-2.3285 -3.735,-4.6722 0,-1.5782 0.922,-2.5 2,-2.5 l 0.047,0.3124 c -0.656,0 -1.015,0.5938 -1.015,1.5313 0,0.875 0.484,2.6563 0.797,3.3125 0.531,1.125 1.281,1.688 1.906,1.688 1.047,0 1.25,-1.297 1.25,-1.422 0,-0.016 -0.047,-0.235 -0.063,-0.266 L 88.953,6.8906 C 88.875,6.625 88.875,6.5938 88.656,6.2812 88.297,5.8438 87.609,5.1562 86.859,5.1562 L 86.812,4.8438 c 0.876,0 1.626,0.6874 2.063,1.2031 0.156,-0.9375 0.906,-1.2031 1.391,-1.2031 0.468,0 0.859,0.2812 1.14,0.8593 0.25,0.5313 0.469,1.5 0.469,1.5625 0,0.0938 -0.063,0.1563 -0.156,0.1563 -0.141,0 -0.157,-0.0781 -0.219,-0.3281 -0.234,-0.9376 -0.547,-1.9376 -1.188,-1.9376 -0.468,0 -0.5,0.4219 -0.5,0.7344 0,0.0625 0,0.3906 0.11,0.8438 z"
   id="path39"
   inkscape:connector-curvature="0"
   style="fill:#000000;stroke-width:0" />
<path
   d="M 99.812,11.484 99.766,11.475 99.722,11.464 99.68,11.451 99.639,11.437 99.6,11.421 99.562,11.404 99.526,11.386 99.492,11.367 99.459,11.346 99.428,11.325 99.398,11.302 99.37,11.278 99.344,11.254 99.319,11.229 99.295,11.203 99.273,11.176 99.253,11.148 99.234,11.12 99.216,11.092 99.2,11.063 l -0.015,-0.029 -0.013,-0.03 -0.012,-0.03 -0.011,-0.03 -0.009,-0.03 -0.009,-0.031 -0.006,-0.03 -0.006,-0.03 -0.004,-0.031 -0.003,-0.03 -0.002,-0.029 -0.001,-0.03 c 0,-0.375 0.313,-0.5 0.532,-0.5 0.469,0 0.809,0.406 0.809,0.844 0,0.656 -0.762,0.969 -1.434,0.969 -0.969,0 -1.5,-0.954 -1.641,-1.266 -0.375,1.203 -1.359,1.266 -1.641,1.266 -1.625,0 -2.484,-2.0941 -2.484,-2.4379 0,-0.0625 0.062,-0.1406 0.172,-0.1406 0.125,0 0.156,0.0937 0.187,0.1563 0.547,1.7652 1.61,2.0942 2.079,2.0942 0.703,0 0.859,-0.657 0.859,-1.047 0,-0.344 -0.094,-0.7191 -0.297,-1.4691 L 95.719,6.9844 c -0.25,-0.9532 -0.703,-1.8282 -1.547,-1.8282 -0.078,0 -0.469,0 -0.813,0.2032 0.579,0.125 0.703,0.5937 0.703,0.7812 0,0.3282 -0.234,0.5156 -0.546,0.5156 -0.375,0 -0.797,-0.3437 -0.797,-0.8437 0,-0.6719 0.75,-0.9687 1.437,-0.9687 0.766,0 1.297,0.5937 1.641,1.25 0.25,-0.9376 1.047,-1.25 1.641,-1.25 1.609,0 2.468,2.0781 2.468,2.4218 0,0.0938 -0.062,0.1563 -0.156,0.1563 -0.141,0 -0.156,-0.0781 -0.203,-0.2188 -0.438,-1.3906 -1.359,-2.0469 -2.063,-2.0469 -0.562,0 -0.859,0.4219 -0.859,1.0626 0,0.3593 0.063,0.6093 0.313,1.6562 l 0.562,2.156 c 0.234,0.953 0.766,1.657 1.5,1.657 0.031,0 0.484,0 0.812,-0.204 z"
   id="path41"
   inkscape:connector-curvature="0"
   style="fill:#000000;stroke-width:0" />
<path
   d="m 110.72,19.973 -0.01,1.172 -0.06,1.171 -0.08,1.167 -0.13,1.161 -0.17,1.153 -0.21,1.143 -0.25,1.129 -0.3,1.115 -0.35,1.096 -0.19,0.541 -0.21,0.536 -0.21,0.53 -0.23,0.525 -0.25,0.518 -0.25,0.512 -0.27,0.505 -0.29,0.498 -0.3,0.491 -0.31,0.483 -0.33,0.475 -0.34,0.467 -0.35,0.459 -0.38,0.45 c -0.31,0.359 -0.92,1.015 -1.57,1.578 -0.19,0.203 -0.22,0.203 -0.44,0.203 -0.19,0 -0.33,0 -0.33,-0.156 0,-0.079 0.06,-0.141 0.09,-0.172 0.55,-0.563 1.61,-1.625 2.69,-3.344 2.55,-4.109 3.72,-9.266 3.72,-15.391 0,-4.281 -0.58,-9.797 -3.2,-14.531 -1.25,-2.25 -2.58,-3.5781 -3.24,-4.2343 -0.03,-0.0469 -0.06,-0.0938 -0.06,-0.1407 0,-0.17184 0.14,-0.17184 0.33,-0.17184 0.22,0 0.25,0 0.48,0.25004 5.33,4.8437 7,12.1248 7,18.8128 z"
   id="path43"
   inkscape:connector-curvature="0"
   style="fill:#000000;stroke-width:0" />
<path
   d="m 123.97,19.605 h 4.39 c 0.22,0 0.5,0 0.5,0.282 0,0.312 -0.27,0.312 -0.5,0.312 h -4.39 v 4.375 c 0,0.235 0,0.516 -0.28,0.516 -0.31,0 -0.31,-0.266 -0.31,-0.516 v -4.375 h -4.4 c -0.21,0 -0.5,0 -0.5,-0.297 0,-0.297 0.27,-0.297 0.5,-0.297 h 4.4 v -4.39 c 0,-0.219 0,-0.5 0.29,-0.5 0.3,0 0.3,0.266 0.3,0.5 z"
   id="path45"
   inkscape:connector-curvature="0"
   style="fill:#000000;stroke-width:0" />
<path
   d="m 140.57,21.871 0,0.047 0,0.046 0,0.044 -0.01,0.043 0,0.041 0,0.04 -0.01,0.039 0,0.038 -0.01,0.036 0,0.036 -0.01,0.034 -0.01,0.033 -0.01,0.031 0,0.031 -0.01,0.03 -0.01,0.028 -0.01,0.027 -0.01,0.027 -0.01,0.025 -0.01,0.024 -0.01,0.023 -0.02,0.023 -0.01,0.021 -0.01,0.021 -0.01,0.019 -0.01,0.019 -0.03,0.034 -0.03,0.032 -0.02,0.028 -0.03,0.025 -0.03,0.023 -0.03,0.02 -0.02,0.017 -0.03,0.015 -0.03,0.013 -0.02,0.011 -0.03,0.009 -0.02,0.007 -0.02,0.006 -0.03,0.004 -0.02,0.004 -0.02,0.002 -0.01,0.001 -0.02,0.001 -0.01,0 c -0.38,0 -0.73,-0.39 -0.73,-0.703 0,-0.187 0.12,-0.297 0.18,-0.375 0.16,-0.141 0.57,-0.562 0.57,-1.391 0,-0.671 -0.96,-4.39 -2.86,-4.39 -0.97,0 -1.16,0.812 -1.16,1.406 0,0.797 0.36,1.906 0.8,3.047 0.25,0.656 0.31,0.812 0.31,1.125 0,0.672 -0.47,1.281 -1.25,1.281 -1.47,0 -2.06,-2.312 -2.06,-2.437 0,-0.063 0.07,-0.141 0.18,-0.141 0.14,0 0.16,0.063 0.22,0.281 0.38,1.375 1,1.969 1.61,1.969 0.14,0 0.41,0 0.41,-0.516 0,-0.421 -0.17,-0.875 -0.41,-1.484 -0.76,-2.031 -0.76,-2.531 -0.76,-2.906 0,-0.344 0.04,-1 0.53,-1.453 0.58,-0.485 1.37,-0.485 1.51,-0.485 2.64,0 3.55,5.188 3.55,6.094 z"
   id="path47"
   inkscape:connector-curvature="0"
   style="fill:#000000;stroke-width:0" />
<path
   d="m 155.21,1.082 0,0.0058 0,0.0056 0,0.0054 0,0.0053 -0.01,0.0051 0,0.005 0,0.0049 0,0.0047 0,0.0046 0,0.0045 0,0.0044 0,0.0043 -0.01,0.0043 0,0.0041 0,0.0041 0,0.0041 -0.01,0.008 0,0.0078 -0.01,0.0079 0,0.0078 -0.01,0.0079 0,0.0081 -0.01,0.0083 0,0.0087 c -0.6,0.5781 -1.66,1.6562 -2.72,3.3593 -2.57,4.1094 -3.72,9.266 -3.72,15.391 0,4.281 0.58,9.797 3.19,14.531 1.26,2.25 2.56,3.562 3.26,4.25 0.05,0.047 0.05,0.078 0.05,0.141 0,0.156 -0.11,0.156 -0.33,0.156 -0.23,0 -0.27,0 -0.5,-0.25 -5.33,-4.844 -6.98,-12.125 -6.98,-18.813 0,-6.25 1.42,-12.5466 5.46,-17.2966 0.32,-0.3594 0.91,-1.0156 1.57,-1.5781 0.18,-0.20314 0.22,-0.20314 0.45,-0.20314 0.22,0 0.33,0 0.33,0.17184 z"
   id="path49"
   inkscape:connector-curvature="0"
   style="fill:#000000;stroke-width:0" />
<path
   d="m 165.01,37.359 0,0.006 0,0.006 0.01,0.007 0,0.006 0,0.014 0.01,0.013 0,0.015 0,0.014 0.01,0.015 0,0.016 0,0.015 0.01,0.016 0,0.015 0,0.016 0.01,0.015 0,0.016 0,0.007 0,0.008 0,0.007 0,0.008 c 0,0.156 -0.16,0.156 -0.19,0.156 -0.03,0 -0.8,-0.062 -0.87,-0.078 -0.29,-0.016 -0.52,-0.047 -0.8,-0.063 -0.41,-0.031 -0.52,-0.047 -0.52,-0.343 0,-0.157 0.13,-0.157 0.36,-0.157 0.77,0 0.78,-0.14 0.78,-0.297 0,-0.093 -0.03,-0.218 -0.04,-0.265 l -0.97,-3.875 c -0.17,0.422 -0.6,1.062 -1.42,1.062 -1.8,0 -3.74,-2.328 -3.74,-4.672 0,-1.578 0.92,-2.5 2,-2.5 l 0.05,0.313 c -0.66,0 -1.02,0.594 -1.02,1.531 0,0.875 0.49,2.656 0.8,3.313 0.53,1.125 1.28,1.687 1.91,1.687 1.04,0 1.25,-1.297 1.25,-1.422 0,-0.015 -0.05,-0.234 -0.07,-0.265 l -0.78,-3.11 c -0.08,-0.265 -0.08,-0.297 -0.29,-0.609 -0.36,-0.438 -1.05,-1.125 -1.8,-1.125 l -0.05,-0.313 c 0.88,0 1.63,0.688 2.06,1.204 0.16,-0.938 0.91,-1.204 1.39,-1.204 0.47,0 0.86,0.282 1.15,0.86 0.25,0.531 0.46,1.5 0.46,1.562 0,0.094 -0.06,0.157 -0.15,0.157 -0.14,0 -0.16,-0.079 -0.22,-0.329 -0.24,-0.937 -0.55,-1.937 -1.19,-1.937 -0.47,0 -0.5,0.422 -0.5,0.734 0,0.063 0,0.391 0.11,0.844 z"
   id="path51"
   inkscape:connector-curvature="0"
   style="fill:#000000;stroke-width:0" />
<path
   d="m 170.54,27.641 0.01,-0.042 0.01,-0.04 0.02,-0.077 0.03,-0.074 0.03,-0.069 0.03,-0.066 0.04,-0.063 0.03,-0.058 0.04,-0.056 0.04,-0.051 0.05,-0.049 0.04,-0.046 0.04,-0.042 0.05,-0.039 0.05,-0.037 0.05,-0.033 0.05,-0.031 0.05,-0.029 0.05,-0.026 0.05,-0.023 0.05,-0.021 0.05,-0.019 0.05,-0.017 0.05,-0.015 0.04,-0.012 0.05,-0.011 0.05,-0.009 0.04,-0.008 0.05,-0.006 0.04,-0.004 0.04,-0.003 0.04,-0.002 0.03,-10e-4 c 0.52,0 0.89,0.329 1.16,0.876 0.26,0.562 0.47,1.5 0.47,1.546 0,0.094 -0.06,0.157 -0.16,0.157 -0.14,0 -0.15,-0.079 -0.22,-0.329 -0.29,-1.093 -0.58,-1.937 -1.22,-1.937 -0.46,0 -0.46,0.531 -0.46,0.734 0,0.36 0.04,0.532 0.2,1.188 0.11,0.437 0.22,0.859 0.31,1.312 l 0.66,2.579 c 0.11,0.406 0.11,0.437 0.11,0.484 0,0.234 -0.19,0.39 -0.43,0.39 -0.46,0 -0.57,-0.39 -0.67,-0.781 -0.15,-0.625 -1.01,-4.047 -1.12,-4.593 -0.02,0 -0.64,-1.313 -1.8,-1.313 -0.83,0 -0.98,0.719 -0.98,1.313 0,0.906 0.43,2.171 0.86,3.234 0.18,0.516 0.26,0.719 0.26,1.031 0,0.688 -0.48,1.281 -1.25,1.281 -1.47,0 -2.06,-2.312 -2.06,-2.437 0,-0.063 0.08,-0.141 0.19,-0.141 0.14,0 0.15,0.063 0.22,0.282 0.37,1.374 1,1.968 1.6,1.968 0.16,0 0.41,-0.015 0.41,-0.515 0,-0.422 -0.17,-0.875 -0.41,-1.485 -0.7,-1.89 -0.78,-2.5 -0.78,-2.968 0,-1.626 1.22,-1.876 1.88,-1.876 1.01,0 1.58,0.704 1.89,1.079 z"
   id="path53"
   inkscape:connector-curvature="0"
   style="fill:#000000;stroke-width:0" />
<line
   x1="157.00999"
   y1="19.917999"
   x2="174"
   y2="19.917999"
   id="line55"
   style="stroke-width:0.63800001" />
<path
   d="m 165.02,15.641 0,0.006 0,0.006 0,0.006 0,0.006 0.01,0.014 0,0.014 0,0.014 0.01,0.015 0,0.015 0,0.015 0.01,0.015 0,0.016 0,0.016 0.01,0.015 0,0.016 0,0.015 0,0.008 0,0.007 0,0.008 0,0.007 c 0,0.156 -0.15,0.156 -0.18,0.156 -0.04,0 -0.8,-0.062 -0.88,-0.078 -0.28,-0.015 -0.52,-0.047 -0.8,-0.062 -0.4,-0.032 -0.51,-0.047 -0.51,-0.344 0,-0.156 0.12,-0.156 0.36,-0.156 0.76,0 0.78,-0.141 0.78,-0.297 0,-0.094 -0.03,-0.219 -0.05,-0.266 l -0.97,-3.875 c -0.17,0.422 -0.59,1.063 -1.42,1.063 -1.8,0 -3.73,-2.3285 -3.73,-4.6722 0,-1.5782 0.92,-2.5 2,-2.5 l 0.04,0.3124 c -0.65,0 -1.01,0.5938 -1.01,1.5313 0,0.875 0.48,2.6563 0.79,3.3125 0.54,1.125 1.29,1.688 1.91,1.688 1.05,0 1.25,-1.297 1.25,-1.422 0,-0.016 -0.05,-0.235 -0.06,-0.266 L 161.8,6.8906 c -0.08,-0.2656 -0.08,-0.2968 -0.3,-0.6094 -0.36,-0.4374 -1.05,-1.125 -1.8,-1.125 l -0.04,-0.3124 c 0.87,0 1.62,0.6874 2.06,1.2031 0.16,-0.9375 0.9,-1.2031 1.39,-1.2031 0.47,0 0.86,0.2812 1.14,0.8593 0.25,0.5313 0.47,1.5 0.47,1.5625 0,0.0938 -0.06,0.1563 -0.16,0.1563 -0.14,0 -0.15,-0.0781 -0.22,-0.3281 -0.23,-0.9376 -0.54,-1.9376 -1.18,-1.9376 -0.47,0 -0.5,0.4219 -0.5,0.7344 0,0.0625 0,0.3906 0.11,0.8438 z"
   id="path57"
   inkscape:connector-curvature="0"
   style="fill:#000000;stroke-width:0" />
<path
   d="m 172.66,11.484 -0.05,-0.009 -0.04,-0.011 -0.05,-0.013 -0.04,-0.014 -0.04,-0.016 -0.03,-0.017 -0.04,-0.018 -0.03,-0.019 -0.04,-0.021 -0.03,-0.021 -0.03,-0.023 -0.03,-0.024 -0.02,-0.024 -0.03,-0.025 -0.02,-0.026 -0.02,-0.027 -0.02,-0.028 -0.02,-0.028 -0.02,-0.028 -0.02,-0.029 -0.01,-0.029 -0.01,-0.03 -0.02,-0.03 -0.01,-0.03 -0.01,-0.03 0,-0.031 -0.01,-0.03 -0.01,-0.03 0,-0.031 0,-0.03 -0.01,-0.029 0,-0.03 c 0,-0.375 0.32,-0.5 0.53,-0.5 0.47,0 0.82,0.406 0.82,0.844 0,0.656 -0.77,0.969 -1.44,0.969 -0.97,0 -1.5,-0.954 -1.64,-1.266 -0.38,1.203 -1.36,1.266 -1.64,1.266 -1.63,0 -2.49,-2.0941 -2.49,-2.4379 0,-0.0625 0.07,-0.1406 0.18,-0.1406 0.12,0 0.15,0.0937 0.18,0.1563 0.55,1.7652 1.61,2.0942 2.08,2.0942 0.7,0 0.86,-0.657 0.86,-1.047 0,-0.344 -0.09,-0.7191 -0.3,-1.4691 l -0.53,-2.1875 c -0.25,-0.9532 -0.7,-1.8282 -1.54,-1.8282 -0.08,0 -0.47,0 -0.82,0.2032 0.58,0.125 0.71,0.5937 0.71,0.7812 0,0.3282 -0.24,0.5156 -0.55,0.5156 -0.38,0 -0.8,-0.3437 -0.8,-0.8437 0,-0.6719 0.75,-0.9687 1.44,-0.9687 0.77,0 1.3,0.5937 1.64,1.25 0.25,-0.9376 1.05,-1.25 1.64,-1.25 1.61,0 2.47,2.0781 2.47,2.4218 0,0.0938 -0.06,0.1563 -0.16,0.1563 -0.14,0 -0.15,-0.0781 -0.2,-0.2188 -0.44,-1.3906 -1.36,-2.0469 -2.06,-2.0469 -0.56,0 -0.86,0.4219 -0.86,1.0626 0,0.3593 0.06,0.6093 0.31,1.6562 l 0.56,2.156 c 0.24,0.953 0.77,1.657 1.5,1.657 0.04,0 0.49,0 0.82,-0.204 z"
   id="path59"
   inkscape:connector-curvature="0"
   style="fill:#000000;stroke-width:0" />
<path
   d="m 183.57,19.973 -0.01,1.172 -0.06,1.171 -0.08,1.167 -0.13,1.161 -0.17,1.153 -0.21,1.143 -0.25,1.129 -0.3,1.115 -0.35,1.096 -0.19,0.541 -0.21,0.536 -0.21,0.53 -0.23,0.525 -0.25,0.518 -0.25,0.512 -0.27,0.505 -0.29,0.498 -0.3,0.491 -0.31,0.483 -0.33,0.475 -0.34,0.467 -0.35,0.459 -0.38,0.45 c -0.31,0.359 -0.92,1.015 -1.57,1.578 -0.19,0.203 -0.22,0.203 -0.44,0.203 -0.19,0 -0.33,0 -0.33,-0.156 0,-0.079 0.06,-0.141 0.09,-0.172 0.55,-0.563 1.61,-1.625 2.69,-3.344 2.55,-4.109 3.72,-9.266 3.72,-15.391 0,-4.281 -0.58,-9.797 -3.2,-14.531 -1.25,-2.25 -2.58,-3.5781 -3.24,-4.2343 -0.03,-0.0469 -0.06,-0.0938 -0.06,-0.1407 0,-0.17184 0.14,-0.17184 0.33,-0.17184 0.22,0 0.25,0 0.48,0.25004 5.33,4.8437 7,12.1248 7,18.8128 z"
   id="path61"
   inkscape:connector-curvature="0"
   style="fill:#000000;stroke-width:0" />
</g></svg>
