<?xml version="1.0" encoding="UTF-8" standalone="no"?>
<svg
   xmlns:dc="http://purl.org/dc/elements/1.1/"
   xmlns:cc="http://creativecommons.org/ns#"
   xmlns:rdf="http://www.w3.org/1999/02/22-rdf-syntax-ns#"
   xmlns:svg="http://www.w3.org/2000/svg"
   xmlns="http://www.w3.org/2000/svg"
   xmlns:sodipodi="http://sodipodi.sourceforge.net/DTD/sodipodi-0.dtd"
   xmlns:inkscape="http://www.inkscape.org/namespaces/inkscape"
   version="1.1"
   id="body"
   width="435.19254"
   height="41.251049"
   viewBox="0 0 0.60443408 0.057293124"
   preserveAspectRatio="none"
   inkscape:version="0.48.3.1 r9886"
   sodipodi:docname="ch2-Z-G-45.svg">
  <metadata
     id="metadata105">
    <rdf:RDF>
      <cc:Work
         rdf:about="">
        <dc:format>image/svg+xml</dc:format>
        <dc:type
           rdf:resource="http://purl.org/dc/dcmitype/StillImage" />
      </cc:Work>
    </rdf:RDF>
  </metadata>
  <defs
     id="defs103" />
  <sodipodi:namedview
     pagecolor="#ffffff"
     bordercolor="#666666"
     borderopacity="1"
     objecttolerance="10"
     gridtolerance="10"
     guidetolerance="10"
     inkscape:pageopacity="0"
     inkscape:pageshadow="2"
     inkscape:window-width="640"
     inkscape:window-height="480"
     id="namedview101"
     showgrid="false"
     inkscape:zoom="0.32777778"
     inkscape:cx="382.26563"
     inkscape:cy="459.83713"
     inkscape:window-x="0"
     inkscape:window-y="24"
     inkscape:window-maximized="0"
     inkscape:current-layer="body" />
  <title
     id="title3">SVG drawing</title>
  <desc
     id="desc5">This was produced by version 4.4 of GNU libplot, a free library for exporting 2-D vector graphics.</desc>
  <g
     id="content"
     transform="matrix(0.0017361,0,0,-0.0017361,-3.2551875e-4,0.05740163)"
     xml:space="preserve"
     stroke-miterlimit="10.433"
     font-style="normal"
     font-variant="normal"
     font-weight="normal"
     font-stretch="normal"
     font-size-adjust="none"
     letter-spacing="normal"
     word-spacing="normal"
     style="font-style:normal;font-variant:normal;font-weight:normal;font-stretch:normal;letter-spacing:normal;word-spacing:normal;text-anchor:start;fill:none;stroke:#000000;stroke-linecap:butt;stroke-linejoin:miter;stroke-miterlimit:10.43299961;stroke-opacity:1;stroke-dasharray:none;stroke-dashoffset:0">
<path
   d="m 9.2773,32.621 0.0015,0.006 0.0016,0.006 0.0017,0.006 0.0017,0.007 0.0037,0.013 0.0038,0.014 0.0038,0.014 0.0039,0.015 0.0039,0.015 0.0037,0.015 0.0036,0.016 0.0033,0.015 0.003,0.016 0.0026,0.016 0.0021,0.015 0.0016,0.016 6e-4,0.007 5e-4,0.008 2e-4,0.007 10e-5,0.007 c 0,0.157 -0.1562,0.157 -0.1875,0.157 -0.0312,0 -0.7969,-0.063 -0.875,-0.078 C 7.9805,32.918 7.7461,32.887 7.4648,32.871 7.0586,32.84 6.9492,32.824 6.9492,32.527 c 0,-0.156 0.125,-0.156 0.3594,-0.156 0.7656,0 0.7812,-0.141 0.7812,-0.297 0,-0.094 -0.0312,-0.219 -0.0468,-0.265 L 7.0742,27.934 c -0.1719,0.421 -0.5937,1.062 -1.4219,1.062 -1.7968,0 -3.7343,-2.328 -3.7343,-4.672 0,-1.578 0.9218,-2.5 2,-2.5 l 0.0468,0.313 c -0.6562,0 -1.0156,0.593 -1.0156,1.531 0,0.875 0.4844,2.656 0.7969,3.312 0.5312,1.125 1.2812,1.688 1.9062,1.688 1.0469,0 1.25,-1.297 1.25,-1.422 0,-0.016 -0.0468,-0.234 -0.0625,-0.266 L 6.0586,23.871 C 5.9805,23.605 5.9805,23.574 5.7617,23.262 5.4023,22.824 4.7148,22.137 3.9648,22.137 L 3.918,21.824 c 0.875,0 1.625,0.688 2.0625,1.203 0.1562,-0.937 0.9062,-1.203 1.3906,-1.203 0.4687,0 0.8594,0.281 1.1406,0.86 0.25,0.531 0.4688,1.5 0.4688,1.562 0,0.094 -0.0625,0.156 -0.1563,0.156 -0.1406,0 -0.1562,-0.078 -0.2187,-0.328 -0.2344,-0.937 -0.5469,-1.937 -1.1875,-1.937 -0.4688,0 -0.5,0.422 -0.5,0.734 0,0.063 0,0.391 0.1093,0.844 z"
   id="path9"
   inkscape:connector-curvature="0"
   style="fill:#000000;stroke-width:0" />
<path
   d="m 15.602,27.949 -0.029,0 -0.028,0 -0.027,0 -0.026,0 -0.025,-0.001 -0.025,0 -0.023,-0.001 -0.023,-10e-4 -0.023,-0.001 -0.022,-0.002 -0.021,-0.001 -0.021,-0.003 -0.02,-0.002 -0.02,-0.004 L 15.25,27.93 15.23,27.926 15.212,27.921 15.193,27.916 15.174,27.91 15.156,27.903 15.138,27.896 15.12,27.888 15.101,27.88 15.083,27.87 15.065,27.86 15.046,27.849 15.027,27.837 15.009,27.824 14.989,27.81 14.97,27.795 14.95,27.779 14.93,27.762 c -0.094,-0.078 -0.266,-0.313 -0.266,-0.563 0,-0.328 0.234,-0.515 0.531,-0.515 0.391,0 0.813,0.312 0.813,0.953 0,0.765 -0.735,1.359 -1.828,1.359 -2.078,0 -4.157,-2.281 -4.157,-4.531 0,-1.391 0.86,-2.641 2.469,-2.641 2.172,0 3.531,1.688 3.531,1.891 0,0.094 -0.093,0.172 -0.156,0.172 -0.047,0 -0.062,-0.016 -0.203,-0.157 -1.016,-1.359 -2.531,-1.593 -3.141,-1.593 -1.093,0 -1.437,0.953 -1.437,1.75 0,0.562 0.266,2.093 0.844,3.187 0.406,0.735 1.265,1.594 2.265,1.594 0.203,0 1.078,-0.031 1.407,-0.719 z"
   id="path11"
   inkscape:connector-curvature="0"
   style="fill:#000000;stroke-width:0" />
<line
   x1="0.19922"
   y1="15.18"
   x2="17.18"
   y2="15.18"
   id="line13"
   style="stroke-width:0.63800001" />
<path
   d="m 8.1992,10.902 0.0015,0.006 0.0016,0.006 0.0017,0.007 0.0017,0.006 0.0036,0.013 0.0038,0.014 0.0039,0.015 0.0039,0.014 0.0039,0.015 0.0037,0.016 0.0036,0.015 0.0033,0.016 0.003,0.015 0.0026,0.016 0.0021,0.015 0.0016,0.016 6e-4,0.007 4e-4,0.008 3e-4,0.007 10e-5,0.008 c 0,0.156 -0.1563,0.156 -0.1875,0.156 -0.0313,0 -0.7969,-0.062 -0.875,-0.078 C 6.9023,11.199 6.668,11.168 6.3867,11.152 5.9805,11.121 5.8711,11.106 5.8711,10.809 c 0,-0.157 0.125,-0.157 0.3594,-0.157 0.7656,0 0.7812,-0.14 0.7812,-0.296 0,-0.094 -0.0312,-0.219 -0.0469,-0.266 L 5.9961,6.2148 C 5.8242,6.6367 5.4023,7.2773 4.5742,7.2773 2.7773,7.2773 0.83984,4.9492 0.83984,2.6055 0.83984,1.0273 1.7617,0.10547 2.8398,0.10547 l 0.0469,0.3125 c -0.6562,0 -1.0156,0.59373 -1.0156,1.53123 0,0.875 0.4844,2.6563 0.7969,3.3125 0.5312,1.125 1.2812,1.6875 1.9062,1.6875 1.0469,0 1.25,-1.2969 1.25,-1.4219 0,-0.0156 -0.0469,-0.2343 -0.0625,-0.2656 L 4.9805,2.1523 C 4.9023,1.8867 4.9023,1.8555 4.6836,1.543 4.3242,1.1055 3.6367,0.41797 2.8867,0.41797 L 2.8398,0.10547 c 0.875,0 1.625,0.6875 2.0625,1.20313 0.1563,-0.93751 0.9063,-1.20313 1.3907,-1.20313 0.4687,0 0.8593,0.28125 1.1406,0.85937 0.25,0.53126 0.4687,1.49996 0.4687,1.56246 0,0.0938 -0.0625,0.1563 -0.1562,0.1563 C 7.6055,2.6836 7.5898,2.6055 7.5273,2.3555 7.293,1.418 6.9805,0.41797 6.3398,0.41797 c -0.4687,0 -0.5,0.42187 -0.5,0.73433 0,0.0625 0,0.3907 0.1094,0.8438 z"
   id="path15"
   inkscape:connector-curvature="0"
   style="fill:#000000;stroke-width:0" />
<path
   d="M 15.84,6.7461 15.794,6.7365 15.75,6.7253 15.707,6.7126 15.666,6.6984 15.627,6.6829 15.589,6.666 15.553,6.6478 15.519,6.6284 15.486,6.6079 15.455,6.5863 15.426,6.5637 15.398,6.5401 15.371,6.5156 15.346,6.4903 15.323,6.4643 15.301,6.4375 15.28,6.4101 15.261,6.3821 15.244,6.3536 15.227,6.3246 15.213,6.2953 15.199,6.2656 15.187,6.2357 15.176,6.2056 15.167,6.1753 15.159,6.1449 15.152,6.1146 15.146,6.0843 15.142,6.0541 l -0.003,-0.03 -0.002,-0.0298 0,-0.0295 c 0,-0.375 0.312,-0.5 0.531,-0.5 0.469,0 0.812,0.4063 0.812,0.8438 0,0.6562 -0.765,0.9687 -1.437,0.9687 -0.969,0 -1.5,-0.9531 -1.641,-1.2656 -0.375,1.2031 -1.359,1.2656 -1.64,1.2656 -1.625,0 -2.4847,-2.0937 -2.4847,-2.4375 0,-0.0625 0.0625,-0.1406 0.1719,-0.1406 0.125,0 0.1563,0.0938 0.1875,0.1563 0.5473,1.7656 1.6093,2.0937 2.0783,2.0937 0.703,0 0.859,-0.6562 0.859,-1.0469 0,-0.3437 -0.093,-0.7187 -0.297,-1.4687 L 11.746,2.2461 C 11.496,1.293 11.043,0.41797 10.199,0.41797 c -0.078,0 -0.4685,0 -0.8123,0.20312 0.5781,0.125 0.7033,0.59371 0.7033,0.78121 0,0.3282 -0.2345,0.5157 -0.547,0.5157 -0.375,0 -0.7969,-0.3438 -0.7969,-0.8438 0,-0.67186 0.75,-0.96873 1.4379,-0.96873 0.765,0 1.297,0.59375 1.64,1.25003 0.25,-0.93753 1.047,-1.25003 1.641,-1.25003 1.609,0 2.469,2.07813 2.469,2.42183 0,0.0938 -0.063,0.1563 -0.157,0.1563 -0.14,0 -0.156,-0.0781 -0.203,-0.2188 -0.437,-1.3906 -1.359,-2.04683 -2.062,-2.04683 -0.563,0 -0.86,0.42187 -0.86,1.06253 0,0.3593 0.063,0.6093 0.313,1.6562 l 0.562,2.1563 c 0.235,0.9531 0.766,1.6562 1.5,1.6562 0.032,0 0.485,0 0.813,-0.2031 z"
   id="path17"
   inkscape:connector-curvature="0"
   style="fill:#000000;stroke-width:0" />
<path
   d="m 33.539,16.352 0.042,0 0.042,0 0.043,0.001 0.022,0.002 0.021,0.001 0.022,0.002 0.021,0.002 0.021,0.003 0.02,0.003 0.021,0.004 0.019,0.005 0.019,0.006 0.019,0.006 0.018,0.007 0.017,0.008 0.017,0.008 0.016,0.01 0.014,0.011 0.014,0.012 0.013,0.013 0.012,0.014 0.005,0.008 0.005,0.008 0.005,0.008 0.005,0.008 0.004,0.009 0.004,0.01 0.003,0.009 0.004,0.01 0.002,0.01 0.003,0.011 0.002,0.011 0.002,0.011 10e-4,0.012 10e-4,0.012 0.001,0.013 0,0.013 c 0,0.297 -0.266,0.297 -0.5,0.297 h -9.375 c -0.219,0 -0.5,0 -0.5,-0.282 0,-0.296 0.266,-0.296 0.5,-0.296 z"
   id="path19"
   inkscape:connector-curvature="0"
   style="fill:#000000;stroke-width:0" />
<path
   d="m 33.539,13.383 0.042,0 0.042,0 0.043,0.002 0.022,10e-4 0.021,0.001 0.022,0.002 0.021,0.003 0.021,0.003 0.02,0.003 0.021,0.005 0.019,0.005 0.019,0.005 0.019,0.007 0.018,0.007 0.017,0.009 0.017,0.009 0.016,0.01 0.014,0.012 0.014,0.012 0.013,0.014 0.012,0.015 0.005,0.008 0.005,0.008 0.005,0.009 0.005,0.009 0.004,0.009 0.004,0.01 0.003,0.01 0.004,0.011 0.002,0.011 0.003,0.011 0.002,0.011 0.002,0.012 10e-4,0.013 10e-4,0.013 0.001,0.013 0,0.014 c 0,0.297 -0.266,0.297 -0.5,0.297 h -9.375 c -0.219,0 -0.5,0 -0.5,-0.282 0,-0.312 0.266,-0.312 0.5,-0.312 z"
   id="path21"
   inkscape:connector-curvature="0"
   style="fill:#000000;stroke-width:0" />
<path
   d="m 46.5,16.289 -10e-4,0.246 -0.003,0.245 -0.007,0.244 -0.01,0.243 -0.015,0.242 -0.019,0.242 -0.025,0.24 -0.031,0.239 -0.038,0.239 -0.046,0.237 -0.053,0.236 -0.062,0.234 -0.071,0.234 -0.081,0.232 -0.092,0.23 -0.049,0.115 -0.053,0.115 c -0.656,1.312 -1.797,1.656 -2.578,1.656 -0.922,0 -2.047,-0.453 -2.641,-1.766 -0.437,-1.015 -0.594,-2 -0.594,-3.703 0,-1.547 0.11,-2.703 0.672,-3.844 0.625,-1.203 1.719,-1.578 2.547,-1.578 v 0.313 c -0.5,0 -1.531,0.281 -1.844,2.015 -0.172,0.953 -0.172,2.172 -0.172,3.282 0,1.296 0,2.468 0.25,3.406 0.282,1.078 1.078,1.562 1.766,1.562 0.609,0 1.531,-0.359 1.828,-1.734 0.203,-0.906 0.203,-2.156 0.203,-3.234 0,-1.063 0,-2.282 -0.172,-3.25 -0.297,-1.75 -1.297,-2.047 -1.859,-2.047 h 0 v -0.313 c 1.391,0 2.188,0.828 2.641,1.75 0.578,1.188 0.609,2.75 0.609,3.672 z"
   id="path23"
   inkscape:connector-curvature="0"
   style="fill:#000000;stroke-width:0" />
<path
   d="m 55.105,17.586 h 1.797 v 0.453 h -1.828 v 1.859 c 0,1.438 0.735,2.172 1.375,2.172 0.141,0 0.375,-0.031 0.563,-0.125 -0.063,-0.015 -0.453,-0.172 -0.453,-0.625 0,-0.359 0.25,-0.625 0.609,-0.625 0.391,0 0.641,0.266 0.641,0.641 0,0.594 -0.579,1.047 -1.344,1.047 -1.11,0 -2.36,-0.86 -2.36,-2.485 v -1.859 h -1.234 v -0.453 h 1.234 v -5.219 c 0,-0.719 -0.171,-0.719 -1.203,-0.719 v -0.453 c 0.438,0.032 1.313,0.032 1.797,0.032 0.422,0 1.547,0 1.922,-0.032 v 0.453 h -0.328 c -1.156,0 -1.188,0.188 -1.188,0.75 z"
   id="path25"
   inkscape:connector-curvature="0"
   style="fill:#000000;stroke-width:0" />
<path
   d="m 64.438,14.602 -0.005,0.19 -0.013,0.188 -0.023,0.186 -0.03,0.182 -0.039,0.179 -0.047,0.175 -0.054,0.172 -0.062,0.167 -0.07,0.164 -0.076,0.159 -0.083,0.154 -0.09,0.15 -0.096,0.144 -0.102,0.139 -0.109,0.134 -0.113,0.128 -0.119,0.122 -0.125,0.115 -0.129,0.11 -0.134,0.102 -0.138,0.096 -0.143,0.088 -0.146,0.081 -0.151,0.074 -0.154,0.065 -0.157,0.058 -0.16,0.05 -0.163,0.041 -0.166,0.032 -0.168,0.023 -0.17,0.014 -0.172,0.005 -0.015,-0.328 c 0.625,0 1.296,-0.281 1.718,-0.906 0.5,-0.719 0.5,-1.735 0.5,-2.313 0,-0.562 0,-1.547 -0.422,-2.297 -0.437,-0.75 -1.171,-1.062 -1.781,-1.062 h 0 c -0.578,0 -1.297,0.25 -1.765,1.031 -0.422,0.719 -0.438,1.656 -0.438,2.328 0,0.594 0,1.578 0.484,2.281 0.454,0.688 1.157,0.938 1.704,0.938 l 0.015,0.328 c -1.906,0 -3.406,-1.687 -3.406,-3.687 0,-2.047 1.578,-3.563 3.391,-3.563 1.875,0 3.422,1.563 3.422,3.563 z"
   id="path27"
   inkscape:connector-curvature="0"
   style="fill:#000000;stroke-width:0" />
<path
   d="m 67.602,14.898 10e-4,0.145 0.006,0.144 0.009,0.142 0.014,0.142 0.016,0.139 0.021,0.138 0.024,0.136 0.028,0.133 0.031,0.131 0.035,0.128 0.039,0.125 0.043,0.121 0.046,0.118 0.049,0.115 0.053,0.11 0.057,0.106 0.061,0.101 0.064,0.097 0.067,0.091 0.071,0.086 0.075,0.081 0.078,0.075 0.081,0.069 0.085,0.063 0.089,0.056 0.092,0.05 0.095,0.043 0.099,0.035 0.102,0.028 0.106,0.02 0.109,0.013 0.113,0.004 c 0.125,0 0.156,0 0.219,-0.016 -0.125,-0.062 -0.375,-0.156 -0.375,-0.578 0,-0.469 0.359,-0.641 0.609,-0.641 0.328,0 0.641,0.204 0.641,0.641 0,0.469 -0.422,0.922 -1.11,0.922 -1.359,0 -1.812,-1.469 -1.906,-1.766 h -0.016 v 1.766 l -2.14,-0.188 V 17.57 c 1.094,0 1.219,-0.109 1.219,-0.89 v -4.313 c 0,-0.719 -0.172,-0.719 -1.219,-0.719 v -0.453 c 0.453,0.032 1.328,0.032 1.797,0.032 0.437,0 1.562,0 1.937,-0.032 v 0.453 h -0.328 c -1.156,0 -1.187,0.188 -1.187,0.75 z"
   id="path29"
   inkscape:connector-curvature="0"
   style="fill:#000000;stroke-width:0" />
<path
   d="m 82.441,17.164 -0.028,0 -0.028,0 -0.027,0 -0.026,0 -0.025,-0.001 -0.025,0 -0.024,-0.001 -0.023,-10e-4 -0.022,-0.001 -0.022,-0.002 -0.021,-0.002 -0.021,-0.002 -0.02,-0.002 -0.02,-0.004 -0.02,-0.003 -0.019,-0.004 -0.019,-0.005 -0.018,-0.005 -0.019,-0.006 -0.018,-0.007 -0.018,-0.007 -0.019,-0.008 -0.018,-0.009 -0.018,-0.009 -0.019,-0.01 -0.018,-0.011 -0.019,-0.013 -0.019,-0.013 -0.019,-0.013 -0.019,-0.015 -0.02,-0.016 -0.02,-0.017 c -0.094,-0.079 -0.266,-0.313 -0.266,-0.563 0,-0.328 0.234,-0.516 0.531,-0.516 0.391,0 0.813,0.313 0.813,0.954 0,0.765 -0.735,1.359 -1.828,1.359 -2.079,0 -4.157,-2.281 -4.157,-4.531 0,-1.391 0.86,-2.641 2.469,-2.641 2.172,0 3.531,1.688 3.531,1.891 0,0.093 -0.093,0.172 -0.156,0.172 -0.047,0 -0.062,-0.016 -0.203,-0.157 -1.016,-1.359 -2.531,-1.593 -3.141,-1.593 -1.093,0 -1.437,0.953 -1.437,1.75 0,0.562 0.265,2.093 0.844,3.187 0.406,0.734 1.265,1.594 2.265,1.594 0.203,0 1.078,-0.031 1.406,-0.719 z"
   id="path31"
   inkscape:connector-curvature="0"
   style="fill:#000000;stroke-width:0" />
<path
   d="m 94.285,15.445 0,0.159 -10e-4,0.153 -0.003,0.149 -0.007,0.144 -0.01,0.139 -0.007,0.069 -0.009,0.068 -0.01,0.066 -0.012,0.066 -0.013,0.065 -0.016,0.065 -0.017,0.064 -0.02,0.063 -0.022,0.062 -0.024,0.062 -0.028,0.062 -0.029,0.061 -0.033,0.06 -0.035,0.06 -0.039,0.06 -0.042,0.06 -0.045,0.059 -0.049,0.059 -0.052,0.059 -0.056,0.058 -0.06,0.059 -0.064,0.059 c -0.562,0.5 -1.266,0.734 -1.969,0.734 -1.312,0 -2.312,-0.859 -2.312,-1.891 0,-0.468 0.312,-0.687 0.672,-0.687 0.375,0 0.656,0.266 0.656,0.656 0,0.641 -0.578,0.641 -0.813,0.641 0.36,0.672 1.125,0.953 1.766,0.953 0.734,0 1.672,-0.594 1.672,-2.031 V 15.289 15.008 13.43 c 0,-1.547 -1.172,-2.078 -1.844,-2.078 -0.781,0 -1.437,0.578 -1.437,1.343 0,2.094 2.703,2.282 3.281,2.313 v 0.281 c -3.203,-0.047 -4.406,-1.375 -4.406,-2.594 0,-1.265 1.453,-1.656 2.422,-1.656 1.062,0 1.765,0.641 2.078,1.391 0.062,-0.735 0.547,-1.313 1.234,-1.313 0.328,0 1.25,0.219 1.25,1.5 v 0.875 h -0.344 v -0.875 c 0,-0.906 -0.375,-1.047 -0.609,-1.047 -0.594,0 -0.594,0.844 -0.594,1.094 z"
   id="path33"
   inkscape:connector-curvature="0"
   style="fill:#000000;stroke-width:0" />
<path
   d="m 106.89,17.07 -0.02,0 -0.02,0 -0.02,0 -0.03,-0.001 -0.02,-10e-4 -0.03,-0.002 -0.03,-0.002 -0.03,-0.004 -0.03,-0.004 -0.03,-0.005 -0.04,-0.007 -0.03,-0.007 -0.03,-0.01 -0.04,-0.01 -0.03,-0.013 -0.03,-0.014 -0.03,-0.016 -0.03,-0.018 -0.03,-0.02 -0.03,-0.022 -0.03,-0.025 -0.01,-0.013 -0.02,-0.014 -0.01,-0.014 -0.01,-0.016 -0.01,-0.015 -0.02,-0.017 -0.01,-0.017 -0.01,-0.018 -0.01,-0.019 0,-0.019 -0.01,-0.021 -0.01,-0.02 -0.01,-0.022 -0.01,-0.023 0,-0.023 -0.01,-0.024 0,-0.026 0,-0.026 -0.01,-0.026 0,-0.028 0,-0.029 0,-0.029 c 0,-0.391 0.28,-0.657 0.66,-0.657 0.35,0 0.67,0.219 0.67,0.688 0,1.062 -1.11,1.828 -2.41,1.828 -1.86,0 -3.33,-1.656 -3.33,-3.656 0,-2.031 1.52,-3.594 3.32,-3.594 2.09,0 2.57,1.906 2.57,2.047 0,0.141 -0.11,0.141 -0.15,0.141 -0.14,0 -0.16,-0.047 -0.21,-0.235 -0.35,-1.125 -1.21,-1.609 -2.07,-1.609 -0.97,0 -2.25,0.844 -2.25,3.265 0,2.641 1.34,3.282 2.14,3.282 0.61,0 1.48,-0.235 1.84,-0.86 z"
   id="path35"
   inkscape:connector-curvature="0"
   style="fill:#000000;stroke-width:0" />
<path
   d="m 115.38,14.602 -0.01,0.19 -0.01,0.188 -0.03,0.186 -0.03,0.182 -0.03,0.179 -0.05,0.175 -0.06,0.172 -0.06,0.167 -0.07,0.164 -0.07,0.159 -0.09,0.154 -0.09,0.15 -0.09,0.144 -0.11,0.139 -0.1,0.134 -0.12,0.128 -0.12,0.122 -0.12,0.115 -0.13,0.11 -0.13,0.102 -0.14,0.096 -0.14,0.088 -0.15,0.081 -0.15,0.074 -0.16,0.065 -0.15,0.058 -0.16,0.05 -0.17,0.041 -0.16,0.032 -0.17,0.023 -0.17,0.014 -0.17,0.005 -0.02,-0.328 c 0.63,0 1.3,-0.281 1.72,-0.906 0.5,-0.719 0.5,-1.735 0.5,-2.313 0,-0.562 0,-1.547 -0.42,-2.297 -0.44,-0.75 -1.17,-1.062 -1.78,-1.062 h 0 c -0.58,0 -1.3,0.25 -1.77,1.031 -0.42,0.719 -0.43,1.656 -0.43,2.328 0,0.594 0,1.578 0.48,2.281 0.45,0.688 1.16,0.938 1.7,0.938 l 0.02,0.328 c -1.91,0 -3.41,-1.687 -3.41,-3.687 0,-2.047 1.58,-3.563 3.39,-3.563 1.88,0 3.43,1.563 3.43,3.563 z"
   id="path37"
   inkscape:connector-curvature="0"
   style="fill:#000000;stroke-width:0" />
<path
   d="m 122.96,15.055 0,0.136 0,0.13 0,0.125 0,0.118 0,0.114 0,0.109 0,0.103 0,0.099 -0.01,0.095 0,0.09 0,0.086 -0.01,0.082 0,0.079 -0.01,0.075 -0.01,0.072 -0.01,0.069 -0.01,0.066 -0.01,0.063 -0.01,0.061 -0.01,0.059 -0.01,0.056 -0.02,0.055 -0.02,0.054 -0.02,0.052 -0.02,0.05 -0.02,0.05 -0.02,0.049 -0.03,0.048 -0.03,0.048 -0.03,0.048 -0.03,0.048 -0.03,0.048 c -0.46,0.61 -1.21,0.719 -1.75,0.719 -1.53,0 -2.15,-1.328 -2.27,-1.641 h -0.01 v 1.641 L 116.4,18.023 V 17.57 c 1.08,0 1.2,-0.109 1.2,-0.89 v -4.313 c 0,-0.719 -0.17,-0.719 -1.2,-0.719 v -0.453 c 0.41,0.032 1.26,0.032 1.7,0.032 0.47,0 1.33,0 1.74,-0.032 v 0.453 c -1.02,0 -1.21,0 -1.21,0.719 v 2.953 c 0,1.672 1.1,2.563 2.08,2.563 0.98,0 1.22,-0.813 1.22,-1.781 v -3.735 c 0,-0.719 -0.19,-0.719 -1.22,-0.719 v -0.453 c 0.42,0.032 1.28,0.032 1.72,0.032 0.47,0 1.33,0 1.73,-0.032 v 0.453 c -0.79,0 -1.18,0 -1.2,0.485 z"
   id="path39"
   inkscape:connector-curvature="0"
   style="fill:#000000;stroke-width:0" />
<path
   d="m 129.77,17.914 0,0.014 0,0.013 0,0.013 0,0.013 0,0.025 0,0.023 0,0.023 0,0.021 0,0.02 0,0.019 0,0.018 -0.01,0.017 0,0.015 0,0.015 0,0.014 0,0.013 -0.01,0.012 0,0.011 -0.01,0.01 0,0.009 -0.01,0.009 0,0.008 -0.01,0.007 -0.01,0.006 0,0.005 -0.01,0.005 -0.01,0.004 -0.01,0.004 -0.01,0.003 -0.02,0.002 -0.01,0.002 -0.01,0.001 -0.02,0.001 -0.01,0 c -0.13,0 -0.42,-0.359 -0.53,-0.5 -0.5,0.406 -0.99,0.5 -1.5,0.5 -1.93,0 -2.49,-1.047 -2.49,-1.922 0,-0.187 0,-0.734 0.6,-1.297 0.51,-0.437 1.04,-0.547 1.78,-0.703 0.87,-0.172 1.08,-0.219 1.48,-0.531 0.28,-0.234 0.49,-0.594 0.49,-1.031 0,-0.688 -0.39,-1.453 -1.8,-1.453 -1.05,0 -1.81,0.609 -2.16,2.203 -0.06,0.281 -0.06,0.297 -0.08,0.312 -0.03,0.063 -0.09,0.063 -0.14,0.063 -0.17,0 -0.17,-0.078 -0.17,-0.36 v -2.172 c 0,-0.281 0,-0.359 0.16,-0.359 0.08,0 0.09,0.016 0.36,0.344 0.08,0.109 0.08,0.14 0.31,0.406 0.61,-0.75 1.47,-0.75 1.73,-0.75 1.68,0 2.51,0.922 2.51,2.172 0,0.859 -0.54,1.375 -0.68,1.516 -0.56,0.484 -1,0.578 -2.04,0.781 -0.47,0.094 -1.64,0.312 -1.64,1.265 0,0.5 0.34,1.219 1.76,1.219 1.74,0 1.83,-1.469 1.86,-1.969 0.02,-0.125 0.13,-0.125 0.17,-0.125 0.19,0 0.19,0.079 0.19,0.36 z"
   id="path41"
   inkscape:connector-curvature="0"
   style="fill:#000000;stroke-width:0" />
<path
   d="m 133.38,17.586 h 2.23 v 0.453 h -2.23 v 2.938 h -0.35 c -0.03,-1.5 -0.59,-3.032 -2.05,-3.079 v -0.312 h 1.36 v -4.422 c 0,-1.766 1.18,-2.125 2.02,-2.125 1,0 1.53,0.984 1.53,2.125 v 0.906 h -0.36 v -0.875 c 0,-1.14 -0.45,-1.812 -1.08,-1.812 -1.07,0 -1.07,1.484 -1.07,1.75 z"
   id="path43"
   inkscape:connector-curvature="0"
   style="fill:#000000;stroke-width:0" />
<path
   d="m 142.91,15.445 0,0.159 0,0.153 0,0.149 -0.01,0.144 -0.01,0.139 0,0.069 -0.01,0.068 -0.01,0.066 -0.01,0.066 -0.02,0.065 -0.01,0.065 -0.02,0.064 -0.02,0.063 -0.02,0.062 -0.03,0.062 -0.02,0.062 -0.03,0.061 -0.04,0.06 -0.03,0.06 -0.04,0.06 -0.04,0.06 -0.05,0.059 -0.05,0.059 -0.05,0.059 -0.06,0.058 -0.06,0.059 -0.06,0.059 c -0.56,0.5 -1.26,0.734 -1.97,0.734 -1.31,0 -2.31,-0.859 -2.31,-1.891 0,-0.468 0.31,-0.687 0.67,-0.687 0.38,0 0.66,0.266 0.66,0.656 0,0.641 -0.58,0.641 -0.81,0.641 0.35,0.672 1.12,0.953 1.76,0.953 0.74,0 1.67,-0.594 1.67,-2.031 V 15.289 15.008 13.43 c 0,-1.547 -1.17,-2.078 -1.84,-2.078 -0.78,0 -1.44,0.578 -1.44,1.343 0,2.094 2.7,2.282 3.28,2.313 v 0.281 c -3.2,-0.047 -4.4,-1.375 -4.4,-2.594 0,-1.265 1.45,-1.656 2.42,-1.656 1.06,0 1.76,0.641 2.08,1.391 0.06,-0.735 0.54,-1.313 1.23,-1.313 0.33,0 1.25,0.219 1.25,1.5 v 0.875 h -0.34 v -0.875 c 0,-0.906 -0.38,-1.047 -0.61,-1.047 -0.6,0 -0.6,0.844 -0.6,1.094 z"
   id="path45"
   inkscape:connector-curvature="0"
   style="fill:#000000;stroke-width:0" />
<path
   d="m 151.65,15.055 0,0.136 0,0.13 0,0.125 0,0.118 0,0.114 0,0.109 0,0.103 0,0.099 -0.01,0.095 0,0.09 0,0.086 -0.01,0.082 0,0.079 -0.01,0.075 -0.01,0.072 0,0.069 -0.01,0.066 -0.01,0.063 -0.02,0.061 -0.01,0.059 -0.01,0.056 -0.02,0.055 -0.02,0.054 -0.02,0.052 -0.02,0.05 -0.02,0.05 -0.02,0.049 -0.03,0.048 -0.03,0.048 -0.03,0.048 -0.03,0.048 -0.03,0.048 c -0.46,0.61 -1.21,0.719 -1.75,0.719 -1.53,0 -2.14,-1.328 -2.27,-1.641 h -0.01 v 1.641 l -2.16,-0.188 V 17.57 c 1.08,0 1.2,-0.109 1.2,-0.89 v -4.313 c 0,-0.719 -0.17,-0.719 -1.2,-0.719 v -0.453 c 0.41,0.032 1.26,0.032 1.7,0.032 0.47,0 1.33,0 1.74,-0.032 v 0.453 c -1.02,0 -1.21,0 -1.21,0.719 v 2.953 c 0,1.672 1.1,2.563 2.08,2.563 0.99,0 1.22,-0.813 1.22,-1.781 v -3.735 c 0,-0.719 -0.19,-0.719 -1.22,-0.719 v -0.453 c 0.42,0.032 1.28,0.032 1.72,0.032 0.47,0 1.33,0 1.73,-0.032 v 0.453 c -0.79,0 -1.18,0 -1.2,0.485 z"
   id="path47"
   inkscape:connector-curvature="0"
   style="fill:#000000;stroke-width:0" />
<path
   d="m 155.48,17.586 h 2.24 v 0.453 h -2.24 v 2.938 h -0.34 c -0.03,-1.5 -0.59,-3.032 -2.05,-3.079 v -0.312 h 1.36 v -4.422 c 0,-1.766 1.17,-2.125 2.02,-2.125 1,0 1.53,0.984 1.53,2.125 v 0.906 h -0.36 v -0.875 c 0,-1.14 -0.45,-1.812 -1.08,-1.812 -1.08,0 -1.08,1.484 -1.08,1.75 z"
   id="path49"
   inkscape:connector-curvature="0"
   style="fill:#000000;stroke-width:0" />
<path
   d="m 171.38,14.602 -0.01,0.19 -0.01,0.188 -0.03,0.186 -0.03,0.182 -0.03,0.179 -0.05,0.175 -0.06,0.172 -0.06,0.167 -0.07,0.164 -0.07,0.159 -0.09,0.154 -0.09,0.15 -0.09,0.144 -0.11,0.139 -0.1,0.134 -0.12,0.128 -0.12,0.122 -0.12,0.115 -0.13,0.11 -0.13,0.102 -0.14,0.096 -0.14,0.088 -0.15,0.081 -0.15,0.074 -0.16,0.065 -0.15,0.058 -0.16,0.05 -0.17,0.041 -0.16,0.032 -0.17,0.023 -0.17,0.014 -0.17,0.005 -0.02,-0.328 c 0.63,0 1.3,-0.281 1.72,-0.906 0.5,-0.719 0.5,-1.735 0.5,-2.313 0,-0.562 0,-1.547 -0.42,-2.297 -0.44,-0.75 -1.17,-1.062 -1.78,-1.062 h 0 c -0.58,0 -1.3,0.25 -1.77,1.031 -0.42,0.719 -0.43,1.656 -0.43,2.328 0,0.594 0,1.578 0.48,2.281 0.45,0.688 1.16,0.938 1.7,0.938 l 0.02,0.328 c -1.91,0 -3.41,-1.687 -3.41,-3.687 0,-2.047 1.58,-3.563 3.39,-3.563 1.88,0 3.43,1.563 3.43,3.563 z"
   id="path51"
   inkscape:connector-curvature="0"
   style="fill:#000000;stroke-width:0" />
<path
   d="m 174.54,14.898 0,0.145 0,0.144 0.01,0.142 0.01,0.142 0.02,0.139 0.02,0.138 0.03,0.136 0.02,0.133 0.04,0.131 0.03,0.128 0.04,0.125 0.04,0.121 0.05,0.118 0.05,0.115 0.05,0.11 0.06,0.106 0.06,0.101 0.06,0.097 0.07,0.091 0.07,0.086 0.08,0.081 0.07,0.075 0.09,0.069 0.08,0.063 0.09,0.056 0.09,0.05 0.1,0.043 0.1,0.035 0.1,0.028 0.1,0.02 0.11,0.013 0.12,0.004 c 0.12,0 0.15,0 0.21,-0.016 -0.12,-0.062 -0.37,-0.156 -0.37,-0.578 0,-0.469 0.36,-0.641 0.61,-0.641 0.33,0 0.64,0.204 0.64,0.641 0,0.469 -0.42,0.922 -1.11,0.922 -1.36,0 -1.81,-1.469 -1.91,-1.766 h -0.01 v 1.766 l -2.14,-0.188 V 17.57 c 1.09,0 1.22,-0.109 1.22,-0.89 v -4.313 c 0,-0.719 -0.18,-0.719 -1.22,-0.719 v -0.453 c 0.45,0.032 1.33,0.032 1.79,0.032 0.44,0 1.57,0 1.94,-0.032 v 0.453 h -0.33 c -1.15,0 -1.18,0.188 -1.18,0.75 z"
   id="path53"
   inkscape:connector-curvature="0"
   style="fill:#000000;stroke-width:0" />
<path
   d="m 189.65,16.539 0.01,0.033 0.01,0.035 0.02,0.037 0.01,0.038 0.02,0.04 0.02,0.04 0.02,0.041 0.02,0.042 0.03,0.043 0.02,0.043 0.03,0.043 0.03,0.043 0.03,0.043 0.03,0.043 0.04,0.041 0.04,0.042 0.04,0.04 0.04,0.039 0.05,0.037 0.05,0.036 0.05,0.035 0.06,0.032 0.06,0.031 0.06,0.028 0.07,0.026 0.07,0.023 0.07,0.02 0.08,0.018 0.04,0.007 0.04,0.007 0.04,0.005 0.05,0.005 0.04,0.004 0.05,0.003 0.04,0.003 0.05,10e-4 v 0.453 c -0.47,-0.031 -0.68,-0.031 -1.18,-0.031 -0.33,0 -0.57,0 -1.3,0.031 v -0.453 c 0.67,-0.031 0.75,-0.516 0.75,-0.688 0,-0.14 -0.03,-0.218 -0.11,-0.406 l -1.63,-4.109 -1.78,4.484 c -0.08,0.219 -0.09,0.219 -0.09,0.297 0,0.422 0.59,0.422 0.89,0.422 v 0.453 c -0.41,-0.031 -1.23,-0.031 -1.66,-0.031 -0.53,0 -0.56,0 -1.53,0.031 v -0.453 c 0.89,0 1.05,-0.063 1.25,-0.563 l 2.27,-5.687 c 0.08,-0.219 0.11,-0.297 0.29,-0.297 0.13,0 0.22,0.031 0.33,0.297 z"
   id="path55"
   inkscape:connector-curvature="0"
   style="fill:#000000;stroke-width:0" />
<path
   d="m 196.66,15.445 0,0.159 0,0.153 0,0.149 -0.01,0.144 -0.01,0.139 -0.01,0.069 -0.01,0.068 -0.01,0.066 -0.01,0.066 -0.01,0.065 -0.02,0.065 -0.02,0.064 -0.02,0.063 -0.02,0.062 -0.02,0.062 -0.03,0.062 -0.03,0.061 -0.03,0.06 -0.04,0.06 -0.04,0.06 -0.04,0.06 -0.04,0.059 -0.05,0.059 -0.05,0.059 -0.06,0.058 -0.06,0.059 -0.06,0.059 c -0.56,0.5 -1.27,0.734 -1.97,0.734 -1.31,0 -2.31,-0.859 -2.31,-1.891 0,-0.468 0.31,-0.687 0.67,-0.687 0.37,0 0.65,0.266 0.65,0.656 0,0.641 -0.57,0.641 -0.81,0.641 0.36,0.672 1.13,0.953 1.77,0.953 0.73,0 1.67,-0.594 1.67,-2.031 V 15.289 15.008 13.43 c 0,-1.547 -1.17,-2.078 -1.84,-2.078 -0.79,0 -1.44,0.578 -1.44,1.343 0,2.094 2.7,2.282 3.28,2.313 v 0.281 c -3.2,-0.047 -4.41,-1.375 -4.41,-2.594 0,-1.265 1.46,-1.656 2.43,-1.656 1.06,0 1.76,0.641 2.07,1.391 0.07,-0.735 0.55,-1.313 1.24,-1.313 0.33,0 1.25,0.219 1.25,1.5 v 0.875 h -0.35 v -0.875 c 0,-0.906 -0.37,-1.047 -0.61,-1.047 -0.59,0 -0.59,0.844 -0.59,1.094 z"
   id="path57"
   inkscape:connector-curvature="0"
   style="fill:#000000;stroke-width:0" />
<path
   d="m 200.98,14.898 0,0.145 0,0.144 0.01,0.142 0.02,0.142 0.01,0.139 0.02,0.138 0.03,0.136 0.03,0.133 0.03,0.131 0.03,0.128 0.04,0.125 0.04,0.121 0.05,0.118 0.05,0.115 0.05,0.11 0.06,0.106 0.06,0.101 0.06,0.097 0.07,0.091 0.07,0.086 0.08,0.081 0.07,0.075 0.09,0.069 0.08,0.063 0.09,0.056 0.09,0.05 0.1,0.043 0.1,0.035 0.1,0.028 0.1,0.02 0.11,0.013 0.12,0.004 c 0.12,0 0.15,0 0.21,-0.016 -0.12,-0.062 -0.37,-0.156 -0.37,-0.578 0,-0.469 0.36,-0.641 0.61,-0.641 0.33,0 0.64,0.204 0.64,0.641 0,0.469 -0.42,0.922 -1.11,0.922 -1.36,0 -1.81,-1.469 -1.91,-1.766 h -0.01 v 1.766 l -2.14,-0.188 V 17.57 c 1.09,0 1.22,-0.109 1.22,-0.89 v -4.313 c 0,-0.719 -0.18,-0.719 -1.22,-0.719 v -0.453 c 0.45,0.032 1.33,0.032 1.79,0.032 0.44,0 1.57,0 1.94,-0.032 v 0.453 h -0.33 c -1.15,0 -1.18,0.188 -1.18,0.75 z"
   id="path59"
   inkscape:connector-curvature="0"
   style="fill:#000000;stroke-width:0" />
<path
   d="m 207.15,20.992 0,0.038 0,0.038 -0.01,0.037 0,0.037 -0.01,0.036 -0.01,0.036 -0.01,0.035 -0.02,0.034 -0.01,0.034 -0.02,0.033 -0.02,0.032 -0.02,0.031 -0.02,0.03 -0.02,0.029 -0.02,0.028 -0.03,0.027 -0.03,0.026 -0.02,0.025 -0.03,0.023 -0.03,0.022 -0.03,0.02 -0.04,0.019 -0.03,0.017 -0.04,0.016 -0.03,0.014 -0.04,0.013 -0.04,0.011 -0.04,0.009 -0.04,0.007 -0.04,0.005 -0.04,0.003 -0.04,10e-4 c -0.41,0 -0.77,-0.328 -0.77,-0.75 0,-0.485 0.4,-0.781 0.77,-0.781 0.5,0 0.78,0.406 0.78,0.765 z"
   id="path61"
   inkscape:connector-curvature="0"
   style="fill:#000000;stroke-width:0" />
<path
   d="M 204.96,18.023 V 17.57 c 1.02,0 1.16,-0.093 1.16,-0.875 v -4.328 c 0,-0.719 -0.17,-0.719 -1.2,-0.719 v -0.453 c 0.43,0.032 1.2,0.032 1.65,0.032 0.19,0 1.11,0 1.64,-0.032 v 0.453 c -1.03,0 -1.09,0.094 -1.09,0.704 v 5.859 z"
   id="path63"
   inkscape:connector-curvature="0"
   style="fill:#000000;stroke-width:0" />
<path
   d="m 214.86,15.445 0,0.159 0,0.153 -0.01,0.149 0,0.144 -0.01,0.139 -0.01,0.069 -0.01,0.068 -0.01,0.066 -0.01,0.066 -0.01,0.065 -0.02,0.065 -0.02,0.064 -0.02,0.063 -0.02,0.062 -0.02,0.062 -0.03,0.062 -0.03,0.061 -0.03,0.06 -0.04,0.06 -0.04,0.06 -0.04,0.06 -0.04,0.059 -0.05,0.059 -0.05,0.059 -0.06,0.058 -0.06,0.059 -0.06,0.059 c -0.57,0.5 -1.27,0.734 -1.97,0.734 -1.31,0 -2.31,-0.859 -2.31,-1.891 0,-0.468 0.31,-0.687 0.67,-0.687 0.37,0 0.65,0.266 0.65,0.656 0,0.641 -0.58,0.641 -0.81,0.641 0.36,0.672 1.13,0.953 1.77,0.953 0.73,0 1.67,-0.594 1.67,-2.031 V 15.289 15.008 13.43 c 0,-1.547 -1.17,-2.078 -1.85,-2.078 -0.78,0 -1.43,0.578 -1.43,1.343 0,2.094 2.7,2.282 3.28,2.313 v 0.281 c -3.21,-0.047 -4.41,-1.375 -4.41,-2.594 0,-1.265 1.46,-1.656 2.42,-1.656 1.07,0 1.77,0.641 2.08,1.391 0.06,-0.735 0.55,-1.313 1.24,-1.313 0.32,0 1.25,0.219 1.25,1.5 v 0.875 h -0.35 v -0.875 c 0,-0.906 -0.37,-1.047 -0.61,-1.047 -0.59,0 -0.59,0.844 -0.59,1.094 z"
   id="path65"
   inkscape:connector-curvature="0"
   style="fill:#000000;stroke-width:0" />
<path
   d="m 219.18,22.227 -2.22,-0.172 v -0.469 c 1.09,0 1.22,-0.109 1.22,-0.891 v -9.5 h 0.34 c 0.07,0.125 0.52,0.922 0.58,1.032 0.36,-0.594 1.05,-1.188 2.06,-1.188 l -0.06,0.313 c -0.86,0 -1.42,0.562 -1.69,0.984 -0.2,0.344 -0.2,0.406 -0.2,0.672 v 3.281 c 0,0.281 0,0.313 0.17,0.563 0.39,0.578 1.08,1.031 1.86,1.031 0.49,0 2.14,-0.188 2.14,-3.235 0,-1.062 -0.15,-1.734 -0.53,-2.312 -0.31,-0.484 -0.95,-0.984 -1.75,-0.984 l 0.06,-0.313 c 1.83,0 3.44,1.531 3.44,3.594 0,2.015 -1.5,3.578 -3.26,3.578 -0.88,0 -1.63,-0.406 -2.16,-1.078 z"
   id="path67"
   inkscape:connector-curvature="0"
   style="fill:#000000;stroke-width:0" />
<path
   d="m 227.93,22.227 -2.21,-0.172 v -0.469 c 1.08,0 1.21,-0.109 1.21,-0.891 v -8.328 c 0,-0.719 -0.18,-0.719 -1.21,-0.719 v -0.453 c 0.44,0.032 1.22,0.032 1.69,0.032 0.49,0 1.28,0 1.72,-0.032 v 0.453 c -1.02,0 -1.2,0 -1.2,0.719 z"
   id="path69"
   inkscape:connector-curvature="0"
   style="fill:#000000;stroke-width:0" />
<path
   d="m 235.62,14.883 0.01,0 0.02,0 0.01,0 0.02,0 0.01,0 0.02,0 0.01,0 0.01,0 0.01,0.001 0.02,0 0.01,0 0.01,10e-4 0.01,0 0.01,10e-4 0.01,0.001 0.01,0 0.01,10e-4 0.01,10e-4 0.01,0.002 0.01,10e-4 0.01,0.003 0.02,0.003 0.01,0.005 0.01,0.005 0.01,0.005 0.01,0.007 0.01,0.007 0.01,0.009 0.01,0.009 0,0.01 0.01,0.012 0,0.012 0.01,0.014 0,0.015 0,0.008 0,0.008 0.01,0.009 0,0.009 0,0.009 0,0.01 0,0.01 0,0.011 0,0.011 0,0.011 0,0.011 0,0.012 0,0.013 0,0.013 0,0.013 0,0.014 c 0,1.609 -0.86,3.109 -2.78,3.109 -1.81,0 -3.2,-1.641 -3.2,-3.609 0,-2.11 1.61,-3.641 3.37,-3.641 1.89,0 2.61,1.719 2.61,2.047 0,0.094 -0.08,0.156 -0.17,0.156 -0.12,0 -0.16,-0.078 -0.19,-0.156 -0.42,-1.328 -1.48,-1.703 -2.15,-1.703 -0.66,0 -2.27,0.453 -2.27,3.203 v 0.297 l 0.02,0.297 c 0.12,2.5 1.51,2.781 1.97,2.781 1.7,0 1.79,-2.234 1.81,-2.781 h -3.78 l -0.02,-0.297 z"
   id="path71"
   inkscape:connector-curvature="0"
   style="fill:#000000;stroke-width:0" />
<path
   d="m 246.44,22.055 v -0.469 c 1.08,0 1.2,-0.109 1.2,-0.891 V 17.18 c -0.33,0.468 -1.02,1.031 -1.98,1.031 -1.85,0 -3.43,-1.563 -3.43,-3.594 0,-2.015 1.5,-3.578 3.25,-3.578 1.21,0 1.91,0.797 2.13,1.094 l -0.22,0.234 c -0.37,-0.547 -1.03,-1.015 -1.83,-1.015 -0.4,0 -2.12,0.156 -2.12,3.25 0,1.14 0.18,1.781 0.53,2.296 0.33,0.5 0.97,0.985 1.75,0.985 0.98,0 1.55,-0.719 1.7,-0.969 0.19,-0.266 0.19,-0.297 0.19,-0.578 v -3.281 c 0,-0.282 0,-0.328 -0.22,-0.688 l 0.22,-0.234 v -1.094 l 2.25,0.156 v 0.453 c -1.08,0 -1.2,0.125 -1.2,0.891 v 9.688 z"
   id="path73"
   inkscape:connector-curvature="0"
   style="fill:#000000;stroke-width:0" />
<path
   d="m 253.1,20.992 0,0.038 0,0.038 0,0.037 -0.01,0.037 -0.01,0.036 -0.01,0.036 -0.01,0.035 -0.01,0.034 -0.02,0.034 -0.01,0.033 -0.02,0.032 -0.02,0.031 -0.02,0.03 -0.03,0.029 -0.02,0.028 -0.03,0.027 -0.02,0.026 -0.03,0.025 -0.03,0.023 -0.03,0.022 -0.03,0.02 -0.03,0.019 -0.04,0.017 -0.03,0.016 -0.04,0.014 -0.04,0.013 -0.03,0.011 -0.04,0.009 -0.04,0.007 -0.04,0.005 -0.04,0.003 -0.05,10e-4 c -0.4,0 -0.76,-0.328 -0.76,-0.75 0,-0.485 0.39,-0.781 0.76,-0.781 0.5,0 0.78,0.406 0.78,0.765 z"
   id="path75"
   inkscape:connector-curvature="0"
   style="fill:#000000;stroke-width:0" />
<path
   d="M 250.92,18.023 V 17.57 c 1.01,0 1.15,-0.093 1.15,-0.875 v -4.328 c 0,-0.719 -0.17,-0.719 -1.2,-0.719 v -0.453 c 0.44,0.032 1.2,0.032 1.66,0.032 0.18,0 1.11,0 1.64,-0.032 v 0.453 c -1.03,0 -1.1,0.094 -1.1,0.704 v 5.859 z"
   id="path77"
   inkscape:connector-curvature="0"
   style="fill:#000000;stroke-width:0" />
<path
   d="m 261.64,17.586 h 1.81 v 0.453 h -1.84 v 1.859 c 0,1.375 0.69,2.172 1.39,2.172 0.23,0 0.47,-0.078 0.56,-0.125 -0.06,-0.015 -0.47,-0.172 -0.47,-0.625 0,-0.359 0.25,-0.625 0.63,-0.625 0.37,0 0.62,0.266 0.62,0.641 0,0.578 -0.54,1.047 -1.34,1.047 -0.64,0 -1.23,-0.281 -1.64,-0.672 -0.41,0.594 -1.3,0.672 -1.74,0.672 l -0.03,-0.313 c 0.11,0 0.82,0 1.29,-0.343 -0.44,-0.079 -0.57,-0.375 -0.57,-0.61 0,-0.281 0.14,-0.5 0.39,-0.594 -0.08,-0.234 -0.08,-0.437 -0.08,-0.625 v -1.859 h -3.32 v 1.797 c 0,1.625 1.34,2.234 2.29,2.234 l 0.03,0.313 c -1.51,0 -3.29,-0.828 -3.29,-2.516 v -1.828 h -1.25 v -0.453 h 1.25 v -5.219 c 0,-0.719 -0.17,-0.719 -1.22,-0.719 v -0.453 c 0.45,0.032 1.23,0.032 1.7,0.032 0.49,0 1.28,0 1.72,-0.032 v 0.453 c -1.01,0 -1.2,0 -1.2,0.719 v 5.219 h 3.29 v -5.219 c 0,-0.719 -0.17,-0.719 -1.2,-0.719 v -0.453 c 0.46,0.032 1.33,0.032 1.8,0.032 0.44,0 1.56,0 1.92,-0.032 v 0.453 h -0.31 c -1.16,0 -1.19,0.188 -1.19,0.75 z"
   id="path79"
   inkscape:connector-curvature="0"
   style="fill:#000000;stroke-width:0" />
<path
   d="m 269.87,14.883 0.02,0 0.01,0 0.02,0 0.01,0 0.02,0 0.01,0 0.01,0 0.02,0 0.01,0.001 0.01,0 0.01,0 0.01,10e-4 0.01,0 0.01,10e-4 0.01,0.001 0.01,0 0.01,10e-4 0.01,10e-4 0.01,0.002 0.01,10e-4 0.02,0.003 0.01,0.003 0.01,0.005 0.02,0.005 0.01,0.005 0.01,0.007 0.01,0.007 0,0.009 0.01,0.009 0.01,0.01 0,0.012 0.01,0.012 0,0.014 0.01,0.015 0,0.008 0,0.008 0,0.009 0,0.009 0,0.009 0,0.01 0,0.01 0,0.011 0,0.011 0,0.011 0.01,0.011 0,0.012 0,0.013 0,0.013 0,0.013 0,0.014 c 0,1.609 -0.86,3.109 -2.79,3.109 -1.81,0 -3.2,-1.641 -3.2,-3.609 0,-2.11 1.61,-3.641 3.38,-3.641 1.89,0 2.61,1.719 2.61,2.047 0,0.094 -0.08,0.156 -0.18,0.156 -0.12,0 -0.15,-0.078 -0.18,-0.156 -0.43,-1.328 -1.49,-1.703 -2.16,-1.703 -0.66,0 -2.27,0.453 -2.27,3.203 v 0.297 l 0.02,0.297 c 0.13,2.5 1.52,2.781 1.97,2.781 1.7,0 1.8,-2.234 1.81,-2.781 h -3.78 l -0.02,-0.297 z"
   id="path81"
   inkscape:connector-curvature="0"
   style="fill:#000000;stroke-width:0" />
<path
   d="m 273.37,14.898 0,0.145 0.01,0.144 0.01,0.142 0.01,0.142 0.02,0.139 0.02,0.138 0.02,0.136 0.03,0.133 0.03,0.131 0.04,0.128 0.04,0.125 0.04,0.121 0.04,0.118 0.05,0.115 0.06,0.11 0.05,0.106 0.06,0.101 0.07,0.097 0.07,0.091 0.07,0.086 0.07,0.081 0.08,0.075 0.08,0.069 0.09,0.063 0.08,0.056 0.1,0.05 0.09,0.043 0.1,0.035 0.1,0.028 0.11,0.02 0.11,0.013 0.11,0.004 c 0.13,0 0.16,0 0.22,-0.016 -0.13,-0.062 -0.38,-0.156 -0.38,-0.578 0,-0.469 0.36,-0.641 0.61,-0.641 0.33,0 0.64,0.204 0.64,0.641 0,0.469 -0.42,0.922 -1.11,0.922 -1.35,0 -1.81,-1.469 -1.9,-1.766 h -0.02 v 1.766 l -2.14,-0.188 V 17.57 c 1.1,0 1.22,-0.109 1.22,-0.89 v -4.313 c 0,-0.719 -0.17,-0.719 -1.22,-0.719 v -0.453 c 0.46,0.032 1.33,0.032 1.8,0.032 0.44,0 1.56,0 1.94,-0.032 v 0.453 h -0.33 c -1.16,0 -1.19,0.188 -1.19,0.75 z"
   id="path83"
   inkscape:connector-curvature="0"
   style="fill:#000000;stroke-width:0" />
<path
   d="m 282.88,14.883 0.01,0 0.02,0 0.01,0 0.02,0 0.01,0 0.01,0 0.02,0 0.01,0 0.01,0.001 0.01,0 0.02,0 0.01,10e-4 0.01,0 0.01,10e-4 0.01,0.001 0.01,0 0.01,10e-4 0.01,10e-4 0.01,0.002 0,10e-4 0.02,0.003 0.01,0.003 0.02,0.005 0.01,0.005 0.01,0.005 0.01,0.007 0.01,0.007 0.01,0.009 0.01,0.009 0,0.01 0.01,0.012 0,0.012 0.01,0.014 0,0.015 0,0.008 0,0.008 0,0.009 0,0.009 0.01,0.009 0,0.01 0,0.01 0,0.011 0,0.011 0,0.011 0,0.011 0,0.012 0,0.013 0,0.013 0,0.013 0,0.014 c 0,1.609 -0.86,3.109 -2.78,3.109 -1.81,0 -3.2,-1.641 -3.2,-3.609 0,-2.11 1.61,-3.641 3.37,-3.641 1.89,0 2.61,1.719 2.61,2.047 0,0.094 -0.08,0.156 -0.17,0.156 -0.13,0 -0.16,-0.078 -0.19,-0.156 -0.42,-1.328 -1.48,-1.703 -2.16,-1.703 -0.65,0 -2.26,0.453 -2.26,3.203 v 0.297 l 0.01,0.297 c 0.13,2.5 1.52,2.781 1.97,2.781 1.71,0 1.8,-2.234 1.82,-2.781 h -3.79 l -0.01,-0.297 z"
   id="path85"
   inkscape:connector-curvature="0"
   style="fill:#000000;stroke-width:0" />
<path
   d="m 290.8,15.055 0,0.136 0,0.13 0,0.125 0,0.118 0,0.114 -0.01,0.109 0,0.103 0,0.099 0,0.095 0,0.09 -0.01,0.086 0,0.082 -0.01,0.079 0,0.075 -0.01,0.072 -0.01,0.069 -0.01,0.066 -0.01,0.063 -0.01,0.061 -0.01,0.059 -0.02,0.056 -0.01,0.055 -0.02,0.054 -0.02,0.052 -0.02,0.05 -0.02,0.05 -0.03,0.049 -0.02,0.048 -0.03,0.048 -0.03,0.048 -0.03,0.048 -0.04,0.048 c -0.45,0.61 -1.2,0.719 -1.75,0.719 -1.53,0 -2.14,-1.328 -2.26,-1.641 h -0.02 v 1.641 l -2.16,-0.188 V 17.57 c 1.08,0 1.21,-0.109 1.21,-0.89 v -4.313 c 0,-0.719 -0.17,-0.719 -1.21,-0.719 v -0.453 c 0.41,0.032 1.27,0.032 1.71,0.032 0.47,0 1.33,0 1.73,-0.032 v 0.453 c -1.01,0 -1.2,0 -1.2,0.719 v 2.953 c 0,1.672 1.09,2.563 2.08,2.563 0.98,0 1.22,-0.813 1.22,-1.781 v -3.735 c 0,-0.719 -0.19,-0.719 -1.22,-0.719 v -0.453 c 0.42,0.032 1.28,0.032 1.72,0.032 0.46,0 1.32,0 1.73,-0.032 v 0.453 c -0.8,0 -1.19,0 -1.2,0.485 z"
   id="path87"
   inkscape:connector-curvature="0"
   style="fill:#000000;stroke-width:0" />
<path
   d="m 294.61,17.586 h 2.24 v 0.453 h -2.24 v 2.938 h -0.34 c -0.03,-1.5 -0.59,-3.032 -2.05,-3.079 v -0.312 h 1.36 v -4.422 c 0,-1.766 1.17,-2.125 2.02,-2.125 1,0 1.53,0.984 1.53,2.125 v 0.906 h -0.36 v -0.875 c 0,-1.14 -0.45,-1.812 -1.08,-1.812 -1.08,0 -1.08,1.484 -1.08,1.75 z"
   id="path89"
   inkscape:connector-curvature="0"
   style="fill:#000000;stroke-width:0" />
<path
   d="m 305.95,17.586 h 1.8 v 0.453 h -1.83 v 1.859 c 0,1.438 0.74,2.172 1.38,2.172 0.14,0 0.37,-0.031 0.56,-0.125 -0.06,-0.015 -0.45,-0.172 -0.45,-0.625 0,-0.359 0.25,-0.625 0.61,-0.625 0.39,0 0.64,0.266 0.64,0.641 0,0.594 -0.58,1.047 -1.35,1.047 -1.11,0 -2.36,-0.86 -2.36,-2.485 v -1.859 h -1.23 v -0.453 h 1.23 v -5.219 c 0,-0.719 -0.17,-0.719 -1.2,-0.719 v -0.453 c 0.44,0.032 1.31,0.032 1.8,0.032 0.42,0 1.54,0 1.92,-0.032 v 0.453 h -0.33 c -1.16,0 -1.19,0.188 -1.19,0.75 z"
   id="path91"
   inkscape:connector-curvature="0"
   style="fill:#000000;stroke-width:0" />
<path
   d="m 310.64,14.898 0.01,0.145 0,0.144 0.01,0.142 0.01,0.142 0.02,0.139 0.02,0.138 0.03,0.136 0.02,0.133 0.04,0.131 0.03,0.128 0.04,0.125 0.04,0.121 0.05,0.118 0.05,0.115 0.05,0.11 0.06,0.106 0.06,0.101 0.06,0.097 0.07,0.091 0.07,0.086 0.07,0.081 0.08,0.075 0.08,0.069 0.09,0.063 0.09,0.056 0.09,0.05 0.1,0.043 0.09,0.035 0.11,0.028 0.1,0.02 0.11,0.013 0.11,0.004 c 0.13,0 0.16,0 0.22,-0.016 -0.12,-0.062 -0.37,-0.156 -0.37,-0.578 0,-0.469 0.36,-0.641 0.61,-0.641 0.33,0 0.64,0.204 0.64,0.641 0,0.469 -0.42,0.922 -1.11,0.922 -1.36,0 -1.81,-1.469 -1.91,-1.766 h -0.01 v 1.766 l -2.14,-0.188 V 17.57 c 1.09,0 1.21,-0.109 1.21,-0.89 v -4.313 c 0,-0.719 -0.17,-0.719 -1.21,-0.719 v -0.453 c 0.45,0.032 1.32,0.032 1.79,0.032 0.44,0 1.57,0 1.94,-0.032 v 0.453 h -0.33 c -1.15,0 -1.19,0.188 -1.19,0.75 z"
   id="path93"
   inkscape:connector-curvature="0"
   style="fill:#000000;stroke-width:0" />
<path
   d="m 321.36,14.602 -0.01,0.19 -0.01,0.188 -0.03,0.186 -0.03,0.182 -0.03,0.179 -0.05,0.175 -0.06,0.172 -0.06,0.167 -0.07,0.164 -0.07,0.159 -0.09,0.154 -0.09,0.15 -0.09,0.144 -0.1,0.139 -0.11,0.134 -0.12,0.128 -0.12,0.122 -0.12,0.115 -0.13,0.11 -0.13,0.102 -0.14,0.096 -0.14,0.088 -0.15,0.081 -0.15,0.074 -0.15,0.065 -0.16,0.058 -0.16,0.05 -0.17,0.041 -0.16,0.032 -0.17,0.023 -0.17,0.014 -0.17,0.005 -0.02,-0.328 c 0.63,0 1.3,-0.281 1.72,-0.906 0.5,-0.719 0.5,-1.735 0.5,-2.313 0,-0.562 0,-1.547 -0.42,-2.297 -0.44,-0.75 -1.17,-1.062 -1.78,-1.062 h 0 c -0.58,0 -1.3,0.25 -1.77,1.031 -0.42,0.719 -0.43,1.656 -0.43,2.328 0,0.594 0,1.578 0.48,2.281 0.45,0.688 1.16,0.938 1.7,0.938 l 0.02,0.328 c -1.91,0 -3.41,-1.687 -3.41,-3.687 0,-2.047 1.58,-3.563 3.39,-3.563 1.88,0 3.43,1.563 3.43,3.563 z"
   id="path95"
   inkscape:connector-curvature="0"
   style="fill:#000000;stroke-width:0" />
<path
   d="m 333.25,15.055 0,0.136 0,0.13 0,0.125 0,0.118 0,0.114 0,0.109 0,0.103 -0.01,0.099 0,0.095 0,0.09 0,0.086 -0.01,0.082 0,0.079 -0.01,0.075 -0.01,0.072 0,0.069 -0.01,0.066 -0.01,0.063 -0.02,0.061 -0.01,0.059 -0.01,0.056 -0.02,0.055 -0.01,0.054 -0.02,0.052 -0.02,0.05 -0.02,0.05 -0.03,0.049 -0.02,0.048 -0.03,0.048 -0.03,0.048 -0.03,0.048 -0.03,0.048 c -0.47,0.61 -1.2,0.719 -1.75,0.719 -1.31,0 -1.98,-0.953 -2.23,-1.578 -0.24,1.219 -1.1,1.578 -2.1,1.578 -1.53,0 -2.14,-1.328 -2.26,-1.641 h -0.02 v 1.641 l -2.15,-0.188 V 17.57 c 1.07,0 1.2,-0.109 1.2,-0.89 v -4.313 c 0,-0.719 -0.17,-0.719 -1.2,-0.719 v -0.453 c 0.4,0.032 1.26,0.032 1.7,0.032 0.47,0 1.33,0 1.73,-0.032 v 0.453 c -1.01,0 -1.2,0 -1.2,0.719 v 2.953 c 0,1.672 1.09,2.563 2.08,2.563 0.98,0 1.22,-0.813 1.22,-1.781 v -3.735 c 0,-0.719 -0.19,-0.719 -1.22,-0.719 v -0.453 c 0.42,0.032 1.28,0.032 1.72,0.032 0.47,0 1.32,0 1.73,-0.032 v 0.453 c -1.02,0 -1.2,0 -1.2,0.719 v 2.953 c 0,1.672 1.09,2.563 2.08,2.563 0.98,0 1.2,-0.813 1.2,-1.781 v -3.735 c 0,-0.719 -0.17,-0.719 -1.2,-0.719 v -0.453 c 0.4,0.032 1.26,0.032 1.71,0.032 0.46,0 1.32,0 1.74,-0.032 v 0.453 c -0.8,0 -1.2,0 -1.22,0.485 z"
   id="path97"
   inkscape:connector-curvature="0"
   style="fill:#000000;stroke-width:0" />
<path
   d="m 347.66,17.68 -0.05,-0.01 -0.04,-0.011 -0.05,-0.013 -0.04,-0.014 -0.04,-0.016 -0.03,-0.016 -0.04,-0.019 -0.03,-0.019 -0.04,-0.021 -0.03,-0.021 -0.03,-0.023 -0.03,-0.023 -0.02,-0.025 -0.03,-0.025 -0.02,-0.026 -0.02,-0.027 -0.02,-0.027 -0.02,-0.028 -0.02,-0.029 -0.02,-0.029 -0.01,-0.029 -0.01,-0.03 -0.02,-0.03 -0.01,-0.03 -0.01,-0.03 0,-0.03 -0.01,-0.031 -0.01,-0.03 0,-0.03 0,-0.03 -0.01,-0.03 0,-0.03 c 0,-0.375 0.32,-0.5 0.53,-0.5 0.47,0 0.82,0.407 0.82,0.844 0,0.656 -0.77,0.969 -1.44,0.969 -0.97,0 -1.5,-0.953 -1.64,-1.266 -0.38,1.203 -1.36,1.266 -1.64,1.266 -1.63,0 -2.49,-2.094 -2.49,-2.438 0,-0.062 0.07,-0.14 0.18,-0.14 0.12,0 0.15,0.094 0.18,0.156 0.55,1.766 1.61,2.094 2.08,2.094 0.7,0 0.86,-0.656 0.86,-1.047 0,-0.344 -0.09,-0.719 -0.3,-1.469 l -0.53,-2.187 c -0.25,-0.953 -0.7,-1.828 -1.54,-1.828 -0.08,0 -0.47,0 -0.82,0.203 0.58,0.125 0.71,0.593 0.71,0.781 0,0.328 -0.24,0.516 -0.55,0.516 -0.38,0 -0.8,-0.344 -0.8,-0.844 0,-0.672 0.75,-0.969 1.44,-0.969 0.77,0 1.3,0.594 1.64,1.25 0.25,-0.937 1.05,-1.25 1.64,-1.25 1.61,0 2.47,2.078 2.47,2.422 0,0.094 -0.06,0.156 -0.16,0.156 -0.14,0 -0.15,-0.078 -0.2,-0.219 -0.44,-1.39 -1.36,-2.046 -2.06,-2.046 -0.56,0 -0.86,0.421 -0.86,1.062 0,0.359 0.06,0.609 0.31,1.656 l 0.56,2.157 c 0.24,0.953 0.77,1.656 1.5,1.656 0.04,0 0.49,0 0.82,-0.203 z"
   id="path99"
   inkscape:connector-curvature="0"
   style="fill:#000000;stroke-width:0" />
</g></svg>
