<?xml version="1.0" encoding="UTF-8" standalone="no"?>
<svg
   xmlns:dc="http://purl.org/dc/elements/1.1/"
   xmlns:cc="http://creativecommons.org/ns#"
   xmlns:rdf="http://www.w3.org/1999/02/22-rdf-syntax-ns#"
   xmlns:svg="http://www.w3.org/2000/svg"
   xmlns="http://www.w3.org/2000/svg"
   xmlns:sodipodi="http://sodipodi.sourceforge.net/DTD/sodipodi-0.dtd"
   xmlns:inkscape="http://www.inkscape.org/namespaces/inkscape"
   version="1.1"
   id="body"
   width="369.37265"
   height="47.773132"
   viewBox="0 0 0.51301757 0.066351573"
   preserveAspectRatio="none"
   inkscape:version="0.48.3.1 r9886"
   sodipodi:docname="ch2-Z-G-71.svg">
  <metadata
     id="metadata83">
    <rdf:RDF>
      <cc:Work
         rdf:about="">
        <dc:format>image/svg+xml</dc:format>
        <dc:type
           rdf:resource="http://purl.org/dc/dcmitype/StillImage" />
      </cc:Work>
    </rdf:RDF>
  </metadata>
  <defs
     id="defs81" />
  <sodipodi:namedview
     pagecolor="#ffffff"
     bordercolor="#666666"
     borderopacity="1"
     objecttolerance="10"
     gridtolerance="10"
     guidetolerance="10"
     inkscape:pageopacity="0"
     inkscape:pageshadow="2"
     inkscape:window-width="640"
     inkscape:window-height="480"
     id="namedview79"
     showgrid="false"
     inkscape:zoom="0.32777778"
     inkscape:cx="381.44532"
     inkscape:cy="458.82151"
     inkscape:window-x="0"
     inkscape:window-y="24"
     inkscape:window-maximized="0"
     inkscape:current-layer="body" />
  <title
     id="title3">SVG drawing</title>
  <desc
     id="desc5">This was produced by version 4.4 of GNU libplot, a free library for exporting 2-D vector graphics.</desc>
  <g
     id="content"
     transform="matrix(0.0017361,0,0,-0.0017361,-0.00146483,0.06787066)"
     xml:space="preserve"
     stroke-miterlimit="10.433"
     font-style="normal"
     font-variant="normal"
     font-weight="normal"
     font-stretch="normal"
     font-size-adjust="none"
     letter-spacing="normal"
     word-spacing="normal"
     style="font-style:normal;font-variant:normal;font-weight:normal;font-stretch:normal;letter-spacing:normal;word-spacing:normal;text-anchor:start;fill:none;stroke:#000000;stroke-linecap:butt;stroke-linejoin:miter;stroke-miterlimit:10.43299961;stroke-opacity:1;stroke-dasharray:none;stroke-dashoffset:0">
<polygon
   points="1.5312,11.066 1.5312,28.848 3.9531,28.848 3.9531,29.488 0.89062,29.488 0.89062,10.426 3.9531,10.426 3.9531,11.066 "
   id="polygon9"
   style="fill:#000000;stroke-width:0" />
<path
   d="m 7.2539,21.637 -0.0123,-0.001 -0.012,-10e-4 -0.0117,-0.001 -0.0114,0 -0.0112,-0.001 -0.0109,-10e-4 -0.0105,-0.001 -0.0104,0 L 7.1437,21.629 7.125,21.627 7.1073,21.625 7.0906,21.623 7.0749,21.621 7.0601,21.618 7.0463,21.616 7.0334,21.613 7.0213,21.609 7.0101,21.606 6.9998,21.602 6.9902,21.598 6.9815,21.593 6.9734,21.588 6.9662,21.583 6.9596,21.577 6.9536,21.571 6.9484,21.564 6.9437,21.557 6.9397,21.549 6.9362,21.54 6.9333,21.532 6.9309,21.522 6.929,21.512 6.9275,21.501 6.9265,21.49 6.926,21.478 6.9258,21.465 c 0,-0.156 0.0781,-0.156 0.3594,-0.156 h 0.7343 c 1.3438,0 1.9532,-1.11 1.9532,-2.641 0,-2.078 -1.0782,-2.641 -1.8594,-2.641 -0.7656,0 -2.0625,0.36 -2.5313,1.422 0.5157,-0.078 0.9688,0.203 0.9688,0.766 0,0.469 -0.3281,0.781 -0.7656,0.781 -0.3907,0 -0.7969,-0.219 -0.7969,-0.828 0,-1.406 1.4062,-2.562 3.1719,-2.562 1.8908,0 3.2968,1.437 3.2968,3.046 0,1.469 -1.188,2.61 -2.7031,2.875 1.3751,0.391 2.2651,1.563 2.2651,2.797 0,1.25 -1.2963,2.172 -2.8432,2.172 -1.5938,0 -2.7656,-0.969 -2.7656,-2.125 0,-0.641 0.5,-0.766 0.7343,-0.766 0.3282,0 0.7188,0.25 0.7188,0.719 0,0.516 -0.3906,0.735 -0.7344,0.735 -0.0937,0 -0.125,0 -0.1719,-0.016 0.5938,1.078 2.0938,1.078 2.1719,1.078 0.5313,0 1.5625,-0.234 1.5625,-1.797 0,-0.297 -0.0469,-1.187 -0.5156,-1.875 C 8.707,21.746 8.1602,21.699 7.7383,21.684 z"
   id="path11"
   inkscape:connector-curvature="0"
   style="fill:#000000;stroke-width:0" />
<path
   d="M 19.664,22.418 19.618,22.408 19.574,22.397 19.531,22.384 19.49,22.37 19.451,22.355 19.414,22.338 19.378,22.32 19.343,22.3 19.311,22.28 19.279,22.258 19.25,22.236 19.222,22.212 19.195,22.187 19.17,22.162 19.147,22.136 19.125,22.109 19.104,22.082 19.085,22.054 19.068,22.025 19.052,21.997 19.037,21.967 19.023,21.937 19.011,21.908 19,21.877 l -0.009,-0.03 -0.008,-0.03 -0.007,-0.031 -0.005,-0.03 -0.005,-0.03 -0.003,-0.03 -0.002,-0.03 0,-0.029 c 0,-0.375 0.312,-0.5 0.531,-0.5 0.469,0 0.813,0.406 0.813,0.843 0,0.657 -0.766,0.969 -1.438,0.969 -0.969,0 -1.5,-0.953 -1.64,-1.265 -0.375,1.203 -1.36,1.265 -1.641,1.265 -1.625,0 -2.484,-2.094 -2.484,-2.437 0,-0.063 0.062,-0.141 0.171,-0.141 0.125,0 0.157,0.094 0.188,0.156 0.547,1.766 1.609,2.094 2.078,2.094 0.703,0 0.859,-0.656 0.859,-1.047 0,-0.344 -0.093,-0.719 -0.296,-1.469 L 15.57,17.918 c -0.25,-0.953 -0.703,-1.828 -1.547,-1.828 -0.078,0 -0.468,0 -0.812,0.203 0.578,0.125 0.703,0.594 0.703,0.781 0,0.328 -0.234,0.516 -0.547,0.516 -0.375,0 -0.797,-0.344 -0.797,-0.844 0,-0.672 0.75,-0.969 1.438,-0.969 0.765,0 1.297,0.594 1.64,1.25 0.25,-0.937 1.047,-1.25 1.641,-1.25 1.609,0 2.469,2.078 2.469,2.422 0,0.094 -0.063,0.156 -0.156,0.156 -0.141,0 -0.157,-0.078 -0.204,-0.218 -0.437,-1.391 -1.359,-2.047 -2.062,-2.047 -0.563,0 -0.859,0.422 -0.859,1.062 0,0.36 0.062,0.61 0.312,1.657 l 0.563,2.156 c 0.234,0.953 0.765,1.656 1.5,1.656 0.031,0 0.484,0 0.812,-0.203 z"
   id="path13"
   inkscape:connector-curvature="0"
   style="fill:#000000;stroke-width:0" />
<path
   d="m 22.426,23.375 1.172,1.156 c 1.75,1.531 2.422,2.141 2.422,3.25 0,1.266 -1.016,2.172 -2.375,2.172 -1.25,0 -2.079,-1.031 -2.079,-2.031 0,-0.625 0.547,-0.625 0.594,-0.625 0.188,0 0.578,0.141 0.578,0.594 0,0.297 -0.203,0.578 -0.593,0.578 -0.094,0 -0.11,0 -0.141,0 0.25,0.719 0.859,1.125 1.5,1.125 1.016,0 1.5,-0.891 1.5,-1.813 0,-0.89 -0.563,-1.781 -1.172,-2.469 l -2.141,-2.39 c -0.125,-0.11 -0.125,-0.141 -0.125,-0.406 h 4.141 l 0.313,1.937 h -0.282 c -0.062,-0.328 -0.14,-0.828 -0.25,-0.984 -0.078,-0.094 -0.812,-0.094 -1.062,-0.094 z"
   id="path15"
   inkscape:connector-curvature="0"
   style="fill:#000000;stroke-width:0" />
<path
   d="m 36.969,19.605 h 4.39 c 0.219,0 0.5,0 0.5,0.282 0,0.312 -0.265,0.312 -0.5,0.312 h -4.39 v 4.375 c 0,0.235 0,0.516 -0.281,0.516 -0.313,0 -0.313,-0.266 -0.313,-0.516 v -4.375 h -4.391 c -0.218,0 -0.5,0 -0.5,-0.297 0,-0.297 0.266,-0.297 0.5,-0.297 h 4.391 v -4.39 c 0,-0.219 0,-0.5 0.297,-0.5 0.297,0 0.297,0.266 0.297,0.5 z"
   id="path17"
   inkscape:connector-curvature="0"
   style="fill:#000000;stroke-width:0" />
<path
   d="m 51.473,12.074 0,0.009 -10e-4,0.009 0,0.004 -0.001,0.005 -10e-4,0.004 -0.002,0.005 -0.002,0.006 -0.002,0.005 -0.003,0.006 -0.003,0.007 -0.004,0.006 -0.005,0.008 -0.005,0.008 -0.006,0.008 -0.007,0.009 -0.008,0.01 -0.009,0.011 -0.01,0.011 -0.005,0.006 -0.006,0.006 -0.006,0.006 -0.006,0.007 -0.006,0.007 -0.007,0.007 -0.007,0.007 -0.007,0.008 -0.008,0.008 -0.007,0.008 -0.009,0.008 -0.008,0.009 -0.009,0.009 -0.009,0.009 -0.01,0.009 -0.01,0.01 -0.01,0.01 -0.011,0.01 -0.011,0.011 -0.011,0.011 -0.012,0.011 -0.012,0.012 -0.013,0.012 -0.013,0.012 c -1.578,1.609 -2.468,4.234 -2.468,7.469 0,3.093 0.734,5.734 2.578,7.625 0.172,0.14 0.172,0.172 0.172,0.218 0,0.094 -0.078,0.125 -0.157,0.125 -0.203,0 -1.5,-1.14 -2.281,-2.703 -0.812,-1.609 -1.172,-3.312 -1.172,-5.265 0,-1.407 0.219,-3.297 1.047,-5 0.938,-1.906 2.235,-2.938 2.406,-2.938 0.079,0 0.157,0.032 0.157,0.125 z"
   id="path19"
   inkscape:connector-curvature="0"
   style="fill:#000000;stroke-width:0" />
<path
   d="m 59.367,18.605 h -0.359 c -0.047,-0.265 -0.172,-1.14 -0.328,-1.406 -0.11,-0.14 -1.016,-0.14 -1.5,-0.14 h -2.938 c 0.422,0.375 1.406,1.39 1.813,1.765 2.422,2.235 3.312,3.047 3.312,4.625 0,1.828 -1.453,3.047 -3.297,3.047 -1.843,0 -2.922,-1.562 -2.922,-2.937 0,-0.813 0.704,-0.813 0.75,-0.813 0.329,0 0.735,0.25 0.735,0.75 0,0.453 -0.297,0.75 -0.735,0.75 -0.156,0 -0.187,0 -0.234,-0.016 0.313,1.079 1.172,1.813 2.203,1.813 1.344,0 2.172,-1.125 2.172,-2.594 0,-1.344 -0.781,-2.531 -1.687,-3.547 l -3.204,-3.593 v -0.375 h 5.797 z"
   id="path21"
   inkscape:connector-curvature="0"
   style="fill:#000000;stroke-width:0" />
<path
   d="m 70.051,19.605 h 4.39 c 0.219,0 0.5,0 0.5,0.282 0,0.312 -0.265,0.312 -0.5,0.312 h -4.39 v 4.375 c 0,0.235 0,0.516 -0.281,0.516 -0.313,0 -0.313,-0.266 -0.313,-0.516 v -4.375 h -4.391 c -0.218,0 -0.5,0 -0.5,-0.297 0,-0.297 0.266,-0.297 0.5,-0.297 h 4.391 v -4.39 c 0,-0.219 0,-0.5 0.297,-0.5 0.297,0 0.297,0.266 0.297,0.5 z"
   id="path23"
   inkscape:connector-curvature="0"
   style="fill:#000000;stroke-width:0" />
<path
   d="m 82.324,21.637 -0.012,-0.001 -0.012,-10e-4 -0.012,-0.001 -0.011,0 -0.011,-0.001 -0.011,-10e-4 -0.011,-0.001 -0.01,0 -0.02,-0.002 L 82.195,21.627 82.178,21.625 82.161,21.623 82.145,21.621 82.13,21.618 82.117,21.616 82.104,21.613 82.092,21.609 82.08,21.606 82.07,21.602 82.061,21.598 82.052,21.593 82.044,21.588 82.036,21.583 82.03,21.577 82.024,21.571 82.019,21.564 82.014,21.557 82.01,21.549 82.007,21.54 l -0.003,-0.008 -0.003,-0.01 -0.002,-0.01 -10e-4,-0.011 -0.001,-0.011 -0.001,-0.012 0,-0.013 c 0,-0.156 0.078,-0.156 0.359,-0.156 h 0.735 c 1.344,0 1.953,-1.11 1.953,-2.641 0,-2.078 -1.078,-2.641 -1.859,-2.641 -0.766,0 -2.063,0.36 -2.532,1.422 0.516,-0.078 0.969,0.203 0.969,0.766 0,0.469 -0.328,0.781 -0.766,0.781 -0.39,0 -0.796,-0.219 -0.796,-0.828 0,-1.406 1.406,-2.562 3.171,-2.562 1.891,0 3.297,1.437 3.297,3.046 0,1.469 -1.187,2.61 -2.703,2.875 1.375,0.391 2.266,1.563 2.266,2.797 0,1.25 -1.297,2.172 -2.844,2.172 -1.594,0 -2.766,-0.969 -2.766,-2.125 0,-0.641 0.5,-0.766 0.735,-0.766 0.328,0 0.719,0.25 0.719,0.719 0,0.516 -0.391,0.735 -0.735,0.735 -0.094,0 -0.125,0 -0.172,-0.016 0.594,1.078 2.094,1.078 2.172,1.078 0.531,0 1.563,-0.234 1.563,-1.797 0,-0.297 -0.047,-1.187 -0.516,-1.875 -0.469,-0.703 -1.016,-0.75 -1.437,-0.765 z"
   id="path25"
   inkscape:connector-curvature="0"
   style="fill:#000000;stroke-width:0" />
<path
   d="m 91.707,18.199 0,0.009 -10e-4,0.008 -0.001,0.009 -0.001,0.008 -10e-4,0.008 -0.002,0.007 -0.003,0.008 -0.002,0.007 -0.003,0.007 -0.003,0.007 -0.004,0.007 -0.004,0.006 -0.004,0.006 -0.004,0.006 -0.005,0.005 -0.005,0.006 -0.005,0.005 -0.006,0.004 -0.006,0.005 -0.006,0.004 -0.006,0.004 -0.006,0.003 -0.007,0.003 -0.007,0.003 -0.008,0.003 -0.007,0.002 -0.008,0.002 -0.008,0.002 -0.008,10e-4 -0.008,0.001 -0.009,0 -0.008,0 c -0.141,0 -0.156,-0.046 -0.25,-0.328 -0.406,-1.437 -1.063,-1.937 -1.578,-1.937 -0.188,0 -0.422,0.047 -0.422,0.531 0,0.422 0.187,0.906 0.375,1.375 l 1.109,2.953 c 0.047,0.141 0.156,0.422 0.156,0.719 0,0.672 -0.468,1.281 -1.25,1.281 -1.468,0 -2.062,-2.312 -2.062,-2.437 0,-0.063 0.078,-0.141 0.187,-0.141 0.141,0 0.157,0.063 0.219,0.281 0.375,1.344 0.985,1.969 1.61,1.969 0.14,0 0.406,-0.016 0.406,-0.516 0,-0.421 -0.203,-0.937 -0.328,-1.296 l -1.11,-2.954 c -0.109,-0.25 -0.203,-0.5 -0.203,-0.796 0,-0.719 0.5,-1.282 1.266,-1.282 1.453,0 2.031,2.313 2.031,2.422 z"
   id="path27"
   inkscape:connector-curvature="0"
   style="fill:#000000;stroke-width:0" />
<path
   d="m 91.582,25.855 -10e-4,0.023 -0.001,0.022 -0.003,0.022 -0.004,0.023 -0.005,0.023 -0.006,0.022 -0.007,0.023 -0.008,0.022 -0.009,0.022 -0.01,0.022 -0.012,0.021 -0.012,0.022 -0.014,0.02 -0.014,0.021 -0.016,0.019 -0.017,0.019 -0.017,0.018 -0.019,0.018 -0.02,0.017 -0.021,0.016 -0.022,0.015 -0.023,0.014 -0.024,0.013 -0.025,0.011 -0.026,0.011 -0.027,0.01 -0.028,0.008 -0.029,0.007 -0.03,0.005 -0.031,0.004 -0.033,0.002 -0.033,10e-4 c -0.359,0 -0.781,-0.344 -0.781,-0.766 0,-0.39 0.344,-0.515 0.531,-0.515 0.422,0 0.797,0.406 0.797,0.765 z"
   id="path29"
   inkscape:connector-curvature="0"
   style="fill:#000000;stroke-width:0" />
<path
   d="m 97.016,19.887 -0.001,0.116 -0.001,0.121 -0.003,0.125 -0.004,0.128 -0.005,0.133 -0.007,0.136 -0.018,0.282 -0.025,0.294 -0.033,0.306 -0.042,0.316 -0.051,0.324 -0.062,0.332 -0.073,0.337 -0.085,0.343 -0.098,0.345 -0.112,0.348 -0.061,0.175 -0.066,0.174 -0.069,0.175 -0.073,0.174 -0.077,0.174 -0.081,0.173 c -0.938,1.906 -2.25,2.937 -2.422,2.937 -0.063,0 -0.141,-0.031 -0.141,-0.125 0,-0.046 0,-0.078 0.266,-0.359 1.594,-1.594 2.484,-4.219 2.484,-7.469 0,-3.078 -0.75,-5.734 -2.594,-7.609 -0.156,-0.141 -0.156,-0.172 -0.156,-0.219 0,-0.093 0.078,-0.125 0.141,-0.125 0.203,0 1.515,1.141 2.297,2.703 0.797,1.61 1.172,3.328 1.172,5.235 z"
   id="path31"
   inkscape:connector-curvature="0"
   style="fill:#000000;stroke-width:0" />
<path
   d="m 106.13,22.418 -0.04,-0.01 -0.05,-0.011 -0.04,-0.013 -0.04,-0.014 -0.04,-0.015 -0.04,-0.017 -0.03,-0.018 -0.04,-0.02 -0.03,-0.02 -0.03,-0.022 -0.03,-0.022 -0.03,-0.024 -0.03,-0.025 -0.02,-0.025 -0.02,-0.026 -0.03,-0.027 -0.02,-0.027 -0.02,-0.028 -0.01,-0.029 -0.02,-0.028 -0.01,-0.03 -0.02,-0.03 -0.01,-0.029 -0.01,-0.031 -0.01,-0.03 -0.01,-0.03 0,-0.031 -0.01,-0.03 0,-0.03 -0.01,-0.03 0,-0.03 0,-0.029 c 0,-0.375 0.31,-0.5 0.53,-0.5 0.47,0 0.81,0.406 0.81,0.843 0,0.657 -0.76,0.969 -1.43,0.969 -0.97,0 -1.5,-0.953 -1.65,-1.265 -0.37,1.203 -1.35,1.265 -1.63,1.265 -1.63,0 -2.49,-2.094 -2.49,-2.437 0,-0.063 0.063,-0.141 0.172,-0.141 0.125,0 0.156,0.094 0.188,0.156 0.55,1.766 1.61,2.094 2.08,2.094 0.7,0 0.86,-0.656 0.86,-1.047 0,-0.344 -0.1,-0.719 -0.3,-1.469 l -0.53,-2.187 c -0.25,-0.953 -0.7,-1.828 -1.55,-1.828 -0.08,0 -0.47,0 -0.81,0.203 0.58,0.125 0.7,0.594 0.7,0.781 0,0.328 -0.23,0.516 -0.544,0.516 -0.375,0 -0.797,-0.344 -0.797,-0.844 0,-0.672 0.75,-0.969 1.441,-0.969 0.76,0 1.29,0.594 1.64,1.25 0.25,-0.937 1.04,-1.25 1.64,-1.25 1.61,0 2.47,2.078 2.47,2.422 0,0.094 -0.07,0.156 -0.16,0.156 -0.14,0 -0.16,-0.078 -0.2,-0.218 -0.44,-1.391 -1.36,-2.047 -2.06,-2.047 -0.57,0 -0.87,0.422 -0.87,1.062 0,0.36 0.07,0.61 0.32,1.657 l 0.56,2.156 c 0.24,0.953 0.77,1.656 1.5,1.656 0.03,0 0.49,0 0.81,-0.203 z"
   id="path33"
   inkscape:connector-curvature="0"
   style="fill:#000000;stroke-width:0" />
<path
   d="m 117.36,19.605 h 4.39 c 0.21,0 0.5,0 0.5,0.282 0,0.312 -0.27,0.312 -0.5,0.312 h -4.39 v 4.375 c 0,0.235 0,0.516 -0.29,0.516 -0.31,0 -0.31,-0.266 -0.31,-0.516 v -4.375 h -4.39 c -0.22,0 -0.5,0 -0.5,-0.297 0,-0.297 0.27,-0.297 0.5,-0.297 h 4.39 v -4.39 c 0,-0.219 0,-0.5 0.3,-0.5 0.3,0 0.3,0.266 0.3,0.5 z"
   id="path35"
   inkscape:connector-curvature="0"
   style="fill:#000000;stroke-width:0" />
<path
   d="m 134.24,25.809 v 0.359 h -3.83 c -1.92,0 -1.95,0.203 -2.01,0.516 h -0.36 l -0.49,-3.188 h 0.34 c 0.05,0.297 0.21,1.281 0.41,1.453 0.13,0.094 1.31,0.094 1.53,0.094 h 3.38 l -1.69,-2.422 c -0.42,-0.609 -2.03,-3.219 -2.03,-6.203 0,-0.188 0,-0.812 0.66,-0.812 0.65,0 0.65,0.609 0.65,0.828 v 0.781 c 0,2.375 0.39,4.219 1.14,5.281 z"
   id="path37"
   inkscape:connector-curvature="0"
   style="fill:#000000;stroke-width:0" />
<polygon
   points="134.84,28.848 137.27,28.848 137.27,11.066 134.84,11.066 134.84,10.426 137.91,10.426 137.91,29.488 134.84,29.488 "
   id="polygon39"
   style="fill:#000000;stroke-width:0" />
<path
   d="m 147.73,19.902 0,0.044 0,0.043 -0.01,0.042 -0.01,0.042 -0.01,0.041 -0.01,0.04 -0.01,0.04 -0.02,0.038 -0.01,0.037 -0.02,0.037 -0.02,0.035 -0.02,0.034 -0.03,0.033 -0.02,0.032 -0.03,0.031 -0.03,0.029 -0.03,0.028 -0.03,0.026 -0.03,0.025 -0.03,0.024 -0.03,0.022 -0.04,0.02 -0.04,0.018 -0.03,0.017 -0.04,0.015 -0.04,0.013 -0.04,0.012 -0.04,0.009 -0.04,0.007 -0.05,0.006 -0.04,0.003 -0.04,10e-4 c -0.46,0 -0.85,-0.375 -0.85,-0.844 0,-0.453 0.39,-0.843 0.85,-0.843 0.46,0 0.84,0.39 0.84,0.843 z"
   id="path41"
   inkscape:connector-curvature="0"
   style="fill:#000000;stroke-width:0" />
<polygon
   points="157.5,1.7852 157.5,38.176 160.81,38.176 160.81,39.051 156.62,39.051 156.62,0.91016 160.81,0.91016 160.81,1.7852 "
   id="polygon43"
   style="fill:#000000;stroke-width:0" />
<path
   d="m 168.6,22.418 -0.05,-0.01 -0.04,-0.011 -0.04,-0.013 -0.05,-0.014 -0.03,-0.015 -0.04,-0.017 -0.04,-0.018 -0.03,-0.02 -0.04,-0.02 -0.03,-0.022 -0.03,-0.022 -0.02,-0.024 -0.03,-0.025 -0.03,-0.025 -0.02,-0.026 -0.02,-0.027 -0.02,-0.027 -0.02,-0.028 -0.02,-0.029 -0.01,-0.028 -0.02,-0.03 -0.01,-0.03 -0.01,-0.029 -0.02,-0.031 0,-0.03 -0.01,-0.03 -0.01,-0.031 -0.01,-0.03 0,-0.03 0,-0.03 0,-0.03 0,-0.029 c 0,-0.375 0.31,-0.5 0.53,-0.5 0.47,0 0.81,0.406 0.81,0.843 0,0.657 -0.77,0.969 -1.44,0.969 -0.97,0 -1.5,-0.953 -1.64,-1.265 -0.37,1.203 -1.36,1.265 -1.64,1.265 -1.62,0 -2.48,-2.094 -2.48,-2.437 0,-0.063 0.06,-0.141 0.17,-0.141 0.12,0 0.15,0.094 0.19,0.156 0.54,1.766 1.6,2.094 2.07,2.094 0.71,0 0.86,-0.656 0.86,-1.047 0,-0.344 -0.09,-0.719 -0.29,-1.469 l -0.54,-2.187 c -0.25,-0.953 -0.7,-1.828 -1.54,-1.828 -0.08,0 -0.47,0 -0.81,0.203 0.57,0.125 0.7,0.594 0.7,0.781 0,0.328 -0.24,0.516 -0.55,0.516 -0.37,0 -0.8,-0.344 -0.8,-0.844 0,-0.672 0.75,-0.969 1.44,-0.969 0.77,0 1.3,0.594 1.64,1.25 0.25,-0.937 1.05,-1.25 1.64,-1.25 1.61,0 2.47,2.078 2.47,2.422 0,0.094 -0.06,0.156 -0.15,0.156 -0.14,0 -0.16,-0.078 -0.21,-0.218 -0.43,-1.391 -1.36,-2.047 -2.06,-2.047 -0.56,0 -0.86,0.422 -0.86,1.062 0,0.36 0.06,0.61 0.31,1.657 l 0.57,2.156 c 0.23,0.953 0.76,1.656 1.5,1.656 0.03,0 0.48,0 0.81,-0.203 z"
   id="path45"
   inkscape:connector-curvature="0"
   style="fill:#000000;stroke-width:0" />
<path
   d="m 173.21,24.359 v -0.968 c 0,-0.407 -0.03,-0.532 -0.84,-0.532 h -0.23 v -0.343 c 0.45,0.031 1.03,0.031 1.5,0.031 0.46,0 1.06,0 1.51,-0.031 v 0.343 h -0.23 c -0.83,0 -0.85,0.125 -0.85,0.532 v 0.968 h 1.11 v 0.344 h -1.11 v 5.078 c 0,0.219 0,0.281 -0.18,0.281 -0.1,0 -0.13,0 -0.22,-0.124 l -3.42,-5.235 h 0.31 l 2.72,4.156 v -4.156 h -2.72 -0.31 v -0.344 z"
   id="path47"
   inkscape:connector-curvature="0"
   style="fill:#000000;stroke-width:0" />
<path
   d="m 185.9,19.605 h 4.39 c 0.22,0 0.5,0 0.5,0.282 0,0.312 -0.27,0.312 -0.5,0.312 h -4.39 v 4.375 c 0,0.235 0,0.516 -0.28,0.516 -0.32,0 -0.32,-0.266 -0.32,-0.516 v -4.375 h -4.39 c -0.21,0 -0.5,0 -0.5,-0.297 0,-0.297 0.27,-0.297 0.5,-0.297 h 4.39 v -4.39 c 0,-0.219 0,-0.5 0.3,-0.5 0.3,0 0.3,0.266 0.3,0.5 z"
   id="path49"
   inkscape:connector-curvature="0"
   style="fill:#000000;stroke-width:0" />
<path
   d="m 203.43,29.391 h -0.36 c -0.04,-0.266 -0.17,-1.141 -0.32,-1.407 -0.11,-0.14 -1.02,-0.14 -1.5,-0.14 h -2.94 c 0.42,0.375 1.4,1.39 1.81,1.765 2.42,2.235 3.31,3.047 3.31,4.625 0,1.828 -1.45,3.047 -3.29,3.047 -1.85,0 -2.93,-1.562 -2.93,-2.937 0,-0.813 0.71,-0.813 0.75,-0.813 0.33,0 0.74,0.25 0.74,0.75 0,0.453 -0.3,0.75 -0.74,0.75 -0.15,0 -0.18,0 -0.23,-0.015 0.31,1.078 1.17,1.812 2.2,1.812 1.35,0 2.17,-1.125 2.17,-2.594 0,-1.343 -0.78,-2.531 -1.68,-3.546 l -3.21,-3.594 v -0.375 h 5.8 z"
   id="path51"
   inkscape:connector-curvature="0"
   style="fill:#000000;stroke-width:0" />
<line
   x1="196.42999"
   y1="19.917999"
   x2="204.23"
   y2="19.917999"
   id="line53"
   style="stroke-width:0.63800001" />
<path
   d="m 199.35,10.703 -0.01,-10e-4 -0.01,0 -0.01,-10e-4 -0.01,-0.001 -0.01,-10e-4 -0.01,0 -0.03,-0.002 -0.01,-0.002 -0.02,-10e-4 -0.02,-0.002 -0.02,-0.003 -0.01,-0.002 -0.02,-0.002 -0.01,-0.003 -0.02,-0.003 -0.01,-0.003 -0.01,-0.004 -0.01,-0.004 -0.01,-0.004 -0.01,-0.005 -0.01,-0.004 0,-0.006 -0.01,-0.006 -0.01,-0.006 0,-0.007 0,-0.007 -0.01,-0.008 0,-0.008 -0.01,-0.009 0,-0.01 0,-0.01 0,-0.01 0,-0.012 0,-0.012 0,-0.013 c 0,-0.156 0.07,-0.156 0.36,-0.156 h 0.73 c 1.34,0 1.95,-1.1094 1.95,-2.6406 0,-2.0782 -1.07,-2.6406 -1.86,-2.6406 -0.76,0 -2.06,0.3593 -2.53,1.4218 0.52,-0.0781 0.97,0.2032 0.97,0.7656 0,0.4688 -0.33,0.7813 -0.76,0.7813 -0.39,0 -0.8,-0.2187 -0.8,-0.8281 0,-1.4063 1.41,-2.5625 3.17,-2.5625 1.89,0 3.3,1.4375 3.3,3.0469 0,1.4687 -1.19,2.6092 -2.71,2.8752 1.38,0.39 2.27,1.562 2.27,2.797 0,1.25 -1.3,2.171 -2.84,2.171 -1.6,0 -2.77,-0.968 -2.77,-2.124 0,-0.641 0.5,-0.766 0.74,-0.766 0.32,0 0.71,0.25 0.71,0.719 0,0.515 -0.39,0.734 -0.73,0.734 -0.09,0 -0.13,0 -0.17,-0.016 0.59,1.079 2.09,1.079 2.17,1.079 0.53,0 1.56,-0.235 1.56,-1.797 0,-0.297 -0.04,-1.188 -0.51,-1.875 -0.47,-0.704 -1.02,-0.75 -1.44,-0.766 z"
   id="path55"
   inkscape:connector-curvature="0"
   style="fill:#000000;stroke-width:0" />
<path
   d="m 212.96,22.418 -0.04,-0.01 -0.05,-0.011 -0.04,-0.013 -0.04,-0.014 -0.04,-0.015 -0.04,-0.017 -0.03,-0.018 -0.04,-0.02 -0.03,-0.02 -0.03,-0.022 -0.03,-0.022 -0.03,-0.024 -0.02,-0.025 -0.03,-0.025 -0.02,-0.026 -0.02,-0.027 -0.02,-0.027 -0.02,-0.028 -0.02,-0.029 -0.02,-0.028 -0.01,-0.03 -0.02,-0.03 -0.01,-0.029 -0.01,-0.031 -0.01,-0.03 -0.01,-0.03 0,-0.031 -0.01,-0.03 0,-0.03 -0.01,-0.03 0,-0.03 0,-0.029 c 0,-0.375 0.31,-0.5 0.53,-0.5 0.47,0 0.81,0.406 0.81,0.843 0,0.657 -0.76,0.969 -1.43,0.969 -0.97,0 -1.5,-0.953 -1.64,-1.265 -0.38,1.203 -1.36,1.265 -1.64,1.265 -1.63,0 -2.49,-2.094 -2.49,-2.437 0,-0.063 0.06,-0.141 0.17,-0.141 0.13,0 0.16,0.094 0.19,0.156 0.55,1.766 1.61,2.094 2.08,2.094 0.7,0 0.86,-0.656 0.86,-1.047 0,-0.344 -0.1,-0.719 -0.3,-1.469 l -0.53,-2.187 c -0.25,-0.953 -0.7,-1.828 -1.55,-1.828 -0.07,0 -0.47,0 -0.81,0.203 0.58,0.125 0.7,0.594 0.7,0.781 0,0.328 -0.23,0.516 -0.54,0.516 -0.38,0 -0.8,-0.344 -0.8,-0.844 0,-0.672 0.75,-0.969 1.44,-0.969 0.76,0 1.29,0.594 1.64,1.25 0.25,-0.937 1.05,-1.25 1.64,-1.25 1.61,0 2.47,2.078 2.47,2.422 0,0.094 -0.06,0.156 -0.16,0.156 -0.14,0 -0.15,-0.078 -0.2,-0.218 -0.44,-1.391 -1.36,-2.047 -2.06,-2.047 -0.57,0 -0.86,0.422 -0.86,1.062 0,0.36 0.06,0.61 0.31,1.657 l 0.56,2.156 c 0.24,0.953 0.77,1.656 1.5,1.656 0.03,0 0.49,0 0.81,-0.203 z"
   id="path57"
   inkscape:connector-curvature="0"
   style="fill:#000000;stroke-width:0" />
<path
   d="m 215.72,23.375 1.18,1.156 c 1.75,1.531 2.42,2.141 2.42,3.25 0,1.266 -1.02,2.172 -2.38,2.172 -1.25,0 -2.08,-1.031 -2.08,-2.031 0,-0.625 0.55,-0.625 0.6,-0.625 0.19,0 0.58,0.141 0.58,0.594 0,0.297 -0.21,0.578 -0.6,0.578 -0.09,0 -0.11,0 -0.14,0 0.25,0.719 0.86,1.125 1.5,1.125 1.02,0 1.5,-0.891 1.5,-1.813 0,-0.89 -0.56,-1.781 -1.17,-2.469 l -2.14,-2.39 c -0.13,-0.11 -0.13,-0.141 -0.13,-0.406 H 219 l 0.32,1.937 h -0.28 c -0.07,-0.328 -0.14,-0.828 -0.25,-0.984 -0.08,-0.094 -0.82,-0.094 -1.07,-0.094 z"
   id="path59"
   inkscape:connector-curvature="0"
   style="fill:#000000;stroke-width:0" />
<path
   d="m 230.26,19.605 h 4.39 c 0.22,0 0.5,0 0.5,0.282 0,0.312 -0.26,0.312 -0.5,0.312 h -4.39 v 4.375 c 0,0.235 0,0.516 -0.28,0.516 -0.31,0 -0.31,-0.266 -0.31,-0.516 v -4.375 h -4.39 c -0.22,0 -0.5,0 -0.5,-0.297 0,-0.297 0.26,-0.297 0.5,-0.297 h 4.39 v -4.39 c 0,-0.219 0,-0.5 0.29,-0.5 0.3,0 0.3,0.266 0.3,0.5 z"
   id="path61"
   inkscape:connector-curvature="0"
   style="fill:#000000;stroke-width:0" />
<path
   d="m 244.77,12.074 0,0.009 0,0.009 0,0.004 0,0.005 0,0.004 0,0.005 -0.01,0.006 0,0.005 0,0.006 0,0.007 -0.01,0.006 0,0.008 -0.01,0.008 -0.01,0.008 0,0.009 -0.01,0.01 -0.01,0.011 -0.01,0.011 0,0.006 -0.01,0.006 -0.01,0.006 0,0.007 -0.01,0.007 0,0.007 -0.01,0.007 -0.01,0.008 -0.01,0.008 0,0.008 -0.01,0.008 -0.01,0.009 -0.01,0.009 -0.01,0.009 -0.01,0.009 -0.01,0.01 -0.01,0.01 -0.01,0.01 -0.01,0.011 -0.01,0.011 -0.01,0.011 -0.02,0.012 -0.01,0.012 -0.01,0.012 c -1.58,1.609 -2.47,4.234 -2.47,7.469 0,3.093 0.73,5.734 2.58,7.625 0.17,0.14 0.17,0.172 0.17,0.218 0,0.094 -0.08,0.125 -0.16,0.125 -0.2,0 -1.5,-1.14 -2.28,-2.703 -0.81,-1.609 -1.17,-3.312 -1.17,-5.265 0,-1.407 0.22,-3.297 1.05,-5 0.94,-1.906 2.23,-2.938 2.4,-2.938 0.08,0 0.16,0.032 0.16,0.125 z"
   id="path63"
   inkscape:connector-curvature="0"
   style="fill:#000000;stroke-width:0" />
<path
   d="m 247.7,25.043 0.06,-0.02 0.06,-0.019 0.06,-0.017 0.07,-0.017 0.06,-0.015 0.06,-0.015 0.06,-0.013 0.05,-0.013 0.06,-0.012 0.06,-0.01 0.05,-0.01 0.05,-0.009 0.05,-0.009 0.05,-0.007 0.05,-0.007 0.05,-0.006 0.05,-0.006 0.04,-0.005 0.04,-0.004 0.04,-0.004 0.04,-0.003 0.04,-0.003 0.04,-0.003 0.03,-0.002 0.03,-0.001 0.03,-0.002 0.03,-0.001 0.02,0 0.03,-10e-4 0.02,0 0.02,0 0.02,0 c 1.79,0 2.93,1.312 2.93,1.531 0,0.062 -0.03,0.14 -0.12,0.14 -0.03,0 -0.06,0 -0.2,-0.062 -0.89,-0.375 -1.66,-0.422 -2.08,-0.422 -1.05,0 -1.8,0.313 -2.1,0.438 -0.1,0.046 -0.14,0.046 -0.15,0.046 -0.13,0 -0.13,-0.093 -0.13,-0.343 v -4.719 c 0,-0.281 0,-0.375 0.19,-0.375 0.08,0 0.09,0.016 0.25,0.203 0.45,0.641 1.2,1.031 1.99,1.031 0.84,0 1.26,-0.781 1.39,-1.047 0.26,-0.625 0.28,-1.406 0.28,-2 0,-0.609 0,-1.515 -0.44,-2.234 -0.36,-0.562 -0.97,-0.969 -1.67,-0.969 -1.05,0 -2.08,0.719 -2.38,1.875 0.08,-0.031 0.19,-0.047 0.27,-0.047 0.26,0 0.69,0.157 0.69,0.704 0,0.437 -0.3,0.703 -0.69,0.703 -0.3,0 -0.7,-0.157 -0.7,-0.766 0,-1.359 1.07,-2.89 2.84,-2.89 1.8,0 3.37,1.499 3.37,3.515 0,1.906 -1.28,3.469 -2.95,3.469 -0.91,0 -1.59,-0.391 -2.01,-0.844 z"
   id="path65"
   inkscape:connector-curvature="0"
   style="fill:#000000;stroke-width:0" />
<path
   d="m 263.35,19.605 h 4.39 c 0.22,0 0.5,0 0.5,0.282 0,0.312 -0.27,0.312 -0.5,0.312 h -4.39 v 4.375 c 0,0.235 0,0.516 -0.28,0.516 -0.32,0 -0.32,-0.266 -0.32,-0.516 v -4.375 h -4.39 c -0.22,0 -0.5,0 -0.5,-0.297 0,-0.297 0.27,-0.297 0.5,-0.297 h 4.39 v -4.39 c 0,-0.219 0,-0.5 0.3,-0.5 0.3,0 0.3,0.266 0.3,0.5 z"
   id="path67"
   inkscape:connector-curvature="0"
   style="fill:#000000;stroke-width:0" />
<path
   d="m 275.62,21.637 -0.01,-0.001 -0.01,-10e-4 -0.02,-0.001 -0.01,0 -0.01,-0.001 -0.01,-10e-4 -0.01,-0.001 -0.01,0 -0.02,-0.002 -0.02,-0.002 -0.02,-0.002 -0.01,-0.002 -0.02,-0.002 -0.01,-0.003 -0.02,-0.002 -0.01,-0.003 -0.01,-0.004 -0.01,-0.003 -0.01,-0.004 -0.01,-0.004 -0.01,-0.005 -0.01,-0.005 -0.01,-0.005 0,-0.006 -0.01,-0.006 0,-0.007 -0.01,-0.007 0,-0.008 -0.01,-0.009 0,-0.008 0,-0.01 0,-0.01 -0.01,-0.011 0,-0.011 0,-0.012 0,-0.013 c 0,-0.156 0.08,-0.156 0.36,-0.156 h 0.74 c 1.34,0 1.95,-1.11 1.95,-2.641 0,-2.078 -1.08,-2.641 -1.86,-2.641 -0.77,0 -2.06,0.36 -2.53,1.422 0.51,-0.078 0.97,0.203 0.97,0.766 0,0.469 -0.33,0.781 -0.77,0.781 -0.39,0 -0.79,-0.219 -0.79,-0.828 0,-1.406 1.4,-2.562 3.17,-2.562 1.89,0 3.29,1.437 3.29,3.046 0,1.469 -1.18,2.61 -2.7,2.875 1.38,0.391 2.27,1.563 2.27,2.797 0,1.25 -1.3,2.172 -2.85,2.172 -1.59,0 -2.76,-0.969 -2.76,-2.125 0,-0.641 0.5,-0.766 0.73,-0.766 0.33,0 0.72,0.25 0.72,0.719 0,0.516 -0.39,0.735 -0.73,0.735 -0.1,0 -0.13,0 -0.18,-0.016 0.6,1.078 2.1,1.078 2.18,1.078 0.53,0 1.56,-0.234 1.56,-1.797 0,-0.297 -0.05,-1.187 -0.52,-1.875 -0.47,-0.703 -1.01,-0.75 -1.43,-0.765 z"
   id="path69"
   inkscape:connector-curvature="0"
   style="fill:#000000;stroke-width:0" />
<path
   d="m 285,18.199 0,0.009 0,0.008 0,0.009 0,0.008 0,0.008 0,0.007 0,0.008 -0.01,0.007 0,0.007 0,0.007 -0.01,0.007 0,0.006 0,0.006 -0.01,0.006 0,0.005 -0.01,0.006 0,0.005 -0.01,0.004 -0.01,0.005 0,0.004 -0.01,0.004 0,0.003 -0.01,0.003 -0.01,0.003 -0.01,0.003 0,0.002 -0.01,0.002 -0.01,0.002 -0.01,10e-4 0,0.001 -0.01,0 -0.01,0 c -0.14,0 -0.16,-0.046 -0.25,-0.328 -0.41,-1.437 -1.06,-1.937 -1.58,-1.937 -0.19,0 -0.42,0.047 -0.42,0.531 0,0.422 0.19,0.906 0.37,1.375 l 1.11,2.953 c 0.05,0.141 0.16,0.422 0.16,0.719 0,0.672 -0.47,1.281 -1.25,1.281 -1.47,0 -2.06,-2.312 -2.06,-2.437 0,-0.063 0.07,-0.141 0.18,-0.141 0.14,0 0.16,0.063 0.22,0.281 0.38,1.344 0.99,1.969 1.61,1.969 0.14,0 0.41,-0.016 0.41,-0.516 0,-0.421 -0.21,-0.937 -0.33,-1.296 l -1.11,-2.954 c -0.11,-0.25 -0.2,-0.5 -0.2,-0.796 0,-0.719 0.5,-1.282 1.26,-1.282 1.46,0 2.03,2.313 2.03,2.422 z"
   id="path71"
   inkscape:connector-curvature="0"
   style="fill:#000000;stroke-width:0" />
<path
   d="m 284.88,25.855 0,0.023 0,0.022 -0.01,0.022 0,0.023 0,0.023 -0.01,0.022 -0.01,0.023 -0.01,0.022 -0.01,0.022 -0.01,0.022 -0.01,0.021 -0.01,0.022 -0.01,0.02 -0.02,0.021 -0.01,0.019 -0.02,0.019 -0.02,0.018 -0.02,0.018 -0.02,0.017 -0.02,0.016 -0.02,0.015 -0.02,0.014 -0.03,0.013 -0.02,0.011 -0.03,0.011 -0.02,0.01 -0.03,0.008 -0.03,0.007 -0.03,0.005 -0.03,0.004 -0.03,0.002 -0.04,10e-4 c -0.36,0 -0.78,-0.344 -0.78,-0.766 0,-0.39 0.34,-0.515 0.53,-0.515 0.42,0 0.8,0.406 0.8,0.765 z"
   id="path73"
   inkscape:connector-curvature="0"
   style="fill:#000000;stroke-width:0" />
<path
   d="m 290.31,19.887 0,0.116 0,0.121 0,0.125 -0.01,0.128 0,0.133 -0.01,0.136 -0.02,0.282 -0.02,0.294 -0.03,0.306 -0.05,0.316 -0.05,0.324 -0.06,0.332 -0.07,0.337 -0.09,0.343 -0.1,0.345 -0.11,0.348 -0.06,0.175 -0.06,0.174 -0.07,0.175 -0.08,0.174 -0.07,0.174 -0.08,0.173 c -0.94,1.906 -2.25,2.937 -2.43,2.937 -0.06,0 -0.14,-0.031 -0.14,-0.125 0,-0.046 0,-0.078 0.27,-0.359 1.59,-1.594 2.48,-4.219 2.48,-7.469 0,-3.078 -0.75,-5.734 -2.59,-7.609 -0.16,-0.141 -0.16,-0.172 -0.16,-0.219 0,-0.093 0.08,-0.125 0.14,-0.125 0.21,0 1.52,1.141 2.3,2.703 0.8,1.61 1.17,3.328 1.17,5.235 z"
   id="path75"
   inkscape:connector-curvature="0"
   style="fill:#000000;stroke-width:0" />
<polygon
   points="296.3,0.91016 296.3,39.051 292.12,39.051 292.12,38.176 295.43,38.176 295.43,1.7852 292.12,1.7852 292.12,0.91016 "
   id="polygon77"
   style="fill:#000000;stroke-width:0" />
</g></svg>
