<?xml version="1.0" encoding="UTF-8" standalone="no"?>
<svg
   xmlns:dc="http://purl.org/dc/elements/1.1/"
   xmlns:cc="http://creativecommons.org/ns#"
   xmlns:rdf="http://www.w3.org/1999/02/22-rdf-syntax-ns#"
   xmlns:svg="http://www.w3.org/2000/svg"
   xmlns="http://www.w3.org/2000/svg"
   xmlns:sodipodi="http://sodipodi.sourceforge.net/DTD/sodipodi-0.dtd"
   xmlns:inkscape="http://www.inkscape.org/namespaces/inkscape"
   version="1.1"
   id="body"
   width="123.59296"
   height="39.02319"
   viewBox="0 0 0.17165688 0.054198874"
   preserveAspectRatio="none"
   inkscape:version="0.48.3.1 r9886"
   sodipodi:docname="ch2-Z-G-3.svg">
  <metadata
     id="metadata57">
    <rdf:RDF>
      <cc:Work
         rdf:about="">
        <dc:format>image/svg+xml</dc:format>
        <dc:type
           rdf:resource="http://purl.org/dc/dcmitype/StillImage" />
      </cc:Work>
    </rdf:RDF>
  </metadata>
  <defs
     id="defs55" />
  <sodipodi:namedview
     pagecolor="#ffffff"
     bordercolor="#666666"
     borderopacity="1"
     objecttolerance="10"
     gridtolerance="10"
     guidetolerance="10"
     inkscape:pageopacity="0"
     inkscape:pageshadow="2"
     inkscape:window-width="640"
     inkscape:window-height="480"
     id="namedview53"
     showgrid="false"
     inkscape:zoom="0.32777778"
     inkscape:cx="381.79688"
     inkscape:cy="459.2512"
     inkscape:window-x="0"
     inkscape:window-y="24"
     inkscape:window-maximized="0"
     inkscape:current-layer="body" />
  <title
     id="title3">SVG drawing</title>
  <desc
     id="desc5">This was produced by version 4.4 of GNU libplot, a free library for exporting 2-D vector graphics.</desc>
  <g
     id="content"
     transform="matrix(0.0017361,0,0,-0.0017361,-9.7655625e-4,0.05512118)"
     xml:space="preserve"
     stroke-miterlimit="10.433"
     font-style="normal"
     font-variant="normal"
     font-weight="normal"
     font-stretch="normal"
     font-size-adjust="none"
     letter-spacing="normal"
     word-spacing="normal"
     style="font-style:normal;font-variant:normal;font-weight:normal;font-stretch:normal;letter-spacing:normal;word-spacing:normal;text-anchor:start;fill:none;stroke:#000000;stroke-linecap:butt;stroke-linejoin:miter;stroke-miterlimit:10.43299961;stroke-opacity:1;stroke-dasharray:none;stroke-dashoffset:0">
<path
   d="m 3.8477,29.355 0.0039,0.011 0.0061,0.015 0.0081,0.019 0.0101,0.022 0.0121,0.025 0.0141,0.029 0.016,0.032 0.0179,0.034 0.0198,0.038 0.0217,0.039 0.0234,0.042 0.0253,0.045 0.027,0.046 0.0287,0.048 0.0305,0.049 0.0321,0.051 0.0338,0.053 0.0354,0.053 0.037,0.054 0.0385,0.055 0.0401,0.055 0.0416,0.056 0.0431,0.056 0.0445,0.056 0.0459,0.055 0.0473,0.055 0.0487,0.055 0.0501,0.054 0.0513,0.053 0.0526,0.052 0.0538,0.051 0.0551,0.049 c 0.4062,0.375 0.9531,0.625 1.5625,0.625 0.6406,0 0.8594,-0.469 0.8594,-1.11 0,-0.906 -0.6407,-2.718 -0.9688,-3.578 -0.1406,-0.375 -0.2187,-0.578 -0.2187,-0.875 0,-0.719 0.5,-1.281 1.25,-1.281 1.4843,0 2.0468,2.328 2.0468,2.422 0,0.094 -0.0781,0.156 -0.1718,0.156 -0.1407,0 -0.1563,-0.047 -0.2344,-0.328 -0.3594,-1.297 -0.9688,-1.938 -1.5938,-1.938 -0.1562,0 -0.4062,0.016 -0.4062,0.532 0,0.39 0.1719,0.875 0.2656,1.093 0.3281,0.875 0.9844,2.657 0.9844,3.563 0,0.953 -0.5469,1.672 -1.7656,1.672 -1.4063,0 -2.1563,-1 -2.4375,-1.406 -0.0469,0.906 -0.7032,1.406 -1.4063,1.406 -0.5,0 -0.8594,-0.313 -1.125,-0.844 -0.2812,-0.578 -0.51562,-1.531 -0.51562,-1.594 0,-0.062 0.07812,-0.14 0.18752,-0.14 0.125,0 0.1406,0.015 0.2344,0.375 0.25,0.968 0.5312,1.875 1.1718,1.875 0.375,0 0.5,-0.25 0.5,-0.735 0,-0.343 -0.1562,-0.968 -0.2812,-1.453 L 2.3633,27.48 C 2.3008,27.184 2.1289,26.465 2.0508,26.184 1.9258,25.762 1.7539,25.012 1.7539,24.934 c 0,-0.219 0.1719,-0.391 0.4219,-0.391 0.1875,0 0.4062,0.094 0.5312,0.328 0.0313,0.078 0.1875,0.641 0.2657,0.953 l 0.3437,1.438 z"
   id="path9"
   inkscape:connector-curvature="0"
   style="fill:#000000;stroke-width:0" />
<path
   d="m 13.164,29.449 0,0.012 0,0.012 0,0.012 0,0.011 0,0.011 0,0.011 0,0.01 0,0.01 -10e-4,0.01 0,0.009 0,0.009 -10e-4,0.009 -0.001,0.017 -10e-4,0.016 -0.002,0.014 -0.002,0.014 -0.003,0.012 -0.003,0.012 -0.004,0.011 -0.004,0.009 -0.005,0.009 -0.006,0.008 -0.007,0.008 -0.007,0.006 -0.009,0.006 -0.009,0.005 -0.01,0.005 -0.005,0.002 -0.006,0.002 -0.006,0.002 -0.007,0.001 -0.006,0.002 -0.007,10e-4 -0.007,0.001 -0.008,0.001 -0.007,0.002 -0.008,0 -0.009,0.001 -0.008,10e-4 -0.01,0.001 -0.009,0 -0.01,0.001 -0.01,0 -0.01,0 -0.011,10e-4 -0.011,0 -0.011,0 -0.012,0 -0.013,0 c -0.687,-0.719 -1.671,-0.719 -2.015,-0.719 v -0.343 c 0.219,0 0.875,0 1.453,0.281 v -5.781 c 0,-0.391 -0.031,-0.532 -1.031,-0.532 h -0.36 v -0.343 c 0.391,0.031 1.36,0.031 1.797,0.031 0.453,0 1.422,0 1.813,-0.031 v 0.343 h -0.36 c -1,0 -1.031,0.125 -1.031,0.532 z"
   id="path11"
   inkscape:connector-curvature="0"
   style="fill:#000000;stroke-width:0" />
<line
   x1="0.56641001"
   y1="17.902"
   x2="15.961"
   y2="17.902"
   id="line13"
   style="stroke-width:0.63800001" />
<path
   d="m 9.168,13.621 0.0015,0.006 0.0016,0.006 0.0016,0.006 0.0018,0.007 0.0036,0.013 0.0038,0.014 0.0039,0.014 0.0039,0.015 0.0038,0.015 0.0038,0.015 0.0035,0.016 0.0033,0.015 0.003,0.016 0.0026,0.016 0.0022,0.015 0.0016,0.016 6e-4,0.007 4e-4,0.008 2e-4,0.007 10e-5,0.008 c 0,0.156 -0.1562,0.156 -0.1875,0.156 -0.0312,0 -0.7968,-0.063 -0.875,-0.078 C 7.8711,13.918 7.6367,13.887 7.3555,13.871 6.9492,13.84 6.8398,13.824 6.8398,13.527 c 0,-0.156 0.125,-0.156 0.3594,-0.156 0.7656,0 0.7813,-0.14 0.7813,-0.297 0,-0.093 -0.0313,-0.218 -0.0469,-0.265 L 6.9648,8.9336 C 6.793,9.3555 6.3711,9.9961 5.543,9.9961 3.7461,9.9961 1.8086,7.668 1.8086,5.3242 c 0,-1.5781 0.9219,-2.5 2,-2.5 l 0.0469,0.3125 c -0.6563,0 -1.0157,0.5938 -1.0157,1.5313 0,0.875 0.4844,2.6562 0.7969,3.3125 0.5313,1.125 1.2813,1.6875 1.9063,1.6875 1.0468,0 1.25,-1.2969 1.25,-1.4219 0,-0.0156 -0.0469,-0.2344 -0.0625,-0.2656 L 5.9492,4.8711 C 5.8711,4.6055 5.8711,4.5742 5.6523,4.2617 5.293,3.8242 4.6055,3.1367 3.8555,3.1367 L 3.8086,2.8242 c 0.875,0 1.625,0.6875 2.0625,1.2031 0.1562,-0.9375 0.9062,-1.2031 1.3906,-1.2031 0.4688,0 0.8594,0.2813 1.1406,0.8594 0.25,0.5312 0.4688,1.5 0.4688,1.5625 0,0.0937 -0.0625,0.1562 -0.1563,0.1562 C 8.5742,5.4023 8.5586,5.3242 8.4961,5.0742 8.2617,4.1367 7.9492,3.1367 7.3086,3.1367 c -0.4688,0 -0.5,0.4219 -0.5,0.7344 0,0.0625 0,0.3906 0.1094,0.8437 z"
   id="path15"
   inkscape:connector-curvature="0"
   style="fill:#000000;stroke-width:0" />
<path
   d="m 12.562,7.7305 0,0.0123 0,0.0119 0,0.0116 0,0.0113 0,0.0109 0,0.0107 0,0.0103 0,0.01 0,0.0097 -10e-4,0.0094 0,0.0091 0,0.0088 L 12.56,7.8733 12.558,7.8889 12.557,7.9035 12.554,7.917 12.552,7.9296 12.548,7.9411 12.545,7.9518 12.54,7.9615 12.535,7.9704 12.529,7.9785 12.523,7.9858 12.515,7.9924 12.507,7.9982 12.498,8.0034 12.487,8.008 12.482,8.0101 12.476,8.012 12.47,8.0138 12.464,8.0154 12.457,8.0169 12.45,8.0183 l -0.007,0.0013 -0.007,0.0011 -0.008,0.0011 -0.008,9e-4 -0.008,8e-4 -0.009,8e-4 -0.009,6e-4 -0.009,6e-4 -0.01,5e-4 -0.01,3e-4 -0.011,4e-4 -0.01,2e-4 -0.011,2e-4 -0.012,10e-5 -0.012,10e-5 -0.012,0 C 11.609,7.3086 10.625,7.3086 10.281,7.3086 V 6.9648 c 0.219,0 0.875,0 1.453,0.2813 V 1.4648 c 0,-0.3906 -0.031,-0.53121 -1.031,-0.53121 H 10.344 V 0.58984 c 0.39,0.03125 1.359,0.03125 1.797,0.03125 0.453,0 1.421,0 1.812,-0.03125 v 0.34375 h -0.359 c -1,0 -1.032,0.12501 -1.032,0.53121 z"
   id="path17"
   inkscape:connector-curvature="0"
   style="fill:#000000;stroke-width:0" />
<path
   d="m 23.746,17.887 -10e-4,0.043 -0.003,0.043 -0.006,0.043 -0.007,0.042 -0.009,0.041 -0.012,0.04 -0.013,0.039 -0.015,0.038 -0.017,0.038 -0.018,0.036 -0.02,0.035 -0.022,0.035 -0.024,0.033 -0.025,0.032 -0.026,0.03 -0.028,0.029 -0.029,0.028 -0.031,0.027 -0.032,0.025 -0.033,0.023 -0.034,0.022 -0.035,0.02 -0.037,0.019 -0.037,0.017 -0.038,0.015 -0.04,0.013 -0.04,0.011 -0.041,0.009 -0.042,0.008 -0.042,0.005 -0.043,0.003 -0.044,0.001 c -0.453,0 -0.843,-0.375 -0.843,-0.843 0,-0.453 0.39,-0.844 0.843,-0.844 0.469,0 0.844,0.391 0.844,0.844 z"
   id="path19"
   inkscape:connector-curvature="0"
   style="fill:#000000;stroke-width:0" />
<path
   d="m 33.145,29.355 0.003,0.011 0.007,0.015 0.008,0.019 0.01,0.022 0.012,0.025 0.014,0.029 0.016,0.032 0.018,0.034 0.02,0.038 0.021,0.039 0.024,0.042 0.025,0.045 0.027,0.046 0.029,0.048 0.03,0.049 0.032,0.051 0.034,0.053 0.036,0.053 0.037,0.054 0.038,0.055 0.04,0.055 0.042,0.056 0.043,0.056 0.044,0.056 0.046,0.055 0.048,0.055 0.048,0.055 0.05,0.054 0.052,0.053 0.052,0.052 0.054,0.051 0.055,0.049 c 0.406,0.375 0.953,0.625 1.563,0.625 0.64,0 0.859,-0.469 0.859,-1.11 0,-0.906 -0.641,-2.718 -0.969,-3.578 -0.14,-0.375 -0.218,-0.578 -0.218,-0.875 0,-0.719 0.5,-1.281 1.25,-1.281 1.484,0 2.046,2.328 2.046,2.422 0,0.094 -0.078,0.156 -0.171,0.156 -0.141,0 -0.157,-0.047 -0.235,-0.328 -0.359,-1.297 -0.969,-1.938 -1.594,-1.938 -0.156,0 -0.406,0.016 -0.406,0.532 0,0.39 0.172,0.875 0.266,1.093 0.328,0.875 0.984,2.657 0.984,3.563 0,0.953 -0.547,1.672 -1.765,1.672 -1.407,0 -2.157,-1 -2.438,-1.406 -0.047,0.906 -0.703,1.406 -1.406,1.406 -0.5,0 -0.86,-0.313 -1.125,-0.844 -0.281,-0.578 -0.516,-1.531 -0.516,-1.594 0,-0.062 0.078,-0.14 0.188,-0.14 0.125,0 0.14,0.015 0.234,0.375 0.25,0.968 0.531,1.875 1.172,1.875 0.375,0 0.5,-0.25 0.5,-0.735 0,-0.343 -0.156,-0.968 -0.281,-1.453 L 31.66,27.48 c -0.062,-0.296 -0.234,-1.015 -0.312,-1.296 -0.125,-0.422 -0.297,-1.172 -0.297,-1.25 0,-0.219 0.172,-0.391 0.422,-0.391 0.187,0 0.406,0.094 0.531,0.328 0.031,0.078 0.187,0.641 0.266,0.953 l 0.343,1.438 z"
   id="path21"
   inkscape:connector-curvature="0"
   style="fill:#000000;stroke-width:0" />
<path
   d="m 40.602,23.168 1.171,1.156 c 1.75,1.531 2.422,2.141 2.422,3.25 0,1.266 -1.015,2.172 -2.375,2.172 -1.25,0 -2.078,-1.031 -2.078,-2.031 0,-0.625 0.547,-0.625 0.594,-0.625 0.187,0 0.578,0.14 0.578,0.594 0,0.296 -0.203,0.578 -0.594,0.578 -0.093,0 -0.109,0 -0.14,0 0.25,0.718 0.859,1.125 1.5,1.125 1.015,0 1.5,-0.891 1.5,-1.813 0,-0.89 -0.563,-1.781 -1.172,-2.469 l -2.141,-2.39 c -0.125,-0.11 -0.125,-0.141 -0.125,-0.406 h 4.141 l 0.312,1.937 h -0.281 c -0.062,-0.328 -0.141,-0.828 -0.25,-0.984 -0.078,-0.094 -0.812,-0.094 -1.062,-0.094 z"
   id="path23"
   inkscape:connector-curvature="0"
   style="fill:#000000;stroke-width:0" />
<line
   x1="29.863001"
   y1="17.902"
   x2="45.257999"
   y2="17.902"
   id="line25"
   style="stroke-width:0.63800001" />
<path
   d="m 38.469,13.621 10e-4,0.006 0.002,0.006 0.002,0.006 0.001,0.007 0.004,0.013 0.004,0.014 0.004,0.014 0.003,0.015 0.004,0.015 0.004,0.015 0.004,0.016 0.003,0.015 0.003,0.016 0.002,0.016 0.003,0.015 0.001,0.016 10e-4,0.007 0,0.008 10e-4,0.007 0,0.008 c 0,0.156 -0.157,0.156 -0.188,0.156 -0.031,0 -0.797,-0.063 -0.875,-0.078 -0.281,-0.016 -0.515,-0.047 -0.797,-0.063 -0.406,-0.031 -0.515,-0.047 -0.515,-0.344 0,-0.156 0.125,-0.156 0.359,-0.156 0.766,0 0.781,-0.14 0.781,-0.297 0,-0.093 -0.031,-0.218 -0.047,-0.265 L 36.266,8.9336 c -0.172,0.4219 -0.594,1.0625 -1.422,1.0625 -1.797,0 -3.735,-2.3281 -3.735,-4.6719 0,-1.5781 0.922,-2.5 2,-2.5 l 0.047,0.3125 c -0.656,0 -1.015,0.5938 -1.015,1.5313 0,0.875 0.484,2.6562 0.797,3.3125 0.531,1.125 1.281,1.6875 1.906,1.6875 1.047,0 1.25,-1.2969 1.25,-1.4219 0,-0.0156 -0.047,-0.2344 -0.063,-0.2656 L 35.25,4.8711 C 35.172,4.6055 35.172,4.5742 34.953,4.2617 34.594,3.8242 33.906,3.1367 33.156,3.1367 L 33.109,2.8242 c 0.875,0 1.625,0.6875 2.063,1.2031 0.156,-0.9375 0.906,-1.2031 1.39,-1.2031 0.469,0 0.86,0.2813 1.141,0.8594 0.25,0.5312 0.469,1.5 0.469,1.5625 0,0.0937 -0.063,0.1562 -0.156,0.1562 -0.141,0 -0.157,-0.0781 -0.219,-0.3281 -0.235,-0.9375 -0.547,-1.9375 -1.188,-1.9375 -0.468,0 -0.5,0.4219 -0.5,0.7344 0,0.0625 0,0.3906 0.11,0.8437 z"
   id="path27"
   inkscape:connector-curvature="0"
   style="fill:#000000;stroke-width:0" />
<path
   d="m 40,1.4492 1.172,1.1563 c 1.75,1.5312 2.422,2.1406 2.422,3.25 0,1.2656 -1.016,2.1718 -2.375,2.1718 -1.25,0 -2.078,-1.0312 -2.078,-2.0312 0,-0.625 0.547,-0.625 0.593,-0.625 0.188,0 0.578,0.1406 0.578,0.5937 0,0.2969 -0.203,0.5782 -0.593,0.5782 -0.094,0 -0.11,0 -0.141,0 0.25,0.7187 0.86,1.125 1.5,1.125 1.016,0 1.5,-0.8907 1.5,-1.8125 0,-0.8907 -0.562,-1.7813 -1.172,-2.4688 L 39.266,0.99609 C 39.141,0.88672 39.141,0.85547 39.141,0.58984 h 4.14 L 43.594,2.5273 H 43.312 C 43.25,2.1992 43.172,1.6992 43.062,1.543 42.984,1.4492 42.25,1.4492 42,1.4492 z"
   id="path29"
   inkscape:connector-curvature="0"
   style="fill:#000000;stroke-width:0" />
<path
   d="m 61.617,19.074 0.042,0 0.042,10e-4 0.044,0.001 0.021,0.001 0.022,0.002 0.021,10e-4 0.021,0.003 0.021,0.003 0.021,0.003 0.02,0.004 0.019,0.005 0.02,0.005 0.018,0.006 0.018,0.007 0.017,0.008 0.017,0.009 0.016,0.01 0.014,0.011 0.014,0.012 0.013,0.013 0.012,0.014 0.005,0.007 0.005,0.008 0.005,0.009 0.005,0.008 0.004,0.009 0.004,0.009 0.003,0.01 0.004,0.01 0.003,0.01 0.002,0.011 0.002,0.011 0.002,0.011 0.001,0.012 10e-4,0.012 10e-4,0.013 0,0.012 c 0,0.297 -0.265,0.297 -0.5,0.297 h -9.375 c -0.219,0 -0.5,0 -0.5,-0.281 0,-0.297 0.266,-0.297 0.5,-0.297 z"
   id="path31"
   inkscape:connector-curvature="0"
   style="fill:#000000;stroke-width:0" />
<path
   d="m 61.617,16.105 0.042,0.001 0.042,0 0.044,10e-4 0.021,0.002 0.022,10e-4 0.021,0.002 0.021,0.003 0.021,0.003 0.021,0.003 0.02,0.004 0.019,0.005 0.02,0.006 0.018,0.007 0.018,0.007 0.017,0.008 0.017,0.01 0.016,0.01 0.014,0.011 0.014,0.013 0.013,0.014 0.012,0.015 0.005,0.008 0.005,0.008 0.005,0.009 0.005,0.009 0.004,0.009 0.004,0.01 0.003,0.01 0.004,0.01 0.003,0.011 0.002,0.011 0.002,0.012 0.002,0.012 0.001,0.012 10e-4,0.013 10e-4,0.014 0,0.013 c 0,0.297 -0.265,0.297 -0.5,0.297 h -9.375 c -0.219,0 -0.5,0 -0.5,-0.281 0,-0.313 0.266,-0.313 0.5,-0.313 z"
   id="path33"
   inkscape:connector-curvature="0"
   style="fill:#000000;stroke-width:0" />
<path
   d="m 71.926,29.355 0.004,0.011 0.006,0.015 0.008,0.019 0.01,0.022 0.012,0.025 0.014,0.029 0.016,0.032 0.018,0.034 0.02,0.038 0.022,0.039 0.023,0.042 0.025,0.045 0.027,0.046 0.029,0.048 0.031,0.049 0.032,0.051 0.033,0.053 0.036,0.053 0.037,0.054 0.038,0.055 0.04,0.055 0.042,0.056 0.043,0.056 0.045,0.056 0.046,0.055 0.047,0.055 0.049,0.055 0.05,0.054 0.051,0.053 0.052,0.052 0.054,0.051 0.055,0.049 c 0.407,0.375 0.954,0.625 1.563,0.625 0.641,0 0.859,-0.469 0.859,-1.11 0,-0.906 -0.64,-2.718 -0.968,-3.578 -0.141,-0.375 -0.219,-0.578 -0.219,-0.875 0,-0.719 0.5,-1.281 1.25,-1.281 1.484,0 2.047,2.328 2.047,2.422 0,0.094 -0.078,0.156 -0.172,0.156 -0.141,0 -0.156,-0.047 -0.235,-0.328 -0.359,-1.297 -0.968,-1.938 -1.593,-1.938 -0.157,0 -0.407,0.016 -0.407,0.532 0,0.39 0.172,0.875 0.266,1.093 0.328,0.875 0.984,2.657 0.984,3.563 0,0.953 -0.546,1.672 -1.765,1.672 -1.406,0 -2.156,-1 -2.438,-1.406 -0.047,0.906 -0.703,1.406 -1.406,1.406 -0.5,0 -0.859,-0.313 -1.125,-0.844 -0.281,-0.578 -0.516,-1.531 -0.516,-1.594 0,-0.062 0.079,-0.14 0.188,-0.14 0.125,0 0.141,0.015 0.234,0.375 0.25,0.968 0.532,1.875 1.172,1.875 0.375,0 0.5,-0.25 0.5,-0.735 0,-0.343 -0.156,-0.968 -0.281,-1.453 L 70.441,27.48 c -0.062,-0.296 -0.234,-1.015 -0.312,-1.296 -0.125,-0.422 -0.297,-1.172 -0.297,-1.25 0,-0.219 0.172,-0.391 0.422,-0.391 0.187,0 0.406,0.094 0.531,0.328 0.031,0.078 0.188,0.641 0.266,0.953 l 0.344,1.438 z"
   id="path35"
   inkscape:connector-curvature="0"
   style="fill:#000000;stroke-width:0" />
<path
   d="m 81.242,29.449 0,0.012 0,0.012 0,0.012 0,0.011 0,0.011 0,0.011 0,0.01 0,0.01 -0.001,0.01 0,0.009 0,0.009 -0.001,0.009 -10e-4,0.017 -0.001,0.016 -0.002,0.014 -0.002,0.014 -0.003,0.012 -0.003,0.012 -0.004,0.011 -0.004,0.009 -0.005,0.009 -0.006,0.008 -0.007,0.008 -0.007,0.006 -0.008,0.006 -0.01,0.005 -0.01,0.005 -0.005,0.002 -0.006,0.002 -0.006,0.002 -0.006,0.001 -0.007,0.002 -0.007,10e-4 -0.007,0.001 -0.007,0.001 -0.008,0.002 -0.008,0 -0.009,0.001 -0.008,10e-4 -0.009,0.001 -0.01,0 -0.009,0.001 -0.01,0 -0.011,0 -0.011,10e-4 -0.011,0 -0.011,0 -0.012,0 -0.012,0 c -0.688,-0.719 -1.672,-0.719 -2.016,-0.719 v -0.343 c 0.219,0 0.875,0 1.453,0.281 v -5.781 c 0,-0.391 -0.031,-0.532 -1.031,-0.532 h -0.36 v -0.343 c 0.391,0.031 1.36,0.031 1.797,0.031 0.453,0 1.422,0 1.813,-0.031 v 0.343 h -0.36 c -1,0 -1.031,0.125 -1.031,0.532 z"
   id="path37"
   inkscape:connector-curvature="0"
   style="fill:#000000;stroke-width:0" />
<path
   d="m 87.32,29.355 0.004,0.011 0.006,0.015 0.008,0.019 0.011,0.022 0.012,0.025 0.014,0.029 0.016,0.032 0.018,0.034 0.019,0.038 0.022,0.039 0.024,0.042 0.025,0.045 0.027,0.046 0.029,0.048 0.03,0.049 0.032,0.051 0.034,0.053 0.035,0.053 0.037,0.054 0.039,0.055 0.04,0.055 0.042,0.056 0.043,0.056 0.044,0.056 0.046,0.055 0.047,0.055 0.049,0.055 0.05,0.054 0.051,0.053 0.053,0.052 0.054,0.051 0.055,0.049 c 0.406,0.375 0.953,0.625 1.562,0.625 0.641,0 0.86,-0.469 0.86,-1.11 0,-0.906 -0.641,-2.718 -0.969,-3.578 -0.141,-0.375 -0.219,-0.578 -0.219,-0.875 0,-0.719 0.5,-1.281 1.25,-1.281 1.485,0 2.047,2.328 2.047,2.422 0,0.094 -0.078,0.156 -0.172,0.156 -0.14,0 -0.156,-0.047 -0.234,-0.328 -0.359,-1.297 -0.969,-1.938 -1.594,-1.938 -0.156,0 -0.406,0.016 -0.406,0.532 0,0.39 0.172,0.875 0.266,1.093 0.328,0.875 0.984,2.657 0.984,3.563 0,0.953 -0.547,1.672 -1.766,1.672 -1.406,0 -2.156,-1 -2.437,-1.406 -0.047,0.906 -0.703,1.406 -1.406,1.406 -0.5,0 -0.86,-0.313 -1.125,-0.844 -0.282,-0.578 -0.516,-1.531 -0.516,-1.594 0,-0.062 0.078,-0.14 0.187,-0.14 0.125,0 0.141,0.015 0.235,0.375 0.25,0.968 0.531,1.875 1.172,1.875 0.375,0 0.5,-0.25 0.5,-0.735 0,-0.343 -0.157,-0.968 -0.282,-1.453 L 85.836,27.48 c -0.063,-0.296 -0.234,-1.015 -0.313,-1.296 -0.125,-0.422 -0.296,-1.172 -0.296,-1.25 0,-0.219 0.171,-0.391 0.421,-0.391 0.188,0 0.407,0.094 0.532,0.328 0.031,0.078 0.187,0.641 0.265,0.953 l 0.344,1.438 z"
   id="path39"
   inkscape:connector-curvature="0"
   style="fill:#000000;stroke-width:0" />
<path
   d="m 94.777,23.168 1.172,1.156 c 1.75,1.531 2.422,2.141 2.422,3.25 0,1.266 -1.016,2.172 -2.375,2.172 -1.25,0 -2.078,-1.031 -2.078,-2.031 0,-0.625 0.547,-0.625 0.594,-0.625 0.187,0 0.578,0.14 0.578,0.594 0,0.296 -0.203,0.578 -0.594,0.578 -0.094,0 -0.109,0 -0.141,0 0.25,0.718 0.86,1.125 1.5,1.125 1.016,0 1.5,-0.891 1.5,-1.813 0,-0.89 -0.562,-1.781 -1.171,-2.469 l -2.141,-2.39 c -0.125,-0.11 -0.125,-0.141 -0.125,-0.406 h 4.141 l 0.312,1.937 H 98.09 c -0.063,-0.328 -0.141,-0.828 -0.25,-0.984 -0.078,-0.094 -0.813,-0.094 -1.063,-0.094 z"
   id="path41"
   inkscape:connector-curvature="0"
   style="fill:#000000;stroke-width:0" />
<line
   x1="68.644997"
   y1="17.902"
   x2="99.433998"
   y2="17.902"
   id="line43"
   style="stroke-width:0.63800001" />
<path
   d="m 77.852,13.621 10e-4,0.006 0.002,0.006 10e-4,0.006 0.002,0.007 0.004,0.013 0.003,0.014 0.004,0.014 0.004,0.015 0.004,0.015 0.004,0.015 0.003,0.016 0.004,0.015 0.003,0.016 0.002,0.016 0.002,0.015 0.002,0.016 10e-4,0.007 0,0.008 0,0.007 0,0.008 c 0,0.156 -0.156,0.156 -0.187,0.156 -0.031,0 -0.797,-0.063 -0.875,-0.078 -0.281,-0.016 -0.516,-0.047 -0.797,-0.063 -0.406,-0.031 -0.516,-0.047 -0.516,-0.344 0,-0.156 0.125,-0.156 0.36,-0.156 0.765,0 0.781,-0.14 0.781,-0.297 0,-0.093 -0.031,-0.218 -0.047,-0.265 L 75.648,8.9336 c -0.171,0.4219 -0.593,1.0625 -1.421,1.0625 -1.797,0 -3.735,-2.3281 -3.735,-4.6719 0,-1.5781 0.922,-2.5 2,-2.5 l 0.047,0.3125 c -0.656,0 -1.016,0.5938 -1.016,1.5313 0,0.875 0.485,2.6562 0.797,3.3125 0.532,1.125 1.282,1.6875 1.907,1.6875 1.046,0 1.25,-1.2969 1.25,-1.4219 0,-0.0156 -0.047,-0.2344 -0.063,-0.2656 L 74.633,4.8711 C 74.555,4.6055 74.555,4.5742 74.336,4.2617 73.977,3.8242 73.289,3.1367 72.539,3.1367 L 72.492,2.8242 c 0.875,0 1.625,0.6875 2.063,1.2031 0.156,-0.9375 0.906,-1.2031 1.39,-1.2031 0.469,0 0.86,0.2813 1.141,0.8594 0.25,0.5312 0.469,1.5 0.469,1.5625 0,0.0937 -0.063,0.1562 -0.157,0.1562 -0.14,0 -0.156,-0.0781 -0.218,-0.3281 -0.235,-0.9375 -0.547,-1.9375 -1.188,-1.9375 -0.469,0 -0.5,0.4219 -0.5,0.7344 0,0.0625 0,0.3906 0.11,0.8437 z"
   id="path45"
   inkscape:connector-curvature="0"
   style="fill:#000000;stroke-width:0" />
<path
   d="m 81.242,7.7305 0,0.0123 0,0.0119 0,0.0116 0,0.0113 0,0.0109 0,0.0107 0,0.0103 0,0.01 -0.001,0.0097 0,0.0094 0,0.0091 L 81.24,7.8565 81.239,7.8733 81.238,7.8889 81.236,7.9035 81.234,7.917 81.231,7.9296 81.228,7.9411 81.224,7.9518 81.22,7.9615 81.215,7.9704 81.209,7.9785 81.202,7.9858 81.195,7.9924 81.187,7.9982 81.177,8.0034 81.167,8.008 81.162,8.0101 81.156,8.012 81.15,8.0138 81.144,8.0154 81.137,8.0169 81.13,8.0183 l -0.007,0.0013 -0.007,0.0011 -0.008,0.0011 -0.008,9e-4 -0.009,8e-4 -0.008,8e-4 -0.009,6e-4 -0.01,6e-4 -0.009,5e-4 -0.01,3e-4 -0.011,4e-4 -0.011,2e-4 -0.011,2e-4 -0.011,10e-5 -0.012,10e-5 -0.012,0 C 80.289,7.3086 79.305,7.3086 78.961,7.3086 V 6.9648 c 0.219,0 0.875,0 1.453,0.2813 V 1.4648 c 0,-0.3906 -0.031,-0.53121 -1.031,-0.53121 h -0.36 V 0.58984 c 0.391,0.03125 1.36,0.03125 1.797,0.03125 0.453,0 1.422,0 1.813,-0.03125 v 0.34375 h -0.36 c -1,0 -1.031,0.12501 -1.031,0.53121 z"
   id="path47"
   inkscape:connector-curvature="0"
   style="fill:#000000;stroke-width:0" />
<path
   d="m 92.039,13.621 0.002,0.006 0.001,0.006 0.002,0.006 0.002,0.007 0.003,0.013 0.004,0.014 0.004,0.014 0.004,0.015 0.004,0.015 0.003,0.015 0.004,0.016 0.003,0.015 0.003,0.016 0.003,0.016 0.002,0.015 0.002,0.016 0,0.007 0.001,0.008 0,0.007 0,0.008 c 0,0.156 -0.156,0.156 -0.188,0.156 -0.031,0 -0.796,-0.063 -0.875,-0.078 -0.281,-0.016 -0.515,-0.047 -0.796,-0.063 -0.407,-0.031 -0.516,-0.047 -0.516,-0.344 0,-0.156 0.125,-0.156 0.359,-0.156 0.766,0 0.782,-0.14 0.782,-0.297 0,-0.093 -0.032,-0.218 -0.047,-0.265 L 89.836,8.9336 c -0.172,0.4219 -0.594,1.0625 -1.422,1.0625 -1.797,0 -3.734,-2.3281 -3.734,-4.6719 0,-1.5781 0.922,-2.5 2,-2.5 l 0.047,0.3125 c -0.657,0 -1.016,0.5938 -1.016,1.5313 0,0.875 0.484,2.6562 0.797,3.3125 0.531,1.125 1.281,1.6875 1.906,1.6875 1.047,0 1.25,-1.2969 1.25,-1.4219 0,-0.0156 -0.047,-0.2344 -0.062,-0.2656 L 88.82,4.8711 C 88.742,4.6055 88.742,4.5742 88.523,4.2617 88.164,3.8242 87.477,3.1367 86.727,3.1367 L 86.68,2.8242 c 0.875,0 1.625,0.6875 2.062,1.2031 0.156,-0.9375 0.906,-1.2031 1.391,-1.2031 0.469,0 0.859,0.2813 1.14,0.8594 0.25,0.5312 0.469,1.5 0.469,1.5625 0,0.0937 -0.062,0.1562 -0.156,0.1562 -0.141,0 -0.156,-0.0781 -0.219,-0.3281 C 91.133,4.1367 90.82,3.1367 90.18,3.1367 c -0.469,0 -0.5,0.4219 -0.5,0.7344 0,0.0625 0,0.3906 0.109,0.8437 z"
   id="path49"
   inkscape:connector-curvature="0"
   style="fill:#000000;stroke-width:0" />
<path
   d="m 93.57,1.4492 1.172,1.1563 c 1.75,1.5312 2.422,2.1406 2.422,3.25 0,1.2656 -1.016,2.1718 -2.375,2.1718 -1.25,0 -2.078,-1.0312 -2.078,-2.0312 0,-0.625 0.547,-0.625 0.594,-0.625 0.187,0 0.578,0.1406 0.578,0.5937 0,0.2969 -0.203,0.5782 -0.594,0.5782 -0.094,0 -0.109,0 -0.141,0 0.25,0.7187 0.86,1.125 1.5,1.125 1.016,0 1.5,-0.8907 1.5,-1.8125 0,-0.8907 -0.562,-1.7813 -1.171,-2.4688 L 92.836,0.99609 C 92.711,0.88672 92.711,0.85547 92.711,0.58984 h 4.141 L 97.164,2.5273 H 96.883 C 96.82,2.1992 96.742,1.6992 96.633,1.543 96.555,1.4492 95.82,1.4492 95.57,1.4492 z"
   id="path51"
   inkscape:connector-curvature="0"
   style="fill:#000000;stroke-width:0" />
</g></svg>
