<?xml version="1.0" encoding="UTF-8" standalone="no"?>
<svg
   xmlns:dc="http://purl.org/dc/elements/1.1/"
   xmlns:cc="http://creativecommons.org/ns#"
   xmlns:rdf="http://www.w3.org/1999/02/22-rdf-syntax-ns#"
   xmlns:svg="http://www.w3.org/2000/svg"
   xmlns="http://www.w3.org/2000/svg"
   xmlns:sodipodi="http://sodipodi.sourceforge.net/DTD/sodipodi-0.dtd"
   xmlns:inkscape="http://www.inkscape.org/namespaces/inkscape"
   version="1.1"
   id="body"
   width="288.51376"
   height="23.984222"
   viewBox="0 0 0.40071356 0.03331142"
   preserveAspectRatio="none"
   inkscape:version="0.48.3.1 r9886"
   sodipodi:docname="ch2-Z-G-60.svg">
  <metadata
     id="metadata49">
    <rdf:RDF>
      <cc:Work
         rdf:about="">
        <dc:format>image/svg+xml</dc:format>
        <dc:type
           rdf:resource="http://purl.org/dc/dcmitype/StillImage" />
      </cc:Work>
    </rdf:RDF>
  </metadata>
  <defs
     id="defs47" />
  <sodipodi:namedview
     pagecolor="#ffffff"
     bordercolor="#666666"
     borderopacity="1"
     objecttolerance="10"
     gridtolerance="10"
     guidetolerance="10"
     inkscape:pageopacity="0"
     inkscape:pageshadow="2"
     inkscape:window-width="640"
     inkscape:window-height="480"
     id="namedview45"
     showgrid="false"
     inkscape:zoom="0.32777778"
     inkscape:cx="381.52344"
     inkscape:cy="459.68088"
     inkscape:window-x="0"
     inkscape:window-y="24"
     inkscape:window-maximized="0"
     inkscape:current-layer="body" />
  <title
     id="title3">SVG drawing</title>
  <desc
     id="desc5">This was produced by version 4.4 of GNU libplot, a free library for exporting 2-D vector graphics.</desc>
  <g
     id="content"
     transform="matrix(0.0017361,0,0,-0.0017361,-0.00135633,0.03363694)"
     xml:space="preserve"
     stroke-miterlimit="10.433"
     font-style="normal"
     font-variant="normal"
     font-weight="normal"
     font-stretch="normal"
     font-size-adjust="none"
     letter-spacing="normal"
     word-spacing="normal"
     style="font-style:normal;font-variant:normal;font-weight:normal;font-stretch:normal;letter-spacing:normal;word-spacing:normal;text-anchor:start;fill:none;stroke:#000000;stroke-linecap:butt;stroke-linejoin:miter;stroke-miterlimit:10.43299961;stroke-opacity:1;stroke-dasharray:none;stroke-dashoffset:0">
<path
   d="M 7.9375,10.402 7.8915,10.393 7.8472,10.382 7.8046,10.369 7.7637,10.355 7.7245,10.339 7.6869,10.322 7.651,10.304 7.6167,10.285 7.584,10.264 7.5529,10.243 7.5233,10.22 7.4953,10.196 7.4688,10.172 7.4439,10.147 7.4204,10.121 7.3984,10.094 7.3779,10.066 7.3589,10.038 7.3412,10.01 7.325,9.9809 7.3102,9.9515 7.2967,9.9219 7.2847,9.8919 7.2739,9.8618 7.2645,9.8315 7.2564,9.8012 7.2496,9.7708 7.2441,9.7405 7.2398,9.7103 7.2368,9.6803 7.235,9.6506 7.2344,9.6211 c 0,-0.375 0.3125,-0.5 0.5312,-0.5 0.4688,0 0.8125,0.4062 0.8125,0.8437 0,0.6562 -0.7656,0.9692 -1.4375,0.9692 -0.9687,0 -1.5,-0.9535 -1.6406,-1.266 -0.375,1.203 -1.3594,1.266 -1.6406,1.266 -1.625,0 -2.4844,-2.0942 -2.4844,-2.4379 0,-0.0625 0.0625,-0.1406 0.1719,-0.1406 0.125,0 0.1562,0.0937 0.1875,0.1562 0.5468,1.7653 1.6094,2.0943 2.0781,2.0943 0.7031,0 0.8594,-0.6568 0.8594,-1.0474 0,-0.3438 -0.0938,-0.7188 -0.2969,-1.4688 L 3.8438,5.9023 C 3.5938,4.9492 3.1406,4.0742 2.2969,4.0742 c -0.0781,0 -0.4688,0 -0.8125,0.2031 0.5781,0.125 0.7031,0.5938 0.7031,0.7813 0,0.3281 -0.2344,0.5156 -0.5469,0.5156 -0.375,0 -0.79685,-0.3437 -0.79685,-0.8437 0,-0.6719 0.75005,-0.9688 1.43745,-0.9688 0.7657,0 1.2969,0.5938 1.6407,1.25 0.25,-0.9375 1.0469,-1.25 1.6406,-1.25 1.6094,0 2.4687,2.0781 2.4687,2.4219 0,0.0937 -0.0624,0.1562 -0.1562,0.1562 C 7.7344,6.3398 7.7188,6.2617 7.6719,6.1211 7.2344,4.7305 6.3125,4.0742 5.6094,4.0742 5.0469,4.0742 4.75,4.4961 4.75,5.1367 4.75,5.4961 4.8125,5.7461 5.0625,6.793 L 5.625,8.9492 c 0.2344,0.9531 0.7656,1.6568 1.5,1.6568 0.0312,0 0.4844,0 0.8125,-0.204 z"
   id="path9"
   inkscape:connector-curvature="0"
   style="fill:#000000;stroke-width:0" />
<path
   d="m 24.441,9.0742 0.042,10e-5 0.043,5e-4 0.043,0.0013 0.021,0.0011 0.022,0.0014 0.021,0.0019 0.021,0.0023 0.021,0.0028 0.021,0.0035 0.02,0.004 0.02,0.0047 0.019,0.0054 0.018,0.0062 0.018,0.007 0.018,0.0079 0.016,0.0088 0.016,0.0098 0.015,0.0108 0.014,0.0119 0.012,0.013 0.012,0.0143 0.005,0.0075 0.006,0.0079 0.004,0.0082 0.005,0.0086 0.004,0.0088 0.004,0.0093 0.004,0.0095 0.003,0.0099 0.003,0.0103 0.002,0.0107 0.002,0.011 0.002,0.0114 0.002,0.0117 10e-4,0.0122 0,0.0126 0,0.013 c 0,0.2968 -0.265,0.2968 -0.5,0.2968 h -9.375 c -0.218,0 -0.5,0 -0.5,-0.2812 0,-0.2969 0.266,-0.2969 0.5,-0.2969 z"
   id="path11"
   inkscape:connector-curvature="0"
   style="fill:#000000;stroke-width:0" />
<path
   d="m 24.441,6.1055 0.042,0 0.043,6e-4 0.043,0.0013 0.021,0.0012 0.022,0.0015 0.021,0.002 0.021,0.0024 0.021,0.003 0.021,0.0036 0.02,0.0043 0.02,0.0049 0.019,0.0057 0.018,0.0066 0.018,0.0074 0.018,0.0083 0.016,0.0093 0.016,0.0103 0.015,0.0115 0.014,0.0125 0.012,0.0138 0.012,0.015 0.005,0.008 0.006,0.0083 0.004,0.0087 0.005,0.009 0.004,0.0094 0.004,0.0097 0.004,0.0101 0.003,0.0104 0.003,0.0109 0.002,0.0112 0.002,0.0117 0.002,0.012 0.002,0.0124 10e-4,0.0129 0,0.0132 0,0.0137 c 0,0.2969 -0.265,0.2969 -0.5,0.2969 h -9.375 c -0.218,0 -0.5,0 -0.5,-0.2812 0,-0.3125 0.266,-0.3125 0.5,-0.3125 z"
   id="path13"
   inkscape:connector-curvature="0"
   style="fill:#000000;stroke-width:0" />
<path
   d="m 36.461,10.418 -0.046,-0.01 -0.045,-0.01 -0.043,-0.013 -0.042,-0.013 -0.04,-0.015 -0.039,-0.017 -0.037,-0.017 -0.036,-0.019 -0.035,-0.019 -0.033,-0.021 -0.031,-0.022 -0.03,-0.023 -0.029,-0.023 -0.027,-0.025 -0.025,-0.026 -0.025,-0.026 -0.022,-0.027 -0.022,-0.028 -0.019,-0.028 -0.019,-0.03 L 35.8,9.9766 35.784,9.9463 35.77,9.9154 35.758,9.884 35.747,9.8522 35.737,9.82 35.729,9.7875 35.723,9.7547 35.717,9.7216 35.714,9.6882 35.712,9.6547 35.711,9.6211 c 0,-0.375 0.297,-0.5 0.516,-0.5 0.453,0 0.812,0.375 0.812,0.8594 0,0.5005 -0.484,0.9535 -1.281,0.9535 -0.641,0 -1.375,-0.297 -2.031,-1.266 -0.11,0.844 -0.75,1.266 -1.391,1.266 -0.609,0 -0.938,-0.485 -1.125,-0.828 -0.266,-0.5787 -0.516,-1.5318 -0.516,-1.6099 0,-0.0625 0.078,-0.1406 0.188,-0.1406 0.125,0 0.14,0.0156 0.234,0.375 0.235,0.9531 0.531,1.8755 1.172,1.8755 0.391,0 0.5,-0.266 0.5,-0.7349 0,-0.3438 -0.156,-0.9688 -0.281,-1.4531 L 32.07,6.6992 C 32.008,6.4023 31.836,5.6836 31.758,5.4023 31.633,4.9805 31.461,4.2305 31.461,4.1523 c 0,-0.2187 0.172,-0.3906 0.422,-0.3906 0.172,0 0.469,0.1094 0.562,0.4219 0.047,0.125 0.641,2.5312 0.735,2.8906 0.078,0.3594 0.172,0.6875 0.25,1.0469 0.062,0.2187 0.14,0.4687 0.187,0.6719 0.047,0.1406 0.469,0.9218 0.875,1.281 0.188,0.172 0.594,0.532 1.25,0.532 0.25,0 0.5,-0.047 0.719,-0.188 z"
   id="path15"
   inkscape:connector-curvature="0"
   style="fill:#000000;stroke-width:0" />
<path
   d="m 46.617,9.8867 -0.029,0 -0.027,0 -0.027,-10e-5 -0.026,-2e-4 -0.026,-4e-4 -0.024,-5e-4 -0.024,-7e-4 L 46.411,9.8838 46.389,9.8825 46.367,9.881 46.346,9.8791 46.325,9.8768 46.305,9.8741 46.285,9.871 46.265,9.8674 46.246,9.8633 46.227,9.8586 46.209,9.8533 46.19,9.8475 46.172,9.8409 46.153,9.8337 46.135,9.8258 46.117,9.8171 46.099,9.8076 46.08,9.7973 46.062,9.7861 46.043,9.7741 46.024,9.7611 46.005,9.7472 45.985,9.7322 45.966,9.7163 45.945,9.6992 C 45.852,9.6211 45.68,9.3867 45.68,9.1367 c 0,-0.3281 0.234,-0.5156 0.531,-0.5156 0.391,0 0.812,0.3125 0.812,0.9531 0,0.7658 -0.734,1.3598 -1.828,1.3598 -2.078,0 -4.156,-2.2817 -4.156,-4.5317 0,-1.3906 0.859,-2.6406 2.469,-2.6406 2.172,0 3.531,1.6875 3.531,1.8906 0,0.0938 -0.094,0.1719 -0.156,0.1719 -0.047,0 -0.063,-0.0156 -0.203,-0.1562 -1.016,-1.3594 -2.532,-1.5938 -3.141,-1.5938 -1.094,0 -1.437,0.9531 -1.437,1.75 0,0.5625 0.265,2.0938 0.843,3.1875 0.407,0.7344 1.266,1.5943 2.266,1.5943 0.203,0 1.078,-0.032 1.406,-0.7193 z"
   id="path17"
   inkscape:connector-curvature="0"
   style="fill:#000000;stroke-width:0" />
<path
   d="m 54.359,8.293 -0.002,0.1395 -0.009,0.1373 -0.014,0.1349 -0.02,0.1324 -0.025,0.1297 -0.03,0.1269 -0.036,0.1239 -0.04,0.1208 -0.046,0.1175 -0.05,0.1142 -0.056,0.1106 -0.06,0.107 -0.064,0.1031 -0.07,0.0991 -0.073,0.0951 -0.078,0.091 -0.083,0.086 -0.086,0.082 -0.091,0.077 -0.094,0.073 -0.099,0.067 -0.102,0.062 -0.106,0.057 -0.109,0.052 -0.113,0.046 -0.117,0.04 -0.119,0.035 -0.123,0.029 -0.126,0.022 -0.129,0.016 -0.132,0.01 -0.135,0.004 c -2.094,0 -4.156,-2.2973 -4.156,-4.5317 0,-1.5156 0.984,-2.6406 2.422,-2.6406 l 0.015,0.3125 c -0.797,0 -1.375,0.6406 -1.375,1.75 0,0.7344 0.375,2.3594 0.828,3.1406 0.719,1.2342 1.594,1.6412 2.25,1.6412 0.782,0 1.391,-0.6255 1.391,-1.7505 0,-0.625 -0.344,-2.3282 -0.938,-3.2969 C 51.703,4.4961 50.828,4.0742 50.203,4.0742 h 0 L 50.188,3.7617 c 2.124,0 4.171,2.2813 4.171,4.5313 z"
   id="path19"
   inkscape:connector-curvature="0"
   style="fill:#000000;stroke-width:0" />
<path
   d="M 58.234,7.0898 58.26,7.0853 58.286,7.0805 58.313,7.0755 58.341,7.0703 58.37,7.0649 58.399,7.0594 58.458,7.0479 58.518,7.036 58.579,7.0239 58.639,7.0119 58.697,7 l 0.029,-0.0058 0.028,-0.0057 0.027,-0.0056 0.027,-0.0054 0.026,-0.0052 0.024,-0.005 0.024,-0.0048 0.023,-0.0045 0.021,-0.0042 0.02,-0.004 0.018,-0.0036 0.017,-0.0033 0.015,-0.003 0.014,-0.0025 0.011,-0.0021 0.01,-0.0017 c 0.203,-0.0625 0.922,-0.3125 0.922,-1.0781 0,-0.4844 -0.453,-1.7813 -2.297,-1.7813 -0.328,0 -1.515,0.0469 -1.844,0.9219 0.641,-0.0781 0.954,0.4219 0.954,0.7656 0,0.3281 -0.219,0.5156 -0.532,0.5156 -0.359,0 -0.812,-0.2812 -0.812,-1 0,-0.9375 0.953,-1.5156 2.219,-1.5156 2.421,0 3.14,1.7813 3.14,2.6094 0,0.2344 0,0.6719 -0.515,1.1875 -0.391,0.375 -0.782,0.4531 -1.641,0.6406 -0.422,0.0938 -1.109,0.2344 -1.109,0.9531 0,0.3125 0.281,1.4537 1.796,1.4537 0.672,0 1.329,-0.25 1.485,-0.8287 -0.703,0 -0.735,-0.5937 -0.735,-0.6093 0,-0.3438 0.297,-0.4375 0.438,-0.4375 0.234,0 0.672,0.1718 0.672,0.8437 0,0.6718 -0.61,1.3598 -1.844,1.3598 -2.078,0 -2.64,-1.641 -2.64,-2.2973 0,-1.2031 1.187,-1.4531 1.546,-1.5469 z"
   id="path21"
   inkscape:connector-curvature="0"
   style="fill:#000000;stroke-width:0" />
<path
   d="M 67.328,5.6836 67.275,5.5975 67.223,5.515 67.171,5.4361 67.118,5.3606 67.066,5.2885 67.013,5.2197 66.961,5.1542 66.908,5.0918 66.855,5.0325 66.802,4.9763 66.748,4.9231 66.694,4.8728 66.64,4.8253 66.586,4.7806 66.53,4.7386 66.475,4.6992 66.418,4.6624 66.361,4.6281 66.304,4.5962 66.245,4.5666 66.186,4.5394 66.126,4.5144 66.065,4.4915 66.003,4.4707 65.94,4.4519 65.876,4.4351 65.812,4.4201 65.745,4.407 65.678,4.3956 65.61,4.3858 65.54,4.3777 65.469,4.3711 C 65.297,4.3555 65.172,4.3555 65.172,4.0742 c 0,-0.0937 0.078,-0.1562 0.187,-0.1562 0.282,0 1,0.0312 1.282,0.0312 0.468,0 0.968,-0.0312 1.421,-0.0312 0.094,0 0.282,0 0.282,0.2968 0,0.1407 -0.125,0.1563 -0.219,0.1563 -0.375,0.0469 -0.672,0.1719 -0.672,0.5469 0,0.2187 0.094,0.4062 0.297,0.75 l 1.219,2 h 4.047 l -0.047,0.4687 h -3.735 l 3.188,5.3283 0.547,-5.3283 0.047,-0.4687 c 0.015,-0.1407 0.015,-0.2657 0.031,-0.4063 0.047,-0.4219 0.234,-2.0781 0.234,-2.375 0,-0.4687 -0.797,-0.5156 -1.062,-0.5156 -0.172,0 -0.344,0 -0.344,-0.2813 0,-0.1718 0.141,-0.1718 0.234,-0.1718 0.266,0 0.594,0.0312 0.86,0.0312 h 0.906 c 0.969,0 1.672,-0.0312 1.687,-0.0312 0.11,0 0.282,0 0.282,0.2968 0,0.1563 -0.141,0.1563 -0.375,0.1563 -0.875,0 -0.891,0.1562 -0.938,0.625 l -0.969,9.9219 c -0.031,0.313 -0.093,0.344 -0.281,0.344 -0.156,0 -0.25,-0.031 -0.39,-0.266 z"
   id="path23"
   inkscape:connector-curvature="0"
   style="fill:#000000;stroke-width:0" />
<path
   d="m 144.93,10.418 -0.04,-0.01 -0.05,-0.01 -0.04,-0.013 -0.04,-0.013 -0.04,-0.015 -0.04,-0.017 -0.04,-0.017 -0.03,-0.019 -0.04,-0.019 -0.03,-0.021 -0.03,-0.022 -0.03,-0.023 -0.03,-0.023 -0.03,-0.025 -0.02,-0.026 -0.03,-0.026 -0.02,-0.027 -0.02,-0.028 -0.02,-0.028 -0.02,-0.03 -0.02,-0.0294 -0.01,-0.0303 -0.02,-0.0309 -0.01,-0.0314 -0.01,-0.0318 -0.01,-0.0322 -0.01,-0.0325 0,-0.0328 -0.01,-0.0331 0,-0.0334 -0.01,-0.0335 0,-0.0336 c 0,-0.375 0.3,-0.5 0.52,-0.5 0.45,0 0.81,0.375 0.81,0.8594 0,0.5005 -0.48,0.9535 -1.28,0.9535 -0.64,0 -1.38,-0.297 -2.03,-1.266 -0.11,0.844 -0.75,1.266 -1.39,1.266 -0.61,0 -0.94,-0.485 -1.13,-0.828 -0.26,-0.5787 -0.51,-1.5318 -0.51,-1.6099 0,-0.0625 0.08,-0.1406 0.18,-0.1406 0.13,0 0.15,0.0156 0.24,0.375 0.23,0.9531 0.53,1.8755 1.17,1.8755 0.39,0 0.5,-0.266 0.5,-0.7349 0,-0.3438 -0.16,-0.9688 -0.28,-1.4531 l -0.44,-1.7188 c -0.06,-0.2969 -0.23,-1.0156 -0.31,-1.2969 -0.13,-0.4218 -0.3,-1.1718 -0.3,-1.25 0,-0.2187 0.17,-0.3906 0.42,-0.3906 0.18,0 0.47,0.1094 0.57,0.4219 0.04,0.125 0.64,2.5312 0.73,2.8906 0.08,0.3594 0.17,0.6875 0.25,1.0469 0.06,0.2187 0.14,0.4687 0.19,0.6719 0.05,0.1406 0.47,0.9218 0.87,1.281 0.19,0.172 0.6,0.532 1.25,0.532 0.25,0 0.5,-0.047 0.72,-0.188 z"
   id="path25"
   inkscape:connector-curvature="0"
   style="fill:#000000;stroke-width:0" />
<path
   d="m 161.39,9.0742 0.04,10e-5 0.04,5e-4 0.04,0.0013 0.03,0.0011 0.02,0.0014 0.02,0.0019 0.02,0.0023 0.02,0.0028 0.02,0.0035 0.02,0.004 0.02,0.0047 0.02,0.0054 0.02,0.0062 0.02,0.007 0.01,0.0079 0.02,0.0088 0.02,0.0098 0.01,0.0108 0.01,0.0119 0.02,0.013 0.01,0.0143 0,0.0075 0.01,0.0079 0,0.0082 0.01,0.0086 0,0.0088 0.01,0.0093 0,0.0095 0,0.0099 0.01,0.0103 0,0.0107 0,0.011 0,0.0114 0.01,0.0117 0,0.0122 0,0.0126 0,0.013 c 0,0.2968 -0.27,0.2968 -0.5,0.2968 h -9.38 c -0.22,0 -0.5,0 -0.5,-0.2812 0,-0.2969 0.27,-0.2969 0.5,-0.2969 z"
   id="path27"
   inkscape:connector-curvature="0"
   style="fill:#000000;stroke-width:0" />
<path
   d="m 161.39,6.1055 0.04,0 0.04,6e-4 0.04,0.0013 0.03,0.0012 0.02,0.0015 0.02,0.002 0.02,0.0024 0.02,0.003 0.02,0.0036 0.02,0.0043 0.02,0.0049 0.02,0.0057 0.02,0.0066 0.02,0.0074 0.01,0.0083 0.02,0.0093 0.02,0.0103 0.01,0.0115 0.01,0.0125 0.02,0.0138 0.01,0.015 0,0.008 0.01,0.0083 0,0.0087 0.01,0.009 0,0.0094 0.01,0.0097 0,0.0101 0,0.0104 0.01,0.0109 0,0.0112 0,0.0117 0,0.012 0.01,0.0124 0,0.0129 0,0.0132 0,0.0137 c 0,0.2969 -0.27,0.2969 -0.5,0.2969 h -9.38 c -0.22,0 -0.5,0 -0.5,-0.2812 0,-0.3125 0.27,-0.3125 0.5,-0.3125 z"
   id="path29"
   inkscape:connector-curvature="0"
   style="fill:#000000;stroke-width:0" />
<path
   d="m 173.96,0.25 0.02,1e-5 0.02,4e-5 0.02,8e-5 0.03,1.2e-4 0.02,1.6e-4 0.02,2.2e-4 0.01,2.8e-4 0.02,3.4e-4 0.02,4.2e-4 0.02,4.9e-4 0.02,5.7e-4 0.01,6.7e-4 0.03,0.00162 0.03,0.00206 0.03,0.00254 0.02,0.00306 0.03,0.00365 0.02,0.00427 0.02,0.00495 0.02,0.00567 0.02,0.00644 0.01,0.00726 0.02,0.00814 0.01,0.00905 0.02,0.01002 0.01,0.01103 0.01,0.0121 0.01,0.01321 0.02,0.01437 0.01,0.01559 0.01,0.01684 0.01,0.01815 0.01,0.01951 0.02,0.02091 0.01,0.02236 0.01,0.02387 0.01,0.02541 0.02,0.02702 8.69,18.1565 c 0.12,0.203 0.12,0.234 0.12,0.281 0,0.188 -0.14,0.328 -0.33,0.328 -0.2,0 -0.26,-0.14 -0.34,-0.328 l -8.2,-17.0938 -3.39,7.875 -2.21,-1.6874 0.24,-0.2657 1.12,0.8594 z"
   id="path31"
   inkscape:connector-curvature="0"
   style="fill:#000000;stroke-width:0" />
<line
   x1="183.16"
   y1="19.007999"
   x2="231.59"
   y2="19.007999"
   id="line33"
   style="stroke-width:0.63800001" />
<path
   d="m 190.69,10.402 -0.05,-0.009 -0.04,-0.011 -0.04,-0.013 -0.04,-0.014 -0.04,-0.016 -0.04,-0.017 -0.04,-0.018 -0.03,-0.019 -0.03,-0.021 -0.03,-0.021 -0.03,-0.023 -0.03,-0.024 -0.03,-0.024 -0.02,-0.025 -0.03,-0.026 -0.02,-0.027 -0.02,-0.028 -0.02,-0.028 -0.02,-0.028 -0.01,-0.0291 -0.02,-0.0294 -0.01,-0.0296 -0.01,-0.03 -0.01,-0.0301 -0.01,-0.0303 -0.01,-0.0303 -0.01,-0.0304 0,-0.0303 -0.01,-0.0302 0,-0.03 0,-0.0297 0,-0.0295 c 0,-0.375 0.31,-0.5 0.53,-0.5 0.47,0 0.81,0.4062 0.81,0.8437 0,0.6562 -0.76,0.9692 -1.43,0.9692 -0.97,0 -1.5,-0.9535 -1.65,-1.266 -0.37,1.203 -1.35,1.266 -1.64,1.266 -1.62,0 -2.48,-2.0942 -2.48,-2.4379 0,-0.0625 0.06,-0.1406 0.17,-0.1406 0.13,0 0.16,0.0937 0.19,0.1562 0.55,1.7653 1.61,2.0943 2.08,2.0943 0.7,0 0.86,-0.6568 0.86,-1.0474 0,-0.3438 -0.1,-0.7188 -0.3,-1.4688 L 186.6,5.9023 c -0.25,-0.9531 -0.7,-1.8281 -1.55,-1.8281 -0.08,0 -0.47,0 -0.81,0.2031 0.58,0.125 0.7,0.5938 0.7,0.7813 0,0.3281 -0.23,0.5156 -0.54,0.5156 -0.38,0 -0.8,-0.3437 -0.8,-0.8437 0,-0.6719 0.75,-0.9688 1.44,-0.9688 0.76,0 1.29,0.5938 1.64,1.25 0.25,-0.9375 1.04,-1.25 1.64,-1.25 1.61,0 2.47,2.0781 2.47,2.4219 0,0.0937 -0.07,0.1562 -0.16,0.1562 -0.14,0 -0.16,-0.0781 -0.2,-0.2187 -0.44,-1.3906 -1.36,-2.0469 -2.07,-2.0469 -0.56,0 -0.86,0.4219 -0.86,1.0625 0,0.3594 0.07,0.6094 0.32,1.6563 l 0.56,2.1562 c 0.23,0.9531 0.77,1.6568 1.5,1.6568 0.03,0 0.48,0 0.81,-0.204 z"
   id="path35"
   inkscape:connector-curvature="0"
   style="fill:#000000;stroke-width:0" />
<path
   d="m 193.45,9.3828 1.17,1.1562 c 1.76,1.531 2.43,2.141 2.43,3.25 0,1.266 -1.02,2.172 -2.38,2.172 -1.25,0 -2.08,-1.031 -2.08,-2.031 0,-0.625 0.55,-0.625 0.6,-0.625 0.19,0 0.58,0.14 0.58,0.593 0,0.297 -0.21,0.579 -0.6,0.579 -0.09,0 -0.11,0 -0.14,0 0.25,0.718 0.86,1.125 1.5,1.125 1.02,0 1.5,-0.891 1.5,-1.813 0,-0.891 -0.56,-1.781 -1.17,-2.469 l -2.14,-2.3903 c -0.13,-0.1094 -0.13,-0.1406 -0.13,-0.4063 h 4.14 l 0.32,1.9376 h -0.28 C 196.7,10.133 196.62,9.6328 196.52,9.4766 196.44,9.3828 195.7,9.3828 195.45,9.3828 z"
   id="path37"
   inkscape:connector-curvature="0"
   style="fill:#000000;stroke-width:0" />
<path
   d="m 207.99,7.5898 h 4.39 c 0.22,0 0.5,0 0.5,0.2813 0,0.3125 -0.26,0.3125 -0.5,0.3125 h -4.39 v 4.3754 c 0,0.234 0,0.515 -0.28,0.515 -0.31,0 -0.31,-0.265 -0.31,-0.515 V 8.1836 h -4.39 c -0.22,0 -0.5,0 -0.5,-0.2969 0,-0.2969 0.26,-0.2969 0.5,-0.2969 h 4.39 V 3.1992 c 0,-0.2187 0,-0.5 0.3,-0.5 0.29,0 0.29,0.2656 0.29,0.5 z"
   id="path39"
   inkscape:connector-curvature="0"
   style="fill:#000000;stroke-width:0" />
<path
   d="M 221.52,2.1367 221.44,2.0235 221.35,1.9127 221.25,1.8052 221.16,1.7014 221.11,1.6512 221.06,1.6021 221,1.5544 220.95,1.508 220.9,1.4631 220.84,1.4197 220.79,1.378 220.73,1.3379 220.67,1.2996 220.61,1.2632 220.55,1.2287 220.49,1.1963 220.43,1.166 220.37,1.1379 220.3,1.1121 220.24,1.0886 220.17,1.0676 220.11,1.0491 220.04,1.0333 219.97,1.0201 219.9,1.0097 219.83,1.0022 219.76,0.99764 219.69,0.99609 c -0.2,0 -0.95,0.03121 -1.2,0.76561 0.05,-0.0156 0.12,-0.0156 0.16,-0.0156 0.48,0 0.79,0.4062 0.79,0.7656 0,0.375 -0.29,0.5 -0.53,0.5 -0.26,0 -0.81,-0.1875 -0.81,-0.9687 0,-0.8125 0.69,-1.37503 1.59,-1.37503 1.58,0 3.19,1.46873 3.63,3.23433 l 1.56,6.2037 c 0.02,0.078 0.05,0.171 0.05,0.265 0,0.235 -0.19,0.391 -0.43,0.391 -0.14,0 -0.48,-0.063 -0.6,-0.531 l -1.18,-4.6724 c -0.07,-0.2969 -0.07,-0.3281 -0.2,-0.5 -0.33,-0.4375 -0.84,-0.9844 -1.61,-0.9844 -0.89,0 -0.97,0.875 -0.97,1.3125 0,0.9063 0.42,2.125 0.86,3.2656 0.17,0.4688 0.27,0.6875 0.27,1 0,0.6717 -0.47,1.2817 -1.25,1.2817 -1.47,0 -2.07,-2.3129 -2.07,-2.4379 0,-0.0625 0.08,-0.1406 0.19,-0.1406 0.14,0 0.16,0.0625 0.22,0.2812 0.38,1.3438 0.99,1.9693 1.61,1.9693 0.14,0 0.41,0 0.41,-0.516 0,-0.422 -0.18,-0.8752 -0.41,-1.4845 -0.78,-2.0782 -0.78,-2.6094 -0.78,-2.9844 0,-1.5156 1.08,-1.8594 1.87,-1.8594 0.46,0 1.04,0.1406 1.6,0.7344 l 0.01,-0.0156 C 222.22,3.543 222.07,2.918 221.52,2.1367 z"
   id="path41"
   inkscape:connector-curvature="0"
   style="fill:#000000;stroke-width:0" />
<path
   d="m 226.94,9.3828 1.17,1.1562 c 1.75,1.531 2.42,2.141 2.42,3.25 0,1.266 -1.01,2.172 -2.37,2.172 -1.25,0 -2.08,-1.031 -2.08,-2.031 0,-0.625 0.54,-0.625 0.59,-0.625 0.19,0 0.58,0.14 0.58,0.593 0,0.297 -0.2,0.579 -0.59,0.579 -0.1,0 -0.11,0 -0.14,0 0.25,0.718 0.86,1.125 1.5,1.125 1.01,0 1.5,-0.891 1.5,-1.813 0,-0.891 -0.57,-1.781 -1.18,-2.469 L 226.2,8.9297 c -0.12,-0.1094 -0.12,-0.1406 -0.12,-0.4063 h 4.14 l 0.31,1.9376 h -0.28 C 230.19,10.133 230.11,9.6328 230,9.4766 229.92,9.3828 229.19,9.3828 228.94,9.3828 z"
   id="path43"
   inkscape:connector-curvature="0"
   style="fill:#000000;stroke-width:0" />
</g></svg>
