<?xml version="1.0" encoding="UTF-8" standalone="no"?>
<svg
   xmlns:dc="http://purl.org/dc/elements/1.1/"
   xmlns:cc="http://creativecommons.org/ns#"
   xmlns:rdf="http://www.w3.org/1999/02/22-rdf-syntax-ns#"
   xmlns:svg="http://www.w3.org/2000/svg"
   xmlns="http://www.w3.org/2000/svg"
   xmlns:sodipodi="http://sodipodi.sourceforge.net/DTD/sodipodi-0.dtd"
   xmlns:inkscape="http://www.inkscape.org/namespaces/inkscape"
   version="1.1"
   id="body"
   width="68.905807"
   height="43.831738"
   viewBox="0 0 0.09570251 0.060877413"
   preserveAspectRatio="none"
   inkscape:version="0.48.3.1 r9886"
   sodipodi:docname="ch2-Z-G-9.svg">
  <metadata
     id="metadata33">
    <rdf:RDF>
      <cc:Work
         rdf:about="">
        <dc:format>image/svg+xml</dc:format>
        <dc:type
           rdf:resource="http://purl.org/dc/dcmitype/StillImage" />
      </cc:Work>
    </rdf:RDF>
  </metadata>
  <defs
     id="defs31" />
  <sodipodi:namedview
     pagecolor="#ffffff"
     bordercolor="#666666"
     borderopacity="1"
     objecttolerance="10"
     gridtolerance="10"
     guidetolerance="10"
     inkscape:pageopacity="0"
     inkscape:pageshadow="2"
     inkscape:window-width="640"
     inkscape:window-height="480"
     id="namedview29"
     showgrid="false"
     inkscape:zoom="0.32777778"
     inkscape:cx="381.95313"
     inkscape:cy="459.91525"
     inkscape:window-x="0"
     inkscape:window-y="24"
     inkscape:window-maximized="0"
     inkscape:current-layer="body" />
  <title
     id="title3">SVG drawing</title>
  <desc
     id="desc5">This was produced by version 4.4 of GNU libplot, a free library for exporting 2-D vector graphics.</desc>
  <g
     id="content"
     transform="matrix(0.0017361,0,0,-0.0017361,-7.5954375e-4,0.06087741)"
     xml:space="preserve"
     stroke-miterlimit="10.433"
     font-style="normal"
     font-variant="normal"
     font-weight="normal"
     font-stretch="normal"
     font-size-adjust="none"
     letter-spacing="normal"
     word-spacing="normal"
     style="font-style:normal;font-variant:normal;font-weight:normal;font-stretch:normal;letter-spacing:normal;word-spacing:normal;text-anchor:start;fill:none;stroke:#000000;stroke-linecap:butt;stroke-linejoin:miter;stroke-miterlimit:10.43299961;stroke-opacity:1;stroke-dasharray:none;stroke-dashoffset:0">
<path
   d="m 18.105,29.562 0.184,0.043 0.18,0.046 0.178,0.052 0.175,0.056 0.171,0.061 0.168,0.065 0.164,0.07 0.16,0.073 0.156,0.077 0.152,0.081 0.147,0.084 0.143,0.088 0.138,0.092 0.132,0.094 0.127,0.098 0.122,0.1 0.115,0.103 0.11,0.106 0.104,0.108 0.097,0.111 0.09,0.113 0.084,0.114 0.077,0.117 0.07,0.118 0.062,0.12 0.054,0.122 0.047,0.122 0.039,0.124 0.03,0.125 0.022,0.126 0.014,0.127 0.004,0.127 c 0,1.25 -1.266,2.391 -3.469,2.391 H 13.84 c -0.313,0 -0.453,0 -0.453,-0.313 0,-0.156 0.109,-0.156 0.406,-0.156 0.953,0 0.953,-0.125 0.953,-0.297 0,-0.031 0,-0.125 -0.062,-0.359 l -2.141,-8.563 c -0.141,-0.547 -0.172,-0.719 -1.281,-0.719 -0.36,0 -0.469,0 -0.469,-0.297 0,-0.156 0.172,-0.156 0.219,-0.156 0.281,0 0.625,0.032 0.922,0.032 h 1.875 c 0.281,0 0.625,-0.032 0.906,-0.032 0.125,0 0.297,0 0.297,0.297 0,0.156 -0.141,0.156 -0.375,0.156 -0.969,0 -0.969,0.141 -0.969,0.297 0,0.016 0,0.125 0.031,0.25 l 1.063,4.282 h 1.906 L 16.637,29.75 H 14.84 l 1.047,4.188 c 0.14,0.578 0.218,0.609 0.828,0.609 h 1.14 c 1.375,0 2.391,-0.406 2.391,-1.656 0,-0.797 -0.406,-3.141 -3.609,-3.141 l 0.031,-0.312 c 1.516,0 1.797,-0.954 1.797,-1.485 0,-0.234 -0.156,-0.859 -0.266,-1.265 -0.172,-0.735 -0.219,-0.907 -0.219,-1.219 0,-1.125 0.922,-1.641 1.985,-1.641 1.281,0 1.844,1.563 1.844,1.797 0,0.109 -0.079,0.156 -0.172,0.156 -0.141,0 -0.172,-0.093 -0.203,-0.219 -0.375,-1.14 -1.032,-1.421 -1.422,-1.421 -0.407,0 -0.657,0.171 -0.657,0.89 0,0.375 0.188,1.828 0.204,1.907 0.078,0.593 0.078,0.656 0.078,0.781 0,1.156 -0.938,1.656 -1.532,1.843 z"
   id="path9"
   inkscape:connector-curvature="0"
   style="fill:#000000;stroke-width:0" />
<path
   d="m 25.203,28.906 0,0.012 0,0.012 0,0.012 0,0.011 0,0.011 0,0.011 0,0.01 0,0.01 -10e-4,0.01 0,0.009 0,0.009 -0.001,0.009 -0.001,0.017 -10e-4,0.016 -0.002,0.014 -0.002,0.014 -0.003,0.012 -0.003,0.012 -0.004,0.011 -0.004,0.009 -0.005,0.009 -0.006,0.008 -0.007,0.008 -0.007,0.006 -0.008,0.006 -0.01,0.005 -0.01,0.005 -0.005,0.002 -0.006,0.002 -0.006,0.002 -0.007,10e-4 -0.006,0.002 -0.007,10e-4 -0.007,0.001 -0.008,0.001 -0.007,0.002 -0.008,0 -0.009,0.001 -0.008,10e-4 -0.009,0.001 -0.01,0 -0.01,0.001 -0.01,0 -0.01,0 -0.011,10e-4 -0.011,0 -0.011,0 -0.012,0 -0.012,0 C 24.25,28.484 23.266,28.484 22.922,28.484 v -0.343 c 0.219,0 0.875,0 1.453,0.281 v -5.781 c 0,-0.391 -0.031,-0.532 -1.031,-0.532 h -0.36 v -0.343 c 0.391,0.031 1.36,0.031 1.797,0.031 0.453,0 1.422,0 1.813,-0.031 v 0.343 h -0.36 c -1,0 -1.031,0.125 -1.031,0.532 z"
   id="path11"
   inkscape:connector-curvature="0"
   style="fill:#000000;stroke-width:0" />
<path
   d="m 36.062,29.562 0.184,0.043 0.18,0.046 0.178,0.052 0.175,0.056 0.171,0.061 0.168,0.065 0.164,0.07 0.16,0.073 0.156,0.077 0.152,0.081 0.147,0.084 0.143,0.088 0.138,0.092 0.132,0.094 0.127,0.098 0.122,0.1 0.115,0.103 0.11,0.106 0.104,0.108 0.097,0.111 0.09,0.113 0.084,0.114 0.077,0.117 0.07,0.118 0.062,0.12 0.054,0.122 0.047,0.122 0.039,0.124 0.03,0.125 0.022,0.126 0.014,0.127 0.004,0.127 c 0,1.25 -1.266,2.391 -3.469,2.391 h -4.312 c -0.313,0 -0.453,0 -0.453,-0.313 0,-0.156 0.109,-0.156 0.406,-0.156 0.953,0 0.953,-0.125 0.953,-0.297 0,-0.031 0,-0.125 -0.062,-0.359 L 30.5,25.328 c -0.141,-0.547 -0.172,-0.719 -1.281,-0.719 -0.36,0 -0.469,0 -0.469,-0.297 0,-0.156 0.172,-0.156 0.219,-0.156 0.281,0 0.625,0.032 0.922,0.032 h 1.875 c 0.281,0 0.625,-0.032 0.906,-0.032 0.125,0 0.297,0 0.297,0.297 0,0.156 -0.141,0.156 -0.375,0.156 -0.969,0 -0.969,0.141 -0.969,0.297 0,0.016 0,0.125 0.031,0.25 l 1.063,4.282 h 1.906 l -0.031,0.312 h -1.797 l 1.047,4.188 c 0.14,0.578 0.218,0.609 0.828,0.609 h 1.14 c 1.376,0 2.391,-0.406 2.391,-1.656 0,-0.797 -0.406,-3.141 -3.609,-3.141 l 0.031,-0.312 c 1.516,0 1.797,-0.954 1.797,-1.485 0,-0.234 -0.156,-0.859 -0.266,-1.265 -0.172,-0.735 -0.218,-0.907 -0.218,-1.219 0,-1.125 0.921,-1.641 1.984,-1.641 1.281,0 1.844,1.563 1.844,1.797 0,0.109 -0.078,0.156 -0.172,0.156 -0.141,0 -0.172,-0.093 -0.203,-0.219 -0.375,-1.14 -1.032,-1.421 -1.422,-1.421 -0.407,0 -0.657,0.171 -0.657,0.89 0,0.375 0.188,1.828 0.204,1.907 0.078,0.593 0.078,0.656 0.078,0.781 0,1.156 -0.938,1.656 -1.532,1.843 z"
   id="path13"
   inkscape:connector-curvature="0"
   style="fill:#000000;stroke-width:0" />
<path
   d="m 41.301,22.625 1.172,1.156 c 1.75,1.531 2.422,2.141 2.422,3.25 0,1.266 -1.016,2.172 -2.375,2.172 -1.25,0 -2.079,-1.031 -2.079,-2.031 0,-0.625 0.547,-0.625 0.594,-0.625 0.188,0 0.578,0.141 0.578,0.594 0,0.297 -0.203,0.578 -0.593,0.578 -0.094,0 -0.11,0 -0.141,0 0.25,0.719 0.859,1.125 1.5,1.125 1.016,0 1.5,-0.891 1.5,-1.813 0,-0.89 -0.563,-1.781 -1.172,-2.469 l -2.141,-2.39 c -0.125,-0.11 -0.125,-0.141 -0.125,-0.406 h 4.141 l 0.313,1.937 h -0.282 c -0.062,-0.328 -0.14,-0.828 -0.25,-0.984 -0.078,-0.094 -0.812,-0.094 -1.062,-0.094 z"
   id="path15"
   inkscape:connector-curvature="0"
   style="fill:#000000;stroke-width:0" />
<line
   x1="0.42969"
   y1="17.355"
   x2="55.57"
   y2="17.355"
   id="line17"
   style="stroke-width:0.63800001" />
<path
   d="m 8.4922,7.8438 0.1833,0.042 0.1806,0.0469 0.1777,0.0517 0.1747,0.0563 0.1713,0.0608 0.1679,0.065 0.1641,0.0693 0.1603,0.0733 0.1559,0.0772 0.152,0.0809 0.147,0.0845 0.143,0.088 0.137,0.0913 0.133,0.0945 0.127,0.0975 0.121,0.1004 0.116,0.1032 0.11,0.1057 0.103,0.1083 0.098,0.1105 0.09,0.1127 0.084,0.1148 0.077,0.1166 0.069,0.1184 0.063,0.1204 0.054,0.121 0.047,0.123 0.038,0.124 0.031,0.125 0.022,0.125 0.013,0.127 0.005,0.127 c 0,1.25 -1.266,2.391 -3.4689,2.391 H 4.2266 c -0.3125,0 -0.4532,0 -0.4532,-0.313 0,-0.156 0.1094,-0.156 0.4063,-0.156 0.9531,0 0.9531,-0.125 0.9531,-0.297 0,-0.031 0,-0.125 -0.0625,-0.359 L 2.9297,3.6094 C 2.7891,3.0625 2.7578,2.8906 1.6484,2.8906 c -0.3593,0 -0.4687,0 -0.4687,-0.2968 0,-0.1563 0.1719,-0.1563 0.2187,-0.1563 0.2813,0 0.625,0.0313 0.9219,0.0313 h 1.875 c 0.2813,0 0.625,-0.0313 0.9063,-0.0313 0.125,0 0.2968,0 0.2968,0.2969 0,0.1562 -0.1406,0.1562 -0.375,0.1562 -0.9687,0 -0.9687,0.1406 -0.9687,0.2969 0,0.0156 0,0.125 0.0312,0.25 L 5.1484,7.7188 H 7.0547 L 7.0234,8.0312 H 5.2266 l 1.0468,4.1878 c 0.1407,0.578 0.2188,0.609 0.8282,0.609 h 1.1406 c 1.375,0 2.3908,-0.406 2.3908,-1.656 0,-0.797 -0.406,-3.1408 -3.6096,-3.1408 L 7.0547,7.7188 c 1.5156,0 1.7969,-0.9532 1.7969,-1.4844 C 8.8516,6 8.6953,5.375 8.5859,4.9688 8.4141,4.2344 8.3672,4.0625 8.3672,3.75 c 0,-1.125 0.9219,-1.6406 1.9848,-1.6406 1.281,0 1.843,1.5625 1.843,1.7968 0,0.1094 -0.078,0.1563 -0.172,0.1563 -0.14,0 -0.171,-0.0937 -0.203,-0.2187 -0.375,-1.1407 -1.031,-1.4219 -1.422,-1.4219 -0.4058,0 -0.6558,0.1719 -0.6558,0.8906 0,0.375 0.1875,1.8281 0.2031,1.9063 C 10.023,5.8125 10.023,5.875 10.023,6 c 0,1.1562 -0.9371,1.6562 -1.5308,1.8438 z"
   id="path19"
   inkscape:connector-curvature="0"
   style="fill:#000000;stroke-width:0" />
<path
   d="m 15.594,7.1875 0,0.0123 0,0.0119 0,0.0116 0,0.0113 0,0.011 0,0.0106 -10e-4,0.0103 0,0.01 0,0.0097 0,0.0094 -10e-4,0.0091 0,0.0088 -0.001,0.0168 -10e-4,0.0156 -0.002,0.0146 -0.002,0.0136 -0.003,0.0125 -0.003,0.0116 -0.004,0.0106 -0.004,0.0098 -0.006,0.0089 -0.005,0.008 -0.007,0.0074 -0.007,0.0065 -0.009,0.0059 -0.009,0.0052 -0.01,0.0045 -0.006,0.0021 -0.006,0.0019 -0.006,0.0018 -0.006,0.0016 -0.006,0.0016 -0.007,0.0013 -0.007,0.0013 -0.008,0.0012 -0.008,10e-4 -0.008,9e-4 -0.008,9e-4 -0.009,7e-4 -0.009,7e-4 -0.009,5e-4 -0.01,5e-4 -0.01,4e-4 -0.01,3e-4 -0.011,3e-4 -0.011,2e-4 -0.012,10e-5 -0.012,10e-5 -0.012,0 C 14.641,6.7656 13.656,6.7656 13.312,6.7656 V 6.4219 c 0.219,0 0.876,0 1.454,0.2812 V 0.92188 c 0,-0.39063 -0.032,-0.53126 -1.032,-0.53126 H 13.375 V 0.046875 c 0.391,0.03125 1.359,0.03125 1.797,0.03125 0.453,0 1.422,0 1.812,-0.03125 V 0.39062 h -0.359 c -1,0 -1.031,0.125 -1.031,0.53126 z"
   id="path21"
   inkscape:connector-curvature="0"
   style="fill:#000000;stroke-width:0" />
<path
   d="m 28.273,6.1094 h 4.391 c 0.219,0 0.5,0 0.5,0.2812 0,0.3125 -0.266,0.3125 -0.5,0.3125 h -4.391 v 4.3749 c 0,0.234 0,0.516 -0.281,0.516 -0.312,0 -0.312,-0.266 -0.312,-0.516 V 6.7031 h -4.391 c -0.219,0 -0.5,0 -0.5,-0.2969 0,-0.2968 0.266,-0.2968 0.5,-0.2968 H 27.68 V 1.7188 c 0,-0.2188 0,-0.5 0.297,-0.5 0.296,0 0.296,0.2656 0.296,0.5 z"
   id="path23"
   inkscape:connector-curvature="0"
   style="fill:#000000;stroke-width:0" />
<path
   d="m 45.676,7.8438 0.183,0.042 0.181,0.0469 0.177,0.0517 0.175,0.0563 0.171,0.0608 0.168,0.065 0.164,0.0693 0.161,0.0733 0.156,0.0772 0.152,0.0809 0.147,0.0845 0.142,0.088 0.138,0.0913 0.132,0.0945 0.127,0.0975 0.122,0.1004 0.116,0.1032 0.109,0.1057 0.104,0.1083 0.097,0.1105 0.091,0.1127 0.084,0.1148 0.076,0.1166 0.07,0.1184 0.062,0.1204 0.055,0.121 0.046,0.123 0.039,0.124 0.031,0.125 0.022,0.125 0.013,0.127 0.004,0.127 c 0,1.25 -1.265,2.391 -3.468,2.391 H 41.41 c -0.312,0 -0.453,0 -0.453,-0.313 0,-0.156 0.109,-0.156 0.406,-0.156 0.953,0 0.953,-0.125 0.953,-0.297 0,-0.031 0,-0.125 -0.062,-0.359 L 40.113,3.6094 c -0.14,-0.5469 -0.172,-0.7188 -1.281,-0.7188 -0.359,0 -0.469,0 -0.469,-0.2968 0,-0.1563 0.172,-0.1563 0.219,-0.1563 0.281,0 0.625,0.0313 0.922,0.0313 h 1.875 c 0.281,0 0.625,-0.0313 0.906,-0.0313 0.125,0 0.297,0 0.297,0.2969 0,0.1562 -0.141,0.1562 -0.375,0.1562 -0.969,0 -0.969,0.1406 -0.969,0.2969 0,0.0156 0,0.125 0.032,0.25 l 1.062,4.2813 h 1.906 L 44.207,8.0312 H 42.41 l 1.047,4.1878 c 0.141,0.578 0.219,0.609 0.828,0.609 h 1.141 c 1.375,0 2.39,-0.406 2.39,-1.656 0,-0.797 -0.406,-3.1408 -3.609,-3.1408 l 0.031,-0.3124 c 1.516,0 1.797,-0.9532 1.797,-1.4844 C 46.035,6 45.879,5.375 45.77,4.9688 45.598,4.2344 45.551,4.0625 45.551,3.75 c 0,-1.125 0.922,-1.6406 1.984,-1.6406 1.281,0 1.844,1.5625 1.844,1.7968 0,0.1094 -0.078,0.1563 -0.172,0.1563 -0.141,0 -0.172,-0.0937 -0.203,-0.2187 -0.375,-1.1407 -1.031,-1.4219 -1.422,-1.4219 -0.406,0 -0.656,0.1719 -0.656,0.8906 0,0.375 0.187,1.8281 0.203,1.9063 0.078,0.5937 0.078,0.6562 0.078,0.7812 0,1.1562 -0.937,1.6562 -1.531,1.8438 z"
   id="path25"
   inkscape:connector-curvature="0"
   style="fill:#000000;stroke-width:0" />
<path
   d="m 50.914,0.90625 1.172,1.15625 c 1.75,1.5313 2.422,2.1406 2.422,3.25 0,1.2656 -1.016,2.1719 -2.375,2.1719 -1.25,0 -2.078,-1.0313 -2.078,-2.0313 0,-0.625 0.547,-0.625 0.593,-0.625 0.188,0 0.579,0.1407 0.579,0.5938 C 51.227,5.7188 51.023,6 50.633,6 c -0.094,0 -0.11,0 -0.141,0 0.25,0.7188 0.86,1.125 1.5,1.125 1.016,0 1.5,-0.8906 1.5,-1.8125 0,-0.8906 -0.562,-1.7813 -1.172,-2.4687 L 50.18,0.45312 C 50.055,0.34375 50.055,0.3125 50.055,0.046875 h 4.14 L 54.508,1.9844 H 54.227 C 54.164,1.6562 54.086,1.1562 53.977,1 53.898,0.90625 53.164,0.90625 52.914,0.90625 z"
   id="path27"
   inkscape:connector-curvature="0"
   style="fill:#000000;stroke-width:0" />
</g></svg>
