<?xml version="1.0" encoding="UTF-8" standalone="no"?>
<svg
   xmlns:dc="http://purl.org/dc/elements/1.1/"
   xmlns:cc="http://creativecommons.org/ns#"
   xmlns:rdf="http://www.w3.org/1999/02/22-rdf-syntax-ns#"
   xmlns:svg="http://www.w3.org/2000/svg"
   xmlns="http://www.w3.org/2000/svg"
   xmlns:sodipodi="http://sodipodi.sourceforge.net/DTD/sodipodi-0.dtd"
   xmlns:inkscape="http://www.inkscape.org/namespaces/inkscape"
   version="1.1"
   id="body"
   width="57.148071"
   height="41.251457"
   viewBox="0 0 0.079372321 0.057293691"
   preserveAspectRatio="none"
   inkscape:version="0.48.3.1 r9886"
   sodipodi:docname="ch2-Z-G-46.svg">
  <metadata
     id="metadata29">
    <rdf:RDF>
      <cc:Work
         rdf:about="">
        <dc:format>image/svg+xml</dc:format>
        <dc:type
           rdf:resource="http://purl.org/dc/dcmitype/StillImage" />
      </cc:Work>
    </rdf:RDF>
  </metadata>
  <defs
     id="defs27" />
  <sodipodi:namedview
     pagecolor="#ffffff"
     bordercolor="#666666"
     borderopacity="1"
     objecttolerance="10"
     gridtolerance="10"
     guidetolerance="10"
     inkscape:pageopacity="0"
     inkscape:pageshadow="2"
     inkscape:window-width="640"
     inkscape:window-height="480"
     id="namedview25"
     showgrid="false"
     inkscape:zoom="0.32777778"
     inkscape:cx="382.34375"
     inkscape:cy="459.83754"
     inkscape:window-x="0"
     inkscape:window-y="24"
     inkscape:window-maximized="0"
     inkscape:current-layer="body" />
  <title
     id="title3">SVG drawing</title>
  <desc
     id="desc5">This was produced by version 4.4 of GNU libplot, a free library for exporting 2-D vector graphics.</desc>
  <g
     id="content"
     transform="matrix(0.0017361,0,0,-0.0017361,-2.170125e-4,0.05740163)"
     xml:space="preserve"
     stroke-miterlimit="10.433"
     font-style="normal"
     font-variant="normal"
     font-weight="normal"
     font-stretch="normal"
     font-size-adjust="none"
     letter-spacing="normal"
     word-spacing="normal"
     style="font-style:normal;font-variant:normal;font-weight:normal;font-stretch:normal;letter-spacing:normal;word-spacing:normal;text-anchor:start;fill:none;stroke:#000000;stroke-linecap:butt;stroke-linejoin:miter;stroke-miterlimit:10.43299961;stroke-opacity:1;stroke-dasharray:none;stroke-dashoffset:0">
<path
   d="m 8.1094,32.621 0.0015,0.006 0.0016,0.006 0.0016,0.006 0.0018,0.007 0.0036,0.013 0.0038,0.014 0.0039,0.014 0.0039,0.015 0.0038,0.015 0.0038,0.015 0.0035,0.016 0.0033,0.015 0.003,0.016 0.0026,0.016 0.0022,0.015 0.0016,0.016 6e-4,0.007 4e-4,0.008 3e-4,0.007 0,0.007 c 0,0.157 -0.1562,0.157 -0.1874,0.157 -0.0313,0 -0.7969,-0.063 -0.875,-0.078 C 6.8125,32.918 6.5781,32.887 6.2969,32.871 5.8906,32.84 5.7812,32.824 5.7812,32.527 c 0,-0.156 0.125,-0.156 0.3594,-0.156 0.7656,0 0.7813,-0.141 0.7813,-0.297 0,-0.094 -0.0313,-0.219 -0.0469,-0.265 L 5.9062,27.934 c -0.1718,0.421 -0.5937,1.062 -1.4218,1.062 -1.7969,0 -3.7344,-2.328 -3.7344,-4.672 0,-1.578 0.9219,-2.5 2,-2.5 l 0.0469,0.313 c -0.6563,0 -1.0157,0.593 -1.0157,1.531 0,0.875 0.4844,2.656 0.7969,3.312 0.5313,1.125 1.2813,1.688 1.9063,1.688 1.0468,0 1.25,-1.297 1.25,-1.422 0,-0.016 -0.0469,-0.234 -0.0625,-0.266 L 4.8906,23.871 C 4.8125,23.605 4.8125,23.574 4.5938,23.262 4.2344,22.824 3.5469,22.137 2.7969,22.137 L 2.75,21.824 c 0.875,0 1.625,0.688 2.0625,1.203 0.1563,-0.937 0.9063,-1.203 1.3906,-1.203 0.4688,0 0.8594,0.281 1.1407,0.86 0.25,0.531 0.4687,1.5 0.4687,1.562 0,0.094 -0.0625,0.156 -0.1563,0.156 C 7.5156,24.402 7.5,24.324 7.4375,24.074 7.2031,23.137 6.8906,22.137 6.25,22.137 c -0.4688,0 -0.5,0.422 -0.5,0.734 0,0.063 0,0.391 0.1094,0.844 z"
   id="path9"
   inkscape:connector-curvature="0"
   style="fill:#000000;stroke-width:0" />
<path
   d="m 15.75,28.465 -0.046,-0.01 -0.044,-0.011 -0.043,-0.013 -0.041,-0.014 -0.039,-0.015 -0.038,-0.017 -0.035,-0.018 -0.035,-0.02 -0.033,-0.02 -0.031,-0.022 -0.029,-0.023 -0.028,-0.023 -0.027,-0.025 -0.025,-0.025 -0.023,-0.026 -0.022,-0.027 -0.021,-0.027 -0.019,-0.028 -0.017,-0.029 -0.016,-0.029 -0.015,-0.029 -0.014,-0.03 -0.012,-0.03 -0.011,-0.03 -0.009,-0.03 -0.008,-0.03 -0.007,-0.031 -0.005,-0.03 -0.005,-0.03 -0.003,-0.03 -0.002,-0.03 0,-0.029 c 0,-0.375 0.312,-0.5 0.531,-0.5 0.469,0 0.813,0.406 0.813,0.843 0,0.657 -0.766,0.969 -1.438,0.969 -0.969,0 -1.5,-0.953 -1.641,-1.266 -0.374,1.204 -1.359,1.266 -1.64,1.266 -1.625,0 -2.4845,-2.094 -2.4845,-2.437 0,-0.063 0.0625,-0.141 0.1719,-0.141 0.125,0 0.1562,0.094 0.1875,0.156 0.5471,1.766 1.6091,2.094 2.0781,2.094 0.703,0 0.859,-0.656 0.859,-1.047 0,-0.344 -0.093,-0.719 -0.296,-1.469 l -0.532,-2.187 c -0.25,-0.953 -0.703,-1.828 -1.547,-1.828 -0.078,0 -0.4684,0 -0.8121,0.203 C 9.875,22.465 10,22.934 10,23.121 c 0,0.328 -0.2344,0.516 -0.5469,0.516 -0.375,0 -0.7969,-0.344 -0.7969,-0.844 0,-0.672 0.75,-0.969 1.4378,-0.969 0.765,0 1.297,0.594 1.64,1.25 0.25,-0.937 1.047,-1.25 1.641,-1.25 1.609,0 2.469,2.078 2.469,2.422 0,0.094 -0.063,0.156 -0.156,0.156 -0.141,0 -0.157,-0.078 -0.204,-0.218 -0.437,-1.391 -1.359,-2.047 -2.062,-2.047 -0.563,0 -0.86,0.422 -0.86,1.062 0,0.36 0.063,0.61 0.313,1.656 l 0.563,2.157 c 0.234,0.953 0.765,1.656 1.5,1.656 0.031,0 0.484,0 0.812,-0.203 z"
   id="path11"
   inkscape:connector-curvature="0"
   style="fill:#000000;stroke-width:0" />
<line
   x1="0.10938"
   y1="15.18"
   x2="17.09"
   y2="15.18"
   id="line13"
   style="stroke-width:0.63800001" />
<path
   d="m 8.1094,10.902 0.0015,0.006 0.0016,0.006 0.0016,0.007 0.0018,0.006 0.0036,0.013 0.0038,0.014 0.0039,0.015 0.0039,0.014 0.0038,0.015 0.0038,0.016 0.0035,0.015 0.0033,0.016 0.003,0.015 0.0026,0.016 0.0022,0.015 0.0016,0.016 6e-4,0.007 4e-4,0.008 3e-4,0.007 0,0.008 c 0,0.156 -0.1562,0.156 -0.1874,0.156 -0.0313,0 -0.7969,-0.062 -0.875,-0.078 C 6.8125,11.199 6.5781,11.168 6.2969,11.152 5.8906,11.121 5.7812,11.106 5.7812,10.809 c 0,-0.157 0.125,-0.157 0.3594,-0.157 0.7656,0 0.7813,-0.14 0.7813,-0.296 0,-0.094 -0.0313,-0.219 -0.0469,-0.266 L 5.9062,6.2148 C 5.7344,6.6367 5.3125,7.2773 4.4844,7.2773 2.6875,7.2773 0.75,4.9492 0.75,2.6055 c 0,-1.5782 0.9219,-2.50003 2,-2.50003 l 0.0469,0.3125 c -0.6563,0 -1.0157,0.59373 -1.0157,1.53123 0,0.875 0.4844,2.6563 0.7969,3.3125 0.5313,1.125 1.2813,1.6875 1.9063,1.6875 1.0468,0 1.25,-1.2969 1.25,-1.4219 0,-0.0156 -0.0469,-0.2343 -0.0625,-0.2656 L 4.8906,2.1523 C 4.8125,1.8867 4.8125,1.8555 4.5938,1.543 4.2344,1.1055 3.5469,0.41797 2.7969,0.41797 L 2.75,0.10547 c 0.875,0 1.625,0.6875 2.0625,1.20313 0.1563,-0.93751 0.9063,-1.20313 1.3906,-1.20313 0.4688,0 0.8594,0.28125 1.1407,0.85937 C 7.5938,1.4961 7.8125,2.4648 7.8125,2.5273 7.8125,2.6211 7.75,2.6836 7.6562,2.6836 7.5156,2.6836 7.5,2.6055 7.4375,2.3555 7.2031,1.418 6.8906,0.41797 6.25,0.41797 c -0.4688,0 -0.5,0.42187 -0.5,0.73433 0,0.0625 0,0.3907 0.1094,0.8438 z"
   id="path15"
   inkscape:connector-curvature="0"
   style="fill:#000000;stroke-width:0" />
<path
   d="M 15.75,6.7461 15.704,6.7365 15.66,6.7253 15.617,6.7126 15.576,6.6984 15.537,6.6829 15.499,6.666 15.464,6.6478 15.429,6.6284 15.396,6.6079 15.365,6.5863 15.336,6.5637 15.308,6.5401 15.281,6.5156 15.256,6.4903 15.233,6.4643 15.211,6.4375 15.19,6.4101 15.171,6.3821 15.154,6.3536 15.138,6.3246 15.123,6.2953 15.109,6.2656 15.097,6.2357 15.086,6.2056 15.077,6.1753 15.069,6.1449 15.062,6.1146 15.057,6.0843 15.052,6.0541 l -0.003,-0.03 -0.002,-0.0298 0,-0.0295 c 0,-0.375 0.312,-0.5 0.531,-0.5 0.469,0 0.813,0.4063 0.813,0.8438 0,0.6562 -0.766,0.9687 -1.438,0.9687 -0.969,0 -1.5,-0.9531 -1.641,-1.2656 -0.374,1.2031 -1.359,1.2656 -1.64,1.2656 -1.625,0 -2.4845,-2.0937 -2.4845,-2.4375 0,-0.0625 0.0625,-0.1406 0.1719,-0.1406 0.125,0 0.1562,0.0938 0.1875,0.1563 0.5471,1.7656 1.6091,2.0937 2.0781,2.0937 0.703,0 0.859,-0.6562 0.859,-1.0469 0,-0.3437 -0.093,-0.7187 -0.296,-1.4687 L 11.656,2.2461 C 11.406,1.293 10.953,0.41797 10.109,0.41797 c -0.078,0 -0.4684,0 -0.8121,0.20312 C 9.875,0.74609 10,1.2148 10,1.4023 10,1.7305 9.7656,1.918 9.4531,1.918 c -0.375,0 -0.7969,-0.3438 -0.7969,-0.8438 0,-0.67186 0.75,-0.96873 1.4378,-0.96873 0.765,0 1.297,0.59375 1.64,1.25003 0.25,-0.93753 1.047,-1.25003 1.641,-1.25003 1.609,0 2.469,2.07813 2.469,2.42183 0,0.0938 -0.063,0.1563 -0.156,0.1563 -0.141,0 -0.157,-0.0781 -0.204,-0.2188 -0.437,-1.3906 -1.359,-2.04683 -2.062,-2.04683 -0.563,0 -0.86,0.42187 -0.86,1.06253 0,0.3593 0.063,0.6093 0.313,1.6562 l 0.563,2.1563 c 0.234,0.9531 0.765,1.6562 1.5,1.6562 0.031,0 0.484,0 0.812,-0.2031 z"
   id="path17"
   inkscape:connector-curvature="0"
   style="fill:#000000;stroke-width:0" />
<path
   d="m 33.449,16.352 0.042,0 0.043,0 0.043,0.001 0.021,0.002 0.022,0.001 0.021,0.002 0.021,0.002 0.021,0.003 0.021,0.003 0.02,0.004 0.019,0.005 0.02,0.006 0.018,0.006 0.018,0.007 0.018,0.008 0.016,0.008 0.016,0.01 0.014,0.011 0.014,0.012 0.013,0.013 0.012,0.014 0.005,0.008 0.005,0.008 0.005,0.008 0.005,0.008 0.004,0.009 0.004,0.01 0.003,0.009 0.004,0.01 0.003,0.01 0.002,0.011 0.002,0.011 0.002,0.011 0.001,0.012 10e-4,0.012 10e-4,0.013 0,0.013 c 0,0.297 -0.265,0.297 -0.5,0.297 h -9.375 c -0.219,0 -0.5,0 -0.5,-0.282 0,-0.296 0.266,-0.296 0.5,-0.296 z"
   id="path19"
   inkscape:connector-curvature="0"
   style="fill:#000000;stroke-width:0" />
<path
   d="m 33.449,13.383 0.042,0 0.043,0 0.043,0.002 0.021,10e-4 0.022,0.001 0.021,0.002 0.021,0.003 0.021,0.003 0.021,0.003 0.02,0.005 0.019,0.005 0.02,0.005 0.018,0.007 0.018,0.007 0.018,0.009 0.016,0.009 0.016,0.01 0.014,0.012 0.014,0.012 0.013,0.014 0.012,0.015 0.005,0.008 0.005,0.008 0.005,0.009 0.005,0.009 0.004,0.009 0.004,0.01 0.003,0.01 0.004,0.011 0.003,0.011 0.002,0.011 0.002,0.011 0.002,0.012 0.001,0.013 10e-4,0.013 10e-4,0.013 0,0.014 c 0,0.297 -0.265,0.297 -0.5,0.297 h -9.375 c -0.219,0 -0.5,0 -0.5,-0.282 0,-0.312 0.266,-0.312 0.5,-0.312 z"
   id="path21"
   inkscape:connector-curvature="0"
   style="fill:#000000;stroke-width:0" />
<path
   d="m 43.863,21.383 0,0.016 0,0.016 0,0.016 0,0.015 0,0.015 0,0.014 0,0.014 0,0.013 -10e-4,0.013 0,0.012 0,0.012 -0.001,0.012 0,0.011 -10e-4,0.011 -10e-4,0.01 -0.001,0.01 -10e-4,0.01 -10e-4,0.009 -0.001,0.009 -10e-4,0.008 -0.002,0.008 -10e-4,0.008 -0.002,0.007 -0.002,0.007 -0.005,0.014 -0.005,0.012 -0.006,0.01 -0.007,0.01 -0.008,0.009 -0.008,0.007 -0.01,0.007 -0.011,0.006 -0.012,0.005 -0.013,0.004 -0.015,0.004 -0.007,0.001 -0.009,0.002 -0.008,0.001 -0.009,10e-4 -0.009,0.001 -0.009,0.001 -0.01,10e-4 -0.01,0 -0.011,0.001 -0.011,0 -0.011,0.001 -0.012,0 -0.013,0 -0.012,10e-4 -0.013,0 -0.014,0 -0.014,0 -0.014,0 C 43.16,21.336 42.363,20.742 40.738,20.742 v -0.453 c 0.36,0 1.157,0 2.032,0.406 v -8.281 c 0,-0.562 -0.047,-0.766 -1.454,-0.766 h -0.484 v -0.453 c 0.422,0.032 1.969,0.032 2.484,0.032 0.532,0 2.063,0 2.485,-0.032 v 0.453 h -0.485 c -1.406,0 -1.453,0.204 -1.453,0.766 z"
   id="path23"
   inkscape:connector-curvature="0"
   style="fill:#000000;stroke-width:0" />
</g></svg>
