<?xml version="1.0" encoding="UTF-8" standalone="no"?>
<svg
   xmlns:dc="http://purl.org/dc/elements/1.1/"
   xmlns:cc="http://creativecommons.org/ns#"
   xmlns:rdf="http://www.w3.org/1999/02/22-rdf-syntax-ns#"
   xmlns:svg="http://www.w3.org/2000/svg"
   xmlns="http://www.w3.org/2000/svg"
   xmlns:sodipodi="http://sodipodi.sourceforge.net/DTD/sodipodi-0.dtd"
   xmlns:inkscape="http://www.inkscape.org/namespaces/inkscape"
   version="1.1"
   id="body"
   width="52.81216"
   height="40.663803"
   viewBox="0 0 0.073350223 0.056477504"
   preserveAspectRatio="none"
   inkscape:version="0.48.3.1 r9886"
   sodipodi:docname="ch2-Z-G-77.svg">
  <metadata
     id="metadata29">
    <rdf:RDF>
      <cc:Work
         rdf:about="">
        <dc:format>image/svg+xml</dc:format>
        <dc:type
           rdf:resource="http://purl.org/dc/dcmitype/StillImage" />
      </cc:Work>
    </rdf:RDF>
  </metadata>
  <defs
     id="defs27" />
  <sodipodi:namedview
     pagecolor="#ffffff"
     bordercolor="#666666"
     borderopacity="1"
     objecttolerance="10"
     gridtolerance="10"
     guidetolerance="10"
     inkscape:pageopacity="0"
     inkscape:pageshadow="2"
     inkscape:window-width="640"
     inkscape:window-height="480"
     id="namedview25"
     showgrid="false"
     inkscape:zoom="0.32777778"
     inkscape:cx="381.40626"
     inkscape:cy="458.86057"
     inkscape:window-x="0"
     inkscape:window-y="24"
     inkscape:window-maximized="0"
     inkscape:current-layer="body" />
  <title
     id="title3">SVG drawing</title>
  <desc
     id="desc5">This was produced by version 4.4 of GNU libplot, a free library for exporting 2-D vector graphics.</desc>
  <g
     id="content"
     transform="matrix(0.0017361,0,0,-0.0017361,-0.00151909,0.05794234)"
     xml:space="preserve"
     stroke-miterlimit="10.433"
     font-style="normal"
     font-variant="normal"
     font-weight="normal"
     font-stretch="normal"
     font-size-adjust="none"
     letter-spacing="normal"
     word-spacing="normal"
     style="font-style:normal;font-variant:normal;font-weight:normal;font-stretch:normal;letter-spacing:normal;word-spacing:normal;text-anchor:start;fill:none;stroke:#000000;stroke-linecap:butt;stroke-linejoin:miter;stroke-miterlimit:10.43299961;stroke-opacity:1;stroke-dasharray:none;stroke-dashoffset:0">
<path
   d="m 11.582,29.262 -0.046,-0.01 -0.044,-0.011 -0.043,-0.013 -0.041,-0.014 -0.039,-0.016 -0.038,-0.016 -0.035,-0.019 -0.035,-0.019 -0.033,-0.02 -0.031,-0.022 -0.029,-0.023 -0.028,-0.023 -0.027,-0.025 -0.025,-0.025 -0.023,-0.026 -0.022,-0.027 -0.021,-0.027 -0.019,-0.028 -0.017,-0.029 -0.016,-0.029 -0.015,-0.029 -0.014,-0.03 -0.012,-0.03 -0.011,-0.03 -0.009,-0.03 -0.008,-0.03 -0.007,-0.031 -0.005,-0.03 -0.005,-0.03 -0.003,-0.03 -0.002,-0.03 0,-0.03 c 0,-0.375 0.312,-0.5 0.531,-0.5 0.469,0 0.813,0.407 0.813,0.844 0,0.656 -0.766,0.969 -1.438,0.969 -0.9686,0 -1.4998,-0.953 -1.6405,-1.266 -0.375,1.203 -1.3593,1.266 -1.6406,1.266 -1.625,0 -2.4844,-2.094 -2.4844,-2.438 0,-0.062 0.0625,-0.14 0.1719,-0.14 0.125,0 0.1563,0.094 0.1875,0.156 0.5469,1.766 1.6094,2.094 2.0781,2.094 0.7032,0 0.8594,-0.656 0.8594,-1.047 0,-0.344 -0.0937,-0.719 -0.2969,-1.469 L 7.4883,24.762 c -0.25,-0.953 -0.7031,-1.828 -1.5469,-1.828 -0.0781,0 -0.4687,0 -0.8125,0.203 0.5781,0.125 0.7031,0.593 0.7031,0.781 0,0.328 -0.2343,0.516 -0.5468,0.516 -0.375,0 -0.7969,-0.344 -0.7969,-0.844 0,-0.672 0.75,-0.969 1.4375,-0.969 0.7656,0 1.2969,0.594 1.6406,1.25 0.25,-0.937 1.0469,-1.25 1.6406,-1.25 1.609,0 2.469,2.078 2.469,2.422 0,0.094 -0.063,0.156 -0.157,0.156 -0.14,0 -0.156,-0.078 -0.203,-0.219 -0.437,-1.39 -1.359,-2.046 -2.0621,-2.046 -0.5625,0 -0.8594,0.421 -0.8594,1.062 0,0.359 0.0625,0.609 0.3125,1.656 l 0.5625,2.157 c 0.2344,0.953 0.7655,1.656 1.4995,1.656 0.032,0 0.485,0 0.813,-0.203 z"
   id="path9"
   inkscape:connector-curvature="0"
   style="fill:#000000;stroke-width:0" />
<path
   d="m 22.809,26.449 h 4.39 c 0.219,0 0.5,0 0.5,0.281 0,0.313 -0.265,0.313 -0.5,0.313 h -4.39 v 4.375 c 0,0.234 0,0.516 -0.282,0.516 -0.312,0 -0.312,-0.266 -0.312,-0.516 v -4.375 h -4.391 c -0.219,0 -0.5,0 -0.5,-0.297 0,-0.297 0.266,-0.297 0.5,-0.297 h 4.391 v -4.39 c 0,-0.219 0,-0.5 0.297,-0.5 0.297,0 0.297,0.265 0.297,0.5 z"
   id="path11"
   inkscape:connector-curvature="0"
   style="fill:#000000;stroke-width:0" />
<path
   d="m 36.719,32.965 0,0.016 0,0.016 0,0.016 0,0.015 0,0.015 0,0.014 -10e-4,0.014 0,0.013 0,0.013 0,0.012 -0.001,0.012 0,0.012 -10e-4,0.011 0,0.011 -10e-4,0.01 -0.001,0.01 -10e-4,0.01 -10e-4,0.009 -0.001,0.009 -0.002,0.008 -0.001,0.008 -0.002,0.008 -0.002,0.007 -0.002,0.007 -0.004,0.014 -0.005,0.012 -0.006,0.01 -0.007,0.01 -0.008,0.009 -0.009,0.007 -0.01,0.007 -0.011,0.006 -0.012,0.005 -0.013,0.004 -0.014,0.004 -0.008,10e-4 -0.008,0.002 -0.008,10e-4 -0.009,0.001 -0.009,10e-4 -0.01,10e-4 -0.01,0.001 -0.01,0 -0.011,10e-4 -0.011,0 -0.011,10e-4 -0.012,0 -0.012,0 -0.013,0.001 -0.013,0 -0.013,0 -0.014,0 -0.015,0 c -0.39,-0.422 -1.187,-1.016 -2.812,-1.016 v -0.453 c 0.359,0 1.156,0 2.031,0.406 v -8.281 c 0,-0.562 -0.047,-0.766 -1.453,-0.766 h -0.484 v -0.453 c 0.421,0.032 1.968,0.032 2.484,0.032 0.531,0 2.062,0 2.484,-0.032 v 0.453 h -0.484 c -1.406,0 -1.453,0.204 -1.453,0.766 z"
   id="path13"
   inkscape:connector-curvature="0"
   style="fill:#000000;stroke-width:0" />
<line
   x1="0.88281"
   y1="15.977"
   x2="43.117001"
   y2="15.977"
   id="line15"
   style="stroke-width:0.63800001" />
<path
   d="M 8.4141,7.543 8.3681,7.5334 8.3238,7.5222 8.2812,7.5095 8.2403,7.4953 8.2011,7.4797 8.1635,7.4628 8.1276,7.4447 8.0933,7.4253 8.0606,7.4048 8.0294,7.3832 7.9999,7.3606 7.9719,7.337 7.9454,7.3125 7.9204,7.2872 7.897,7.2611 7.875,7.2344 7.8545,7.207 7.8354,7.179 7.8178,7.1505 7.8016,7.1215 7.7868,7.0922 7.7733,7.0625 7.7612,7.0326 7.7505,7.0024 7.7411,6.9722 7.733,6.9418 7.7262,6.9115 7.7206,6.8812 7.7164,6.851 7.7133,6.821 7.7115,6.7912 7.7109,6.7617 c 0,-0.375 0.3125,-0.5 0.5313,-0.5 0.4687,0 0.8125,0.4063 0.8125,0.8438 0,0.6562 -0.7656,0.9687 -1.4375,0.9687 -0.9688,0 -1.5,-0.9531 -1.6406,-1.2656 -0.375,1.2031 -1.3594,1.2656 -1.6407,1.2656 -1.625,0 -2.4843,-2.0937 -2.4843,-2.4375 0,-0.0625 0.0625,-0.1406 0.1718,-0.1406 0.125,0 0.1563,0.0937 0.1875,0.1562 0.5469,1.7657 1.6094,2.0938 2.0782,2.0938 0.7031,0 0.8593,-0.6563 0.8593,-1.0469 0,-0.3437 -0.0937,-0.7187 -0.2968,-1.4687 L 4.3203,3.043 C 4.0703,2.0898 3.6172,1.2148 2.7734,1.2148 c -0.0781,0 -0.4687,0 -0.8125,0.2032 0.5782,0.125 0.7032,0.5937 0.7032,0.7812 0,0.3281 -0.2344,0.5156 -0.5469,0.5156 -0.375,0 -0.7969,-0.3437 -0.7969,-0.8437 0,-0.6719 0.75,-0.96876 1.4375,-0.96876 0.7656,0 1.2969,0.59376 1.6406,1.24996 0.25,-0.9375 1.0469,-1.24996 1.6407,-1.24996 1.6093,0 2.4687,2.07816 2.4687,2.42186 0,0.0938 -0.0625,0.1563 -0.1562,0.1563 C 8.2109,3.4805 8.1953,3.4023 8.1484,3.2617 7.7109,1.8711 6.7891,1.2148 6.0859,1.2148 c -0.5625,0 -0.8593,0.4219 -0.8593,1.0625 0,0.3594 0.0625,0.6094 0.3125,1.6563 l 0.5625,2.1562 c 0.2343,0.9532 0.7656,1.6563 1.5,1.6563 0.0312,0 0.4843,0 0.8125,-0.2031 z"
   id="path17"
   inkscape:connector-curvature="0"
   style="fill:#000000;stroke-width:0" />
<path
   d="m 12.988,9.5859 0.086,0.0307 0.084,0.0333 0.082,0.036 0.08,0.0385 0.078,0.0409 0.077,0.0434 0.074,0.0457 0.072,0.0479 0.07,0.0502 0.068,0.0525 0.066,0.054 0.063,0.056 0.06,0.059 0.059,0.06 0.055,0.062 0.053,0.063 0.051,0.066 0.047,0.066 0.045,0.069 0.041,0.07 0.039,0.071 0.036,0.072 0.033,0.074 0.029,0.075 0.027,0.076 0.023,0.077 0.019,0.078 0.016,0.079 0.013,0.079 0.009,0.081 0.006,0.081 0.002,0.082 c 0,0.922 -0.985,1.547 -2.047,1.547 -1.125,0 -1.985,-0.672 -1.985,-1.532 0,-0.359 0.25,-0.578 0.579,-0.578 0.343,0 0.562,0.25 0.562,0.578 0,0.547 -0.516,0.547 -0.687,0.547 0.343,0.547 1.078,0.703 1.484,0.703 0.453,0 1.062,-0.25 1.062,-1.25 0,-0.14 -0.015,-0.781 -0.312,-1.281 C 12.879,9.7578 12.504,9.7266 12.223,9.7109 12.129,9.6953 11.863,9.6797 11.785,9.6797 11.691,9.6641 11.613,9.6641 11.613,9.5391 c 0,-0.1094 0.078,-0.1094 0.266,-0.1094 h 0.5 c 0.906,0 1.328,-0.7656 1.328,-1.8594 0,-1.5156 -0.781,-1.8437 -1.266,-1.8437 -0.484,0 -1.312,0.1875 -1.703,0.8593 0.391,-0.0625 0.735,0.1875 0.735,0.6094 0,0.4063 -0.297,0.625 -0.625,0.625 -0.266,0 -0.625,-0.1562 -0.625,-0.6562 0,-1.0157 1.031,-1.75 2.25,-1.75 1.359,0 2.375,1.0156 2.375,2.1562 0,0.9219 -0.704,1.7813 -1.86,2.0156 z"
   id="path19"
   inkscape:connector-curvature="0"
   style="fill:#000000;stroke-width:0" />
<path
   d="m 29.84,4.7148 0.052,10e-5 0.053,6e-4 0.051,0.0014 0.025,0.0012 0.025,0.0016 0.025,0.0021 0.024,0.0026 0.023,0.0031 0.023,0.0038 0.023,0.0045 0.021,0.0052 0.021,0.006 0.021,0.0069 0.019,0.0078 0.018,0.0088 0.018,0.0098 0.016,0.0108 0.016,0.0121 0.014,0.0132 0.014,0.0145 0.012,0.0158 0.011,0.0172 0.005,0.0091 0.004,0.0095 0.005,0.0098 0.004,0.0103 0.003,0.0106 0.004,0.011 0.003,0.0114 0.002,0.0118 0.002,0.0123 0.002,0.0126 10e-4,0.0131 0.001,0.0135 0.001,0.014 0,0.0144 c 0,0.3282 -0.281,0.3282 -0.562,0.3282 h -8.594 c -0.266,0 -0.562,0 -0.562,-0.3282 0,-0.3125 0.296,-0.3125 0.562,-0.3125 z"
   id="path21"
   inkscape:connector-curvature="0"
   style="fill:#000000;stroke-width:0" />
<path
   d="m 39.891,11.246 0,0.017 0,0.016 0,0.015 0,0.016 -10e-4,0.014 0,0.014 0,0.014 0,0.013 0,0.013 -10e-4,0.013 0,0.012 0,0.011 -0.001,0.011 -10e-4,0.011 0,0.01 -10e-4,0.01 -0.001,0.01 -10e-4,0.009 -0.002,0.009 -10e-4,0.008 -10e-4,0.008 -0.002,0.008 -0.002,0.008 -0.002,0.007 -0.004,0.013 -0.006,0.012 -0.006,0.011 -0.006,0.009 -0.008,0.009 -0.009,0.008 -0.01,0.006 -0.011,0.006 -0.012,0.005 -0.013,0.005 -0.014,0.003 -0.008,0.002 -0.008,10e-4 -0.009,0.001 -0.008,10e-4 -0.01,10e-4 -0.009,0.001 -0.01,10e-4 -0.01,10e-4 -0.011,0 -0.011,10e-4 -0.011,0 -0.012,0 -0.012,0.001 -0.013,0 -0.013,0 -0.014,0 -0.013,0 -0.015,0 c -0.39,-0.422 -1.187,-1.015 -2.812,-1.015 v -0.454 c 0.359,0 1.156,0 2.031,0.407 V 2.2773 c 0,-0.5625 -0.047,-0.7656 -1.453,-0.7656 H 36.859 V 1.0586 c 0.422,0.0312 1.969,0.0312 2.485,0.0312 0.531,0 2.062,0 2.484,-0.0312 v 0.4531 h -0.484 c -1.406,0 -1.453,0.2031 -1.453,0.7656 z"
   id="path23"
   inkscape:connector-curvature="0"
   style="fill:#000000;stroke-width:0" />
</g></svg>
