<?xml version="1.0" encoding="UTF-8" standalone="no"?>
<svg
   xmlns:dc="http://purl.org/dc/elements/1.1/"
   xmlns:cc="http://creativecommons.org/ns#"
   xmlns:rdf="http://www.w3.org/1999/02/22-rdf-syntax-ns#"
   xmlns:svg="http://www.w3.org/2000/svg"
   xmlns="http://www.w3.org/2000/svg"
   xmlns:sodipodi="http://sodipodi.sourceforge.net/DTD/sodipodi-0.dtd"
   xmlns:inkscape="http://www.inkscape.org/namespaces/inkscape"
   version="1.1"
   id="body"
   width="453.59085"
   height="20.000135"
   viewBox="0 0 0.62998729 0.027777966"
   preserveAspectRatio="none"
   inkscape:version="0.48.3.1 r9886"
   sodipodi:docname="ch2-Z-G-43.svg">
  <metadata
     id="metadata103">
    <rdf:RDF>
      <cc:Work
         rdf:about="">
        <dc:format>image/svg+xml</dc:format>
        <dc:type
           rdf:resource="http://purl.org/dc/dcmitype/StillImage" />
      </cc:Work>
    </rdf:RDF>
  </metadata>
  <defs
     id="defs101" />
  <sodipodi:namedview
     pagecolor="#ffffff"
     bordercolor="#666666"
     borderopacity="1"
     objecttolerance="10"
     gridtolerance="10"
     guidetolerance="10"
     inkscape:pageopacity="0"
     inkscape:pageshadow="2"
     inkscape:window-width="640"
     inkscape:window-height="480"
     id="namedview99"
     showgrid="false"
     inkscape:zoom="0.32777778"
     inkscape:cx="382.26563"
     inkscape:cy="458.82151"
     inkscape:window-x="0"
     inkscape:window-y="24"
     inkscape:window-maximized="0"
     inkscape:current-layer="body" />
  <title
     id="title3">SVG drawing</title>
  <desc
     id="desc5">This was produced by version 4.4 of GNU libplot, a free library for exporting 2-D vector graphics.</desc>
  <g
     id="content"
     transform="matrix(0.0017361,0,0,-0.0017361,-3.2551875e-4,0.02929705)"
     xml:space="preserve"
     stroke-miterlimit="10.433"
     font-style="normal"
     font-variant="normal"
     font-weight="normal"
     font-stretch="normal"
     font-size-adjust="none"
     letter-spacing="normal"
     word-spacing="normal"
     style="font-style:normal;font-variant:normal;font-weight:normal;font-stretch:normal;letter-spacing:normal;word-spacing:normal;text-anchor:start;fill:none;stroke:#000000;stroke-linecap:butt;stroke-linejoin:miter;stroke-miterlimit:10.43299961;stroke-opacity:1;stroke-dasharray:none;stroke-dashoffset:0">
<path
   d="m 10.625,10.309 -0.007,0.305 -0.021,0.3 -0.034,0.296 -0.047,0.29 -0.059,0.284 -0.072,0.278 -0.084,0.272 -0.095,0.265 -0.106,0.258 -0.1175,0.25 -0.1274,0.243 -0.1373,0.235 -0.1469,0.226 -0.1562,0.218 -0.165,0.209 -0.1735,0.199 -0.1816,0.19 -0.1894,0.18 -0.1966,0.17 -0.2037,0.159 -0.2103,0.149 -0.2165,0.137 -0.2223,0.125 -0.2278,0.114 -0.233,0.102 -0.2376,0.089 -0.242,0.076 -0.246,0.063 -0.2496,0.05 -0.2528,0.035 -0.2557,0.022 -0.2582,0.007 -0.0156,-0.343 c 1.5625,0 3.7187,-1.375 3.7187,-5.219 0,-4.125 -2.1718,-5.5938 -3.7031,-5.5938 h 0 c -1.625,0 -3.7187,1.5313 -3.7187,5.5938 0,3.891 2.2031,5.219 3.7031,5.219 l 0.0156,0.343 c -2.8437,0 -5.2031,-2.546 -5.2031,-5.796 0,-3.2348 2.4062,-5.7192 5.1875,-5.7192 2.8437,0 5.1875,2.5157 5.1875,5.7192 z"
   id="path9"
   inkscape:connector-curvature="0"
   style="fill:#000000;stroke-width:0" />
<path
   d="m 14.184,8.6211 0.001,0.1447 0.006,0.1437 0.009,0.1427 0.014,0.1413 0.016,0.1396 0.021,0.1378 0.024,0.1357 0.028,0.1334 0.031,0.1308 0.035,0.1279 0.039,0.1253 0.043,0.121 0.046,0.118 0.049,0.114 0.053,0.111 0.057,0.105 0.061,0.102 0.064,0.096 0.067,0.092 0.071,0.086 0.075,0.081 0.078,0.075 0.081,0.069 0.085,0.063 0.089,0.056 0.092,0.05 0.095,0.042 0.099,0.036 0.103,0.028 0.105,0.02 0.109,0.012 0.113,0.005 c 0.125,0 0.156,0 0.219,-0.016 -0.125,-0.063 -0.375,-0.156 -0.375,-0.578 0,-0.469 0.359,-0.641 0.609,-0.641 0.328,0 0.641,0.203 0.641,0.641 0,0.469 -0.422,0.922 -1.11,0.922 -1.359,0 -1.812,-1.469 -1.906,-1.766 h -0.015 v 1.766 l -2.141,-0.188 v -0.453 c 1.094,0 1.219,-0.109 1.219,-0.891 V 6.0898 c 0,-0.7187 -0.172,-0.7187 -1.219,-0.7187 V 4.918 c 0.453,0.0312 1.328,0.0312 1.797,0.0312 0.437,0 1.562,0 1.937,-0.0312 v 0.4531 h -0.328 c -1.156,0 -1.187,0.1875 -1.187,0.75 z"
   id="path11"
   inkscape:connector-curvature="0"
   style="fill:#000000;stroke-width:0" />
<path
   d="m 20.363,14.715 -0.001,0.038 -0.002,0.037 -0.005,0.038 -0.007,0.036 -0.008,0.037 -0.01,0.035 -0.012,0.035 -0.013,0.035 -0.015,0.034 -0.017,0.032 -0.018,0.032 -0.019,0.032 -0.022,0.03 -0.022,0.029 -0.024,0.028 -0.025,0.027 -0.027,0.026 -0.028,0.024 -0.029,0.024 -0.031,0.021 -0.031,0.021 -0.033,0.019 -0.034,0.017 -0.035,0.016 -0.036,0.014 -0.037,0.013 -0.037,0.01 -0.039,0.009 -0.04,0.007 -0.041,0.005 -0.041,0.003 -0.042,0.002 c -0.406,0 -0.766,-0.329 -0.766,-0.75 0,-0.485 0.391,-0.782 0.766,-0.782 0.5,0 0.781,0.407 0.781,0.766 z"
   id="path13"
   inkscape:connector-curvature="0"
   style="fill:#000000;stroke-width:0" />
<path
   d="m 18.176,11.746 v -0.453 c 1.015,0 1.156,-0.094 1.156,-0.875 V 6.0898 c 0,-0.7187 -0.172,-0.7187 -1.203,-0.7187 V 4.918 c 0.437,0.0312 1.203,0.0312 1.656,0.0312 0.188,0 1.11,0 1.641,-0.0312 v 0.4531 c -1.031,0 -1.094,0.0937 -1.094,0.7031 v 5.8598 z"
   id="path15"
   inkscape:connector-curvature="0"
   style="fill:#000000;stroke-width:0" />
<path
   d="M 23.82,7.793 23.89,7.749 23.96,7.7077 24.028,7.6691 24.096,7.6331 24.162,7.5995 24.228,7.5684 24.293,7.5396 24.357,7.5129 24.419,7.4884 24.48,7.466 24.54,7.4455 24.599,7.4268 24.656,7.41 l 0.056,-0.0152 0.054,-0.0136 0.052,-0.0121 0.051,-0.0106 0.049,-0.0093 0.047,-0.0081 0.046,-0.007 0.043,-0.0058 0.041,-0.0049 0.04,-0.004 0.037,-0.0032 0.034,-0.0025 0.033,-0.0019 0.03,-0.0014 0.028,-9e-4 0.025,-5e-4 0.023,-3e-4 0.02,-10e-5 0.018,0 0.015,0.3281 c -1.406,0 -1.406,1.6094 -1.406,1.9688 0,0.2812 0,0.9375 0.281,1.3755 0.297,0.453 0.766,0.609 1.11,0.609 1.39,0 1.39,-1.6095 1.39,-1.9689 0,-0.2813 0,-0.9375 -0.265,-1.3594 -0.297,-0.4687 -0.781,-0.625 -1.11,-0.625 h 0 L 25.383,7.3086 c 1.422,0 2.484,1.0781 2.484,2.2969 0,0.4375 -0.125,1.0315 -0.625,1.5465 0.61,0.625 1.36,0.625 1.438,0.625 0.062,0 0.14,0 0.218,-0.031 -0.171,-0.062 -0.25,-0.219 -0.25,-0.39 0,-0.219 0.157,-0.407 0.422,-0.407 0.125,0 0.407,0.078 0.407,0.422 0,0.281 -0.219,0.735 -0.782,0.735 -0.828,0 -1.437,-0.516 -1.656,-0.75 -0.484,0.359 -1.047,0.578 -1.641,0.578 -1.437,0 -2.5,-1.094 -2.5,-2.3129 0,-0.9063 0.563,-1.5 0.719,-1.6406 C 23.43,7.7461 23.133,7.293 23.133,6.668 23.133,5.7461 23.695,5.3398 23.82,5.2617 23.086,5.0586 22.352,4.4961 22.352,3.668 c 0,-1.1094 1.5,-2.0157 3.453,-2.0157 l 0.015,0.3438 c -1.515,0 -2.687,0.7812 -2.687,1.6875 0,0.125 0.031,0.7344 0.64,1.1562 0.344,0.2188 0.5,0.2188 1.61,0.2188 1.312,0 3.109,0 3.109,-1.375 0,-0.9375 -1.203,-1.6875 -2.672,-1.6875 h 0 L 25.805,1.6523 c 1.89,0 3.468,0.8438 3.468,2.0469 0,0.3906 -0.109,1.3281 -1.062,1.8281 -0.813,0.4063 -1.609,0.4063 -2.969,0.4063 -0.969,0 -1.094,0 -1.375,0.2969 -0.156,0.1718 -0.297,0.4687 -0.297,0.7968 0,0.2813 0.094,0.5469 0.25,0.7657 z"
   id="path17"
   inkscape:connector-curvature="0"
   style="fill:#000000;stroke-width:0" />
<path
   d="m 32.496,14.715 -0.001,0.038 -0.003,0.037 -0.004,0.038 -0.007,0.036 -0.008,0.037 -0.01,0.035 -0.012,0.035 -0.013,0.035 -0.015,0.034 -0.017,0.032 -0.018,0.032 -0.02,0.032 -0.021,0.03 -0.022,0.029 -0.024,0.028 -0.026,0.027 -0.026,0.026 -0.028,0.024 -0.029,0.024 -0.031,0.021 -0.031,0.021 -0.033,0.019 -0.034,0.017 -0.035,0.016 -0.036,0.014 -0.037,0.013 -0.038,0.01 -0.039,0.009 -0.039,0.007 -0.041,0.005 -0.041,0.003 -0.042,0.002 c -0.406,0 -0.766,-0.329 -0.766,-0.75 0,-0.485 0.391,-0.782 0.766,-0.782 0.5,0 0.781,0.407 0.781,0.766 z"
   id="path19"
   inkscape:connector-curvature="0"
   style="fill:#000000;stroke-width:0" />
<path
   d="m 30.309,11.746 v -0.453 c 1.015,0 1.156,-0.094 1.156,-0.875 V 6.0898 c 0,-0.7187 -0.172,-0.7187 -1.203,-0.7187 V 4.918 c 0.437,0.0312 1.203,0.0312 1.656,0.0312 0.187,0 1.109,0 1.641,-0.0312 v 0.4531 c -1.032,0 -1.094,0.0937 -1.094,0.7031 v 5.8598 z"
   id="path21"
   inkscape:connector-curvature="0"
   style="fill:#000000;stroke-width:0" />
<path
   d="m 41.141,8.7773 0,0.1362 0,0.1302 -10e-4,0.1244 0,0.119 -10e-4,0.1137 -0.001,0.1085 -10e-4,0.1036 -0.002,0.099 -0.003,0.0945 -0.003,0.0902 -0.004,0.0861 -0.004,0.0823 -0.006,0.079 -0.006,0.075 -0.007,0.072 -0.008,0.068 -0.01,0.066 -0.01,0.064 -0.012,0.061 -0.013,0.058 -0.014,0.057 -0.016,0.055 -0.018,0.053 -0.019,0.052 -0.02,0.051 -0.023,0.05 -0.024,0.049 -0.026,0.048 -0.028,0.048 -0.029,0.048 -0.032,0.048 -0.034,0.048 c -0.454,0.609 -1.204,0.719 -1.75,0.719 -1.532,0 -2.141,-1.328 -2.266,-1.641 h -0.016 v 1.641 l -2.156,-0.188 v -0.453 c 1.078,0 1.203,-0.109 1.203,-0.891 V 6.0898 c 0,-0.7187 -0.172,-0.7187 -1.203,-0.7187 V 4.918 c 0.406,0.0312 1.266,0.0312 1.703,0.0312 0.469,0 1.328,0 1.735,-0.0312 v 0.4531 c -1.016,0 -1.204,0 -1.204,0.7187 V 9.043 c 0,1.672 1.094,2.563 2.079,2.563 0.984,0 1.218,-0.813 1.218,-1.7818 V 6.0898 c 0,-0.7187 -0.187,-0.7187 -1.218,-0.7187 V 4.918 c 0.421,0.0312 1.281,0.0312 1.718,0.0312 0.469,0 1.329,0 1.735,-0.0312 v 0.4531 c -0.797,0 -1.188,0 -1.203,0.4844 z"
   id="path23"
   inkscape:connector-curvature="0"
   style="fill:#000000;stroke-width:0" />
<path
   d="m 47.902,1.0586 0,0.0087 0,0.0086 L 47.901,1.0804 47.9,1.085 47.899,1.0897 47.898,1.0947 47.896,1.1 47.894,1.1056 47.891,1.1115 47.887,1.1179 47.883,1.1247 47.879,1.1321 47.873,1.14 47.867,1.1484 47.86,1.1576 47.852,1.1674 47.843,1.1779 47.834,1.1892 47.828,1.1952 47.823,1.2013 47.817,1.2077 47.811,1.2144 47.805,1.2212 47.798,1.2283 47.791,1.2356 47.784,1.2432 47.776,1.251 47.768,1.2591 47.76,1.2674 47.751,1.276 l -0.008,0.0089 -0.01,0.0091 -0.009,0.0095 -0.01,0.0097 -0.01,0.0101 -0.011,0.0103 -0.011,0.0107 -0.011,0.0109 -0.012,0.0113 -0.012,0.0116 -0.013,0.012 -0.013,0.0122 c -1.578,1.6094 -2.469,4.2344 -2.469,7.4688 0,3.0939 0.735,5.7349 2.578,7.6249 0.172,0.141 0.172,0.172 0.172,0.219 0,0.094 -0.078,0.125 -0.156,0.125 -0.203,0 -1.5,-1.141 -2.281,-2.703 -0.813,-1.61 -1.172,-3.313 -1.172,-5.2659 0,-1.4063 0.219,-3.2969 1.047,-5 0.937,-1.9063 2.234,-2.93751 2.406,-2.93751 0.078,0 0.156,0.03125 0.156,0.12501 z"
   id="path25"
   inkscape:connector-curvature="0"
   style="fill:#000000;stroke-width:0" />
<path
   d="m 57.875,15.746 h -8.422 v -0.469 h 0.313 c 1.14,0 1.187,-0.156 1.187,-0.75 V 6.1211 c 0,-0.5781 -0.047,-0.75 -1.187,-0.75 H 49.453 V 4.918 c 0.375,0.0312 1.797,0.0312 2.266,0.0312 0.562,0 1.953,0 2.422,-0.0312 v 0.4531 h -0.485 c -1.375,0 -1.406,0.2031 -1.406,0.7656 v 3.9693 h 1.391 c 1.5,0 1.656,-0.5318 1.656,-1.8599 h 0.344 v 4.1719 h -0.344 c 0,-1.328 -0.156,-1.859 -1.656,-1.859 H 52.25 v 4.093 c 0,0.516 0.031,0.625 0.734,0.625 h 1.985 c 2.281,0 2.75,-0.843 2.969,-3.078 h 0.343 z"
   id="path27"
   inkscape:connector-curvature="0"
   style="fill:#000000;stroke-width:0" />
<path
   d="m 60.332,8.6211 0.002,0.1447 0.005,0.1437 0.01,0.1427 0.013,0.1413 0.017,0.1396 0.02,0.1378 0.024,0.1357 0.028,0.1334 0.032,0.1308 0.035,0.1279 0.039,0.1253 0.042,0.121 0.046,0.118 0.05,0.114 0.053,0.111 0.057,0.105 0.06,0.102 0.064,0.096 0.067,0.092 0.072,0.086 0.074,0.081 0.078,0.075 0.082,0.069 0.085,0.063 0.088,0.056 0.092,0.05 0.096,0.042 0.099,0.036 0.102,0.028 0.106,0.02 0.109,0.012 0.112,0.005 c 0.125,0 0.157,0 0.219,-0.016 -0.125,-0.063 -0.375,-0.156 -0.375,-0.578 0,-0.469 0.36,-0.641 0.61,-0.641 0.328,0 0.64,0.203 0.64,0.641 0,0.469 -0.422,0.922 -1.109,0.922 -1.36,0 -1.813,-1.469 -1.906,-1.766 h -0.016 v 1.766 l -2.141,-0.188 v -0.453 c 1.094,0 1.219,-0.109 1.219,-0.891 V 6.0898 c 0,-0.7187 -0.172,-0.7187 -1.219,-0.7187 V 4.918 c 0.453,0.0312 1.328,0.0312 1.797,0.0312 0.438,0 1.563,0 1.938,-0.0312 V 5.3711 H 61.52 c -1.157,0 -1.188,0.1875 -1.188,0.75 z"
   id="path29"
   inkscape:connector-curvature="0"
   style="fill:#000000;stroke-width:0" />
<path
   d="m 69.883,9.168 0,0.1584 -0.002,0.1533 -0.003,0.1485 -0.006,0.144 -0.011,0.1399 -0.007,0.0685 -0.008,0.0674 -0.01,0.067 -0.012,0.066 -0.014,0.065 -0.015,0.065 -0.018,0.063 -0.019,0.063 -0.022,0.063 -0.025,0.062 -0.027,0.061 -0.03,0.061 -0.032,0.061 -0.036,0.06 -0.038,0.06 -0.042,0.059 -0.046,0.059 -0.048,0.059 -0.053,0.059 -0.056,0.059 -0.059,0.059 -0.064,0.058 c -0.563,0.5 -1.266,0.735 -1.969,0.735 -1.313,0 -2.313,-0.86 -2.313,-1.891 0,-0.4687 0.313,-0.6874 0.672,-0.6874 0.375,0 0.657,0.2656 0.657,0.6564 0,0.641 -0.579,0.641 -0.813,0.641 0.359,0.671 1.125,0.953 1.766,0.953 0.734,0 1.672,-0.594 1.672,-2.0317 V 9.0117 8.7305 7.1523 c 0,-1.5468 -1.172,-2.0781 -1.844,-2.0781 -0.781,0 -1.438,0.5781 -1.438,1.3438 0,2.0937 2.703,2.2812 3.282,2.3125 V 9.0117 C 65.648,8.9648 64.445,7.6367 64.445,6.418 c 0,-1.2657 1.453,-1.6563 2.422,-1.6563 1.063,0 1.766,0.6406 2.078,1.3906 0.063,-0.7343 0.547,-1.3125 1.235,-1.3125 0.328,0 1.25,0.2188 1.25,1.5 v 0.875 h -0.344 v -0.875 c 0,-0.9062 -0.375,-1.0468 -0.609,-1.0468 -0.594,0 -0.594,0.8437 -0.594,1.0937 z"
   id="path31"
   inkscape:connector-curvature="0"
   style="fill:#000000;stroke-width:0" />
<path
   d="m 82.938,8.7773 -0.001,0.1362 0,0.1302 0,0.1244 0,0.119 -10e-4,0.1137 -0.001,0.1085 -0.001,0.1036 -0.002,0.099 -0.002,0.0945 -0.003,0.0902 -0.004,0.0861 -0.004,0.0823 -0.006,0.079 -0.006,0.075 -0.007,0.072 -0.007,0.068 -0.009,0.066 -0.01,0.064 -0.012,0.061 -0.012,0.058 -0.014,0.057 -0.015,0.055 -0.017,0.053 -0.018,0.052 -0.02,0.051 -0.021,0.05 -0.023,0.049 -0.025,0.048 -0.027,0.048 -0.029,0.048 -0.03,0.048 -0.033,0.048 c -0.469,0.609 -1.203,0.719 -1.75,0.719 -1.312,0 -1.984,-0.953 -2.234,-1.578 -0.235,1.218 -1.094,1.578 -2.094,1.578 -1.531,0 -2.141,-1.328 -2.266,-1.641 h -0.015 v 1.641 l -2.157,-0.188 v -0.453 c 1.079,0 1.204,-0.109 1.204,-0.891 V 6.0898 c 0,-0.7187 -0.172,-0.7187 -1.204,-0.7187 V 4.918 c 0.407,0.0312 1.266,0.0312 1.704,0.0312 0.468,0 1.328,0 1.734,-0.0312 v 0.4531 c -1.016,0 -1.203,0 -1.203,0.7187 V 9.043 c 0,1.672 1.094,2.563 2.078,2.563 0.984,0 1.219,-0.813 1.219,-1.7818 V 6.0898 c 0,-0.7187 -0.188,-0.7187 -1.219,-0.7187 V 4.918 c 0.422,0.0312 1.281,0.0312 1.719,0.0312 0.468,0 1.328,0 1.734,-0.0312 v 0.4531 c -1.016,0 -1.203,0 -1.203,0.7187 V 9.043 c 0,1.672 1.094,2.563 2.078,2.563 0.985,0 1.203,-0.813 1.203,-1.7818 V 6.0898 c 0,-0.7187 -0.172,-0.7187 -1.203,-0.7187 V 4.918 c 0.406,0.0312 1.266,0.0312 1.719,0.0312 0.453,0 1.312,0 1.734,-0.0312 v 0.4531 c -0.797,0 -1.203,0 -1.218,0.4844 z"
   id="path33"
   inkscape:connector-curvature="0"
   style="fill:#000000;stroke-width:0" />
<path
   d="m 90.645,8.6055 0.015,0 0.016,0 0.015,0 0.014,0 0.014,1e-4 0.014,10e-5 0.013,2e-4 0.013,10e-5 0.013,3e-4 0.012,3e-4 0.011,4e-4 0.012,4e-4 0.011,6e-4 0.01,6e-4 0.01,7e-4 0.01,8e-4 0.01,9e-4 0.009,0.0011 0.008,0.0011 0.009,0.0013 0.016,0.003 0.014,0.0036 0.014,0.0043 0.012,0.0049 0.011,0.0057 0.01,0.0066 0.009,0.0074 0.008,0.0083 0.007,0.0093 0.006,0.0103 0.006,0.0115 0.005,0.0125 0.004,0.0138 0.003,0.015 0.002,0.008 0.001,0.0083 0.001,0.0087 10e-4,0.009 0.001,0.0094 0.001,0.0097 10e-4,0.0101 0,0.0104 0.001,0.0109 0,0.0112 0.001,0.0117 0,0.012 0,0.0124 0,0.0129 0,0.0132 10e-4,0.0137 c 0,1.6097 -0.86,3.1097 -2.782,3.1097 -1.812,0 -3.203,-1.641 -3.203,-3.6097 0,-2.1093 1.61,-3.6406 3.375,-3.6406 1.891,0 2.61,1.7188 2.61,2.0469 0,0.0937 -0.079,0.1562 -0.172,0.1562 -0.125,0 -0.157,-0.0781 -0.188,-0.1562 -0.422,-1.3281 -1.484,-1.7031 -2.156,-1.7031 -0.656,0 -2.266,0.4531 -2.266,3.2031 v 0.2969 l 0.016,0.2968 c 0.125,2.4997 1.516,2.7817 1.969,2.7817 1.703,0 1.797,-2.2348 1.812,-2.7817 H 86.254 L 86.238,8.6055 z"
   id="path35"
   inkscape:connector-curvature="0"
   style="fill:#000000;stroke-width:0" />
<path
   d="m 95.973,8.8711 -0.001,0.1164 -10e-4,0.1207 -0.003,0.1247 -0.004,0.1287 -0.005,0.1324 -0.007,0.136 -0.018,0.2821 -0.025,0.2949 -0.033,0.305 -0.041,0.316 -0.052,0.324 -0.062,0.332 -0.073,0.338 -0.085,0.342 -0.098,0.346 -0.112,0.348 -0.061,0.174 -0.066,0.175 -0.069,0.174 -0.073,0.174 -0.077,0.174 -0.081,0.173 c -0.938,1.907 -2.25,2.938 -2.422,2.938 -0.063,0 -0.141,-0.031 -0.141,-0.125 0,-0.047 0,-0.078 0.266,-0.36 1.594,-1.593 2.484,-4.218 2.484,-7.4683 0,-3.0781 -0.75,-5.7344 -2.593,-7.6094 -0.157,-0.1406 -0.157,-0.1718 -0.157,-0.2187 0,-0.09376 0.078,-0.12501 0.141,-0.12501 0.203,0 1.516,1.14061 2.297,2.70311 0.797,1.6094 1.172,3.3281 1.172,5.2344 z"
   id="path37"
   inkscape:connector-curvature="0"
   style="fill:#000000;stroke-width:0" />
<path
   d="m 107.44,8.5898 h 4.39 c 0.22,0 0.5,0 0.5,0.2813 0,0.3125 -0.27,0.3125 -0.5,0.3125 h -4.39 v 4.3754 c 0,0.234 0,0.515 -0.28,0.515 -0.32,0 -0.32,-0.265 -0.32,-0.515 V 9.1836 h -4.39 c -0.22,0 -0.5,0 -0.5,-0.2969 0,-0.2969 0.27,-0.2969 0.5,-0.2969 h 4.39 V 4.1992 c 0,-0.2187 0,-0.5 0.3,-0.5 0.3,0 0.3,0.2656 0.3,0.5 z"
   id="path39"
   inkscape:connector-curvature="0"
   style="fill:#000000;stroke-width:0" />
<path
   d="m 123,11.418 -0.05,-0.01 -0.04,-0.01 -0.04,-0.013 -0.05,-0.013 -0.04,-0.015 -0.03,-0.017 -0.04,-0.017 -0.04,-0.019 -0.03,-0.019 -0.04,-0.021 -0.03,-0.022 -0.03,-0.023 -0.03,-0.023 -0.02,-0.025 -0.03,-0.026 -0.02,-0.026 -0.03,-0.027 -0.02,-0.028 -0.02,-0.028 -0.01,-0.03 -0.02,-0.029 -0.02,-0.031 -0.01,-0.031 -0.01,-0.031 -0.01,-0.032 -0.01,-0.032 -0.01,-0.032 -0.01,-0.033 0,-0.033 -0.01,-0.034 0,-0.033 0,-0.034 c 0,-0.375 0.3,-0.5 0.52,-0.5 0.45,0 0.81,0.375 0.81,0.86 0,0.5 -0.49,0.953 -1.28,0.953 -0.64,0 -1.38,-0.297 -2.03,-1.266 -0.11,0.844 -0.75,1.266 -1.39,1.266 -0.61,0 -0.94,-0.485 -1.13,-0.828 -0.27,-0.579 -0.52,-1.5318 -0.52,-1.6099 0,-0.0625 0.08,-0.1406 0.19,-0.1406 0.13,0 0.14,0.0156 0.24,0.375 0.23,0.9535 0.53,1.8755 1.17,1.8755 0.39,0 0.5,-0.266 0.5,-0.735 0,-0.344 -0.16,-0.9687 -0.28,-1.453 L 118.61,7.6992 C 118.55,7.4023 118.38,6.6836 118.3,6.4023 118.17,5.9805 118,5.2305 118,5.1523 c 0,-0.2187 0.17,-0.3906 0.42,-0.3906 0.17,0 0.47,0.1094 0.56,0.4219 0.05,0.125 0.64,2.5312 0.74,2.8906 0.08,0.3594 0.17,0.6875 0.25,1.0469 0.06,0.2187 0.14,0.4687 0.19,0.6719 0.04,0.1406 0.46,0.922 0.87,1.281 0.19,0.172 0.59,0.532 1.25,0.532 0.25,0 0.5,-0.047 0.72,-0.188 z"
   id="path41"
   inkscape:connector-curvature="0"
   style="fill:#000000;stroke-width:0" />
<path
   d="m 130.87,8.8867 0,0.0437 -0.01,0.043 0,0.0425 -0.01,0.0417 -0.01,0.0409 -0.01,0.0401 -0.01,0.0393 -0.02,0.0384 -0.02,0.0374 -0.01,0.0364 -0.02,0.0354 -0.03,0.0342 -0.02,0.033 -0.02,0.0319 -0.03,0.0305 -0.03,0.0293 -0.03,0.0278 -0.03,0.0265 -0.03,0.025 -0.03,0.0234 -0.04,0.0219 -0.03,0.0202 -0.04,0.0185 -0.04,0.0169 -0.04,0.015 -0.03,0.0132 -0.05,0.0113 -0.04,0.0093 -0.04,0.0074 -0.04,0.0053 -0.04,0.0033 -0.05,0.0011 c -0.45,0 -0.84,-0.375 -0.84,-0.8438 0,-0.4531 0.39,-0.8437 0.84,-0.8437 0.47,0 0.85,0.3906 0.85,0.8437 z"
   id="path43"
   inkscape:connector-curvature="0"
   style="fill:#000000;stroke-width:0" />
<path
   d="m 145.93,8.9805 h -0.34 C 145.2,6.5117 144.82,5.3711 142.13,5.3711 h -2.15 c -0.71,0 -0.74,0.125 -0.74,0.6406 v 4.2973 h 1.44 c 1.53,0 1.7,-0.5004 1.7,-1.8598 h 0.36 v 4.1718 h -0.36 c 0,-1.359 -0.17,-1.859 -1.7,-1.859 h -1.44 v 3.89 c 0,0.516 0.03,0.625 0.74,0.625 h 2.11 c 2.32,0 2.82,-0.796 3.06,-3.078 h 0.36 l -0.42,3.547 h -8.64 v -0.469 h 0.31 c 1.14,0 1.19,-0.156 1.19,-0.75 V 6.1211 c 0,-0.5781 -0.05,-0.75 -1.19,-0.75 h -0.31 V 4.918 h 8.84 z"
   id="path45"
   inkscape:connector-curvature="0"
   style="fill:#000000;stroke-width:0" />
<path
   d="m 151.17,15.777 v -0.468 c 1.08,0 1.21,-0.11 1.21,-0.891 v -3.516 c -0.33,0.469 -1.02,1.032 -1.99,1.032 -1.84,0 -3.42,-1.563 -3.42,-3.5942 0,-2.0156 1.5,-3.5781 3.25,-3.5781 1.2,0 1.9,0.7969 2.12,1.0938 l -0.22,0.2343 c -0.37,-0.5468 -1.03,-1.0156 -1.82,-1.0156 -0.41,0 -2.13,0.1563 -2.13,3.25 0,1.1406 0.19,1.7818 0.53,2.2968 0.33,0.5 0.97,0.985 1.75,0.985 0.99,0 1.55,-0.719 1.71,-0.969 0.18,-0.266 0.18,-0.297 0.18,-0.578 V 6.7773 c 0,-0.2812 0,-0.3281 -0.22,-0.6875 l 0.22,-0.2343 V 4.7617 l 2.25,0.1563 v 0.4531 c -1.07,0 -1.2,0.125 -1.2,0.8906 v 9.6873 z"
   id="path47"
   inkscape:connector-curvature="0"
   style="fill:#000000;stroke-width:0" />
<path
   d="m 156.96,7.793 0.07,-0.044 0.07,-0.0413 0.07,-0.0386 0.07,-0.036 0.07,-0.0336 0.06,-0.0311 0.07,-0.0288 0.06,-0.0267 0.06,-0.0245 0.06,-0.0224 0.06,-0.0205 0.06,-0.0187 0.06,-0.0168 0.06,-0.0152 0.05,-0.0136 0.05,-0.0121 0.05,-0.0106 0.05,-0.0093 0.05,-0.0081 0.04,-0.007 0.05,-0.0058 0.04,-0.0049 0.04,-0.004 0.04,-0.0032 0.03,-0.0025 0.03,-0.0019 0.03,-0.0014 0.03,-9e-4 0.03,-5e-4 0.02,-3e-4 0.02,-10e-5 0.02,0 0.01,0.3281 c -1.4,0 -1.4,1.6094 -1.4,1.9688 0,0.2812 0,0.9375 0.28,1.3755 0.29,0.453 0.76,0.609 1.11,0.609 1.39,0 1.39,-1.6095 1.39,-1.9689 0,-0.2813 0,-0.9375 -0.27,-1.3594 -0.3,-0.4687 -0.78,-0.625 -1.11,-0.625 h 0 l -0.01,-0.3281 c 1.42,0 2.48,1.0781 2.48,2.2969 0,0.4375 -0.12,1.0315 -0.62,1.5465 0.61,0.625 1.36,0.625 1.43,0.625 0.07,0 0.14,0 0.22,-0.031 -0.17,-0.062 -0.25,-0.219 -0.25,-0.39 0,-0.219 0.16,-0.407 0.42,-0.407 0.13,0 0.41,0.078 0.41,0.422 0,0.281 -0.22,0.735 -0.78,0.735 -0.83,0 -1.44,-0.516 -1.66,-0.75 -0.48,0.359 -1.04,0.578 -1.64,0.578 -1.44,0 -2.5,-1.094 -2.5,-2.3129 0,-0.9063 0.56,-1.5 0.72,-1.6406 -0.19,-0.2344 -0.48,-0.6875 -0.48,-1.3125 0,-0.9219 0.56,-1.3282 0.68,-1.4063 -0.73,-0.2031 -1.46,-0.7656 -1.46,-1.5937 0,-1.1094 1.5,-2.0157 3.45,-2.0157 l 0.01,0.3438 c -1.51,0 -2.68,0.7812 -2.68,1.6875 0,0.125 0.03,0.7344 0.64,1.1562 0.34,0.2188 0.5,0.2188 1.61,0.2188 1.31,0 3.11,0 3.11,-1.375 0,-0.9375 -1.21,-1.6875 -2.68,-1.6875 h 0 l -0.01,-0.3438 c 1.89,0 3.47,0.8438 3.47,2.0469 0,0.3906 -0.11,1.3281 -1.07,1.8281 -0.81,0.4063 -1.6,0.4063 -2.96,0.4063 -0.97,0 -1.1,0 -1.38,0.2969 -0.16,0.1718 -0.3,0.4687 -0.3,0.7968 0,0.2813 0.1,0.5469 0.25,0.7657 z"
   id="path49"
   inkscape:connector-curvature="0"
   style="fill:#000000;stroke-width:0" />
<path
   d="m 168.97,8.6055 0.02,0 0.01,0 0.02,0 0.01,0 0.02,1e-4 0.01,10e-5 0.01,2e-4 0.02,10e-5 0.01,3e-4 0.01,3e-4 0.01,4e-4 0.01,4e-4 0.02,6e-4 0.01,6e-4 0.01,7e-4 0.01,8e-4 0.01,9e-4 0,0.0011 0.01,0.0011 0.01,0.0013 0.02,0.003 0.01,0.0036 0.02,0.0043 0.01,0.0049 0.01,0.0057 0.01,0.0066 0.01,0.0074 0.01,0.0083 0,0.0093 0.01,0.0103 0.01,0.0115 0,0.0125 0,0.0138 0.01,0.015 0,0.008 0,0.0083 0,0.0087 0,0.009 0,0.0094 0,0.0097 0.01,0.0101 0,0.0104 0,0.0109 0,0.0112 0,0.0117 0,0.012 0,0.0124 0,0.0129 0,0.0132 0,0.0137 c 0,1.6097 -0.86,3.1097 -2.78,3.1097 -1.82,0 -3.21,-1.641 -3.21,-3.6097 0,-2.1093 1.61,-3.6406 3.38,-3.6406 1.89,0 2.61,1.7188 2.61,2.0469 0,0.0937 -0.08,0.1562 -0.17,0.1562 -0.13,0 -0.16,-0.0781 -0.19,-0.1562 -0.42,-1.3281 -1.49,-1.7031 -2.16,-1.7031 -0.65,0 -2.26,0.4531 -2.26,3.2031 v 0.2969 l 0.01,0.2968 c 0.13,2.4997 1.52,2.7817 1.97,2.7817 1.7,0 1.8,-2.2348 1.81,-2.7817 h -3.78 l -0.01,-0.2968 z"
   id="path51"
   inkscape:connector-curvature="0"
   style="fill:#000000;stroke-width:0" />
<path
   d="m 173.1,8.3984 0,0.0123 0,0.012 0,0.0116 0,0.0112 0,0.011 0,0.0106 0,0.0104 0,0.01 0,0.0097 0,0.0094 0,0.0091 0,0.0088 0,0.0167 0,0.0157 0,0.0146 -0.01,0.0135 0,0.0125 0,0.0116 -0.01,0.0106 0,0.0098 -0.01,0.0089 0,0.0081 -0.01,0.0073 -0.01,0.0066 0,0.0058 -0.01,0.0052 -0.01,0.0046 -0.01,0.002 0,0.002 -0.01,0.0017 -0.01,0.0017 0,0.0015 -0.01,0.0014 -0.01,0.0012 0,0.0012 -0.01,10e-4 -0.01,10e-4 -0.01,8e-4 -0.01,7e-4 -0.01,7e-4 -0.01,5e-4 -0.01,5e-4 -0.01,4e-4 -0.01,3e-4 -0.01,3e-4 -0.01,2e-4 -0.01,10e-5 -0.01,10e-5 -0.01,0 C 172.15,7.9766 171.16,7.9766 170.82,7.9766 V 7.6328 c 0.22,0 0.88,0 1.45,0.2813 V 2.1328 c 0,-0.3906 -0.03,-0.5312 -1.03,-0.5312 h -0.36 V 1.2578 c 0.39,0.0313 1.36,0.0313 1.8,0.0313 0.45,0 1.42,0 1.81,-0.0313 v 0.3438 h -0.36 c -1,0 -1.03,0.125 -1.03,0.5312 z"
   id="path53"
   inkscape:connector-curvature="0"
   style="fill:#000000;stroke-width:0" />
<path
   d="m 181.07,1.0586 0,0.0087 0,0.0086 0,0.0045 0,0.0046 0,0.0047 0,0.005 -0.01,0.0053 0,0.0056 0,0.0059 0,0.0064 -0.01,0.0068 0,0.0074 -0.01,0.0079 -0.01,0.0084 0,0.0092 -0.01,0.0098 -0.01,0.0105 -0.01,0.0113 0,0.006 -0.01,0.0061 -0.01,0.0064 0,0.0067 -0.01,0.0068 0,0.0071 -0.01,0.0073 -0.01,0.0076 -0.01,0.0078 0,0.0081 -0.01,0.0083 -0.01,0.0086 -0.01,0.0089 -0.01,0.0091 -0.01,0.0095 -0.01,0.0097 -0.01,0.0101 -0.01,0.0103 -0.01,0.0107 -0.01,0.0109 -0.01,0.0113 -0.02,0.0116 -0.01,0.012 -0.01,0.0122 c -1.58,1.6094 -2.47,4.2344 -2.47,7.4688 0,3.0939 0.73,5.7349 2.58,7.6249 0.17,0.141 0.17,0.172 0.17,0.219 0,0.094 -0.08,0.125 -0.16,0.125 -0.2,0 -1.5,-1.141 -2.28,-2.703 -0.81,-1.61 -1.17,-3.313 -1.17,-5.2659 0,-1.4063 0.22,-3.2969 1.05,-5 0.94,-1.9063 2.23,-2.93751 2.4,-2.93751 0.08,0 0.16,0.03125 0.16,0.12501 z"
   id="path55"
   inkscape:connector-curvature="0"
   style="fill:#000000;stroke-width:0" />
<path
   d="m 191.04,15.746 h -8.42 v -0.469 h 0.31 c 1.14,0 1.19,-0.156 1.19,-0.75 V 6.1211 c 0,-0.5781 -0.05,-0.75 -1.19,-0.75 h -0.31 V 4.918 c 0.38,0.0312 1.8,0.0312 2.27,0.0312 0.56,0 1.95,0 2.42,-0.0312 v 0.4531 h -0.49 c -1.37,0 -1.4,0.2031 -1.4,0.7656 v 3.9693 h 1.39 c 1.5,0 1.65,-0.5318 1.65,-1.8599 h 0.35 v 4.1719 h -0.35 c 0,-1.328 -0.15,-1.859 -1.65,-1.859 h -1.39 v 4.093 c 0,0.516 0.03,0.625 0.73,0.625 h 1.99 c 2.28,0 2.75,-0.843 2.96,-3.078 h 0.35 z"
   id="path57"
   inkscape:connector-curvature="0"
   style="fill:#000000;stroke-width:0" />
<path
   d="m 193.5,8.6211 0,0.1447 0.01,0.1437 0.01,0.1427 0.01,0.1413 0.02,0.1396 0.02,0.1378 0.02,0.1357 0.03,0.1334 0.03,0.1308 0.04,0.1279 0.03,0.1253 0.05,0.121 0.04,0.118 0.05,0.114 0.06,0.111 0.05,0.105 0.06,0.102 0.07,0.096 0.06,0.092 0.08,0.086 0.07,0.081 0.08,0.075 0.08,0.069 0.08,0.063 0.09,0.056 0.1,0.05 0.09,0.042 0.1,0.036 0.1,0.028 0.11,0.02 0.11,0.012 0.11,0.005 c 0.12,0 0.16,0 0.22,-0.016 -0.13,-0.063 -0.38,-0.156 -0.38,-0.578 0,-0.469 0.36,-0.641 0.61,-0.641 0.33,0 0.64,0.203 0.64,0.641 0,0.469 -0.42,0.922 -1.11,0.922 -1.36,0 -1.81,-1.469 -1.9,-1.766 h -0.02 v 1.766 l -2.14,-0.188 v -0.453 c 1.1,0 1.22,-0.109 1.22,-0.891 V 6.0898 c 0,-0.7187 -0.17,-0.7187 -1.22,-0.7187 V 4.918 c 0.45,0.0312 1.33,0.0312 1.8,0.0312 0.44,0 1.56,0 1.94,-0.0312 v 0.4531 h -0.33 c -1.16,0 -1.19,0.1875 -1.19,0.75 z"
   id="path59"
   inkscape:connector-curvature="0"
   style="fill:#000000;stroke-width:0" />
<path
   d="m 203.05,9.168 0,0.1584 0,0.1533 0,0.1485 -0.01,0.144 -0.01,0.1399 -0.01,0.0685 -0.01,0.0674 -0.01,0.067 -0.01,0.066 -0.01,0.065 -0.02,0.065 -0.01,0.063 -0.02,0.063 -0.03,0.063 -0.02,0.062 -0.03,0.061 -0.03,0.061 -0.03,0.061 -0.04,0.06 -0.03,0.06 -0.05,0.059 -0.04,0.059 -0.05,0.059 -0.05,0.059 -0.06,0.059 -0.06,0.059 -0.06,0.058 c -0.56,0.5 -1.27,0.735 -1.97,0.735 -1.31,0 -2.31,-0.86 -2.31,-1.891 0,-0.4687 0.31,-0.6874 0.67,-0.6874 0.37,0 0.66,0.2656 0.66,0.6564 0,0.641 -0.58,0.641 -0.82,0.641 0.36,0.671 1.13,0.953 1.77,0.953 0.73,0 1.67,-0.594 1.67,-2.0317 V 9.0117 8.7305 7.1523 c 0,-1.5468 -1.17,-2.0781 -1.84,-2.0781 -0.78,0 -1.44,0.5781 -1.44,1.3438 0,2.0937 2.7,2.2812 3.28,2.3125 v 0.2812 c -3.2,-0.0469 -4.41,-1.375 -4.41,-2.5937 0,-1.2657 1.46,-1.6563 2.43,-1.6563 1.06,0 1.76,0.6406 2.07,1.3906 0.07,-0.7343 0.55,-1.3125 1.24,-1.3125 0.33,0 1.25,0.2188 1.25,1.5 v 0.875 h -0.35 v -0.875 c 0,-0.9062 -0.37,-1.0468 -0.6,-1.0468 -0.6,0 -0.6,0.8437 -0.6,1.0937 z"
   id="path61"
   inkscape:connector-curvature="0"
   style="fill:#000000;stroke-width:0" />
<path
   d="m 216.1,8.7773 0,0.1362 0,0.1302 0,0.1244 0,0.119 0,0.1137 0,0.1085 0,0.1036 0,0.099 -0.01,0.0945 0,0.0902 0,0.0861 -0.01,0.0823 0,0.079 -0.01,0.075 -0.01,0.072 0,0.068 -0.01,0.066 -0.01,0.064 -0.01,0.061 -0.02,0.058 -0.01,0.057 -0.01,0.055 -0.02,0.053 -0.02,0.052 -0.02,0.051 -0.02,0.05 -0.02,0.049 -0.03,0.048 -0.03,0.048 -0.02,0.048 -0.04,0.048 -0.03,0.048 c -0.47,0.609 -1.2,0.719 -1.75,0.719 -1.31,0 -1.98,-0.953 -2.23,-1.578 -0.24,1.218 -1.1,1.578 -2.1,1.578 -1.53,0 -2.14,-1.328 -2.26,-1.641 h -0.02 v 1.641 l -2.15,-0.188 v -0.453 c 1.07,0 1.2,-0.109 1.2,-0.891 V 6.0898 c 0,-0.7187 -0.17,-0.7187 -1.2,-0.7187 V 4.918 c 0.4,0.0312 1.26,0.0312 1.7,0.0312 0.47,0 1.33,0 1.73,-0.0312 v 0.4531 c -1.01,0 -1.2,0 -1.2,0.7187 V 9.043 c 0,1.672 1.09,2.563 2.08,2.563 0.98,0 1.22,-0.813 1.22,-1.7818 V 6.0898 c 0,-0.7187 -0.19,-0.7187 -1.22,-0.7187 V 4.918 c 0.42,0.0312 1.28,0.0312 1.72,0.0312 0.47,0 1.33,0 1.73,-0.0312 v 0.4531 c -1.01,0 -1.2,0 -1.2,0.7187 V 9.043 c 0,1.672 1.09,2.563 2.08,2.563 0.98,0 1.2,-0.813 1.2,-1.7818 V 6.0898 c 0,-0.7187 -0.17,-0.7187 -1.2,-0.7187 V 4.918 c 0.4,0.0312 1.26,0.0312 1.72,0.0312 0.45,0 1.31,0 1.73,-0.0312 v 0.4531 c -0.8,0 -1.2,0 -1.22,0.4844 z"
   id="path63"
   inkscape:connector-curvature="0"
   style="fill:#000000;stroke-width:0" />
<path
   d="m 223.81,8.6055 0.02,0 0.01,0 0.02,0 0.01,0 0.02,1e-4 0.01,10e-5 0.01,2e-4 0.02,10e-5 0.01,3e-4 0.01,3e-4 0.01,4e-4 0.01,4e-4 0.02,6e-4 0.01,6e-4 0.01,7e-4 0.01,8e-4 0.01,9e-4 0,0.0011 0.01,0.0011 0.01,0.0013 0.02,0.003 0.01,0.0036 0.02,0.0043 0.01,0.0049 0.01,0.0057 0.01,0.0066 0.01,0.0074 0.01,0.0083 0,0.0093 0.01,0.0103 0.01,0.0115 0,0.0125 0,0.0138 0.01,0.015 0,0.008 0,0.0083 0,0.0087 0,0.009 0,0.0094 0,0.0097 0.01,0.0101 0,0.0104 0,0.0109 0,0.0112 0,0.0117 0,0.012 0,0.0124 0,0.0129 0,0.0132 0,0.0137 c 0,1.6097 -0.86,3.1097 -2.78,3.1097 -1.82,0 -3.21,-1.641 -3.21,-3.6097 0,-2.1093 1.61,-3.6406 3.38,-3.6406 1.89,0 2.61,1.7188 2.61,2.0469 0,0.0937 -0.08,0.1562 -0.17,0.1562 -0.13,0 -0.16,-0.0781 -0.19,-0.1562 -0.42,-1.3281 -1.49,-1.7031 -2.16,-1.7031 -0.65,0 -2.26,0.4531 -2.26,3.2031 v 0.2969 l 0.01,0.2968 c 0.13,2.4997 1.52,2.7817 1.97,2.7817 1.7,0 1.8,-2.2348 1.81,-2.7817 h -3.78 l -0.01,-0.2968 z"
   id="path65"
   inkscape:connector-curvature="0"
   style="fill:#000000;stroke-width:0" />
<path
   d="m 229.14,8.8711 0,0.1164 0,0.1207 -0.01,0.1247 0,0.1287 -0.01,0.1324 0,0.136 -0.02,0.2821 -0.03,0.2949 -0.03,0.305 -0.04,0.316 -0.05,0.324 -0.06,0.332 -0.08,0.338 -0.08,0.342 -0.1,0.346 -0.11,0.348 -0.06,0.174 -0.07,0.175 -0.07,0.174 -0.07,0.174 -0.08,0.174 -0.08,0.173 c -0.94,1.907 -2.25,2.938 -2.42,2.938 -0.07,0 -0.14,-0.031 -0.14,-0.125 0,-0.047 0,-0.078 0.26,-0.36 1.6,-1.593 2.49,-4.218 2.49,-7.4683 0,-3.0781 -0.75,-5.7344 -2.6,-7.6094 -0.15,-0.1406 -0.15,-0.1718 -0.15,-0.2187 0,-0.09376 0.07,-0.12501 0.14,-0.12501 0.2,0 1.51,1.14061 2.29,2.70311 0.8,1.6094 1.18,3.3281 1.18,5.2344 z"
   id="path67"
   inkscape:connector-curvature="0"
   style="fill:#000000;stroke-width:0" />
<path
   d="m 240.62,8.5898 h 4.39 c 0.22,0 0.5,0 0.5,0.2813 0,0.3125 -0.26,0.3125 -0.5,0.3125 h -4.39 v 4.3754 c 0,0.234 0,0.515 -0.28,0.515 -0.31,0 -0.31,-0.265 -0.31,-0.515 V 9.1836 h -4.39 c -0.22,0 -0.5,0 -0.5,-0.2969 0,-0.2969 0.26,-0.2969 0.5,-0.2969 h 4.39 V 4.1992 c 0,-0.2187 0,-0.5 0.29,-0.5 0.3,0 0.3,0.2656 0.3,0.5 z"
   id="path69"
   inkscape:connector-curvature="0"
   style="fill:#000000;stroke-width:0" />
<path
   d="M 254.15,3.1367 254.07,3.0235 253.98,2.9127 253.89,2.8052 253.79,2.7014 253.74,2.6512 253.69,2.6021 253.64,2.5544 253.58,2.508 253.53,2.4631 253.47,2.4197 253.42,2.378 253.36,2.3379 253.3,2.2996 253.24,2.2632 253.18,2.2287 253.12,2.1963 253.06,2.166 253,2.1379 252.94,2.1121 252.87,2.0886 252.81,2.0676 252.74,2.0491 252.67,2.0333 252.6,2.0201 252.54,2.0097 252.47,2.0022 252.4,1.9976 252.32,1.9961 c -0.2,0 -0.95,0.0312 -1.2,0.7656 0.05,-0.0156 0.13,-0.0156 0.16,-0.0156 0.48,0 0.79,0.4062 0.79,0.7656 0,0.375 -0.29,0.5 -0.53,0.5 -0.26,0 -0.81,-0.1875 -0.81,-0.9687 0,-0.8125 0.69,-1.375 1.59,-1.375 1.58,0 3.19,1.4687 3.63,3.2343 l 1.56,6.2037 c 0.02,0.078 0.05,0.171 0.05,0.265 0,0.235 -0.19,0.391 -0.42,0.391 -0.14,0 -0.49,-0.063 -0.61,-0.531 l -1.18,-4.6724 c -0.07,-0.2969 -0.07,-0.3281 -0.2,-0.5 -0.33,-0.4375 -0.84,-0.9844 -1.61,-0.9844 -0.89,0 -0.97,0.875 -0.97,1.3125 0,0.9063 0.43,2.125 0.86,3.2656 0.17,0.4687 0.27,0.6877 0.27,0.9997 0,0.672 -0.47,1.282 -1.25,1.282 -1.47,0 -2.06,-2.3129 -2.06,-2.4379 0,-0.0625 0.07,-0.1406 0.18,-0.1406 0.14,0 0.16,0.0625 0.22,0.2812 0.38,1.3443 0.99,1.9693 1.61,1.9693 0.14,0 0.41,0 0.41,-0.516 0,-0.422 -0.17,-0.875 -0.41,-1.4845 -0.78,-2.0782 -0.78,-2.6094 -0.78,-2.9844 0,-1.5156 1.08,-1.8594 1.88,-1.8594 0.45,0 1.03,0.1406 1.59,0.7344 L 255.1,5.4805 C 254.85,4.543 254.7,3.918 254.15,3.1367 z"
   id="path71"
   inkscape:connector-curvature="0"
   style="fill:#000000;stroke-width:0" />
<path
   d="m 264.74,8.8867 0,0.0437 -0.01,0.043 0,0.0425 -0.01,0.0417 -0.01,0.0409 -0.01,0.0401 -0.01,0.0393 -0.02,0.0384 -0.01,0.0374 -0.02,0.0364 -0.02,0.0354 -0.03,0.0342 -0.02,0.033 -0.02,0.0319 -0.03,0.0305 -0.03,0.0293 -0.03,0.0278 -0.03,0.0265 -0.03,0.025 -0.03,0.0234 -0.04,0.0219 -0.03,0.0202 -0.04,0.0185 -0.04,0.0169 -0.03,0.015 -0.04,0.0132 -0.04,0.0113 -0.04,0.0093 -0.05,0.0074 -0.04,0.0053 -0.04,0.0033 -0.05,0.0011 c -0.45,0 -0.84,-0.375 -0.84,-0.8438 0,-0.4531 0.39,-0.8437 0.84,-0.8437 0.47,0 0.85,0.3906 0.85,0.8437 z"
   id="path73"
   inkscape:connector-curvature="0"
   style="fill:#000000;stroke-width:0" />
<path
   d="m 279.8,8.9805 h -0.34 C 279.07,6.5117 278.69,5.3711 276,5.3711 h -2.15 c -0.71,0 -0.74,0.125 -0.74,0.6406 v 4.2973 h 1.44 c 1.53,0 1.7,-0.5004 1.7,-1.8598 h 0.36 v 4.1718 h -0.36 c 0,-1.359 -0.17,-1.859 -1.7,-1.859 h -1.44 v 3.89 c 0,0.516 0.03,0.625 0.74,0.625 h 2.11 c 2.33,0 2.83,-0.796 3.06,-3.078 h 0.36 l -0.42,3.547 h -8.64 v -0.469 h 0.31 c 1.14,0 1.19,-0.156 1.19,-0.75 V 6.1211 c 0,-0.5781 -0.05,-0.75 -1.19,-0.75 h -0.31 V 4.918 h 8.84 z"
   id="path75"
   inkscape:connector-curvature="0"
   style="fill:#000000;stroke-width:0" />
<path
   d="m 285.04,15.777 v -0.468 c 1.08,0 1.21,-0.11 1.21,-0.891 v -3.516 c -0.33,0.469 -1.02,1.032 -1.99,1.032 -1.84,0 -3.42,-1.563 -3.42,-3.5942 0,-2.0156 1.5,-3.5781 3.25,-3.5781 1.2,0 1.91,0.7969 2.12,1.0938 L 286,6.0898 c -0.38,-0.5468 -1.04,-1.0156 -1.83,-1.0156 -0.41,0 -2.13,0.1563 -2.13,3.25 0,1.1406 0.19,1.7818 0.53,2.2968 0.33,0.5 0.97,0.985 1.75,0.985 0.99,0 1.55,-0.719 1.71,-0.969 0.18,-0.266 0.18,-0.297 0.18,-0.578 V 6.7773 c 0,-0.2812 0,-0.3281 -0.21,-0.6875 l 0.21,-0.2343 V 4.7617 l 2.25,0.1563 v 0.4531 c -1.07,0 -1.2,0.125 -1.2,0.8906 v 9.6873 z"
   id="path77"
   inkscape:connector-curvature="0"
   style="fill:#000000;stroke-width:0" />
<path
   d="m 290.84,7.793 0.07,-0.044 0.07,-0.0413 0.06,-0.0386 0.07,-0.036 0.07,-0.0336 0.06,-0.0311 0.07,-0.0288 0.06,-0.0267 0.06,-0.0245 0.07,-0.0224 0.06,-0.0205 0.05,-0.0187 0.06,-0.0168 0.06,-0.0152 0.05,-0.0136 0.05,-0.0121 0.05,-0.0106 0.05,-0.0093 0.05,-0.0081 0.05,-0.007 0.04,-0.0058 0.04,-0.0049 0.04,-0.004 0.04,-0.0032 0.03,-0.0025 0.03,-0.0019 0.03,-0.0014 0.03,-9e-4 0.03,-5e-4 0.02,-3e-4 0.02,-10e-5 0.02,0 0.01,0.3281 c -1.4,0 -1.4,1.6094 -1.4,1.9688 0,0.2812 0,0.9375 0.28,1.3755 0.3,0.453 0.76,0.609 1.11,0.609 1.39,0 1.39,-1.6095 1.39,-1.9689 0,-0.2813 0,-0.9375 -0.27,-1.3594 -0.29,-0.4687 -0.78,-0.625 -1.11,-0.625 h 0 L 292.4,7.3086 c 1.42,0 2.48,1.0781 2.48,2.2969 0,0.4375 -0.12,1.0315 -0.62,1.5465 0.61,0.625 1.36,0.625 1.44,0.625 0.06,0 0.14,0 0.21,-0.031 -0.17,-0.062 -0.25,-0.219 -0.25,-0.39 0,-0.219 0.16,-0.407 0.43,-0.407 0.12,0 0.4,0.078 0.4,0.422 0,0.281 -0.22,0.735 -0.78,0.735 -0.83,0 -1.44,-0.516 -1.66,-0.75 -0.48,0.359 -1.04,0.578 -1.64,0.578 -1.43,0 -2.5,-1.094 -2.5,-2.3129 0,-0.9063 0.57,-1.5 0.72,-1.6406 -0.18,-0.2344 -0.48,-0.6875 -0.48,-1.3125 0,-0.9219 0.56,-1.3282 0.69,-1.4063 -0.74,-0.2031 -1.47,-0.7656 -1.47,-1.5937 0,-1.1094 1.5,-2.0157 3.45,-2.0157 l 0.02,0.3438 c -1.52,0 -2.69,0.7812 -2.69,1.6875 0,0.125 0.03,0.7344 0.64,1.1562 0.34,0.2188 0.5,0.2188 1.61,0.2188 1.31,0 3.11,0 3.11,-1.375 0,-0.9375 -1.21,-1.6875 -2.67,-1.6875 h 0 l -0.02,-0.3438 c 1.89,0 3.47,0.8438 3.47,2.0469 0,0.3906 -0.11,1.3281 -1.06,1.8281 -0.82,0.4063 -1.61,0.4063 -2.97,0.4063 -0.97,0 -1.1,0 -1.38,0.2969 -0.15,0.1718 -0.29,0.4687 -0.29,0.7968 0,0.2813 0.09,0.5469 0.25,0.7657 z"
   id="path79"
   inkscape:connector-curvature="0"
   style="fill:#000000;stroke-width:0" />
<path
   d="m 302.84,8.6055 0.02,0 0.01,0 0.02,0 0.01,0 0.02,1e-4 0.01,10e-5 0.01,2e-4 0.01,10e-5 0.02,3e-4 0.01,3e-4 0.01,4e-4 0.01,4e-4 0.01,6e-4 0.01,6e-4 0.01,7e-4 0.01,8e-4 0.01,9e-4 0.01,0.0011 0.01,0.0011 0.01,0.0013 0.02,0.003 0.01,0.0036 0.01,0.0043 0.02,0.0049 0.01,0.0057 0.01,0.0066 0.01,0.0074 0,0.0083 0.01,0.0093 0.01,0.0103 0,0.0115 0.01,0.0125 0,0.0138 0,0.015 0.01,0.008 0,0.0083 0,0.0087 0,0.009 0,0.0094 0,0.0097 0,0.0101 0,0.0104 0,0.0109 0,0.0112 0,0.0117 0,0.012 0,0.0124 0,0.0129 0,0.0132 0,0.0137 c 0,1.6097 -0.85,3.1097 -2.78,3.1097 -1.81,0 -3.2,-1.641 -3.2,-3.6097 0,-2.1093 1.61,-3.6406 3.38,-3.6406 1.89,0 2.6,1.7188 2.6,2.0469 0,0.0937 -0.07,0.1562 -0.17,0.1562 -0.12,0 -0.15,-0.0781 -0.18,-0.1562 -0.43,-1.3281 -1.49,-1.7031 -2.16,-1.7031 -0.66,0 -2.27,0.4531 -2.27,3.2031 v 0.2969 l 0.02,0.2968 c 0.12,2.4997 1.51,2.7817 1.97,2.7817 1.7,0 1.79,-2.2348 1.81,-2.7817 h -3.78 l -0.02,-0.2968 z"
   id="path81"
   inkscape:connector-curvature="0"
   style="fill:#000000;stroke-width:0" />
<path
   d="m 305.11,2.1172 1.18,1.1562 c 1.75,1.5313 2.42,2.1407 2.42,3.25 0,1.2657 -1.02,2.1719 -2.38,2.1719 -1.25,0 -2.08,-1.0312 -2.08,-2.0312 0,-0.625 0.55,-0.625 0.6,-0.625 0.19,0 0.58,0.1406 0.58,0.5937 0,0.2969 -0.21,0.5781 -0.6,0.5781 -0.09,0 -0.11,0 -0.14,0 0.25,0.7188 0.86,1.125 1.5,1.125 1.02,0 1.5,-0.8906 1.5,-1.8125 0,-0.8906 -0.56,-1.7812 -1.17,-2.4687 l -2.14,-2.3906 c -0.13,-0.1094 -0.13,-0.1407 -0.13,-0.4063 h 4.14 l 0.32,1.9375 h -0.28 C 308.36,2.8672 308.29,2.3672 308.18,2.2109 308.1,2.1172 307.36,2.1172 307.11,2.1172 z"
   id="path83"
   inkscape:connector-curvature="0"
   style="fill:#000000;stroke-width:0" />
<path
   d="m 314.94,1.0586 0,0.0087 0,0.0086 0,0.0045 0,0.0046 0,0.0047 -0.01,0.005 0,0.0053 0,0.0056 0,0.0059 -0.01,0.0064 0,0.0068 -0.01,0.0074 0,0.0079 -0.01,0.0084 0,0.0092 -0.01,0.0098 -0.01,0.0105 -0.01,0.0113 -0.01,0.006 0,0.0061 -0.01,0.0064 0,0.0067 -0.01,0.0068 -0.01,0.0071 0,0.0073 -0.01,0.0076 -0.01,0.0078 -0.01,0.0081 0,0.0083 -0.01,0.0086 -0.01,0.0089 -0.01,0.0091 -0.01,0.0095 -0.01,0.0097 -0.01,0.0101 -0.01,0.0103 -0.01,0.0107 -0.01,0.0109 -0.02,0.0113 -0.01,0.0116 -0.01,0.012 -0.01,0.0122 c -1.58,1.6094 -2.47,4.2344 -2.47,7.4688 0,3.0939 0.73,5.7349 2.58,7.6249 0.17,0.141 0.17,0.172 0.17,0.219 0,0.094 -0.08,0.125 -0.16,0.125 -0.2,0 -1.5,-1.141 -2.28,-2.703 -0.81,-1.61 -1.17,-3.313 -1.17,-5.2659 0,-1.4063 0.22,-3.2969 1.05,-5 0.93,-1.9063 2.23,-2.93751 2.4,-2.93751 0.08,0 0.16,0.03125 0.16,0.12501 z"
   id="path85"
   inkscape:connector-curvature="0"
   style="fill:#000000;stroke-width:0" />
<path
   d="m 324.91,15.746 h -8.42 v -0.469 h 0.31 c 1.15,0 1.19,-0.156 1.19,-0.75 V 6.1211 c 0,-0.5781 -0.04,-0.75 -1.19,-0.75 h -0.31 V 4.918 c 0.38,0.0312 1.8,0.0312 2.27,0.0312 0.56,0 1.95,0 2.42,-0.0312 v 0.4531 h -0.48 c -1.38,0 -1.41,0.2031 -1.41,0.7656 v 3.9693 h 1.39 c 1.5,0 1.66,-0.5318 1.66,-1.8599 h 0.34 v 4.1719 h -0.34 c 0,-1.328 -0.16,-1.859 -1.66,-1.859 h -1.39 v 4.093 c 0,0.516 0.03,0.625 0.73,0.625 h 1.99 c 2.28,0 2.75,-0.843 2.97,-3.078 h 0.34 z"
   id="path87"
   inkscape:connector-curvature="0"
   style="fill:#000000;stroke-width:0" />
<path
   d="m 327.37,8.6211 0,0.1447 0,0.1437 0.01,0.1427 0.02,0.1413 0.01,0.1396 0.02,0.1378 0.03,0.1357 0.03,0.1334 0.03,0.1308 0.03,0.1279 0.04,0.1253 0.04,0.121 0.05,0.118 0.05,0.114 0.05,0.111 0.06,0.105 0.06,0.102 0.06,0.096 0.07,0.092 0.07,0.086 0.08,0.081 0.08,0.075 0.08,0.069 0.08,0.063 0.09,0.056 0.09,0.05 0.1,0.042 0.1,0.036 0.1,0.028 0.11,0.02 0.1,0.012 0.12,0.005 c 0.12,0 0.15,0 0.22,-0.016 -0.13,-0.063 -0.38,-0.156 -0.38,-0.578 0,-0.469 0.36,-0.641 0.61,-0.641 0.33,0 0.64,0.203 0.64,0.641 0,0.469 -0.42,0.922 -1.11,0.922 -1.36,0 -1.81,-1.469 -1.91,-1.766 h -0.01 v 1.766 l -2.14,-0.188 v -0.453 c 1.09,0 1.22,-0.109 1.22,-0.891 V 6.0898 c 0,-0.7187 -0.17,-0.7187 -1.22,-0.7187 V 4.918 c 0.45,0.0312 1.33,0.0312 1.8,0.0312 0.43,0 1.56,0 1.93,-0.0312 v 0.4531 h -0.33 c -1.15,0 -1.18,0.1875 -1.18,0.75 z"
   id="path89"
   inkscape:connector-curvature="0"
   style="fill:#000000;stroke-width:0" />
<path
   d="m 336.92,9.168 0,0.1584 0,0.1533 -0.01,0.1485 0,0.144 -0.01,0.1399 -0.01,0.0685 -0.01,0.0674 -0.01,0.067 -0.01,0.066 -0.01,0.065 -0.02,0.065 -0.02,0.063 -0.02,0.063 -0.02,0.063 -0.02,0.062 -0.03,0.061 -0.03,0.061 -0.03,0.061 -0.04,0.06 -0.04,0.06 -0.04,0.059 -0.04,0.059 -0.05,0.059 -0.06,0.059 -0.05,0.059 -0.06,0.059 -0.07,0.058 c -0.56,0.5 -1.26,0.735 -1.96,0.735 -1.32,0 -2.32,-0.86 -2.32,-1.891 0,-0.4687 0.32,-0.6874 0.68,-0.6874 0.37,0 0.65,0.2656 0.65,0.6564 0,0.641 -0.58,0.641 -0.81,0.641 0.36,0.671 1.12,0.953 1.76,0.953 0.74,0 1.68,-0.594 1.68,-2.0317 V 9.0117 8.7305 7.1523 c 0,-1.5468 -1.18,-2.0781 -1.85,-2.0781 -0.78,0 -1.43,0.5781 -1.43,1.3438 0,2.0937 2.7,2.2812 3.28,2.3125 v 0.2812 c -3.21,-0.0469 -4.41,-1.375 -4.41,-2.5937 0,-1.2657 1.45,-1.6563 2.42,-1.6563 1.06,0 1.77,0.6406 2.08,1.3906 0.06,-0.7343 0.55,-1.3125 1.23,-1.3125 0.33,0 1.25,0.2188 1.25,1.5 v 0.875 h -0.34 v -0.875 c 0,-0.9062 -0.37,-1.0468 -0.61,-1.0468 -0.59,0 -0.59,0.8437 -0.59,1.0937 z"
   id="path91"
   inkscape:connector-curvature="0"
   style="fill:#000000;stroke-width:0" />
<path
   d="m 349.97,8.7773 0,0.1362 0,0.1302 0,0.1244 0,0.119 0,0.1137 0,0.1085 0,0.1036 0,0.099 -0.01,0.0945 0,0.0902 0,0.0861 -0.01,0.0823 0,0.079 -0.01,0.075 0,0.072 -0.01,0.068 -0.01,0.066 -0.01,0.064 -0.01,0.061 -0.01,0.058 -0.02,0.057 -0.01,0.055 -0.02,0.053 -0.02,0.052 -0.02,0.051 -0.02,0.05 -0.02,0.049 -0.03,0.048 -0.02,0.048 -0.03,0.048 -0.03,0.048 -0.04,0.048 c -0.47,0.609 -1.2,0.719 -1.75,0.719 -1.31,0 -1.98,-0.953 -2.23,-1.578 -0.24,1.218 -1.09,1.578 -2.09,1.578 -1.54,0 -2.15,-1.328 -2.27,-1.641 h -0.02 v 1.641 l -2.15,-0.188 v -0.453 c 1.08,0 1.2,-0.109 1.2,-0.891 V 6.0898 c 0,-0.7187 -0.17,-0.7187 -1.2,-0.7187 V 4.918 c 0.4,0.0312 1.26,0.0312 1.7,0.0312 0.47,0 1.33,0 1.74,-0.0312 v 0.4531 c -1.02,0 -1.21,0 -1.21,0.7187 V 9.043 c 0,1.672 1.1,2.563 2.08,2.563 0.98,0 1.22,-0.813 1.22,-1.7818 V 6.0898 c 0,-0.7187 -0.19,-0.7187 -1.22,-0.7187 V 4.918 c 0.42,0.0312 1.28,0.0312 1.72,0.0312 0.47,0 1.33,0 1.73,-0.0312 v 0.4531 c -1.01,0 -1.2,0 -1.2,0.7187 V 9.043 c 0,1.672 1.09,2.563 2.08,2.563 0.98,0 1.2,-0.813 1.2,-1.7818 V 6.0898 c 0,-0.7187 -0.17,-0.7187 -1.2,-0.7187 V 4.918 c 0.4,0.0312 1.26,0.0312 1.72,0.0312 0.45,0 1.31,0 1.73,-0.0312 v 0.4531 c -0.8,0 -1.2,0 -1.22,0.4844 z"
   id="path93"
   inkscape:connector-curvature="0"
   style="fill:#000000;stroke-width:0" />
<path
   d="m 357.68,8.6055 0.02,0 0.01,0 0.02,0 0.01,0 0.01,1e-4 0.02,10e-5 0.01,2e-4 0.01,10e-5 0.02,3e-4 0.01,3e-4 0.01,4e-4 0.01,4e-4 0.01,6e-4 0.01,6e-4 0.01,7e-4 0.01,8e-4 0.01,9e-4 0.01,0.0011 0.01,0.0011 0.01,0.0013 0.01,0.003 0.02,0.0036 0.01,0.0043 0.01,0.0049 0.02,0.0057 0.01,0.0066 0.01,0.0074 0,0.0083 0.01,0.0093 0.01,0.0103 0,0.0115 0.01,0.0125 0,0.0138 0,0.015 0.01,0.008 0,0.0083 0,0.0087 0,0.009 0,0.0094 0,0.0097 0,0.0101 0,0.0104 0,0.0109 0,0.0112 0,0.0117 0,0.012 0,0.0124 0,0.0129 0,0.0132 0,0.0137 c 0,1.6097 -0.85,3.1097 -2.78,3.1097 -1.81,0 -3.2,-1.641 -3.2,-3.6097 0,-2.1093 1.61,-3.6406 3.38,-3.6406 1.89,0 2.6,1.7188 2.6,2.0469 0,0.0937 -0.07,0.1562 -0.17,0.1562 -0.12,0 -0.15,-0.0781 -0.18,-0.1562 -0.43,-1.3281 -1.49,-1.7031 -2.16,-1.7031 -0.66,0 -2.27,0.4531 -2.27,3.2031 v 0.2969 l 0.02,0.2968 c 0.12,2.4997 1.51,2.7817 1.97,2.7817 1.7,0 1.79,-2.2348 1.81,-2.7817 h -3.78 l -0.02,-0.2968 z"
   id="path95"
   inkscape:connector-curvature="0"
   style="fill:#000000;stroke-width:0" />
<path
   d="m 363.01,8.8711 0,0.1164 0,0.1207 -0.01,0.1247 0,0.1287 -0.01,0.1324 0,0.136 -0.02,0.2821 -0.03,0.2949 -0.03,0.305 -0.04,0.316 -0.05,0.324 -0.06,0.332 -0.08,0.338 -0.08,0.342 -0.1,0.346 -0.11,0.348 -0.06,0.174 -0.07,0.175 -0.07,0.174 -0.07,0.174 -0.08,0.174 -0.08,0.173 c -0.94,1.907 -2.25,2.938 -2.42,2.938 -0.06,0 -0.14,-0.031 -0.14,-0.125 0,-0.047 0,-0.078 0.26,-0.36 1.6,-1.593 2.49,-4.218 2.49,-7.4683 0,-3.0781 -0.75,-5.7344 -2.6,-7.6094 -0.15,-0.1406 -0.15,-0.1718 -0.15,-0.2187 0,-0.09376 0.08,-0.12501 0.14,-0.12501 0.2,0 1.51,1.14061 2.3,2.70311 0.79,1.6094 1.17,3.3281 1.17,5.2344 z"
   id="path97"
   inkscape:connector-curvature="0"
   style="fill:#000000;stroke-width:0" />
</g></svg>
