<?xml version="1.0" encoding="UTF-8" standalone="no"?>
<svg
   xmlns:dc="http://purl.org/dc/elements/1.1/"
   xmlns:cc="http://creativecommons.org/ns#"
   xmlns:rdf="http://www.w3.org/1999/02/22-rdf-syntax-ns#"
   xmlns:svg="http://www.w3.org/2000/svg"
   xmlns="http://www.w3.org/2000/svg"
   xmlns:sodipodi="http://sodipodi.sourceforge.net/DTD/sodipodi-0.dtd"
   xmlns:inkscape="http://www.inkscape.org/namespaces/inkscape"
   version="1.1"
   id="body"
   width="285.34973"
   height="43.988972"
   viewBox="0 0 0.39631907 0.061095794"
   preserveAspectRatio="none"
   inkscape:version="0.48.3.1 r9886"
   sodipodi:docname="ch2-Z-G-76.svg">
  <metadata
     id="metadata71">
    <rdf:RDF>
      <cc:Work
         rdf:about="">
        <dc:format>image/svg+xml</dc:format>
        <dc:type
           rdf:resource="http://purl.org/dc/dcmitype/StillImage" />
      </cc:Work>
    </rdf:RDF>
  </metadata>
  <defs
     id="defs69" />
  <sodipodi:namedview
     pagecolor="#ffffff"
     bordercolor="#666666"
     borderopacity="1"
     objecttolerance="10"
     gridtolerance="10"
     guidetolerance="10"
     inkscape:pageopacity="0"
     inkscape:pageshadow="2"
     inkscape:window-width="640"
     inkscape:window-height="480"
     id="namedview67"
     showgrid="false"
     inkscape:zoom="0.32777778"
     inkscape:cx="381.44532"
     inkscape:cy="459.71994"
     inkscape:window-x="0"
     inkscape:window-y="24"
     inkscape:window-maximized="0"
     inkscape:current-layer="body" />
  <title
     id="title3">SVG drawing</title>
  <desc
     id="desc5">This was produced by version 4.4 of GNU libplot, a free library for exporting 2-D vector graphics.</desc>
  <g
     id="content"
     transform="matrix(0.0017361,0,0,-0.0017361,-0.00146483,0.06136706)"
     xml:space="preserve"
     stroke-miterlimit="10.433"
     font-style="normal"
     font-variant="normal"
     font-weight="normal"
     font-stretch="normal"
     font-size-adjust="none"
     letter-spacing="normal"
     word-spacing="normal"
     style="font-style:normal;font-variant:normal;font-weight:normal;font-stretch:normal;letter-spacing:normal;word-spacing:normal;text-anchor:start;fill:none;stroke:#000000;stroke-linecap:butt;stroke-linejoin:miter;stroke-miterlimit:10.43299961;stroke-opacity:1;stroke-dasharray:none;stroke-dashoffset:0">
<path
   d="M 8.3711,28.559 8.3251,28.549 8.2808,28.538 8.2382,28.525 8.1973,28.511 8.1581,28.495 8.1205,28.478 8.0846,28.46 8.0503,28.441 8.0176,28.42 7.9865,28.399 7.9569,28.376 7.9289,28.353 7.9024,28.328 7.8775,28.303 7.854,28.277 7.832,28.25 7.8115,28.223 7.7925,28.195 7.7748,28.166 7.7586,28.137 7.7438,28.108 7.7303,28.078 7.7183,28.048 7.7075,28.018 7.6981,27.988 7.69,27.957 l -0.0068,-0.03 -0.0055,-0.03 -0.0043,-0.03 -0.003,-0.03 -0.0018,-0.03 -6e-4,-0.03 c 0,-0.375 0.3125,-0.5 0.5312,-0.5 0.4688,0 0.8125,0.407 0.8125,0.844 0,0.656 -0.7656,0.969 -1.4375,0.969 -0.9687,0 -1.5,-0.953 -1.6406,-1.266 -0.375,1.203 -1.3594,1.266 -1.6406,1.266 -1.625,0 -2.4844,-2.094 -2.4844,-2.438 0,-0.062 0.0625,-0.14 0.1719,-0.14 0.125,0 0.1562,0.093 0.1875,0.156 0.5468,1.766 1.6093,2.094 2.0781,2.094 0.7031,0 0.8594,-0.657 0.8594,-1.047 0,-0.344 -0.0938,-0.719 -0.2969,-1.469 L 4.2773,24.059 C 4.0273,23.105 3.5742,22.23 2.7305,22.23 c -0.0782,0 -0.4688,0 -0.8125,0.204 0.5781,0.125 0.7031,0.593 0.7031,0.781 0,0.328 -0.2344,0.515 -0.5469,0.515 -0.375,0 -0.7969,-0.343 -0.7969,-0.843 0,-0.672 0.75,-0.969 1.4375,-0.969 0.7657,0 1.2969,0.594 1.6407,1.25 0.25,-0.938 1.0468,-1.25 1.6406,-1.25 1.6094,0 2.4687,2.078 2.4687,2.422 0,0.094 -0.0625,0.156 -0.1562,0.156 -0.1406,0 -0.1563,-0.078 -0.2031,-0.219 C 7.668,22.887 6.7461,22.23 6.043,22.23 c -0.5625,0 -0.8594,0.422 -0.8594,1.063 0,0.359 0.0625,0.609 0.3125,1.656 l 0.5625,2.156 c 0.2344,0.954 0.7656,1.657 1.5,1.657 0.0312,0 0.4844,0 0.8125,-0.203 z"
   id="path9"
   inkscape:connector-curvature="0"
   style="fill:#000000;stroke-width:0" />
<path
   d="m 14.723,30.109 -0.003,0.123 -0.008,0.121 -0.013,0.12 -0.018,0.118 -0.023,0.116 -0.028,0.115 -0.033,0.112 -0.037,0.11 -0.042,0.107 -0.046,0.105 -0.05,0.102 -0.054,0.099 -0.059,0.096 -0.062,0.093 -0.066,0.089 -0.07,0.085 -0.073,0.082 -0.076,0.077 -0.08,0.074 -0.083,0.069 -0.086,0.064 -0.089,0.06 -0.092,0.055 -0.095,0.05 -0.097,0.044 -0.099,0.039 -0.102,0.034 -0.105,0.028 -0.106,0.022 -0.108,0.016 -0.11,0.01 -0.112,0.003 c -0.532,0 -1.016,-0.188 -1.422,-0.578 v 2.187 C 11.41,34.078 11.769,34 12.129,34 c 1.375,0 2.156,1.016 2.156,1.172 0,0.062 -0.031,0.125 -0.109,0.125 -0.016,0 -0.047,0 -0.094,-0.047 -0.219,-0.094 -0.766,-0.312 -1.516,-0.312 -0.453,0 -0.968,0.078 -1.484,0.312 -0.094,0.031 -0.109,0.031 -0.141,0.031 -0.109,0 -0.109,-0.093 -0.109,-0.265 v -3.313 c 0,-0.203 0,-0.281 0.156,-0.281 0.078,0 0.11,0.031 0.141,0.094 0.125,0.187 0.547,0.781 1.437,0.781 0.594,0 0.86,-0.516 0.953,-0.719 0.188,-0.406 0.204,-0.844 0.204,-1.39 0,-0.391 0,-1.063 -0.266,-1.532 -0.266,-0.437 -0.688,-0.734 -1.188,-0.734 -0.828,0 -1.453,0.594 -1.64,1.25 0.031,0 0.062,-0.016 0.187,-0.016 0.36,0 0.547,0.282 0.547,0.547 0,0.266 -0.187,0.547 -0.547,0.547 -0.156,0 -0.547,-0.078 -0.547,-0.594 0,-0.953 0.766,-2.047 2.016,-2.047 1.297,0 2.438,1.079 2.438,2.5 z"
   id="path11"
   inkscape:connector-curvature="0"
   style="fill:#000000;stroke-width:0" />
<path
   d="m 29.797,25.73 0.053,0.001 0.052,0 0.051,0.002 0.026,0.001 0.024,10e-4 0.025,0.002 0.024,0.003 0.023,0.003 0.023,0.004 0.023,0.004 0.021,0.006 0.021,0.006 0.021,0.007 0.019,0.007 0.018,0.009 0.018,0.01 0.017,0.011 0.015,0.012 0.015,0.013 0.013,0.015 0.012,0.015 0.011,0.018 0.005,0.009 0.005,0.009 0.004,0.01 0.004,0.01 0.003,0.011 0.004,0.011 0.003,0.011 0.002,0.012 0.002,0.012 0.002,0.013 0.002,0.013 0.001,0.014 0,0.014 0,0.014 c 0,0.328 -0.281,0.328 -0.562,0.328 h -8.594 c -0.265,0 -0.562,0 -0.562,-0.328 0,-0.313 0.297,-0.313 0.562,-0.313 z"
   id="path13"
   inkscape:connector-curvature="0"
   style="fill:#000000;stroke-width:0" />
<path
   d="m 39.844,32.262 0,0.016 0,0.016 0,0.016 0,0.015 0,0.015 0,0.014 -10e-4,0.014 0,0.013 0,0.013 0,0.012 -0.001,0.012 0,0.012 -10e-4,0.011 0,0.011 -10e-4,0.01 -0.001,0.01 -10e-4,0.009 -10e-4,0.01 -0.001,0.008 -0.002,0.009 -0.001,0.008 -0.002,0.008 -0.002,0.007 -0.002,0.007 -0.004,0.014 -0.005,0.011 -0.006,0.011 -0.007,0.01 -0.008,0.009 -0.009,0.007 -0.01,0.007 -0.011,0.006 -0.012,0.005 -0.013,0.004 -0.014,0.004 -0.008,0.001 -0.008,0.002 -0.008,0.001 -0.009,10e-4 -0.009,10e-4 -0.01,0.001 -0.01,10e-4 -0.01,0 -0.011,10e-4 -0.011,0 -0.011,0.001 -0.012,0 -0.012,0 -0.013,0 -0.013,10e-4 -0.013,0 -0.014,0 -0.015,0 c -0.39,-0.422 -1.187,-1.016 -2.812,-1.016 v -0.453 c 0.359,0 1.156,0 2.031,0.406 v -8.281 c 0,-0.563 -0.047,-0.766 -1.453,-0.766 h -0.485 v -0.453 c 0.422,0.031 1.969,0.031 2.485,0.031 0.531,0 2.062,0 2.484,-0.031 v 0.453 h -0.484 c -1.406,0 -1.453,0.203 -1.453,0.766 z"
   id="path15"
   inkscape:connector-curvature="0"
   style="fill:#000000;stroke-width:0" />
<line
   x1="0.83983999"
   y1="15.273"
   x2="43.07"
   y2="15.273"
   id="line17"
   style="stroke-width:0.63800001" />
<path
   d="M 8.3711,6.8398 8.3251,6.8302 8.2808,6.819 8.2382,6.8063 8.1973,6.7922 8.1581,6.7766 8.1205,6.7597 8.0846,6.7415 8.0503,6.7222 8.0176,6.7016 7.9865,6.68 7.9569,6.6574 7.9289,6.6338 7.9024,6.6094 7.8775,6.5841 7.854,6.558 7.832,6.5312 7.8115,6.5038 7.7925,6.4758 7.7748,6.4473 7.7586,6.4184 7.7438,6.389 7.7303,6.3594 7.7183,6.3294 7.7075,6.2993 7.6981,6.269 7.69,6.2387 7.6832,6.2083 7.6777,6.178 7.6734,6.1478 7.6704,6.1178 7.6686,6.0881 7.668,6.0586 c 0,-0.375 0.3125,-0.5 0.5312,-0.5 0.4688,0 0.8125,0.4062 0.8125,0.8437 0,0.6563 -0.7656,0.9688 -1.4375,0.9688 -0.9687,0 -1.5,-0.9531 -1.6406,-1.2656 -0.375,1.2031 -1.3594,1.2656 -1.6406,1.2656 -1.625,0 -2.4844,-2.0938 -2.4844,-2.4375 0,-0.0625 0.0625,-0.1406 0.1719,-0.1406 0.125,0 0.1562,0.0937 0.1875,0.1562 0.5468,1.7656 1.6093,2.0938 2.0781,2.0938 0.7031,0 0.8594,-0.6563 0.8594,-1.0469 0,-0.3438 -0.0938,-0.7188 -0.2969,-1.4688 L 4.2773,2.3398 C 4.0273,1.3867 3.5742,0.51172 2.7305,0.51172 c -0.0782,0 -0.4688,0 -0.8125,0.20312 0.5781,0.125 0.7031,0.59376 0.7031,0.78126 0,0.3281 -0.2344,0.5156 -0.5469,0.5156 -0.375,0 -0.7969,-0.3437 -0.7969,-0.8437 0,-0.67191 0.75,-0.96878 1.4375,-0.96878 0.7657,0 1.2969,0.59375 1.6407,1.24998 0.25,-0.93748 1.0468,-1.24998 1.6406,-1.24998 1.6094,0 2.4687,2.07808 2.4687,2.42188 0,0.0937 -0.0625,0.1562 -0.1562,0.1562 C 8.168,2.7773 8.1523,2.6992 8.1055,2.5586 7.668,1.168 6.7461,0.51172 6.043,0.51172 c -0.5625,0 -0.8594,0.42187 -0.8594,1.06248 0,0.3594 0.0625,0.6094 0.3125,1.6563 l 0.5625,2.1562 c 0.2344,0.9531 0.7656,1.6563 1.5,1.6563 0.0312,0 0.4844,0 0.8125,-0.2032 z"
   id="path19"
   inkscape:connector-curvature="0"
   style="fill:#000000;stroke-width:0" />
<path
   d="m 11.129,5.8203 1.172,1.1563 c 1.75,1.5312 2.422,2.1406 2.422,3.2504 0,1.265 -1.016,2.171 -2.375,2.171 -1.25,0 -2.079,-1.031 -2.079,-2.031 0,-0.6248 0.547,-0.6248 0.594,-0.6248 0.188,0 0.578,0.1406 0.578,0.5938 0,0.297 -0.203,0.578 -0.593,0.578 -0.094,0 -0.11,0 -0.141,0 0.25,0.719 0.859,1.125 1.5,1.125 1.016,0 1.5,-0.891 1.5,-1.812 0,-0.8911 -0.563,-1.7817 -1.172,-2.4692 L 10.394,5.3672 C 10.269,5.2578 10.269,5.2266 10.269,4.9609 h 4.141 l 0.313,1.9375 H 14.441 C 14.379,6.5703 14.301,6.0703 14.191,5.9141 14.113,5.8203 13.379,5.8203 13.129,5.8203 z"
   id="path21"
   inkscape:connector-curvature="0"
   style="fill:#000000;stroke-width:0" />
<path
   d="m 29.797,4.0117 0.053,10e-5 0.052,5e-4 0.051,0.0015 0.026,0.0012 0.024,0.0016 0.025,0.0021 0.024,0.0026 0.023,0.0031 0.023,0.0038 0.023,0.0045 0.021,0.0052 0.021,0.006 0.021,0.0069 0.019,0.0078 0.018,0.0087 0.018,0.0098 0.017,0.0109 0.015,0.012 0.015,0.0133 0.013,0.0145 0.012,0.0158 0.011,0.0171 0.005,0.0092 0.005,0.0094 0.004,0.0099 0.004,0.0102 0.003,0.0107 0.004,0.011 0.003,0.0114 0.002,0.0118 0.002,0.0123 0.002,0.0126 0.002,0.0131 0.001,0.0135 0,0.014 0,0.0144 c 0,0.3281 -0.281,0.3281 -0.562,0.3281 h -8.594 c -0.265,0 -0.562,0 -0.562,-0.3281 0,-0.3125 0.297,-0.3125 0.562,-0.3125 z"
   id="path23"
   inkscape:connector-curvature="0"
   style="fill:#000000;stroke-width:0" />
<path
   d="m 39.844,10.543 0,0.017 0,0.016 0,0.015 0,0.015 0,0.015 0,0.014 -10e-4,0.014 0,0.013 0,0.013 0,0.013 -0.001,0.011 0,0.012 -10e-4,0.011 0,0.011 -10e-4,0.01 -0.001,0.01 -10e-4,0.01 -10e-4,0.009 -0.001,0.009 -0.002,0.008 -0.001,0.008 -0.002,0.008 -0.002,0.007 -0.002,0.008 -0.004,0.013 -0.005,0.012 -0.006,0.011 -0.007,0.009 -0.008,0.009 -0.009,0.008 -0.01,0.006 -0.011,0.006 -0.012,0.005 -0.013,0.004 -0.014,0.004 -0.008,0.002 -0.008,10e-4 -0.008,10e-4 -0.009,0.001 -0.009,10e-4 -0.01,10e-4 -0.01,10e-4 -0.01,0.001 -0.011,0 -0.011,10e-4 -0.011,0 -0.012,0 -0.012,10e-4 -0.013,0 -0.013,0 -0.013,0 -0.014,0 -0.015,0 C 39.141,10.496 38.344,9.9023 36.719,9.9023 V 9.4492 c 0.359,0 1.156,0 2.031,0.4063 V 1.5742 c 0,-0.5625 -0.047,-0.76561 -1.453,-0.76561 H 36.812 V 0.35547 c 0.422,0.03125 1.969,0.03125 2.485,0.03125 0.531,0 2.062,0 2.484,-0.03125 v 0.45312 h -0.484 c -1.406,0 -1.453,0.20311 -1.453,0.76561 z"
   id="path25"
   inkscape:connector-curvature="0"
   style="fill:#000000;stroke-width:0" />
<path
   d="m 59.43,16.445 0.041,0 0.043,0.001 0.043,10e-4 0.022,0.001 0.021,0.002 0.021,0.002 0.022,0.002 0.02,0.003 0.021,0.003 0.02,0.004 0.02,0.005 0.019,0.005 0.019,0.006 0.018,0.007 0.017,0.008 0.016,0.009 0.016,0.01 0.015,0.011 0.014,0.012 0.013,0.013 0.011,0.014 0.006,0.008 0.005,0.007 0.005,0.009 0.004,0.008 0.005,0.009 0.003,0.009 0.004,0.01 0.003,0.01 0.003,0.01 0.003,0.011 0.002,0.011 0.001,0.011 0.002,0.012 0.001,0.012 0,0.013 10e-4,0.013 c 0,0.296 -0.266,0.296 -0.5,0.296 h -9.375 c -0.219,0 -0.5,0 -0.5,-0.281 0,-0.297 0.265,-0.297 0.5,-0.297 z"
   id="path27"
   inkscape:connector-curvature="0"
   style="fill:#000000;stroke-width:0" />
<path
   d="m 59.43,13.477 0.041,0 0.043,0 0.043,0.002 0.022,0.001 0.021,10e-4 0.021,0.002 0.022,0.003 0.02,0.003 0.021,0.003 0.02,0.004 0.02,0.005 0.019,0.006 0.019,0.007 0.018,0.007 0.017,0.008 0.016,0.01 0.016,0.01 0.015,0.011 0.014,0.013 0.013,0.014 0.011,0.015 0.006,0.008 0.005,0.008 0.005,0.009 0.004,0.009 0.005,0.009 0.003,0.01 0.004,0.01 0.003,0.01 0.003,0.011 0.003,0.012 0.002,0.011 0.001,0.012 0.002,0.013 0.001,0.012 0,0.014 10e-4,0.013 c 0,0.297 -0.266,0.297 -0.5,0.297 h -9.375 c -0.219,0 -0.5,0 -0.5,-0.281 0,-0.312 0.265,-0.312 0.5,-0.312 z"
   id="path29"
   inkscape:connector-curvature="0"
   style="fill:#000000;stroke-width:0" />
<path
   d="M 72.793,17.773 72.747,17.764 72.703,17.753 72.66,17.74 72.619,17.726 72.58,17.71 72.542,17.693 72.507,17.675 72.472,17.656 72.439,17.635 72.408,17.614 72.379,17.591 72.351,17.567 72.324,17.543 72.299,17.518 72.276,17.492 72.254,17.465 72.233,17.437 72.214,17.409 72.197,17.381 72.18,17.352 l -0.014,-0.029 -0.014,-0.03 -0.012,-0.03 -0.011,-0.03 -0.009,-0.03 -0.008,-0.031 -0.007,-0.03 -0.005,-0.03 -0.005,-0.031 -0.003,-0.03 -0.002,-0.029 0,-0.03 c 0,-0.375 0.312,-0.5 0.531,-0.5 0.469,0 0.813,0.406 0.813,0.844 0,0.656 -0.766,0.969 -1.438,0.969 -0.969,0 -1.5,-0.953 -1.641,-1.266 -0.375,1.203 -1.359,1.266 -1.64,1.266 -1.625,0 -2.485,-2.094 -2.485,-2.438 0,-0.062 0.063,-0.14 0.172,-0.14 0.125,0 0.157,0.093 0.188,0.156 0.547,1.765 1.609,2.094 2.078,2.094 0.703,0 0.859,-0.657 0.859,-1.047 0,-0.344 -0.093,-0.719 -0.297,-1.469 l -0.531,-2.188 c -0.25,-0.953 -0.703,-1.828 -1.547,-1.828 -0.078,0 -0.468,0 -0.812,0.203 0.578,0.125 0.703,0.594 0.703,0.782 0,0.328 -0.234,0.515 -0.547,0.515 -0.375,0 -0.797,-0.343 -0.797,-0.843 0,-0.672 0.75,-0.969 1.438,-0.969 0.765,0 1.297,0.594 1.64,1.25 0.25,-0.938 1.047,-1.25 1.641,-1.25 1.609,0 2.469,2.078 2.469,2.422 0,0.093 -0.063,0.156 -0.157,0.156 -0.14,0 -0.156,-0.078 -0.203,-0.219 -0.437,-1.39 -1.359,-2.047 -2.062,-2.047 -0.563,0 -0.86,0.422 -0.86,1.063 0,0.359 0.063,0.609 0.313,1.656 l 0.562,2.156 c 0.235,0.953 0.766,1.657 1.5,1.657 0.032,0 0.485,0 0.813,-0.204 z"
   id="path31"
   inkscape:connector-curvature="0"
   style="fill:#000000;stroke-width:0" />
<path
   d="m 77.363,21.793 0.086,0.031 0.084,0.033 0.082,0.036 0.08,0.038 0.078,0.041 0.077,0.044 0.074,0.045 0.072,0.048 0.07,0.051 0.068,0.052 0.066,0.054 0.063,0.057 0.06,0.058 0.059,0.06 0.055,0.062 0.053,0.063 0.051,0.066 0.047,0.067 0.045,0.068 0.041,0.07 0.039,0.071 0.036,0.072 0.033,0.074 0.029,0.075 0.027,0.076 0.023,0.077 0.019,0.078 0.016,0.079 0.013,0.079 0.009,0.081 0.006,0.081 0.002,0.082 c 0,0.922 -0.985,1.547 -2.047,1.547 -1.125,0 -1.984,-0.672 -1.984,-1.532 0,-0.359 0.25,-0.578 0.578,-0.578 0.343,0 0.562,0.25 0.562,0.578 0,0.547 -0.515,0.547 -0.687,0.547 0.343,0.547 1.078,0.703 1.484,0.703 0.453,0 1.063,-0.25 1.063,-1.25 0,-0.14 -0.016,-0.781 -0.313,-1.281 -0.328,-0.531 -0.703,-0.562 -0.984,-0.578 -0.094,-0.016 -0.36,-0.031 -0.438,-0.031 -0.094,-0.016 -0.172,-0.016 -0.172,-0.141 0,-0.109 0.078,-0.109 0.266,-0.109 h 0.5 c 0.906,0 1.328,-0.766 1.328,-1.86 0,-1.515 -0.781,-1.843 -1.266,-1.843 -0.484,0 -1.312,0.187 -1.703,0.859 0.391,-0.063 0.735,0.187 0.735,0.609 0,0.407 -0.297,0.625 -0.625,0.625 -0.266,0 -0.625,-0.156 -0.625,-0.656 0,-1.016 1.031,-1.75 2.25,-1.75 1.359,0 2.375,1.016 2.375,2.156 0,0.922 -0.703,1.782 -1.86,2.016 z"
   id="path33"
   inkscape:connector-curvature="0"
   style="fill:#000000;stroke-width:0" />
<path
   d="m 90.094,14.961 h 4.39 c 0.219,0 0.5,0 0.5,0.281 0,0.313 -0.265,0.313 -0.5,0.313 h -4.39 v 4.375 c 0,0.234 0,0.515 -0.282,0.515 C 89.5,20.445 89.5,20.18 89.5,19.93 v -4.375 h -4.391 c -0.218,0 -0.5,0 -0.5,-0.297 0,-0.297 0.266,-0.297 0.5,-0.297 H 89.5 V 10.57 c 0,-0.218 0,-0.5 0.297,-0.5 0.297,0 0.297,0.266 0.297,0.5 z"
   id="path35"
   inkscape:connector-curvature="0"
   style="fill:#000000;stroke-width:0" />
<path
   d="m 106.96,17.773 -0.04,-0.009 -0.05,-0.011 -0.04,-0.013 -0.04,-0.014 -0.04,-0.016 -0.04,-0.017 -0.03,-0.018 -0.04,-0.019 -0.03,-0.021 -0.03,-0.021 -0.03,-0.023 -0.03,-0.024 -0.02,-0.024 -0.03,-0.025 -0.02,-0.026 -0.02,-0.027 -0.02,-0.028 -0.02,-0.028 -0.02,-0.028 -0.02,-0.029 -0.01,-0.029 -0.02,-0.03 -0.01,-0.03 -0.01,-0.03 -0.01,-0.03 -0.01,-0.031 0,-0.03 -0.01,-0.03 0,-0.031 -0.01,-0.03 0,-0.029 0,-0.03 c 0,-0.375 0.31,-0.5 0.53,-0.5 0.47,0 0.82,0.406 0.82,0.844 0,0.656 -0.77,0.969 -1.44,0.969 -0.97,0 -1.5,-0.953 -1.64,-1.266 -0.38,1.203 -1.36,1.266 -1.64,1.266 -1.63,0 -2.49,-2.094 -2.49,-2.438 0,-0.062 0.06,-0.14 0.17,-0.14 0.13,0 0.16,0.093 0.19,0.156 0.55,1.765 1.61,2.094 2.08,2.094 0.7,0 0.86,-0.657 0.86,-1.047 0,-0.344 -0.09,-0.719 -0.3,-1.469 l -0.53,-2.188 c -0.25,-0.953 -0.7,-1.828 -1.55,-1.828 -0.07,0 -0.46,0 -0.81,0.203 0.58,0.125 0.7,0.594 0.7,0.782 0,0.328 -0.23,0.515 -0.54,0.515 -0.38,0 -0.799,-0.343 -0.799,-0.843 0,-0.672 0.749,-0.969 1.439,-0.969 0.76,0 1.3,0.594 1.64,1.25 0.25,-0.938 1.05,-1.25 1.64,-1.25 1.61,0 2.47,2.078 2.47,2.422 0,0.093 -0.06,0.156 -0.16,0.156 -0.14,0 -0.15,-0.078 -0.2,-0.219 -0.44,-1.39 -1.36,-2.047 -2.06,-2.047 -0.57,0 -0.86,0.422 -0.86,1.063 0,0.359 0.06,0.609 0.31,1.656 l 0.56,2.156 c 0.24,0.953 0.77,1.657 1.5,1.657 0.03,0 0.49,0 0.81,-0.204 z"
   id="path37"
   inkscape:connector-curvature="0"
   style="fill:#000000;stroke-width:0" />
<path
   d="m 111.39,11.227 0,0.085 0,0.085 -0.01,0.082 0,0.081 -0.01,0.08 -0.01,0.077 -0.01,0.076 -0.02,0.074 -0.01,0.072 -0.02,0.069 -0.02,0.068 -0.02,0.065 -0.02,0.063 -0.02,0.06 -0.03,0.058 -0.03,0.055 -0.03,0.052 -0.03,0.05 -0.04,0.047 -0.03,0.044 -0.04,0.041 -0.04,0.037 -0.04,0.035 -0.05,0.031 -0.04,0.028 -0.05,0.024 -0.05,0.021 -0.05,0.018 -0.06,0.013 -0.05,0.01 -0.06,0.006 -0.06,0.002 c -0.5,0 -0.77,-0.422 -0.77,-0.766 0,-0.359 0.25,-0.781 0.78,-0.781 0.22,0 0.39,0.063 0.53,0.203 0.04,0.031 0.05,0.031 0.07,0.031 0.03,0 0.03,-0.218 0.03,-0.296 0,-0.532 -0.1,-1.5629 -1.02,-2.5942 -0.17,-0.1875 -0.17,-0.2187 -0.17,-0.25 0,-0.0781 0.08,-0.1562 0.16,-0.1562 0.12,0 1.34,1.1718 1.34,3.0004 z"
   id="path39"
   inkscape:connector-curvature="0"
   style="fill:#000000;stroke-width:0" />
<path
   d="m 123.15,14.992 0,0.145 0.01,0.144 0.01,0.142 0.01,0.142 0.02,0.139 0.02,0.138 0.02,0.136 0.03,0.133 0.03,0.131 0.04,0.128 0.04,0.125 0.04,0.121 0.05,0.118 0.04,0.114 0.06,0.111 0.05,0.105 0.07,0.102 0.06,0.096 0.07,0.092 0.07,0.086 0.07,0.081 0.08,0.075 0.08,0.069 0.09,0.063 0.09,0.056 0.09,0.05 0.09,0.042 0.1,0.036 0.1,0.028 0.11,0.02 0.11,0.012 0.11,0.005 c 0.13,0 0.16,0 0.22,-0.016 -0.12,-0.063 -0.37,-0.156 -0.37,-0.578 0,-0.469 0.35,-0.641 0.6,-0.641 0.33,0 0.65,0.203 0.65,0.641 0,0.469 -0.43,0.922 -1.11,0.922 -1.36,0 -1.82,-1.469 -1.91,-1.766 h -0.02 v 1.766 l -2.14,-0.188 v -0.453 c 1.1,0 1.22,-0.109 1.22,-0.891 v -4.312 c 0,-0.719 -0.17,-0.719 -1.22,-0.719 v -0.453 c 0.46,0.031 1.33,0.031 1.8,0.031 0.44,0 1.56,0 1.94,-0.031 v 0.453 h -0.33 c -1.16,0 -1.19,0.188 -1.19,0.75 z"
   id="path41"
   inkscape:connector-curvature="0"
   style="fill:#000000;stroke-width:0" />
<path
   d="m 132.66,14.977 0.01,0 0.02,0 0.01,0 0.02,0 0.01,0 0.01,0 0.02,0 0.01,0 0.01,0 0.02,10e-4 0.01,0 0.01,10e-4 0.01,0 0.01,0.001 0.01,0 0.01,10e-4 0.01,10e-4 0.01,0.001 0.01,10e-4 0.01,0.002 0.01,0.003 0.02,0.003 0.01,0.004 0.01,0.005 0.01,0.006 0.01,0.007 0.01,0.007 0.01,0.008 0.01,0.01 0,0.01 0.01,0.011 0,0.013 0.01,0.014 0,0.015 0,0.008 0,0.008 0,0.009 0.01,0.009 0,0.009 0,0.01 0,0.01 0,0.01 0,0.011 0,0.012 0,0.011 0,0.012 0,0.013 0,0.012 0,0.014 0,0.013 c 0,1.61 -0.86,3.11 -2.78,3.11 -1.81,0 -3.2,-1.641 -3.2,-3.61 0,-2.109 1.61,-3.64 3.37,-3.64 1.89,0 2.61,1.719 2.61,2.047 0,0.093 -0.08,0.156 -0.17,0.156 -0.13,0 -0.16,-0.078 -0.19,-0.156 -0.42,-1.328 -1.48,-1.703 -2.15,-1.703 -0.66,0 -2.27,0.453 -2.27,3.203 v 0.297 l 0.02,0.296 c 0.12,2.5 1.51,2.782 1.96,2.782 1.71,0 1.8,-2.235 1.82,-2.782 h -3.78 l -0.02,-0.296 z"
   id="path43"
   inkscape:connector-curvature="0"
   style="fill:#000000;stroke-width:0" />
<path
   d="m 144.89,15.148 0,0.137 0,0.13 0,0.124 0,0.119 0,0.114 0,0.108 0,0.104 0,0.099 -0.01,0.094 0,0.091 0,0.086 -0.01,0.082 0,0.079 -0.01,0.075 -0.01,0.072 0,0.068 -0.01,0.066 -0.01,0.064 -0.01,0.061 -0.02,0.058 -0.01,0.057 -0.02,0.055 -0.01,0.053 -0.02,0.052 -0.02,0.051 -0.02,0.05 -0.03,0.049 -0.02,0.048 -0.03,0.048 -0.03,0.048 -0.03,0.048 -0.03,0.048 c -0.47,0.609 -1.2,0.719 -1.75,0.719 -1.31,0 -1.98,-0.953 -2.23,-1.578 -0.24,1.218 -1.1,1.578 -2.1,1.578 -1.53,0 -2.14,-1.328 -2.26,-1.641 h -0.02 v 1.641 l -2.15,-0.188 v -0.453 c 1.07,0 1.2,-0.109 1.2,-0.891 v -4.312 c 0,-0.719 -0.17,-0.719 -1.2,-0.719 v -0.453 c 0.4,0.031 1.26,0.031 1.7,0.031 0.47,0 1.33,0 1.73,-0.031 v 0.453 c -1.01,0 -1.2,0 -1.2,0.719 v 2.953 c 0,1.672 1.09,2.563 2.08,2.563 0.98,0 1.22,-0.813 1.22,-1.782 v -3.734 c 0,-0.719 -0.19,-0.719 -1.22,-0.719 v -0.453 c 0.42,0.031 1.28,0.031 1.72,0.031 0.47,0 1.33,0 1.73,-0.031 v 0.453 c -1.01,0 -1.2,0 -1.2,0.719 v 2.953 c 0,1.672 1.09,2.563 2.08,2.563 0.98,0 1.2,-0.813 1.2,-1.782 v -3.734 c 0,-0.719 -0.17,-0.719 -1.2,-0.719 v -0.453 c 0.4,0.031 1.26,0.031 1.72,0.031 0.45,0 1.31,0 1.73,-0.031 v 0.453 c -0.8,0 -1.2,0 -1.22,0.485 z"
   id="path45"
   inkscape:connector-curvature="0"
   style="fill:#000000;stroke-width:0" />
<path
   d="m 152.65,15.539 -0.01,0.159 0,0.153 0,0.148 -0.01,0.144 -0.01,0.14 0,0.069 -0.01,0.067 -0.01,0.067 -0.01,0.066 -0.02,0.065 -0.01,0.065 -0.02,0.063 -0.02,0.063 -0.02,0.063 -0.03,0.062 -0.02,0.061 -0.03,0.061 -0.04,0.061 -0.03,0.06 -0.04,0.06 -0.04,0.059 -0.05,0.06 -0.05,0.059 -0.05,0.058 -0.06,0.059 -0.06,0.059 -0.06,0.058 c -0.56,0.5 -1.26,0.735 -1.97,0.735 -1.31,0 -2.31,-0.86 -2.31,-1.891 0,-0.469 0.31,-0.687 0.67,-0.687 0.38,0 0.66,0.265 0.66,0.656 0,0.641 -0.58,0.641 -0.81,0.641 0.36,0.671 1.12,0.953 1.76,0.953 0.74,0 1.67,-0.594 1.67,-2.032 v -0.64 -0.281 -1.579 c 0,-1.546 -1.17,-2.078 -1.84,-2.078 -0.78,0 -1.44,0.578 -1.44,1.344 0,2.094 2.71,2.281 3.28,2.313 v 0.281 c -3.2,-0.047 -4.4,-1.375 -4.4,-2.594 0,-1.266 1.45,-1.656 2.42,-1.656 1.06,0 1.77,0.64 2.08,1.39 0.06,-0.734 0.54,-1.312 1.23,-1.312 0.33,0 1.25,0.219 1.25,1.5 v 0.875 h -0.34 v -0.875 c 0,-0.906 -0.38,-1.047 -0.61,-1.047 -0.59,0 -0.59,0.844 -0.59,1.094 z"
   id="path47"
   inkscape:connector-curvature="0"
   style="fill:#000000;stroke-width:0" />
<path
   d="m 157.07,21.086 0,0.038 0,0.037 0,0.038 -0.01,0.036 -0.01,0.037 -0.01,0.035 -0.01,0.036 -0.01,0.034 -0.02,0.034 -0.02,0.033 -0.01,0.032 -0.02,0.031 -0.02,0.03 -0.03,0.029 -0.02,0.028 -0.03,0.027 -0.02,0.026 -0.03,0.024 -0.03,0.024 -0.03,0.021 -0.03,0.021 -0.04,0.019 -0.03,0.017 -0.03,0.016 -0.04,0.014 -0.04,0.013 -0.03,0.01 -0.04,0.009 -0.04,0.007 -0.04,0.005 -0.04,0.004 -0.05,0.001 c -0.4,0 -0.76,-0.329 -0.76,-0.75 0,-0.485 0.39,-0.782 0.76,-0.782 0.5,0 0.78,0.407 0.78,0.766 z"
   id="path49"
   inkscape:connector-curvature="0"
   style="fill:#000000;stroke-width:0" />
<path
   d="m 154.89,18.117 v -0.453 c 1.01,0 1.15,-0.094 1.15,-0.875 v -4.328 c 0,-0.719 -0.17,-0.719 -1.2,-0.719 v -0.453 c 0.44,0.031 1.2,0.031 1.66,0.031 0.18,0 1.1,0 1.64,-0.031 v 0.453 c -1.04,0 -1.1,0.094 -1.1,0.703 v 5.86 z"
   id="path51"
   inkscape:connector-curvature="0"
   style="fill:#000000;stroke-width:0" />
<path
   d="m 165.72,15.148 0,0.137 0,0.13 0,0.124 0,0.119 0,0.114 0,0.108 0,0.104 -0.01,0.099 0,0.094 0,0.091 -0.01,0.086 0,0.082 -0.01,0.079 0,0.075 -0.01,0.072 -0.01,0.068 -0.01,0.066 -0.01,0.064 -0.01,0.061 -0.01,0.058 -0.02,0.057 -0.01,0.055 -0.02,0.053 -0.02,0.052 -0.02,0.051 -0.02,0.05 -0.03,0.049 -0.02,0.048 -0.03,0.048 -0.03,0.048 -0.03,0.048 -0.04,0.048 c -0.45,0.609 -1.2,0.719 -1.75,0.719 -1.53,0 -2.14,-1.328 -2.26,-1.641 h -0.02 v 1.641 l -2.15,-0.188 v -0.453 c 1.07,0 1.2,-0.109 1.2,-0.891 v -4.312 c 0,-0.719 -0.17,-0.719 -1.2,-0.719 v -0.453 c 0.4,0.031 1.26,0.031 1.7,0.031 0.47,0 1.33,0 1.73,-0.031 v 0.453 c -1.01,0 -1.2,0 -1.2,0.719 v 2.953 c 0,1.672 1.09,2.563 2.08,2.563 0.98,0 1.22,-0.813 1.22,-1.782 v -3.734 c 0,-0.719 -0.19,-0.719 -1.22,-0.719 v -0.453 c 0.42,0.031 1.28,0.031 1.72,0.031 0.47,0 1.33,0 1.73,-0.031 v 0.453 c -0.8,0 -1.19,0 -1.2,0.485 z"
   id="path53"
   inkscape:connector-curvature="0"
   style="fill:#000000;stroke-width:0" />
<path
   d="M 172.07,22.148 V 21.68 c 1.08,0 1.21,-0.11 1.21,-0.891 v -3.516 c -0.33,0.469 -1.02,1.032 -1.99,1.032 -1.84,0 -3.42,-1.563 -3.42,-3.594 0,-2.016 1.5,-3.578 3.25,-3.578 1.2,0 1.91,0.797 2.13,1.094 l -0.22,0.234 c -0.38,-0.547 -1.03,-1.016 -1.83,-1.016 -0.41,0 -2.13,0.157 -2.13,3.25 0,1.141 0.19,1.782 0.53,2.297 0.33,0.5 0.97,0.985 1.75,0.985 0.99,0 1.55,-0.719 1.71,-0.969 0.19,-0.266 0.19,-0.297 0.19,-0.578 v -3.282 c 0,-0.281 0,-0.328 -0.22,-0.687 l 0.22,-0.234 v -1.094 l 2.25,0.156 v 0.453 c -1.08,0 -1.21,0.125 -1.21,0.891 v 9.687 z"
   id="path55"
   inkscape:connector-curvature="0"
   style="fill:#000000;stroke-width:0" />
<path
   d="m 182.07,14.977 0.02,0 0.01,0 0.02,0 0.01,0 0.02,0 0.01,0 0.01,0 0.01,0 0.02,0 0.01,10e-4 0.01,0 0.01,10e-4 0.01,0 0.01,0.001 0.01,0 0.01,10e-4 0.01,10e-4 0.01,0.001 0.01,10e-4 0.01,0.002 0.02,0.003 0.01,0.003 0.01,0.004 0.02,0.005 0.01,0.006 0.01,0.007 0.01,0.007 0,0.008 0.01,0.01 0.01,0.01 0,0.011 0.01,0.013 0,0.014 0,0.015 0.01,0.008 0,0.008 0,0.009 0,0.009 0,0.009 0,0.01 0,0.01 0,0.01 0,0.011 0,0.012 0,0.011 0,0.012 0,0.013 0,0.012 0,0.014 0.01,0.013 c 0,1.61 -0.86,3.11 -2.79,3.11 -1.81,0 -3.2,-1.641 -3.2,-3.61 0,-2.109 1.61,-3.64 3.38,-3.64 1.89,0 2.61,1.719 2.61,2.047 0,0.093 -0.08,0.156 -0.18,0.156 -0.12,0 -0.15,-0.078 -0.18,-0.156 -0.43,-1.328 -1.49,-1.703 -2.16,-1.703 -0.66,0 -2.27,0.453 -2.27,3.203 v 0.297 l 0.02,0.296 c 0.12,2.5 1.52,2.782 1.97,2.782 1.7,0 1.8,-2.235 1.81,-2.782 h -3.78 l -0.02,-0.296 z"
   id="path57"
   inkscape:connector-curvature="0"
   style="fill:#000000;stroke-width:0" />
<path
   d="m 185.57,14.992 0,0.145 0.01,0.144 0.01,0.142 0.01,0.142 0.02,0.139 0.02,0.138 0.02,0.136 0.03,0.133 0.03,0.131 0.04,0.128 0.03,0.125 0.05,0.121 0.04,0.118 0.05,0.114 0.06,0.111 0.05,0.105 0.06,0.102 0.07,0.096 0.06,0.092 0.08,0.086 0.07,0.081 0.08,0.075 0.08,0.069 0.09,0.063 0.08,0.056 0.1,0.05 0.09,0.042 0.1,0.036 0.1,0.028 0.11,0.02 0.11,0.012 0.11,0.005 c 0.12,0 0.16,0 0.22,-0.016 -0.13,-0.063 -0.38,-0.156 -0.38,-0.578 0,-0.469 0.36,-0.641 0.61,-0.641 0.33,0 0.64,0.203 0.64,0.641 0,0.469 -0.42,0.922 -1.11,0.922 -1.36,0 -1.81,-1.469 -1.9,-1.766 h -0.02 v 1.766 l -2.14,-0.188 v -0.453 c 1.1,0 1.22,-0.109 1.22,-0.891 v -4.312 c 0,-0.719 -0.17,-0.719 -1.22,-0.719 v -0.453 c 0.45,0.031 1.33,0.031 1.8,0.031 0.44,0 1.56,0 1.94,-0.031 v 0.453 h -0.33 c -1.16,0 -1.19,0.188 -1.19,0.75 z"
   id="path59"
   inkscape:connector-curvature="0"
   style="fill:#000000;stroke-width:0" />
<path
   d="m 201.73,17.773 -0.05,-0.009 -0.04,-0.011 -0.04,-0.013 -0.04,-0.014 -0.04,-0.016 -0.04,-0.017 -0.04,-0.018 -0.03,-0.019 -0.03,-0.021 -0.03,-0.021 -0.03,-0.023 -0.03,-0.024 -0.03,-0.024 -0.02,-0.025 -0.03,-0.026 -0.02,-0.027 -0.02,-0.028 -0.02,-0.028 -0.02,-0.028 -0.01,-0.029 -0.02,-0.029 -0.01,-0.03 -0.01,-0.03 -0.01,-0.03 -0.01,-0.03 -0.01,-0.031 -0.01,-0.03 0,-0.03 -0.01,-0.031 0,-0.03 0,-0.029 0,-0.03 c 0,-0.375 0.31,-0.5 0.53,-0.5 0.47,0 0.81,0.406 0.81,0.844 0,0.656 -0.77,0.969 -1.44,0.969 -0.97,0 -1.5,-0.953 -1.64,-1.266 -0.37,1.203 -1.36,1.266 -1.64,1.266 -1.62,0 -2.48,-2.094 -2.48,-2.438 0,-0.062 0.06,-0.14 0.17,-0.14 0.12,0 0.16,0.093 0.19,0.156 0.54,1.765 1.61,2.094 2.07,2.094 0.71,0 0.86,-0.657 0.86,-1.047 0,-0.344 -0.09,-0.719 -0.29,-1.469 l -0.53,-2.188 c -0.25,-0.953 -0.71,-1.828 -1.55,-1.828 -0.08,0 -0.47,0 -0.81,0.203 0.57,0.125 0.7,0.594 0.7,0.782 0,0.328 -0.23,0.515 -0.55,0.515 -0.37,0 -0.79,-0.343 -0.79,-0.843 0,-0.672 0.75,-0.969 1.43,-0.969 0.77,0 1.3,0.594 1.64,1.25 0.25,-0.938 1.05,-1.25 1.64,-1.25 1.61,0 2.47,2.078 2.47,2.422 0,0.093 -0.06,0.156 -0.15,0.156 -0.14,0 -0.16,-0.078 -0.21,-0.219 -0.43,-1.39 -1.36,-2.047 -2.06,-2.047 -0.56,0 -0.86,0.422 -0.86,1.063 0,0.359 0.06,0.609 0.31,1.656 l 0.57,2.156 c 0.23,0.953 0.76,1.657 1.5,1.657 0.03,0 0.48,0 0.81,-0.204 z"
   id="path61"
   inkscape:connector-curvature="0"
   style="fill:#000000;stroke-width:0" />
<path
   d="m 217.08,14.945 0.05,0 0.06,10e-4 0.05,10e-4 0.02,0.002 0.03,10e-4 0.02,0.002 0.03,0.003 0.02,0.003 0.02,0.004 0.03,0.004 0.02,0.005 0.02,0.006 0.02,0.007 0.02,0.008 0.02,0.009 0.01,0.01 0.02,0.011 0.02,0.012 0.01,0.013 0.01,0.014 0.02,0.016 0.01,0.017 0,0.009 0.01,0.01 0,0.01 0.01,0.01 0,0.011 0,0.011 0.01,0.011 0,0.012 0,0.012 0,0.013 0,0.013 0,0.013 0,0.014 0.01,0.015 c 0,0.328 -0.29,0.328 -0.57,0.328 h -8.59 c -0.27,0 -0.56,0 -0.56,-0.328 0,-0.313 0.29,-0.313 0.56,-0.313 z"
   id="path63"
   inkscape:connector-curvature="0"
   style="fill:#000000;stroke-width:0" />
<path
   d="m 227.13,21.477 0,0.016 0,0.016 0,0.016 0,0.015 0,0.015 0,0.014 0,0.014 0,0.013 0,0.013 0,0.012 0,0.012 0,0.012 0,0.011 0,0.01 -0.01,0.011 0,0.01 0,0.009 0,0.01 0,0.008 0,0.009 0,0.008 0,0.008 -0.01,0.007 0,0.007 0,0.013 -0.01,0.012 0,0.011 -0.01,0.01 -0.01,0.008 -0.01,0.008 -0.01,0.007 -0.01,0.006 -0.01,0.005 -0.01,0.004 -0.02,0.004 0,10e-4 -0.01,0.002 -0.01,10e-4 -0.01,0.001 -0.01,0.001 -0.01,10e-4 -0.01,0.001 -0.01,0 -0.01,0.001 -0.01,0 -0.01,10e-4 -0.01,0 -0.02,0 -0.01,0 -0.01,0 -0.02,0.001 -0.01,0 -0.01,0 C 226.43,21.43 225.63,20.836 224,20.836 v -0.453 c 0.36,0 1.16,0 2.04,0.406 v -8.281 c 0,-0.563 -0.05,-0.766 -1.46,-0.766 h -0.48 v -0.453 c 0.42,0.031 1.97,0.031 2.48,0.031 0.53,0 2.07,0 2.49,-0.031 v 0.453 h -0.49 c -1.4,0 -1.45,0.203 -1.45,0.766 z"
   id="path65"
   inkscape:connector-curvature="0"
   style="fill:#000000;stroke-width:0" />
</g></svg>
