<?xml version="1.0" encoding="UTF-8" standalone="no"?>
<svg
   xmlns:dc="http://purl.org/dc/elements/1.1/"
   xmlns:cc="http://creativecommons.org/ns#"
   xmlns:rdf="http://www.w3.org/1999/02/22-rdf-syntax-ns#"
   xmlns:svg="http://www.w3.org/2000/svg"
   xmlns="http://www.w3.org/2000/svg"
   xmlns:sodipodi="http://sodipodi.sourceforge.net/DTD/sodipodi-0.dtd"
   xmlns:inkscape="http://www.inkscape.org/namespaces/inkscape"
   version="1.1"
   id="body"
   width="310.50858"
   height="20.000134"
   viewBox="0 0 0.43126191 0.027777963"
   preserveAspectRatio="none"
   inkscape:version="0.48.3.1 r9886"
   sodipodi:docname="ch2-Z-G-61.svg">
  <metadata
     id="metadata59">
    <rdf:RDF>
      <cc:Work
         rdf:about="">
        <dc:format>image/svg+xml</dc:format>
        <dc:type
           rdf:resource="http://purl.org/dc/dcmitype/StillImage" />
      </cc:Work>
    </rdf:RDF>
  </metadata>
  <defs
     id="defs57" />
  <sodipodi:namedview
     pagecolor="#ffffff"
     bordercolor="#666666"
     borderopacity="1"
     objecttolerance="10"
     gridtolerance="10"
     guidetolerance="10"
     inkscape:pageopacity="0"
     inkscape:pageshadow="2"
     inkscape:window-width="640"
     inkscape:window-height="480"
     id="namedview55"
     showgrid="false"
     inkscape:zoom="0.32777778"
     inkscape:cx="382.22931"
     inkscape:cy="458.82151"
     inkscape:window-x="0"
     inkscape:window-y="24"
     inkscape:window-maximized="0"
     inkscape:current-layer="body" />
  <title
     id="title3">SVG drawing</title>
  <desc
     id="desc5">This was produced by version 4.4 of GNU libplot, a free library for exporting 2-D vector graphics.</desc>
  <g
     id="content"
     transform="matrix(0.0017361,0,0,-0.0017361,-3.7595509e-4,0.02929705)"
     xml:space="preserve"
     stroke-miterlimit="10.433"
     font-style="normal"
     font-variant="normal"
     font-weight="normal"
     font-stretch="normal"
     font-size-adjust="none"
     letter-spacing="normal"
     word-spacing="normal"
     style="font-style:normal;font-variant:normal;font-weight:normal;font-stretch:normal;letter-spacing:normal;word-spacing:normal;text-anchor:start;fill:none;stroke:#000000;stroke-linecap:butt;stroke-linejoin:miter;stroke-miterlimit:10.43299961;stroke-opacity:1;stroke-dasharray:none;stroke-dashoffset:0">
<path
   d="M 4.0273,3.1367 3.9431,3.0235 3.8546,2.9127 3.7618,2.8052 3.6648,2.7014 3.6147,2.6512 3.5637,2.6021 3.5116,2.5544 3.4585,2.508 3.4044,2.4631 3.3494,2.4197 3.2933,2.378 3.2363,2.3379 3.1784,2.2996 3.1194,2.2632 3.0596,2.2287 2.9987,2.1963 2.937,2.166 2.8744,2.1379 2.8108,2.1121 2.7463,2.0886 2.681,2.0676 2.6147,2.0491 2.5476,2.0333 2.4796,2.0201 2.4108,2.0097 2.3411,2.0022 2.2706,1.9976 2.1992,1.9961 C 1.9961,1.9961 1.2461,2.0273 0.99609,2.7617 1.043,2.7461 1.1211,2.7461 1.1523,2.7461 c 0.4844,0 0.7969,0.4062 0.7969,0.7656 0,0.375 -0.2969,0.5 -0.5312,0.5 -0.2657,0 -0.81253,-0.1875 -0.81253,-0.9687 0,-0.8125 0.68753,-1.375 1.59373,-1.375 1.5781,0 3.1875,1.4687 3.625,3.2343 l 1.5625,6.2037 c 0.0156,0.078 0.0469,0.171 0.0469,0.265 0,0.235 -0.1875,0.391 -0.4219,0.391 -0.1406,0 -0.4844,-0.063 -0.6094,-0.531 L 5.2305,6.5586 C 5.1523,6.2617 5.1523,6.2305 5.0273,6.0586 4.6992,5.6211 4.1836,5.0742 3.418,5.0742 c -0.8907,0 -0.9688,0.875 -0.9688,1.3125 0,0.9063 0.4219,2.125 0.8594,3.2656 0.1719,0.4687 0.2656,0.6877 0.2656,0.9997 0,0.672 -0.4687,1.282 -1.25,1.282 -1.46873,0 -2.06248,-2.3129 -2.06248,-2.4379 0,-0.0625 0.07812,-0.1406 0.1875,-0.1406 0.14062,0 0.15625,0.0625 0.21875,0.2812 0.37503,1.3443 0.98433,1.9693 1.60933,1.9693 0.1407,0 0.4063,0 0.4063,-0.516 0,-0.422 -0.1719,-0.875 -0.4063,-1.4845 C 1.4961,7.5273 1.4961,6.9961 1.4961,6.6211 c 0,-1.5156 1.0781,-1.8594 1.875,-1.8594 0.4531,0 1.0312,0.1406 1.5937,0.7344 L 4.9805,5.4805 C 4.7305,4.543 4.5742,3.918 4.0273,3.1367 z"
   id="path9"
   inkscape:connector-curvature="0"
   style="fill:#000000;stroke-width:0" />
<path
   d="m 23.188,10.074 0.041,0 0.043,10e-4 0.043,0.001 0.021,10e-4 0.022,0.002 0.021,10e-4 0.021,0.003 0.021,0.003 0.021,0.003 0.02,0.004 0.02,0.005 0.019,0.005 0.019,0.006 0.017,0.007 0.018,0.008 0.016,0.009 0.016,0.01 0.015,0.011 0.014,0.012 0.012,0.013 0.012,0.014 0.006,0.007 0.005,0.008 0.005,0.009 0.004,0.008 0.004,0.009 0.004,0.009 0.004,0.01 0.003,0.01 0.003,0.01 0.002,0.011 0.003,0.011 0.001,0.011 0.002,0.012 0.001,0.012 0,0.013 10e-4,0.013 c 0,0.296 -0.266,0.296 -0.5,0.296 h -9.376 c -0.218,0 -0.5,0 -0.5,-0.281 0,-0.297 0.266,-0.297 0.5,-0.297 z"
   id="path11"
   inkscape:connector-curvature="0"
   style="fill:#000000;stroke-width:0" />
<path
   d="m 23.188,7.1055 0.041,0 0.043,6e-4 0.043,0.0013 0.021,0.0012 0.022,0.0015 0.021,0.002 0.021,0.0024 0.021,0.003 0.021,0.0036 0.02,0.0043 0.02,0.0049 0.019,0.0057 0.019,0.0066 0.017,0.0074 0.018,0.0083 0.016,0.0093 0.016,0.0103 0.015,0.0115 0.014,0.0125 0.012,0.0138 0.012,0.015 0.006,0.008 0.005,0.0083 0.005,0.0087 0.004,0.009 0.004,0.0094 0.004,0.0097 0.004,0.0101 0.003,0.0104 0.003,0.0109 0.002,0.0112 0.003,0.0117 0.001,0.012 0.002,0.0124 0.001,0.0129 0,0.0132 10e-4,0.0137 c 0,0.2969 -0.266,0.2969 -0.5,0.2969 h -9.376 c -0.218,0 -0.5,0 -0.5,-0.2812 0,-0.3125 0.266,-0.3125 0.5,-0.3125 z"
   id="path13"
   inkscape:connector-curvature="0"
   style="fill:#000000;stroke-width:0" />
<path
   d="m 35.207,11.418 -0.046,-0.01 -0.045,-0.01 -0.043,-0.013 -0.042,-0.013 -0.04,-0.015 -0.039,-0.017 -0.037,-0.017 -0.036,-0.019 -0.035,-0.019 -0.033,-0.021 -0.031,-0.022 -0.03,-0.023 -0.029,-0.023 -0.027,-0.025 -0.025,-0.026 -0.024,-0.026 -0.023,-0.027 -0.021,-0.028 -0.02,-0.028 -0.019,-0.03 -0.016,-0.029 -0.016,-0.031 -0.014,-0.031 -0.012,-0.031 -0.011,-0.032 -0.01,-0.032 -0.008,-0.032 -0.006,-0.033 -0.005,-0.033 -0.004,-0.034 -0.002,-0.033 -10e-4,-0.034 c 0,-0.375 0.297,-0.5 0.516,-0.5 0.453,0 0.812,0.375 0.812,0.86 0,0.5 -0.484,0.953 -1.281,0.953 -0.641,0 -1.375,-0.297 -2.031,-1.266 -0.11,0.844 -0.75,1.266 -1.391,1.266 -0.609,0 -0.937,-0.485 -1.125,-0.828 -0.266,-0.579 -0.516,-1.5318 -0.516,-1.6099 0,-0.0625 0.079,-0.1406 0.188,-0.1406 0.125,0 0.141,0.0156 0.234,0.375 0.235,0.9535 0.532,1.8755 1.172,1.8755 0.391,0 0.5,-0.266 0.5,-0.735 0,-0.344 -0.156,-0.9687 -0.281,-1.453 L 30.816,7.6992 C 30.754,7.4023 30.582,6.6836 30.504,6.4023 30.379,5.9805 30.207,5.2305 30.207,5.1523 c 0,-0.2187 0.172,-0.3906 0.422,-0.3906 0.172,0 0.469,0.1094 0.562,0.4219 0.047,0.125 0.641,2.5312 0.735,2.8906 0.078,0.3594 0.172,0.6875 0.25,1.0469 0.062,0.2187 0.14,0.4687 0.187,0.6719 0.047,0.1406 0.469,0.922 0.875,1.281 0.188,0.172 0.594,0.532 1.25,0.532 0.25,0 0.5,-0.047 0.719,-0.188 z"
   id="path15"
   inkscape:connector-curvature="0"
   style="fill:#000000;stroke-width:0" />
<path
   d="m 42.77,8.0898 0.025,-0.0045 0.026,-0.0048 0.027,-0.005 0.028,-0.0052 0.029,-0.0054 0.029,-0.0055 0.059,-0.0115 0.06,-0.0119 0.061,-0.0121 0.06,-0.012 L 43.232,8 43.261,7.9942 43.289,7.9885 43.317,7.9829 43.343,7.9775 43.369,7.9723 43.394,7.9673 43.417,7.9625 43.44,7.958 l 0.021,-0.0042 0.02,-0.004 0.018,-0.0036 0.017,-0.0033 0.015,-0.003 0.014,-0.0025 0.012,-0.0021 0.009,-0.0017 c 0.204,-0.0625 0.922,-0.3125 0.922,-1.0781 0,-0.4844 -0.453,-1.7813 -2.297,-1.7813 -0.328,0 -1.515,0.0469 -1.843,0.9219 0.64,-0.0781 0.953,0.4219 0.953,0.7656 0,0.3281 -0.219,0.5156 -0.531,0.5156 -0.36,0 -0.813,-0.2812 -0.813,-1 0,-0.9375 0.953,-1.5156 2.219,-1.5156 2.422,0 3.14,1.7813 3.14,2.6094 0,0.2344 0,0.6719 -0.515,1.1875 -0.391,0.375 -0.781,0.4531 -1.641,0.6406 -0.422,0.0938 -1.109,0.2344 -1.109,0.9528 0,0.313 0.281,1.454 1.797,1.454 0.672,0 1.328,-0.25 1.484,-0.829 -0.703,0 -0.734,-0.593 -0.734,-0.609 0,-0.3438 0.297,-0.4375 0.437,-0.4375 0.235,0 0.672,0.1718 0.672,0.8435 0,0.672 -0.609,1.36 -1.844,1.36 -2.078,0 -2.64,-1.641 -2.64,-2.2973 0,-1.2031 1.187,-1.4531 1.547,-1.5469 z"
   id="path17"
   inkscape:connector-curvature="0"
   style="fill:#000000;stroke-width:0" />
<path
   d="m 50.992,7.1836 0,0.0087 -10e-4,0.0085 0,0.0083 -0.002,0.0081 -10e-4,0.0079 -0.002,0.0077 -0.002,0.0075 -0.003,0.0073 -0.003,0.007 -0.003,0.0068 -0.004,0.0065 -0.004,0.0063 -0.004,0.0061 -0.004,0.0058 -0.005,0.0055 -0.005,0.0053 -0.005,0.005 L 50.938,7.3066 50.933,7.311 50.927,7.3151 50.92,7.319 50.914,7.3225 50.907,7.3257 50.9,7.3286 50.893,7.3312 50.885,7.3335 50.877,7.3354 50.87,7.337 l -0.009,0.0012 -0.008,9e-4 -0.008,6e-4 -0.009,1e-4 c -0.141,0 -0.156,-0.0468 -0.25,-0.3281 -0.406,-1.4375 -1.063,-1.9375 -1.578,-1.9375 -0.188,0 -0.422,0.0469 -0.422,0.5313 0,0.4218 0.187,0.9062 0.375,1.375 l 1.109,2.9531 c 0.047,0.1404 0.157,0.4224 0.157,0.7184 0,0.672 -0.469,1.282 -1.25,1.282 -1.469,0 -2.063,-2.3129 -2.063,-2.4379 0,-0.0625 0.078,-0.1406 0.188,-0.1406 0.14,0 0.156,0.0625 0.218,0.2812 0.375,1.3443 0.985,1.9693 1.61,1.9693 0.14,0 0.406,-0.016 0.406,-0.516 0,-0.422 -0.203,-0.938 -0.328,-1.297 l -1.11,-2.9532 c -0.109,-0.25 -0.203,-0.5 -0.203,-0.7968 0,-0.7188 0.5,-1.2813 1.266,-1.2813 1.453,0 2.031,2.3125 2.031,2.4219 z"
   id="path19"
   inkscape:connector-curvature="0"
   style="fill:#000000;stroke-width:0" />
<path
   d="m 50.867,14.84 0,0.022 -0.002,0.022 -0.003,0.023 -0.004,0.022 -0.004,0.023 -0.006,0.022 -0.008,0.023 -0.008,0.022 -0.009,0.022 -0.01,0.022 -0.012,0.022 -0.012,0.021 -0.014,0.021 -0.014,0.02 -0.016,0.02 -0.016,0.019 -0.018,0.018 -0.019,0.017 -0.02,0.017 -0.021,0.016 -0.022,0.015 -0.023,0.014 -0.024,0.013 -0.025,0.012 -0.026,0.011 -0.027,0.009 -0.028,0.008 -0.029,0.007 -0.03,0.005 -0.031,0.004 -0.033,0.003 -0.033,10e-4 c -0.359,0 -0.781,-0.344 -0.781,-0.766 0,-0.391 0.344,-0.516 0.531,-0.516 0.422,0 0.797,0.407 0.797,0.766 z"
   id="path21"
   inkscape:connector-curvature="0"
   style="fill:#000000;stroke-width:0" />
<path
   d="m 55.094,9.5742 0.004,0.0108 0.006,0.0148 0.008,0.0185 0.01,0.0221 0.012,0.0255 0.014,0.0287 0.016,0.0318 0.018,0.0346 0.02,0.0373 0.022,0.0398 0.023,0.0421 0.025,0.0442 0.027,0.0462 0.029,0.0484 0.03,0.049 0.033,0.051 0.033,0.052 0.036,0.054 0.037,0.054 0.038,0.055 0.04,0.055 0.042,0.056 0.043,0.056 0.045,0.055 0.046,0.056 0.047,0.055 0.049,0.055 0.05,0.054 0.051,0.053 0.052,0.052 0.054,0.05 0.055,0.05 c 0.407,0.375 0.953,0.625 1.563,0.625 0.64,0 0.859,-0.469 0.859,-1.11 0,-0.9062 -0.64,-2.7187 -0.969,-3.578 -0.14,-0.375 -0.218,-0.5782 -0.218,-0.875 0,-0.7188 0.5,-1.2813 1.25,-1.2813 1.484,0 2.047,2.3281 2.047,2.4219 0,0.0937 -0.079,0.1562 -0.172,0.1562 -0.141,0 -0.157,-0.0468 -0.235,-0.3281 -0.359,-1.2969 -0.968,-1.9375 -1.593,-1.9375 -0.157,0 -0.407,0.0156 -0.407,0.5313 0,0.3906 0.172,0.875 0.266,1.0937 0.328,0.875 0.984,2.6563 0.984,3.5628 0,0.953 -0.546,1.672 -1.765,1.672 -1.407,0 -2.157,-1 -2.438,-1.407 -0.047,0.907 -0.703,1.407 -1.406,1.407 -0.5,0 -0.859,-0.313 -1.125,-0.844 -0.281,-0.578 -0.516,-1.5314 -0.516,-1.5939 0,-0.0625 0.078,-0.1406 0.188,-0.1406 0.125,0 0.14,0.0156 0.234,0.375 0.25,0.9685 0.532,1.8755 1.172,1.8755 0.375,0 0.5,-0.25 0.5,-0.735 0,-0.344 -0.156,-0.9687 -0.281,-1.453 L 53.609,7.6992 C 53.547,7.4023 53.375,6.6836 53.297,6.4023 53.172,5.9805 53,5.2305 53,5.1523 c 0,-0.2187 0.172,-0.3906 0.422,-0.3906 0.187,0 0.406,0.0938 0.531,0.3281 0.031,0.0782 0.188,0.6407 0.266,0.9532 l 0.343,1.4375 z"
   id="path23"
   inkscape:connector-curvature="0"
   style="fill:#000000;stroke-width:0" />
<path
   d="M 66.496,6.6836 66.443,6.5975 66.391,6.515 66.339,6.4361 66.286,6.3606 66.234,6.2885 66.181,6.2197 66.129,6.1542 66.076,6.0918 66.023,6.0325 65.97,5.9763 65.916,5.9231 65.862,5.8728 65.808,5.8253 65.754,5.7806 65.698,5.7386 65.643,5.6992 65.586,5.6624 65.529,5.6281 65.472,5.5962 65.413,5.5666 65.354,5.5394 65.294,5.5144 65.233,5.4915 65.171,5.4707 65.108,5.4519 65.044,5.4351 64.979,5.4201 64.913,5.407 64.846,5.3956 64.778,5.3858 64.708,5.3777 64.637,5.3711 C 64.465,5.3555 64.34,5.3555 64.34,5.0742 c 0,-0.0937 0.078,-0.1562 0.187,-0.1562 0.282,0 1,0.0312 1.282,0.0312 0.468,0 0.968,-0.0312 1.421,-0.0312 0.094,0 0.282,0 0.282,0.2968 0,0.1407 -0.125,0.1563 -0.219,0.1563 -0.375,0.0469 -0.672,0.1719 -0.672,0.5469 0,0.2187 0.094,0.4062 0.297,0.75 l 1.219,2 h 4.047 L 72.137,9.1367 H 68.402 L 71.59,14.465 72.137,9.1367 72.184,8.668 c 0.015,-0.1407 0.015,-0.2657 0.031,-0.4063 0.047,-0.4219 0.234,-2.0781 0.234,-2.375 0,-0.4687 -0.797,-0.5156 -1.062,-0.5156 -0.172,0 -0.344,0 -0.344,-0.2813 0,-0.1718 0.141,-0.1718 0.234,-0.1718 0.266,0 0.594,0.0312 0.86,0.0312 h 0.906 c 0.969,0 1.672,-0.0312 1.687,-0.0312 0.11,0 0.282,0 0.282,0.2968 0,0.1563 -0.141,0.1563 -0.375,0.1563 -0.875,0 -0.891,0.1562 -0.938,0.625 L 72.73,15.918 c -0.031,0.312 -0.093,0.344 -0.281,0.344 -0.156,0 -0.25,-0.032 -0.39,-0.266 z"
   id="path25"
   inkscape:connector-curvature="0"
   style="fill:#000000;stroke-width:0" />
<path
   d="M 140.62,6.6836 140.56,6.5975 140.51,6.515 140.46,6.4361 140.41,6.3606 140.35,6.2885 140.3,6.2197 140.25,6.1542 140.2,6.0918 140.14,6.0325 140.09,5.9763 140.04,5.9231 139.98,5.8728 139.93,5.8253 139.87,5.7806 139.82,5.7386 139.76,5.6992 139.71,5.6624 139.65,5.6281 139.59,5.5962 139.53,5.5666 139.47,5.5394 139.41,5.5144 139.35,5.4915 139.29,5.4707 139.23,5.4519 139.17,5.4351 139.1,5.4201 139.03,5.407 138.97,5.3956 138.9,5.3858 138.83,5.3777 138.76,5.3711 c -0.17,-0.0156 -0.3,-0.0156 -0.3,-0.2969 0,-0.0937 0.08,-0.1562 0.19,-0.1562 0.28,0 1,0.0312 1.28,0.0312 0.47,0 0.97,-0.0312 1.42,-0.0312 0.1,0 0.28,0 0.28,0.2968 0,0.1407 -0.12,0.1563 -0.22,0.1563 -0.37,0.0469 -0.67,0.1719 -0.67,0.5469 0,0.2187 0.1,0.4062 0.3,0.75 l 1.22,2 h 4.04 l -0.04,0.4687 h -3.74 l 3.19,5.3283 0.55,-5.3283 0.04,-0.4687 c 0.02,-0.1407 0.02,-0.2657 0.04,-0.4063 0.04,-0.4219 0.23,-2.0781 0.23,-2.375 0,-0.4687 -0.8,-0.5156 -1.06,-0.5156 -0.17,0 -0.35,0 -0.35,-0.2813 0,-0.1718 0.14,-0.1718 0.24,-0.1718 0.26,0 0.59,0.0312 0.86,0.0312 h 0.9 c 0.97,0 1.68,-0.0312 1.69,-0.0312 0.11,0 0.28,0 0.28,0.2968 0,0.1563 -0.14,0.1563 -0.37,0.1563 -0.88,0 -0.89,0.1562 -0.94,0.625 l -0.97,9.9219 c -0.03,0.312 -0.09,0.344 -0.28,0.344 -0.16,0 -0.25,-0.032 -0.39,-0.266 z"
   id="path27"
   inkscape:connector-curvature="0"
   style="fill:#000000;stroke-width:0" />
<path
   d="m 164.79,10.074 0.04,0 0.04,10e-4 0.05,0.001 0.02,10e-4 0.02,0.002 0.02,10e-4 0.02,0.003 0.02,0.003 0.02,0.003 0.02,0.004 0.02,0.005 0.02,0.005 0.02,0.006 0.02,0.007 0.02,0.008 0.01,0.009 0.02,0.01 0.01,0.011 0.02,0.012 0.01,0.013 0.01,0.014 0.01,0.007 0,0.008 0.01,0.009 0,0.008 0.01,0.009 0,0.009 0,0.01 0.01,0.01 0,0.01 0,0.011 0,0.011 0.01,0.011 0,0.012 0,0.012 0,0.013 0,0.013 c 0,0.296 -0.27,0.296 -0.5,0.296 h -9.38 c -0.21,0 -0.5,0 -0.5,-0.281 0,-0.297 0.27,-0.297 0.5,-0.297 z"
   id="path29"
   inkscape:connector-curvature="0"
   style="fill:#000000;stroke-width:0" />
<path
   d="m 164.79,7.1055 0.04,0 0.04,6e-4 0.05,0.0013 0.02,0.0012 0.02,0.0015 0.02,0.002 0.02,0.0024 0.02,0.003 0.02,0.0036 0.02,0.0043 0.02,0.0049 0.02,0.0057 0.02,0.0066 0.02,0.0074 0.02,0.0083 0.01,0.0093 0.02,0.0103 0.01,0.0115 0.02,0.0125 0.01,0.0138 0.01,0.015 0.01,0.008 0,0.0083 0.01,0.0087 0,0.009 0.01,0.0094 0,0.0097 0,0.0101 0.01,0.0104 0,0.0109 0,0.0112 0,0.0117 0.01,0.012 0,0.0124 0,0.0129 0,0.0132 0,0.0137 c 0,0.2969 -0.27,0.2969 -0.5,0.2969 h -9.38 c -0.21,0 -0.5,0 -0.5,-0.2812 0,-0.3125 0.27,-0.3125 0.5,-0.3125 z"
   id="path31"
   inkscape:connector-curvature="0"
   style="fill:#000000;stroke-width:0" />
<path
   d="m 176.76,9.168 0,0.1584 0,0.1533 0,0.1485 -0.01,0.144 -0.01,0.1399 -0.01,0.0685 -0.01,0.0674 -0.01,0.067 -0.01,0.066 -0.01,0.065 -0.02,0.065 -0.01,0.063 -0.02,0.063 -0.03,0.063 -0.02,0.062 -0.03,0.061 -0.03,0.061 -0.03,0.061 -0.03,0.06 -0.04,0.06 -0.05,0.059 -0.04,0.059 -0.05,0.059 -0.05,0.059 -0.06,0.059 -0.06,0.059 -0.06,0.058 c -0.56,0.5 -1.27,0.735 -1.97,0.735 -1.31,0 -2.31,-0.86 -2.31,-1.891 0,-0.4687 0.31,-0.6874 0.67,-0.6874 0.37,0 0.65,0.2656 0.65,0.6564 0,0.641 -0.57,0.641 -0.81,0.641 0.36,0.671 1.13,0.953 1.77,0.953 0.73,0 1.67,-0.594 1.67,-2.0317 V 9.0117 8.7305 7.1523 c 0,-1.5468 -1.17,-2.0781 -1.84,-2.0781 -0.79,0 -1.44,0.5781 -1.44,1.3438 0,2.0937 2.7,2.2812 3.28,2.3125 v 0.2812 c -3.2,-0.0469 -4.41,-1.375 -4.41,-2.5937 0,-1.2657 1.46,-1.6563 2.43,-1.6563 1.06,0 1.76,0.6406 2.07,1.3906 0.07,-0.7343 0.55,-1.3125 1.24,-1.3125 0.33,0 1.25,0.2188 1.25,1.5 v 0.875 h -0.35 v -0.875 c 0,-0.9062 -0.37,-1.0468 -0.61,-1.0468 -0.59,0 -0.59,0.8437 -0.59,1.0937 z"
   id="path33"
   inkscape:connector-curvature="0"
   style="fill:#000000;stroke-width:0" />
<path
   d="m 181.08,8.6211 0,0.1447 0.01,0.1437 0.01,0.1427 0.01,0.1413 0.02,0.1396 0.02,0.1378 0.02,0.1357 0.03,0.1334 0.03,0.1308 0.04,0.1279 0.04,0.1253 0.04,0.121 0.05,0.118 0.04,0.114 0.06,0.111 0.05,0.105 0.07,0.102 0.06,0.096 0.07,0.092 0.07,0.086 0.07,0.081 0.08,0.075 0.08,0.069 0.09,0.063 0.09,0.056 0.09,0.05 0.09,0.042 0.1,0.036 0.1,0.028 0.11,0.02 0.11,0.012 0.11,0.005 c 0.13,0 0.16,0 0.22,-0.016 -0.12,-0.063 -0.37,-0.156 -0.37,-0.578 0,-0.469 0.36,-0.641 0.61,-0.641 0.32,0 0.64,0.203 0.64,0.641 0,0.469 -0.43,0.922 -1.11,0.922 -1.36,0 -1.82,-1.469 -1.91,-1.766 H 181 v 1.766 l -2.14,-0.188 v -0.453 c 1.1,0 1.22,-0.109 1.22,-0.891 V 6.0898 c 0,-0.7187 -0.17,-0.7187 -1.22,-0.7187 V 4.918 c 0.46,0.0312 1.33,0.0312 1.8,0.0312 0.44,0 1.56,0 1.94,-0.0312 v 0.4531 h -0.33 c -1.16,0 -1.19,0.1875 -1.19,0.75 z"
   id="path35"
   inkscape:connector-curvature="0"
   style="fill:#000000;stroke-width:0" />
<path
   d="m 190.24,10.793 -0.02,0 -0.02,0 -0.02,-10e-4 -0.03,0 -0.02,-10e-4 -0.03,-0.002 -0.03,-0.003 -0.03,-0.003 -0.03,-0.004 -0.03,-0.006 -0.03,-0.006 -0.04,-0.008 -0.03,-0.009 -0.03,-0.011 -0.04,-0.012 -0.03,-0.014 -0.03,-0.016 -0.03,-0.018 -0.03,-0.02 -0.03,-0.022 -0.03,-0.025 -0.01,-0.013 -0.02,-0.014 -0.01,-0.015 -0.01,-0.015 -0.01,-0.016 -0.01,-0.016 -0.01,-0.018 -0.01,-0.018 -0.01,-0.018 -0.01,-0.02 -0.01,-0.02 -0.01,-0.021 -0.01,-0.022 0,-0.022 -0.01,-0.024 0,-0.024 -0.01,-0.025 0,-0.026 -0.01,-0.027 0,-0.027 0,-0.029 0,-0.03 c 0,-0.3903 0.28,-0.6559 0.66,-0.6559 0.36,0 0.67,0.2187 0.67,0.6879 0,1.062 -1.11,1.828 -2.41,1.828 -1.86,0 -3.33,-1.656 -3.33,-3.6565 0,-2.0313 1.52,-3.5938 3.32,-3.5938 2.09,0 2.58,1.9063 2.58,2.0469 0,0.1406 -0.11,0.1406 -0.16,0.1406 -0.14,0 -0.16,-0.0469 -0.2,-0.2344 -0.36,-1.125 -1.22,-1.6093 -2.08,-1.6093 -0.97,0 -2.25,0.8437 -2.25,3.2656 0,2.6409 1.34,3.2809 2.14,3.2809 0.61,0 1.48,-0.234 1.84,-0.859 z"
   id="path37"
   inkscape:connector-curvature="0"
   style="fill:#000000;stroke-width:0" />
<path
   d="m 194.1,11.309 h 2.24 v 0.453 h -2.24 v 2.937 h -0.34 c -0.03,-1.5 -0.6,-3.031 -2.05,-3.078 v -0.312 h 1.36 V 6.8867 c 0,-1.7656 1.17,-2.125 2.02,-2.125 1,0 1.53,0.9844 1.53,2.125 V 7.793 h -0.36 V 6.918 c 0,-1.1407 -0.46,-1.8125 -1.08,-1.8125 -1.08,0 -1.08,1.4843 -1.08,1.75 z"
   id="path39"
   inkscape:connector-curvature="0"
   style="fill:#000000;stroke-width:0" />
<path
   d="m 203.64,9.168 0,0.1584 0,0.1533 -0.01,0.1485 0,0.144 -0.01,0.1399 -0.01,0.0685 -0.01,0.0674 -0.01,0.067 -0.01,0.066 -0.02,0.065 -0.01,0.065 -0.02,0.063 -0.02,0.063 -0.02,0.063 -0.02,0.062 -0.03,0.061 -0.03,0.061 -0.03,0.061 -0.04,0.06 -0.04,0.06 -0.04,0.059 -0.05,0.059 -0.04,0.059 -0.06,0.059 -0.05,0.059 -0.06,0.059 -0.07,0.058 c -0.56,0.5 -1.26,0.735 -1.97,0.735 -1.31,0 -2.31,-0.86 -2.31,-1.891 0,-0.4687 0.31,-0.6874 0.67,-0.6874 0.38,0 0.66,0.2656 0.66,0.6564 0,0.641 -0.58,0.641 -0.81,0.641 0.36,0.671 1.12,0.953 1.76,0.953 0.74,0 1.67,-0.594 1.67,-2.0317 V 9.0117 8.7305 7.1523 c 0,-1.5468 -1.17,-2.0781 -1.84,-2.0781 -0.78,0 -1.44,0.5781 -1.44,1.3438 0,2.0937 2.71,2.2812 3.28,2.3125 v 0.2812 c -3.2,-0.0469 -4.4,-1.375 -4.4,-2.5937 0,-1.2657 1.45,-1.6563 2.42,-1.6563 1.06,0 1.77,0.6406 2.08,1.3906 0.06,-0.7343 0.55,-1.3125 1.23,-1.3125 0.33,0 1.25,0.2188 1.25,1.5 v 0.875 h -0.34 v -0.875 c 0,-0.9062 -0.38,-1.0468 -0.61,-1.0468 -0.59,0 -0.59,0.8437 -0.59,1.0937 z"
   id="path41"
   inkscape:connector-curvature="0"
   style="fill:#000000;stroke-width:0" />
<path
   d="m 212.38,8.7773 0,0.1362 0,0.1302 0,0.1244 0,0.119 0,0.1137 0,0.1085 0,0.1036 -0.01,0.099 0,0.0945 0,0.0902 -0.01,0.0861 0,0.0823 -0.01,0.079 0,0.075 -0.01,0.072 -0.01,0.068 -0.01,0.066 -0.01,0.064 -0.01,0.061 -0.01,0.058 -0.02,0.057 -0.01,0.055 -0.02,0.053 -0.02,0.052 -0.02,0.051 -0.02,0.05 -0.03,0.049 -0.02,0.048 -0.03,0.048 -0.03,0.048 -0.03,0.048 -0.04,0.048 c -0.45,0.609 -1.2,0.719 -1.75,0.719 -1.53,0 -2.14,-1.328 -2.26,-1.641 h -0.02 v 1.641 l -2.15,-0.188 v -0.453 c 1.08,0 1.2,-0.109 1.2,-0.891 V 6.0898 c 0,-0.7187 -0.17,-0.7187 -1.2,-0.7187 V 4.918 c 0.4,0.0312 1.26,0.0312 1.7,0.0312 0.47,0 1.33,0 1.73,-0.0312 v 0.4531 c -1.01,0 -1.2,0 -1.2,0.7187 V 9.043 c 0,1.672 1.1,2.563 2.08,2.563 0.98,0 1.22,-0.813 1.22,-1.7818 V 6.0898 c 0,-0.7187 -0.19,-0.7187 -1.22,-0.7187 V 4.918 c 0.42,0.0312 1.28,0.0312 1.72,0.0312 0.47,0 1.33,0 1.73,-0.0312 v 0.4531 c -0.79,0 -1.18,0 -1.2,0.4844 z"
   id="path43"
   inkscape:connector-curvature="0"
   style="fill:#000000;stroke-width:0" />
<path
   d="m 219.14,1.0586 0,0.0087 0,0.0086 0,0.0045 0,0.0046 0,0.0047 0,0.005 -0.01,0.0053 0,0.0056 0,0.0059 0,0.0064 -0.01,0.0068 0,0.0074 -0.01,0.0079 0,0.0084 -0.01,0.0092 -0.01,0.0098 -0.01,0.0105 -0.01,0.0113 0,0.006 -0.01,0.0061 0,0.0064 -0.01,0.0067 -0.01,0.0068 0,0.0071 -0.01,0.0073 -0.01,0.0076 -0.01,0.0078 0,0.0081 -0.01,0.0083 -0.01,0.0086 -0.01,0.0089 -0.01,0.0091 -0.01,0.0095 -0.01,0.0097 -0.01,0.0101 -0.01,0.0103 -0.01,0.0107 -0.01,0.0109 -0.01,0.0113 -0.02,0.0116 -0.01,0.012 -0.01,0.0122 c -1.58,1.6094 -2.47,4.2344 -2.47,7.4688 0,3.0939 0.73,5.7349 2.58,7.6249 0.17,0.141 0.17,0.172 0.17,0.219 0,0.094 -0.08,0.125 -0.16,0.125 -0.2,0 -1.5,-1.141 -2.28,-2.703 -0.81,-1.61 -1.17,-3.313 -1.17,-5.2659 0,-1.4063 0.22,-3.2969 1.05,-5 0.94,-1.9063 2.23,-2.93751 2.4,-2.93751 0.08,0 0.16,0.03125 0.16,0.12501 z"
   id="path45"
   inkscape:connector-curvature="0"
   style="fill:#000000;stroke-width:0" />
<path
   d="M 224.23,3.1367 224.15,3.0235 224.06,2.9127 223.97,2.8052 223.87,2.7014 223.82,2.6512 223.77,2.6021 223.72,2.5544 223.67,2.508 223.61,2.4631 223.56,2.4197 223.5,2.378 223.44,2.3379 223.39,2.2996 223.33,2.2632 223.27,2.2287 223.21,2.1963 223.14,2.166 223.08,2.1379 223.02,2.1121 222.95,2.0886 222.89,2.0676 222.82,2.0491 222.75,2.0333 222.69,2.0201 222.62,2.0097 222.55,2.0022 222.48,1.9976 222.41,1.9961 c -0.21,0 -0.96,0.0312 -1.21,0.7656 0.05,-0.0156 0.13,-0.0156 0.16,-0.0156 0.48,0 0.8,0.4062 0.8,0.7656 0,0.375 -0.3,0.5 -0.54,0.5 -0.26,0 -0.81,-0.1875 -0.81,-0.9687 0,-0.8125 0.69,-1.375 1.6,-1.375 1.57,0 3.18,1.4687 3.62,3.2343 l 1.56,6.2037 c 0.02,0.078 0.05,0.171 0.05,0.265 0,0.235 -0.19,0.391 -0.42,0.391 -0.14,0 -0.49,-0.063 -0.61,-0.531 l -1.17,-4.6724 c -0.08,-0.2969 -0.08,-0.3281 -0.21,-0.5 -0.32,-0.4375 -0.84,-0.9844 -1.61,-0.9844 -0.89,0 -0.96,0.875 -0.96,1.3125 0,0.9063 0.42,2.125 0.86,3.2656 0.17,0.4687 0.26,0.6877 0.26,0.9997 0,0.672 -0.47,1.282 -1.25,1.282 -1.47,0 -2.06,-2.3129 -2.06,-2.4379 0,-0.0625 0.08,-0.1406 0.19,-0.1406 0.14,0 0.15,0.0625 0.22,0.2812 0.37,1.3443 0.98,1.9693 1.6,1.9693 0.14,0 0.41,0 0.41,-0.516 0,-0.422 -0.17,-0.875 -0.41,-1.4845 -0.78,-2.0782 -0.78,-2.6094 -0.78,-2.9844 0,-1.5156 1.08,-1.8594 1.88,-1.8594 0.45,0 1.03,0.1406 1.59,0.7344 l 0.02,-0.0156 C 224.94,4.543 224.78,3.918 224.23,3.1367 z"
   id="path47"
   inkscape:connector-curvature="0"
   style="fill:#000000;stroke-width:0" />
<path
   d="m 231.32,4.8555 0,0.0857 0,0.0843 -0.01,0.0827 0,0.0811 -0.01,0.0794 -0.01,0.0776 -0.01,0.0758 -0.02,0.0737 -0.01,0.0718 -0.02,0.0696 -0.02,0.0675 -0.02,0.0651 -0.02,0.0628 -0.03,0.0603 -0.02,0.0578 -0.03,0.0552 -0.03,0.0524 -0.03,0.0497 -0.04,0.0468 -0.03,0.0439 -0.04,0.0408 -0.04,0.0378 -0.04,0.0345 -0.05,0.0312 -0.04,0.0279 -0.05,0.0244 -0.05,0.0209 -0.05,0.0173 -0.06,0.0136 -0.05,0.0098 -0.06,0.0059 -0.06,0.002 c -0.5,0 -0.77,-0.4218 -0.77,-0.7656 0,-0.3594 0.25,-0.7812 0.78,-0.7812 0.22,0 0.39,0.0625 0.53,0.2031 0.04,0.0312 0.05,0.0312 0.07,0.0312 0.03,0 0.03,-0.2187 0.03,-0.2968 0,-0.5313 -0.1,-1.5625 -1.02,-2.5938 -0.17,-0.1875 -0.17,-0.2187 -0.17,-0.25 0,-0.0781 0.08,-0.1562 0.16,-0.1562 0.12,0 1.34,1.1718 1.34,3 z"
   id="path49"
   inkscape:connector-curvature="0"
   style="fill:#000000;stroke-width:0" />
<path
   d="m 242.75,11.402 -0.04,-0.009 -0.05,-0.011 -0.04,-0.013 -0.04,-0.014 -0.04,-0.016 -0.04,-0.017 -0.03,-0.018 -0.04,-0.019 -0.03,-0.021 -0.03,-0.021 -0.03,-0.023 -0.03,-0.024 -0.02,-0.024 -0.03,-0.025 -0.02,-0.026 -0.03,-0.027 -0.02,-0.028 -0.01,-0.028 -0.02,-0.028 -0.02,-0.029 -0.01,-0.029 -0.02,-0.03 -0.01,-0.03 -0.01,-0.03 -0.01,-0.03 -0.01,-0.031 0,-0.03 -0.01,-0.03 0,-0.031 -0.01,-0.03 0,-0.029 0,-0.03 c 0,-0.375 0.31,-0.5 0.53,-0.5 0.47,0 0.82,0.406 0.82,0.844 0,0.656 -0.77,0.969 -1.44,0.969 -0.97,0 -1.5,-0.953 -1.64,-1.266 -0.38,1.203 -1.36,1.266 -1.64,1.266 -1.63,0 -2.49,-2.0942 -2.49,-2.4379 0,-0.0625 0.06,-0.1406 0.17,-0.1406 0.13,0 0.16,0.0937 0.19,0.1562 0.55,1.7653 1.61,2.0943 2.08,2.0943 0.7,0 0.86,-0.657 0.86,-1.047 0,-0.344 -0.09,-0.7192 -0.3,-1.4692 l -0.53,-2.1875 c -0.25,-0.9531 -0.7,-1.8281 -1.55,-1.8281 -0.07,0 -0.46,0 -0.81,0.2031 0.58,0.125 0.7,0.5938 0.7,0.7813 0,0.3281 -0.23,0.5156 -0.54,0.5156 -0.38,0 -0.8,-0.3437 -0.8,-0.8437 0,-0.6719 0.75,-0.9688 1.44,-0.9688 0.76,0 1.3,0.5938 1.64,1.25 0.25,-0.9375 1.05,-1.25 1.64,-1.25 1.61,0 2.47,2.0781 2.47,2.4219 0,0.0937 -0.06,0.1562 -0.16,0.1562 -0.14,0 -0.15,-0.0781 -0.2,-0.2187 -0.44,-1.3906 -1.36,-2.0469 -2.06,-2.0469 -0.57,0 -0.86,0.4219 -0.86,1.0625 0,0.3594 0.06,0.6094 0.31,1.6563 l 0.56,2.1562 c 0.24,0.9528 0.77,1.6568 1.5,1.6568 0.03,0 0.49,0 0.81,-0.204 z"
   id="path51"
   inkscape:connector-curvature="0"
   style="fill:#000000;stroke-width:0" />
<path
   d="m 248.57,8.8711 0,0.1164 0,0.1207 0,0.1247 0,0.1287 -0.01,0.1324 -0.01,0.136 -0.01,0.2821 -0.03,0.2949 -0.03,0.305 -0.04,0.316 -0.06,0.324 -0.06,0.332 -0.07,0.338 -0.09,0.342 -0.09,0.346 -0.12,0.348 -0.06,0.174 -0.06,0.175 -0.07,0.174 -0.07,0.174 -0.08,0.174 -0.08,0.173 c -0.94,1.907 -2.25,2.938 -2.43,2.938 -0.06,0 -0.14,-0.031 -0.14,-0.125 0,-0.047 0,-0.078 0.27,-0.36 1.59,-1.593 2.48,-4.218 2.48,-7.4683 0,-3.0781 -0.75,-5.7344 -2.59,-7.6094 -0.16,-0.1406 -0.16,-0.1718 -0.16,-0.2187 0,-0.09376 0.08,-0.12501 0.14,-0.12501 0.21,0 1.52,1.14061 2.3,2.70311 0.8,1.6094 1.17,3.3281 1.17,5.2344 z"
   id="path53"
   inkscape:connector-curvature="0"
   style="fill:#000000;stroke-width:0" />
</g></svg>
