<?xml version="1.0" encoding="UTF-8" standalone="no"?>
<svg
   xmlns:dc="http://purl.org/dc/elements/1.1/"
   xmlns:cc="http://creativecommons.org/ns#"
   xmlns:rdf="http://www.w3.org/1999/02/22-rdf-syntax-ns#"
   xmlns:svg="http://www.w3.org/2000/svg"
   xmlns="http://www.w3.org/2000/svg"
   xmlns:sodipodi="http://sodipodi.sourceforge.net/DTD/sodipodi-0.dtd"
   xmlns:inkscape="http://www.inkscape.org/namespaces/inkscape"
   version="1.1"
   id="body"
   width="253.24057"
   height="44.374718"
   viewBox="0 0 0.35172301 0.061631552"
   preserveAspectRatio="none"
   inkscape:version="0.48.3.1 r9886"
   sodipodi:docname="ch3-Z-G-37.svg">
  <metadata
     id="metadata63">
    <rdf:RDF>
      <cc:Work
         rdf:about="">
        <dc:format>image/svg+xml</dc:format>
        <dc:type
           rdf:resource="http://purl.org/dc/dcmitype/StillImage" />
      </cc:Work>
    </rdf:RDF>
  </metadata>
  <defs
     id="defs61" />
  <sodipodi:namedview
     pagecolor="#ffffff"
     bordercolor="#666666"
     borderopacity="1"
     objecttolerance="10"
     gridtolerance="10"
     guidetolerance="10"
     inkscape:pageopacity="0"
     inkscape:pageshadow="2"
     inkscape:window-width="640"
     inkscape:window-height="480"
     id="namedview59"
     showgrid="false"
     inkscape:zoom="0.32777778"
     inkscape:cx="382.10938"
     inkscape:cy="459.95432"
     inkscape:window-x="0"
     inkscape:window-y="24"
     inkscape:window-maximized="0"
     inkscape:current-layer="body" />
  <title
     id="title3">SVG drawing</title>
  <desc
     id="desc5">This was produced by version 4.4 of GNU libplot, a free library for exporting 2-D vector graphics.</desc>
  <g
     id="content"
     transform="matrix(0.0017361,0,0,-0.0017361,-5.4253125e-4,0.0615773)"
     xml:space="preserve"
     stroke-miterlimit="10.433"
     font-style="normal"
     font-variant="normal"
     font-weight="normal"
     font-stretch="normal"
     font-size-adjust="none"
     letter-spacing="normal"
     word-spacing="normal"
     style="font-style:normal;font-variant:normal;font-weight:normal;font-stretch:normal;letter-spacing:normal;word-spacing:normal;text-anchor:start;fill:none;stroke:#000000;stroke-linecap:butt;stroke-linejoin:miter;stroke-miterlimit:10.43299961;stroke-opacity:1;stroke-dasharray:none;stroke-dashoffset:0">
<path
   d="m 5.9336,17.258 -0.0288,0 -0.0279,0 -0.0269,0 -0.026,-10e-4 -0.0253,0 -0.0244,0 L 5.7506,17.256 5.7275,17.255 5.7051,17.254 5.6833,17.252 5.6621,17.25 5.6414,17.248 5.6211,17.245 5.6012,17.242 5.5817,17.238 5.5625,17.234 5.5436,17.23 5.5249,17.224 5.5064,17.219 5.488,17.212 5.4698,17.205 5.4515,17.197 5.4333,17.188 5.415,17.179 5.3967,17.168 5.3782,17.157 5.3595,17.145 5.3406,17.132 5.3214,17.118 5.3019,17.103 5.282,17.087 5.2617,17.07 C 5.168,16.992 4.9961,16.758 4.9961,16.508 c 0,-0.328 0.2344,-0.516 0.5312,-0.516 0.3907,0 0.8125,0.313 0.8125,0.953 0,0.766 -0.7343,1.36 -1.8281,1.36 -2.0781,0 -4.15623,-2.282 -4.15623,-4.532 0,-1.39 0.85933,-2.64 2.46873,-2.64 2.1719,0 3.5313,1.687 3.5313,1.89 0,0.094 -0.0938,0.172 -0.1563,0.172 -0.0469,0 -0.0625,-0.015 -0.2031,-0.156 -1.0156,-1.359 -2.5313,-1.594 -3.1406,-1.594 -1.0938,0 -1.4375,0.953 -1.4375,1.75 0,0.563 0.2656,2.094 0.8437,3.188 0.4063,0.734 1.2656,1.594 2.2656,1.594 0.2032,0 1.0782,-0.032 1.4063,-0.719 z"
   id="path9"
   inkscape:connector-curvature="0"
   style="fill:#000000;stroke-width:0" />
<path
   d="m 13.676,15.664 -0.003,0.14 -0.009,0.137 -0.014,0.135 -0.019,0.132 -0.025,0.13 -0.031,0.127 -0.035,0.124 -0.041,0.121 -0.045,0.117 -0.051,0.114 -0.055,0.111 -0.06,0.107 -0.065,0.103 -0.069,0.099 -0.074,0.095 -0.078,0.091 -0.082,0.086 -0.087,0.082 -0.09,0.077 -0.095,0.073 -0.098,0.067 -0.102,0.062 -0.106,0.057 -0.11,0.052 -0.113,0.046 -0.116,0.041 -0.12,0.034 -0.123,0.029 -0.126,0.022 -0.129,0.017 -0.132,0.009 -0.135,0.004 c -2.0935,0 -4.156,-2.297 -4.156,-4.532 0,-1.515 0.9844,-2.64 2.4219,-2.64 l 0.0156,0.312 c -0.7968,0 -1.375,0.641 -1.375,1.75 0,0.735 0.375,2.36 0.8282,3.141 0.7187,1.234 1.5933,1.641 2.2503,1.641 0.781,0 1.39,-0.625 1.39,-1.75 0,-0.625 -0.344,-2.329 -0.937,-3.297 -0.657,-1.063 -1.532,-1.485 -2.1565,-1.485 h 0 L 9.5039,11.133 c 2.1251,0 4.1721,2.281 4.1721,4.531 z"
   id="path11"
   inkscape:connector-curvature="0"
   style="fill:#000000;stroke-width:0" />
<path
   d="m 17.551,14.461 0.025,-0.005 0.026,-0.004 0.028,-0.005 0.027,-0.006 0.029,-0.005 0.029,-0.006 0.059,-0.011 0.06,-0.012 0.061,-0.012 0.06,-0.012 0.059,-0.012 0.028,-0.006 0.028,-0.005 0.028,-0.006 0.026,-0.005 0.026,-0.006 0.025,-0.005 0.023,-0.004 0.023,-0.005 0.021,-0.004 0.02,-0.004 0.019,-0.004 0.016,-0.003 0.016,-0.003 0.013,-0.002 0.012,-0.003 0.01,-10e-4 c 0.203,-0.063 0.922,-0.313 0.922,-1.078 0,-0.485 -0.454,-1.782 -2.297,-1.782 -0.328,0 -1.516,0.047 -1.844,0.922 0.64,-0.078 0.953,0.422 0.953,0.766 0,0.328 -0.219,0.515 -0.531,0.515 -0.36,0 -0.813,-0.281 -0.813,-1 0,-0.937 0.953,-1.515 2.219,-1.515 2.422,0 3.141,1.781 3.141,2.609 0,0.235 0,0.672 -0.516,1.188 -0.391,0.375 -0.781,0.453 -1.641,0.64 -0.421,0.094 -1.109,0.235 -1.109,0.953 0,0.313 0.281,1.454 1.797,1.454 0.672,0 1.328,-0.25 1.484,-0.829 -0.703,0 -0.734,-0.593 -0.734,-0.609 0,-0.344 0.297,-0.437 0.437,-0.437 0.235,0 0.672,0.171 0.672,0.843 0,0.672 -0.609,1.36 -1.843,1.36 -2.079,0 -2.641,-1.641 -2.641,-2.297 0,-1.203 1.187,-1.453 1.547,-1.547 z"
   id="path13"
   inkscape:connector-curvature="0"
   style="fill:#000000;stroke-width:0" />
<path
   d="M 31.473,17.773 31.427,17.764 31.382,17.753 31.34,17.74 31.299,17.726 31.26,17.71 31.222,17.693 31.186,17.675 31.152,17.656 31.119,17.635 31.088,17.614 31.058,17.591 31.03,17.567 31.004,17.543 30.979,17.518 30.956,17.492 30.934,17.465 30.913,17.437 30.894,17.409 30.876,17.381 30.86,17.352 l -0.015,-0.029 -0.013,-0.03 -0.012,-0.03 -0.011,-0.03 -0.009,-0.03 -0.008,-0.031 -0.007,-0.03 -0.006,-0.03 -0.004,-0.031 -0.003,-0.03 -0.002,-0.029 0,-0.03 c 0,-0.375 0.312,-0.5 0.531,-0.5 0.469,0 0.812,0.406 0.812,0.844 0,0.656 -0.765,0.969 -1.437,0.969 -0.969,0 -1.5,-0.953 -1.641,-1.266 -0.375,1.203 -1.359,1.266 -1.64,1.266 -1.625,0 -2.485,-2.094 -2.485,-2.438 0,-0.062 0.063,-0.14 0.172,-0.14 0.125,0 0.156,0.093 0.188,0.156 0.546,1.765 1.609,2.094 2.078,2.094 0.703,0 0.859,-0.657 0.859,-1.047 0,-0.344 -0.094,-0.719 -0.297,-1.469 l -0.531,-2.188 c -0.25,-0.953 -0.703,-1.828 -1.547,-1.828 -0.078,0 -0.469,0 -0.812,0.203 0.578,0.125 0.703,0.594 0.703,0.782 0,0.328 -0.235,0.515 -0.547,0.515 -0.375,0 -0.797,-0.343 -0.797,-0.843 0,-0.672 0.75,-0.969 1.437,-0.969 0.766,0 1.297,0.594 1.641,1.25 0.25,-0.938 1.047,-1.25 1.641,-1.25 1.609,0 2.468,2.078 2.468,2.422 0,0.093 -0.062,0.156 -0.156,0.156 -0.14,0 -0.156,-0.078 -0.203,-0.219 -0.437,-1.39 -1.359,-2.047 -2.062,-2.047 -0.563,0 -0.86,0.422 -0.86,1.063 0,0.359 0.063,0.609 0.313,1.656 l 0.562,2.156 c 0.235,0.953 0.766,1.657 1.5,1.657 0.031,0 0.485,0 0.813,-0.204 z"
   id="path15"
   inkscape:connector-curvature="0"
   style="fill:#000000;stroke-width:0" />
<path
   d="m 47.977,16.445 0.041,0 0.043,0.001 0.043,10e-4 0.022,0.001 0.021,0.002 0.021,0.002 0.021,0.002 0.021,0.003 0.021,0.003 0.02,0.004 0.02,0.005 0.019,0.005 0.019,0.006 0.018,0.007 0.017,0.008 0.016,0.009 0.016,0.01 0.015,0.011 0.014,0.012 0.012,0.013 0.012,0.014 0.006,0.008 0.005,0.007 0.005,0.009 0.004,0.008 0.004,0.009 0.004,0.009 0.004,0.01 0.003,0.01 0.003,0.01 0.002,0.011 0.003,0.011 10e-4,0.011 0.002,0.012 10e-4,0.012 0,0.013 10e-4,0.013 c 0,0.296 -0.266,0.296 -0.5,0.296 h -9.375 c -0.219,0 -0.5,0 -0.5,-0.281 0,-0.297 0.265,-0.297 0.5,-0.297 z"
   id="path17"
   inkscape:connector-curvature="0"
   style="fill:#000000;stroke-width:0" />
<path
   d="m 47.977,13.477 0.041,0 0.043,0 0.043,0.002 0.022,0.001 0.021,10e-4 0.021,0.002 0.021,0.003 0.021,0.003 0.021,0.003 0.02,0.004 0.02,0.005 0.019,0.006 0.019,0.007 0.018,0.007 0.017,0.008 0.016,0.01 0.016,0.01 0.015,0.011 0.014,0.013 0.012,0.014 0.012,0.015 0.006,0.008 0.005,0.008 0.005,0.009 0.004,0.009 0.004,0.009 0.004,0.01 0.004,0.01 0.003,0.01 0.003,0.011 0.002,0.012 0.003,0.011 10e-4,0.012 0.002,0.013 10e-4,0.012 0,0.014 10e-4,0.013 c 0,0.297 -0.266,0.297 -0.5,0.297 h -9.375 c -0.219,0 -0.5,0 -0.5,-0.281 0,-0.312 0.265,-0.312 0.5,-0.312 z"
   id="path19"
   inkscape:connector-curvature="0"
   style="fill:#000000;stroke-width:0" />
<path
   d="m 58.387,21.477 0,0.016 0,0.016 0,0.016 0,0.015 0,0.015 -10e-4,0.014 0,0.014 0,0.013 0,0.013 0,0.012 -0.001,0.012 0,0.012 -10e-4,0.011 -10e-4,0.01 0,0.011 -0.001,0.01 -10e-4,0.009 -10e-4,0.01 -0.001,0.008 -0.002,0.009 -0.001,0.008 -0.002,0.008 -0.002,0.007 -0.002,0.007 -0.004,0.013 -0.005,0.012 -0.006,0.011 -0.007,0.01 -0.008,0.008 -0.009,0.008 -0.01,0.007 -0.011,0.006 -0.012,0.005 -0.013,0.004 -0.014,0.004 -0.008,10e-4 -0.008,0.002 -0.009,10e-4 -0.008,0.001 -0.009,0.001 -0.01,10e-4 -0.01,0.001 -0.01,0 -0.011,0.001 -0.011,0 -0.011,10e-4 -0.012,0 -0.012,0 -0.013,0 -0.013,0 -0.013,0.001 -0.014,0 -0.015,0 c -0.39,-0.422 -1.187,-1.016 -2.812,-1.016 v -0.453 c 0.359,0 1.156,0 2.031,0.406 v -8.281 c 0,-0.563 -0.047,-0.766 -1.453,-0.766 h -0.485 v -0.453 c 0.422,0.031 1.969,0.031 2.485,0.031 0.531,0 2.062,0 2.484,-0.031 v 0.453 H 59.84 c -1.406,0 -1.453,0.203 -1.453,0.766 z"
   id="path21"
   inkscape:connector-curvature="0"
   style="fill:#000000;stroke-width:0" />
<path
   d="m 75.625,14.945 0.053,0 0.052,10e-4 0.051,10e-4 0.026,0.002 0.025,10e-4 0.024,0.002 0.024,0.003 0.024,0.003 0.023,0.004 0.022,0.004 0.022,0.005 0.021,0.006 0.02,0.007 0.019,0.008 0.019,0.009 0.017,0.01 0.017,0.011 0.015,0.012 0.015,0.013 0.013,0.014 0.012,0.016 0.011,0.017 0.005,0.009 0.005,0.01 0.004,0.01 0.004,0.01 0.004,0.011 0.003,0.011 0.003,0.011 0.002,0.012 0.002,0.012 0.002,0.013 0.002,0.013 10e-4,0.013 0,0.014 0.001,0.015 c 0,0.328 -0.282,0.328 -0.563,0.328 h -8.594 c -0.265,0 -0.562,0 -0.562,-0.328 0,-0.313 0.297,-0.313 0.562,-0.313 z"
   id="path23"
   inkscape:connector-curvature="0"
   style="fill:#000000;stroke-width:0" />
<path
   d="M 89.82,28.559 89.774,28.549 89.73,28.538 89.687,28.525 89.647,28.511 89.607,28.495 89.57,28.478 89.534,28.46 89.5,28.441 89.467,28.42 l -0.031,-0.021 -0.03,-0.023 -0.028,-0.023 -0.026,-0.025 -0.025,-0.025 -0.024,-0.026 -0.022,-0.027 -0.02,-0.027 -0.019,-0.028 -0.018,-0.029 -0.016,-0.029 -0.015,-0.029 -0.013,-0.03 -0.013,-0.03 -0.01,-0.03 -0.01,-0.03 -0.008,-0.031 -0.007,-0.03 -0.005,-0.03 -0.004,-0.03 -0.003,-0.03 -0.002,-0.03 -10e-4,-0.03 c 0,-0.375 0.313,-0.5 0.531,-0.5 0.469,0 0.813,0.407 0.813,0.844 0,0.656 -0.766,0.969 -1.438,0.969 -0.968,0 -1.5,-0.953 -1.64,-1.266 -0.375,1.203 -1.36,1.266 -1.641,1.266 -1.625,0 -2.484,-2.094 -2.484,-2.438 0,-0.062 0.062,-0.14 0.172,-0.14 0.125,0 0.156,0.093 0.187,0.156 0.547,1.766 1.61,2.094 2.078,2.094 0.703,0 0.86,-0.657 0.86,-1.047 0,-0.344 -0.094,-0.719 -0.297,-1.469 l -0.531,-2.187 c -0.25,-0.954 -0.704,-1.829 -1.547,-1.829 -0.078,0 -0.469,0 -0.813,0.204 0.578,0.125 0.703,0.593 0.703,0.781 0,0.328 -0.234,0.515 -0.547,0.515 -0.375,0 -0.796,-0.343 -0.796,-0.843 0,-0.672 0.75,-0.969 1.437,-0.969 0.766,0 1.297,0.594 1.641,1.25 0.25,-0.938 1.047,-1.25 1.64,-1.25 1.61,0 2.469,2.078 2.469,2.422 0,0.094 -0.062,0.156 -0.156,0.156 -0.141,0 -0.156,-0.078 -0.203,-0.219 -0.438,-1.39 -1.36,-2.047 -2.063,-2.047 -0.562,0 -0.859,0.422 -0.859,1.063 0,0.359 0.062,0.609 0.312,1.656 l 0.563,2.156 c 0.234,0.954 0.765,1.657 1.5,1.657 0.031,0 0.484,0 0.812,-0.203 z"
   id="path25"
   inkscape:connector-curvature="0"
   style="fill:#000000;stroke-width:0" />
<path
   d="m 92.582,28.719 1.172,1.156 c 1.75,1.531 2.422,2.141 2.422,3.25 0,1.266 -1.016,2.172 -2.375,2.172 -1.25,0 -2.078,-1.031 -2.078,-2.031 0,-0.625 0.547,-0.625 0.593,-0.625 0.188,0 0.579,0.14 0.579,0.593 0,0.297 -0.204,0.578 -0.594,0.578 -0.094,0 -0.11,0 -0.141,0 0.25,0.719 0.86,1.126 1.5,1.126 1.016,0 1.5,-0.891 1.5,-1.813 0,-0.891 -0.562,-1.781 -1.172,-2.469 l -2.14,-2.39 c -0.125,-0.11 -0.125,-0.141 -0.125,-0.407 h 4.14 l 0.313,1.938 h -0.281 c -0.063,-0.328 -0.141,-0.828 -0.25,-0.985 -0.079,-0.093 -0.813,-0.093 -1.063,-0.093 z"
   id="path27"
   inkscape:connector-curvature="0"
   style="fill:#000000;stroke-width:0" />
<line
   x1="82.289001"
   y1="15.273"
   x2="97.237999"
   y2="15.273"
   id="line29"
   style="stroke-width:0.63800001" />
<path
   d="M 92.859,3.0273 H 92.5 C 92.453,2.7617 92.328,1.8867 92.172,1.6211 92.062,1.4805 91.156,1.4805 90.672,1.4805 h -2.938 c 0.422,0.375 1.407,1.3906 1.813,1.7656 2.422,2.2344 3.312,3.0469 3.312,4.625 0,1.8281 -1.453,3.0469 -3.297,3.0469 -1.843,0 -2.921,-1.5625 -2.921,-2.9375 0,-0.8125 0.703,-0.8125 0.75,-0.8125 0.328,0 0.734,0.25 0.734,0.75 0,0.4531 -0.297,0.75 -0.734,0.75 -0.157,0 -0.188,0 -0.235,-0.0157 0.313,1.0782 1.172,1.8127 2.203,1.8127 1.344,0 2.172,-1.1252 2.172,-2.5939 0,-1.3438 -0.781,-2.5313 -1.687,-3.5469 L 86.641,0.73047 v -0.375 h 5.797 z"
   id="path31"
   inkscape:connector-curvature="0"
   style="fill:#000000;stroke-width:0" />
<path
   d="m 108.32,14.961 h 4.39 c 0.22,0 0.5,0 0.5,0.281 0,0.313 -0.27,0.313 -0.5,0.313 h -4.39 v 4.375 c 0,0.234 0,0.515 -0.28,0.515 -0.32,0 -0.32,-0.265 -0.32,-0.515 v -4.375 h -4.39 c -0.22,0 -0.5,0 -0.5,-0.297 0,-0.297 0.27,-0.297 0.5,-0.297 h 4.39 V 10.57 c 0,-0.218 0,-0.5 0.3,-0.5 0.3,0 0.3,0.266 0.3,0.5 z"
   id="path33"
   inkscape:connector-curvature="0"
   style="fill:#000000;stroke-width:0" />
<path
   d="m 142.13,28.559 -0.05,-0.01 -0.04,-0.011 -0.04,-0.013 -0.04,-0.014 -0.04,-0.016 -0.04,-0.017 -0.04,-0.018 -0.03,-0.019 -0.03,-0.021 -0.04,-0.021 -0.03,-0.023 -0.02,-0.023 -0.03,-0.025 -0.02,-0.025 -0.03,-0.026 -0.02,-0.027 -0.02,-0.027 -0.02,-0.028 -0.02,-0.029 -0.01,-0.029 -0.02,-0.029 -0.01,-0.03 -0.01,-0.03 -0.01,-0.03 -0.01,-0.03 -0.01,-0.031 -0.01,-0.03 0,-0.03 -0.01,-0.03 0,-0.03 0,-0.03 0,-0.03 c 0,-0.375 0.31,-0.5 0.53,-0.5 0.47,0 0.81,0.407 0.81,0.844 0,0.656 -0.77,0.969 -1.44,0.969 -0.97,0 -1.5,-0.953 -1.64,-1.266 -0.37,1.203 -1.36,1.266 -1.64,1.266 -1.62,0 -2.48,-2.094 -2.48,-2.438 0,-0.062 0.06,-0.14 0.17,-0.14 0.12,0 0.16,0.093 0.19,0.156 0.54,1.766 1.61,2.094 2.07,2.094 0.71,0 0.86,-0.657 0.86,-1.047 0,-0.344 -0.09,-0.719 -0.29,-1.469 l -0.53,-2.187 c -0.25,-0.954 -0.71,-1.829 -1.55,-1.829 -0.08,0 -0.47,0 -0.81,0.204 0.57,0.125 0.7,0.593 0.7,0.781 0,0.328 -0.23,0.515 -0.55,0.515 -0.37,0 -0.79,-0.343 -0.79,-0.843 0,-0.672 0.75,-0.969 1.43,-0.969 0.77,0 1.3,0.594 1.64,1.25 0.25,-0.938 1.05,-1.25 1.64,-1.25 1.61,0 2.47,2.078 2.47,2.422 0,0.094 -0.06,0.156 -0.15,0.156 -0.14,0 -0.16,-0.078 -0.21,-0.219 -0.43,-1.39 -1.36,-2.047 -2.06,-2.047 -0.56,0 -0.86,0.422 -0.86,1.063 0,0.359 0.06,0.609 0.31,1.656 l 0.57,2.156 c 0.23,0.954 0.76,1.657 1.5,1.657 0.03,0 0.48,0 0.81,-0.203 z"
   id="path35"
   inkscape:connector-curvature="0"
   style="fill:#000000;stroke-width:0" />
<path
   d="m 146.75,29.703 v -0.969 c 0,-0.406 -0.04,-0.531 -0.85,-0.531 h -0.23 v -0.344 c 0.45,0.032 1.03,0.032 1.5,0.032 0.47,0 1.06,0 1.51,-0.032 v 0.344 h -0.23 c -0.83,0 -0.85,0.125 -0.85,0.531 v 0.969 h 1.11 v 0.344 h -1.11 v 5.078 c 0,0.219 0,0.281 -0.18,0.281 -0.1,0 -0.13,0 -0.22,-0.125 l -3.42,-5.234 h 0.31 l 2.72,4.156 v -4.156 h -2.72 -0.31 v -0.344 z"
   id="path37"
   inkscape:connector-curvature="0"
   style="fill:#000000;stroke-width:0" />
<line
   x1="118.85"
   y1="15.273"
   x2="165.28999"
   y2="15.273"
   id="line39"
   style="stroke-width:0.63800001" />
<path
   d="m 124.59,10.699 0,0.015 0,0.014 0,0.014 0,0.013 0,0.026 0,0.025 0,0.023 -0.01,0.022 0,0.021 0,0.02 0,0.019 0,0.017 0,0.017 -0.01,0.015 0,0.014 0,0.014 -0.01,0.012 0,0.012 -0.01,0.01 0,0.01 -0.01,0.009 -0.01,0.008 -0.01,0.007 -0.01,0.006 -0.01,0.006 -0.01,0.005 -0.01,0.004 -0.01,0.004 -0.02,0.002 -0.01,0.003 -0.02,0.002 -0.01,0.001 -0.02,10e-4 -0.01,0 -0.01,0 c -0.13,0 -0.18,0 -0.3,-0.203 l -4.8,-7.4222 h 0.41 l 3.86,6 v -6 h -3.86 -0.41 V 3.0117 h 4.19 V 1.5586 c 0,-0.57813 -0.03,-0.75001 -1.19,-0.75001 h -0.33 V 0.35547 c 0.38,0.03125 1.63,0.03125 2.08,0.03125 0.44,0 1.71,0 2.08,-0.03125 v 0.45312 h -0.31 c -1.16,0 -1.2,0.17188 -1.2,0.75001 v 1.4531 h 1.6 v 0.4531 h -1.6 z"
   id="path41"
   inkscape:connector-curvature="0"
   style="fill:#000000;stroke-width:0" />
<path
   d="m 133.25,4.3242 -0.01,0.0437 0,0.043 0,0.0425 -0.01,0.0417 -0.01,0.0409 -0.01,0.0402 -0.01,0.0392 -0.02,0.0384 -0.02,0.0374 -0.02,0.0364 -0.02,0.0354 -0.02,0.0342 -0.02,0.033 -0.03,0.0319 -0.02,0.0305 -0.03,0.0293 -0.03,0.0278 -0.03,0.0265 -0.03,0.025 -0.03,0.0234 -0.04,0.0219 -0.03,0.0202 -0.04,0.0185 -0.04,0.0169 -0.04,0.015 -0.04,0.0132 -0.04,0.0113 -0.04,0.0093 -0.04,0.0074 -0.04,0.0053 -0.04,0.0033 -0.05,0.0011 c -0.45,0 -0.84,-0.375 -0.84,-0.8438 0,-0.4531 0.39,-0.8437 0.84,-0.8437 0.47,0 0.85,0.3906 0.85,0.8437 z"
   id="path43"
   inkscape:connector-curvature="0"
   style="fill:#000000;stroke-width:0" />
<path
   d="m 141.09,6.0586 -0.01,-7e-4 -0.01,-8e-4 -0.02,-7e-4 -0.01,-8e-4 -0.01,-7e-4 -0.01,-8e-4 -0.01,-8e-4 L 141,6.0525 140.98,6.0508 140.96,6.049 140.94,6.047 140.93,6.0449 140.91,6.0426 140.9,6.0401 140.88,6.0374 140.87,6.0344 140.86,6.0312 140.85,6.0276 140.84,6.0237 140.83,6.0195 140.82,6.0149 140.81,6.01 140.8,6.0046 l 0,-0.0058 -0.01,-0.0063 -0.01,-0.0068 0,-0.0072 0,-0.0078 -0.01,-0.0083 0,-0.0089 0,-0.0095 0,-0.0102 -0.01,-0.0107 0,-0.0114 0,-0.0122 0,-0.0128 c 0,-0.1562 0.08,-0.1562 0.36,-0.1562 h 0.73 c 1.35,0 1.96,-1.1094 1.96,-2.6407 0,-2.0781 -1.08,-2.64058 -1.86,-2.64058 -0.77,0 -2.06,0.35937 -2.53,1.42188 0.51,-0.0781 0.97,0.2031 0.97,0.7656 0,0.4688 -0.33,0.7813 -0.77,0.7813 -0.39,0 -0.8,-0.2188 -0.8,-0.8282 0,-1.4062 1.41,-2.562456 3.18,-2.562456 1.89,0 3.29,1.437456 3.29,3.046856 0,1.4688 -1.19,2.6094 -2.7,2.875 1.37,0.3906 2.26,1.5625 2.26,2.7969 0,1.25 -1.29,2.1719 -2.84,2.1719 -1.59,0 -2.76,-0.9688 -2.76,-2.125 0,-0.6407 0.5,-0.7657 0.73,-0.7657 0.33,0 0.72,0.25 0.72,0.7188 0,0.5156 -0.39,0.7344 -0.74,0.7344 -0.09,0 -0.12,0 -0.17,-0.0157 0.6,1.0782 2.1,1.0782 2.17,1.0782 0.54,0 1.57,-0.234 1.57,-1.7969 0,-0.2969 -0.05,-1.1875 -0.52,-1.875 -0.47,-0.7031 -1.01,-0.75 -1.44,-0.7656 z"
   id="path45"
   inkscape:connector-curvature="0"
   style="fill:#000000;stroke-width:0" />
<path
   d="m 152.56,4.3242 0,0.0437 0,0.043 -0.01,0.0425 0,0.0417 -0.01,0.0409 -0.02,0.0402 -0.01,0.0392 -0.01,0.0384 -0.02,0.0374 -0.02,0.0364 -0.02,0.0354 -0.02,0.0342 -0.02,0.033 -0.03,0.0319 -0.03,0.0305 -0.02,0.0293 -0.03,0.0278 -0.03,0.0265 -0.04,0.025 -0.03,0.0234 -0.03,0.0219 -0.04,0.0202 -0.03,0.0185 -0.04,0.0169 -0.04,0.015 -0.04,0.0132 -0.04,0.0113 -0.04,0.0093 -0.04,0.0074 -0.04,0.0053 -0.05,0.0033 -0.04,0.0011 c -0.45,0 -0.84,-0.375 -0.84,-0.8438 0,-0.4531 0.39,-0.8437 0.84,-0.8437 0.47,0 0.84,0.3906 0.84,0.8437 z"
   id="path47"
   inkscape:connector-curvature="0"
   style="fill:#000000;stroke-width:0" />
<path
   d="m 164.48,3.0273 h -0.36 C 164.08,2.7617 163.95,1.8867 163.8,1.6211 163.69,1.4805 162.78,1.4805 162.3,1.4805 h -2.94 c 0.42,0.375 1.41,1.3906 1.81,1.7656 2.42,2.2344 3.31,3.0469 3.31,4.625 0,1.8281 -1.45,3.0469 -3.29,3.0469 -1.85,0 -2.92,-1.5625 -2.92,-2.9375 0,-0.8125 0.7,-0.8125 0.75,-0.8125 0.32,0 0.73,0.25 0.73,0.75 0,0.4531 -0.3,0.75 -0.73,0.75 -0.16,0 -0.19,0 -0.24,-0.0157 0.31,1.0782 1.17,1.8127 2.2,1.8127 1.35,0 2.18,-1.1252 2.18,-2.5939 0,-1.3438 -0.78,-2.5313 -1.69,-3.5469 l -3.2,-3.59373 v -0.375 h 5.79 z"
   id="path49"
   inkscape:connector-curvature="0"
   style="fill:#000000;stroke-width:0" />
<path
   d="m 180.5,14.945 0.05,0 0.05,10e-4 0.05,10e-4 0.03,0.002 0.02,10e-4 0.03,0.002 0.02,0.003 0.02,0.003 0.03,0.004 0.02,0.004 0.02,0.005 0.02,0.006 0.02,0.007 0.02,0.008 0.02,0.009 0.02,0.01 0.01,0.011 0.02,0.012 0.02,0.013 0.01,0.014 0.01,0.016 0.01,0.017 0.01,0.009 0,0.01 0.01,0.01 0,0.01 0,0.011 0.01,0.011 0,0.011 0,0.012 0,0.012 0.01,0.013 0,0.013 0,0.013 0,0.014 0,0.015 c 0,0.328 -0.28,0.328 -0.56,0.328 h -8.6 c -0.26,0 -0.56,0 -0.56,-0.328 0,-0.313 0.3,-0.313 0.56,-0.313 z"
   id="path51"
   inkscape:connector-curvature="0"
   style="fill:#000000;stroke-width:0" />
<path
   d="m 188.89,12.055 0,0.042 -0.01,0.041 0,0.041 -0.01,0.039 -0.01,0.039 -0.01,0.038 -0.01,0.037 -0.02,0.036 -0.01,0.035 -0.02,0.034 -0.02,0.032 -0.02,0.032 -0.02,0.03 -0.03,0.03 -0.02,0.028 -0.03,0.026 -0.03,0.026 -0.03,0.024 -0.02,0.022 -0.03,0.021 -0.04,0.02 -0.03,0.018 -0.03,0.017 -0.03,0.015 -0.04,0.013 -0.03,0.012 -0.04,0.01 -0.03,0.008 -0.04,0.006 -0.04,0.005 -0.03,0.003 -0.04,10e-4 c -0.45,0 -0.78,-0.391 -0.78,-0.766 0,-0.468 0.39,-0.781 0.76,-0.781 0.47,0 0.79,0.375 0.79,0.766 z"
   id="path53"
   inkscape:connector-curvature="0"
   style="fill:#000000;stroke-width:0" />
<path
   d="m 195.88,12.055 0,0.042 0,0.041 -0.01,0.041 0,0.039 -0.01,0.039 -0.01,0.038 -0.02,0.037 -0.01,0.036 -0.02,0.035 -0.02,0.034 -0.02,0.032 -0.02,0.032 -0.02,0.03 -0.02,0.03 -0.03,0.028 -0.02,0.026 -0.03,0.026 -0.03,0.024 -0.03,0.022 -0.03,0.021 -0.03,0.02 -0.03,0.018 -0.03,0.017 -0.04,0.015 -0.03,0.013 -0.04,0.012 -0.03,0.01 -0.04,0.008 -0.03,0.006 -0.04,0.005 -0.04,0.003 -0.03,10e-4 c -0.46,0 -0.78,-0.391 -0.78,-0.766 0,-0.468 0.39,-0.781 0.76,-0.781 0.47,0 0.78,0.375 0.78,0.766 z"
   id="path55"
   inkscape:connector-curvature="0"
   style="fill:#000000;stroke-width:0" />
<path
   d="m 202.86,12.055 0,0.042 -0.01,0.041 0,0.041 -0.01,0.039 -0.01,0.039 -0.01,0.038 -0.01,0.037 -0.02,0.036 -0.01,0.035 -0.02,0.034 -0.02,0.032 -0.02,0.032 -0.02,0.03 -0.03,0.03 -0.02,0.028 -0.03,0.026 -0.02,0.026 -0.03,0.024 -0.03,0.022 -0.03,0.021 -0.03,0.02 -0.04,0.018 -0.03,0.017 -0.03,0.015 -0.04,0.013 -0.03,0.012 -0.04,0.01 -0.03,0.008 -0.04,0.006 -0.03,0.005 -0.04,0.003 -0.04,10e-4 c -0.45,0 -0.78,-0.391 -0.78,-0.766 0,-0.468 0.39,-0.781 0.77,-0.781 0.47,0 0.78,0.375 0.78,0.766 z"
   id="path57"
   inkscape:connector-curvature="0"
   style="fill:#000000;stroke-width:0" />
</g></svg>
