<?xml version="1.0" encoding="UTF-8" standalone="no"?>
<svg
   xmlns:dc="http://purl.org/dc/elements/1.1/"
   xmlns:cc="http://creativecommons.org/ns#"
   xmlns:rdf="http://www.w3.org/1999/02/22-rdf-syntax-ns#"
   xmlns:svg="http://www.w3.org/2000/svg"
   xmlns="http://www.w3.org/2000/svg"
   xmlns:sodipodi="http://sodipodi.sourceforge.net/DTD/sodipodi-0.dtd"
   xmlns:inkscape="http://www.inkscape.org/namespaces/inkscape"
   version="1.1"
   id="body"
   width="104.56964"
   height="113.00709"
   viewBox="0 0 0.14523561 0.15695429"
   preserveAspectRatio="none"
   inkscape:version="0.48.3.1 r9886"
   sodipodi:docname="ch3-Z-G-55.svg">
  <metadata
     id="metadata77">
    <rdf:RDF>
      <cc:Work
         rdf:about="">
        <dc:format>image/svg+xml</dc:format>
        <dc:type
           rdf:resource="http://purl.org/dc/dcmitype/StillImage" />
      </cc:Work>
    </rdf:RDF>
  </metadata>
  <defs
     id="defs75" />
  <sodipodi:namedview
     pagecolor="#ffffff"
     bordercolor="#666666"
     borderopacity="1"
     objecttolerance="10"
     gridtolerance="10"
     guidetolerance="10"
     inkscape:pageopacity="0"
     inkscape:pageshadow="2"
     inkscape:window-width="640"
     inkscape:window-height="480"
     id="namedview73"
     showgrid="false"
     inkscape:zoom="0.32777778"
     inkscape:cx="381.56251"
     inkscape:cy="459.32932"
     inkscape:window-x="0"
     inkscape:window-y="24"
     inkscape:window-maximized="0"
     inkscape:current-layer="body" />
  <title
     id="title3">SVG drawing</title>
  <desc
     id="desc5">This was produced by version 4.4 of GNU libplot, a free library for exporting 2-D vector graphics.</desc>
  <g
     id="content"
     transform="matrix(0.0017361,0,0,-0.0017361,-0.00130208,0.15776809)"
     xml:space="preserve"
     stroke-miterlimit="10.433"
     font-style="normal"
     font-variant="normal"
     font-weight="normal"
     font-stretch="normal"
     font-size-adjust="none"
     letter-spacing="normal"
     word-spacing="normal"
     style="font-style:normal;font-variant:normal;font-weight:normal;font-stretch:normal;letter-spacing:normal;word-spacing:normal;text-anchor:start;fill:none;stroke:#000000;stroke-linecap:butt;stroke-linejoin:miter;stroke-miterlimit:10.43299961;stroke-opacity:1;stroke-dasharray:none;stroke-dashoffset:0">
<path
   d="M 5.8125,80.883 5.8224,80.842 5.8332,80.801 5.8569,80.724 5.8837,80.65 5.9132,80.581 5.9453,80.515 5.9798,80.453 6.0166,80.394 6.0554,80.339 6.0962,80.287 6.1386,80.238 6.1827,80.193 6.2281,80.15 6.2747,80.111 6.3223,80.074 6.3708,80.041 6.4199,80.01 l 0.0497,-0.029 0.05,-0.025 0.0501,-0.024 0.0501,-0.021 0.05,-0.019 0.0495,-0.017 0.0491,-0.014 0.0482,-0.013 0.0475,-0.011 0.0463,-0.009 0.0451,-0.008 0.0437,-0.006 0.0421,-0.004 0.0403,-0.003 0.0384,-0.002 0.0362,0 c 0.5157,0 0.8907,0.328 1.1563,0.875 0.2656,0.562 0.4687,1.5 0.4687,1.547 0,0.093 -0.0624,0.156 -0.1562,0.156 -0.1406,0 -0.1562,-0.078 -0.2188,-0.328 -0.2968,-1.094 -0.5781,-1.938 -1.2187,-1.938 -0.4687,0 -0.4687,0.531 -0.4687,0.735 0,0.359 0.0468,0.531 0.2031,1.187 0.1093,0.438 0.2187,0.859 0.3125,1.313 L 7.8906,85.93 C 8,86.336 8,86.367 8,86.414 8,86.648 7.8125,86.805 7.5781,86.805 7.1094,86.805 7,86.414 6.9062,86.023 6.75,85.398 5.8906,81.977 5.7812,81.43 5.7656,81.43 5.1406,80.117 3.9844,80.117 3.1562,80.117 3,80.836 3,81.43 c 0,0.906 0.4375,2.172 0.8594,3.234 0.1875,0.516 0.2656,0.719 0.2656,1.031 0,0.688 -0.4844,1.282 -1.25,1.282 -1.4688,0 -2.0625,-2.313 -2.0625,-2.438 0,-0.062 0.07812,-0.141 0.1875,-0.141 0.1406,0 0.1562,0.063 0.2188,0.282 0.375,1.375 1,1.968 1.6093,1.968 0.1563,0 0.4063,-0.015 0.4063,-0.515 0,-0.422 -0.1719,-0.875 -0.4063,-1.485 -0.7031,-1.89 -0.7812,-2.5 -0.7812,-2.968 0,-1.625 1.2187,-1.875 1.875,-1.875 1.0156,0 1.5781,0.703 1.8906,1.078 z"
   id="path9"
   inkscape:connector-curvature="0"
   style="fill:#000000;stroke-width:0" />
<path
   d="m 15.07,81.367 0.106,0.024 0.107,0.027 0.108,0.029 0.108,0.033 0.108,0.036 0.107,0.039 0.108,0.043 0.106,0.045 0.106,0.048 0.104,0.05 0.102,0.054 0.101,0.057 0.098,0.059 0.096,0.062 0.094,0.065 0.09,0.067 0.087,0.071 0.083,0.072 0.079,0.076 0.076,0.078 0.071,0.08 0.066,0.083 0.061,0.085 0.056,0.088 0.051,0.09 0.044,0.093 0.039,0.095 0.032,0.097 0.026,0.099 0.018,0.102 0.012,0.104 0.003,0.105 c 0,0.954 -1.015,1.672 -2.468,1.672 h -3.188 c -0.219,0 -0.312,0 -0.312,-0.234 0,-0.109 0.093,-0.109 0.312,-0.109 0.016,0 0.235,0 0.422,-0.032 0.203,-0.015 0.297,-0.031 0.297,-0.172 0,-0.046 -0.016,-0.078 -0.047,-0.218 l -1.484,-5.985 c -0.125,-0.437 -0.141,-0.531 -1.016,-0.531 -0.2031,0 -0.3124,0 -0.3124,-0.219 0,-0.125 0.1406,-0.125 0.1562,-0.125 0.3122,0 1.0942,0.032 1.4062,0.032 0.313,0 1.109,-0.032 1.422,-0.032 0.094,0 0.219,0 0.219,0.219 0,0.125 -0.094,0.125 -0.313,0.125 -0.406,0 -0.719,0 -0.719,0.203 0,0.063 0.016,0.125 0.032,0.188 l 0.734,2.953 h 1.328 l -0.015,0.25 h -1.25 l 0.734,2.906 c 0.062,0.281 0.094,0.391 0.312,0.422 0.094,0.016 0.454,0.016 0.672,0.016 0.797,0 2.032,0 2.032,-1.11 0,-0.375 -0.172,-1.156 -0.61,-1.594 -0.297,-0.281 -0.875,-0.64 -1.89,-0.64 l 0.015,-0.25 c 1.016,0 1.219,-0.625 1.219,-1.016 0,-0.156 -0.094,-0.5 -0.156,-0.765 -0.078,-0.313 -0.188,-0.719 -0.188,-0.954 0,-1.203 1.344,-1.203 1.485,-1.203 0.953,0 1.343,1.125 1.343,1.282 0,0.14 -0.125,0.14 -0.125,0.14 -0.109,0 -0.125,-0.078 -0.156,-0.156 -0.281,-0.828 -0.75,-1.016 -1.016,-1.016 -0.359,0 -0.437,0.25 -0.437,0.688 0,0.344 0.062,0.906 0.109,1.265 0.016,0.157 0.047,0.375 0.047,0.532 0,0.843 -0.75,1.203 -1.047,1.312 z"
   id="path11"
   inkscape:connector-curvature="0"
   style="fill:#000000;stroke-width:0" />
<path
   d="m 36.152,85.117 0.042,0 0.043,10e-4 0.043,0.001 0.021,0.001 0.022,0.002 0.021,0.001 0.021,0.003 0.021,0.003 0.021,0.003 0.02,0.004 0.02,0.005 0.019,0.005 0.018,0.006 0.018,0.007 0.018,0.008 0.016,0.009 0.016,0.01 0.015,0.011 0.013,0.012 0.013,0.013 0.012,0.014 0.005,0.007 0.006,0.008 0.004,0.008 0.005,0.009 0.004,0.009 0.004,0.009 0.004,0.01 0.003,0.01 0.003,0.01 0.002,0.01 0.002,0.012 0.002,0.011 10e-4,0.012 0.001,0.012 10e-4,0.012 0,0.013 c 0,0.297 -0.265,0.297 -0.5,0.297 h -9.375 c -0.218,0 -0.5,0 -0.5,-0.281 0,-0.297 0.266,-0.297 0.5,-0.297 z"
   id="path13"
   inkscape:connector-curvature="0"
   style="fill:#000000;stroke-width:0" />
<path
   d="m 36.152,82.148 0.042,0 0.043,0.001 0.043,0.001 0.021,0.002 0.022,0.001 0.021,0.002 0.021,0.002 0.021,0.003 0.021,0.004 0.02,0.004 0.02,0.005 0.019,0.006 0.018,0.007 0.018,0.007 0.018,0.008 0.016,0.01 0.016,0.01 0.015,0.011 0.013,0.013 0.013,0.014 0.012,0.015 0.005,0.008 0.006,0.008 0.004,0.009 0.005,0.009 0.004,0.009 0.004,0.01 0.004,0.01 0.003,0.01 0.003,0.011 0.002,0.011 0.002,0.012 0.002,0.012 10e-4,0.012 0.001,0.013 10e-4,0.014 0,0.013 c 0,0.297 -0.265,0.297 -0.5,0.297 h -9.375 c -0.218,0 -0.5,0 -0.5,-0.281 0,-0.313 0.266,-0.313 0.5,-0.313 z"
   id="path15"
   inkscape:connector-curvature="0"
   style="fill:#000000;stroke-width:0" />
<path
   d="m 49.141,82.227 -10e-4,0.008 0,0.009 -10e-4,0.008 -0.001,0.008 -0.002,0.008 -0.002,0.008 -0.002,0.007 -0.003,0.008 -0.003,0.007 -0.003,0.006 -0.003,0.007 -0.004,0.006 -0.004,0.006 -0.005,0.006 -0.004,0.006 -0.005,0.005 -0.006,0.005 -0.005,0.005 -0.006,0.004 -0.006,0.004 -0.006,0.004 -0.007,0.003 -0.007,0.004 -0.007,0.003 -0.007,0.002 -0.007,0.002 -0.008,0.002 -0.008,0.002 -0.008,0.001 -0.008,0.001 -0.009,10e-4 -0.009,0 c -0.14,0 -0.156,-0.047 -0.25,-0.328 -0.406,-1.438 -1.062,-1.938 -1.578,-1.938 -0.187,0 -0.422,0.047 -0.422,0.531 0,0.422 0.188,0.907 0.375,1.375 l 1.11,2.954 c 0.047,0.14 0.156,0.421 0.156,0.718 0,0.672 -0.469,1.282 -1.25,1.282 -1.469,0 -2.063,-2.313 -2.063,-2.438 0,-0.062 0.079,-0.141 0.188,-0.141 0.141,0 0.156,0.063 0.219,0.282 0.375,1.343 0.984,1.968 1.609,1.968 0.141,0 0.406,-0.015 0.406,-0.515 0,-0.422 -0.203,-0.938 -0.328,-1.297 l -1.109,-2.953 c -0.109,-0.25 -0.203,-0.5 -0.203,-0.797 0,-0.719 0.5,-1.281 1.265,-1.281 1.453,0 2.032,2.312 2.032,2.422 z"
   id="path17"
   inkscape:connector-curvature="0"
   style="fill:#000000;stroke-width:0" />
<path
   d="m 49.016,89.883 -10e-4,0.022 -0.002,0.022 -0.002,0.023 -0.004,0.022 -0.005,0.023 -0.006,0.022 -0.007,0.023 -0.008,0.022 -0.01,0.022 -0.01,0.022 -0.011,0.022 -0.013,0.021 -0.013,0.021 -0.015,0.02 -0.015,0.019 -0.017,0.02 -0.018,0.018 -0.019,0.017 -0.019,0.017 -0.021,0.016 -0.022,0.015 -0.023,0.014 -0.024,0.013 -0.025,0.012 -0.026,0.01 -0.027,0.01 -0.028,0.008 -0.03,0.007 -0.03,0.005 -0.031,0.004 -0.032,0.003 -0.033,0 c -0.36,0 -0.781,-0.343 -0.781,-0.765 0,-0.391 0.343,-0.516 0.531,-0.516 0.422,0 0.797,0.406 0.797,0.766 z"
   id="path19"
   inkscape:connector-curvature="0"
   style="fill:#000000;stroke-width:0" />
<path
   d="m 55.762,81.367 0.106,0.024 0.107,0.027 0.107,0.029 0.108,0.033 0.108,0.036 0.108,0.039 0.107,0.043 0.107,0.045 0.105,0.048 0.104,0.05 0.103,0.054 0.1,0.057 0.099,0.059 0.096,0.062 0.093,0.065 0.09,0.067 0.087,0.071 0.083,0.072 0.08,0.076 0.075,0.078 0.071,0.08 0.066,0.083 0.062,0.085 0.056,0.088 0.05,0.09 0.045,0.093 0.038,0.095 0.033,0.097 0.025,0.099 0.019,0.102 0.011,0.104 0.004,0.105 c 0,0.954 -1.016,1.672 -2.469,1.672 h -3.187 c -0.219,0 -0.313,0 -0.313,-0.234 0,-0.109 0.094,-0.109 0.313,-0.109 0.015,0 0.234,0 0.421,-0.032 0.204,-0.015 0.297,-0.031 0.297,-0.172 0,-0.046 -0.015,-0.078 -0.047,-0.218 l -1.484,-5.985 c -0.125,-0.437 -0.141,-0.531 -1.016,-0.531 -0.203,0 -0.312,0 -0.312,-0.219 0,-0.125 0.141,-0.125 0.156,-0.125 0.313,0 1.094,0.032 1.406,0.032 0.313,0 1.11,-0.032 1.422,-0.032 0.094,0 0.219,0 0.219,0.219 0,0.125 -0.094,0.125 -0.312,0.125 -0.407,0 -0.719,0 -0.719,0.203 0,0.063 0.015,0.125 0.031,0.188 l 0.734,2.953 h 1.329 l -0.016,0.25 h -1.25 l 0.734,2.906 c 0.063,0.281 0.094,0.391 0.313,0.422 0.094,0.016 0.453,0.016 0.672,0.016 0.797,0 2.031,0 2.031,-1.11 0,-0.375 -0.172,-1.156 -0.609,-1.594 -0.297,-0.281 -0.875,-0.64 -1.891,-0.64 l 0.016,-0.25 c 1.015,0 1.218,-0.625 1.218,-1.016 0,-0.156 -0.093,-0.5 -0.156,-0.765 -0.078,-0.313 -0.187,-0.719 -0.187,-0.954 0,-1.203 1.343,-1.203 1.484,-1.203 0.953,0 1.344,1.125 1.344,1.282 0,0.14 -0.125,0.14 -0.125,0.14 -0.11,0 -0.125,-0.078 -0.157,-0.156 -0.281,-0.828 -0.75,-1.016 -1.015,-1.016 -0.36,0 -0.438,0.25 -0.438,0.688 0,0.344 0.063,0.906 0.11,1.265 0.015,0.157 0.047,0.375 0.047,0.532 0,0.843 -0.75,1.203 -1.047,1.312 z"
   id="path21"
   inkscape:connector-curvature="0"
   style="fill:#000000;stroke-width:0" />
<path
   d="m 69.742,85.367 0.183,0.042 0.181,0.047 0.178,0.052 0.174,0.056 0.172,0.061 0.168,0.065 0.164,0.069 0.16,0.074 0.156,0.077 0.152,0.081 0.147,0.084 0.143,0.088 0.137,0.091 0.133,0.095 0.127,0.097 0.121,0.101 0.116,0.103 0.11,0.106 0.103,0.108 0.098,0.111 0.09,0.112 0.084,0.115 0.077,0.117 0.069,0.118 0.063,0.12 0.054,0.121 0.047,0.123 0.038,0.124 0.031,0.125 0.022,0.126 0.013,0.127 0.005,0.127 c 0,1.25 -1.266,2.39 -3.469,2.39 h -4.312 c -0.313,0 -0.454,0 -0.454,-0.312 0,-0.156 0.11,-0.156 0.407,-0.156 0.953,0 0.953,-0.125 0.953,-0.297 0,-0.032 0,-0.125 -0.063,-0.36 l -2.14,-8.562 c -0.141,-0.547 -0.172,-0.719 -1.282,-0.719 -0.359,0 -0.468,0 -0.468,-0.297 0,-0.156 0.172,-0.156 0.218,-0.156 0.282,0 0.625,0.031 0.922,0.031 h 1.875 c 0.282,0 0.625,-0.031 0.907,-0.031 0.125,0 0.296,0 0.296,0.297 0,0.156 -0.14,0.156 -0.375,0.156 -0.968,0 -0.968,0.141 -0.968,0.297 0,0.016 0,0.125 0.031,0.25 l 1.062,4.281 h 1.907 l -0.032,0.313 h -1.796 l 1.046,4.187 c 0.141,0.578 0.219,0.61 0.829,0.61 h 1.14 c 1.375,0 2.391,-0.407 2.391,-1.657 0,-0.797 -0.406,-3.14 -3.61,-3.14 l 0.032,-0.313 c 1.515,0 1.797,-0.953 1.797,-1.484 0,-0.235 -0.157,-0.86 -0.266,-1.266 -0.172,-0.734 -0.219,-0.906 -0.219,-1.219 0,-1.125 0.922,-1.64 1.985,-1.64 1.281,0 1.843,1.562 1.843,1.797 0,0.109 -0.078,0.156 -0.172,0.156 -0.14,0 -0.171,-0.094 -0.203,-0.219 -0.375,-1.14 -1.031,-1.422 -1.422,-1.422 -0.406,0 -0.656,0.172 -0.656,0.891 0,0.375 0.188,1.828 0.203,1.906 0.078,0.594 0.078,0.656 0.078,0.781 0,1.157 -0.937,1.657 -1.531,1.844 z"
   id="path23"
   inkscape:connector-curvature="0"
   style="fill:#000000;stroke-width:0" />
<path
   d="m 6.7773,49.305 0.01,-0.042 0.0107,-0.04 0.0238,-0.077 0.0267,-0.074 0.0295,-0.069 0.0321,-0.066 0.0345,-0.063 0.0368,-0.058 0.0389,-0.055 0.0407,-0.052 0.0425,-0.049 0.044,-0.045 0.0454,-0.043 0.0466,-0.039 0.0476,-0.037 0.0485,-0.033 0.0492,-0.031 0.0496,-0.029 0.05,-0.026 0.0502,-0.023 0.0501,-0.021 0.0499,-0.019 0.0496,-0.017 0.049,-0.014 0.0483,-0.013 0.0474,-0.011 0.0463,-0.009 0.0451,-0.008 0.0437,-0.006 0.0421,-0.004 0.0403,-0.003 0.0384,-0.002 0.0363,0 c 0.5156,0 0.8906,0.328 1.1562,0.875 0.2657,0.562 0.4688,1.5 0.4688,1.546 0,0.094 -0.0625,0.157 -0.1563,0.157 -0.1406,0 -0.1562,-0.078 -0.2187,-0.328 -0.2969,-1.094 -0.5781,-1.938 -1.2188,-1.938 -0.4687,0 -0.4687,0.531 -0.4687,0.734 0,0.36 0.0469,0.532 0.2031,1.188 0.1094,0.437 0.2188,0.859 0.3125,1.312 l 0.6563,2.579 c 0.1093,0.406 0.1093,0.437 0.1093,0.484 0,0.234 -0.1875,0.391 -0.4218,0.391 -0.4688,0 -0.5782,-0.391 -0.6719,-0.782 -0.1563,-0.625 -1.0156,-4.047 -1.125,-4.593 -0.0156,0 -0.6406,-1.313 -1.7969,-1.313 -0.8281,0 -0.9844,0.719 -0.9844,1.313 0,0.906 0.4375,2.171 0.8594,3.234 0.1875,0.516 0.2656,0.719 0.2656,1.031 0,0.688 -0.4843,1.281 -1.25,1.281 -1.4687,0 -2.0625,-2.312 -2.0625,-2.437 0,-0.063 0.0782,-0.141 0.1875,-0.141 0.1407,0 0.1563,0.063 0.2188,0.282 0.375,1.375 1,1.968 1.6094,1.968 0.1562,0 0.4062,-0.015 0.4062,-0.515 0,-0.422 -0.1719,-0.875 -0.4062,-1.485 -0.7032,-1.89 -0.7813,-2.5 -0.7813,-2.968 0,-1.625 1.2188,-1.875 1.875,-1.875 1.0156,0 1.5781,0.703 1.8906,1.078 z"
   id="path25"
   inkscape:connector-curvature="0"
   style="fill:#000000;stroke-width:0" />
<path
   d="m 14.41,52.742 0.009,0.037 0.008,0.036 0.009,0.034 0.009,0.033 0.01,0.031 0.01,0.029 0.011,0.028 0.012,0.027 0.013,0.025 0.015,0.023 0.017,0.023 0.018,0.021 0.02,0.02 0.023,0.018 0.025,0.017 0.027,0.016 0.031,0.015 0.033,0.014 0.037,0.012 0.04,0.011 0.043,0.011 0.023,0.005 0.024,0.004 0.025,0.004 0.026,0.004 0.028,0.004 0.028,0.004 0.029,0.003 0.03,0.003 0.032,0.003 0.032,0.002 0.034,0.003 0.035,0.002 0.036,0.002 0.038,0.001 0.039,0.002 0.04,0.001 0.041,10e-4 0.043,10e-4 0.044,0.001 0.045,0 0.047,0 0.049,0 c 0.328,0 0.422,0 0.422,0.204 0,0.14 -0.126,0.14 -0.188,0.14 -0.359,0 -1.281,-0.031 -1.641,-0.031 -0.343,0 -1.156,0.031 -1.484,0.031 -0.078,0 -0.219,0 -0.219,-0.234 0,-0.11 0.11,-0.11 0.313,-0.11 0.031,0 0.234,0 0.422,-0.031 0.203,-0.015 0.312,-0.031 0.312,-0.172 0,-0.047 -0.016,-0.078 -0.047,-0.218 l -1.5,-5.985 c -0.109,-0.437 -0.125,-0.531 -1.015,-0.531 -0.188,0 -0.297,0 -0.297,-0.219 0,-0.125 0.093,-0.125 0.297,-0.125 h 5.172 c 0.265,0 0.281,0 0.343,0.188 l 0.875,2.406 c 0.047,0.125 0.047,0.156 0.047,0.156 0,0.047 -0.031,0.125 -0.125,0.125 -0.109,0 -0.125,-0.047 -0.203,-0.234 -0.375,-1.016 -0.859,-2.297 -2.797,-2.297 h -1.047 c -0.156,0 -0.172,0 -0.25,0.016 -0.109,0.015 -0.14,0.015 -0.14,0.109 0,0.031 0,0.062 0.062,0.25 z"
   id="path27"
   inkscape:connector-curvature="0"
   style="fill:#000000;stroke-width:0" />
<path
   d="m 36.152,53.539 0.042,0 0.043,10e-4 0.043,10e-4 0.021,0.001 0.022,10e-4 0.021,0.002 0.021,0.003 0.021,0.003 0.021,0.003 0.02,0.004 0.02,0.005 0.019,0.005 0.018,0.006 0.018,0.007 0.018,0.008 0.016,0.009 0.016,0.01 0.015,0.011 0.013,0.011 0.013,0.014 0.012,0.014 0.005,0.007 0.006,0.008 0.004,0.008 0.005,0.009 0.004,0.009 0.004,0.009 0.004,0.01 0.003,0.009 0.003,0.011 0.002,0.01 0.002,0.011 0.002,0.012 10e-4,0.012 0.001,0.012 10e-4,0.012 0,0.013 c 0,0.297 -0.265,0.297 -0.5,0.297 h -9.375 c -0.218,0 -0.5,0 -0.5,-0.281 0,-0.297 0.266,-0.297 0.5,-0.297 z"
   id="path29"
   inkscape:connector-curvature="0"
   style="fill:#000000;stroke-width:0" />
<path
   d="m 36.152,50.57 0.042,0 0.043,10e-4 0.043,0.001 0.021,10e-4 0.022,0.002 0.021,0.002 0.021,0.002 0.021,0.003 0.021,0.004 0.02,0.004 0.02,0.005 0.019,0.006 0.018,0.006 0.018,0.008 0.018,0.008 0.016,0.009 0.016,0.011 0.015,0.011 0.013,0.013 0.013,0.014 0.012,0.015 0.005,0.008 0.006,0.008 0.004,0.009 0.005,0.009 0.004,0.009 0.004,0.01 0.004,0.01 0.003,0.01 0.003,0.011 0.002,0.011 0.002,0.012 0.002,0.012 10e-4,0.012 0.001,0.013 10e-4,0.013 0,0.014 c 0,0.297 -0.265,0.297 -0.5,0.297 h -9.375 c -0.218,0 -0.5,0 -0.5,-0.281 0,-0.313 0.266,-0.313 0.5,-0.313 z"
   id="path31"
   inkscape:connector-curvature="0"
   style="fill:#000000;stroke-width:0" />
<path
   d="m 50.469,58.008 0.013,0.056 0.013,0.053 0.012,0.05 0.014,0.049 0.013,0.045 0.015,0.044 0.016,0.041 0.017,0.039 0.018,0.036 0.021,0.034 0.022,0.033 0.025,0.03 0.028,0.028 0.03,0.026 0.034,0.025 0.037,0.022 0.041,0.021 0.044,0.019 0.049,0.017 0.053,0.016 0.058,0.014 0.031,0.006 0.032,0.007 0.033,0.005 0.035,0.006 0.036,0.005 0.038,0.004 0.038,0.005 0.041,0.004 0.042,0.004 0.043,0.003 0.045,0.003 0.047,0.003 0.048,0.002 0.05,0.002 0.051,0.002 0.053,0.002 0.055,0.001 0.057,10e-4 0.059,10e-4 0.06,0.001 0.062,0 0.064,0 c 0.438,0 0.547,0 0.547,0.313 0,0.156 -0.187,0.156 -0.25,0.156 -0.312,0 -0.671,-0.031 -1,-0.031 h -2.125 c -0.296,0 -0.656,0.031 -0.953,0.031 -0.125,0 -0.297,0 -0.297,-0.312 0,-0.157 0.141,-0.157 0.375,-0.157 0.969,0 0.969,-0.125 0.969,-0.296 0,-0.032 0,-0.125 -0.062,-0.36 l -2.141,-8.562 c -0.141,-0.547 -0.187,-0.719 -1.297,-0.719 -0.297,0 -0.453,0 -0.453,-0.281 0,-0.172 0.094,-0.172 0.406,-0.172 h 7.125 c 0.344,0 0.36,0.015 0.469,0.297 l 1.234,3.39 c 0.032,0.078 0.063,0.172 0.063,0.219 0,0.094 -0.078,0.156 -0.156,0.156 -0.016,0 -0.094,0 -0.125,-0.062 -0.032,-0.016 -0.032,-0.047 -0.172,-0.344 -0.5,-1.406 -1.219,-3.203 -3.907,-3.203 h -1.531 c -0.219,0 -0.25,0 -0.343,0.031 -0.172,0.016 -0.188,0.047 -0.188,0.172 0,0.109 0.031,0.203 0.062,0.344 z"
   id="path33"
   inkscape:connector-curvature="0"
   style="fill:#000000;stroke-width:0" />
<path
   d="m 64.457,69.809 0.002,0.006 10e-4,0.006 0.002,0.006 0.002,0.006 0.003,0.014 0.004,0.014 0.004,0.014 0.004,0.015 0.004,0.015 0.003,0.015 0.004,0.015 0.003,0.016 0.003,0.016 0.003,0.015 0.002,0.016 0.002,0.015 0,0.008 0.001,0.007 0,0.008 0,0.007 c 0,0.156 -0.156,0.156 -0.188,0.156 -0.031,0 -0.796,-0.062 -0.875,-0.078 -0.281,-0.016 -0.515,-0.047 -0.796,-0.062 -0.407,-0.032 -0.516,-0.047 -0.516,-0.344 0,-0.156 0.125,-0.156 0.359,-0.156 0.766,0 0.782,-0.141 0.782,-0.297 0,-0.094 -0.032,-0.219 -0.047,-0.266 l -0.969,-3.875 c -0.172,0.422 -0.594,1.063 -1.422,1.063 -1.797,0 -3.734,-2.329 -3.734,-4.672 0,-1.578 0.922,-2.5 2,-2.5 l 0.047,0.312 c -0.657,0 -1.016,0.594 -1.016,1.531 0,0.875 0.484,2.657 0.797,3.313 0.531,1.125 1.281,1.687 1.906,1.687 1.047,0 1.25,-1.296 1.25,-1.421 0,-0.016 -0.047,-0.235 -0.062,-0.266 L 61.238,61.059 C 61.16,60.793 61.16,60.762 60.941,60.449 60.582,60.012 59.895,59.324 59.145,59.324 l -0.047,-0.312 c 0.875,0 1.625,0.687 2.062,1.203 0.156,-0.938 0.906,-1.203 1.391,-1.203 0.469,0 0.859,0.281 1.14,0.859 0.25,0.531 0.469,1.5 0.469,1.563 0,0.093 -0.062,0.156 -0.156,0.156 -0.141,0 -0.156,-0.078 -0.219,-0.328 -0.234,-0.938 -0.547,-1.938 -1.187,-1.938 -0.469,0 -0.5,0.422 -0.5,0.735 0,0.062 0,0.39 0.109,0.843 z"
   id="path35"
   inkscape:connector-curvature="0"
   style="fill:#000000;stroke-width:0" />
<path
   d="m 69.062,61.434 0,0.008 0,0.009 -10e-4,0.008 -0.001,0.008 -0.002,0.008 -0.002,0.008 -0.002,0.007 -0.003,0.008 -0.003,0.007 -0.003,0.006 -0.003,0.007 -0.004,0.006 -0.004,0.006 -0.005,0.006 -0.004,0.006 -0.005,0.005 -0.006,0.005 -0.005,0.005 -0.006,0.004 -0.006,0.004 -0.006,0.004 -0.007,0.003 -0.007,0.004 -0.007,0.003 -0.007,0.002 -0.008,0.002 -0.007,0.002 -0.008,0.002 -0.008,10e-4 -0.009,10e-4 -0.008,0.001 -0.009,0 c -0.14,0 -0.156,-0.047 -0.25,-0.328 -0.406,-1.438 -1.062,-1.938 -1.578,-1.938 -0.187,0 -0.422,0.047 -0.422,0.531 0,0.422 0.188,0.907 0.375,1.375 l 1.11,2.954 c 0.047,0.14 0.156,0.421 0.156,0.718 0,0.672 -0.469,1.282 -1.25,1.282 -1.469,0 -2.063,-2.313 -2.063,-2.438 0,-0.062 0.078,-0.141 0.188,-0.141 0.14,0 0.156,0.063 0.219,0.282 0.375,1.343 0.984,1.968 1.609,1.968 0.141,0 0.406,-0.015 0.406,-0.515 0,-0.422 -0.203,-0.938 -0.328,-1.297 L 65.969,61.09 c -0.11,-0.25 -0.203,-0.5 -0.203,-0.797 0,-0.719 0.5,-1.281 1.265,-1.281 1.453,0 2.031,2.312 2.031,2.422 z"
   id="path37"
   inkscape:connector-curvature="0"
   style="fill:#000000;stroke-width:0" />
<path
   d="m 68.938,69.09 -0.001,0.022 -0.002,0.022 -0.002,0.023 -0.004,0.022 -0.005,0.023 -0.006,0.022 -0.007,0.023 -0.008,0.022 -0.01,0.022 -0.01,0.022 -0.011,0.022 -0.013,0.021 -0.013,0.021 -0.015,0.02 -0.015,0.02 -0.017,0.019 -0.018,0.018 -0.019,0.017 -0.02,0.017 -0.02,0.016 -0.022,0.015 -0.023,0.014 -0.024,0.013 -0.025,0.012 -0.026,0.011 -0.027,0.009 -0.029,0.008 -0.029,0.007 -0.03,0.005 -0.031,0.004 -0.032,0.003 -0.033,0 c -0.36,0 -0.782,-0.343 -0.782,-0.765 0,-0.391 0.344,-0.516 0.532,-0.516 0.421,0 0.797,0.406 0.797,0.766 z"
   id="path39"
   inkscape:connector-curvature="0"
   style="fill:#000000;stroke-width:0" />
<path
   d="m 74.062,63.527 0.009,0.038 0.009,0.035 0.008,0.034 0.009,0.033 0.01,0.031 0.01,0.029 0.011,0.028 0.012,0.027 0.014,0.025 0.015,0.024 0.016,0.022 0.018,0.021 0.021,0.02 0.022,0.018 0.025,0.017 0.028,0.016 0.03,0.015 0.034,0.014 0.036,0.012 0.04,0.012 0.043,0.01 0.023,0.005 0.025,0.004 0.025,0.004 0.026,0.004 0.027,0.004 0.028,0.004 0.029,0.003 0.031,0.003 0.031,0.003 0.033,0.002 0.034,0.003 0.035,0.002 0.036,0.002 0.037,0.001 0.039,0.002 0.04,0.001 0.041,10e-4 0.043,0.001 0.044,0.001 0.046,0 0.047,10e-4 0.048,0 c 0.328,0 0.422,0 0.422,0.203 0,0.14 -0.125,0.14 -0.188,0.14 -0.359,0 -1.281,-0.031 -1.64,-0.031 -0.344,0 -1.156,0.031 -1.485,0.031 -0.078,0 -0.218,0 -0.218,-0.234 0,-0.109 0.109,-0.109 0.312,-0.109 0.031,0 0.235,0 0.422,-0.032 0.203,-0.015 0.313,-0.031 0.313,-0.172 0,-0.046 -0.016,-0.078 -0.047,-0.218 l -1.5,-5.985 c -0.11,-0.437 -0.125,-0.531 -1.016,-0.531 -0.187,0 -0.297,0 -0.297,-0.219 0,-0.125 0.094,-0.125 0.297,-0.125 h 5.172 c 0.265,0 0.281,0 0.344,0.188 l 0.875,2.406 c 0.046,0.125 0.046,0.156 0.046,0.156 0,0.047 -0.031,0.125 -0.124,0.125 -0.11,0 -0.126,-0.047 -0.204,-0.234 -0.375,-1.016 -0.859,-2.297 -2.796,-2.297 h -1.047 c -0.157,0 -0.172,0 -0.25,0.016 -0.11,0.015 -0.141,0.015 -0.141,0.109 0,0.031 0,0.063 0.062,0.25 z"
   id="path41"
   inkscape:connector-curvature="0"
   style="fill:#000000;stroke-width:0" />
<line
   x1="56.457001"
   y1="52.370998"
   x2="77.980003"
   y2="52.370998"
   id="line43"
   style="stroke-width:0.63800001" />
<path
   d="m 68.348,48.09 0.001,0.006 0.002,0.006 0.001,0.006 0.002,0.007 0.004,0.013 0.004,0.014 0.003,0.014 0.004,0.015 0.004,0.015 0.004,0.015 0.004,0.016 0.003,0.015 0.003,0.016 0.002,0.015 0.003,0.016 0.001,0.015 0.001,0.008 0,0.007 0,0.008 10e-4,0.007 c 0,0.156 -0.157,0.156 -0.188,0.156 -0.031,0 -0.797,-0.062 -0.875,-0.078 -0.281,-0.015 -0.516,-0.047 -0.797,-0.062 -0.406,-0.031 -0.515,-0.047 -0.515,-0.344 0,-0.156 0.125,-0.156 0.359,-0.156 0.766,0 0.781,-0.141 0.781,-0.297 0,-0.094 -0.031,-0.219 -0.047,-0.266 l -0.968,-3.875 c -0.172,0.422 -0.594,1.063 -1.422,1.063 -1.797,0 -3.735,-2.328 -3.735,-4.672 0,-1.578 0.922,-2.5 2,-2.5 l 0.047,0.312 c -0.656,0 -1.015,0.594 -1.015,1.532 0,0.875 0.484,2.656 0.796,3.312 0.532,1.125 1.282,1.688 1.907,1.688 1.047,0 1.25,-1.297 1.25,-1.422 0,-0.016 -0.047,-0.235 -0.063,-0.266 L 65.129,39.34 c -0.078,-0.266 -0.078,-0.297 -0.297,-0.61 -0.359,-0.437 -1.047,-1.125 -1.797,-1.125 l -0.047,-0.312 c 0.875,0 1.625,0.687 2.063,1.203 0.156,-0.937 0.906,-1.203 1.39,-1.203 0.469,0 0.86,0.281 1.141,0.859 0.25,0.532 0.469,1.5 0.469,1.563 0,0.094 -0.063,0.156 -0.156,0.156 -0.141,0 -0.157,-0.078 -0.219,-0.328 -0.235,-0.938 -0.547,-1.938 -1.188,-1.938 -0.468,0 -0.5,0.422 -0.5,0.735 0,0.062 0,0.39 0.11,0.844 z"
   id="path45"
   inkscape:connector-curvature="0"
   style="fill:#000000;stroke-width:0" />
<path
   d="m 71.641,43.84 h 1.468 c 0.297,0 0.469,0 0.469,0.281 0,0.172 -0.109,0.172 -0.422,0.172 h -1.39 l 0.578,2.328 c 0.062,0.219 0.062,0.25 0.062,0.359 0,0.266 -0.203,0.407 -0.406,0.407 -0.125,0 -0.5,-0.047 -0.625,-0.563 L 70.75,44.293 h -1.484 c -0.313,0 -0.469,0 -0.469,-0.297 0,-0.156 0.109,-0.156 0.422,-0.156 h 1.406 l -1.047,-4.203 c -0.125,-0.547 -0.172,-0.703 -0.172,-0.922 0,-0.735 0.532,-1.422 1.422,-1.422 1.594,0 2.453,2.312 2.453,2.422 0,0.109 -0.062,0.156 -0.156,0.156 -0.031,0 -0.094,0 -0.125,-0.062 -0.016,-0.016 -0.031,-0.032 -0.141,-0.297 -0.343,-0.797 -1.062,-1.907 -1.984,-1.907 -0.484,0 -0.516,0.407 -0.516,0.75 0,0.016 0,0.313 0.047,0.516 z"
   id="path47"
   inkscape:connector-curvature="0"
   style="fill:#000000;stroke-width:0" />
<path
   d="m 8.2344,13.879 -2e-4,0.009 -5e-4,0.008 -9e-4,0.008 L 8.2315,13.913 8.2299,13.92 8.228,13.928 8.2257,13.936 8.2231,13.943 8.2202,13.95 8.217,13.957 8.2135,13.963 8.2097,13.97 l -0.0042,0.006 -0.0044,0.005 -0.0047,0.006 -0.005,0.005 -0.0053,0.005 -0.0055,0.005 -0.0058,0.004 -0.006,0.004 -0.0063,0.004 -0.0066,0.004 -0.0068,0.003 -0.007,0.003 -0.0073,0.003 -0.0074,0.002 -0.0077,0.002 -0.0079,10e-4 -0.0082,0.002 -0.0083,0 -0.0085,10e-4 -0.0087,0 c -0.1406,0 -0.1562,-0.047 -0.25,-0.328 C 7.4219,12.269 6.7656,11.769 6.25,11.769 c -0.1875,0 -0.4219,0.047 -0.4219,0.532 0,0.422 0.1875,0.906 0.375,1.375 l 1.1094,2.953 c 0.0469,0.141 0.1563,0.422 0.1563,0.719 0,0.672 -0.4688,1.281 -1.25,1.281 -1.4688,0 -2.0626,-2.313 -2.0626,-2.438 0,-0.062 0.0782,-0.14 0.1876,-0.14 0.1406,0 0.1562,0.062 0.2187,0.281 0.375,1.344 0.9844,1.969 1.6094,1.969 0.1406,0 0.4062,-0.016 0.4062,-0.516 0,-0.422 -0.2031,-0.937 -0.3281,-1.297 L 5.1406,13.535 c -0.1094,-0.25 -0.2031,-0.5 -0.2031,-0.797 0,-0.719 0.5,-1.281 1.2656,-1.281 1.4531,0 2.0313,2.312 2.0313,2.422 z"
   id="path49"
   inkscape:connector-curvature="0"
   style="fill:#000000;stroke-width:0" />
<path
   d="m 8.1094,21.535 -6e-4,0.022 -0.0016,0.023 -0.0028,0.022 -0.0038,0.023 -0.0049,0.022 -0.006,0.023 -0.0071,0.022 -0.0081,0.023 -0.0093,0.022 -0.0103,0.022 -0.0114,0.021 -0.0124,0.021 -0.0135,0.021 -0.0146,0.02 -0.0156,0.02 -0.0167,0.019 -0.0177,0.018 -0.0188,0.018 -0.0199,0.017 -0.0208,0.015 -0.022,0.015 -0.0229,0.014 -0.024,0.013 -0.025,0.012 -0.0261,0.011 -0.0271,0.009 -0.0281,0.008 -0.0291,0.007 -0.0302,0.006 -0.0311,0.004 -0.0322,0.002 -0.0332,10e-4 c -0.3594,0 -0.7813,-0.344 -0.7813,-0.766 0,-0.39 0.3438,-0.515 0.5313,-0.515 0.4219,0 0.7969,0.406 0.7969,0.765 z"
   id="path51"
   inkscape:connector-curvature="0"
   style="fill:#000000;stroke-width:0" />
<path
   d="m 17.547,16.973 0,0.003 0,0.003 -0.001,0.004 -10e-4,0.003 -0.001,0.004 -0.001,0.004 -10e-4,0.005 -0.001,0.004 -0.002,0.004 -0.002,0.005 -0.002,0.004 -0.003,0.005 -0.003,0.005 -0.003,0.004 -0.003,0.005 -0.003,0.004 -0.004,0.004 -0.004,0.005 -0.005,0.004 -0.004,0.004 -0.005,0.003 -0.006,0.004 -0.005,0.003 -0.006,0.003 -0.006,0.003 -0.007,0.003 -0.007,0.002 -0.003,10e-4 -0.004,0.001 -0.004,0 -0.003,10e-4 -0.004,0.001 -0.004,0 -0.004,0 -0.004,0.001 -0.005,0 -0.004,0 c -0.031,0 -0.047,0 -0.172,-0.125 l -0.781,-0.859 c -0.094,0.156 -0.61,0.984 -1.844,0.984 -2.5,0 -5,-2.453 -5,-5.047 0,-1.844 1.313,-3.0623 3.016,-3.0623 0.968,0 1.828,0.4531 2.406,0.9687 1.047,0.9066 1.234,1.9216 1.234,1.9526 0,0.125 -0.109,0.125 -0.14,0.125 -0.063,0 -0.11,-0.031 -0.141,-0.125 -0.094,-0.312 -0.359,-1.109 -1.125,-1.75 -0.766,-0.6245 -1.469,-0.8276 -2.047,-0.8276 -1.016,0 -2.187,0.5938 -2.187,2.3276 0,0.641 0.234,2.438 1.343,3.75 0.688,0.797 1.735,1.344 2.719,1.344 1.141,0 1.797,-0.859 1.797,-2.156 0,-0.438 -0.031,-0.453 -0.031,-0.563 0,-0.109 0.125,-0.109 0.172,-0.109 0.14,0 0.14,0.016 0.203,0.219 z"
   id="path53"
   inkscape:connector-curvature="0"
   style="fill:#000000;stroke-width:0" />
<path
   d="m 36.152,16.77 0.042,0 0.043,0 0.043,0.001 0.021,10e-4 0.022,0.002 0.021,0.002 0.021,0.002 0.021,0.003 0.021,0.003 0.02,0.004 0.02,0.005 0.019,0.005 0.018,0.007 0.018,0.007 0.018,0.008 0.016,0.008 0.016,0.01 0.015,0.011 0.013,0.012 0.013,0.013 0.012,0.014 0.005,0.008 0.006,0.008 0.004,0.008 0.005,0.008 0.004,0.009 0.004,0.009 0.004,0.01 0.003,0.01 0.003,0.01 0.002,0.011 0.002,0.011 0.002,0.011 10e-4,0.012 0.001,0.012 10e-4,0.013 0,0.013 c 0,0.297 -0.265,0.297 -0.5,0.297 h -9.375 c -0.218,0 -0.5,0 -0.5,-0.282 0,-0.296 0.266,-0.296 0.5,-0.296 z"
   id="path55"
   inkscape:connector-curvature="0"
   style="fill:#000000;stroke-width:0" />
<path
   d="m 36.152,13.801 0.042,0 0.043,0 0.043,0.002 0.021,10e-4 0.022,10e-4 0.021,0.002 0.021,0.003 0.021,0.003 0.021,0.003 0.02,0.005 0.02,0.005 0.019,0.005 0.018,0.007 0.018,0.007 0.018,0.009 0.016,0.009 0.016,0.01 0.015,0.012 0.013,0.012 0.013,0.014 0.012,0.015 0.005,0.008 0.006,0.008 0.004,0.009 0.005,0.009 0.004,0.009 0.004,0.01 0.004,0.01 0.003,0.011 0.003,0.011 0.002,0.011 0.002,0.011 0.002,0.012 10e-4,0.013 0.001,0.013 10e-4,0.013 0,0.014 c 0,0.296 -0.265,0.296 -0.5,0.296 h -9.375 c -0.218,0 -0.5,0 -0.5,-0.281 0,-0.312 0.266,-0.312 0.5,-0.312 z"
   id="path57"
   inkscape:connector-curvature="0"
   style="fill:#000000;stroke-width:0" />
<path
   d="m 56.516,22.66 0,0.007 -10e-4,0.006 0,0.006 -10e-4,0.006 0,0.006 -0.001,0.005 -10e-4,0.005 -10e-4,0.006 -0.001,0.005 -0.002,0.004 -0.001,0.005 -0.002,0.004 -0.001,0.005 -0.002,0.004 -0.002,0.004 -0.002,0.003 -0.002,0.004 -0.002,0.004 -0.002,0.003 -0.003,0.003 -0.002,0.003 -0.003,0.003 -0.002,0.003 -0.003,0.002 -0.005,0.005 -0.006,0.005 -0.005,0.004 -0.006,0.003 -0.006,0.003 -0.006,0.003 -0.006,0.002 -0.006,0.002 -0.006,0.002 -0.006,0.002 -0.005,10e-4 -0.006,0.001 -0.005,0 -0.005,0.001 -0.005,0 -0.005,10e-4 -0.004,0 -0.004,0 -0.004,0 -0.003,0 c -0.031,0 -0.094,0 -0.234,-0.156 l -1.094,-1.344 c -0.547,0.969 -1.422,1.5 -2.625,1.5 -3.422,0 -6.984,-3.485 -6.984,-7.219 0,-2.656 1.859,-4.297 4.171,-4.297 1.282,0 2.391,0.531 3.313,1.313 1.375,1.156 1.797,2.703 1.797,2.828 0,0.14 -0.125,0.14 -0.172,0.14 -0.141,0 -0.156,-0.093 -0.188,-0.156 -0.734,-2.484 -2.89,-3.672 -4.468,-3.672 -1.688,0 -3.157,1.078 -3.157,3.344 0,0.5 0.157,3.266 1.954,5.359 0.874,1.016 2.374,1.907 3.89,1.907 1.734,0 2.516,-1.453 2.516,-3.078 0,-0.407 -0.047,-0.766 -0.047,-0.829 0,-0.14 0.156,-0.14 0.203,-0.14 0.188,0 0.203,0.015 0.266,0.312 z"
   id="path59"
   inkscape:connector-curvature="0"
   style="fill:#000000;stroke-width:0" />
<path
   d="m 66.148,33.035 0.002,0.006 0.002,0.006 0.001,0.007 0.002,0.006 0.004,0.013 0.003,0.014 0.004,0.015 0.004,0.014 0.004,0.015 0.004,0.015 0.003,0.016 0.004,0.016 0.003,0.015 0.002,0.016 0.002,0.015 0.002,0.016 10e-4,0.007 0,0.008 0,0.007 0,0.008 c 0,0.156 -0.156,0.156 -0.187,0.156 -0.031,0 -0.797,-0.063 -0.875,-0.078 -0.281,-0.016 -0.516,-0.047 -0.797,-0.063 -0.406,-0.031 -0.516,-0.047 -0.516,-0.344 0,-0.156 0.125,-0.156 0.36,-0.156 0.765,0 0.781,-0.14 0.781,-0.297 0,-0.093 -0.031,-0.218 -0.047,-0.265 l -0.969,-3.875 c -0.172,0.422 -0.593,1.062 -1.422,1.062 -1.796,0 -3.734,-2.328 -3.734,-4.672 0,-1.578 0.922,-2.5 2,-2.5 l 0.047,0.313 c -0.656,0 -1.016,0.594 -1.016,1.531 0,0.875 0.485,2.656 0.797,3.313 0.531,1.125 1.281,1.687 1.906,1.687 1.047,0 1.25,-1.297 1.25,-1.422 0,-0.015 -0.046,-0.234 -0.062,-0.265 l -0.781,-3.11 c -0.078,-0.265 -0.078,-0.297 -0.297,-0.609 -0.36,-0.438 -1.047,-1.125 -1.797,-1.125 l -0.047,-0.313 c 0.875,0 1.625,0.688 2.063,1.203 0.156,-0.937 0.906,-1.203 1.39,-1.203 0.469,0 0.86,0.282 1.141,0.86 0.25,0.531 0.469,1.5 0.469,1.562 0,0.094 -0.063,0.156 -0.157,0.156 -0.14,0 -0.156,-0.078 -0.218,-0.328 -0.235,-0.937 -0.547,-1.937 -1.188,-1.937 -0.469,0 -0.5,0.422 -0.5,0.734 0,0.063 0,0.391 0.109,0.844 z"
   id="path61"
   inkscape:connector-curvature="0"
   style="fill:#000000;stroke-width:0" />
<path
   d="m 71.676,23.316 0.01,-0.041 0.01,-0.04 0.024,-0.077 0.027,-0.074 0.029,-0.07 0.033,-0.066 0.034,-0.062 0.037,-0.059 0.039,-0.055 0.04,-0.052 0.043,-0.048 0.044,-0.046 0.045,-0.042 0.047,-0.039 0.048,-0.037 0.048,-0.034 0.049,-0.031 0.05,-0.028 0.05,-0.026 0.05,-0.023 0.05,-0.021 0.05,-0.019 0.05,-0.017 0.049,-0.015 0.048,-0.012 0.047,-0.011 0.047,-0.01 0.045,-0.007 0.043,-0.006 0.043,-0.004 0.04,-0.003 0.038,-0.002 0.037,-0.001 c 0.515,0 0.89,0.328 1.156,0.875 0.265,0.563 0.469,1.5 0.469,1.547 0,0.094 -0.063,0.156 -0.157,0.156 -0.14,0 -0.156,-0.078 -0.218,-0.328 -0.297,-1.093 -0.579,-1.937 -1.219,-1.937 -0.469,0 -0.469,0.531 -0.469,0.734 0,0.36 0.047,0.531 0.203,1.188 0.11,0.437 0.219,0.859 0.313,1.312 l 0.656,2.578 c 0.109,0.407 0.109,0.438 0.109,0.485 0,0.234 -0.187,0.39 -0.422,0.39 -0.468,0 -0.578,-0.39 -0.671,-0.781 -0.157,-0.625 -1.016,-4.047 -1.125,-4.594 -0.016,0 -0.641,-1.312 -1.797,-1.312 -0.828,0 -0.985,0.719 -0.985,1.312 0,0.907 0.438,2.172 0.86,3.235 0.187,0.515 0.265,0.718 0.265,1.031 0,0.687 -0.484,1.281 -1.25,1.281 -1.468,0 -2.062,-2.312 -2.062,-2.437 0,-0.063 0.078,-0.141 0.187,-0.141 0.141,0 0.157,0.063 0.219,0.281 0.375,1.375 1,1.969 1.609,1.969 0.157,0 0.407,-0.016 0.407,-0.516 0,-0.421 -0.172,-0.875 -0.407,-1.484 -0.703,-1.891 -0.781,-2.5 -0.781,-2.969 0,-1.625 1.219,-1.875 1.875,-1.875 1.016,0 1.578,0.703 1.891,1.078 z"
   id="path63"
   inkscape:connector-curvature="0"
   style="fill:#000000;stroke-width:0" />
<path
   d="m 83.625,27.754 0,0.003 0,0.003 -0.001,0.004 -10e-4,0.004 0,0.004 -0.001,0.004 -0.002,0.004 -0.001,0.004 -0.002,0.005 -0.002,0.004 -0.002,0.005 -0.003,0.004 -0.003,0.005 -0.003,0.004 -0.003,0.005 -0.003,0.004 -0.004,0.005 -0.004,0.004 -0.005,0.004 -0.004,0.004 -0.005,0.004 -0.005,0.003 -0.006,0.004 -0.006,0.003 -0.006,0.002 -0.007,0.003 -0.006,0.002 -0.004,0.001 -0.004,10e-4 -0.003,0.001 -0.004,0 -0.004,10e-4 -0.004,0 -0.004,0.001 -0.004,0 -0.005,0 -0.004,0 c -0.031,0 -0.047,0 -0.172,-0.125 l -0.781,-0.859 c -0.094,0.156 -0.609,0.984 -1.844,0.984 -2.5,0 -5,-2.453 -5,-5.047 0,-1.843 1.313,-3.062 3.016,-3.062 0.969,0 1.828,0.453 2.406,0.969 1.047,0.906 1.234,1.922 1.234,1.953 0,0.125 -0.109,0.125 -0.14,0.125 -0.063,0 -0.11,-0.031 -0.141,-0.125 -0.094,-0.313 -0.359,-1.11 -1.125,-1.75 -0.765,-0.625 -1.469,-0.828 -2.047,-0.828 -1.015,0 -2.187,0.593 -2.187,2.328 0,0.64 0.234,2.437 1.343,3.75 0.688,0.797 1.735,1.344 2.719,1.344 1.141,0 1.797,-0.86 1.797,-2.157 0,-0.437 -0.031,-0.453 -0.031,-0.562 0,-0.11 0.125,-0.11 0.172,-0.11 0.14,0 0.14,0.016 0.203,0.219 z"
   id="path65"
   inkscape:connector-curvature="0"
   style="fill:#000000;stroke-width:0" />
<line
   x1="58.147999"
   y1="15.598"
   x2="84.414001"
   y2="15.598"
   id="line67"
   style="stroke-width:0.63800001" />
<path
   d="m 72.406,11.32 0.002,0.006 0.001,0.006 0.002,0.007 0.002,0.006 0.003,0.013 0.004,0.014 0.004,0.015 0.004,0.014 0.004,0.015 0.004,0.016 0.003,0.015 0.003,0.016 0.003,0.015 0.003,0.016 0.002,0.015 0.002,0.016 0,0.007 0.001,0.008 0,0.007 0,0.008 c 0,0.156 -0.156,0.156 -0.187,0.156 -0.032,0 -0.797,-0.063 -0.875,-0.078 -0.282,-0.016 -0.516,-0.047 -0.797,-0.063 -0.406,-0.031 -0.516,-0.047 -0.516,-0.343 0,-0.157 0.125,-0.157 0.36,-0.157 0.765,0 0.781,-0.14 0.781,-0.297 0,-0.093 -0.031,-0.218 -0.047,-0.265 L 70.203,6.6328 c -0.172,0.4219 -0.594,1.0625 -1.422,1.0625 -1.797,0 -3.734,-2.3281 -3.734,-4.6719 0,-1.5781 0.922,-2.49996 2,-2.49996 l 0.047,0.3125 c -0.656,0 -1.016,0.59376 -1.016,1.53126 0,0.875 0.484,2.6562 0.797,3.3125 0.531,1.125 1.281,1.6875 1.906,1.6875 1.047,0 1.25,-1.2969 1.25,-1.4219 0,-0.0156 -0.047,-0.2344 -0.062,-0.2656 L 69.188,2.5703 C 69.109,2.3047 69.109,2.2734 68.891,1.9609 68.531,1.5234 67.844,0.83594 67.094,0.83594 l -0.047,-0.3125 c 0.875,0 1.625,0.68746 2.062,1.20316 0.157,-0.93754 0.907,-1.20316 1.391,-1.20316 0.469,0 0.859,0.28125 1.141,0.85936 0.25,0.5313 0.468,1.5 0.468,1.5625 0,0.0938 -0.062,0.1563 -0.156,0.1563 -0.141,0 -0.156,-0.0782 -0.219,-0.3282 C 71.5,1.8359 71.188,0.83594 70.547,0.83594 c -0.469,0 -0.5,0.42186 -0.5,0.73436 0,0.0625 0,0.3906 0.109,0.8438 z"
   id="path69"
   inkscape:connector-curvature="0"
   style="fill:#000000;stroke-width:0" />
<path
   d="m 75.699,7.0703 h 1.469 c 0.297,0 0.469,0 0.469,0.2813 0,0.1718 -0.11,0.1718 -0.422,0.1718 h -1.391 l 0.578,2.3282 c 0.063,0.2184 0.063,0.2504 0.063,0.3594 0,0.266 -0.203,0.406 -0.406,0.406 -0.125,0 -0.5,-0.047 -0.625,-0.562 L 74.809,7.5234 h -1.485 c -0.312,0 -0.469,0 -0.469,-0.2968 0,-0.1563 0.11,-0.1563 0.422,-0.1563 h 1.407 L 73.637,2.8672 C 73.512,2.3203 73.465,2.1641 73.465,1.9453 c 0,-0.7344 0.531,-1.42186 1.422,-1.42186 1.593,0 2.453,2.31246 2.453,2.42186 0,0.1094 -0.063,0.1563 -0.156,0.1563 -0.032,0 -0.094,0 -0.125,-0.0625 C 77.043,3.0234 77.027,3.0078 76.918,2.7422 76.574,1.9453 75.855,0.83594 74.934,0.83594 c -0.485,0 -0.516,0.40626 -0.516,0.74996 0,0.0157 0,0.3125 0.047,0.5157 z"
   id="path71"
   inkscape:connector-curvature="0"
   style="fill:#000000;stroke-width:0" />
</g></svg>
