<?xml version="1.0" encoding="UTF-8" standalone="no"?>
<svg
   xmlns:dc="http://purl.org/dc/elements/1.1/"
   xmlns:cc="http://creativecommons.org/ns#"
   xmlns:rdf="http://www.w3.org/1999/02/22-rdf-syntax-ns#"
   xmlns:svg="http://www.w3.org/2000/svg"
   xmlns="http://www.w3.org/2000/svg"
   xmlns:sodipodi="http://sodipodi.sourceforge.net/DTD/sodipodi-0.dtd"
   xmlns:inkscape="http://www.inkscape.org/namespaces/inkscape"
   version="1.1"
   id="body"
   width="135.38976"
   height="44.10128"
   viewBox="0 0 0.18804133 0.061251778"
   preserveAspectRatio="none"
   inkscape:version="0.48.3.1 r9886"
   sodipodi:docname="ch3-Z-G-56.svg">
  <metadata
     id="metadata59">
    <rdf:RDF>
      <cc:Work
         rdf:about="">
        <dc:format>image/svg+xml</dc:format>
        <dc:type
           rdf:resource="http://purl.org/dc/dcmitype/StillImage" />
      </cc:Work>
    </rdf:RDF>
  </metadata>
  <defs
     id="defs57" />
  <sodipodi:namedview
     pagecolor="#ffffff"
     bordercolor="#666666"
     borderopacity="1"
     objecttolerance="10"
     gridtolerance="10"
     guidetolerance="10"
     inkscape:pageopacity="0"
     inkscape:pageshadow="2"
     inkscape:window-width="640"
     inkscape:window-height="480"
     id="namedview55"
     showgrid="false"
     inkscape:zoom="0.32777778"
     inkscape:cx="381.67969"
     inkscape:cy="459.71994"
     inkscape:window-x="0"
     inkscape:window-y="24"
     inkscape:window-maximized="0"
     inkscape:current-layer="body" />
  <title
     id="title3">SVG drawing</title>
  <desc
     id="desc5">This was produced by version 4.4 of GNU libplot, a free library for exporting 2-D vector graphics.</desc>
  <g
     id="content"
     transform="matrix(0.0017361,0,0,-0.0017361,-0.00113932,0.06152304)"
     xml:space="preserve"
     stroke-miterlimit="10.433"
     font-style="normal"
     font-variant="normal"
     font-weight="normal"
     font-stretch="normal"
     font-size-adjust="none"
     letter-spacing="normal"
     word-spacing="normal"
     style="font-style:normal;font-variant:normal;font-weight:normal;font-stretch:normal;letter-spacing:normal;word-spacing:normal;text-anchor:start;fill:none;stroke:#000000;stroke-linecap:butt;stroke-linejoin:miter;stroke-miterlimit:10.43299961;stroke-opacity:1;stroke-dasharray:none;stroke-dashoffset:0">
<path
   d="m 8.5664,27.227 -2e-4,0.008 -5e-4,0.009 -9e-4,0.008 L 8.5635,27.26 8.562,27.268 8.56,27.276 8.5578,27.283 8.5552,27.291 8.5523,27.298 8.5491,27.304 8.5455,27.311 8.5417,27.317 8.5376,27.323 8.5331,27.329 8.5284,27.335 8.5234,27.34 8.5182,27.345 8.5126,27.35 8.5069,27.354 8.5008,27.358 8.4945,27.362 8.4879,27.365 8.4812,27.369 8.4741,27.372 8.4669,27.374 8.4594,27.376 8.4517,27.378 8.4438,27.38 l -0.0081,0.001 -0.0083,0.001 -0.0085,10e-4 -0.0087,0 c -0.1407,0 -0.1563,-0.047 -0.25,-0.328 -0.4063,-1.438 -1.0625,-1.938 -1.5782,-1.938 -0.1875,0 -0.4218,0.047 -0.4218,0.531 0,0.422 0.1875,0.907 0.375,1.375 l 1.1093,2.954 c 0.0469,0.14 0.1563,0.421 0.1563,0.718 0,0.672 -0.4688,1.282 -1.25,1.282 -1.4688,0 -2.0625,-2.313 -2.0625,-2.438 0,-0.062 0.0781,-0.141 0.1875,-0.141 0.1406,0 0.1562,0.063 0.2187,0.282 0.375,1.343 0.9844,1.968 1.6094,1.968 0.1406,0 0.4063,-0.015 0.4063,-0.515 0,-0.422 -0.2032,-0.938 -0.3282,-1.297 L 5.4727,26.883 c -0.1094,-0.25 -0.2032,-0.5 -0.2032,-0.797 0,-0.719 0.5,-1.281 1.2657,-1.281 1.4531,0 2.0312,2.312 2.0312,2.422 z"
   id="path9"
   inkscape:connector-curvature="0"
   style="fill:#000000;stroke-width:0" />
<path
   d="m 8.4414,34.883 -5e-4,0.022 -0.0017,0.022 -0.0027,0.023 -0.0038,0.022 -0.005,0.023 -0.006,0.022 -0.007,0.023 -0.0082,0.022 -0.0092,0.022 -0.0103,0.022 -0.0114,0.022 -0.0125,0.021 -0.0135,0.021 -0.0145,0.02 -0.0157,0.019 -0.0167,0.019 -0.0177,0.019 -0.0188,0.017 -0.0198,0.017 -0.0209,0.016 -0.0219,0.015 -0.023,0.014 -0.024,0.013 -0.025,0.012 -0.0261,0.01 -0.027,0.01 -0.0282,0.008 -0.0291,0.007 -0.0301,0.005 -0.0312,0.004 -0.0322,0.003 -0.0332,0 c -0.3593,0 -0.7812,-0.343 -0.7812,-0.765 0,-0.391 0.3437,-0.516 0.5312,-0.516 0.4219,0 0.7969,0.406 0.7969,0.766 z"
   id="path11"
   inkscape:connector-curvature="0"
   style="fill:#000000;stroke-width:0" />
<path
   d="m 15.191,26.367 0.106,0.024 0.107,0.027 0.108,0.029 0.108,0.033 0.108,0.036 0.108,0.039 0.107,0.043 0.106,0.045 0.106,0.048 0.104,0.05 0.102,0.054 0.101,0.057 0.098,0.059 0.096,0.062 0.094,0.065 0.09,0.067 0.087,0.071 0.083,0.072 0.08,0.076 0.075,0.078 0.071,0.08 0.066,0.083 0.061,0.085 0.056,0.088 0.051,0.09 0.045,0.093 0.038,0.095 0.032,0.097 0.026,0.099 0.018,0.102 0.012,0.104 0.004,0.105 c 0,0.954 -1.016,1.672 -2.469,1.672 h -3.188 c -0.219,0 -0.312,0 -0.312,-0.234 0,-0.109 0.093,-0.109 0.312,-0.109 0.016,0 0.235,0 0.422,-0.032 0.203,-0.015 0.297,-0.031 0.297,-0.172 0,-0.046 -0.016,-0.078 -0.047,-0.218 l -1.484,-5.985 c -0.125,-0.437 -0.141,-0.531 -1.016,-0.531 -0.203,0 -0.3123,0 -0.3123,-0.219 0,-0.125 0.1406,-0.125 0.1563,-0.125 0.312,0 1.094,0.032 1.406,0.032 0.313,0 1.109,-0.032 1.422,-0.032 0.094,0 0.219,0 0.219,0.219 0,0.125 -0.094,0.125 -0.313,0.125 -0.406,0 -0.719,0 -0.719,0.203 0,0.063 0.016,0.125 0.032,0.188 l 0.734,2.953 h 1.328 l -0.015,0.25 h -1.25 l 0.734,2.906 c 0.062,0.281 0.094,0.391 0.312,0.422 0.094,0.016 0.454,0.016 0.672,0.016 0.797,0 2.032,0 2.032,-1.11 0,-0.375 -0.172,-1.156 -0.61,-1.594 -0.297,-0.281 -0.875,-0.64 -1.89,-0.64 l 0.015,-0.25 c 1.016,0 1.219,-0.625 1.219,-1.016 0,-0.156 -0.094,-0.5 -0.156,-0.765 -0.078,-0.313 -0.188,-0.719 -0.188,-0.954 0,-1.203 1.344,-1.203 1.485,-1.203 0.953,0 1.343,1.125 1.343,1.282 0,0.14 -0.125,0.14 -0.125,0.14 -0.109,0 -0.125,-0.078 -0.156,-0.156 -0.281,-0.828 -0.75,-1.016 -1.015,-1.016 -0.36,0 -0.438,0.25 -0.438,0.688 0,0.344 0.063,0.906 0.109,1.265 0.016,0.157 0.047,0.375 0.047,0.532 0,0.843 -0.75,1.203 -1.047,1.312 z"
   id="path13"
   inkscape:connector-curvature="0"
   style="fill:#000000;stroke-width:0" />
<path
   d="m 38.039,30.117 0.042,0 0.042,10e-4 0.043,0.001 0.022,0.001 0.021,0.002 0.022,0.001 0.021,0.003 0.021,0.003 0.02,0.003 0.021,0.004 0.019,0.005 0.019,0.005 0.019,0.006 0.018,0.007 0.017,0.008 0.017,0.009 0.016,0.01 0.014,0.011 0.014,0.012 0.013,0.013 0.012,0.014 0.005,0.007 0.005,0.008 0.005,0.008 0.005,0.009 0.004,0.009 0.004,0.009 0.003,0.01 0.004,0.01 0.002,0.01 0.003,0.01 0.002,0.012 0.002,0.011 10e-4,0.012 10e-4,0.012 0.001,0.012 0,0.013 c 0,0.297 -0.266,0.297 -0.5,0.297 h -9.375 c -0.219,0 -0.5,0 -0.5,-0.281 0,-0.297 0.266,-0.297 0.5,-0.297 z"
   id="path15"
   inkscape:connector-curvature="0"
   style="fill:#000000;stroke-width:0" />
<path
   d="m 38.039,27.148 0.042,0 0.042,0.001 0.043,10e-4 0.022,0.002 0.021,10e-4 0.022,0.002 0.021,0.002 0.021,0.003 0.02,0.004 0.021,0.004 0.019,0.005 0.019,0.006 0.019,0.007 0.018,0.007 0.017,0.008 0.017,0.01 0.016,0.01 0.014,0.011 0.014,0.013 0.013,0.014 0.012,0.015 0.005,0.008 0.005,0.008 0.005,0.009 0.005,0.009 0.004,0.009 0.004,0.01 0.003,0.01 0.004,0.01 0.002,0.011 0.003,0.011 0.002,0.012 0.002,0.012 10e-4,0.012 10e-4,0.013 0.001,0.014 0,0.013 c 0,0.297 -0.266,0.297 -0.5,0.297 h -9.375 c -0.219,0 -0.5,0 -0.5,-0.281 0,-0.313 0.266,-0.313 0.5,-0.313 z"
   id="path17"
   inkscape:connector-curvature="0"
   style="fill:#000000;stroke-width:0" />
<path
   d="m 52.801,27.227 0,0.008 -0.001,0.009 -10e-4,0.008 -10e-4,0.008 -0.002,0.008 -0.002,0.008 -0.002,0.007 -0.002,0.008 -0.003,0.007 -0.004,0.006 -0.003,0.007 -0.004,0.006 -0.004,0.006 -0.004,0.006 -0.005,0.006 -0.005,0.005 -0.005,0.005 -0.006,0.005 -0.006,0.004 -0.006,0.004 -0.006,0.004 -0.007,0.003 -0.006,0.004 -0.008,0.003 -0.007,0.002 -0.007,0.002 -0.008,0.002 -0.008,0.002 -0.008,0.001 -0.008,0.001 -0.009,10e-4 -0.008,0 c -0.141,0 -0.157,-0.047 -0.25,-0.328 -0.407,-1.438 -1.063,-1.938 -1.579,-1.938 -0.187,0 -0.421,0.047 -0.421,0.531 0,0.422 0.187,0.907 0.375,1.375 l 1.109,2.954 c 0.047,0.14 0.156,0.421 0.156,0.718 0,0.672 -0.469,1.282 -1.25,1.282 -1.469,0 -2.062,-2.313 -2.062,-2.438 0,-0.062 0.078,-0.141 0.187,-0.141 0.141,0 0.156,0.063 0.219,0.282 0.375,1.343 0.984,1.968 1.609,1.968 0.141,0 0.407,-0.015 0.407,-0.515 0,-0.422 -0.204,-0.938 -0.329,-1.297 l -1.109,-2.953 c -0.109,-0.25 -0.203,-0.5 -0.203,-0.797 0,-0.719 0.5,-1.281 1.266,-1.281 1.453,0 2.031,2.312 2.031,2.422 z"
   id="path19"
   inkscape:connector-curvature="0"
   style="fill:#000000;stroke-width:0" />
<path
   d="m 52.676,34.883 -0.001,0.022 -10e-4,0.022 -0.003,0.023 -0.004,0.022 -0.005,0.023 -0.006,0.022 -0.007,0.023 -0.008,0.022 -0.009,0.022 -0.011,0.022 -0.011,0.022 -0.012,0.021 -0.014,0.021 -0.015,0.02 -0.015,0.019 -0.017,0.019 -0.018,0.019 -0.018,0.017 -0.02,0.017 -0.021,0.016 -0.022,0.015 -0.023,0.014 -0.024,0.013 -0.025,0.012 -0.026,0.01 -0.027,0.01 -0.028,0.008 -0.029,0.007 -0.031,0.005 -0.031,0.004 -0.032,0.003 -0.033,0 c -0.359,0 -0.781,-0.343 -0.781,-0.765 0,-0.391 0.343,-0.516 0.531,-0.516 0.422,0 0.797,0.406 0.797,0.766 z"
   id="path21"
   inkscape:connector-curvature="0"
   style="fill:#000000;stroke-width:0" />
<path
   d="m 57.797,29.32 0.009,0.038 0.008,0.035 0.009,0.034 0.009,0.033 0.009,0.031 0.011,0.029 0.011,0.028 0.012,0.027 0.013,0.025 0.015,0.024 0.016,0.022 0.019,0.021 0.02,0.02 0.023,0.018 0.025,0.017 0.027,0.016 0.031,0.015 0.033,0.014 0.036,0.012 0.04,0.012 0.044,0.01 0.023,0.005 0.024,0.004 0.025,0.004 0.026,0.004 0.027,0.004 0.028,0.004 0.03,0.003 0.03,0.003 0.031,0.003 0.033,0.002 0.034,0.003 0.035,0.002 0.036,0.002 0.038,10e-4 0.038,0.002 0.04,10e-4 0.042,0.001 0.043,0.001 0.044,10e-4 0.045,0 0.047,0.001 0.048,0 c 0.328,0 0.422,0 0.422,0.203 0,0.14 -0.125,0.14 -0.187,0.14 -0.36,0 -1.281,-0.031 -1.641,-0.031 -0.344,0 -1.156,0.031 -1.484,0.031 -0.078,0 -0.219,0 -0.219,-0.234 0,-0.109 0.109,-0.109 0.313,-0.109 0.031,0 0.234,0 0.421,-0.032 0.203,-0.015 0.313,-0.031 0.313,-0.172 0,-0.046 -0.016,-0.078 -0.047,-0.218 l -1.5,-5.985 c -0.109,-0.437 -0.125,-0.531 -1.016,-0.531 -0.187,0 -0.297,0 -0.297,-0.219 0,-0.125 0.094,-0.125 0.297,-0.125 h 5.172 c 0.266,0 0.281,0 0.344,0.188 l 0.875,2.406 c 0.047,0.125 0.047,0.156 0.047,0.156 0,0.047 -0.031,0.125 -0.125,0.125 -0.11,0 -0.125,-0.047 -0.203,-0.234 -0.375,-1.016 -0.86,-2.297 -2.797,-2.297 h -1.047 c -0.156,0 -0.172,0 -0.25,0.016 -0.109,0.015 -0.141,0.015 -0.141,0.109 0,0.031 0,0.063 0.063,0.25 z"
   id="path23"
   inkscape:connector-curvature="0"
   style="fill:#000000;stroke-width:0" />
<path
   d="m 76.879,30.117 0.042,0 0.042,10e-4 0.043,0.001 0.022,0.001 0.021,0.002 0.022,0.001 0.021,0.003 0.021,0.003 0.02,0.003 0.02,0.004 0.02,0.005 0.019,0.005 0.019,0.006 0.018,0.007 0.017,0.008 0.017,0.009 0.015,0.01 0.015,0.011 0.014,0.012 0.013,0.013 0.012,0.014 0.005,0.007 0.005,0.008 0.005,0.008 0.005,0.009 0.004,0.009 0.004,0.009 0.003,0.01 0.003,0.01 0.003,0.01 0.003,0.01 0.002,0.012 0.002,0.011 10e-4,0.012 0.001,0.012 0.001,0.012 0,0.013 c 0,0.297 -0.266,0.297 -0.5,0.297 h -9.375 c -0.219,0 -0.5,0 -0.5,-0.281 0,-0.297 0.266,-0.297 0.5,-0.297 z"
   id="path25"
   inkscape:connector-curvature="0"
   style="fill:#000000;stroke-width:0" />
<path
   d="m 76.879,27.148 0.042,0 0.042,0.001 0.043,10e-4 0.022,0.002 0.021,10e-4 0.022,0.002 0.021,0.002 0.021,0.003 0.02,0.004 0.02,0.004 0.02,0.005 0.019,0.006 0.019,0.007 0.018,0.007 0.017,0.008 0.017,0.01 0.015,0.01 0.015,0.011 0.014,0.013 0.013,0.014 0.012,0.015 0.005,0.008 0.005,0.008 0.005,0.009 0.005,0.009 0.004,0.009 0.004,0.01 0.003,0.01 0.003,0.01 0.003,0.011 0.003,0.011 0.002,0.012 0.002,0.012 10e-4,0.012 0.001,0.013 0.001,0.014 0,0.013 c 0,0.297 -0.266,0.297 -0.5,0.297 h -9.375 c -0.219,0 -0.5,0 -0.5,-0.281 0,-0.313 0.266,-0.313 0.5,-0.313 z"
   id="path27"
   inkscape:connector-curvature="0"
   style="fill:#000000;stroke-width:0" />
<path
   d="m 93.18,28.617 0.052,0 0.053,10e-4 0.051,0.001 0.025,0.001 0.025,0.002 0.025,0.002 0.024,0.003 0.023,0.003 0.023,0.004 0.023,0.004 0.021,0.005 0.021,0.006 0.02,0.007 0.02,0.008 0.018,0.009 0.018,0.01 0.016,0.01 0.016,0.013 0.014,0.013 0.014,0.014 0.012,0.016 0.011,0.017 0.005,0.009 0.004,0.01 0.005,0.01 0.004,0.01 0.003,0.011 0.004,0.011 0.002,0.011 0.003,0.012 0.002,0.012 0.002,0.013 10e-4,0.013 0.001,0.013 0.001,0.014 0,0.015 c 0,0.328 -0.281,0.328 -0.562,0.328 h -8.594 c -0.266,0 -0.563,0 -0.563,-0.328 0,-0.313 0.297,-0.313 0.563,-0.313 z"
   id="path29"
   inkscape:connector-curvature="0"
   style="fill:#000000;stroke-width:0" />
<path
   d="m 99.609,27.227 0,0.008 0,0.009 -10e-4,0.008 -0.001,0.008 -0.002,0.008 -0.002,0.008 -0.002,0.007 -0.003,0.008 -0.003,0.007 -0.003,0.006 -0.003,0.007 -0.004,0.006 -0.004,0.006 -0.005,0.006 -0.005,0.006 -0.005,0.005 -0.005,0.005 -0.005,0.005 -0.006,0.004 -0.006,0.004 -0.007,0.004 -0.006,0.003 -0.007,0.004 -0.007,0.003 -0.007,0.002 -0.008,0.002 -0.007,0.002 -0.008,0.002 -0.008,0.001 -0.009,0.001 -0.008,10e-4 -0.009,0 c -0.141,0 -0.156,-0.047 -0.25,-0.328 -0.406,-1.438 -1.062,-1.938 -1.578,-1.938 -0.187,0 -0.422,0.047 -0.422,0.531 0,0.422 0.188,0.907 0.375,1.375 l 1.11,2.954 c 0.046,0.14 0.156,0.421 0.156,0.718 0,0.672 -0.469,1.282 -1.25,1.282 -1.469,0 -2.063,-2.313 -2.063,-2.438 0,-0.062 0.078,-0.141 0.188,-0.141 0.14,0 0.156,0.063 0.219,0.282 0.374,1.343 0.984,1.968 1.609,1.968 0.141,0 0.406,-0.015 0.406,-0.515 0,-0.422 -0.203,-0.938 -0.328,-1.297 l -1.109,-2.953 c -0.11,-0.25 -0.204,-0.5 -0.204,-0.797 0,-0.719 0.5,-1.281 1.266,-1.281 1.453,0 2.031,2.312 2.031,2.422 z"
   id="path31"
   inkscape:connector-curvature="0"
   style="fill:#000000;stroke-width:0" />
<path
   d="m 99.484,34.883 0,0.022 -0.002,0.022 -0.003,0.023 -0.003,0.022 -0.005,0.023 -0.006,0.022 -0.007,0.023 -0.009,0.022 -0.009,0.022 -0.01,0.022 -0.011,0.022 -0.013,0.021 -0.013,0.021 -0.015,0.02 -0.016,0.019 -0.016,0.019 -0.018,0.019 -0.019,0.017 -0.02,0.017 -0.021,0.016 -0.021,0.015 -0.023,0.014 -0.024,0.013 -0.025,0.012 -0.026,0.01 -0.028,0.01 -0.028,0.008 -0.029,0.007 -0.03,0.005 -0.031,0.004 -0.032,0.003 -0.033,0 c -0.36,0 -0.782,-0.343 -0.782,-0.765 0,-0.391 0.344,-0.516 0.532,-0.516 0.421,0 0.796,0.406 0.796,0.766 z"
   id="path33"
   inkscape:connector-curvature="0"
   style="fill:#000000;stroke-width:0" />
<path
   d="m 108.92,30.32 0,0.003 0,0.004 0,0.003 0,0.004 0,0.004 -0.01,0.004 0,0.004 0,0.005 0,0.004 0,0.005 0,0.004 -0.01,0.005 0,0.004 0,0.005 -0.01,0.004 0,0.005 0,0.004 -0.01,0.004 0,0.004 -0.01,0.004 0,0.004 -0.01,0.004 0,0.003 -0.01,0.003 0,0.003 -0.01,0.002 -0.01,0.002 0,0.001 0,10e-4 -0.01,0.001 0,0.001 -0.01,0 0,10e-4 0,0 -0.01,0 0,0.001 -0.01,0 c -0.03,0 -0.04,0 -0.17,-0.125 l -0.78,-0.86 c -0.09,0.157 -0.61,0.985 -1.84,0.985 -2.5,0 -5,-2.453 -5,-5.047 0,-1.844 1.31,-3.063 3.01,-3.063 0.97,0 1.83,0.453 2.41,0.969 1.04,0.906 1.23,1.922 1.23,1.953 0,0.125 -0.11,0.125 -0.14,0.125 -0.06,0 -0.11,-0.031 -0.14,-0.125 -0.09,-0.312 -0.36,-1.109 -1.12,-1.75 -0.77,-0.625 -1.47,-0.828 -2.05,-0.828 -1.02,0 -2.19,0.594 -2.19,2.328 0,0.641 0.24,2.438 1.35,3.75 0.68,0.797 1.73,1.344 2.71,1.344 1.14,0 1.8,-0.859 1.8,-2.156 0,-0.438 -0.03,-0.453 -0.03,-0.563 0,-0.109 0.12,-0.109 0.17,-0.109 0.14,0 0.14,0.015 0.2,0.219 z"
   id="path35"
   inkscape:connector-curvature="0"
   style="fill:#000000;stroke-width:0" />
<path
   d="M 5.7188,3.7656 5.7287,3.7244 5.7394,3.6842 5.7632,3.6067 5.7899,3.5332 5.8194,3.4636 5.8515,3.3977 5.8861,3.3354 5.9228,3.2767 5.9617,3.2214 6.0024,3.1695 6.0449,3.1209 6.0889,3.0755 6.1343,3.0331 6.1809,2.9937 6.2285,2.9572 6.277,2.9236 6.3262,2.8926 6.3758,2.8642 6.4258,2.8383 6.476,2.8149 6.5261,2.7938 6.576,2.7749 6.6256,2.7582 6.6746,2.7435 6.7229,2.7307 6.7703,2.7198 6.8166,2.7107 6.8617,2.7032 6.9054,2.6973 6.9475,2.6929 6.9878,2.6898 7.0262,2.6881 7.0625,2.6875 c 0.5156,0 0.8906,0.3281 1.1563,0.875 0.2656,0.5625 0.4687,1.5 0.4687,1.5469 0,0.0937 -0.0625,0.1562 -0.1563,0.1562 C 8.3906,5.2656 8.375,5.1875 8.3125,4.9375 8.0156,3.8438 7.7344,3 7.0938,3 6.625,3 6.625,3.5312 6.625,3.7344 c 0,0.3594 0.0469,0.5312 0.2031,1.1875 0.1094,0.4375 0.2188,0.8593 0.3125,1.3125 L 7.7969,8.8125 C 7.9062,9.2188 7.9062,9.25 7.9062,9.2969 7.9062,9.5312 7.7188,9.6875 7.4844,9.6875 7.0156,9.6875 6.9062,9.2969 6.8125,8.9062 6.6562,8.2812 5.7969,4.8594 5.6875,4.3125 5.6719,4.3125 5.0469,3 3.8906,3 3.0625,3 2.9062,3.7188 2.9062,4.3125 c 0,0.9063 0.4376,2.1719 0.8594,3.2344 0.1875,0.5156 0.2656,0.7187 0.2656,1.0312 0,0.6875 -0.4843,1.2813 -1.25,1.2813 -1.4687,0 -2.06245,-2.3125 -2.06245,-2.4375 0,-0.0625 0.07813,-0.1407 0.1875,-0.1407 0.14065,0 0.15625,0.0626 0.21875,0.2813 0.375,1.375 1,1.9687 1.6094,1.9687 0.1562,0 0.4062,-0.0156 0.4062,-0.5156 0,-0.4218 -0.1718,-0.875 -0.4062,-1.4844 -0.7032,-1.8906 -0.7813,-2.5 -0.7813,-2.9687 0,-1.625 1.2188,-1.875 1.875,-1.875 1.0157,0 1.5781,0.7031 1.8907,1.0781 z"
   id="path37"
   inkscape:connector-curvature="0"
   style="fill:#000000;stroke-width:0" />
<path
   d="m 17.664,8.2031 0,0.0031 0,0.0033 -0.001,0.0035 0,0.0038 -0.001,0.0039 -10e-4,0.0041 -0.002,0.0043 -10e-4,0.0043 -0.002,0.0044 -0.002,0.0045 -0.002,0.0046 -0.003,0.0046 -0.002,0.0045 -0.003,0.0046 -0.004,0.0045 -0.003,0.0044 -0.004,0.0044 -0.004,0.0042 -0.005,0.0041 -0.004,0.0039 -0.005,0.0038 -0.005,0.0035 -0.006,0.0033 -0.006,0.0031 -0.006,0.0028 -0.007,0.0025 -0.006,0.0022 -0.004,9e-4 -0.004,9e-4 -0.003,8e-4 -0.004,6e-4 -0.004,6e-4 -0.004,5e-4 -0.004,4e-4 -0.004,3e-4 -0.005,10e-5 -0.004,10e-5 c -0.031,0 -0.047,0 -0.172,-0.125 L 16.586,7.3281 c -0.094,0.1563 -0.609,0.9844 -1.844,0.9844 -2.5,0 -4.9998,-2.4531 -4.9998,-5.0469 0,-1.8437 1.3128,-3.06248 3.0158,-3.06248 0.969,0 1.828,0.45313 2.406,0.96878 1.047,0.9062 1.234,1.9219 1.234,1.9531 0,0.125 -0.109,0.125 -0.14,0.125 -0.063,0 -0.11,-0.0312 -0.141,-0.125 C 16.023,2.8125 15.758,2.0156 14.992,1.375 14.227,0.75 13.523,0.54688 12.945,0.54688 c -1.015,0 -2.187,0.59372 -2.187,2.32812 0,0.6406 0.234,2.4375 1.344,3.75 0.687,0.7969 1.734,1.3438 2.718,1.3438 1.141,0 1.797,-0.8594 1.797,-2.1563 0,-0.4375 -0.031,-0.4531 -0.031,-0.5625 0,-0.1094 0.125,-0.1094 0.172,-0.1094 0.14,0 0.14,0.0156 0.203,0.2188 z"
   id="path39"
   inkscape:connector-curvature="0"
   style="fill:#000000;stroke-width:0" />
<path
   d="m 38.039,8 0.042,10e-5 0.042,4e-4 0.043,0.0014 0.022,0.001 0.021,0.0015 0.022,0.0019 0.021,0.0023 0.021,0.0028 0.02,0.0034 0.021,0.0041 0.019,0.0047 0.019,0.0054 0.019,0.0062 0.018,0.007 0.017,0.0079 0.017,0.0088 0.016,0.0098 0.014,0.0108 0.014,0.0119 0.013,0.013 0.012,0.0143 0.005,0.0075 0.005,0.0079 0.005,0.0082 0.005,0.0086 0.004,0.0088 0.004,0.0092 0.003,0.0096 0.004,0.0099 0.002,0.0103 0.003,0.0106 0.002,0.011 0.002,0.0114 10e-4,0.0118 10e-4,0.0122 0.001,0.0126 0,0.0129 c 0,0.2969 -0.266,0.2969 -0.5,0.2969 h -9.375 c -0.219,0 -0.5,0 -0.5,-0.2812 C 28.164,8 28.43,8 28.664,8 z"
   id="path41"
   inkscape:connector-curvature="0"
   style="fill:#000000;stroke-width:0" />
<path
   d="m 38.039,5.0312 0.042,10e-5 0.042,5e-4 0.043,0.0014 0.022,0.0012 0.021,0.0015 0.022,0.002 0.021,0.0024 0.021,0.003 0.02,0.0036 0.021,0.0043 0.019,0.0049 0.019,0.0057 0.019,0.0066 0.018,0.0074 0.017,0.0083 0.017,0.0093 0.016,0.0103 0.014,0.0115 0.014,0.0125 0.013,0.0138 0.012,0.015 0.005,0.008 0.005,0.0083 0.005,0.0087 0.005,0.009 0.004,0.0093 0.004,0.0098 0.003,0.0101 0.004,0.0104 0.002,0.0109 0.003,0.0112 0.002,0.0116 0.002,0.0121 10e-4,0.0124 10e-4,0.0128 0.001,0.0133 0,0.0137 c 0,0.2969 -0.266,0.2969 -0.5,0.2969 h -9.375 c -0.219,0 -0.5,0 -0.5,-0.2812 0,-0.3126 0.266,-0.3126 0.5,-0.3126 z"
   id="path43"
   inkscape:connector-curvature="0"
   style="fill:#000000;stroke-width:0" />
<path
   d="m 53.723,3.7656 0.01,-0.0412 0.01,-0.0402 0.024,-0.0775 0.027,-0.0735 0.029,-0.0696 0.032,-0.0659 0.035,-0.0623 0.037,-0.0587 0.039,-0.0553 0.04,-0.0519 0.043,-0.0486 0.044,-0.0454 0.045,-0.0424 0.047,-0.0394 0.047,-0.0365 0.049,-0.0336 0.049,-0.031 0.05,-0.0284 0.05,-0.0259 0.05,-0.0234 0.05,-0.0211 0.05,-0.0189 0.049,-0.0167 0.05,-0.0147 0.048,-0.0128 0.047,-0.0109 0.047,-0.0091 0.045,-0.0075 0.043,-0.0059 0.042,-0.0044 0.041,-0.0031 0.038,-0.0017 0.036,-6e-4 c 0.516,0 0.891,0.3281 1.157,0.875 0.265,0.5625 0.468,1.5 0.468,1.5469 0,0.0937 -0.062,0.1562 -0.156,0.1562 -0.14,0 -0.156,-0.0781 -0.219,-0.3281 C 56.02,3.8438 55.738,3 55.098,3 c -0.469,0 -0.469,0.5312 -0.469,0.7344 0,0.3594 0.047,0.5312 0.203,1.1875 0.109,0.4375 0.219,0.8593 0.313,1.3125 l 0.656,2.5781 c 0.109,0.4063 0.109,0.4375 0.109,0.4844 0,0.2343 -0.187,0.3906 -0.422,0.3906 -0.468,0 -0.578,-0.3906 -0.672,-0.7813 C 54.66,8.2812 53.801,4.8594 53.691,4.3125 53.676,4.3125 53.051,3 51.895,3 51.066,3 50.91,3.7188 50.91,4.3125 c 0,0.9063 0.438,2.1719 0.86,3.2344 0.187,0.5156 0.265,0.7187 0.265,1.0312 0,0.6875 -0.484,1.2813 -1.25,1.2813 -1.469,0 -2.062,-2.3125 -2.062,-2.4375 0,-0.0625 0.078,-0.1407 0.187,-0.1407 0.141,0 0.156,0.0626 0.219,0.2813 0.375,1.375 1,1.9687 1.609,1.9687 0.157,0 0.407,-0.0156 0.407,-0.5156 0,-0.4218 -0.172,-0.875 -0.407,-1.4844 -0.703,-1.8906 -0.781,-2.5 -0.781,-2.9687 0,-1.625 1.219,-1.875 1.875,-1.875 1.016,0 1.578,0.7031 1.891,1.0781 z"
   id="path45"
   inkscape:connector-curvature="0"
   style="fill:#000000;stroke-width:0" />
<path
   d="m 61.355,7.2031 0.009,0.0373 0.009,0.0356 0.008,0.0341 0.009,0.0325 0.01,0.031 0.01,0.0294 0.011,0.028 0.012,0.0265 0.014,0.0251 0.015,0.0238 0.016,0.0223 0.018,0.021 0.021,0.0198 0.022,0.0184 0.025,0.0172 0.028,0.016 0.03,0.0148 0.034,0.0136 0.036,0.0125 0.04,0.0114 0.043,0.0103 0.023,0.0048 0.025,0.0045 0.025,0.0042 0.026,0.004 0.027,0.0038 0.028,0.0035 0.029,0.0033 0.031,0.003 0.031,0.0028 0.033,0.0026 0.034,0.0023 0.035,0.0021 0.036,0.0019 0.037,0.0017 0.039,0.0015 0.04,0.0013 0.041,0.001 0.043,9e-4 0.044,6e-4 0.046,5e-4 0.047,3e-4 0.048,10e-5 c 0.328,0 0.422,0 0.422,0.2031 0,0.1406 -0.125,0.1406 -0.188,0.1406 -0.359,0 -1.281,-0.0312 -1.64,-0.0312 -0.344,0 -1.157,0.0312 -1.485,0.0312 -0.078,0 -0.218,0 -0.218,-0.2343 0,-0.1094 0.109,-0.1094 0.312,-0.1094 0.031,0 0.234,0 0.422,-0.0313 0.203,-0.0156 0.312,-0.0312 0.312,-0.1719 0,-0.0468 -0.015,-0.0781 -0.046,-0.2187 l -1.5,-5.9844 c -0.11,-0.43748 -0.125,-0.53122 -1.016,-0.53122 -0.188,0 -0.297,0 -0.297,-0.21876 0,-0.125 0.094,-0.125 0.297,-0.125 h 5.172 c 0.265,0 0.281,0 0.344,0.1875 l 0.875,2.40628 c 0.046,0.125 0.046,0.1562 0.046,0.1562 0,0.0469 -0.031,0.125 -0.125,0.125 -0.109,0 -0.125,-0.0469 -0.203,-0.2343 C 63.652,2.0781 63.168,0.79688 61.23,0.79688 h -1.046 c -0.157,0 -0.172,0 -0.25,0.01562 -0.11,0.01562 -0.141,0.01562 -0.141,0.10938 0,0.03124 0,0.0625 0.062,0.25002 z"
   id="path47"
   inkscape:connector-curvature="0"
   style="fill:#000000;stroke-width:0" />
<path
   d="m 75.16,6.5156 h 4.391 c 0.219,0 0.5,0 0.5,0.2813 0,0.3125 -0.266,0.3125 -0.5,0.3125 H 75.16 v 4.3746 c 0,0.235 0,0.516 -0.281,0.516 -0.313,0 -0.313,-0.266 -0.313,-0.516 V 7.1094 h -4.39 c -0.219,0 -0.5,0 -0.5,-0.2969 0,-0.2969 0.265,-0.2969 0.5,-0.2969 h 4.39 V 2.125 c 0,-0.2188 0,-0.5 0.297,-0.5 0.297,0 0.297,0.2656 0.297,0.5 z"
   id="path49"
   inkscape:connector-curvature="0"
   style="fill:#000000;stroke-width:0" />
<path
   d="m 89.922,3.7656 0.01,-0.0412 0.011,-0.0402 0.023,-0.0775 0.027,-0.0735 0.03,-0.0696 0.032,-0.0659 0.034,-0.0623 0.037,-0.0587 0.039,-0.0553 0.041,-0.0519 0.042,-0.0486 0.044,-0.0454 0.045,-0.0424 0.047,-0.0394 0.048,-0.0365 0.048,-0.0336 0.049,-0.031 0.05,-0.0284 0.05,-0.0259 0.05,-0.0234 0.05,-0.0211 0.05,-0.0189 0.05,-0.0167 0.049,-0.0147 0.048,-0.0128 0.047,-0.0109 0.047,-0.0091 0.045,-0.0075 0.044,-0.0059 0.042,-0.0044 0.04,-0.0031 0.038,-0.0017 0.037,-6e-4 c 0.515,0 0.89,0.3281 1.156,0.875 0.266,0.5625 0.469,1.5 0.469,1.5469 0,0.0937 -0.063,0.1562 -0.157,0.1562 -0.14,0 -0.156,-0.0781 -0.218,-0.3281 C 92.219,3.8438 91.938,3 91.297,3 c -0.469,0 -0.469,0.5312 -0.469,0.7344 0,0.3594 0.047,0.5312 0.203,1.1875 0.11,0.4375 0.219,0.8593 0.313,1.3125 L 92,8.8125 c 0.109,0.4063 0.109,0.4375 0.109,0.4844 0,0.2343 -0.187,0.3906 -0.421,0.3906 -0.469,0 -0.579,-0.3906 -0.672,-0.7813 C 90.859,8.2812 90,4.8594 89.891,4.3125 89.875,4.3125 89.25,3 88.094,3 c -0.828,0 -0.985,0.7188 -0.985,1.3125 0,0.9063 0.438,2.1719 0.86,3.2344 0.187,0.5156 0.265,0.7187 0.265,1.0312 0,0.6875 -0.484,1.2813 -1.25,1.2813 -1.468,0 -2.062,-2.3125 -2.062,-2.4375 0,-0.0625 0.078,-0.1407 0.187,-0.1407 0.141,0 0.157,0.0626 0.219,0.2813 0.375,1.375 1,1.9687 1.61,1.9687 0.156,0 0.406,-0.0156 0.406,-0.5156 0,-0.4218 -0.172,-0.875 -0.406,-1.4844 -0.704,-1.8906 -0.782,-2.5 -0.782,-2.9687 0,-1.625 1.219,-1.875 1.875,-1.875 1.016,0 1.578,0.7031 1.891,1.0781 z"
   id="path51"
   inkscape:connector-curvature="0"
   style="fill:#000000;stroke-width:0" />
<path
   d="m 99.18,4.25 0.106,0.0236 0.107,0.0267 0.107,0.0299 0.108,0.033 0.108,0.036 0.108,0.0391 0.107,0.0421 0.109,0.045 0.1,0.048 0.11,0.0508 0.1,0.0537 0.1,0.0566 0.1,0.0593 0.09,0.0621 0.1,0.0649 0.09,0.0675 0.09,0.0702 0.08,0.0727 0.08,0.0754 0.07,0.0779 0.07,0.0805 0.07,0.0829 0.06,0.0854 0.06,0.0878 0.05,0.0902 0.04,0.0925 0.04,0.0948 0.03,0.0971 0.03,0.0994 0.02,0.1015 0.01,0.1038 0,0.1058 c 0,0.9532 -1.01,1.6719 -2.466,1.6719 h -3.187 c -0.219,0 -0.313,0 -0.313,-0.2343 0,-0.1094 0.094,-0.1094 0.313,-0.1094 0.015,0 0.234,0 0.421,-0.0313 0.204,-0.0156 0.297,-0.0312 0.297,-0.1719 0,-0.0468 -0.015,-0.0781 -0.047,-0.2187 L 95.164,1.3281 C 95.039,0.89062 95.023,0.79688 94.148,0.79688 c -0.203,0 -0.312,0 -0.312,-0.21876 0,-0.125 0.141,-0.125 0.156,-0.125 0.313,0 1.094,0.03126 1.406,0.03126 0.313,0 1.11,-0.03126 1.422,-0.03126 0.094,0 0.219,0 0.219,0.21876 0,0.125 -0.094,0.125 -0.312,0.125 -0.407,0 -0.719,0 -0.719,0.20312 0,0.0625 0.015,0.125 0.031,0.1875 l 0.734,2.9531 h 1.329 l -0.016,0.25 h -1.25 l 0.734,2.9063 c 0.063,0.2812 0.094,0.3906 0.313,0.4219 0.094,0.0156 0.453,0.0156 0.672,0.0156 0.797,0 2.035,0 2.035,-1.1094 0,-0.375 -0.18,-1.1562 -0.613,-1.5938 C 99.68,4.75 99.102,4.3906 98.086,4.3906 l 0.016,-0.25 c 1.015,0 1.218,-0.625 1.218,-1.0156 0,-0.1562 -0.093,-0.5 -0.156,-0.7656 -0.078,-0.3125 -0.187,-0.7188 -0.187,-0.9532 0,-1.20308 1.343,-1.20308 1.483,-1.20308 0.95,0 1.35,1.12498 1.35,1.28128 0,0.1406 -0.13,0.1406 -0.13,0.1406 -0.11,0 -0.12,-0.0781 -0.16,-0.1562 -0.28,-0.82818 -0.75,-1.01568 -1.01,-1.01568 -0.36,0 -0.44,0.25 -0.44,0.68748 0,0.3438 0.06,0.9063 0.11,1.2656 0.01,0.1563 0.05,0.375 0.05,0.5313 0,0.8437 -0.753,1.2031 -1.05,1.3125 z"
   id="path53"
   inkscape:connector-curvature="0"
   style="fill:#000000;stroke-width:0" />
</g></svg>
