<?xml version="1.0" encoding="UTF-8" standalone="no"?>
<svg
   xmlns:dc="http://purl.org/dc/elements/1.1/"
   xmlns:cc="http://creativecommons.org/ns#"
   xmlns:rdf="http://www.w3.org/1999/02/22-rdf-syntax-ns#"
   xmlns:svg="http://www.w3.org/2000/svg"
   xmlns="http://www.w3.org/2000/svg"
   xmlns:sodipodi="http://sodipodi.sourceforge.net/DTD/sodipodi-0.dtd"
   xmlns:inkscape="http://www.inkscape.org/namespaces/inkscape"
   version="1.1"
   id="body"
   width="324.80261"
   height="44.374718"
   viewBox="0 0 0.45111474 0.061631552"
   preserveAspectRatio="none"
   inkscape:version="0.48.3.1 r9886"
   sodipodi:docname="ch3-Z-G-36.svg">
  <metadata
     id="metadata77">
    <rdf:RDF>
      <cc:Work
         rdf:about="">
        <dc:format>image/svg+xml</dc:format>
        <dc:type
           rdf:resource="http://purl.org/dc/dcmitype/StillImage" />
      </cc:Work>
    </rdf:RDF>
  </metadata>
  <defs
     id="defs75" />
  <sodipodi:namedview
     pagecolor="#ffffff"
     bordercolor="#666666"
     borderopacity="1"
     objecttolerance="10"
     gridtolerance="10"
     guidetolerance="10"
     inkscape:pageopacity="0"
     inkscape:pageshadow="2"
     inkscape:window-width="640"
     inkscape:window-height="480"
     id="namedview73"
     showgrid="false"
     inkscape:zoom="0.32777778"
     inkscape:cx="381.60157"
     inkscape:cy="459.95432"
     inkscape:window-x="0"
     inkscape:window-y="24"
     inkscape:window-maximized="0"
     inkscape:current-layer="body" />
  <title
     id="title3">SVG drawing</title>
  <desc
     id="desc5">This was produced by version 4.4 of GNU libplot, a free library for exporting 2-D vector graphics.</desc>
  <g
     id="content"
     transform="matrix(0.0017361,0,0,-0.0017361,-0.00124782,0.0615773)"
     xml:space="preserve"
     stroke-miterlimit="10.433"
     font-style="normal"
     font-variant="normal"
     font-weight="normal"
     font-stretch="normal"
     font-size-adjust="none"
     letter-spacing="normal"
     word-spacing="normal"
     style="font-style:normal;font-variant:normal;font-weight:normal;font-stretch:normal;letter-spacing:normal;word-spacing:normal;text-anchor:start;fill:none;stroke:#000000;stroke-linecap:butt;stroke-linejoin:miter;stroke-miterlimit:10.43299961;stroke-opacity:1;stroke-dasharray:none;stroke-dashoffset:0">
<path
   d="m 2.8984,14.977 0.0429,0 0.0464,0 0.0499,10e-4 0.0531,0 0.0561,0.002 0.059,10e-4 0.0617,0.002 0.0643,0.003 0.0666,0.003 0.0688,0.003 0.0708,0.005 0.0726,0.004 0.0743,0.006 0.0758,0.006 0.1553,0.014 0.1592,0.018 0.1616,0.022 0.1626,0.025 0.1624,0.03 0.1605,0.034 0.0792,0.019 0.0783,0.02 0.0771,0.021 0.0758,0.023 0.0743,0.024 0.0727,0.026 c 1.2031,0.469 1.3125,1.391 1.3125,1.672 0,0.703 -0.6094,1.344 -1.6563,1.344 -1.6718,0 -4.06246,-1.516 -4.06246,-4.344 0,-1.672 0.95316,-2.828 2.39066,-2.828 2.1718,0 3.5312,1.687 3.5312,1.89 0,0.094 -0.0937,0.172 -0.1562,0.172 -0.0469,0 -0.0625,-0.015 -0.2032,-0.156 -1.0156,-1.359 -2.5312,-1.594 -3.1406,-1.594 -0.9062,0 -1.375,0.719 -1.375,1.891 0,0.219 0,0.625 0.2344,1.641 l 0.0781,0.312 c 0.6875,2.453 2.2031,2.688 2.7031,2.688 0.7032,0 1.1719,-0.407 1.1719,-1.016 0,-1.672 -2.5312,-1.672 -3.2031,-1.672 H 2.1328 L 2.0547,14.977 z"
   id="path9"
   inkscape:connector-curvature="0"
   style="fill:#000000;stroke-width:0" />
<path
   d="m 11.004,21.246 0.008,0.029 0.009,0.032 0.01,0.036 0.011,0.04 0.012,0.043 0.014,0.046 0.016,0.048 0.016,0.05 0.019,0.052 0.019,0.053 0.022,0.055 0.023,0.055 0.025,0.056 0.027,0.056 0.029,0.056 0.031,0.055 0.033,0.054 0.035,0.054 0.037,0.051 0.04,0.05 0.041,0.048 0.045,0.046 0.046,0.042 0.049,0.04 0.052,0.036 0.054,0.033 0.029,0.014 0.029,0.014 0.029,0.012 0.031,0.012 0.031,0.01 0.031,0.009 0.033,0.008 0.033,0.006 0.034,0.005 0.035,0.004 0.035,0.002 0.036,0.001 c 0.063,0 0.328,0 0.563,-0.141 -0.313,-0.063 -0.532,-0.344 -0.532,-0.609 0,-0.172 0.11,-0.391 0.422,-0.391 0.235,0 0.594,0.203 0.594,0.641 0,0.593 -0.656,0.75 -1.031,0.75 -0.656,0 -1.047,-0.594 -1.172,-0.86 -0.281,0.735 -0.875,0.86 -1.2031,0.86 -1.1562,0 -1.7969,-1.454 -1.7969,-1.719 0,-0.125 0.1094,-0.125 0.125,-0.125 0.0938,0 0.125,0.031 0.1563,0.125 0.375,1.187 1.1094,1.469 1.4844,1.469 0.2187,0 0.6093,-0.11 0.6093,-0.75 0,-0.344 -0.188,-1.094 -0.6093,-2.657 -0.1719,-0.687 -0.5625,-1.156 -1.0469,-1.156 -0.0781,0 -0.3281,0 -0.5625,0.141 0.2812,0.062 0.5156,0.297 0.5156,0.609 0,0.297 -0.2344,0.391 -0.4062,0.391 -0.3282,0 -0.6094,-0.297 -0.6094,-0.657 0,-0.515 0.5469,-0.734 1.0469,-0.734 0.7343,0 1.1406,0.781 1.1718,0.844 0.125,-0.406 0.531,-0.844 1.203,-0.844 1.141,0 1.781,1.438 1.781,1.719 0,0.109 -0.093,0.109 -0.125,0.109 -0.109,0 -0.125,-0.047 -0.156,-0.125 -0.359,-1.187 -1.125,-1.453 -1.484,-1.453 -0.438,0 -0.61,0.359 -0.61,0.734 0,0.25 0.063,0.485 0.188,0.985 z"
   id="path11"
   inkscape:connector-curvature="0"
   style="fill:#000000;stroke-width:0" />
<path
   d="m 29.324,16.445 0.042,0 0.043,0.001 0.043,10e-4 0.021,0.001 0.022,0.002 0.021,0.002 0.021,0.002 0.021,0.003 0.021,0.003 0.02,0.004 0.019,0.005 0.02,0.005 0.018,0.006 0.018,0.007 0.018,0.008 0.016,0.009 0.016,0.01 0.014,0.011 0.014,0.012 0.013,0.013 0.012,0.014 0.005,0.008 0.005,0.007 0.005,0.009 0.005,0.008 0.004,0.009 0.004,0.009 0.003,0.01 0.004,0.01 0.003,0.01 0.002,0.011 0.002,0.011 0.002,0.011 10e-4,0.012 0.001,0.012 0.001,0.013 0,0.013 c 0,0.296 -0.265,0.296 -0.5,0.296 h -9.375 c -0.219,0 -0.5,0 -0.5,-0.281 0,-0.297 0.266,-0.297 0.5,-0.297 z"
   id="path13"
   inkscape:connector-curvature="0"
   style="fill:#000000;stroke-width:0" />
<path
   d="m 29.324,13.477 0.042,0 0.043,0 0.043,0.002 0.021,0.001 0.022,10e-4 0.021,0.002 0.021,0.003 0.021,0.003 0.021,0.003 0.02,0.004 0.019,0.005 0.02,0.006 0.018,0.007 0.018,0.007 0.018,0.008 0.016,0.01 0.016,0.01 0.014,0.011 0.014,0.013 0.013,0.014 0.012,0.015 0.005,0.008 0.005,0.008 0.005,0.009 0.005,0.009 0.004,0.009 0.004,0.01 0.003,0.01 0.004,0.01 0.003,0.011 0.002,0.012 0.002,0.011 0.002,0.012 10e-4,0.013 0.001,0.012 0.001,0.014 0,0.013 c 0,0.297 -0.265,0.297 -0.5,0.297 h -9.375 c -0.219,0 -0.5,0 -0.5,-0.281 0,-0.312 0.266,-0.312 0.5,-0.312 z"
   id="path15"
   inkscape:connector-curvature="0"
   style="fill:#000000;stroke-width:0" />
<path
   d="m 39.738,21.477 0,0.016 0,0.016 0,0.016 0,0.015 0,0.015 0,0.014 0,0.014 0,0.013 -10e-4,0.013 0,0.012 0,0.012 -0.001,0.012 0,0.011 -10e-4,0.01 -10e-4,0.011 -0.001,0.01 -10e-4,0.009 -10e-4,0.01 -0.001,0.008 -10e-4,0.009 -0.002,0.008 -10e-4,0.008 -0.002,0.007 -0.002,0.007 -0.005,0.013 -0.005,0.012 -0.006,0.011 -0.007,0.01 -0.008,0.008 -0.008,0.008 -0.01,0.007 -0.011,0.006 -0.012,0.005 -0.013,0.004 -0.015,0.004 -0.007,10e-4 -0.009,0.002 -0.008,10e-4 -0.009,0.001 -0.009,0.001 -0.009,10e-4 -0.01,0.001 -0.01,0 -0.011,0.001 -0.011,0 -0.011,10e-4 -0.012,0 -0.013,0 -0.012,0 -0.013,0 -0.014,0.001 -0.014,0 -0.014,0 C 39.035,21.43 38.238,20.836 36.613,20.836 v -0.453 c 0.36,0 1.157,0 2.032,0.406 v -8.281 c 0,-0.563 -0.047,-0.766 -1.454,-0.766 h -0.484 v -0.453 c 0.422,0.031 1.969,0.031 2.484,0.031 0.532,0 2.063,0 2.485,-0.031 v 0.453 h -0.485 c -1.406,0 -1.453,0.203 -1.453,0.766 z"
   id="path17"
   inkscape:connector-curvature="0"
   style="fill:#000000;stroke-width:0" />
<path
   d="m 52.844,14.961 h 4.39 c 0.219,0 0.5,0 0.5,0.281 0,0.313 -0.265,0.313 -0.5,0.313 h -4.39 v 4.375 c 0,0.234 0,0.515 -0.282,0.515 -0.312,0 -0.312,-0.265 -0.312,-0.515 v -4.375 h -4.391 c -0.218,0 -0.5,0 -0.5,-0.297 0,-0.297 0.266,-0.297 0.5,-0.297 H 52.25 V 10.57 c 0,-0.218 0,-0.5 0.297,-0.5 0.297,0 0.297,0.266 0.297,0.5 z"
   id="path19"
   inkscape:connector-curvature="0"
   style="fill:#000000;stroke-width:0" />
<path
   d="M 69.715,17.773 69.669,17.764 69.625,17.753 69.582,17.74 69.541,17.726 69.502,17.71 69.464,17.693 69.428,17.675 69.394,17.656 69.361,17.635 69.33,17.614 l -0.029,-0.023 -0.028,-0.024 -0.027,-0.024 -0.025,-0.025 -0.023,-0.026 -0.022,-0.027 -0.021,-0.028 -0.019,-0.028 -0.017,-0.028 -0.017,-0.029 -0.014,-0.029 -0.014,-0.03 -0.012,-0.03 -0.011,-0.03 -0.009,-0.03 -0.008,-0.031 -0.007,-0.03 -0.006,-0.03 -0.004,-0.031 -0.003,-0.03 -0.002,-0.029 0,-0.03 c 0,-0.375 0.312,-0.5 0.531,-0.5 0.469,0 0.812,0.406 0.812,0.844 0,0.656 -0.765,0.969 -1.437,0.969 -0.969,0 -1.5,-0.953 -1.641,-1.266 -0.375,1.203 -1.359,1.266 -1.64,1.266 -1.625,0 -2.485,-2.094 -2.485,-2.438 0,-0.062 0.063,-0.14 0.172,-0.14 0.125,0 0.156,0.093 0.188,0.156 0.547,1.765 1.609,2.094 2.078,2.094 0.703,0 0.859,-0.657 0.859,-1.047 0,-0.344 -0.094,-0.719 -0.297,-1.469 l -0.531,-2.188 c -0.25,-0.953 -0.703,-1.828 -1.547,-1.828 -0.078,0 -0.469,0 -0.812,0.203 0.578,0.125 0.703,0.594 0.703,0.782 0,0.328 -0.235,0.515 -0.547,0.515 -0.375,0 -0.797,-0.343 -0.797,-0.843 0,-0.672 0.75,-0.969 1.438,-0.969 0.765,0 1.296,0.594 1.64,1.25 0.25,-0.938 1.047,-1.25 1.641,-1.25 1.609,0 2.469,2.078 2.469,2.422 0,0.093 -0.063,0.156 -0.157,0.156 -0.14,0 -0.156,-0.078 -0.203,-0.219 -0.437,-1.39 -1.359,-2.047 -2.062,-2.047 -0.563,0 -0.86,0.422 -0.86,1.063 0,0.359 0.063,0.609 0.313,1.656 l 0.562,2.156 c 0.235,0.953 0.766,1.657 1.5,1.657 0.032,0 0.485,0 0.813,-0.204 z"
   id="path21"
   inkscape:connector-curvature="0"
   style="fill:#000000;stroke-width:0" />
<path
   d="m 80.941,14.961 h 4.391 c 0.219,0 0.5,0 0.5,0.281 0,0.313 -0.266,0.313 -0.5,0.313 h -4.391 v 4.375 c 0,0.234 0,0.515 -0.281,0.515 -0.312,0 -0.312,-0.265 -0.312,-0.515 v -4.375 h -4.391 c -0.219,0 -0.5,0 -0.5,-0.297 0,-0.297 0.266,-0.297 0.5,-0.297 h 4.391 V 10.57 c 0,-0.218 0,-0.5 0.297,-0.5 0.296,0 0.296,0.266 0.296,0.5 z"
   id="path23"
   inkscape:connector-curvature="0"
   style="fill:#000000;stroke-width:0" />
<path
   d="M 99.004,28.559 98.958,28.549 98.914,28.538 98.871,28.525 98.83,28.511 98.791,28.495 98.753,28.478 98.717,28.46 98.683,28.441 98.65,28.42 98.619,28.399 98.59,28.376 98.562,28.353 98.535,28.328 98.51,28.303 98.487,28.277 98.465,28.25 l -0.021,-0.027 -0.019,-0.028 -0.017,-0.029 -0.017,-0.029 -0.014,-0.029 -0.014,-0.03 -0.012,-0.03 -0.011,-0.03 -0.009,-0.03 -0.008,-0.031 -0.007,-0.03 -0.005,-0.03 -0.005,-0.03 -0.003,-0.03 -0.002,-0.03 0,-0.03 c 0,-0.375 0.312,-0.5 0.531,-0.5 0.469,0 0.813,0.407 0.813,0.844 0,0.656 -0.766,0.969 -1.438,0.969 -0.969,0 -1.5,-0.953 -1.641,-1.266 -0.375,1.203 -1.359,1.266 -1.64,1.266 -1.625,0 -2.485,-2.094 -2.485,-2.438 0,-0.062 0.063,-0.14 0.172,-0.14 0.125,0 0.157,0.093 0.188,0.156 0.547,1.766 1.609,2.094 2.078,2.094 0.703,0 0.859,-0.657 0.859,-1.047 0,-0.344 -0.093,-0.719 -0.297,-1.469 L 94.91,24.059 c -0.25,-0.954 -0.703,-1.829 -1.547,-1.829 -0.078,0 -0.468,0 -0.812,0.204 0.578,0.125 0.703,0.593 0.703,0.781 0,0.328 -0.234,0.515 -0.547,0.515 -0.375,0 -0.797,-0.343 -0.797,-0.843 0,-0.672 0.75,-0.969 1.438,-0.969 0.765,0 1.297,0.594 1.64,1.25 0.25,-0.938 1.047,-1.25 1.641,-1.25 1.609,0 2.469,2.078 2.469,2.422 0,0.094 -0.063,0.156 -0.157,0.156 -0.14,0 -0.156,-0.078 -0.203,-0.219 -0.437,-1.39 -1.359,-2.047 -2.062,-2.047 -0.563,0 -0.86,0.422 -0.86,1.063 0,0.359 0.063,0.609 0.313,1.656 l 0.562,2.156 c 0.235,0.954 0.766,1.657 1.5,1.657 0.032,0 0.485,0 0.813,-0.203 z"
   id="path25"
   inkscape:connector-curvature="0"
   style="fill:#000000;stroke-width:0" />
<path
   d="m 101.77,28.719 1.17,1.156 c 1.75,1.531 2.42,2.141 2.42,3.25 0,1.266 -1.02,2.172 -2.38,2.172 -1.25,0 -2.07,-1.031 -2.07,-2.031 0,-0.625 0.54,-0.625 0.59,-0.625 0.19,0 0.58,0.14 0.58,0.593 0,0.297 -0.2,0.578 -0.6,0.578 -0.09,0 -0.1,0 -0.14,0 0.25,0.719 0.86,1.126 1.5,1.126 1.02,0 1.5,-0.891 1.5,-1.813 0,-0.891 -0.56,-1.781 -1.17,-2.469 l -2.14,-2.39 c -0.12,-0.11 -0.12,-0.141 -0.12,-0.407 h 4.14 l 0.31,1.938 h -0.28 c -0.06,-0.328 -0.14,-0.828 -0.25,-0.985 -0.08,-0.093 -0.81,-0.093 -1.06,-0.093 z"
   id="path27"
   inkscape:connector-curvature="0"
   style="fill:#000000;stroke-width:0" />
<line
   x1="91.473"
   y1="15.273"
   x2="106.42"
   y2="15.273"
   id="line29"
   style="stroke-width:0.63800001" />
<path
   d="m 102.04,3.0273 h -0.36 C 101.64,2.7617 101.51,1.8867 101.36,1.6211 101.25,1.4805 100.34,1.4805 99.855,1.4805 h -2.937 c 0.422,0.375 1.406,1.3906 1.812,1.7656 2.42,2.2344 3.31,3.0469 3.31,4.625 0,1.8281 -1.45,3.0469 -3.294,3.0469 -1.844,0 -2.922,-1.5625 -2.922,-2.9375 0,-0.8125 0.703,-0.8125 0.75,-0.8125 0.328,0 0.735,0.25 0.735,0.75 0,0.4531 -0.297,0.75 -0.735,0.75 -0.156,0 -0.187,0 -0.234,-0.0157 0.312,1.0782 1.172,1.8127 2.203,1.8127 1.344,0 2.167,-1.1252 2.167,-2.5939 0,-1.3438 -0.776,-2.5313 -1.683,-3.5469 L 95.824,0.73047 v -0.375 h 5.796 z"
   id="path31"
   inkscape:connector-curvature="0"
   style="fill:#000000;stroke-width:0" />
<path
   d="m 117.5,14.961 h 4.39 c 0.22,0 0.5,0 0.5,0.281 0,0.313 -0.27,0.313 -0.5,0.313 h -4.39 v 4.375 c 0,0.234 0,0.515 -0.28,0.515 -0.31,0 -0.31,-0.265 -0.31,-0.515 v -4.375 h -4.39 c -0.22,0 -0.5,0 -0.5,-0.297 0,-0.297 0.26,-0.297 0.5,-0.297 h 4.39 V 10.57 c 0,-0.218 0,-0.5 0.29,-0.5 0.3,0 0.3,0.266 0.3,0.5 z"
   id="path33"
   inkscape:connector-curvature="0"
   style="fill:#000000;stroke-width:0" />
<path
   d="m 141.65,28.559 -0.04,-0.01 -0.05,-0.011 -0.04,-0.013 -0.04,-0.014 -0.04,-0.016 -0.04,-0.017 -0.03,-0.018 -0.04,-0.019 -0.03,-0.021 -0.03,-0.021 -0.03,-0.023 -0.03,-0.023 -0.03,-0.025 -0.02,-0.025 -0.03,-0.026 -0.02,-0.027 -0.02,-0.027 -0.02,-0.028 -0.01,-0.029 -0.02,-0.029 -0.02,-0.029 -0.01,-0.03 -0.01,-0.03 -0.01,-0.03 -0.01,-0.03 -0.01,-0.031 -0.01,-0.03 0,-0.03 -0.01,-0.03 0,-0.03 0,-0.03 0,-0.03 c 0,-0.375 0.31,-0.5 0.53,-0.5 0.47,0 0.81,0.407 0.81,0.844 0,0.656 -0.76,0.969 -1.44,0.969 -0.96,0 -1.5,-0.953 -1.64,-1.266 -0.37,1.203 -1.36,1.266 -1.64,1.266 -1.62,0 -2.48,-2.094 -2.48,-2.438 0,-0.062 0.06,-0.14 0.17,-0.14 0.13,0 0.16,0.093 0.19,0.156 0.55,1.766 1.61,2.094 2.08,2.094 0.7,0 0.86,-0.657 0.86,-1.047 0,-0.344 -0.1,-0.719 -0.3,-1.469 l -0.53,-2.187 c -0.25,-0.954 -0.71,-1.829 -1.55,-1.829 -0.08,0 -0.47,0 -0.81,0.204 0.58,0.125 0.7,0.593 0.7,0.781 0,0.328 -0.23,0.515 -0.55,0.515 -0.37,0 -0.79,-0.343 -0.79,-0.843 0,-0.672 0.75,-0.969 1.44,-0.969 0.76,0 1.29,0.594 1.64,1.25 0.25,-0.938 1.04,-1.25 1.64,-1.25 1.61,0 2.47,2.078 2.47,2.422 0,0.094 -0.07,0.156 -0.16,0.156 -0.14,0 -0.16,-0.078 -0.2,-0.219 -0.44,-1.39 -1.36,-2.047 -2.07,-2.047 -0.56,0 -0.86,0.422 -0.86,1.063 0,0.359 0.07,0.609 0.32,1.656 l 0.56,2.156 c 0.23,0.954 0.76,1.657 1.5,1.657 0.03,0 0.48,0 0.81,-0.203 z"
   id="path35"
   inkscape:connector-curvature="0"
   style="fill:#000000;stroke-width:0" />
<path
   d="m 146.23,31.781 0.08,0.031 0.09,0.033 0.08,0.036 0.08,0.039 0.08,0.041 0.07,0.043 0.08,0.046 0.07,0.048 0.07,0.05 0.07,0.052 0.06,0.054 0.07,0.057 0.06,0.058 0.05,0.06 0.06,0.062 0.05,0.064 0.05,0.065 0.05,0.067 0.05,0.068 0.04,0.07 0.04,0.071 0.03,0.073 0.03,0.073 0.03,0.075 0.03,0.076 0.02,0.077 0.02,0.078 0.02,0.079 0.01,0.08 0.01,0.08 0.01,0.081 0,0.082 c 0,0.922 -0.99,1.547 -2.05,1.547 -1.12,0 -1.98,-0.672 -1.98,-1.531 0,-0.36 0.25,-0.578 0.58,-0.578 0.34,0 0.56,0.25 0.56,0.578 0,0.546 -0.52,0.546 -0.69,0.546 0.34,0.547 1.08,0.704 1.49,0.704 0.45,0 1.06,-0.25 1.06,-1.25 0,-0.141 -0.02,-0.782 -0.31,-1.282 -0.33,-0.531 -0.71,-0.562 -0.99,-0.578 -0.09,-0.015 -0.36,-0.031 -0.44,-0.031 -0.09,-0.016 -0.17,-0.016 -0.17,-0.141 0,-0.109 0.08,-0.109 0.27,-0.109 h 0.5 c 0.9,0 1.33,-0.766 1.33,-1.859 0,-1.516 -0.79,-1.844 -1.27,-1.844 -0.48,0 -1.31,0.187 -1.7,0.859 0.39,-0.062 0.73,0.188 0.73,0.61 0,0.406 -0.3,0.625 -0.62,0.625 -0.27,0 -0.63,-0.157 -0.63,-0.657 0,-1.015 1.03,-1.75 2.25,-1.75 1.36,0 2.38,1.016 2.38,2.157 0,0.922 -0.71,1.781 -1.86,2.015 z"
   id="path37"
   inkscape:connector-curvature="0"
   style="fill:#000000;stroke-width:0" />
<line
   x1="128.03999"
   y1="15.273"
   x2="155.16"
   y2="15.273"
   id="line39"
   style="stroke-width:0.63800001" />
<path
   d="m 130.96,6.0586 -0.02,-7e-4 -0.01,-8e-4 -0.01,-7e-4 -0.01,-8e-4 -0.01,-7e-4 -0.01,-8e-4 -0.01,-8e-4 -0.01,-8e-4 -0.02,-0.0017 -0.02,-0.0018 -0.02,-0.002 -0.02,-0.0021 -0.01,-0.0023 -0.02,-0.0025 -0.01,-0.0027 -0.01,-0.003 -0.02,-0.0032 -0.01,-0.0036 -0.01,-0.0039 -0.01,-0.0042 -0.01,-0.0046 0,-0.0049 -0.01,-0.0054 -0.01,-0.0058 0,-0.0063 -0.01,-0.0068 0,-0.0072 -0.01,-0.0078 0,-0.0083 0,-0.0089 -0.01,-0.0095 0,-0.0102 0,-0.0107 0,-0.0114 0,-0.0122 0,-0.0128 c 0,-0.1562 0.08,-0.1562 0.36,-0.1562 h 0.73 c 1.35,0 1.96,-1.1094 1.96,-2.6407 0,-2.0781 -1.08,-2.64058 -1.86,-2.64058 -0.77,0 -2.07,0.35937 -2.53,1.42188 0.51,-0.0781 0.96,0.2031 0.96,0.7656 0,0.4688 -0.32,0.7813 -0.76,0.7813 -0.39,0 -0.8,-0.2188 -0.8,-0.8282 0,-1.4062 1.41,-2.562456 3.17,-2.562456 1.89,0 3.3,1.437456 3.3,3.046856 0,1.4688 -1.19,2.6094 -2.7,2.875 1.37,0.3906 2.26,1.5625 2.26,2.7969 0,1.25 -1.29,2.1719 -2.84,2.1719 -1.59,0 -2.77,-0.9688 -2.77,-2.125 0,-0.6407 0.5,-0.7657 0.74,-0.7657 0.33,0 0.72,0.25 0.72,0.7188 0,0.5156 -0.39,0.7344 -0.74,0.7344 -0.09,0 -0.12,0 -0.17,-0.0157 0.59,1.0782 2.09,1.0782 2.17,1.0782 0.53,0 1.57,-0.234 1.57,-1.7969 0,-0.2969 -0.05,-1.1875 -0.52,-1.875 -0.47,-0.7031 -1.02,-0.75 -1.44,-0.7656 z"
   id="path41"
   inkscape:connector-curvature="0"
   style="fill:#000000;stroke-width:0" />
<path
   d="m 142.43,4.3242 0,0.0437 0,0.043 -0.01,0.0425 -0.01,0.0417 -0.01,0.0409 -0.01,0.0402 -0.01,0.0392 -0.02,0.0384 -0.01,0.0374 -0.02,0.0364 -0.02,0.0354 -0.02,0.0342 -0.03,0.033 -0.02,0.0319 -0.03,0.0305 -0.03,0.0293 -0.03,0.0278 -0.03,0.0265 -0.03,0.025 -0.03,0.0234 -0.04,0.0219 -0.03,0.0202 -0.04,0.0185 -0.03,0.0169 -0.04,0.015 -0.04,0.0132 -0.04,0.0113 -0.04,0.0093 -0.04,0.0074 -0.05,0.0053 -0.04,0.0033 -0.04,0.0011 c -0.46,0 -0.85,-0.375 -0.85,-0.8438 0,-0.4531 0.39,-0.8437 0.85,-0.8437 0.46,0 0.84,0.3906 0.84,0.8437 z"
   id="path43"
   inkscape:connector-curvature="0"
   style="fill:#000000;stroke-width:0" />
<path
   d="m 154.35,3.0273 h -0.36 c -0.04,-0.2656 -0.17,-1.1406 -0.33,-1.4062 -0.11,-0.1406 -1.01,-0.1406 -1.5,-0.1406 h -2.93 c 0.42,0.375 1.4,1.3906 1.81,1.7656 2.42,2.2344 3.31,3.0469 3.31,4.625 0,1.8281 -1.45,3.0469 -3.3,3.0469 -1.84,0 -2.92,-1.5625 -2.92,-2.9375 0,-0.8125 0.71,-0.8125 0.75,-0.8125 0.33,0 0.74,0.25 0.74,0.75 0,0.4531 -0.3,0.75 -0.74,0.75 -0.15,0 -0.18,0 -0.23,-0.0157 0.31,1.0782 1.17,1.8127 2.2,1.8127 1.35,0 2.17,-1.1252 2.17,-2.5939 0,-1.3438 -0.78,-2.5313 -1.68,-3.5469 l -3.21,-3.59373 v -0.375 h 5.8 z"
   id="path45"
   inkscape:connector-curvature="0"
   style="fill:#000000;stroke-width:0" />
<path
   d="m 166.24,14.961 h 4.39 c 0.22,0 0.5,0 0.5,0.281 0,0.313 -0.27,0.313 -0.5,0.313 h -4.39 v 4.375 c 0,0.234 0,0.515 -0.28,0.515 -0.31,0 -0.31,-0.265 -0.31,-0.515 v -4.375 h -4.4 c -0.21,0 -0.5,0 -0.5,-0.297 0,-0.297 0.27,-0.297 0.5,-0.297 h 4.4 V 10.57 c 0,-0.218 0,-0.5 0.29,-0.5 0.3,0 0.3,0.266 0.3,0.5 z"
   id="path47"
   inkscape:connector-curvature="0"
   style="fill:#000000;stroke-width:0" />
<path
   d="m 200.05,28.559 -0.05,-0.01 -0.04,-0.011 -0.05,-0.013 -0.04,-0.014 -0.04,-0.016 -0.03,-0.017 -0.04,-0.018 -0.03,-0.019 -0.04,-0.021 -0.03,-0.021 -0.03,-0.023 -0.03,-0.023 -0.02,-0.025 -0.03,-0.025 -0.02,-0.026 -0.02,-0.027 -0.02,-0.027 -0.02,-0.028 -0.02,-0.029 -0.02,-0.029 -0.01,-0.029 -0.01,-0.03 -0.02,-0.03 -0.01,-0.03 -0.01,-0.03 0,-0.031 -0.01,-0.03 -0.01,-0.03 0,-0.03 0,-0.03 -0.01,-0.03 0,-0.03 c 0,-0.375 0.32,-0.5 0.54,-0.5 0.46,0 0.81,0.407 0.81,0.844 0,0.656 -0.77,0.969 -1.44,0.969 -0.97,0 -1.5,-0.953 -1.64,-1.266 -0.38,1.203 -1.36,1.266 -1.64,1.266 -1.63,0 -2.49,-2.094 -2.49,-2.438 0,-0.062 0.07,-0.14 0.18,-0.14 0.12,0 0.15,0.093 0.18,0.156 0.55,1.766 1.61,2.094 2.08,2.094 0.7,0 0.86,-0.657 0.86,-1.047 0,-0.344 -0.09,-0.719 -0.3,-1.469 l -0.53,-2.187 c -0.25,-0.954 -0.7,-1.829 -1.54,-1.829 -0.08,0 -0.47,0 -0.82,0.204 0.58,0.125 0.71,0.593 0.71,0.781 0,0.328 -0.24,0.515 -0.55,0.515 -0.37,0 -0.8,-0.343 -0.8,-0.843 0,-0.672 0.75,-0.969 1.44,-0.969 0.77,0 1.3,0.594 1.64,1.25 0.25,-0.938 1.05,-1.25 1.64,-1.25 1.61,0 2.47,2.078 2.47,2.422 0,0.094 -0.06,0.156 -0.16,0.156 -0.14,0 -0.15,-0.078 -0.2,-0.219 -0.44,-1.39 -1.36,-2.047 -2.06,-2.047 -0.56,0 -0.86,0.422 -0.86,1.063 0,0.359 0.06,0.609 0.31,1.656 l 0.56,2.156 c 0.24,0.954 0.77,1.657 1.5,1.657 0.04,0 0.49,0 0.82,-0.203 z"
   id="path49"
   inkscape:connector-curvature="0"
   style="fill:#000000;stroke-width:0" />
<path
   d="m 204.67,29.703 v -0.969 c 0,-0.406 -0.03,-0.531 -0.85,-0.531 h -0.23 v -0.344 c 0.45,0.032 1.03,0.032 1.5,0.032 0.47,0 1.06,0 1.51,-0.032 v 0.344 h -0.23 c -0.83,0 -0.84,0.125 -0.84,0.531 v 0.969 h 1.11 v 0.344 h -1.11 v 5.078 c 0,0.219 0,0.281 -0.19,0.281 -0.09,0 -0.13,0 -0.22,-0.125 l -3.42,-5.234 h 0.31 l 2.72,4.156 v -4.156 h -2.72 -0.31 v -0.344 z"
   id="path51"
   inkscape:connector-curvature="0"
   style="fill:#000000;stroke-width:0" />
<line
   x1="176.77"
   y1="15.273"
   x2="223.21001"
   y2="15.273"
   id="line53"
   style="stroke-width:0.63800001" />
<path
   d="m 182.5,10.699 0,0.015 0,0.014 0,0.014 0,0.013 0,0.026 0,0.025 0,0.023 0,0.022 0,0.021 0,0.02 0,0.019 0,0.017 0,0.017 -0.01,0.015 0,0.014 0,0.014 -0.01,0.012 0,0.012 -0.01,0.01 0,0.01 -0.01,0.009 -0.01,0.008 -0.01,0.007 -0.01,0.006 -0.01,0.006 -0.01,0.005 -0.01,0.004 -0.01,0.004 -0.02,0.002 -0.01,0.003 -0.02,0.002 -0.02,0.001 -0.02,10e-4 0,0 -0.01,0 c -0.13,0 -0.18,0 -0.3,-0.203 l -4.8,-7.4222 h 0.41 l 3.86,6 v -6 h -3.86 -0.41 V 3.0117 h 4.19 V 1.5586 c 0,-0.57813 -0.03,-0.75001 -1.19,-0.75001 h -0.33 V 0.35547 c 0.38,0.03125 1.63,0.03125 2.08,0.03125 0.44,0 1.71,0 2.08,-0.03125 v 0.45312 h -0.31 c -1.16,0 -1.21,0.17188 -1.21,0.75001 v 1.4531 h 1.61 v 0.4531 h -1.61 z"
   id="path55"
   inkscape:connector-curvature="0"
   style="fill:#000000;stroke-width:0" />
<path
   d="m 191.16,4.3242 0,0.0437 0,0.043 -0.01,0.0425 0,0.0417 -0.01,0.0409 -0.01,0.0402 -0.02,0.0392 -0.01,0.0384 -0.02,0.0374 -0.02,0.0364 -0.02,0.0354 -0.02,0.0342 -0.02,0.033 -0.03,0.0319 -0.02,0.0305 -0.03,0.0293 -0.03,0.0278 -0.03,0.0265 -0.03,0.025 -0.04,0.0234 -0.03,0.0219 -0.04,0.0202 -0.03,0.0185 -0.04,0.0169 -0.04,0.015 -0.04,0.0132 -0.04,0.0113 -0.04,0.0093 -0.04,0.0074 -0.04,0.0053 -0.05,0.0033 -0.04,0.0011 c -0.45,0 -0.84,-0.375 -0.84,-0.8438 0,-0.4531 0.39,-0.8437 0.84,-0.8437 0.47,0 0.84,0.3906 0.84,0.8437 z"
   id="path57"
   inkscape:connector-curvature="0"
   style="fill:#000000;stroke-width:0" />
<path
   d="m 199.01,6.0586 -0.01,-7e-4 -0.02,-8e-4 -0.01,-7e-4 -0.01,-8e-4 -0.01,-7e-4 -0.01,-8e-4 -0.01,-8e-4 -0.01,-8e-4 -0.02,-0.0017 -0.02,-0.0018 -0.02,-0.002 -0.02,-0.0021 -0.01,-0.0023 -0.02,-0.0025 -0.01,-0.0027 -0.01,-0.003 -0.01,-0.0032 -0.02,-0.0036 -0.01,-0.0039 -0.01,-0.0042 0,-0.0046 -0.01,-0.0049 -0.01,-0.0054 -0.01,-0.0058 0,-0.0063 -0.01,-0.0068 0,-0.0072 -0.01,-0.0078 0,-0.0083 0,-0.0089 0,-0.0095 -0.01,-0.0102 0,-0.0107 0,-0.0114 0,-0.0122 0,-0.0128 c 0,-0.1562 0.08,-0.1562 0.36,-0.1562 h 0.73 c 1.35,0 1.96,-1.1094 1.96,-2.6407 0,-2.0781 -1.08,-2.64058 -1.86,-2.64058 -0.77,0 -2.07,0.35937 -2.53,1.42188 0.51,-0.0781 0.96,0.2031 0.96,0.7656 0,0.4688 -0.32,0.7813 -0.76,0.7813 -0.39,0 -0.8,-0.2188 -0.8,-0.8282 0,-1.4062 1.41,-2.562456 3.17,-2.562456 1.89,0 3.3,1.437456 3.3,3.046856 0,1.4688 -1.19,2.6094 -2.7,2.875 1.37,0.3906 2.26,1.5625 2.26,2.7969 0,1.25 -1.29,2.1719 -2.84,2.1719 -1.59,0 -2.77,-0.9688 -2.77,-2.125 0,-0.6407 0.5,-0.7657 0.74,-0.7657 0.33,0 0.72,0.25 0.72,0.7188 0,0.5156 -0.39,0.7344 -0.74,0.7344 -0.09,0 -0.12,0 -0.17,-0.0157 0.59,1.0782 2.09,1.0782 2.17,1.0782 0.53,0 1.57,-0.234 1.57,-1.7969 0,-0.2969 -0.05,-1.1875 -0.52,-1.875 -0.47,-0.7031 -1.02,-0.75 -1.44,-0.7656 z"
   id="path59"
   inkscape:connector-curvature="0"
   style="fill:#000000;stroke-width:0" />
<path
   d="m 210.48,4.3242 0,0.0437 0,0.043 -0.01,0.0425 -0.01,0.0417 -0.01,0.0409 -0.01,0.0402 -0.01,0.0392 -0.02,0.0384 -0.01,0.0374 -0.02,0.0364 -0.02,0.0354 -0.02,0.0342 -0.03,0.033 -0.02,0.0319 -0.03,0.0305 -0.03,0.0293 -0.03,0.0278 -0.03,0.0265 -0.03,0.025 -0.03,0.0234 -0.03,0.0219 -0.04,0.0202 -0.04,0.0185 -0.03,0.0169 -0.04,0.015 -0.04,0.0132 -0.04,0.0113 -0.04,0.0093 -0.04,0.0074 -0.05,0.0053 -0.04,0.0033 -0.04,0.0011 c -0.46,0 -0.85,-0.375 -0.85,-0.8438 0,-0.4531 0.39,-0.8437 0.85,-0.8437 0.46,0 0.84,0.3906 0.84,0.8437 z"
   id="path61"
   inkscape:connector-curvature="0"
   style="fill:#000000;stroke-width:0" />
<path
   d="m 222.4,3.0273 h -0.36 C 222,2.7617 221.87,1.8867 221.71,1.6211 221.6,1.4805 220.7,1.4805 220.21,1.4805 h -2.93 c 0.42,0.375 1.4,1.3906 1.81,1.7656 2.42,2.2344 3.31,3.0469 3.31,4.625 0,1.8281 -1.45,3.0469 -3.3,3.0469 -1.84,0 -2.92,-1.5625 -2.92,-2.9375 0,-0.8125 0.71,-0.8125 0.75,-0.8125 0.33,0 0.74,0.25 0.74,0.75 0,0.4531 -0.3,0.75 -0.74,0.75 -0.15,0 -0.18,0 -0.23,-0.0157 0.31,1.0782 1.17,1.8127 2.2,1.8127 1.35,0 2.17,-1.1252 2.17,-2.5939 0,-1.3438 -0.78,-2.5313 -1.68,-3.5469 l -3.21,-3.59373 v -0.375 h 5.8 z"
   id="path63"
   inkscape:connector-curvature="0"
   style="fill:#000000;stroke-width:0" />
<path
   d="m 234.29,14.961 h 4.39 c 0.22,0 0.5,0 0.5,0.281 0,0.313 -0.27,0.313 -0.5,0.313 h -4.39 v 4.375 c 0,0.234 0,0.515 -0.28,0.515 -0.31,0 -0.31,-0.265 -0.31,-0.515 v -4.375 h -4.4 c -0.21,0 -0.5,0 -0.5,-0.297 0,-0.297 0.27,-0.297 0.5,-0.297 h 4.4 V 10.57 c 0,-0.218 0,-0.5 0.29,-0.5 0.3,0 0.3,0.266 0.3,0.5 z"
   id="path65"
   inkscape:connector-curvature="0"
   style="fill:#000000;stroke-width:0" />
<path
   d="m 246.55,12.055 0,0.042 -0.01,0.041 0,0.041 -0.01,0.039 -0.01,0.039 -0.01,0.038 -0.01,0.037 -0.02,0.036 -0.01,0.035 -0.02,0.034 -0.02,0.032 -0.02,0.032 -0.02,0.03 -0.03,0.03 -0.02,0.028 -0.03,0.026 -0.03,0.026 -0.03,0.024 -0.02,0.022 -0.03,0.021 -0.04,0.02 -0.03,0.018 -0.03,0.017 -0.03,0.015 -0.04,0.013 -0.03,0.012 -0.04,0.01 -0.03,0.008 -0.04,0.006 -0.04,0.005 -0.03,0.003 -0.04,10e-4 c -0.45,0 -0.78,-0.391 -0.78,-0.766 0,-0.468 0.39,-0.781 0.77,-0.781 0.46,0 0.78,0.375 0.78,0.766 z"
   id="path67"
   inkscape:connector-curvature="0"
   style="fill:#000000;stroke-width:0" />
<path
   d="m 253.54,12.055 0,0.042 0,0.041 -0.01,0.041 0,0.039 -0.01,0.039 -0.01,0.038 -0.02,0.037 -0.01,0.036 -0.02,0.035 -0.02,0.034 -0.02,0.032 -0.02,0.032 -0.02,0.03 -0.02,0.03 -0.03,0.028 -0.02,0.026 -0.03,0.026 -0.03,0.024 -0.03,0.022 -0.03,0.021 -0.03,0.02 -0.03,0.018 -0.03,0.017 -0.04,0.015 -0.03,0.013 -0.04,0.012 -0.03,0.01 -0.04,0.008 -0.03,0.006 -0.04,0.005 -0.04,0.003 -0.03,10e-4 c -0.46,0 -0.78,-0.391 -0.78,-0.766 0,-0.468 0.39,-0.781 0.76,-0.781 0.47,0 0.78,0.375 0.78,0.766 z"
   id="path69"
   inkscape:connector-curvature="0"
   style="fill:#000000;stroke-width:0" />
<path
   d="m 260.52,12.055 0,0.042 0,0.041 -0.01,0.041 -0.01,0.039 -0.01,0.039 -0.01,0.038 -0.01,0.037 -0.01,0.036 -0.02,0.035 -0.02,0.034 -0.02,0.032 -0.02,0.032 -0.02,0.03 -0.03,0.03 -0.02,0.028 -0.03,0.026 -0.02,0.026 -0.03,0.024 -0.03,0.022 -0.03,0.021 -0.03,0.02 -0.04,0.018 -0.03,0.017 -0.03,0.015 -0.04,0.013 -0.03,0.012 -0.04,0.01 -0.03,0.008 -0.04,0.006 -0.03,0.005 -0.04,0.003 -0.04,10e-4 c -0.45,0 -0.78,-0.391 -0.78,-0.766 0,-0.468 0.39,-0.781 0.77,-0.781 0.47,0 0.78,0.375 0.78,0.766 z"
   id="path71"
   inkscape:connector-curvature="0"
   style="fill:#000000;stroke-width:0" />
</g></svg>
