<?xml version="1.0" encoding="UTF-8" standalone="no"?>
<svg
   xmlns:dc="http://purl.org/dc/elements/1.1/"
   xmlns:cc="http://creativecommons.org/ns#"
   xmlns:rdf="http://www.w3.org/1999/02/22-rdf-syntax-ns#"
   xmlns:svg="http://www.w3.org/2000/svg"
   xmlns="http://www.w3.org/2000/svg"
   xmlns:sodipodi="http://sodipodi.sourceforge.net/DTD/sodipodi-0.dtd"
   xmlns:inkscape="http://www.inkscape.org/namespaces/inkscape"
   version="1.1"
   id="body"
   width="152.42215"
   height="60.585548"
   viewBox="0 0 0.21169743 0.084146595"
   preserveAspectRatio="none"
   inkscape:version="0.48.3.1 r9886"
   sodipodi:docname="ch3-Z-G-48.svg">
  <metadata
     id="metadata53">
    <rdf:RDF>
      <cc:Work
         rdf:about="">
        <dc:format>image/svg+xml</dc:format>
        <dc:type
           rdf:resource="http://purl.org/dc/dcmitype/StillImage" />
      </cc:Work>
    </rdf:RDF>
  </metadata>
  <defs
     id="defs51" />
  <sodipodi:namedview
     pagecolor="#ffffff"
     bordercolor="#666666"
     borderopacity="1"
     objecttolerance="10"
     gridtolerance="10"
     guidetolerance="10"
     inkscape:pageopacity="0"
     inkscape:pageshadow="2"
     inkscape:window-width="640"
     inkscape:window-height="480"
     id="namedview49"
     showgrid="false"
     inkscape:zoom="0.32777778"
     inkscape:cx="382.26687"
     inkscape:cy="459.83713"
     inkscape:window-x="0"
     inkscape:window-y="24"
     inkscape:window-maximized="0"
     inkscape:current-layer="body" />
  <title
     id="title3">SVG drawing</title>
  <desc
     id="desc5">This was produced by version 4.4 of GNU libplot, a free library for exporting 2-D vector graphics.</desc>
  <g
     id="content"
     transform="matrix(0.0017361,0,0,-0.0017361,-3.2379152e-4,0.0842551)"
     xml:space="preserve"
     stroke-miterlimit="10.433"
     font-style="normal"
     font-variant="normal"
     font-weight="normal"
     font-stretch="normal"
     font-size-adjust="none"
     letter-spacing="normal"
     word-spacing="normal"
     style="font-style:normal;font-variant:normal;font-weight:normal;font-stretch:normal;letter-spacing:normal;word-spacing:normal;text-anchor:start;fill:none;stroke:#000000;stroke-linecap:butt;stroke-linejoin:miter;stroke-miterlimit:10.43299961;stroke-opacity:1;stroke-dasharray:none;stroke-dashoffset:0">
<path
   d="m 9.5156,32.215 -10e-5,0.006 -2e-4,0.007 -4e-4,0.006 -5e-4,0.006 -7e-4,0.005 -8e-4,0.006 -10e-4,0.005 -0.001,0.005 L 9.5097,32.266 9.5083,32.271 9.5069,32.276 9.5053,32.28 9.5037,32.284 9.5019,32.288 9.5,32.292 9.498,32.296 9.496,32.3 9.4938,32.303 9.4916,32.307 9.4893,32.31 9.4869,32.313 9.4845,32.316 9.4819,32.319 9.4794,32.321 9.474,32.326 9.4685,32.33 9.4628,32.334 9.457,32.338 l -0.0059,0.003 -0.0059,0.003 -0.006,0.002 -0.006,0.002 -0.0059,0.002 -0.0058,10e-4 -0.0058,10e-4 -0.0055,0.001 -0.0054,10e-4 -0.0052,10e-4 -0.0049,0 -0.0047,0 -0.0043,0 -0.004,0 -0.0035,0 -0.0032,0 C 9.3125,32.355 9.2969,32.34 9.0938,32.105 9,31.996 8.3594,31.168 8.3438,31.152 c -0.5313,1.032 -1.5782,1.203 -2.25,1.203 -2.0157,0 -3.8438,-1.843 -3.8438,-3.64 0,-1.188 0.7188,-1.891 1.5,-2.156 0.1719,-0.063 1.1094,-0.329 1.5781,-0.438 0.8125,-0.219 1.0313,-0.281 1.3594,-0.625 0.0625,-0.078 0.375,-0.453 0.375,-1.203 0,-1.469 -1.3594,-3 -2.9531,-3 -1.2969,0 -2.75,0.562 -2.75,2.344 0,0.297 0.0625,0.672 0.1094,0.843 0,0.047 0.0156,0.125 0.0156,0.157 0,0.062 -0.0313,0.14 -0.1563,0.14 -0.1406,0 -0.1562,-0.031 -0.2187,-0.297 L 0.29688,21.215 c 0,-0.016 -0.0625,-0.219 -0.0625,-0.235 0,-0.14 0.125,-0.14 0.15624,-0.14 0.0625,0 0.07813,0.015 0.26563,0.25 L 1.3906,22.043 C 1.7812,21.465 2.5938,20.84 4.0781,20.84 6.125,20.84 8,22.824 8,24.809 8,25.48 7.8438,26.059 7.2344,26.652 6.9062,26.98 6.625,27.059 5.1562,27.449 4.0938,27.73 3.9531,27.777 3.6719,28.027 3.3906,28.309 3.1875,28.684 3.1875,29.23 c 0,1.329 1.3594,2.704 2.8594,2.704 1.5625,0 2.2969,-0.954 2.2969,-2.469 0,-0.406 -0.0782,-0.844 -0.0782,-0.906 0,-0.141 0.125,-0.141 0.1719,-0.141 0.1406,0 0.1563,0.047 0.2187,0.297 z"
   id="path9"
   inkscape:connector-curvature="0"
   style="fill:#000000;stroke-width:0" />
<path
   d="m 12.191,25.746 0,0.022 -0.001,0.021 -0.003,0.021 -0.003,0.021 -0.004,0.02 -0.005,0.02 -0.006,0.019 -0.006,0.018 -0.008,0.019 -0.008,0.017 -0.009,0.017 -0.01,0.017 -0.011,0.015 -0.011,0.016 -0.013,0.014 -0.013,0.014 -0.014,0.013 -0.015,0.013 -0.015,0.012 -0.016,0.011 -0.017,0.01 -0.018,0.009 -0.018,0.009 -0.019,0.008 -0.02,0.007 -0.021,0.006 -0.021,0.005 -0.022,0.004 -0.023,0.004 -0.023,0.002 -0.024,0.002 -0.025,0 c -0.296,0 -0.593,-0.297 -0.593,-0.593 0,-0.204 0.156,-0.407 0.422,-0.407 0.25,0 0.593,0.266 0.593,0.594 z"
   id="path11"
   inkscape:connector-curvature="0"
   style="fill:#000000;stroke-width:0" />
<path
   d="m 11.348,21.559 0.011,0.028 0.011,0.027 0.01,0.026 0.009,0.024 0.009,0.023 0.008,0.021 0.008,0.021 0.008,0.02 0.007,0.019 0.006,0.018 0.007,0.017 0.006,0.017 0.012,0.033 0.011,0.032 0.011,0.031 0.011,0.032 0.006,0.017 0.005,0.017 0.007,0.018 0.006,0.018 0.007,0.019 0.007,0.02 0.007,0.02 0.008,0.022 0.008,0.023 0.009,0.025 0.009,0.025 0.01,0.027 c 0.094,0.219 0.156,0.375 0.156,0.594 0,0.5 -0.359,0.922 -0.922,0.922 -1.0465,0 -1.4683,-1.625 -1.4683,-1.719 0,-0.125 0.1093,-0.125 0.125,-0.125 0.1093,0 0.125,0.031 0.1875,0.203 0.2968,1.047 0.7498,1.391 1.1248,1.391 0.094,0 0.281,0 0.281,-0.36 0,-0.234 -0.078,-0.468 -0.125,-0.578 -0.093,-0.297 -0.593,-1.578 -0.765,-2.062 -0.125,-0.297 -0.2658,-0.656 -0.2658,-0.891 0,-0.531 0.3748,-0.922 0.9218,-0.922 1.047,0 1.453,1.625 1.453,1.719 0,0.109 -0.094,0.109 -0.125,0.109 -0.125,0 -0.125,-0.031 -0.172,-0.203 -0.203,-0.703 -0.562,-1.375 -1.14,-1.375 -0.188,0 -0.266,0.11 -0.266,0.36 0,0.281 0.062,0.437 0.328,1.125 z"
   id="path13"
   inkscape:connector-curvature="0"
   style="fill:#000000;stroke-width:0" />
<path
   d="m 28.523,26.324 0.042,0 0.043,10e-4 0.043,0.001 0.021,0.001 0.022,0.002 0.021,10e-4 0.021,0.003 0.021,0.003 0.021,0.003 0.02,0.004 0.02,0.005 0.019,0.005 0.018,0.006 0.018,0.007 0.018,0.008 0.016,0.009 0.016,0.01 0.015,0.011 0.014,0.012 0.012,0.013 0.012,0.014 0.005,0.007 0.006,0.008 0.004,0.009 0.005,0.008 0.004,0.009 0.004,0.009 0.004,0.01 0.003,0.01 0.003,0.01 0.002,0.011 0.002,0.011 0.002,0.011 0.002,0.012 0.001,0.012 0,0.013 0,0.012 c 0,0.297 -0.265,0.297 -0.5,0.297 h -9.375 c -0.218,0 -0.5,0 -0.5,-0.281 0,-0.297 0.266,-0.297 0.5,-0.297 z"
   id="path15"
   inkscape:connector-curvature="0"
   style="fill:#000000;stroke-width:0" />
<path
   d="m 28.523,23.355 0.042,0.001 0.043,0 0.043,10e-4 0.021,0.002 0.022,10e-4 0.021,0.002 0.021,0.003 0.021,0.003 0.021,0.003 0.02,0.004 0.02,0.005 0.019,0.006 0.018,0.007 0.018,0.007 0.018,0.008 0.016,0.01 0.016,0.01 0.015,0.011 0.014,0.013 0.012,0.014 0.012,0.015 0.005,0.008 0.006,0.008 0.004,0.009 0.005,0.009 0.004,0.009 0.004,0.01 0.004,0.01 0.003,0.01 0.003,0.011 0.002,0.011 0.002,0.012 0.002,0.012 0.002,0.012 0.001,0.013 0,0.014 0,0.013 c 0,0.297 -0.265,0.297 -0.5,0.297 h -9.375 c -0.218,0 -0.5,0 -0.5,-0.281 0,-0.313 0.266,-0.313 0.5,-0.313 z"
   id="path17"
   inkscape:connector-curvature="0"
   style="fill:#000000;stroke-width:0" />
<path
   d="m 46.23,32.215 0,0.006 0,0.007 0,0.006 -10e-4,0.006 0,0.005 -10e-4,0.006 -0.001,0.005 -10e-4,0.005 -10e-4,0.005 -0.002,0.005 -10e-4,0.005 -0.002,0.004 -10e-4,0.004 -0.002,0.004 -0.002,0.004 -0.002,0.004 -0.002,0.004 -0.002,0.003 -0.003,0.004 -0.002,0.003 -0.002,0.003 -0.003,0.003 -0.002,0.003 -0.003,0.002 -0.005,0.005 -0.006,0.004 -0.005,0.004 -0.006,0.004 -0.006,0.003 -0.006,0.003 -0.006,0.002 -0.006,0.002 -0.006,0.002 -0.006,10e-4 -0.005,10e-4 -0.006,0.001 -0.005,10e-4 -0.006,10e-4 -0.005,0 -0.004,0 -0.004,0 -0.004,0 -0.004,0 -0.003,0 c -0.031,0 -0.094,0 -0.235,-0.156 l -1.093,-1.344 c -0.547,0.969 -1.422,1.5 -2.625,1.5 -3.422,0 -6.985,-3.484 -6.985,-7.218 0,-2.657 1.86,-4.297 4.172,-4.297 1.281,0 2.391,0.531 3.313,1.312 1.375,1.157 1.797,2.703 1.797,2.828 0,0.141 -0.125,0.141 -0.172,0.141 -0.141,0 -0.157,-0.094 -0.188,-0.156 -0.734,-2.485 -2.89,-3.672 -4.469,-3.672 -1.687,0 -3.156,1.078 -3.156,3.344 0,0.5 0.156,3.265 1.953,5.359 0.875,1.016 2.375,1.906 3.891,1.906 1.734,0 2.516,-1.453 2.516,-3.078 0,-0.406 -0.047,-0.765 -0.047,-0.828 0,-0.141 0.156,-0.141 0.203,-0.141 0.187,0 0.203,0.016 0.265,0.313 z"
   id="path19"
   inkscape:connector-curvature="0"
   style="fill:#000000;stroke-width:0" />
<path
   d="m 56.555,24.84 h 4.39 c 0.219,0 0.5,0 0.5,0.281 0,0.313 -0.265,0.313 -0.5,0.313 h -4.39 v 4.375 c 0,0.234 0,0.515 -0.282,0.515 -0.312,0 -0.312,-0.265 -0.312,-0.515 V 25.434 H 51.57 c -0.218,0 -0.5,0 -0.5,-0.297 0,-0.297 0.266,-0.297 0.5,-0.297 h 4.391 v -4.391 c 0,-0.219 0,-0.5 0.297,-0.5 0.297,0 0.297,0.266 0.297,0.5 z"
   id="path21"
   inkscape:connector-curvature="0"
   style="fill:#000000;stroke-width:0" />
<path
   d="m 78.656,48.062 0,0.022 -0.002,0.022 -0.002,0.021 -0.003,0.02 -0.004,0.02 -0.005,0.02 -0.006,0.019 -0.006,0.019 -0.008,0.018 -0.008,0.018 -0.009,0.017 -0.01,0.016 -0.011,0.016 -0.012,0.015 -0.012,0.015 -0.013,0.014 -0.014,0.013 -0.015,0.012 -0.015,0.012 -0.016,0.011 -0.017,0.01 -0.018,0.01 -0.019,0.008 -0.019,0.008 -0.019,0.007 -0.021,0.006 -0.021,0.006 -0.022,0.004 -0.023,0.003 -0.023,0.003 -0.024,0.001 -0.025,10e-4 c -0.296,0 -0.593,-0.297 -0.593,-0.594 0,-0.203 0.156,-0.406 0.421,-0.406 0.25,0 0.594,0.265 0.594,0.593 z"
   id="path23"
   inkscape:connector-curvature="0"
   style="fill:#000000;stroke-width:0" />
<path
   d="m 77.812,43.875 0.012,0.028 0.011,0.027 0.01,0.026 0.009,0.024 0.009,0.023 0.008,0.022 0.008,0.02 0.007,0.02 0.008,0.019 0.006,0.018 0.007,0.018 0.006,0.017 0.011,0.032 0.012,0.032 0.011,0.032 0.011,0.032 0.005,0.016 0.006,0.017 0.006,0.018 0.007,0.018 0.006,0.019 0.007,0.02 0.008,0.021 0.008,0.022 0.008,0.023 0.009,0.024 0.009,0.026 0.01,0.027 c 0.094,0.218 0.156,0.375 0.156,0.593 0,0.5 -0.359,0.922 -0.922,0.922 -1.047,0 -1.469,-1.625 -1.469,-1.719 0,-0.124 0.11,-0.124 0.126,-0.124 0.109,0 0.124,0.031 0.187,0.203 0.297,1.047 0.75,1.39 1.125,1.39 0.094,0 0.281,0 0.281,-0.359 0,-0.234 -0.078,-0.469 -0.125,-0.578 -0.094,-0.297 -0.594,-1.578 -0.765,-2.063 -0.125,-0.297 -0.266,-0.656 -0.266,-0.89 0,-0.532 0.375,-0.922 0.922,-0.922 1.047,0 1.453,1.625 1.453,1.719 0,0.109 -0.094,0.109 -0.125,0.109 -0.125,0 -0.125,-0.031 -0.172,-0.203 -0.203,-0.703 -0.562,-1.375 -1.141,-1.375 -0.187,0 -0.265,0.109 -0.265,0.359 0,0.281 0.062,0.438 0.328,1.125 z"
   id="path25"
   inkscape:connector-curvature="0"
   style="fill:#000000;stroke-width:0" />
<path
   d="m 86.02,14.062 1.921,5.079 H 87.535 C 86.926,17.5 85.238,16.406 83.41,15.938 c -0.328,-0.079 -1.89,-0.5 -4.937,-0.5 h -9.594 l 8.094,9.5 c 0.109,0.124 0.14,0.171 0.14,0.25 0,0.031 0,0.078 -0.109,0.234 l -7.406,10.125 h 8.703 c 2.14,0 3.578,-0.219 3.719,-0.25 0.859,-0.125 2.25,-0.406 3.5,-1.188 0.406,-0.265 1.484,-0.968 2.015,-2.265 h 0.406 L 86.02,36.312 H 67.223 c -0.36,0 -0.375,-0.015 -0.422,-0.109 -0.016,-0.047 -0.016,-0.344 -0.016,-0.531 l 8.406,-11.5 -8.234,-9.656 c -0.156,-0.188 -0.156,-0.266 -0.156,-0.282 0,-0.172 0.14,-0.172 0.422,-0.172 z"
   id="path27"
   inkscape:connector-curvature="0"
   style="fill:#000000;stroke-width:0" />
<path
   d="m 72.082,9.3555 0,0.0204 -0.002,0.0202 -0.002,0.0199 -0.003,0.0197 -0.004,0.0194 -0.005,0.0191 -0.006,0.0187 -0.007,0.0183 -0.007,0.0179 -0.008,0.0175 -0.009,0.017 -0.01,0.0165 -0.011,0.016 -0.012,0.0155 -0.012,0.0148 -0.013,0.0142 -0.014,0.0136 -0.015,0.0129 -0.015,0.0123 -0.017,0.0115 -0.017,0.0107 -0.017,0.01 -0.019,0.0091 -0.019,0.0083 -0.02,0.0074 -0.02,0.0066 -0.021,0.0056 -0.022,0.0046 -0.023,0.0037 -0.023,0.0027 -0.024,0.0016 -0.025,5e-4 c -0.25,0 -0.594,-0.25 -0.594,-0.5937 0,-0.2188 0.157,-0.4063 0.422,-0.4063 0.297,0 0.594,0.2969 0.594,0.5938 z"
   id="path29"
   inkscape:connector-curvature="0"
   style="fill:#000000;stroke-width:0" />
<path
   d="M 69.848,1.8242 69.826,1.7457 69.803,1.6685 69.778,1.5926 69.751,1.5182 69.723,1.4453 69.693,1.3739 69.662,1.3042 69.628,1.2363 69.594,1.1702 69.558,1.1061 69.52,1.0439 69.481,0.98377 69.441,0.9258 69.399,0.87007 69.357,0.81665 69.313,0.76563 69.267,0.71707 69.221,0.67107 69.173,0.6277 69.125,0.58704 69.075,0.54917 69.024,0.51418 68.973,0.48213 68.92,0.45313 68.867,0.42723 68.813,0.40453 68.758,0.3851 68.702,0.36902 68.646,0.35637 68.589,0.34724 68.531,0.34171 68.473,0.33984 c -0.063,0 -0.235,0 -0.438,0.10938 0.344,0.07812 0.5,0.35937 0.5,0.59378 0,0.1718 -0.109,0.3906 -0.422,0.3906 -0.281,0 -0.593,-0.2344 -0.593,-0.64063 0,-0.45313 0.437,-0.6875 0.984,-0.6875 0.781,0 1.812,0.57812 2.094,1.68753 l 1.015,4.0781 c 0.063,0.2344 0.063,0.3906 0.063,0.4219 0,0.6406 -0.469,1.0312 -1.031,1.0312 -1.125,0 -1.766,-1.625 -1.766,-1.7187 0,-0.125 0.109,-0.125 0.125,-0.125 0.109,0 0.125,0.0156 0.203,0.2343 0.281,0.6719 0.797,1.3594 1.406,1.3594 0.157,0 0.36,-0.0469 0.36,-0.5156 0,-0.25 -0.032,-0.375 -0.078,-0.5625 z"
   id="path31"
   inkscape:connector-curvature="0"
   style="fill:#000000;stroke-width:0" />
<path
   d="m 80.566,6.0273 0.015,0 0.015,10e-5 0.031,4e-4 0.032,0.0011 0.016,9e-4 0.016,0.0012 0.016,0.0016 0.016,0.0019 0.015,0.0024 0.016,0.0028 0.015,0.0034 0.015,0.0039 0.014,0.0045 0.015,0.0051 0.013,0.0059 0.013,0.0066 0.013,0.0073 0.012,0.0082 0.011,0.009 0.011,0.0099 0.01,0.0109 0.004,0.0058 0.005,0.006 0.004,0.0063 0.004,0.0066 0.004,0.0068 0.003,0.0072 0.003,0.0073 0.003,0.0077 0.003,0.008 0.003,0.0083 0.002,0.0085 0.002,0.0089 0.002,0.0092 10e-4,0.0095 0.001,0.0098 0.001,0.0101 0,0.0105 0,0.0108 c 0,0.2188 -0.218,0.2188 -0.375,0.2188 h -6.671 c -0.157,0 -0.375,0 -0.375,-0.2188 0,-0.2344 0.218,-0.2344 0.375,-0.2344 z"
   id="path33"
   inkscape:connector-curvature="0"
   style="fill:#000000;stroke-width:0" />
<path
   d="m 80.566,3.8711 0.015,0 0.015,0 0.031,4e-4 0.032,10e-4 0.032,0.002 0.016,0.0015 0.016,0.0018 0.015,0.0022 0.016,0.0026 0.015,0.0032 0.015,0.0036 0.014,0.0042 0.015,0.0048 0.013,0.0055 0.013,0.0061 0.013,0.0069 0.012,0.0076 0.011,0.0084 0.011,0.0093 0.01,0.0101 0.009,0.0111 0.004,0.0059 0.004,0.0061 0.004,0.0064 0.003,0.0066 0.003,0.0069 0.003,0.0072 0.003,0.0074 0.003,0.0077 0.002,0.008 0.002,0.0083 0.002,0.0086 10e-4,0.0088 0.001,0.0092 0.001,0.0095 0,0.0097 0,0.0101 c 0,0.2344 -0.218,0.2344 -0.375,0.2344 h -6.671 c -0.157,0 -0.375,0 -0.375,-0.2344 0,-0.2187 0.218,-0.2187 0.375,-0.2187 z"
   id="path35"
   inkscape:connector-curvature="0"
   style="fill:#000000;stroke-width:0" />
<path
   d="m 84.852,9.5273 0,0.0123 0,0.012 0,0.0116 0,0.0112 -0.001,0.011 0,0.0106 0,0.0104 0,0.01 0,0.0097 0,0.0094 -0.001,0.0091 0,0.0088 -10e-4,0.0167 -0.002,0.0157 -10e-4,0.0146 -0.003,0.0135 -0.002,0.0125 -0.003,0.0116 -0.004,0.0107 -0.005,0.0097 -0.005,0.0089 -0.006,0.0081 -0.006,0.0073 -0.008,0.0066 -0.008,0.0058 -0.009,0.0052 -0.01,0.0046 -0.006,0.002 -0.006,0.002 -0.006,0.0017 -0.006,0.0017 -0.007,0.0015 -0.006,0.0014 -0.008,0.0013 -0.007,0.0011 -0.008,10e-4 -0.008,10e-4 -0.008,8e-4 -0.009,8e-4 -0.009,6e-4 -0.009,6e-4 -0.01,4e-4 -0.01,4e-4 -0.011,4e-4 -0.01,2e-4 -0.011,2e-4 -0.012,10e-5 -0.012,10e-5 -0.012,0 C 83.898,9.1055 82.914,9.1055 82.57,9.1055 V 8.7617 c 0.219,0 0.875,0 1.453,0.2813 V 3.2617 c 0,-0.3906 -0.031,-0.5312 -1.031,-0.5312 H 82.633 V 2.3867 c 0.39,0.0313 1.359,0.0313 1.797,0.0313 0.453,0 1.422,0 1.812,-0.0313 v 0.3438 h -0.359 c -1,0 -1.031,0.125 -1.031,0.5312 z"
   id="path37"
   inkscape:connector-curvature="0"
   style="fill:#000000;stroke-width:0" />
<path
   d="m 99.105,27.652 -0.046,-0.009 -0.044,-0.011 -0.042,-0.013 -0.041,-0.014 -0.039,-0.016 -0.038,-0.017 -0.036,-0.018 -0.034,-0.019 -0.033,-0.021 -0.031,-0.021 -0.03,-0.023 -0.028,-0.024 -0.026,-0.024 -0.025,-0.025 -0.024,-0.026 -0.022,-0.027 -0.02,-0.028 -0.019,-0.028 -0.018,-0.028 -0.016,-0.029 -0.015,-0.029 -0.013,-0.03 -0.012,-0.03 -0.011,-0.03 -0.01,-0.03 -0.008,-0.031 -0.006,-0.03 -0.006,-0.03 -0.004,-0.031 -0.003,-0.03 -0.002,-0.029 -0.001,-0.03 c 0,-0.375 0.313,-0.5 0.532,-0.5 0.468,0 0.812,0.406 0.812,0.844 0,0.656 -0.766,0.969 -1.437,0.969 -0.969,0 -1.5,-0.954 -1.641,-1.266 -0.375,1.203 -1.359,1.266 -1.641,1.266 -1.625,0 -2.484,-2.094 -2.484,-2.438 0,-0.062 0.062,-0.141 0.172,-0.141 0.125,0 0.156,0.094 0.187,0.157 0.547,1.765 1.61,2.093 2.078,2.093 0.704,0 0.86,-0.656 0.86,-1.046 0,-0.344 -0.094,-0.719 -0.297,-1.469 l -0.531,-2.188 c -0.25,-0.953 -0.703,-1.828 -1.547,-1.828 -0.078,0 -0.469,0 -0.813,0.203 0.578,0.125 0.703,0.594 0.703,0.782 0,0.328 -0.234,0.515 -0.546,0.515 -0.375,0 -0.797,-0.344 -0.797,-0.844 0,-0.671 0.75,-0.968 1.437,-0.968 0.766,0 1.297,0.593 1.641,1.25 0.25,-0.938 1.047,-1.25 1.64,-1.25 1.61,0 2.469,2.078 2.469,2.422 0,0.093 -0.062,0.156 -0.156,0.156 -0.141,0 -0.156,-0.078 -0.203,-0.219 -0.438,-1.391 -1.36,-2.047 -2.063,-2.047 -0.562,0 -0.859,0.422 -0.859,1.063 0,0.359 0.062,0.609 0.312,1.656 l 0.563,2.156 c 0.234,0.953 0.766,1.656 1.5,1.656 0.031,0 0.484,0 0.812,-0.203 z"
   id="path39"
   inkscape:connector-curvature="0"
   style="fill:#000000;stroke-width:0" />
<path
   d="m 104.87,25.746 0,0.021 0,0.02 -0.01,0.02 0,0.019 0,0.02 -0.01,0.019 0,0.019 -0.01,0.018 -0.01,0.018 -0.01,0.017 -0.01,0.017 -0.01,0.017 -0.01,0.016 -0.01,0.015 -0.01,0.015 -0.01,0.014 -0.02,0.014 -0.01,0.013 -0.02,0.012 -0.01,0.011 -0.02,0.011 -0.02,0.01 -0.02,0.009 -0.02,0.009 -0.02,0.007 -0.02,0.007 -0.02,0.005 -0.02,0.005 -0.02,0.003 -0.03,0.003 -0.02,0.002 -0.03,0 c -0.25,0 -0.59,-0.25 -0.59,-0.593 0,-0.219 0.16,-0.407 0.42,-0.407 0.3,0 0.6,0.297 0.6,0.594 z"
   id="path41"
   inkscape:connector-curvature="0"
   style="fill:#000000;stroke-width:0" />
<path
   d="m 102.63,18.215 -0.02,-0.079 -0.02,-0.077 -0.03,-0.076 -0.02,-0.074 -0.03,-0.073 -0.03,-0.071 -0.03,-0.07 -0.04,-0.068 -0.03,-0.066 -0.04,-0.064 -0.03,-0.062 -0.04,-0.061 -0.04,-0.058 -0.05,-0.055 -0.04,-0.054 -0.04,-0.051 -0.05,-0.048 -0.04,-0.046 -0.05,-0.044 -0.05,-0.04 -0.05,-0.038 -0.05,-0.035 -0.05,-0.032 -0.05,-0.029 -0.06,-0.026 -0.05,-0.023 -0.06,-0.019 -0.05,-0.016 -0.06,-0.013 -0.06,-0.009 -0.05,-0.006 -0.06,-0.002 c -0.07,0 -0.24,0 -0.44,0.11 0.34,0.078 0.5,0.359 0.5,0.594 0,0.171 -0.11,0.39 -0.42,0.39 -0.28,0 -0.59,-0.234 -0.59,-0.64 0,-0.454 0.43,-0.688 0.98,-0.688 0.78,0 1.81,0.578 2.09,1.688 l 1.02,4.078 c 0.06,0.234 0.06,0.39 0.06,0.422 0,0.64 -0.47,1.031 -1.03,1.031 -1.12,0 -1.77,-1.625 -1.77,-1.719 0,-0.125 0.11,-0.125 0.13,-0.125 0.11,0 0.12,0.016 0.2,0.234 0.28,0.672 0.8,1.36 1.41,1.36 0.16,0 0.36,-0.047 0.36,-0.516 0,-0.25 -0.03,-0.375 -0.08,-0.562 z"
   id="path43"
   inkscape:connector-curvature="0"
   style="fill:#000000;stroke-width:0" />
<path
   d="m 116.83,31.809 0,0.006 0.01,0.006 0,0.006 0,0.006 0,0.014 0.01,0.014 0,0.014 0,0.015 0.01,0.015 0,0.015 0.01,0.015 0,0.016 0,0.016 0,0.015 0.01,0.016 0,0.015 0,0.008 0,0.007 0,0.008 0,0.007 c 0,0.156 -0.16,0.156 -0.19,0.156 -0.03,0 -0.8,-0.062 -0.87,-0.078 -0.28,-0.016 -0.52,-0.047 -0.8,-0.062 -0.41,-0.032 -0.52,-0.047 -0.52,-0.344 0,-0.156 0.13,-0.156 0.36,-0.156 0.77,0 0.78,-0.141 0.78,-0.297 0,-0.094 -0.03,-0.219 -0.04,-0.266 l -0.97,-3.875 c -0.17,0.422 -0.59,1.063 -1.42,1.063 -1.8,0 -3.74,-2.329 -3.74,-4.672 0,-1.578 0.92,-2.5 2,-2.5 l 0.05,0.312 c -0.66,0 -1.02,0.594 -1.02,1.531 0,0.875 0.49,2.657 0.8,3.313 0.53,1.125 1.28,1.687 1.91,1.687 1.04,0 1.25,-1.296 1.25,-1.421 0,-0.016 -0.05,-0.235 -0.07,-0.266 l -0.78,-3.109 c -0.07,-0.266 -0.07,-0.297 -0.29,-0.61 -0.36,-0.437 -1.05,-1.125 -1.8,-1.125 l -0.05,-0.312 c 0.88,0 1.63,0.687 2.07,1.203 0.15,-0.938 0.9,-1.203 1.39,-1.203 0.46,0 0.86,0.281 1.14,0.859 0.25,0.531 0.47,1.5 0.47,1.563 0,0.093 -0.07,0.156 -0.16,0.156 -0.14,0 -0.16,-0.078 -0.22,-0.328 -0.23,-0.938 -0.55,-1.938 -1.19,-1.938 -0.47,0 -0.5,0.422 -0.5,0.735 0,0.062 0,0.39 0.11,0.843 z"
   id="path45"
   inkscape:connector-curvature="0"
   style="fill:#000000;stroke-width:0" />
<path
   d="m 120.12,27.559 h 1.47 c 0.3,0 0.47,0 0.47,0.281 0,0.172 -0.11,0.172 -0.42,0.172 h -1.39 l 0.58,2.328 c 0.06,0.219 0.06,0.25 0.06,0.359 0,0.266 -0.2,0.406 -0.41,0.406 -0.12,0 -0.5,-0.046 -0.62,-0.562 l -0.63,-2.531 h -1.48 c -0.31,0 -0.47,0 -0.47,-0.297 0,-0.156 0.11,-0.156 0.42,-0.156 h 1.41 l -1.05,-4.204 c -0.12,-0.546 -0.17,-0.703 -0.17,-0.921 0,-0.735 0.53,-1.422 1.42,-1.422 1.6,0 2.46,2.312 2.46,2.422 0,0.109 -0.07,0.156 -0.16,0.156 -0.03,0 -0.09,0 -0.13,-0.063 -0.01,-0.015 -0.03,-0.031 -0.14,-0.297 -0.34,-0.796 -1.06,-1.906 -1.98,-1.906 -0.48,0 -0.52,0.406 -0.52,0.75 0,0.016 0,0.313 0.05,0.516 z"
   id="path47"
   inkscape:connector-curvature="0"
   style="fill:#000000;stroke-width:0" />
</g></svg>
