<?xml version="1.0" encoding="UTF-8" standalone="no"?>
<svg
   xmlns:dc="http://purl.org/dc/elements/1.1/"
   xmlns:cc="http://creativecommons.org/ns#"
   xmlns:rdf="http://www.w3.org/1999/02/22-rdf-syntax-ns#"
   xmlns:svg="http://www.w3.org/2000/svg"
   xmlns="http://www.w3.org/2000/svg"
   xmlns:sodipodi="http://sodipodi.sourceforge.net/DTD/sodipodi-0.dtd"
   xmlns:inkscape="http://www.inkscape.org/namespaces/inkscape"
   version="1.1"
   id="body"
   width="175.81918"
   height="43.984093"
   viewBox="0 0 0.24419331 0.061089018"
   preserveAspectRatio="none"
   inkscape:version="0.48.3.1 r9886"
   sodipodi:docname="ch3-Z-G-54.svg">
  <metadata
     id="metadata55">
    <rdf:RDF>
      <cc:Work
         rdf:about="">
        <dc:format>image/svg+xml</dc:format>
        <dc:type
           rdf:resource="http://purl.org/dc/dcmitype/StillImage" />
      </cc:Work>
    </rdf:RDF>
  </metadata>
  <defs
     id="defs53" />
  <sodipodi:namedview
     pagecolor="#ffffff"
     bordercolor="#666666"
     borderopacity="1"
     objecttolerance="10"
     gridtolerance="10"
     guidetolerance="10"
     inkscape:pageopacity="0"
     inkscape:pageshadow="2"
     inkscape:window-width="640"
     inkscape:window-height="480"
     id="namedview51"
     showgrid="false"
     inkscape:zoom="0.32777778"
     inkscape:cx="381.25001"
     inkscape:cy="459.71994"
     inkscape:window-x="0"
     inkscape:window-y="24"
     inkscape:window-maximized="0"
     inkscape:current-layer="body" />
  <title
     id="title3">SVG drawing</title>
  <desc
     id="desc5">This was produced by version 4.4 of GNU libplot, a free library for exporting 2-D vector graphics.</desc>
  <g
     id="content"
     transform="matrix(0.0017361,0,0,-0.0017361,-0.0017361,0.06136028)"
     xml:space="preserve"
     stroke-miterlimit="10.433"
     font-style="normal"
     font-variant="normal"
     font-weight="normal"
     font-stretch="normal"
     font-size-adjust="none"
     letter-spacing="normal"
     word-spacing="normal"
     style="font-style:normal;font-variant:normal;font-weight:normal;font-stretch:normal;letter-spacing:normal;word-spacing:normal;text-anchor:start;fill:none;stroke:#000000;stroke-linecap:butt;stroke-linejoin:miter;stroke-miterlimit:10.43299961;stroke-opacity:1;stroke-dasharray:none;stroke-dashoffset:0">
<path
   d="m 8.9922,32.715 0.0015,0.006 0.0016,0.006 0.0017,0.006 0.0017,0.007 0.0036,0.013 0.0038,0.014 0.0039,0.014 0.0039,0.015 0.0038,0.015 0.0038,0.015 0.0035,0.016 0.0033,0.015 0.003,0.016 0.0026,0.015 0.0022,0.016 0.0016,0.015 6e-4,0.008 4e-4,0.007 3e-4,0.008 10e-5,0.007 c 0,0.156 -0.1563,0.156 -0.1875,0.156 -0.0313,0 -0.7969,-0.062 -0.875,-0.078 C 7.6953,33.012 7.4609,32.98 7.1797,32.965 6.7734,32.934 6.6641,32.918 6.6641,32.621 c 0,-0.156 0.125,-0.156 0.3593,-0.156 0.7657,0 0.7813,-0.141 0.7813,-0.297 0,-0.094 -0.0313,-0.219 -0.0469,-0.266 L 6.7891,28.027 c -0.1719,0.422 -0.5938,1.063 -1.4219,1.063 -1.7969,0 -3.7344,-2.328 -3.7344,-4.672 0,-1.578 0.9219,-2.5 2,-2.5 l 0.0469,0.312 c -0.6563,0 -1.0156,0.594 -1.0156,1.532 0,0.875 0.4843,2.656 0.7968,3.312 0.5313,1.125 1.2813,1.688 1.9063,1.688 1.0469,0 1.25,-1.297 1.25,-1.422 0,-0.016 -0.0469,-0.235 -0.0625,-0.266 L 5.7734,23.965 C 5.6953,23.699 5.6953,23.668 5.4766,23.355 5.1172,22.918 4.4297,22.23 3.6797,22.23 L 3.6328,21.918 c 0.875,0 1.625,0.687 2.0625,1.203 0.1563,-0.937 0.9063,-1.203 1.3906,-1.203 0.4688,0 0.8594,0.281 1.1407,0.859 0.25,0.532 0.4687,1.5 0.4687,1.563 0,0.094 -0.0625,0.156 -0.1562,0.156 -0.1407,0 -0.1563,-0.078 -0.2188,-0.328 C 8.0859,23.23 7.7734,22.23 7.1328,22.23 c -0.4687,0 -0.5,0.422 -0.5,0.735 0,0.062 0,0.39 0.1094,0.844 z"
   id="path9"
   inkscape:connector-curvature="0"
   style="fill:#000000;stroke-width:0" />
<path
   d="m 10.527,28.719 1.172,1.156 c 1.75,1.531 2.422,2.141 2.422,3.25 0,1.266 -1.015,2.172 -2.375,2.172 -1.25,0 -2.078,-1.031 -2.078,-2.031 0,-0.625 0.547,-0.625 0.594,-0.625 0.187,0 0.578,0.14 0.578,0.593 0,0.297 -0.203,0.578 -0.594,0.578 -0.094,0 -0.109,0 -0.14,0 0.25,0.719 0.859,1.126 1.5,1.126 1.015,0 1.5,-0.891 1.5,-1.813 0,-0.891 -0.563,-1.781 -1.172,-2.469 L 9.793,28.266 C 9.668,28.156 9.668,28.125 9.668,27.859 h 4.141 l 0.312,1.938 H 13.84 c -0.063,-0.328 -0.141,-0.828 -0.25,-0.985 -0.078,-0.093 -0.813,-0.093 -1.063,-0.093 z"
   id="path11"
   inkscape:connector-curvature="0"
   style="fill:#000000;stroke-width:0" />
<path
   d="m 19.371,20.293 -0.084,-0.113 -0.089,-0.111 -0.092,-0.108 -0.097,-0.103 -0.05,-0.051 -0.052,-0.049 -0.052,-0.047 -0.053,-0.047 -0.054,-0.045 -0.055,-0.043 -0.056,-0.042 -0.057,-0.04 -0.058,-0.038 -0.059,-0.037 -0.06,-0.034 -0.06,-0.032 -0.062,-0.031 -0.063,-0.028 -0.063,-0.026 -0.065,-0.023 -0.065,-0.021 -0.066,-0.019 -0.068,-0.016 -0.068,-0.013 -0.068,-0.01 -0.07,-0.008 -0.071,-0.004 -0.071,-0.002 c -0.203,0 -0.953,0.032 -1.203,0.766 0.047,-0.016 0.125,-0.016 0.156,-0.016 0.484,0 0.797,0.407 0.797,0.766 0,0.375 -0.297,0.5 -0.531,0.5 -0.266,0 -0.813,-0.188 -0.813,-0.969 0,-0.812 0.688,-1.375 1.594,-1.375 1.578,0 3.187,1.469 3.625,3.235 l 1.562,6.203 c 0.016,0.078 0.047,0.172 0.047,0.265 0,0.235 -0.187,0.391 -0.422,0.391 -0.14,0 -0.484,-0.063 -0.609,-0.531 l -1.172,-4.672 c -0.078,-0.297 -0.078,-0.328 -0.203,-0.5 -0.328,-0.438 -0.844,-0.985 -1.609,-0.985 -0.891,0 -0.969,0.875 -0.969,1.313 0,0.906 0.422,2.125 0.859,3.266 0.172,0.468 0.266,0.687 0.266,1 0,0.671 -0.469,1.281 -1.25,1.281 -1.469,0 -2.062,-2.313 -2.062,-2.438 0,-0.062 0.078,-0.14 0.187,-0.14 0.141,0 0.156,0.062 0.219,0.281 0.375,1.344 0.984,1.969 1.609,1.969 0.141,0 0.406,0 0.406,-0.516 0,-0.422 -0.172,-0.875 -0.406,-1.484 -0.781,-2.078 -0.781,-2.61 -0.781,-2.985 0,-1.515 1.078,-1.859 1.875,-1.859 0.453,0 1.031,0.141 1.594,0.734 l 0.015,-0.015 c -0.25,-0.938 -0.406,-1.563 -0.953,-2.344 z"
   id="path13"
   inkscape:connector-curvature="0"
   style="fill:#000000;stroke-width:0" />
<line
   x1="0.99219"
   y1="15.273"
   x2="23.363001"
   y2="15.273"
   id="line15"
   style="stroke-width:0.63800001" />
<path
   d="m 10.266,10.996 10e-4,0.006 0.002,0.006 10e-4,0.006 0.002,0.007 0.004,0.013 0.004,0.014 0.003,0.014 0.004,0.015 0.004,0.015 0.004,0.015 0.003,0.016 0.004,0.015 0.003,0.016 0.002,0.016 0.003,0.015 10e-4,0.016 10e-4,0.007 0,0.008 0,0.007 0,0.008 c 0,0.156 -0.156,0.156 -0.187,0.156 -0.031,0 -0.7969,-0.063 -0.875,-0.078 C 8.9688,11.293 8.7344,11.262 8.4531,11.246 8.0469,11.215 7.9375,11.199 7.9375,10.902 c 0,-0.156 0.125,-0.156 0.3594,-0.156 0.7656,0 0.7812,-0.14 0.7812,-0.297 0,-0.093 -0.0312,-0.218 -0.0469,-0.265 L 8.0625,6.3086 C 7.8906,6.7305 7.4688,7.3711 6.6406,7.3711 4.8438,7.3711 2.9062,5.043 2.9062,2.6992 c 0,-1.5781 0.9219,-2.49998 2,-2.49998 l 0.0469,0.3125 c -0.6562,0 -1.0156,0.59378 -1.0156,1.53128 0,0.875 0.4844,2.6562 0.7969,3.3125 0.5312,1.125 1.2812,1.6875 1.9062,1.6875 1.0469,0 1.25,-1.2969 1.25,-1.4219 0,-0.0156 -0.0468,-0.2344 -0.0625,-0.2656 L 7.0469,2.2461 C 6.9688,1.9805 6.9688,1.9492 6.75,1.6367 6.3906,1.1992 5.7031,0.51172 4.9531,0.51172 L 4.9062,0.19922 c 0.875,0 1.625,0.6875 2.0626,1.20308 C 7.125,0.46484 7.875,0.19922 8.3594,0.19922 c 0.4687,0 0.8594,0.28125 1.1406,0.85938 0.25,0.5312 0.4688,1.5 0.4688,1.5625 0,0.0937 -0.0626,0.1562 -0.1563,0.1562 C 9.6719,2.7773 9.6562,2.6992 9.5938,2.4492 9.3594,1.5117 9.0469,0.51172 8.4062,0.51172 c -0.4687,0 -0.5,0.42187 -0.5,0.73438 0,0.0625 0,0.3906 0.1094,0.8437 z"
   id="path17"
   inkscape:connector-curvature="0"
   style="fill:#000000;stroke-width:0" />
<path
   d="m 13.562,6.7461 h 1.469 c 0.297,0 0.469,0 0.469,0.2812 0,0.1719 -0.109,0.1719 -0.422,0.1719 h -1.39 l 0.578,2.3281 c 0.062,0.2188 0.062,0.25 0.062,0.3594 0,0.2653 -0.203,0.4063 -0.406,0.4063 -0.125,0 -0.5,-0.047 -0.625,-0.5625 L 12.672,7.1992 h -1.484 c -0.313,0 -0.469,0 -0.469,-0.2969 0,-0.1562 0.109,-0.1562 0.422,-0.1562 h 1.406 L 11.5,2.543 C 11.375,1.9961 11.328,1.8398 11.328,1.6211 c 0,-0.73438 0.531,-1.42188 1.422,-1.42188 1.594,0 2.453,2.31248 2.453,2.42188 0,0.1094 -0.062,0.1562 -0.156,0.1562 -0.031,0 -0.094,0 -0.125,-0.0625 C 14.906,2.6992 14.891,2.6836 14.781,2.418 14.438,1.6211 13.719,0.51172 12.797,0.51172 c -0.485,0 -0.516,0.40625 -0.516,0.74998 0,0.0156 0,0.3125 0.047,0.5156 z"
   id="path19"
   inkscape:connector-curvature="0"
   style="fill:#000000;stroke-width:0" />
<path
   d="m 17.438,5.8203 1.171,1.1563 c 1.75,1.5312 2.422,2.1406 2.422,3.2504 0,1.265 -1.015,2.171 -2.375,2.171 -1.25,0 -2.078,-1.031 -2.078,-2.031 0,-0.6248 0.547,-0.6248 0.594,-0.6248 0.187,0 0.578,0.1406 0.578,0.5938 0,0.297 -0.203,0.578 -0.594,0.578 -0.094,0 -0.109,0 -0.14,0 0.25,0.719 0.859,1.125 1.5,1.125 1.015,0 1.5,-0.891 1.5,-1.812 0,-0.8911 -0.563,-1.7817 -1.172,-2.4692 L 16.703,5.3672 C 16.578,5.2578 16.578,5.2266 16.578,4.9609 h 4.141 l 0.312,1.9375 H 20.75 C 20.688,6.5703 20.609,6.0703 20.5,5.9141 20.422,5.8203 19.688,5.8203 19.438,5.8203 z"
   id="path21"
   inkscape:connector-curvature="0"
   style="fill:#000000;stroke-width:0" />
<path
   d="m 38.57,14.945 0.053,0 0.052,10e-4 0.052,10e-4 0.025,0.002 0.025,10e-4 0.024,0.002 0.024,0.003 0.024,0.003 0.023,0.004 0.022,0.004 0.022,0.005 0.021,0.006 0.02,0.007 0.019,0.008 0.019,0.009 0.017,0.01 0.017,0.011 0.016,0.012 0.014,0.013 0.013,0.014 0.012,0.016 0.011,0.017 0.005,0.009 0.005,0.01 0.004,0.01 0.004,0.01 0.004,0.011 0.003,0.011 0.003,0.011 0.003,0.012 0.002,0.012 0.002,0.013 10e-4,0.013 10e-4,0.013 0.001,0.014 0,0.015 c 0,0.328 -0.281,0.328 -0.563,0.328 h -8.593 c -0.266,0 -0.563,0 -0.563,-0.328 0,-0.313 0.297,-0.313 0.563,-0.313 z"
   id="path23"
   inkscape:connector-curvature="0"
   style="fill:#000000;stroke-width:0" />
<path
   d="m 49.84,17.242 -0.017,0.04 -0.018,0.042 -0.02,0.042 -0.022,0.043 -0.023,0.044 -0.024,0.044 -0.026,0.044 -0.028,0.045 -0.03,0.045 -0.031,0.045 -0.033,0.044 -0.035,0.044 -0.037,0.043 -0.038,0.043 -0.041,0.041 -0.042,0.041 -0.044,0.039 -0.046,0.038 -0.048,0.036 -0.051,0.035 -0.052,0.033 -0.054,0.03 -0.056,0.029 -0.059,0.026 -0.06,0.024 -0.063,0.021 -0.065,0.018 -0.067,0.015 -0.07,0.013 -0.071,0.008 -0.075,0.006 -0.076,0.002 c -1.797,0 -3.734,-2.328 -3.734,-4.672 0,-1.578 0.921,-2.5 2,-2.5 l 0.046,0.312 c -0.656,0 -1.015,0.594 -1.015,1.532 0,0.875 0.484,2.656 0.797,3.312 0.531,1.125 1.281,1.688 1.906,1.688 1.047,0 1.25,-1.297 1.25,-1.422 0,-0.016 -0.047,-0.235 -0.063,-0.266 L 48.824,13.18 C 48.746,12.914 48.746,12.883 48.527,12.57 48.168,12.133 47.48,11.445 46.73,11.445 l -0.046,-0.312 c 0.875,0 1.625,0.687 2.062,1.203 0.156,-0.938 0.906,-1.203 1.391,-1.203 0.468,0 0.859,0.281 1.14,0.859 0.25,0.531 0.469,1.5 0.469,1.563 0,0.093 -0.062,0.156 -0.156,0.156 -0.141,0 -0.156,-0.078 -0.219,-0.328 -0.234,-0.938 -0.547,-1.938 -1.187,-1.938 -0.469,0 -0.5,0.422 -0.5,0.735 0,0.359 0.046,0.547 0.187,1.156 0.109,0.406 0.203,0.75 0.328,1.219 0.578,2.375 0.719,2.953 0.719,3.047 0,0.218 -0.172,0.39 -0.406,0.39 -0.516,0 -0.641,-0.547 -0.672,-0.75 z"
   id="path25"
   inkscape:connector-curvature="0"
   style="fill:#000000;stroke-width:0" />
<path
   d="m 61.43,32.715 10e-4,0.006 0.002,0.006 10e-4,0.006 0.002,0.007 0.004,0.013 0.004,0.014 0.003,0.014 0.004,0.015 0.004,0.015 0.004,0.015 0.004,0.016 0.003,0.015 0.003,0.016 0.002,0.015 0.003,0.016 0.001,0.015 10e-4,0.008 0,0.007 10e-4,0.008 0,0.007 c 0,0.156 -0.157,0.156 -0.188,0.156 -0.031,0 -0.797,-0.062 -0.875,-0.078 -0.281,-0.015 -0.516,-0.047 -0.797,-0.062 -0.406,-0.031 -0.515,-0.047 -0.515,-0.344 0,-0.156 0.125,-0.156 0.359,-0.156 0.766,0 0.781,-0.141 0.781,-0.297 0,-0.094 -0.031,-0.219 -0.047,-0.266 l -0.968,-3.875 c -0.172,0.422 -0.594,1.063 -1.422,1.063 -1.797,0 -3.735,-2.328 -3.735,-4.672 0,-1.578 0.922,-2.5 2,-2.5 l 0.047,0.312 c -0.656,0 -1.015,0.594 -1.015,1.532 0,0.875 0.484,2.656 0.796,3.312 0.532,1.125 1.282,1.688 1.907,1.688 1.047,0 1.25,-1.297 1.25,-1.422 0,-0.016 -0.047,-0.235 -0.063,-0.266 L 58.211,23.965 C 58.133,23.699 58.133,23.668 57.914,23.355 57.555,22.918 56.867,22.23 56.117,22.23 L 56.07,21.918 c 0.875,0 1.625,0.687 2.063,1.203 0.156,-0.937 0.906,-1.203 1.39,-1.203 0.469,0 0.86,0.281 1.141,0.859 0.25,0.532 0.469,1.5 0.469,1.563 0,0.094 -0.063,0.156 -0.156,0.156 -0.141,0 -0.157,-0.078 -0.219,-0.328 -0.235,-0.938 -0.547,-1.938 -1.188,-1.938 -0.468,0 -0.5,0.422 -0.5,0.735 0,0.062 0,0.39 0.11,0.844 z"
   id="path27"
   inkscape:connector-curvature="0"
   style="fill:#000000;stroke-width:0" />
<path
   d="m 65.727,20.293 -0.085,-0.113 -0.088,-0.111 -0.093,-0.108 -0.097,-0.103 -0.05,-0.051 -0.051,-0.049 -0.052,-0.047 -0.053,-0.047 -0.054,-0.045 -0.055,-0.043 -0.056,-0.042 -0.057,-0.04 -0.058,-0.038 -0.059,-0.037 -0.06,-0.034 -0.061,-0.032 -0.062,-0.031 -0.062,-0.028 -0.064,-0.026 -0.064,-0.023 -0.066,-0.021 -0.066,-0.019 -0.067,-0.016 -0.068,-0.013 -0.069,-0.01 -0.07,-0.008 -0.07,-0.004 -0.072,-0.002 c -0.203,0 -0.953,0.032 -1.203,0.766 0.047,-0.016 0.125,-0.016 0.157,-0.016 0.484,0 0.796,0.407 0.796,0.766 0,0.375 -0.296,0.5 -0.531,0.5 -0.265,0 -0.812,-0.188 -0.812,-0.969 0,-0.812 0.687,-1.375 1.593,-1.375 1.579,0 3.188,1.469 3.625,3.235 l 1.563,6.203 c 0.016,0.078 0.047,0.172 0.047,0.265 0,0.235 -0.188,0.391 -0.422,0.391 -0.141,0 -0.484,-0.063 -0.609,-0.531 L 66.93,23.715 c -0.078,-0.297 -0.078,-0.328 -0.203,-0.5 -0.329,-0.438 -0.844,-0.985 -1.61,-0.985 -0.89,0 -0.969,0.875 -0.969,1.313 0,0.906 0.422,2.125 0.86,3.266 0.172,0.468 0.265,0.687 0.265,1 0,0.671 -0.468,1.281 -1.25,1.281 -1.468,0 -2.062,-2.313 -2.062,-2.438 0,-0.062 0.078,-0.14 0.187,-0.14 0.141,0 0.157,0.062 0.219,0.281 0.375,1.344 0.985,1.969 1.61,1.969 0.14,0 0.406,0 0.406,-0.516 0,-0.422 -0.172,-0.875 -0.406,-1.484 -0.782,-2.078 -0.782,-2.61 -0.782,-2.985 0,-1.515 1.078,-1.859 1.875,-1.859 0.453,0 1.032,0.141 1.594,0.734 l 0.016,-0.015 c -0.25,-0.938 -0.407,-1.563 -0.953,-2.344 z"
   id="path29"
   inkscape:connector-curvature="0"
   style="fill:#000000;stroke-width:0" />
<line
   x1="53.43"
   y1="15.273"
   x2="69.723"
   y2="15.273"
   id="line31"
   style="stroke-width:0.63800001" />
<path
   d="m 62.703,10.996 0.002,0.006 0.001,0.006 0.002,0.006 0.002,0.007 0.003,0.013 0.004,0.014 0.004,0.014 0.004,0.015 0.004,0.015 0.003,0.015 0.004,0.016 0.003,0.015 0.003,0.016 0.003,0.016 0.002,0.015 0.002,0.016 0,0.007 10e-4,0.008 0,0.007 0,0.008 c 0,0.156 -0.156,0.156 -0.188,0.156 -0.031,0 -0.796,-0.063 -0.874,-0.078 -0.282,-0.016 -0.516,-0.047 -0.797,-0.063 -0.407,-0.031 -0.516,-0.047 -0.516,-0.344 0,-0.156 0.125,-0.156 0.359,-0.156 0.766,0 0.782,-0.14 0.782,-0.297 0,-0.093 -0.032,-0.218 -0.047,-0.265 L 60.5,6.3086 c -0.172,0.4219 -0.594,1.0625 -1.422,1.0625 -1.797,0 -3.734,-2.3281 -3.734,-4.6719 0,-1.5781 0.922,-2.49998 2,-2.49998 l 0.047,0.3125 c -0.657,0 -1.016,0.59378 -1.016,1.53128 0,0.875 0.484,2.6562 0.797,3.3125 0.531,1.125 1.281,1.6875 1.906,1.6875 1.047,0 1.25,-1.2969 1.25,-1.4219 0,-0.0156 -0.047,-0.2344 -0.062,-0.2656 L 59.484,2.2461 C 59.406,1.9805 59.406,1.9492 59.188,1.6367 58.828,1.1992 58.141,0.51172 57.391,0.51172 l -0.047,-0.3125 c 0.875,0 1.625,0.6875 2.062,1.20308 0.156,-0.93746 0.906,-1.20308 1.391,-1.20308 0.469,0 0.859,0.28125 1.141,0.85938 0.25,0.5312 0.468,1.5 0.468,1.5625 0,0.0937 -0.062,0.1562 -0.156,0.1562 -0.141,0 -0.156,-0.0781 -0.219,-0.3281 -0.234,-0.9375 -0.547,-1.93748 -1.187,-1.93748 -0.469,0 -0.5,0.42187 -0.5,0.73438 0,0.0625 0,0.3906 0.109,0.8437 z"
   id="path33"
   inkscape:connector-curvature="0"
   style="fill:#000000;stroke-width:0" />
<path
   d="m 66,6.7461 h 1.469 c 0.297,0 0.469,0 0.469,0.2812 0,0.1719 -0.11,0.1719 -0.422,0.1719 h -1.391 l 0.578,2.3281 c 0.063,0.2188 0.063,0.25 0.063,0.3594 0,0.2653 -0.204,0.4063 -0.407,0.4063 -0.125,0 -0.5,-0.047 -0.625,-0.5625 L 65.109,7.1992 h -1.484 c -0.313,0 -0.469,0 -0.469,-0.2969 0,-0.1562 0.11,-0.1562 0.422,-0.1562 h 1.406 L 63.938,2.543 C 63.812,1.9961 63.766,1.8398 63.766,1.6211 c 0,-0.73438 0.531,-1.42188 1.422,-1.42188 1.593,0 2.453,2.31248 2.453,2.42188 0,0.1094 -0.063,0.1562 -0.157,0.1562 -0.031,0 -0.093,0 -0.125,-0.0625 C 67.344,2.6992 67.328,2.6836 67.219,2.418 66.875,1.6211 66.156,0.51172 65.234,0.51172 c -0.484,0 -0.515,0.40625 -0.515,0.74998 0,0.0156 0,0.3125 0.047,0.5156 z"
   id="path35"
   inkscape:connector-curvature="0"
   style="fill:#000000;stroke-width:0" />
<path
   d="m 84.93,14.945 0.052,0 0.053,10e-4 0.051,10e-4 0.025,0.002 0.025,10e-4 0.025,0.002 0.024,0.003 0.023,0.003 0.023,0.004 0.023,0.004 0.021,0.005 0.021,0.006 0.02,0.007 0.02,0.008 0.018,0.009 0.018,0.01 0.016,0.011 0.016,0.012 0.014,0.013 0.014,0.014 0.012,0.016 0.011,0.017 0.005,0.009 0.004,0.01 0.005,0.01 0.004,0.01 0.003,0.011 0.004,0.011 0.002,0.011 0.003,0.012 0.002,0.012 0.002,0.013 10e-4,0.013 0.001,0.013 0.001,0.014 0,0.015 c 0,0.328 -0.281,0.328 -0.562,0.328 h -8.594 c -0.266,0 -0.563,0 -0.563,-0.328 0,-0.313 0.297,-0.313 0.563,-0.313 z"
   id="path37"
   inkscape:connector-curvature="0"
   style="fill:#000000;stroke-width:0" />
<path
   d="m 94.074,21.93 0.002,0.006 0.001,0.006 0.002,0.006 0.002,0.007 0.003,0.013 0.004,0.014 0.004,0.014 0.004,0.015 0.004,0.015 0.004,0.015 0.003,0.015 0.003,0.016 0.003,0.016 0.003,0.015 0.002,0.016 0.002,0.015 0,0.008 10e-4,0.007 0,0.008 0,0.007 c 0,0.156 -0.156,0.156 -0.187,0.156 -0.016,0 -0.594,-0.047 -0.875,-0.078 -0.266,-0.015 -0.516,-0.047 -0.797,-0.062 -0.375,-0.032 -0.5,-0.047 -0.5,-0.344 0,-0.156 0.172,-0.156 0.328,-0.156 0.812,0 0.812,-0.141 0.812,-0.297 0,-0.11 -0.125,-0.578 -0.203,-0.86 l -0.375,-1.531 c -0.156,-0.625 -1.062,-4.234 -1.125,-4.531 -0.078,-0.391 -0.078,-0.656 -0.078,-0.875 0,-1.609 0.906,-2.453 1.938,-2.453 l 0.015,0.312 c -0.515,0 -1.062,0.391 -1.062,1.625 0,0.516 0.047,0.828 0.328,1.938 0.047,0.203 0.297,1.219 0.359,1.437 0.047,0.125 0.985,1.532 2.063,1.532 0.687,0 1.015,-0.704 1.015,-1.516 0,-0.766 -0.453,-2.563 -0.843,-3.391 -0.407,-0.859 -1.125,-1.625 -1.86,-1.625 h 0 l -0.015,-0.312 c 1.843,0 3.75,2.359 3.75,4.672 0,1.453 -0.829,2.5 -2.016,2.5 -0.828,0 -1.578,-0.688 -1.875,-1 z"
   id="path39"
   inkscape:connector-curvature="0"
   style="fill:#000000;stroke-width:0" />
<path
   d="M 101.22,9.5078 101.14,9.3946 101.05,9.2838 100.96,9.1763 100.86,9.0725 100.81,9.0223 100.76,8.9732 100.71,8.9255 100.65,8.8791 100.6,8.8342 100.54,8.7908 100.49,8.749 100.43,8.709 100.37,8.6707 100.31,8.6343 100.25,8.5998 100.19,8.5674 100.13,8.5371 100.07,8.509 100.01,8.4832 99.942,8.4597 99.876,8.4387 99.81,8.4202 99.743,8.4044 99.675,8.3912 99.606,8.3808 99.536,8.3733 99.466,8.3687 99.395,8.3672 c -0.204,0 -0.954,0.0312 -1.204,0.7656 0.047,-0.0156 0.125,-0.0156 0.157,-0.0156 0.484,0 0.797,0.4062 0.797,0.7656 0,0.3752 -0.297,0.5002 -0.532,0.5002 -0.265,0 -0.812,-0.188 -0.812,-0.9689 0,-0.8125 0.687,-1.375 1.594,-1.375 1.575,0 3.185,1.4687 3.625,3.2339 l 1.56,6.204 c 0.02,0.078 0.05,0.171 0.05,0.265 0,0.235 -0.19,0.391 -0.42,0.391 -0.14,0 -0.49,-0.063 -0.61,-0.531 l -1.17,-4.672 c -0.08,-0.297 -0.08,-0.328 -0.21,-0.5 -0.33,-0.438 -0.84,-0.985 -1.61,-0.985 -0.887,0 -0.965,0.875 -0.965,1.313 0,0.906 0.425,2.125 0.855,3.265 0.18,0.469 0.27,0.688 0.27,1 0,0.672 -0.47,1.282 -1.25,1.282 -1.469,0 -2.063,-2.313 -2.063,-2.438 0,-0.062 0.078,-0.14 0.188,-0.14 0.14,0 0.156,0.062 0.218,0.281 0.375,1.344 0.985,1.969 1.61,1.969 0.14,0 0.406,0 0.406,-0.516 0,-0.422 -0.172,-0.875 -0.406,-1.484 -0.782,-2.079 -0.782,-2.61 -0.782,-2.985 0,-1.515 1.079,-1.859 1.879,-1.859 0.45,0 1.03,0.14 1.59,0.734 l 0.02,-0.015 c -0.25,-0.938 -0.41,-1.563 -0.96,-2.3442 z"
   id="path41"
   inkscape:connector-curvature="0"
   style="fill:#000000;stroke-width:0" />
<path
   d="m 120.38,16.445 0.04,0 0.05,0.001 0.04,10e-4 0.02,0.001 0.02,0.002 0.02,0.002 0.03,0.002 0.02,0.003 0.02,0.003 0.02,0.004 0.02,0.005 0.02,0.005 0.02,0.006 0.01,0.007 0.02,0.008 0.02,0.009 0.01,0.01 0.02,0.011 0.01,0.012 0.01,0.013 0.02,0.014 0,0.008 0.01,0.007 0,0.009 0.01,0.008 0,0.009 0,0.009 0.01,0.01 0,0.01 0,0.01 0.01,0.011 0,0.011 0,0.011 0,0.012 0,0.012 0,0.013 0,0.013 c 0,0.296 -0.26,0.296 -0.5,0.296 h -9.37 c -0.22,0 -0.5,0 -0.5,-0.281 0,-0.297 0.26,-0.297 0.5,-0.297 z"
   id="path43"
   inkscape:connector-curvature="0"
   style="fill:#000000;stroke-width:0" />
<path
   d="m 120.38,13.477 0.04,0 0.05,0 0.04,0.002 0.02,0.001 0.02,10e-4 0.02,0.002 0.03,0.003 0.02,0.003 0.02,0.003 0.02,0.004 0.02,0.005 0.02,0.006 0.02,0.007 0.01,0.007 0.02,0.008 0.02,0.01 0.01,0.01 0.02,0.011 0.01,0.013 0.01,0.014 0.02,0.015 0,0.008 0.01,0.008 0,0.009 0.01,0.009 0,0.009 0,0.01 0.01,0.01 0,0.01 0,0.011 0.01,0.012 0,0.011 0,0.012 0,0.013 0,0.012 0,0.014 0,0.013 c 0,0.297 -0.26,0.297 -0.5,0.297 h -9.37 c -0.22,0 -0.5,0 -0.5,-0.281 0,-0.312 0.26,-0.312 0.5,-0.312 z"
   id="path45"
   inkscape:connector-curvature="0"
   style="fill:#000000;stroke-width:0" />
<path
   d="m 133.34,16.383 0,0.246 0,0.244 -0.01,0.245 -0.01,0.243 -0.01,0.242 -0.02,0.242 -0.03,0.24 -0.03,0.239 -0.04,0.238 -0.04,0.238 -0.05,0.235 -0.07,0.235 -0.07,0.233 -0.08,0.232 -0.09,0.231 -0.05,0.115 -0.05,0.114 c -0.66,1.313 -1.8,1.657 -2.58,1.657 -0.92,0 -2.05,-0.454 -2.64,-1.766 -0.44,-1.016 -0.59,-2 -0.59,-3.703 0,-1.547 0.1,-2.703 0.67,-3.844 0.62,-1.203 1.72,-1.578 2.54,-1.578 v 0.312 c -0.5,0 -1.53,0.282 -1.84,2.016 -0.17,0.953 -0.17,2.172 -0.17,3.281 0,1.297 0,2.469 0.25,3.407 0.28,1.078 1.08,1.562 1.76,1.562 0.61,0 1.53,-0.359 1.83,-1.734 0.2,-0.907 0.2,-2.157 0.2,-3.235 0,-1.062 0,-2.281 -0.17,-3.25 -0.29,-1.75 -1.29,-2.047 -1.86,-2.047 h 0 v -0.312 c 1.39,0 2.19,0.828 2.64,1.75 0.58,1.187 0.61,2.75 0.61,3.672 z"
   id="path47"
   inkscape:connector-curvature="0"
   style="fill:#000000;stroke-width:0" />
<path
   d="m 138.21,9.5078 -0.09,-0.1132 -0.09,-0.1108 -0.09,-0.1075 -0.1,-0.1038 -0.05,-0.0502 -0.05,-0.0491 -0.05,-0.0477 -0.05,-0.0464 -0.06,-0.0449 -0.05,-0.0434 -0.06,-0.0418 -0.05,-0.04 -0.06,-0.0383 -0.06,-0.0364 -0.06,-0.0345 -0.06,-0.0324 -0.06,-0.0303 -0.07,-0.0281 -0.06,-0.0258 -0.06,-0.0235 -0.07,-0.021 -0.07,-0.0185 -0.06,-0.0158 -0.07,-0.0132 -0.07,-0.0104 -0.07,-0.0075 -0.07,-0.0046 -0.07,-0.0015 c -0.2,0 -0.95,0.0312 -1.2,0.7656 0.04,-0.0156 0.12,-0.0156 0.15,-0.0156 0.49,0 0.8,0.4062 0.8,0.7656 0,0.3752 -0.3,0.5002 -0.53,0.5002 -0.27,0 -0.81,-0.188 -0.81,-0.9689 0,-0.8125 0.68,-1.375 1.59,-1.375 1.58,0 3.19,1.4687 3.62,3.2339 l 1.57,6.204 c 0.01,0.078 0.04,0.171 0.04,0.265 0,0.235 -0.18,0.391 -0.42,0.391 -0.14,0 -0.48,-0.063 -0.61,-0.531 l -1.17,-4.672 c -0.08,-0.297 -0.08,-0.328 -0.2,-0.5 -0.33,-0.438 -0.85,-0.985 -1.61,-0.985 -0.89,0 -0.97,0.875 -0.97,1.313 0,0.906 0.42,2.125 0.86,3.265 0.17,0.469 0.26,0.688 0.26,1 0,0.672 -0.46,1.282 -1.25,1.282 -1.46,0 -2.06,-2.313 -2.06,-2.438 0,-0.062 0.08,-0.14 0.19,-0.14 0.14,0 0.16,0.062 0.22,0.281 0.37,1.344 0.98,1.969 1.61,1.969 0.14,0 0.4,0 0.4,-0.516 0,-0.422 -0.17,-0.875 -0.4,-1.484 -0.78,-2.079 -0.78,-2.61 -0.78,-2.985 0,-1.515 1.07,-1.859 1.87,-1.859 0.45,0 1.03,0.14 1.6,0.734 l 0.01,-0.015 c -0.25,-0.938 -0.41,-1.563 -0.95,-2.3442 z"
   id="path49"
   inkscape:connector-curvature="0"
   style="fill:#000000;stroke-width:0" />
</g></svg>
