<?xml version="1.0" encoding="UTF-8" standalone="no"?>
<svg
   xmlns:dc="http://purl.org/dc/elements/1.1/"
   xmlns:cc="http://creativecommons.org/ns#"
   xmlns:rdf="http://www.w3.org/1999/02/22-rdf-syntax-ns#"
   xmlns:svg="http://www.w3.org/2000/svg"
   xmlns="http://www.w3.org/2000/svg"
   xmlns:sodipodi="http://sodipodi.sourceforge.net/DTD/sodipodi-0.dtd"
   xmlns:inkscape="http://www.inkscape.org/namespaces/inkscape"
   version="1.1"
   id="body"
   width="220.89702"
   height="40.859112"
   viewBox="0 0 0.30680141 0.056748766"
   preserveAspectRatio="none"
   inkscape:version="0.48.3.1 r9886"
   sodipodi:docname="ch3-Z-G-44.svg">
  <metadata
     id="metadata57">
    <rdf:RDF>
      <cc:Work
         rdf:about="">
        <dc:format>image/svg+xml</dc:format>
        <dc:type
           rdf:resource="http://purl.org/dc/dcmitype/StillImage" />
      </cc:Work>
    </rdf:RDF>
  </metadata>
  <defs
     id="defs55" />
  <sodipodi:namedview
     pagecolor="#ffffff"
     bordercolor="#666666"
     borderopacity="1"
     objecttolerance="10"
     gridtolerance="10"
     guidetolerance="10"
     inkscape:pageopacity="0"
     inkscape:pageshadow="2"
     inkscape:window-width="640"
     inkscape:window-height="480"
     id="namedview53"
     showgrid="false"
     inkscape:zoom="0.32777778"
     inkscape:cx="382.26563"
     inkscape:cy="459.05588"
     inkscape:window-x="0"
     inkscape:window-y="24"
     inkscape:window-maximized="0"
     inkscape:current-layer="body" />
  <title
     id="title3">SVG drawing</title>
  <desc
     id="desc5">This was produced by version 4.4 of GNU libplot, a free library for exporting 2-D vector graphics.</desc>
  <g
     id="content"
     transform="matrix(0.0017361,0,0,-0.0017361,-3.2551875e-4,0.05794234)"
     xml:space="preserve"
     stroke-miterlimit="10.433"
     font-style="normal"
     font-variant="normal"
     font-weight="normal"
     font-stretch="normal"
     font-size-adjust="none"
     letter-spacing="normal"
     word-spacing="normal"
     style="font-style:normal;font-variant:normal;font-weight:normal;font-stretch:normal;letter-spacing:normal;word-spacing:normal;text-anchor:start;fill:none;stroke:#000000;stroke-linecap:butt;stroke-linejoin:miter;stroke-miterlimit:10.43299961;stroke-opacity:1;stroke-dasharray:none;stroke-dashoffset:0">
<path
   d="M 2.4414,23.023 0.23828,22.852 v -0.469 c 1.07812,0 1.20312,-0.11 1.20312,-0.891 v -8.328 c 0,-0.719 -0.1719,-0.719 -1.20312,-0.719 v -0.453 c 0.4375,0.031 1.21872,0.031 1.68752,0.031 0.4844,0 1.2812,0 1.7187,-0.031 v 0.453 c -1.0156,0 -1.2031,0 -1.2031,0.719 z"
   id="path9"
   inkscape:connector-curvature="0"
   style="fill:#000000;stroke-width:0" />
<path
   d="m 11.117,15.852 0,0.136 0,0.13 0,0.124 -0.001,0.119 0,0.114 -10e-4,0.109 -0.002,0.103 -0.002,0.099 -0.002,0.095 -0.003,0.09 -0.004,0.086 -0.005,0.082 -0.005,0.079 -0.006,0.075 -0.007,0.072 -0.009,0.069 -0.009,0.066 -0.011,0.063 -0.011,0.061 -0.013,0.059 -0.015,0.056 -0.016,0.055 -0.017,0.054 -0.019,0.051 -0.021,0.051 -0.022,0.05 -0.024,0.049 -0.026,0.048 -0.028,0.048 -0.03,0.048 -0.032,0.048 -0.034,0.048 c -0.453,0.609 -1.2029,0.719 -1.7498,0.719 -1.5313,0 -2.1406,-1.328 -2.2656,-1.641 H 6.7109 v 1.641 L 4.5547,18.82 v -0.453 c 1.0781,0 1.2031,-0.109 1.2031,-0.89 v -4.313 c 0,-0.719 -0.1719,-0.719 -1.2031,-0.719 v -0.453 c 0.4062,0.031 1.2656,0.031 1.7031,0.031 0.4688,0 1.3281,0 1.7344,-0.031 v 0.453 c -1.0156,0 -1.2031,0 -1.2031,0.719 v 2.953 c 0,1.672 1.0937,2.563 2.0781,2.563 0.9844,0 1.2188,-0.813 1.2188,-1.782 v -3.734 c 0,-0.719 -0.1876,-0.719 -1.2188,-0.719 v -0.453 c 0.4219,0.031 1.2808,0.031 1.7188,0.031 0.469,0 1.328,0 1.734,-0.031 v 0.453 c -0.797,0 -1.187,0 -1.203,0.485 z"
   id="path11"
   inkscape:connector-curvature="0"
   style="fill:#000000;stroke-width:0" />
<path
   d="m 22.371,14.664 h -0.359 c -0.047,-0.266 -0.172,-1.141 -0.328,-1.406 -0.11,-0.141 -1.016,-0.141 -1.5,-0.141 h -2.938 c 0.422,0.375 1.406,1.391 1.813,1.766 2.421,2.234 3.312,3.047 3.312,4.625 0,1.828 -1.453,3.047 -3.297,3.047 -1.844,0 -2.922,-1.563 -2.922,-2.938 0,-0.812 0.703,-0.812 0.75,-0.812 0.328,0 0.735,0.25 0.735,0.75 0,0.453 -0.297,0.75 -0.735,0.75 -0.156,0 -0.187,0 -0.234,-0.016 0.312,1.078 1.172,1.813 2.203,1.813 1.344,0 2.172,-1.125 2.172,-2.594 0,-1.344 -0.781,-2.531 -1.688,-3.547 l -3.203,-3.594 v -0.375 h 5.797 z"
   id="path13"
   inkscape:connector-curvature="0"
   style="fill:#000000;stroke-width:0" />
<path
   d="m 38.324,17.148 0.042,0 0.043,0.001 0.043,10e-4 0.021,0.001 0.022,0.002 0.021,0.002 0.021,0.002 0.021,0.003 0.021,0.003 0.02,0.004 0.019,0.005 0.02,0.005 0.018,0.007 0.018,0.007 0.018,0.007 0.016,0.009 0.016,0.01 0.014,0.011 0.014,0.012 0.013,0.013 0.012,0.014 0.005,0.008 0.005,0.008 0.005,0.008 0.005,0.008 0.004,0.009 0.004,0.009 0.003,0.01 0.004,0.01 0.003,0.01 0.002,0.011 0.002,0.011 0.002,0.011 0.001,0.012 10e-4,0.012 10e-4,0.013 0,0.013 c 0,0.297 -0.265,0.297 -0.5,0.297 h -9.375 c -0.219,0 -0.5,0 -0.5,-0.282 0,-0.297 0.266,-0.297 0.5,-0.297 z"
   id="path15"
   inkscape:connector-curvature="0"
   style="fill:#000000;stroke-width:0" />
<path
   d="m 38.324,14.18 0.042,0 0.043,0 0.043,0.002 0.021,10e-4 0.022,10e-4 0.021,0.002 0.021,0.003 0.021,0.003 0.021,0.003 0.02,0.005 0.019,0.005 0.02,0.005 0.018,0.007 0.018,0.007 0.018,0.009 0.016,0.009 0.016,0.01 0.014,0.012 0.014,0.012 0.013,0.014 0.012,0.015 0.005,0.008 0.005,0.008 0.005,0.009 0.005,0.009 0.004,0.009 0.004,0.01 0.003,0.01 0.004,0.011 0.003,0.01 0.002,0.012 0.002,0.011 0.002,0.012 0.001,0.013 10e-4,0.013 10e-4,0.013 0,0.014 c 0,0.296 -0.265,0.296 -0.5,0.296 h -9.375 c -0.219,0 -0.5,0 -0.5,-0.281 0,-0.312 0.266,-0.312 0.5,-0.312 z"
   id="path17"
   inkscape:connector-curvature="0"
   style="fill:#000000;stroke-width:0" />
<path
   d="m 48.738,22.18 0,0.016 0,0.016 0,0.016 0,0.015 0,0.015 0,0.014 0,0.014 0,0.013 -10e-4,0.013 0,0.012 0,0.012 -0.001,0.012 0,0.011 -10e-4,0.011 -10e-4,0.01 -0.001,0.01 -10e-4,0.009 -10e-4,0.01 -0.001,0.008 -10e-4,0.009 -0.002,0.008 -10e-4,0.008 -0.002,0.007 -0.002,0.007 -0.005,0.014 -0.005,0.011 -0.006,0.011 -0.007,0.01 -0.008,0.009 -0.008,0.007 -0.01,0.007 -0.011,0.006 -0.012,0.005 -0.013,0.004 -0.015,0.004 -0.007,0.001 -0.009,0.002 -0.008,10e-4 -0.009,0.001 -0.009,0.001 -0.009,10e-4 -0.01,0.001 -0.01,0 -0.011,0.001 -0.011,0 -0.011,10e-4 -0.012,0 -0.013,0 -0.012,0 -0.013,0.001 -0.014,0 -0.014,0 -0.014,0 c -0.391,-0.422 -1.188,-1.016 -2.813,-1.016 v -0.453 c 0.36,0 1.157,0 2.032,0.406 v -8.281 c 0,-0.563 -0.047,-0.766 -1.454,-0.766 h -0.484 v -0.453 c 0.422,0.031 1.969,0.031 2.484,0.031 0.532,0 2.063,0 2.485,-0.031 v 0.453 h -0.485 c -1.406,0 -1.453,0.203 -1.453,0.766 z"
   id="path19"
   inkscape:connector-curvature="0"
   style="fill:#000000;stroke-width:0" />
<path
   d="m 65.984,15.648 0.053,0 0.052,10e-4 0.052,0.001 0.025,0.002 0.025,0.001 0.024,0.002 0.024,0.003 0.024,0.003 0.023,0.004 0.022,0.004 0.022,0.006 0.021,0.006 0.02,0.006 0.019,0.008 0.019,0.009 0.017,0.01 0.017,0.011 0.016,0.012 0.014,0.013 0.013,0.014 0.013,0.016 0.01,0.017 0.005,0.01 0.005,0.009 0.004,0.01 0.004,0.01 0.004,0.011 0.003,0.011 0.003,0.011 0.003,0.012 0.002,0.012 0.002,0.013 0.001,0.013 0.001,0.014 10e-4,0.013 0,0.015 c 0,0.328 -0.281,0.328 -0.563,0.328 h -8.593 c -0.266,0 -0.563,0 -0.563,-0.328 0,-0.313 0.297,-0.313 0.563,-0.313 z"
   id="path21"
   inkscape:connector-curvature="0"
   style="fill:#000000;stroke-width:0" />
<path
   d="m 77.23,32.965 0,0.016 0,0.016 0,0.016 0,0.015 0,0.015 0,0.014 0,0.014 0,0.013 0,0.013 -0.001,0.012 0,0.012 -0.001,0.012 0,0.011 -10e-4,0.011 -0.001,0.01 0,0.01 -0.001,0.01 -10e-4,0.009 -0.002,0.009 -10e-4,0.008 -0.002,0.008 -10e-4,0.008 -0.002,0.007 -0.002,0.007 -0.004,0.014 -0.006,0.012 -0.006,0.01 -0.007,0.01 -0.007,0.009 -0.009,0.007 -0.01,0.007 -0.011,0.006 -0.012,0.005 -0.013,0.004 -0.015,0.004 -0.007,10e-4 -0.008,0.002 -0.009,10e-4 -0.009,0.001 -0.009,10e-4 -0.009,10e-4 -0.01,0.001 -0.01,0 -0.011,10e-4 -0.011,0 -0.011,10e-4 -0.012,0 -0.012,0 -0.013,0.001 -0.013,0 -0.014,0 -0.014,0 -0.014,0 C 76.527,32.918 75.73,32.324 74.105,32.324 v -0.453 c 0.36,0 1.157,0 2.032,0.406 v -8.281 c 0,-0.562 -0.047,-0.766 -1.453,-0.766 h -0.485 v -0.453 c 0.422,0.032 1.969,0.032 2.485,0.032 0.531,0 2.062,0 2.484,-0.032 v 0.453 h -0.484 c -1.407,0 -1.454,0.204 -1.454,0.766 z"
   id="path23"
   inkscape:connector-curvature="0"
   style="fill:#000000;stroke-width:0" />
<line
   x1="72.652"
   y1="15.977"
   x2="80.457001"
   y2="15.977"
   id="line25"
   style="stroke-width:0.63800001" />
<path
   d="M 79.652,3.7305 H 79.293 C 79.246,3.4648 79.121,2.5898 78.965,2.3242 78.855,2.1836 77.949,2.1836 77.465,2.1836 h -2.938 c 0.422,0.375 1.407,1.3906 1.813,1.7656 2.422,2.2344 3.312,3.0469 3.312,4.625 0,1.8278 -1.453,3.0468 -3.297,3.0468 -1.843,0 -2.921,-1.562 -2.921,-2.9374 0,-0.8125 0.703,-0.8125 0.75,-0.8125 0.328,0 0.734,0.25 0.734,0.75 0,0.4531 -0.297,0.75 -0.734,0.75 -0.157,0 -0.188,0 -0.235,-0.0156 0.313,1.0785 1.172,1.8125 2.203,1.8125 1.344,0 2.172,-1.125 2.172,-2.5938 0,-1.3437 -0.781,-2.5312 -1.687,-3.5469 L 73.434,1.4336 v -0.375 h 5.796 z"
   id="path27"
   inkscape:connector-curvature="0"
   style="fill:#000000;stroke-width:0" />
<path
   d="m 91.539,15.664 h 4.391 c 0.218,0 0.5,0 0.5,0.281 0,0.313 -0.266,0.313 -0.5,0.313 h -4.391 v 4.375 c 0,0.234 0,0.515 -0.281,0.515 -0.313,0 -0.313,-0.265 -0.313,-0.515 v -4.375 h -4.39 c -0.219,0 -0.5,0 -0.5,-0.297 0,-0.297 0.265,-0.297 0.5,-0.297 h 4.39 v -4.391 c 0,-0.218 0,-0.5 0.297,-0.5 0.297,0 0.297,0.266 0.297,0.5 z"
   id="path29"
   inkscape:connector-curvature="0"
   style="fill:#000000;stroke-width:0" />
<path
   d="m 106.65,32.965 0,0.016 0,0.016 0,0.016 0,0.015 0,0.015 0,0.014 0,0.014 0,0.013 0,0.013 0,0.012 0,0.012 0,0.012 0,0.011 -0.01,0.011 0,0.01 0,0.01 0,0.01 0,0.009 0,0.009 0,0.008 0,0.008 0,0.008 -0.01,0.007 0,0.007 0,0.007 0,0.007 -0.01,0.012 0,0.01 -0.01,0.01 -0.01,0.009 -0.01,0.007 -0.01,0.007 -0.01,0.006 -0.01,0.005 -0.01,0.004 -0.02,0.004 -0.01,10e-4 0,0.002 -0.01,10e-4 -0.01,0.001 -0.01,10e-4 -0.01,10e-4 -0.01,0.001 -0.01,0 -0.01,10e-4 -0.01,0 -0.01,10e-4 -0.01,0 -0.02,0 -0.01,0.001 -0.01,0 -0.02,0 -0.01,0 -0.01,0 c -0.4,-0.422 -1.19,-1.016 -2.82,-1.016 v -0.453 c 0.36,0 1.16,0 2.04,0.406 v -8.281 c 0,-0.562 -0.05,-0.766 -1.46,-0.766 h -0.48 v -0.453 c 0.42,0.032 1.97,0.032 2.48,0.032 0.53,0 2.06,0 2.49,-0.032 v 0.453 h -0.49 c -1.41,0 -1.45,0.204 -1.45,0.766 z"
   id="path31"
   inkscape:connector-curvature="0"
   style="fill:#000000;stroke-width:0" />
<line
   x1="102.07"
   y1="15.977"
   x2="109.88"
   y2="15.977"
   id="line33"
   style="stroke-width:0.63800001" />
<path
   d="m 104.99,6.7617 -0.01,-7e-4 -0.01,-7e-4 -0.01,-8e-4 -0.02,-7e-4 -0.01,-8e-4 -0.01,-8e-4 -0.02,-0.0016 -0.02,-0.0017 -0.02,-0.0018 -0.01,-0.0019 -0.02,-0.0022 -0.02,-0.0022 -0.01,-0.0025 -0.02,-0.0028 -0.01,-0.003 -0.01,-0.0032 -0.01,-0.0036 -0.01,-0.0038 -0.01,-0.0042 -0.01,-0.0046 -0.01,-0.005 -0.01,-0.0054 0,-0.0058 -0.01,-0.0063 0,-0.0067 -0.01,-0.0073 0,-0.0078 -0.01,-0.0083 0,-0.0089 0,-0.0095 0,-0.0101 0,-0.0108 -0.01,-0.0114 0,-0.0121 0,-0.0129 c 0,-0.1562 0.08,-0.1562 0.36,-0.1562 h 0.74 c 1.34,0 1.95,-1.1094 1.95,-2.6406 0,-2.0782 -1.08,-2.6407 -1.86,-2.6407 -0.76,0 -2.06,0.3594 -2.53,1.4219 0.52,-0.0781 0.97,0.2031 0.97,0.7656 0,0.4688 -0.33,0.7813 -0.77,0.7813 -0.39,0 -0.79,-0.2188 -0.79,-0.8281 0,-1.4063 1.4,-2.56253 3.17,-2.56253 1.89,0 3.29,1.43753 3.29,3.04683 0,1.4688 -1.18,2.6094 -2.7,2.875 1.38,0.3907 2.27,1.5625 2.27,2.7969 0,1.2498 -1.3,2.1718 -2.85,2.1718 -1.59,0 -2.76,-0.969 -2.76,-2.1249 0,-0.6406 0.5,-0.7656 0.73,-0.7656 0.33,0 0.72,0.25 0.72,0.7187 0,0.5156 -0.39,0.7348 -0.73,0.7348 -0.1,0 -0.13,0 -0.18,-0.016 0.6,1.078 2.1,1.078 2.18,1.078 0.53,0 1.56,-0.234 1.56,-1.7968 0,-0.2969 -0.05,-1.1875 -0.52,-1.875 -0.47,-0.7031 -1.01,-0.75 -1.43,-0.7656 z"
   id="path35"
   inkscape:connector-curvature="0"
   style="fill:#000000;stroke-width:0" />
<path
   d="m 125.08,15.648 0.05,0 0.06,10e-4 0.05,0.001 0.02,0.002 0.03,0.001 0.02,0.002 0.03,0.003 0.02,0.003 0.02,0.004 0.03,0.004 0.02,0.006 0.02,0.006 0.02,0.006 0.02,0.008 0.02,0.009 0.01,0.01 0.02,0.011 0.02,0.012 0.01,0.013 0.01,0.014 0.02,0.016 0.01,0.017 0,0.01 0.01,0.009 0,0.01 0.01,0.01 0,0.011 0,0.011 0.01,0.011 0,0.012 0,0.012 0,0.013 0,0.013 0,0.014 0,0.013 0,0.015 c 0,0.328 -0.28,0.328 -0.56,0.328 h -8.59 c -0.27,0 -0.56,0 -0.56,-0.328 0,-0.313 0.29,-0.313 0.56,-0.313 z"
   id="path37"
   inkscape:connector-curvature="0"
   style="fill:#000000;stroke-width:0" />
<path
   d="m 136.33,32.965 0,0.016 0,0.016 0,0.016 0,0.015 0,0.015 0,0.014 0,0.014 0,0.013 0,0.013 0,0.012 0,0.012 0,0.012 0,0.011 -0.01,0.011 0,0.01 0,0.01 0,0.01 0,0.009 0,0.009 0,0.008 0,0.008 0,0.008 -0.01,0.007 0,0.007 0,0.007 0,0.007 -0.01,0.012 0,0.01 -0.01,0.01 -0.01,0.009 -0.01,0.007 -0.01,0.007 -0.01,0.006 -0.01,0.005 -0.01,0.004 -0.02,0.004 -0.01,10e-4 0,0.002 -0.01,10e-4 -0.01,0.001 -0.01,10e-4 -0.01,10e-4 -0.01,0.001 -0.01,0 -0.01,10e-4 -0.01,0 -0.01,10e-4 -0.01,0 -0.02,0 -0.01,0.001 -0.01,0 -0.02,0 -0.01,0 -0.01,0 c -0.4,-0.422 -1.19,-1.016 -2.82,-1.016 v -0.453 c 0.36,0 1.16,0 2.03,0.406 v -8.281 c 0,-0.562 -0.04,-0.766 -1.45,-0.766 h -0.48 v -0.453 c 0.42,0.032 1.97,0.032 2.48,0.032 0.53,0 2.06,0 2.49,-0.032 v 0.453 h -0.49 c -1.4,0 -1.45,0.204 -1.45,0.766 z"
   id="path39"
   inkscape:connector-curvature="0"
   style="fill:#000000;stroke-width:0" />
<line
   x1="131.75"
   y1="15.977"
   x2="139.55"
   y2="15.977"
   id="line41"
   style="stroke-width:0.63800001" />
<path
   d="m 137.48,11.402 0,0.015 0,0.014 0,0.014 0,0.013 0,0.026 0,0.025 0,0.023 0,0.022 0,0.021 0,0.02 0,0.019 0,0.017 0,0.017 -0.01,0.015 0,0.015 0,0.013 -0.01,0.012 0,0.012 -0.01,0.01 0,0.01 -0.01,0.009 -0.01,0.008 -0.01,0.007 -0.01,0.006 -0.01,0.006 -0.01,0.005 -0.01,0.004 -0.01,0.004 -0.02,0.003 -0.01,0.002 -0.02,0.002 -0.02,10e-4 -0.01,10e-4 -0.01,0 -0.01,0 c -0.13,0 -0.18,0 -0.3,-0.203 l -4.8,-7.422 h 0.41 l 3.86,6 v -6 h -3.86 -0.41 V 3.7148 h 4.19 V 2.2617 c 0,-0.5781 -0.03,-0.75 -1.19,-0.75 h -0.33 V 1.0586 c 0.38,0.0312 1.63,0.0312 2.08,0.0312 0.44,0 1.7,0 2.08,-0.0312 v 0.4531 h -0.31 c -1.16,0 -1.21,0.1719 -1.21,0.75 v 1.4531 h 1.61 V 4.168 h -1.61 z"
   id="path43"
   inkscape:connector-curvature="0"
   style="fill:#000000;stroke-width:0" />
<path
   d="m 150.63,15.664 h 4.39 c 0.22,0 0.5,0 0.5,0.281 0,0.313 -0.26,0.313 -0.5,0.313 h -4.39 v 4.375 c 0,0.234 0,0.515 -0.28,0.515 -0.31,0 -0.31,-0.265 -0.31,-0.515 v -4.375 h -4.39 c -0.22,0 -0.5,0 -0.5,-0.297 0,-0.297 0.26,-0.297 0.5,-0.297 h 4.39 v -4.391 c 0,-0.218 0,-0.5 0.3,-0.5 0.29,0 0.29,0.266 0.29,0.5 z"
   id="path45"
   inkscape:connector-curvature="0"
   style="fill:#000000;stroke-width:0" />
<path
   d="m 162.9,12.758 -0.01,0.042 0,0.041 0,0.041 -0.01,0.039 -0.01,0.039 -0.01,0.038 -0.02,0.037 -0.01,0.036 -0.02,0.035 -0.01,0.034 -0.02,0.033 -0.02,0.031 -0.03,0.031 -0.02,0.029 -0.03,0.028 -0.02,0.026 -0.03,0.026 -0.03,0.024 -0.03,0.022 -0.03,0.021 -0.03,0.02 -0.03,0.018 -0.03,0.017 -0.04,0.015 -0.03,0.013 -0.04,0.012 -0.03,0.01 -0.04,0.008 -0.03,0.007 -0.04,0.004 -0.03,0.003 -0.04,10e-4 c -0.45,0 -0.78,-0.391 -0.78,-0.766 0,-0.468 0.39,-0.781 0.76,-0.781 0.47,0 0.79,0.375 0.79,0.766 z"
   id="path47"
   inkscape:connector-curvature="0"
   style="fill:#000000;stroke-width:0" />
<path
   d="m 169.89,12.758 0,0.042 -0.01,0.041 0,0.041 -0.01,0.039 -0.01,0.039 -0.01,0.038 -0.01,0.037 -0.02,0.036 -0.01,0.035 -0.02,0.034 -0.02,0.033 -0.02,0.031 -0.02,0.031 -0.03,0.029 -0.02,0.028 -0.03,0.026 -0.03,0.026 -0.03,0.024 -0.02,0.022 -0.03,0.021 -0.04,0.02 -0.03,0.018 -0.03,0.017 -0.03,0.015 -0.04,0.013 -0.03,0.012 -0.04,0.01 -0.03,0.008 -0.04,0.007 -0.04,0.004 -0.03,0.003 -0.04,10e-4 c -0.45,0 -0.78,-0.391 -0.78,-0.766 0,-0.468 0.39,-0.781 0.76,-0.781 0.47,0 0.79,0.375 0.79,0.766 z"
   id="path49"
   inkscape:connector-curvature="0"
   style="fill:#000000;stroke-width:0" />
<path
   d="m 176.87,12.758 0,0.042 -0.01,0.041 0,0.041 -0.01,0.039 -0.01,0.039 -0.01,0.038 -0.01,0.037 -0.02,0.036 -0.01,0.035 -0.02,0.034 -0.02,0.033 -0.02,0.031 -0.02,0.031 -0.03,0.029 -0.02,0.028 -0.03,0.026 -0.03,0.026 -0.02,0.024 -0.03,0.022 -0.03,0.021 -0.04,0.02 -0.03,0.018 -0.03,0.017 -0.03,0.015 -0.04,0.013 -0.03,0.012 -0.04,0.01 -0.03,0.008 -0.04,0.007 -0.04,0.004 -0.03,0.003 -0.04,10e-4 c -0.45,0 -0.78,-0.391 -0.78,-0.766 0,-0.468 0.39,-0.781 0.77,-0.781 0.46,0 0.78,0.375 0.78,0.766 z"
   id="path51"
   inkscape:connector-curvature="0"
   style="fill:#000000;stroke-width:0" />
</g></svg>
