<?xml version="1.0" encoding="UTF-8" standalone="no"?>
<svg
   xmlns:dc="http://purl.org/dc/elements/1.1/"
   xmlns:cc="http://creativecommons.org/ns#"
   xmlns:rdf="http://www.w3.org/1999/02/22-rdf-syntax-ns#"
   xmlns:svg="http://www.w3.org/2000/svg"
   xmlns="http://www.w3.org/2000/svg"
   xmlns:sodipodi="http://sodipodi.sourceforge.net/DTD/sodipodi-0.dtd"
   xmlns:inkscape="http://www.inkscape.org/namespaces/inkscape"
   version="1.1"
   id="body"
   width="205.46744"
   height="40.859112"
   viewBox="0 0 0.28537144 0.056748766"
   preserveAspectRatio="none"
   inkscape:version="0.48.3.1 r9886"
   sodipodi:docname="ch3-Z-G-41.svg">
  <metadata
     id="metadata57">
    <rdf:RDF>
      <cc:Work
         rdf:about="">
        <dc:format>image/svg+xml</dc:format>
        <dc:type
           rdf:resource="http://purl.org/dc/dcmitype/StillImage" />
      </cc:Work>
    </rdf:RDF>
  </metadata>
  <defs
     id="defs55" />
  <sodipodi:namedview
     pagecolor="#ffffff"
     bordercolor="#666666"
     borderopacity="1"
     objecttolerance="10"
     gridtolerance="10"
     guidetolerance="10"
     inkscape:pageopacity="0"
     inkscape:pageshadow="2"
     inkscape:window-width="640"
     inkscape:window-height="480"
     id="namedview53"
     showgrid="false"
     inkscape:zoom="0.32777778"
     inkscape:cx="381.60157"
     inkscape:cy="459.05588"
     inkscape:window-x="0"
     inkscape:window-y="24"
     inkscape:window-maximized="0"
     inkscape:current-layer="body" />
  <title
     id="title3">SVG drawing</title>
  <desc
     id="desc5">This was produced by version 4.4 of GNU libplot, a free library for exporting 2-D vector graphics.</desc>
  <g
     id="content"
     transform="matrix(0.0017361,0,0,-0.0017361,-0.00124782,0.05794234)"
     xml:space="preserve"
     stroke-miterlimit="10.433"
     font-style="normal"
     font-variant="normal"
     font-weight="normal"
     font-stretch="normal"
     font-size-adjust="none"
     letter-spacing="normal"
     word-spacing="normal"
     style="font-style:normal;font-variant:normal;font-weight:normal;font-stretch:normal;letter-spacing:normal;word-spacing:normal;text-anchor:start;fill:none;stroke:#000000;stroke-linecap:butt;stroke-linejoin:miter;stroke-miterlimit:10.43299961;stroke-opacity:1;stroke-dasharray:none;stroke-dashoffset:0">
<path
   d="M 4.8359,28.762 H 6.6328 C 6.2109,26.996 5.9453,25.824 5.9453,24.559 c 0,-0.219 0,-1.938 0.6406,-1.938 0.3438,0 0.625,0.297 0.625,0.563 0,0.093 0,0.125 -0.1093,0.359 -0.4375,1.094 -0.4375,2.453 -0.4375,2.578 0,0.094 0,1.219 0.3437,2.641 h 1.7813 c 0.2031,0 0.7343,0 0.7343,0.515 0,0.344 -0.3125,0.344 -0.5937,0.344 H 3.6953 c -0.3594,0 -0.9062,0 -1.6406,-0.766 -0.4063,-0.468 -0.9219,-1.312 -0.9219,-1.406 0,-0.094 0.0938,-0.125 0.1875,-0.125 0.1094,0 0.125,0.047 0.2031,0.141 0.8282,1.297 1.6563,1.297 2.0469,1.297 h 0.9063 c -0.3438,-1.188 -0.75,-2.563 -2.0469,-5.344 -0.125,-0.266 -0.125,-0.297 -0.125,-0.391 0,-0.328 0.2812,-0.406 0.4219,-0.406 0.4687,0 0.5937,0.406 0.7812,1.078 0.25,0.813 0.25,0.844 0.4063,1.485 z"
   id="path9"
   inkscape:connector-curvature="0"
   style="fill:#000000;stroke-width:0" />
<line
   x1="0.72656"
   y1="15.977"
   x2="10.152"
   y2="15.977"
   id="line11"
   style="stroke-width:0.63800001" />
<path
   d="m 7.2734,11.402 0,0.015 0,0.014 0,0.014 0,0.013 -10e-5,0.026 -3e-4,0.025 -4e-4,0.023 -6e-4,0.022 -8e-4,0.021 -0.0012,0.02 -0.0014,0.019 -0.0018,0.017 -0.0022,0.017 -0.0027,0.015 -0.0031,0.015 -0.0037,0.013 -0.0042,0.012 -0.0048,0.012 -0.0055,0.01 -0.0061,0.01 -0.0068,0.009 -0.0077,0.008 -0.0084,0.007 -0.0092,0.006 -0.0102,0.006 -0.011,0.005 -0.0121,0.004 -0.013,0.004 -0.0141,0.003 -0.0151,0.002 -0.0163,0.002 -0.0174,10e-4 -0.0186,10e-4 -0.0098,0 -0.0101,0 c -0.125,0 -0.1719,0 -0.2969,-0.203 L 1.9609,4.168 h 0.4063 l 3.8594,6 v -6 H 2.3672 1.9609 V 3.7148 H 6.1484 V 2.2617 c 0,-0.5781 -0.0312,-0.75 -1.1875,-0.75 H 4.6328 V 1.0586 c 0.375,0.0312 1.625,0.0312 2.0781,0.0312 0.4375,0 1.7032,0 2.0782,-0.0312 V 1.5117 H 8.4766 c -1.1563,0 -1.2032,0.1719 -1.2032,0.75 V 3.7148 H 8.8828 V 4.168 H 7.2734 z"
   id="path13"
   inkscape:connector-curvature="0"
   style="fill:#000000;stroke-width:0" />
<path
   d="m 26.512,17.148 0.041,0 0.043,0.001 0.043,10e-4 0.022,0.001 0.021,0.002 0.021,0.002 0.022,0.002 0.021,0.003 0.02,0.003 0.02,0.004 0.02,0.005 0.019,0.005 0.019,0.007 0.018,0.007 0.017,0.007 0.017,0.009 0.015,0.01 0.015,0.011 0.014,0.012 0.013,0.013 0.011,0.014 0.006,0.008 0.005,0.008 0.005,0.008 0.004,0.008 0.005,0.009 0.003,0.009 0.004,0.01 0.003,0.01 0.003,0.01 0.003,0.011 0.002,0.011 10e-4,0.011 0.002,0.012 10e-4,0.012 0,0.013 0.001,0.013 c 0,0.297 -0.266,0.297 -0.5,0.297 h -9.375 c -0.219,0 -0.5,0 -0.5,-0.282 0,-0.297 0.265,-0.297 0.5,-0.297 z"
   id="path15"
   inkscape:connector-curvature="0"
   style="fill:#000000;stroke-width:0" />
<path
   d="m 26.512,14.18 0.041,0 0.043,0 0.043,0.002 0.022,10e-4 0.021,10e-4 0.021,0.002 0.022,0.003 0.021,0.003 0.02,0.003 0.02,0.005 0.02,0.005 0.019,0.005 0.019,0.007 0.018,0.007 0.017,0.009 0.017,0.009 0.015,0.01 0.015,0.012 0.014,0.012 0.013,0.014 0.011,0.015 0.006,0.008 0.005,0.008 0.005,0.009 0.004,0.009 0.005,0.009 0.003,0.01 0.004,0.01 0.003,0.011 0.003,0.01 0.003,0.012 0.002,0.011 10e-4,0.012 0.002,0.013 10e-4,0.013 0,0.013 0.001,0.014 c 0,0.296 -0.266,0.296 -0.5,0.296 h -9.375 c -0.219,0 -0.5,0 -0.5,-0.281 0,-0.312 0.265,-0.312 0.5,-0.312 z"
   id="path17"
   inkscape:connector-curvature="0"
   style="fill:#000000;stroke-width:0" />
<path
   d="m 36.926,22.18 0,0.016 0,0.016 0,0.016 0,0.015 0,0.015 0,0.014 -0.001,0.014 0,0.013 0,0.013 0,0.012 -10e-4,0.012 0,0.012 -10e-4,0.011 0,0.011 -0.001,0.01 -10e-4,0.01 -10e-4,0.009 -0.001,0.01 -10e-4,0.008 -0.002,0.009 -10e-4,0.008 -0.002,0.008 -0.002,0.007 -0.002,0.007 -0.004,0.014 -0.005,0.011 -0.006,0.011 -0.007,0.01 -0.008,0.009 -0.009,0.007 -0.01,0.007 -0.01,0.006 -0.013,0.005 -0.013,0.004 -0.014,0.004 -0.008,0.001 -0.008,0.002 -0.008,10e-4 -0.009,0.001 -0.009,0.001 -0.01,10e-4 -0.01,0.001 -0.01,0 -0.011,0.001 -0.011,0 -0.011,10e-4 -0.012,0 -0.012,0 -0.013,0 -0.013,0.001 -0.013,0 -0.014,0 -0.015,0 c -0.39,-0.422 -1.187,-1.016 -2.812,-1.016 v -0.453 c 0.359,0 1.156,0 2.031,0.406 v -8.281 c 0,-0.563 -0.047,-0.766 -1.453,-0.766 h -0.484 v -0.453 c 0.421,0.031 1.968,0.031 2.484,0.031 0.531,0 2.062,0 2.484,-0.031 v 0.453 h -0.484 c -1.406,0 -1.453,0.203 -1.453,0.766 z"
   id="path19"
   inkscape:connector-curvature="0"
   style="fill:#000000;stroke-width:0" />
<path
   d="m 54.16,15.648 0.053,0 0.052,10e-4 0.052,0.001 0.025,0.002 0.025,0.001 0.024,0.002 0.024,0.003 0.024,0.003 0.023,0.004 0.022,0.004 0.022,0.006 0.021,0.006 0.02,0.006 0.019,0.008 0.019,0.009 0.017,0.01 0.017,0.011 0.015,0.012 0.015,0.013 0.013,0.014 0.012,0.016 0.011,0.017 0.005,0.01 0.005,0.009 0.004,0.01 0.004,0.01 0.004,0.011 0.003,0.011 0.003,0.011 0.003,0.012 0.002,0.012 10e-4,0.013 0.002,0.013 0.001,0.014 0,0.013 10e-4,0.015 c 0,0.328 -0.282,0.328 -0.563,0.328 h -8.594 c -0.265,0 -0.562,0 -0.562,-0.328 0,-0.313 0.297,-0.313 0.562,-0.313 z"
   id="path21"
   inkscape:connector-curvature="0"
   style="fill:#000000;stroke-width:0" />
<path
   d="m 65.406,32.965 0,0.016 0,0.016 0,0.016 0,0.015 0,0.015 0,0.014 0,0.014 0,0.013 -0.001,0.013 0,0.012 0,0.012 -0.001,0.012 0,0.011 -10e-4,0.011 -0.001,0.01 -0.001,0.01 -10e-4,0.01 -0.001,0.009 -0.001,0.009 -10e-4,0.008 -0.002,0.008 -10e-4,0.008 -0.002,0.007 -0.002,0.007 -0.005,0.014 -0.005,0.012 -0.006,0.01 -0.007,0.01 -0.008,0.009 -0.008,0.007 -0.01,0.007 -0.011,0.006 -0.012,0.005 -0.013,0.004 -0.015,0.004 -0.008,10e-4 -0.008,0.002 -0.008,10e-4 -0.009,0.001 -0.009,10e-4 -0.009,10e-4 -0.01,0.001 -0.01,0 -0.011,10e-4 -0.011,0 -0.011,10e-4 -0.012,0 -0.013,0 -0.012,0.001 -0.013,0 -0.014,0 -0.014,0 -0.014,0 c -0.391,-0.422 -1.188,-1.016 -2.813,-1.016 v -0.453 c 0.36,0 1.157,0 2.031,0.406 v -8.281 c 0,-0.562 -0.046,-0.766 -1.453,-0.766 h -0.484 v -0.453 c 0.422,0.032 1.969,0.032 2.484,0.032 0.532,0 2.063,0 2.485,-0.032 v 0.453 h -0.485 c -1.406,0 -1.453,0.204 -1.453,0.766 z"
   id="path23"
   inkscape:connector-curvature="0"
   style="fill:#000000;stroke-width:0" />
<line
   x1="60.827999"
   y1="15.977"
   x2="68.633003"
   y2="15.977"
   id="line25"
   style="stroke-width:0.63800001" />
<path
   d="m 63.75,6.7617 -0.012,-7e-4 -0.012,-7e-4 -0.012,-8e-4 -0.011,-7e-4 -0.012,-8e-4 -0.01,-8e-4 -0.011,-8e-4 -0.01,-8e-4 L 63.64,6.7539 63.621,6.7521 63.603,6.7502 63.587,6.748 63.571,6.7458 63.556,6.7433 63.542,6.7405 63.529,6.7375 63.517,6.7343 63.506,6.7307 63.496,6.7269 63.486,6.7227 63.478,6.7181 63.47,6.7131 63.462,6.7077 63.456,6.7019 63.45,6.6956 63.445,6.6889 63.44,6.6816 63.436,6.6738 63.432,6.6655 63.429,6.6566 63.427,6.6471 63.425,6.637 63.424,6.6262 63.423,6.6148 63.422,6.6027 l 0,-0.0129 c 0,-0.1562 0.078,-0.1562 0.359,-0.1562 h 0.735 c 1.343,0 1.953,-1.1094 1.953,-2.6406 0,-2.0782 -1.078,-2.6407 -1.86,-2.6407 -0.765,0 -2.062,0.3594 -2.531,1.4219 0.516,-0.0781 0.969,0.2031 0.969,0.7656 0,0.4688 -0.328,0.7813 -0.766,0.7813 -0.39,0 -0.797,-0.2188 -0.797,-0.8281 0,-1.4063 1.407,-2.56253 3.172,-2.56253 1.891,0 3.297,1.43753 3.297,3.04683 0,1.4688 -1.187,2.6094 -2.703,2.875 1.375,0.3907 2.266,1.5625 2.266,2.7969 0,1.2498 -1.297,2.1718 -2.844,2.1718 -1.594,0 -2.766,-0.969 -2.766,-2.1249 0,-0.6406 0.5,-0.7656 0.735,-0.7656 0.328,0 0.718,0.25 0.718,0.7187 0,0.5156 -0.39,0.7348 -0.734,0.7348 -0.094,0 -0.125,0 -0.172,-0.016 0.594,1.078 2.094,1.078 2.172,1.078 0.531,0 1.563,-0.234 1.563,-1.7968 0,-0.2969 -0.047,-1.1875 -0.516,-1.875 -0.469,-0.7031 -1.016,-0.75 -1.438,-0.7656 z"
   id="path27"
   inkscape:connector-curvature="0"
   style="fill:#000000;stroke-width:0" />
<path
   d="m 79.711,15.664 h 4.391 c 0.218,0 0.5,0 0.5,0.281 0,0.313 -0.266,0.313 -0.5,0.313 h -4.391 v 4.375 c 0,0.234 0,0.515 -0.281,0.515 -0.313,0 -0.313,-0.265 -0.313,-0.515 v -4.375 h -4.39 c -0.219,0 -0.5,0 -0.5,-0.297 0,-0.297 0.265,-0.297 0.5,-0.297 h 4.39 v -4.391 c 0,-0.218 0,-0.5 0.297,-0.5 0.297,0 0.297,0.266 0.297,0.5 z"
   id="path29"
   inkscape:connector-curvature="0"
   style="fill:#000000;stroke-width:0" />
<path
   d="m 94.824,32.965 0,0.016 0,0.016 0,0.016 0,0.015 0,0.015 0,0.014 0,0.014 0,0.013 -0.001,0.013 0,0.012 0,0.012 -10e-4,0.012 0,0.011 -0.001,0.011 -0.001,0.01 -10e-4,0.01 -0.001,0.01 -0.001,0.009 -10e-4,0.009 -0.001,0.008 -0.002,0.008 -0.001,0.008 -0.002,0.007 -0.002,0.007 -0.005,0.014 -0.005,0.012 -0.006,0.01 -0.007,0.01 -0.008,0.009 -0.008,0.007 -0.01,0.007 -0.011,0.006 -0.012,0.005 -0.013,0.004 -0.015,0.004 -0.008,10e-4 -0.008,0.002 -0.008,10e-4 -0.009,0.001 -0.009,10e-4 -0.009,10e-4 -0.01,0.001 -0.011,0 -0.01,10e-4 -0.011,0 -0.012,10e-4 -0.011,0 -0.013,0 -0.012,0.001 -0.013,0 -0.014,0 -0.014,0 -0.014,0 c -0.391,-0.422 -1.188,-1.016 -2.813,-1.016 v -0.453 c 0.36,0 1.156,0 2.031,0.406 v -8.281 c 0,-0.562 -0.046,-0.766 -1.453,-0.766 h -0.484 v -0.453 c 0.422,0.032 1.969,0.032 2.484,0.032 0.532,0 2.063,0 2.485,-0.032 v 0.453 h -0.485 c -1.406,0 -1.453,0.204 -1.453,0.766 z"
   id="path31"
   inkscape:connector-curvature="0"
   style="fill:#000000;stroke-width:0" />
<line
   x1="90.246002"
   y1="15.977"
   x2="98.051003"
   y2="15.977"
   id="line33"
   style="stroke-width:0.63800001" />
<path
   d="m 92.277,10.168 0.064,-0.02 0.064,-0.019 0.062,-0.017 0.062,-0.017 0.06,-0.015 0.06,-0.015 0.059,-0.013 0.057,-0.013 0.057,-0.012 0.055,-0.01 0.054,-0.01 0.053,-0.0093 0.051,-0.0083 0.051,-0.0076 0.048,-0.0069 0.048,-0.0061 0.045,-0.0056 0.045,-0.0049 0.042,-0.0044 0.041,-0.0038 0.039,-0.0034 0.038,-0.0028 0.035,-0.0024 0.034,-0.002 0.032,-0.0017 0.03,-0.0013 0.028,-0.001 0.026,-8e-4 0.024,-5e-4 0.021,-4e-4 0.02,-2e-4 0.017,0 c 1.797,0 2.938,1.3124 2.938,1.5314 0,0.062 -0.032,0.141 -0.125,0.141 -0.032,0 -0.063,0 -0.203,-0.063 -0.891,-0.375 -1.657,-0.422 -2.079,-0.422 -1.046,0 -1.796,0.313 -2.093,0.438 -0.11,0.047 -0.141,0.047 -0.157,0.047 -0.125,0 -0.125,-0.094 -0.125,-0.344 V 6.543 c 0,-0.2813 0,-0.375 0.188,-0.375 0.078,0 0.094,0.0156 0.25,0.2031 0.453,0.6406 1.203,1.0312 1.984,1.0312 0.844,0 1.266,-0.7812 1.391,-1.0468 0.266,-0.625 0.281,-1.4063 0.281,-2 0,-0.6094 0,-1.5157 -0.437,-2.2344 -0.36,-0.5625 -0.969,-0.9688 -1.672,-0.9688 -1.047,0 -2.078,0.7188 -2.375,1.875 0.078,-0.0312 0.187,-0.0468 0.265,-0.0468 0.266,0 0.688,0.1562 0.688,0.7031 0,0.4375 -0.297,0.7031 -0.688,0.7031 -0.296,0 -0.703,-0.1562 -0.703,-0.7656 0,-1.3594 1.078,-2.89063 2.844,-2.89063 1.797,0 3.375,1.50003 3.375,3.51563 0,1.9062 -1.281,3.4687 -2.953,3.4687 -0.906,0 -1.594,-0.3906 -2.016,-0.8437 z"
   id="path35"
   inkscape:connector-curvature="0"
   style="fill:#000000;stroke-width:0" />
<path
   d="m 113.26,15.648 0.05,0 0.05,10e-4 0.05,0.001 0.03,0.002 0.02,0.001 0.03,0.002 0.02,0.003 0.03,0.003 0.02,0.004 0.02,0.004 0.02,0.006 0.02,0.006 0.02,0.006 0.02,0.008 0.02,0.009 0.02,0.01 0.02,0.011 0.01,0.012 0.02,0.013 0.01,0.014 0.01,0.016 0.01,0.017 0.01,0.01 0,0.009 0.01,0.01 0,0.01 0,0.011 0.01,0.011 0,0.011 0,0.012 0,0.012 0.01,0.013 0,0.013 0,0.014 0,0.013 0,0.015 c 0,0.328 -0.28,0.328 -0.56,0.328 h -8.6 c -0.26,0 -0.56,0 -0.56,-0.328 0,-0.313 0.3,-0.313 0.56,-0.313 z"
   id="path37"
   inkscape:connector-curvature="0"
   style="fill:#000000;stroke-width:0" />
<path
   d="m 124.5,32.965 0,0.016 0,0.016 0,0.016 0,0.015 0,0.015 0,0.014 0,0.014 0,0.013 0,0.013 0,0.012 0,0.012 0,0.012 0,0.011 0,0.011 0,0.01 0,0.01 -0.01,0.01 0,0.009 0,0.009 0,0.008 0,0.008 0,0.008 0,0.007 -0.01,0.007 0,0.007 0,0.007 -0.01,0.012 0,0.01 -0.01,0.01 -0.01,0.009 -0.01,0.007 -0.01,0.007 -0.01,0.006 -0.01,0.005 -0.01,0.004 -0.02,0.004 0,10e-4 -0.01,0.002 -0.01,10e-4 -0.01,0.001 -0.01,10e-4 -0.01,10e-4 -0.01,0.001 -0.01,0 -0.01,10e-4 -0.01,0 -0.01,10e-4 -0.01,0 -0.01,0 -0.02,0.001 -0.01,0 -0.01,0 -0.02,0 -0.01,0 C 123.8,32.918 123,32.324 121.38,32.324 v -0.453 c 0.35,0 1.15,0 2.03,0.406 v -8.281 c 0,-0.562 -0.05,-0.766 -1.46,-0.766 h -0.48 v -0.453 c 0.42,0.032 1.97,0.032 2.48,0.032 0.53,0 2.07,0 2.49,-0.032 v 0.453 h -0.49 c -1.4,0 -1.45,0.204 -1.45,0.766 z"
   id="path39"
   inkscape:connector-curvature="0"
   style="fill:#000000;stroke-width:0" />
<line
   x1="119.92"
   y1="15.977"
   x2="127.73"
   y2="15.977"
   id="line41"
   style="stroke-width:0.63800001" />
<path
   d="m 127.47,10.934 v 0.359 h -3.83 c -1.92,0 -1.95,0.203 -2.02,0.516 h -0.35 l -0.49,-3.1879 h 0.34 c 0.05,0.2969 0.21,1.2812 0.41,1.4529 0.13,0.094 1.31,0.094 1.53,0.094 h 3.38 l -1.69,-2.4219 c -0.42,-0.6094 -2.03,-3.2188 -2.03,-6.2031 0,-0.1875 0,-0.81253 0.66,-0.81253 0.65,0 0.65,0.60933 0.65,0.82813 v 0.7812 c 0,2.375 0.39,4.2188 1.14,5.2813 z"
   id="path43"
   inkscape:connector-curvature="0"
   style="fill:#000000;stroke-width:0" />
<path
   d="m 138.81,15.664 h 4.39 c 0.22,0 0.5,0 0.5,0.281 0,0.313 -0.27,0.313 -0.5,0.313 h -4.39 v 4.375 c 0,0.234 0,0.515 -0.28,0.515 -0.32,0 -0.32,-0.265 -0.32,-0.515 v -4.375 h -4.39 c -0.22,0 -0.5,0 -0.5,-0.297 0,-0.297 0.27,-0.297 0.5,-0.297 h 4.39 v -4.391 c 0,-0.218 0,-0.5 0.3,-0.5 0.3,0 0.3,0.266 0.3,0.5 z"
   id="path45"
   inkscape:connector-curvature="0"
   style="fill:#000000;stroke-width:0" />
<path
   d="m 151.07,12.758 0,0.042 0,0.041 -0.01,0.041 -0.01,0.039 -0.01,0.039 -0.01,0.038 -0.01,0.037 -0.01,0.036 -0.02,0.035 -0.02,0.034 -0.02,0.033 -0.02,0.031 -0.02,0.031 -0.03,0.029 -0.02,0.028 -0.03,0.026 -0.02,0.026 -0.03,0.024 -0.03,0.022 -0.03,0.021 -0.03,0.02 -0.03,0.018 -0.04,0.017 -0.03,0.015 -0.03,0.013 -0.04,0.012 -0.03,0.01 -0.04,0.008 -0.04,0.007 -0.03,0.004 -0.04,0.003 -0.04,10e-4 c -0.45,0 -0.78,-0.391 -0.78,-0.766 0,-0.468 0.39,-0.781 0.77,-0.781 0.47,0 0.78,0.375 0.78,0.766 z"
   id="path47"
   inkscape:connector-curvature="0"
   style="fill:#000000;stroke-width:0" />
<path
   d="m 158.06,12.758 0,0.042 0,0.041 -0.01,0.041 0,0.039 -0.01,0.039 -0.02,0.038 -0.01,0.037 -0.01,0.036 -0.02,0.035 -0.02,0.034 -0.02,0.033 -0.02,0.031 -0.02,0.031 -0.02,0.029 -0.03,0.028 -0.02,0.026 -0.03,0.026 -0.03,0.024 -0.03,0.022 -0.03,0.021 -0.03,0.02 -0.03,0.018 -0.04,0.017 -0.03,0.015 -0.03,0.013 -0.04,0.012 -0.03,0.01 -0.04,0.008 -0.03,0.007 -0.04,0.004 -0.04,0.003 -0.03,10e-4 c -0.46,0 -0.78,-0.391 -0.78,-0.766 0,-0.468 0.39,-0.781 0.76,-0.781 0.47,0 0.78,0.375 0.78,0.766 z"
   id="path49"
   inkscape:connector-curvature="0"
   style="fill:#000000;stroke-width:0" />
<path
   d="m 165.04,12.758 0,0.042 0,0.041 -0.01,0.041 0,0.039 -0.01,0.039 -0.01,0.038 -0.02,0.037 -0.01,0.036 -0.02,0.035 -0.02,0.034 -0.02,0.033 -0.02,0.031 -0.02,0.031 -0.02,0.029 -0.03,0.028 -0.02,0.026 -0.03,0.026 -0.03,0.024 -0.03,0.022 -0.03,0.021 -0.03,0.02 -0.03,0.018 -0.03,0.017 -0.04,0.015 -0.03,0.013 -0.04,0.012 -0.03,0.01 -0.04,0.008 -0.03,0.007 -0.04,0.004 -0.04,0.003 -0.03,10e-4 c -0.46,0 -0.78,-0.391 -0.78,-0.766 0,-0.468 0.39,-0.781 0.76,-0.781 0.47,0 0.78,0.375 0.78,0.766 z"
   id="path51"
   inkscape:connector-curvature="0"
   style="fill:#000000;stroke-width:0" />
</g></svg>
