<?xml version="1.0" encoding="UTF-8" standalone="no"?>
<svg
   xmlns:dc="http://purl.org/dc/elements/1.1/"
   xmlns:cc="http://creativecommons.org/ns#"
   xmlns:rdf="http://www.w3.org/1999/02/22-rdf-syntax-ns#"
   xmlns:svg="http://www.w3.org/2000/svg"
   xmlns="http://www.w3.org/2000/svg"
   xmlns:sodipodi="http://sodipodi.sourceforge.net/DTD/sodipodi-0.dtd"
   xmlns:inkscape="http://www.inkscape.org/namespaces/inkscape"
   version="1.1"
   id="body"
   width="217.3033"
   height="100.35144"
   viewBox="0 0 0.30181014 0.139377"
   preserveAspectRatio="none"
   inkscape:version="0.48.3.1 r9886"
   sodipodi:docname="ch3-Z-G-40.svg">
  <metadata
     id="metadata83">
    <rdf:RDF>
      <cc:Work
         rdf:about="">
        <dc:format>image/svg+xml</dc:format>
        <dc:type
           rdf:resource="http://purl.org/dc/dcmitype/StillImage" />
      </cc:Work>
    </rdf:RDF>
  </metadata>
  <defs
     id="defs81" />
  <sodipodi:namedview
     pagecolor="#ffffff"
     bordercolor="#666666"
     borderopacity="1"
     objecttolerance="10"
     gridtolerance="10"
     guidetolerance="10"
     inkscape:pageopacity="0"
     inkscape:pageshadow="2"
     inkscape:window-width="640"
     inkscape:window-height="480"
     id="namedview79"
     showgrid="false"
     inkscape:zoom="0.32777778"
     inkscape:cx="381.99219"
     inkscape:cy="458.78245"
     inkscape:window-x="0"
     inkscape:window-y="24"
     inkscape:window-maximized="0"
     inkscape:current-layer="body" />
  <title
     id="title3">SVG drawing</title>
  <desc
     id="desc5">This was produced by version 4.4 of GNU libplot, a free library for exporting 2-D vector graphics.</desc>
  <g
     id="content"
     transform="matrix(0.0017361,0,0,-0.0017361,-7.0529063e-4,0.14095034)"
     xml:space="preserve"
     stroke-miterlimit="10.433"
     font-style="normal"
     font-variant="normal"
     font-weight="normal"
     font-stretch="normal"
     font-size-adjust="none"
     letter-spacing="normal"
     word-spacing="normal"
     style="font-style:normal;font-variant:normal;font-weight:normal;font-stretch:normal;letter-spacing:normal;word-spacing:normal;text-anchor:start;fill:none;stroke:#000000;stroke-linecap:butt;stroke-linejoin:miter;stroke-miterlimit:10.43299961;stroke-opacity:1;stroke-dasharray:none;stroke-dashoffset:0">
<path
   d="m 56.289,81.008 0,0.006 0,0.007 -0.001,0.006 0,0.006 -10e-4,0.005 -10e-4,0.006 -0.001,0.005 -10e-4,0.005 -10e-4,0.005 -0.001,0.005 -0.002,0.005 -10e-4,0.004 -0.002,0.004 -0.002,0.004 -0.002,0.004 -0.001,0.004 -0.003,0.004 -0.002,0.003 -0.002,0.004 -0.002,0.003 -0.003,0.003 -0.002,0.003 -0.003,0.002 -0.002,0.003 -0.005,0.005 -0.006,0.004 -0.006,0.004 -0.006,0.004 -0.005,0.003 -0.006,0.003 -0.006,0.002 -0.006,0.002 -0.006,0.002 -0.006,0.001 -0.006,10e-4 -0.005,0.001 -0.006,0.001 -0.005,0 -0.005,10e-4 -0.005,0 -0.004,0 -0.004,0 -0.003,0 -0.004,0 c -0.062,0 -0.078,-0.015 -0.281,-0.25 -0.094,-0.109 -0.734,-0.937 -0.75,-0.953 -0.531,1.032 -1.578,1.203 -2.25,1.203 -2.015,0 -3.844,-1.843 -3.844,-3.64 0,-1.188 0.719,-1.891 1.5,-2.156 0.172,-0.063 1.11,-0.329 1.579,-0.438 0.812,-0.219 1.031,-0.281 1.359,-0.625 0.062,-0.078 0.375,-0.453 0.375,-1.203 0,-1.469 -1.359,-3 -2.953,-3 -1.297,0 -2.75,0.562 -2.75,2.344 0,0.297 0.062,0.672 0.109,0.843 0,0.047 0.016,0.125 0.016,0.157 0,0.062 -0.031,0.14 -0.156,0.14 -0.141,0 -0.157,-0.031 -0.219,-0.297 L 47.07,70.008 c 0,-0.016 -0.062,-0.219 -0.062,-0.235 0,-0.14 0.125,-0.14 0.156,-0.14 0.063,0 0.078,0.015 0.266,0.25 l 0.734,0.953 c 0.391,-0.578 1.203,-1.203 2.688,-1.203 2.046,0 3.921,1.984 3.921,3.969 0,0.671 -0.156,1.25 -0.765,1.843 -0.328,0.328 -0.61,0.407 -2.078,0.797 -1.063,0.281 -1.203,0.328 -1.485,0.578 -0.281,0.282 -0.484,0.657 -0.484,1.203 0,1.329 1.359,2.704 2.859,2.704 1.563,0 2.297,-0.954 2.297,-2.469 0,-0.406 -0.078,-0.844 -0.078,-0.906 0,-0.141 0.125,-0.141 0.172,-0.141 0.141,0 0.156,0.047 0.219,0.297 z"
   id="path9"
   inkscape:connector-curvature="0"
   style="fill:#000000;stroke-width:0" />
<path
   d="m 63.312,73.93 -10e-4,0.043 -0.003,0.043 -0.005,0.043 -0.008,0.042 -0.009,0.04 -0.011,0.041 -0.013,0.039 -0.015,0.038 -0.017,0.038 -0.019,0.036 -0.02,0.035 -0.022,0.035 -0.023,0.033 -0.025,0.032 -0.027,0.03 -0.028,0.029 -0.029,0.028 -0.03,0.027 -0.032,0.025 -0.033,0.023 -0.034,0.022 -0.036,0.02 -0.036,0.019 -0.038,0.016 -0.038,0.016 -0.039,0.013 -0.04,0.011 -0.041,0.009 -0.042,0.008 -0.042,0.005 -0.044,0.003 -0.043,10e-4 c -0.453,0 -0.844,-0.375 -0.844,-0.843 0,-0.453 0.391,-0.844 0.844,-0.844 0.469,0 0.843,0.391 0.843,0.844 z"
   id="path11"
   inkscape:connector-curvature="0"
   style="fill:#000000;stroke-width:0" />
<path
   d="m 75.781,76.414 -1.484,3.484 c 0.203,0.375 0.672,0.438 0.875,0.454 0.094,0 0.266,0.015 0.266,0.296 0,0.172 -0.141,0.172 -0.235,0.172 -0.281,0 -0.594,-0.031 -0.859,-0.031 h -0.922 c -0.969,0 -1.672,0.031 -1.688,0.031 -0.125,0 -0.296,0 -0.296,-0.312 0,-0.156 0.156,-0.156 0.359,-0.156 0.922,0 0.984,-0.157 1.141,-0.532 l 1.89,-4.422 -3.453,-3.687 c -0.563,-0.625 -1.25,-1.219 -2.422,-1.297 -0.187,-0.016 -0.328,-0.016 -0.328,-0.297 0,-0.047 0.016,-0.156 0.203,-0.156 0.219,0 0.453,0.031 0.672,0.031 h 0.75 c 0.516,0 1.062,-0.031 1.562,-0.031 0.11,0 0.297,0 0.297,0.281 0,0.156 -0.109,0.172 -0.203,0.172 -0.312,0.047 -0.531,0.219 -0.531,0.469 0,0.265 0.203,0.453 0.656,0.937 l 1.422,1.547 c 0.344,0.36 1.188,1.281 1.531,1.625 l 1.672,-3.906 c 0.016,-0.031 0.078,-0.188 0.078,-0.203 0,-0.141 -0.343,-0.422 -0.859,-0.469 -0.094,0 -0.266,-0.016 -0.266,-0.297 0,-0.156 0.157,-0.156 0.235,-0.156 0.281,0 0.594,0.031 0.859,0.031 h 1.75 c 0.281,0 0.594,-0.031 0.859,-0.031 0.11,0 0.282,0 0.282,0.297 0,0.156 -0.156,0.156 -0.297,0.156 -0.953,0.031 -0.985,0.109 -1.25,0.688 l -2.109,4.937 2.031,2.156 c 0.156,0.157 0.515,0.563 0.656,0.719 0.687,0.703 1.328,1.359 2.609,1.438 0.157,0.015 0.313,0.015 0.313,0.296 0,0.172 -0.141,0.172 -0.203,0.172 -0.219,0 -0.453,-0.031 -0.688,-0.031 h -0.718 c -0.516,0 -1.063,0.031 -1.563,0.031 -0.109,0 -0.297,0 -0.297,-0.297 0,-0.156 0.11,-0.171 0.203,-0.171 0.25,-0.032 0.516,-0.157 0.516,-0.454 l -0.016,-0.031 c -0.015,-0.109 -0.047,-0.281 -0.219,-0.469 z"
   id="path13"
   inkscape:connector-curvature="0"
   style="fill:#000000;stroke-width:0" />
<path
   d="m 97.605,75.117 0.042,0 0.043,10e-4 0.043,0.001 0.021,0.001 0.022,0.002 0.021,0.001 0.021,0.003 0.021,0.003 0.021,0.003 0.02,0.004 0.02,0.005 0.019,0.005 0.019,0.006 0.017,0.007 0.018,0.008 0.016,0.009 0.016,0.01 0.015,0.011 0.014,0.012 0.012,0.013 0.012,0.014 0.006,0.007 0.005,0.008 0.005,0.008 0.004,0.009 0.004,0.009 0.004,0.009 0.004,0.01 0.003,0.01 0.003,0.01 0.002,0.01 0.003,0.012 0.001,0.011 0.002,0.012 0.001,0.012 0,0.012 0,0.013 c 0,0.297 -0.265,0.297 -0.5,0.297 H 88.23 c -0.218,0 -0.5,0 -0.5,-0.281 0,-0.297 0.266,-0.297 0.5,-0.297 z"
   id="path15"
   inkscape:connector-curvature="0"
   style="fill:#000000;stroke-width:0" />
<path
   d="m 97.605,72.148 0.042,0 0.043,0.001 0.043,0.001 0.021,0.002 0.022,0.001 0.021,0.002 0.021,0.002 0.021,0.003 0.021,0.004 0.02,0.004 0.02,0.005 0.019,0.006 0.019,0.007 0.017,0.007 0.018,0.008 0.016,0.01 0.016,0.01 0.015,0.011 0.014,0.013 0.012,0.014 0.012,0.015 0.006,0.008 0.005,0.008 0.005,0.009 0.004,0.009 0.004,0.009 0.004,0.01 0.004,0.01 0.003,0.01 0.003,0.011 0.002,0.011 0.003,0.012 0.001,0.012 0.002,0.012 0.001,0.013 0,0.014 0,0.013 c 0,0.297 -0.265,0.297 -0.5,0.297 H 88.23 c -0.218,0 -0.5,0 -0.5,-0.281 0,-0.313 0.266,-0.313 0.5,-0.313 z"
   id="path17"
   inkscape:connector-curvature="0"
   style="fill:#000000;stroke-width:0" />
<path
   d="m 108.02,80.148 0,0.017 0,0.016 0,0.016 0,0.015 0,0.014 0,0.015 0,0.013 0,0.014 0,0.013 0,0.012 0,0.012 0,0.011 0,0.012 0,0.01 0,0.011 0,0.01 -0.01,0.009 0,0.009 0,0.009 0,0.009 0,0.008 0,0.007 0,0.008 -0.01,0.007 0,0.013 -0.01,0.012 0,0.011 -0.01,0.01 -0.01,0.008 -0.01,0.008 -0.01,0.007 -0.01,0.006 -0.01,0.005 -0.01,0.004 -0.02,0.003 0,0.002 -0.01,0.001 -0.01,0.002 -0.01,0.001 -0.01,0.001 -0.01,10e-4 -0.01,0 -0.01,0.001 -0.01,0.001 -0.01,0 -0.01,0 -0.01,10e-4 -0.02,0 -0.01,0 -0.01,0 -0.01,0 -0.02,0 -0.01,0 c -0.39,-0.421 -1.19,-1.015 -2.82,-1.015 v -0.453 c 0.36,0 1.16,0 2.04,0.406 V 71.18 c 0,-0.563 -0.05,-0.766 -1.46,-0.766 h -0.48 v -0.453 c 0.42,0.031 1.97,0.031 2.48,0.031 0.53,0 2.07,0 2.49,-0.031 v 0.453 h -0.49 c -1.4,0 -1.45,0.203 -1.45,0.766 z"
   id="path19"
   inkscape:connector-curvature="0"
   style="fill:#000000;stroke-width:0" />
<path
   d="m 4.0742,43.984 0,0.009 -5e-4,0.009 -6e-4,0.004 -7e-4,0.005 -0.0011,0.005 -0.0015,0.004 -0.0018,0.006 -0.0024,0.005 -0.0028,0.006 -0.0034,0.007 -0.004,0.007 -0.0047,0.007 -0.0054,0.008 -0.0062,0.008 -0.007,0.009 -0.0079,0.01 -0.0089,0.011 -0.0097,0.011 -0.0053,0.006 -0.0056,0.006 -0.0058,0.007 -0.0061,0.006 -0.0063,0.007 -0.0067,0.007 -0.007,0.007 -0.0072,0.008 -0.0076,0.008 -0.0079,0.008 -0.0082,0.008 -0.0085,0.009 -0.0089,0.009 -0.0092,0.009 -0.0096,0.009 -0.0099,0.01 -0.0103,0.01 -0.0106,0.01 -0.011,0.011 -0.0114,0.011 -0.0118,0.011 -0.0122,0.012 -0.0126,0.012 -0.0129,0.012 c -1.5782,1.61 -2.4688,4.234 -2.4688,7.469 0,3.094 0.7344,5.734 2.5781,7.625 0.1719,0.14 0.1719,0.172 0.1719,0.219 0,0.093 -0.0781,0.125 -0.1562,0.125 -0.2032,0 -1.5,-1.141 -2.2813,-2.704 -0.81248,-1.609 -1.17186,-3.312 -1.17186,-5.265 0,-1.406 0.21875,-3.297 1.04686,-5 0.9375,-1.906 2.2344,-2.938 2.4063,-2.938 0.0781,0 0.1562,0.032 0.1562,0.125 z"
   id="path21"
   inkscape:connector-curvature="0"
   style="fill:#000000;stroke-width:0" />
<path
   d="m 9.5469,58.031 0,0.017 0,0.016 -1e-4,0.016 0,0.015 -10e-5,0.014 -10e-5,0.014 -10e-5,0.014 -2e-4,0.014 -3e-4,0.012 -3e-4,0.013 -4e-4,0.012 -5e-4,0.011 -5e-4,0.011 -7e-4,0.011 -7e-4,0.01 -9e-4,0.01 -10e-4,0.01 -0.0011,0.009 -0.0012,0.009 -0.0014,0.008 -0.0015,0.009 -0.0016,0.007 -0.0018,0.008 -0.002,0.007 -0.0045,0.013 -0.0052,0.012 -0.006,0.011 -0.0069,0.009 -0.0078,0.009 -0.0087,0.008 -0.0098,0.006 -0.0109,0.006 -0.012,0.005 -0.0133,0.005 -0.0145,0.003 -0.0077,0.002 -0.0081,0.001 -0.0084,10e-4 -0.0087,0.002 -0.0092,10e-4 -0.0094,0 -0.0099,10e-4 -0.0102,0.001 -0.0107,0 -0.011,10e-4 -0.0114,0 -0.0118,10e-4 -0.0123,0 -0.0126,0 -0.0131,0 -0.0135,0 -0.014,0 -0.0144,0 C 8.8438,57.984 8.0469,57.391 6.4219,57.391 v -0.453 c 0.3593,0 1.1562,0 2.0312,0.406 V 49.062 C 8.4531,48.5 8.4062,48.297 7,48.297 H 6.5156 v -0.453 c 0.4219,0.031 1.9688,0.031 2.4844,0.031 0.5312,0 2.062,0 2.484,-0.031 v 0.453 H 11 c -1.4062,0 -1.4531,0.203 -1.4531,0.765 z"
   id="path23"
   inkscape:connector-curvature="0"
   style="fill:#000000;stroke-width:0" />
<path
   d="m 22.652,51.516 h 4.391 c 0.219,0 0.5,0 0.5,0.281 0,0.312 -0.266,0.312 -0.5,0.312 h -4.391 v 4.375 c 0,0.235 0,0.516 -0.281,0.516 -0.312,0 -0.312,-0.266 -0.312,-0.516 v -4.375 h -4.391 c -0.219,0 -0.5,0 -0.5,-0.297 0,-0.296 0.266,-0.296 0.5,-0.296 h 4.391 v -4.391 c 0,-0.219 0,-0.5 0.296,-0.5 0.297,0 0.297,0.266 0.297,0.5 z"
   id="path25"
   inkscape:connector-curvature="0"
   style="fill:#000000;stroke-width:0" />
<path
   d="m 42.094,58.891 0,0.006 -10e-4,0.006 0,0.006 0,0.006 -0.001,0.006 -10e-4,0.006 -10e-4,0.005 -0.001,0.005 -10e-4,0.005 -10e-4,0.005 -0.002,0.004 -0.002,0.005 -10e-4,0.004 -0.002,0.004 -0.002,0.004 -0.002,0.004 -0.002,0.004 -0.002,0.003 -0.002,0.003 -0.003,0.004 -0.002,0.003 -0.002,0.002 -0.003,0.003 -0.002,0.003 -0.006,0.005 -0.005,0.004 -0.006,0.004 -0.006,0.004 -0.006,0.003 -0.006,0.002 -0.006,0.003 -0.006,0.002 -0.006,10e-4 -0.005,0.002 -0.006,10e-4 -0.006,0.001 -0.005,10e-4 -0.005,0 -0.005,10e-4 -0.005,0 -0.004,0 -0.004,0 -0.004,0 -0.003,0 c -0.062,0 -0.078,-0.015 -0.281,-0.25 -0.094,-0.109 -0.734,-0.937 -0.75,-0.953 -0.531,1.031 -1.578,1.203 -2.25,1.203 -2.016,0 -3.844,-1.843 -3.844,-3.64 0,-1.188 0.719,-1.891 1.5,-2.157 0.172,-0.062 1.11,-0.328 1.578,-0.437 0.813,-0.219 1.032,-0.281 1.36,-0.625 0.062,-0.078 0.375,-0.453 0.375,-1.203 0,-1.469 -1.36,-3 -2.953,-3 -1.297,0 -2.75,0.562 -2.75,2.343 0,0.297 0.062,0.672 0.109,0.844 0,0.047 0.015,0.125 0.015,0.156 0,0.063 -0.031,0.141 -0.156,0.141 -0.14,0 -0.156,-0.031 -0.218,-0.297 l -0.813,-3.265 c 0,-0.016 -0.063,-0.219 -0.063,-0.235 0,-0.14 0.126,-0.14 0.157,-0.14 0.062,0 0.078,0.015 0.265,0.25 l 0.735,0.953 c 0.39,-0.578 1.203,-1.203 2.687,-1.203 2.047,0 3.922,1.984 3.922,3.968 0,0.672 -0.156,1.25 -0.766,1.844 -0.328,0.328 -0.609,0.406 -2.078,0.797 -1.062,0.281 -1.203,0.328 -1.484,0.578 -0.281,0.281 -0.484,0.656 -0.484,1.203 0,1.328 1.359,2.703 2.859,2.703 1.563,0 2.297,-0.953 2.297,-2.468 0,-0.407 -0.078,-0.844 -0.078,-0.907 0,-0.14 0.125,-0.14 0.172,-0.14 0.14,0 0.156,0.047 0.218,0.297 z"
   id="path27"
   inkscape:connector-curvature="0"
   style="fill:#000000;stroke-width:0" />
<path
   d="m 47.395,49.25 0.106,0.024 0.106,0.026 0.108,0.03 0.108,0.033 0.108,0.036 0.108,0.039 0.107,0.042 0.106,0.045 0.106,0.048 0.104,0.051 0.102,0.054 0.101,0.056 0.099,0.06 0.096,0.062 0.093,0.065 0.09,0.067 0.087,0.07 0.083,0.073 0.08,0.076 0.075,0.078 0.071,0.08 0.066,0.083 0.062,0.085 0.056,0.088 0.05,0.09 0.045,0.093 0.038,0.095 0.032,0.097 0.026,0.099 0.019,0.102 0.011,0.103 0.004,0.106 c 0,0.953 -1.016,1.672 -2.469,1.672 h -3.188 c -0.218,0 -0.312,0 -0.312,-0.234 0,-0.11 0.094,-0.11 0.312,-0.11 0.016,0 0.235,0 0.422,-0.031 0.203,-0.015 0.297,-0.031 0.297,-0.172 0,-0.047 -0.015,-0.078 -0.047,-0.219 l -1.484,-5.984 c -0.125,-0.437 -0.141,-0.531 -1.016,-0.531 -0.203,0 -0.312,0 -0.312,-0.219 0,-0.125 0.14,-0.125 0.156,-0.125 0.313,0 1.094,0.031 1.406,0.031 0.313,0 1.11,-0.031 1.422,-0.031 0.094,0 0.219,0 0.219,0.219 0,0.125 -0.094,0.125 -0.313,0.125 -0.406,0 -0.718,0 -0.718,0.203 0,0.062 0.015,0.125 0.031,0.188 l 0.734,2.953 h 1.328 l -0.015,0.25 h -1.25 l 0.734,2.906 c 0.063,0.281 0.094,0.391 0.313,0.422 0.093,0.015 0.453,0.015 0.672,0.015 0.796,0 2.031,0 2.031,-1.109 0,-0.375 -0.172,-1.156 -0.61,-1.594 -0.296,-0.281 -0.875,-0.64 -1.89,-0.64 l 0.015,-0.25 c 1.016,0 1.219,-0.625 1.219,-1.016 0,-0.156 -0.094,-0.5 -0.156,-0.766 -0.078,-0.312 -0.188,-0.718 -0.188,-0.953 0,-1.203 1.344,-1.203 1.485,-1.203 0.953,0 1.344,1.125 1.344,1.281 0,0.141 -0.125,0.141 -0.125,0.141 -0.11,0 -0.125,-0.078 -0.157,-0.156 -0.281,-0.828 -0.75,-1.016 -1.015,-1.016 -0.36,0 -0.438,0.25 -0.438,0.688 0,0.343 0.063,0.906 0.11,1.265 0.015,0.156 0.046,0.375 0.046,0.532 0,0.843 -0.75,1.203 -1.046,1.312 z"
   id="path29"
   inkscape:connector-curvature="0"
   style="fill:#000000;stroke-width:0" />
<path
   d="m 55.137,51.797 -10e-4,0.116 -0.001,0.121 -0.003,0.125 -0.004,0.128 -0.005,0.133 -0.007,0.136 -0.018,0.282 -0.025,0.294 -0.033,0.306 -0.041,0.316 -0.052,0.324 -0.061,0.332 -0.074,0.337 -0.085,0.343 -0.098,0.346 -0.112,0.348 -0.061,0.174 -0.065,0.175 -0.07,0.174 -0.073,0.174 -0.077,0.174 -0.081,0.173 c -0.938,1.906 -2.25,2.938 -2.422,2.938 -0.063,0 -0.141,-0.032 -0.141,-0.125 0,-0.047 0,-0.079 0.266,-0.36 1.594,-1.593 2.484,-4.219 2.484,-7.469 0,-3.078 -0.75,-5.734 -2.593,-7.609 -0.157,-0.141 -0.157,-0.172 -0.157,-0.219 0,-0.093 0.078,-0.125 0.141,-0.125 0.203,0 1.516,1.141 2.297,2.703 0.797,1.61 1.172,3.329 1.172,5.235 z"
   id="path31"
   inkscape:connector-curvature="0"
   style="fill:#000000;stroke-width:0" />
<path
   d="m 63.312,51.812 -10e-4,0.044 -0.003,0.043 -0.005,0.043 -0.008,0.041 -0.009,0.041 -0.011,0.04 -0.013,0.04 -0.015,0.038 -0.017,0.037 -0.019,0.037 -0.02,0.035 -0.022,0.034 -0.023,0.033 -0.025,0.032 -0.027,0.031 -0.028,0.029 -0.029,0.028 -0.03,0.026 -0.032,0.025 -0.033,0.024 -0.034,0.022 -0.036,0.02 -0.036,0.018 -0.038,0.017 -0.038,0.015 -0.039,0.014 -0.04,0.011 -0.041,0.009 -0.042,0.008 -0.042,0.005 -0.044,0.003 -0.043,10e-4 c -0.453,0 -0.844,-0.375 -0.844,-0.844 0,-0.453 0.391,-0.843 0.844,-0.843 0.469,0 0.843,0.39 0.843,0.843 z"
   id="path33"
   inkscape:connector-curvature="0"
   style="fill:#000000;stroke-width:0" />
<path
   d="m 75.781,54.297 -1.484,3.484 c 0.203,0.375 0.672,0.438 0.875,0.453 0.094,0 0.266,0.016 0.266,0.297 0,0.172 -0.141,0.172 -0.235,0.172 -0.281,0 -0.594,-0.031 -0.859,-0.031 h -0.922 c -0.969,0 -1.672,0.031 -1.688,0.031 -0.125,0 -0.296,0 -0.296,-0.312 0,-0.157 0.156,-0.157 0.359,-0.157 0.922,0 0.984,-0.156 1.141,-0.531 l 1.89,-4.422 -3.453,-3.687 C 70.812,48.969 70.125,48.375 68.953,48.297 68.766,48.281 68.625,48.281 68.625,48 c 0,-0.047 0.016,-0.156 0.203,-0.156 0.219,0 0.453,0.031 0.672,0.031 h 0.75 c 0.516,0 1.062,-0.031 1.562,-0.031 0.11,0 0.297,0 0.297,0.281 0,0.156 -0.109,0.172 -0.203,0.172 -0.312,0.047 -0.531,0.219 -0.531,0.469 0,0.265 0.203,0.453 0.656,0.937 l 1.422,1.547 c 0.344,0.359 1.188,1.281 1.531,1.625 l 1.672,-3.906 c 0.016,-0.031 0.078,-0.188 0.078,-0.203 0,-0.141 -0.343,-0.422 -0.859,-0.469 -0.094,0 -0.266,-0.016 -0.266,-0.297 0,-0.156 0.157,-0.156 0.235,-0.156 0.281,0 0.594,0.031 0.859,0.031 h 1.75 c 0.281,0 0.594,-0.031 0.859,-0.031 0.11,0 0.282,0 0.282,0.297 0,0.156 -0.156,0.156 -0.297,0.156 -0.953,0.031 -0.985,0.109 -1.25,0.687 l -2.109,4.938 2.031,2.156 c 0.156,0.156 0.515,0.563 0.656,0.719 0.687,0.703 1.328,1.359 2.609,1.437 0.157,0.016 0.313,0.016 0.313,0.297 0,0.172 -0.141,0.172 -0.203,0.172 -0.219,0 -0.453,-0.031 -0.688,-0.031 h -0.718 c -0.516,0 -1.063,0.031 -1.563,0.031 -0.109,0 -0.297,0 -0.297,-0.297 0,-0.156 0.11,-0.172 0.203,-0.172 0.25,-0.031 0.516,-0.156 0.516,-0.453 L 78.781,57.75 c -0.015,-0.109 -0.047,-0.281 -0.219,-0.469 z"
   id="path35"
   inkscape:connector-curvature="0"
   style="fill:#000000;stroke-width:0" />
<path
   d="m 97.605,53 0.042,0 0.043,10e-4 0.043,0.001 0.021,10e-4 0.022,10e-4 0.021,0.002 0.021,0.003 0.021,0.002 0.021,0.004 0.02,0.004 0.02,0.005 0.019,0.005 0.019,0.006 0.017,0.007 0.018,0.008 0.016,0.009 0.016,0.01 0.015,0.01 0.014,0.012 0.012,0.013 0.012,0.015 0.006,0.007 0.005,0.008 0.005,0.008 0.004,0.009 0.004,0.009 0.004,0.009 0.004,0.009 0.003,0.01 0.003,0.011 0.002,0.01 0.003,0.011 0.001,0.012 0.002,0.011 0.001,0.013 0,0.012 0,0.013 c 0,0.297 -0.265,0.297 -0.5,0.297 H 88.23 c -0.218,0 -0.5,0 -0.5,-0.281 C 87.73,53 87.996,53 88.23,53 z"
   id="path37"
   inkscape:connector-curvature="0"
   style="fill:#000000;stroke-width:0" />
<path
   d="m 97.605,50.031 0.042,0 0.043,10e-4 0.043,0.001 0.021,10e-4 0.022,0.002 0.021,0.002 0.021,0.002 0.021,0.003 0.021,0.004 0.02,0.004 0.02,0.005 0.019,0.006 0.019,0.006 0.017,0.008 0.018,0.008 0.016,0.009 0.016,0.011 0.015,0.011 0.014,0.013 0.012,0.013 0.012,0.015 0.006,0.008 0.005,0.009 0.005,0.008 0.004,0.009 0.004,0.01 0.004,0.01 0.004,0.01 0.003,0.01 0.003,0.011 0.002,0.011 0.003,0.012 0.001,0.012 0.002,0.012 0.001,0.013 0,0.013 0,0.014 c 0,0.297 -0.265,0.297 -0.5,0.297 H 88.23 c -0.218,0 -0.5,0 -0.5,-0.281 0,-0.313 0.266,-0.313 0.5,-0.313 z"
   id="path39"
   inkscape:connector-curvature="0"
   style="fill:#000000;stroke-width:0" />
<path
   d="m 108.02,58.031 0,0.017 0,0.016 0,0.016 0,0.015 0,0.014 0,0.014 0,0.014 0,0.014 0,0.012 0,0.013 0,0.012 0,0.011 0,0.011 0,0.011 0,0.01 0,0.01 -0.01,0.01 0,0.009 0,0.009 0,0.008 0,0.009 0,0.007 0,0.008 -0.01,0.007 0,0.013 -0.01,0.012 0,0.011 -0.01,0.009 -0.01,0.009 -0.01,0.008 -0.01,0.006 -0.01,0.006 -0.01,0.005 -0.01,0.005 -0.02,0.003 0,0.002 -0.01,0.001 -0.01,10e-4 -0.01,0.002 -0.01,10e-4 -0.01,0 -0.01,10e-4 -0.01,0.001 -0.01,0 -0.01,10e-4 -0.01,0 -0.01,10e-4 -0.02,0 -0.01,0 -0.01,0 -0.01,0 -0.02,0 -0.01,0 c -0.39,-0.422 -1.19,-1.015 -2.82,-1.015 v -0.453 c 0.36,0 1.16,0 2.04,0.406 v -8.282 c 0,-0.562 -0.05,-0.765 -1.46,-0.765 h -0.48 v -0.453 c 0.42,0.031 1.97,0.031 2.48,0.031 0.53,0 2.07,0 2.49,-0.031 v 0.453 h -0.49 c -1.4,0 -1.45,0.203 -1.45,0.765 z"
   id="path41"
   inkscape:connector-curvature="0"
   style="fill:#000000;stroke-width:0" />
<path
   d="m 12.184,32.18 -1.485,3.484 c 0.203,0.375 0.672,0.438 0.875,0.453 0.094,0 0.266,0.016 0.266,0.297 0,0.172 -0.141,0.172 -0.234,0.172 -0.282,0 -0.594,-0.031 -0.86,-0.031 H 9.8242 c -0.9687,0 -1.6719,0.031 -1.6875,0.031 -0.125,0 -0.2969,0 -0.2969,-0.313 0,-0.156 0.1563,-0.156 0.3594,-0.156 0.9219,0 0.9844,-0.156 1.1406,-0.531 L 11.231,31.164 7.7773,27.477 C 7.2148,26.852 6.5273,26.258 5.3555,26.18 5.168,26.164 5.0273,26.164 5.0273,25.883 c 0,-0.047 0.0157,-0.156 0.2032,-0.156 0.2187,0 0.4531,0.031 0.6718,0.031 h 0.75 c 0.5157,0 1.0625,-0.031 1.5625,-0.031 0.1094,0 0.2969,0 0.2969,0.281 0,0.156 -0.1094,0.172 -0.2031,0.172 -0.3125,0.047 -0.5313,0.218 -0.5313,0.468 0,0.266 0.2032,0.454 0.6563,0.938 l 1.4219,1.547 c 0.3435,0.359 1.1875,1.281 1.5315,1.625 l 1.672,-3.906 c 0.015,-0.032 0.078,-0.188 0.078,-0.204 0,-0.14 -0.344,-0.421 -0.86,-0.468 -0.093,0 -0.265,-0.016 -0.265,-0.297 0,-0.156 0.156,-0.156 0.234,-0.156 0.281,0 0.594,0.031 0.86,0.031 h 1.75 c 0.281,0 0.593,-0.031 0.859,-0.031 0.109,0 0.281,0 0.281,0.296 0,0.157 -0.156,0.157 -0.297,0.157 -0.953,0.031 -0.984,0.109 -1.25,0.687 l -2.109,4.938 2.031,2.156 c 0.156,0.156 0.516,0.562 0.656,0.719 0.688,0.703 1.328,1.359 2.61,1.437 0.156,0.016 0.312,0.016 0.312,0.297 0,0.172 -0.14,0.172 -0.203,0.172 -0.219,0 -0.453,-0.031 -0.687,-0.031 H 16.34 c -0.516,0 -1.063,0.031 -1.563,0.031 -0.109,0 -0.296,0 -0.296,-0.297 0,-0.156 0.109,-0.172 0.203,-0.172 0.25,-0.031 0.515,-0.156 0.515,-0.453 l -0.015,-0.031 c -0.016,-0.11 -0.047,-0.281 -0.219,-0.469 z"
   id="path43"
   inkscape:connector-curvature="0"
   style="fill:#000000;stroke-width:0" />
<path
   d="m 28.73,29.398 h 4.391 c 0.219,0 0.5,0 0.5,0.282 0,0.312 -0.266,0.312 -0.5,0.312 H 28.73 v 4.375 c 0,0.235 0,0.516 -0.281,0.516 -0.312,0 -0.312,-0.266 -0.312,-0.516 v -4.375 h -4.391 c -0.219,0 -0.5,0 -0.5,-0.297 0,-0.297 0.266,-0.297 0.5,-0.297 h 4.391 v -4.39 c 0,-0.219 0,-0.5 0.297,-0.5 0.296,0 0.296,0.265 0.296,0.5 z"
   id="path45"
   inkscape:connector-curvature="0"
   style="fill:#000000;stroke-width:0" />
<path
   d="m 48.16,36.773 0,0.007 0,0.006 -10e-4,0.006 0,0.006 -10e-4,0.006 -0.001,0.005 0,0.006 -0.002,0.005 -10e-4,0.005 -0.001,0.005 -0.002,0.004 -0.001,0.005 -0.002,0.004 -0.002,0.004 -10e-4,0.004 -0.002,0.004 -0.002,0.003 -0.003,0.004 -0.002,0.003 -0.002,0.003 -0.003,0.003 -0.002,0.003 -0.002,0.003 -0.003,0.003 -0.005,0.005 -0.006,0.004 -0.006,0.004 -0.005,0.004 -0.006,0.003 -0.006,0.002 -0.006,0.003 -0.006,0.002 -0.006,0.001 -0.006,0.002 -0.006,0.001 -0.005,10e-4 -0.006,10e-4 -0.005,0 -0.005,0.001 -0.004,0 -0.005,0 -0.004,0 -0.003,0 -0.003,0 c -0.063,0 -0.079,-0.016 -0.282,-0.25 -0.093,-0.109 -0.734,-0.937 -0.75,-0.953 -0.531,1.031 -1.578,1.203 -2.25,1.203 -2.015,0 -3.843,-1.844 -3.843,-3.641 0,-1.187 0.718,-1.89 1.5,-2.156 0.171,-0.062 1.109,-0.328 1.578,-0.437 0.812,-0.219 1.031,-0.282 1.359,-0.625 0.063,-0.078 0.375,-0.453 0.375,-1.203 0,-1.469 -1.359,-3 -2.953,-3 -1.297,0 -2.75,0.562 -2.75,2.343 0,0.297 0.062,0.672 0.109,0.844 0,0.047 0.016,0.125 0.016,0.156 0,0.063 -0.031,0.141 -0.156,0.141 -0.141,0 -0.157,-0.031 -0.219,-0.297 l -0.813,-3.266 c 0,-0.015 -0.062,-0.218 -0.062,-0.234 0,-0.141 0.125,-0.141 0.156,-0.141 0.063,0 0.078,0.016 0.266,0.25 l 0.734,0.954 c 0.391,-0.579 1.203,-1.204 2.688,-1.204 2.047,0 3.922,1.985 3.922,3.969 0,0.672 -0.157,1.25 -0.766,1.844 -0.328,0.328 -0.609,0.406 -2.078,0.797 -1.063,0.281 -1.203,0.328 -1.485,0.578 -0.281,0.281 -0.484,0.656 -0.484,1.203 0,1.328 1.359,2.703 2.859,2.703 1.563,0 2.297,-0.953 2.297,-2.469 0,-0.406 -0.078,-0.843 -0.078,-0.906 0,-0.14 0.125,-0.14 0.172,-0.14 0.141,0 0.156,0.046 0.219,0.296 z"
   id="path47"
   inkscape:connector-curvature="0"
   style="fill:#000000;stroke-width:0" />
<path
   d="m 53.465,27.133 0.106,0.023 0.107,0.027 0.107,0.03 0.108,0.033 0.108,0.036 0.108,0.039 0.107,0.042 0.107,0.045 0.105,0.048 0.104,0.051 0.103,0.054 0.1,0.056 0.099,0.06 0.096,0.062 0.093,0.065 0.09,0.067 0.087,0.07 0.084,0.073 0.079,0.075 0.075,0.078 0.071,0.081 0.067,0.083 0.061,0.085 0.056,0.088 0.05,0.09 0.045,0.093 0.039,0.094 0.032,0.098 0.025,0.099 0.019,0.101 0.011,0.104 0.004,0.106 c 0,0.953 -1.016,1.672 -2.469,1.672 h -3.187 c -0.219,0 -0.313,0 -0.313,-0.234 0,-0.11 0.094,-0.11 0.313,-0.11 0.015,0 0.234,0 0.422,-0.031 0.203,-0.016 0.296,-0.031 0.296,-0.172 0,-0.047 -0.015,-0.078 -0.046,-0.219 l -1.485,-5.984 c -0.125,-0.438 -0.14,-0.531 -1.015,-0.531 -0.204,0 -0.313,0 -0.313,-0.219 0,-0.125 0.141,-0.125 0.156,-0.125 0.313,0 1.094,0.031 1.407,0.031 0.312,0 1.109,-0.031 1.421,-0.031 0.094,0 0.219,0 0.219,0.219 0,0.125 -0.094,0.125 -0.312,0.125 -0.407,0 -0.719,0 -0.719,0.203 0,0.062 0.016,0.125 0.031,0.187 l 0.735,2.953 h 1.328 l -0.016,0.25 h -1.25 l 0.734,2.907 c 0.063,0.281 0.094,0.39 0.313,0.422 0.094,0.015 0.453,0.015 0.672,0.015 0.797,0 2.031,0 2.031,-1.109 0,-0.375 -0.172,-1.156 -0.609,-1.594 -0.297,-0.281 -0.875,-0.641 -1.891,-0.641 l 0.016,-0.25 c 1.015,0 1.218,-0.625 1.218,-1.015 0,-0.156 -0.093,-0.5 -0.156,-0.766 -0.078,-0.312 -0.187,-0.719 -0.187,-0.953 0,-1.203 1.343,-1.203 1.484,-1.203 0.953,0 1.344,1.125 1.344,1.281 0,0.141 -0.125,0.141 -0.125,0.141 -0.11,0 -0.125,-0.078 -0.156,-0.156 -0.282,-0.829 -0.75,-1.016 -1.016,-1.016 -0.359,0 -0.438,0.25 -0.438,0.687 0,0.344 0.063,0.907 0.11,1.266 0.015,0.156 0.047,0.375 0.047,0.531 0,0.844 -0.75,1.203 -1.047,1.313 z"
   id="path49"
   inkscape:connector-curvature="0"
   style="fill:#000000;stroke-width:0" />
<path
   d="m 63.312,29.695 -10e-4,0.044 -0.003,0.043 -0.005,0.042 -0.008,0.042 -0.009,0.041 -0.011,0.04 -0.013,0.04 -0.015,0.038 -0.017,0.037 -0.019,0.037 -0.02,0.035 -0.022,0.034 -0.023,0.033 -0.025,0.032 -0.027,0.031 -0.028,0.029 -0.029,0.028 -0.03,0.026 -0.032,0.025 -0.033,0.024 -0.034,0.022 -0.036,0.02 -0.036,0.018 -0.038,0.017 -0.038,0.015 -0.039,0.013 -0.04,0.012 -0.041,0.009 -0.042,0.007 -0.042,0.006 -0.044,0.003 -0.043,0.001 c -0.453,0 -0.844,-0.375 -0.844,-0.844 0,-0.453 0.391,-0.843 0.844,-0.843 0.469,0 0.843,0.39 0.843,0.843 z"
   id="path51"
   inkscape:connector-curvature="0"
   style="fill:#000000;stroke-width:0" />
<path
   d="m 75.785,32.18 -1.484,3.484 c 0.203,0.375 0.672,0.438 0.875,0.453 0.094,0 0.265,0.016 0.265,0.297 0,0.172 -0.14,0.172 -0.234,0.172 -0.281,0 -0.594,-0.031 -0.859,-0.031 h -0.922 c -0.969,0 -1.672,0.031 -1.688,0.031 -0.125,0 -0.297,0 -0.297,-0.313 0,-0.156 0.157,-0.156 0.36,-0.156 0.922,0 0.984,-0.156 1.14,-0.531 l 1.891,-4.422 -3.453,-3.687 c -0.563,-0.625 -1.25,-1.219 -2.422,-1.297 -0.187,-0.016 -0.328,-0.016 -0.328,-0.297 0,-0.047 0.016,-0.156 0.203,-0.156 0.219,0 0.453,0.031 0.672,0.031 h 0.75 c 0.516,0 1.062,-0.031 1.562,-0.031 0.11,0 0.297,0 0.297,0.281 0,0.156 -0.109,0.172 -0.203,0.172 -0.312,0.047 -0.531,0.218 -0.531,0.468 0,0.266 0.203,0.454 0.656,0.938 l 1.422,1.547 c 0.344,0.359 1.188,1.281 1.531,1.625 l 1.672,-3.906 c 0.016,-0.032 0.078,-0.188 0.078,-0.204 0,-0.14 -0.343,-0.421 -0.859,-0.468 -0.094,0 -0.266,-0.016 -0.266,-0.297 0,-0.156 0.157,-0.156 0.235,-0.156 0.281,0 0.593,0.031 0.859,0.031 h 1.75 c 0.281,0 0.594,-0.031 0.859,-0.031 0.11,0 0.282,0 0.282,0.296 0,0.157 -0.157,0.157 -0.297,0.157 -0.953,0.031 -0.985,0.109 -1.25,0.687 l -2.11,4.938 2.032,2.156 c 0.156,0.156 0.515,0.562 0.656,0.719 0.687,0.703 1.328,1.359 2.609,1.437 0.157,0.016 0.313,0.016 0.313,0.297 0,0.172 -0.141,0.172 -0.203,0.172 -0.219,0 -0.453,-0.031 -0.688,-0.031 h -0.719 c -0.515,0 -1.062,0.031 -1.562,0.031 -0.109,0 -0.297,0 -0.297,-0.297 0,-0.156 0.109,-0.172 0.203,-0.172 0.25,-0.031 0.516,-0.156 0.516,-0.453 l -0.016,-0.031 c -0.015,-0.11 -0.047,-0.281 -0.219,-0.469 z"
   id="path53"
   inkscape:connector-curvature="0"
   style="fill:#000000;stroke-width:0" />
<path
   d="m 97.605,30.883 0.042,0 0.043,0 0.043,0.002 0.021,10e-4 0.022,0.001 0.021,0.002 0.021,0.002 0.021,0.003 0.021,0.004 0.02,0.004 0.02,0.004 0.019,0.006 0.019,0.006 0.017,0.007 0.018,0.008 0.016,0.009 0.016,0.009 0.015,0.011 0.014,0.012 0.012,0.013 0.012,0.014 0.006,0.008 0.005,0.008 0.005,0.008 0.004,0.009 0.004,0.009 0.004,0.009 0.004,0.009 0.003,0.01 0.003,0.011 0.002,0.01 0.003,0.011 0.001,0.012 0.002,0.011 0.001,0.013 0,0.012 0,0.013 c 0,0.297 -0.265,0.297 -0.5,0.297 H 88.23 c -0.218,0 -0.5,0 -0.5,-0.281 0,-0.297 0.266,-0.297 0.5,-0.297 z"
   id="path55"
   inkscape:connector-curvature="0"
   style="fill:#000000;stroke-width:0" />
<path
   d="m 97.605,27.914 0.042,0 0.043,10e-4 0.043,0.001 0.021,0.001 0.022,0.002 0.021,0.002 0.021,0.002 0.021,0.003 0.021,0.004 0.02,0.004 0.02,0.005 0.019,0.006 0.019,0.006 0.017,0.008 0.018,0.008 0.016,0.009 0.016,0.011 0.015,0.011 0.014,0.013 0.012,0.013 0.012,0.015 0.006,0.008 0.005,0.009 0.005,0.008 0.004,0.009 0.004,0.01 0.004,0.009 0.004,0.01 0.003,0.011 0.003,0.011 0.002,0.011 0.003,0.012 0.001,0.012 0.002,0.012 0.001,0.013 0,0.013 0,0.014 c 0,0.297 -0.265,0.297 -0.5,0.297 H 88.23 c -0.218,0 -0.5,0 -0.5,-0.281 0,-0.313 0.266,-0.313 0.5,-0.313 z"
   id="path57"
   inkscape:connector-curvature="0"
   style="fill:#000000;stroke-width:0" />
<path
   d="m 108.02,35.914 0,0.017 0,0.016 0,0.015 0,0.016 0,0.014 0,0.014 0,0.014 0,0.013 0,0.013 0,0.013 0,0.012 0,0.011 0,0.011 0,0.011 0,0.01 0,0.01 -0.01,0.01 0,0.009 0,0.009 0,0.008 0,0.008 0,0.008 0,0.008 -0.01,0.007 0,0.013 -0.01,0.012 0,0.011 -0.01,0.009 -0.01,0.009 -0.01,0.008 -0.01,0.006 -0.01,0.006 -0.01,0.005 -0.01,0.004 -0.02,0.004 0,0.002 -0.01,10e-4 -0.01,10e-4 -0.01,0.001 -0.01,10e-4 -0.01,10e-4 -0.01,0.001 -0.01,10e-4 -0.01,0 -0.01,10e-4 -0.01,0 -0.01,0 -0.02,0.001 -0.01,0 -0.01,0 -0.01,0 -0.02,0 -0.01,0 c -0.39,-0.422 -1.19,-1.016 -2.82,-1.016 V 34.82 c 0.36,0 1.16,0 2.04,0.407 v -8.282 c 0,-0.562 -0.05,-0.765 -1.46,-0.765 h -0.48 v -0.453 c 0.42,0.031 1.97,0.031 2.48,0.031 0.53,0 2.07,0 2.49,-0.031 v 0.453 h -0.49 c -1.4,0 -1.45,0.203 -1.45,0.765 z"
   id="path59"
   inkscape:connector-curvature="0"
   style="fill:#000000;stroke-width:0" />
<path
   d="m 75.785,10.062 -1.484,3.485 c 0.203,0.375 0.672,0.437 0.875,0.453 0.094,0 0.265,0.016 0.265,0.297 0,0.172 -0.14,0.172 -0.234,0.172 -0.281,0 -0.594,-0.031 -0.859,-0.031 h -0.922 c -0.969,0 -1.672,0.031 -1.688,0.031 -0.125,0 -0.297,0 -0.297,-0.313 0,-0.156 0.157,-0.156 0.36,-0.156 0.922,0 0.984,-0.156 1.14,-0.531 L 74.832,9.0469 71.379,5.3594 C 70.816,4.7344 70.129,4.1406 68.957,4.0625 68.77,4.0469 68.629,4.0469 68.629,3.7656 c 0,-0.0468 0.016,-0.1562 0.203,-0.1562 0.219,0 0.453,0.0312 0.672,0.0312 h 0.75 c 0.516,0 1.062,-0.0312 1.562,-0.0312 0.11,0 0.297,0 0.297,0.2812 0,0.1563 -0.109,0.1719 -0.203,0.1719 -0.312,0.0469 -0.531,0.2187 -0.531,0.4687 0,0.2657 0.203,0.4532 0.656,0.9376 l 1.422,1.5468 c 0.344,0.3594 1.188,1.2813 1.531,1.625 L 76.66,4.7344 c 0.016,-0.0313 0.078,-0.1875 0.078,-0.2032 0,-0.1406 -0.343,-0.4218 -0.859,-0.4687 -0.094,0 -0.266,-0.0156 -0.266,-0.2969 0,-0.1562 0.157,-0.1562 0.235,-0.1562 0.281,0 0.593,0.0312 0.859,0.0312 h 1.75 c 0.281,0 0.594,-0.0312 0.859,-0.0312 0.11,0 0.282,0 0.282,0.2968 0,0.1563 -0.157,0.1563 -0.297,0.1563 -0.953,0.0313 -0.985,0.1094 -1.25,0.6875 l -2.11,4.9375 2.032,2.1565 c 0.156,0.156 0.515,0.562 0.656,0.718 0.687,0.704 1.328,1.36 2.609,1.438 0.157,0.016 0.313,0.016 0.313,0.297 0,0.172 -0.141,0.172 -0.203,0.172 -0.219,0 -0.453,-0.031 -0.688,-0.031 h -0.719 c -0.515,0 -1.062,0.031 -1.562,0.031 -0.109,0 -0.297,0 -0.297,-0.297 0,-0.156 0.109,-0.172 0.203,-0.172 0.25,-0.031 0.516,-0.156 0.516,-0.453 l -0.016,-0.031 c -0.015,-0.11 -0.047,-0.282 -0.219,-0.469 z"
   id="path61"
   inkscape:connector-curvature="0"
   style="fill:#000000;stroke-width:0" />
<path
   d="m 97.605,8.7656 0.042,1e-4 0.043,5e-4 0.043,0.0013 0.021,0.0011 0.022,0.0014 0.021,0.0019 0.021,0.0023 0.021,0.0028 0.021,0.0035 0.02,0.004 0.02,0.0047 0.019,0.0054 0.019,0.0062 0.017,0.007 0.018,0.0079 0.016,0.0088 0.016,0.0098 0.015,0.0108 0.014,0.0119 0.012,0.0131 0.012,0.0142 0.006,0.0075 0.005,0.0079 0.005,0.0082 0.004,0.0086 0.004,0.0089 0.004,0.0092 0.004,0.0095 0.003,0.0099 0.003,0.0103 0.002,0.0107 0.003,0.011 0.001,0.0114 0.002,0.0118 0.001,0.0121 0,0.0126 0,0.013 c 0,0.2969 -0.265,0.2969 -0.5,0.2969 H 88.23 c -0.218,0 -0.5,0 -0.5,-0.2813 0,-0.2969 0.266,-0.2969 0.5,-0.2969 z"
   id="path63"
   inkscape:connector-curvature="0"
   style="fill:#000000;stroke-width:0" />
<path
   d="m 97.605,5.7969 0.042,10e-5 0.043,5e-4 0.043,0.0013 0.021,0.0012 0.022,0.0015 0.021,0.002 0.021,0.0024 0.021,0.003 0.021,0.0036 0.02,0.0043 0.02,0.0049 0.019,0.0058 0.019,0.0065 0.017,0.0074 0.018,0.0083 0.016,0.0093 0.016,0.0104 0.015,0.0114 0.014,0.0125 0.012,0.0138 0.012,0.015 0.006,0.008 0.005,0.0083 0.005,0.0087 0.004,0.009 0.004,0.0094 0.004,0.0097 0.004,0.0101 0.003,0.0105 0.003,0.0108 0.002,0.0112 0.003,0.0117 0.001,0.012 0.002,0.0124 0.001,0.0129 0,0.0133 0,0.0137 c 0,0.2968 -0.265,0.2968 -0.5,0.2968 H 88.23 c -0.218,0 -0.5,0 -0.5,-0.2812 0,-0.3125 0.266,-0.3125 0.5,-0.3125 z"
   id="path65"
   inkscape:connector-curvature="0"
   style="fill:#000000;stroke-width:0" />
<path
   d="m 108.02,13.797 0,0.016 0,0.017 0,0.015 0,0.015 0,0.015 0,0.014 0,0.014 0,0.013 0,0.013 0,0.012 0,0.012 0,0.012 0,0.011 0,0.011 0,0.01 0,0.01 -0.01,0.01 0,0.009 0,0.009 0,0.008 0,0.008 0,0.008 0,0.007 -0.01,0.007 0,0.014 -0.01,0.012 0,0.01 -0.01,0.01 -0.01,0.009 -0.01,0.007 -0.01,0.007 -0.01,0.006 -0.01,0.005 -0.01,0.004 -0.02,0.004 0,0.001 -0.01,0.002 -0.01,10e-4 -0.01,0.001 -0.01,10e-4 -0.01,10e-4 -0.01,0.001 -0.01,0 -0.01,10e-4 -0.01,10e-4 -0.01,0 -0.01,0 -0.02,0 -0.01,0.001 -0.01,0 -0.01,0 -0.02,0 -0.01,0 c -0.39,-0.422 -1.19,-1.016 -2.82,-1.016 v -0.453 c 0.36,0 1.16,0 2.04,0.406 V 4.8281 c 0,-0.5625 -0.05,-0.7656 -1.46,-0.7656 h -0.48 V 3.6094 c 0.42,0.0312 1.97,0.0312 2.48,0.0312 0.53,0 2.07,0 2.49,-0.0312 v 0.4531 h -0.49 c -1.4,0 -1.45,0.2031 -1.45,0.7656 z"
   id="path67"
   inkscape:connector-curvature="0"
   style="fill:#000000;stroke-width:0" />
<path
   d="m 125.25,7.2656 0.06,10e-5 0.05,5e-4 0.05,0.0015 0.03,0.0012 0.02,0.0016 0.02,0.0021 0.03,0.0026 0.02,0.0031 0.03,0.0038 0.02,0.0045 0.02,0.0052 0.02,0.006 0.02,0.0069 0.02,0.0078 0.02,0.0087 0.02,0.0098 0.01,0.0109 0.02,0.012 0.01,0.0133 0.02,0.0145 0.01,0.0158 0.01,0.0171 0,0.0092 0.01,0.0094 0,0.0099 0.01,0.0102 0,0.0107 0,0.011 0.01,0.0114 0,0.0118 0,0.0123 0,0.0126 0,0.0131 0.01,0.0135 0,0.014 0,0.0144 c 0,0.3281 -0.28,0.3281 -0.57,0.3281 h -8.59 c -0.27,0 -0.56,0 -0.56,-0.3281 0,-0.3125 0.29,-0.3125 0.56,-0.3125 z"
   id="path69"
   inkscape:connector-curvature="0"
   style="fill:#000000;stroke-width:0" />
<path
   d="m 140.82,14.656 0,0.007 0,0.006 0,0.006 0,0.006 0,0.006 0,0.005 0,0.006 0,0.005 -0.01,0.005 0,0.004 0,0.005 0,0.004 0,0.005 0,0.004 -0.01,0.004 0,0.004 0,0.003 0,0.004 0,0.003 -0.01,0.003 0,0.003 0,0.003 0,0.003 -0.01,0.003 0,0.004 -0.01,0.005 0,0.004 -0.01,0.003 0,0.003 -0.01,0.003 -0.01,0.002 0,0.002 -0.01,0.002 0,0.002 -0.01,0.001 -0.01,10e-4 0,0 -0.01,10e-4 0,0 -0.01,0.001 0,0 0,0 -0.01,0 0,0 c -0.06,0 -0.08,-0.016 -0.28,-0.25 -0.1,-0.109 -0.74,-0.938 -0.75,-0.953 -0.53,1.031 -1.58,1.203 -2.25,1.203 -2.02,0 -3.85,-1.844 -3.85,-3.641 0,-1.1872 0.72,-1.8904 1.5,-2.156 0.18,-0.0625 1.11,-0.3281 1.58,-0.4375 0.82,-0.2187 1.03,-0.2813 1.36,-0.625 0.06,-0.0781 0.38,-0.4531 0.38,-1.2031 0,-1.4688 -1.36,-3 -2.96,-3 -1.29,0 -2.75,0.5625 -2.75,2.3437 0,0.2969 0.07,0.6719 0.11,0.8438 0,0.0469 0.02,0.125 0.02,0.1562 0,0.0625 -0.03,0.1407 -0.16,0.1407 -0.14,0 -0.15,-0.0313 -0.22,-0.2969 L 131.6,3.6562 c 0,-0.0156 -0.06,-0.2187 -0.06,-0.2343 0,-0.1407 0.12,-0.1407 0.16,-0.1407 0.06,0 0.07,0.0157 0.26,0.25 l 0.74,0.9532 c 0.39,-0.5782 1.2,-1.2032 2.68,-1.2032 2.05,0 3.92,1.9844 3.92,3.9688 0,0.6719 -0.15,1.25 -0.76,1.8438 -0.33,0.3281 -0.61,0.4062 -2.08,0.7968 -1.06,0.2814 -1.2,0.3284 -1.48,0.5784 -0.28,0.281 -0.49,0.656 -0.49,1.203 0,1.328 1.36,2.703 2.86,2.703 1.56,0 2.3,-0.953 2.3,-2.469 0,-0.406 -0.08,-0.844 -0.08,-0.906 0,-0.141 0.13,-0.141 0.17,-0.141 0.14,0 0.16,0.047 0.22,0.297 z"
   id="path71"
   inkscape:connector-curvature="0"
   style="fill:#000000;stroke-width:0" />
<path
   d="m 146.12,5.0156 0.11,0.0236 0.1,0.0267 0.11,0.0299 0.11,0.033 0.11,0.036 0.11,0.0391 0.1,0.0421 0.11,0.045 0.1,0.048 0.11,0.0508 0.1,0.0538 0.1,0.0565 0.1,0.0594 0.1,0.0621 0.09,0.0648 0.09,0.0675 0.09,0.0702 0.08,0.0728 0.08,0.0753 0.07,0.078 0.08,0.0804 0.06,0.0829 0.06,0.0854 0.06,0.0878 0.05,0.0902 0.04,0.0925 0.04,0.0948 0.03,0.0972 0.03,0.0993 0.02,0.1016 0.01,0.1037 0,0.1059 c 0,0.9531 -1.01,1.6719 -2.47,1.6719 h -3.18 c -0.22,0 -0.32,0 -0.32,-0.2344 0,-0.1094 0.1,-0.1094 0.32,-0.1094 0.01,0 0.23,0 0.42,-0.0312 0.2,-0.0157 0.3,-0.0313 0.3,-0.1719 0,-0.0469 -0.02,-0.0781 -0.05,-0.2188 L 142.1,2.0938 c -0.12,-0.4376 -0.14,-0.5313 -1.01,-0.5313 -0.2,0 -0.31,0 -0.31,-0.2187 0,-0.125 0.14,-0.125 0.15,-0.125 0.32,0 1.1,0.0312 1.41,0.0312 0.31,0 1.11,-0.0312 1.42,-0.0312 0.09,0 0.22,0 0.22,0.2187 0,0.125 -0.09,0.125 -0.31,0.125 -0.41,0 -0.72,0 -0.72,0.2031 0,0.0625 0.01,0.125 0.03,0.1875 l 0.73,2.9531 h 1.33 l -0.01,0.25 h -1.25 l 0.73,2.9063 c 0.06,0.2813 0.09,0.3906 0.31,0.4219 0.1,0.0156 0.46,0.0156 0.68,0.0156 0.79,0 2.03,0 2.03,-1.1094 0,-0.375 -0.18,-1.1562 -0.61,-1.5937 -0.3,-0.2813 -0.88,-0.6407 -1.89,-0.6407 l 0.01,-0.25 c 1.02,0 1.22,-0.625 1.22,-1.0156 0,-0.1562 -0.09,-0.5 -0.16,-0.7656 -0.07,-0.3125 -0.18,-0.7188 -0.18,-0.9531 0,-1.20315 1.34,-1.20315 1.48,-1.20315 0.95,0 1.35,1.12505 1.35,1.28125 0,0.1406 -0.13,0.1406 -0.13,0.1406 -0.11,0 -0.12,-0.0781 -0.16,-0.1562 -0.28,-0.8282 -0.75,-1.0156 -1.01,-1.0156 -0.36,0 -0.44,0.25 -0.44,0.6874 0,0.3438 0.06,0.9063 0.11,1.2657 0.02,0.1562 0.05,0.375 0.05,0.5312 0,0.8438 -0.75,1.2031 -1.05,1.3125 z"
   id="path73"
   inkscape:connector-curvature="0"
   style="fill:#000000;stroke-width:0" />
<path
   d="m 155.97,7.5781 0,0.0437 -0.01,0.043 0,0.0425 -0.01,0.0417 -0.01,0.0409 -0.01,0.0402 -0.01,0.0392 -0.02,0.0384 -0.01,0.0374 -0.02,0.0364 -0.02,0.0354 -0.02,0.0342 -0.03,0.033 -0.02,0.0319 -0.03,0.0305 -0.03,0.0293 -0.03,0.0279 -0.03,0.0264 -0.03,0.025 -0.03,0.0234 -0.04,0.0219 -0.03,0.0202 -0.04,0.0185 -0.04,0.0169 -0.03,0.015 -0.04,0.0132 -0.04,0.0113 -0.04,0.0094 -0.05,0.0073 -0.04,0.0054 -0.04,0.0032 -0.05,0.0011 c -0.45,0 -0.84,-0.375 -0.84,-0.8438 0,-0.4531 0.39,-0.8437 0.84,-0.8437 0.47,0 0.85,0.3906 0.85,0.8437 z"
   id="path75"
   inkscape:connector-curvature="0"
   style="fill:#000000;stroke-width:0" />
<path
   d="m 168.44,10.062 -1.48,3.485 c 0.2,0.375 0.67,0.437 0.87,0.453 0.1,0 0.27,0.016 0.27,0.297 0,0.172 -0.14,0.172 -0.24,0.172 -0.28,0 -0.59,-0.031 -0.86,-0.031 h -0.92 c -0.97,0 -1.67,0.031 -1.68,0.031 -0.13,0 -0.3,0 -0.3,-0.313 0,-0.156 0.15,-0.156 0.36,-0.156 0.92,0 0.98,-0.156 1.14,-0.531 l 1.89,-4.4221 -3.45,-3.6875 c -0.57,-0.625 -1.25,-1.2188 -2.43,-1.2969 -0.18,-0.0156 -0.32,-0.0156 -0.32,-0.2969 0,-0.0468 0.01,-0.1562 0.2,-0.1562 0.22,0 0.45,0.0312 0.67,0.0312 h 0.75 c 0.52,0 1.06,-0.0312 1.56,-0.0312 0.11,0 0.3,0 0.3,0.2812 0,0.1563 -0.11,0.1719 -0.2,0.1719 -0.32,0.0469 -0.53,0.2187 -0.53,0.4687 0,0.2657 0.2,0.4532 0.65,0.9376 l 1.42,1.5468 c 0.35,0.3594 1.19,1.2813 1.54,1.625 l 1.67,-3.9062 c 0.01,-0.0313 0.08,-0.1875 0.08,-0.2032 0,-0.1406 -0.35,-0.4218 -0.86,-0.4687 -0.1,0 -0.27,-0.0156 -0.27,-0.2969 0,-0.1562 0.16,-0.1562 0.23,-0.1562 0.29,0 0.6,0.0312 0.86,0.0312 h 1.75 c 0.29,0 0.6,-0.0312 0.86,-0.0312 0.11,0 0.28,0 0.28,0.2968 0,0.1563 -0.15,0.1563 -0.29,0.1563 -0.96,0.0313 -0.99,0.1094 -1.25,0.6875 l -2.11,4.9375 2.03,2.1565 c 0.16,0.156 0.52,0.562 0.66,0.718 0.68,0.704 1.32,1.36 2.61,1.438 0.15,0.016 0.31,0.016 0.31,0.297 0,0.172 -0.14,0.172 -0.21,0.172 -0.21,0 -0.45,-0.031 -0.68,-0.031 h -0.72 c -0.52,0 -1.06,0.031 -1.56,0.031 -0.11,0 -0.3,0 -0.3,-0.297 0,-0.156 0.11,-0.172 0.2,-0.172 0.25,-0.031 0.52,-0.156 0.52,-0.453 l -0.02,-0.031 c -0.01,-0.11 -0.04,-0.282 -0.22,-0.469 z"
   id="path77"
   inkscape:connector-curvature="0"
   style="fill:#000000;stroke-width:0" />
</g></svg>
