<?xml version="1.0" encoding="UTF-8" standalone="no"?>
<svg
   xmlns:dc="http://purl.org/dc/elements/1.1/"
   xmlns:cc="http://creativecommons.org/ns#"
   xmlns:rdf="http://www.w3.org/1999/02/22-rdf-syntax-ns#"
   xmlns:svg="http://www.w3.org/2000/svg"
   xmlns="http://www.w3.org/2000/svg"
   xmlns:sodipodi="http://sodipodi.sourceforge.net/DTD/sodipodi-0.dtd"
   xmlns:inkscape="http://www.inkscape.org/namespaces/inkscape"
   version="1.1"
   id="body"
   width="309.45114"
   height="44.223278"
   viewBox="0 0 0.42979325 0.06142122"
   preserveAspectRatio="none"
   inkscape:version="0.48.3.1 r9886"
   sodipodi:docname="ch3-Z-G-38.svg">
  <metadata
     id="metadata75">
    <rdf:RDF>
      <cc:Work
         rdf:about="">
        <dc:format>image/svg+xml</dc:format>
        <dc:type
           rdf:resource="http://purl.org/dc/dcmitype/StillImage" />
      </cc:Work>
    </rdf:RDF>
  </metadata>
  <defs
     id="defs73" />
  <sodipodi:namedview
     pagecolor="#ffffff"
     bordercolor="#666666"
     borderopacity="1"
     objecttolerance="10"
     gridtolerance="10"
     guidetolerance="10"
     inkscape:pageopacity="0"
     inkscape:pageshadow="2"
     inkscape:window-width="640"
     inkscape:window-height="480"
     id="namedview71"
     showgrid="false"
     inkscape:zoom="0.32777778"
     inkscape:cx="381.36719"
     inkscape:cy="459.95432"
     inkscape:window-x="0"
     inkscape:window-y="24"
     inkscape:window-maximized="0"
     inkscape:current-layer="body" />
  <title
     id="title3">SVG drawing</title>
  <desc
     id="desc5">This was produced by version 4.4 of GNU libplot, a free library for exporting 2-D vector graphics.</desc>
  <g
     id="content"
     transform="matrix(0.0017361,0,0,-0.0017361,-0.00157334,0.06136697)"
     xml:space="preserve"
     stroke-miterlimit="10.433"
     font-style="normal"
     font-variant="normal"
     font-weight="normal"
     font-stretch="normal"
     font-size-adjust="none"
     letter-spacing="normal"
     word-spacing="normal"
     style="font-style:normal;font-variant:normal;font-weight:normal;font-stretch:normal;letter-spacing:normal;word-spacing:normal;text-anchor:start;fill:none;stroke:#000000;stroke-linecap:butt;stroke-linejoin:miter;stroke-miterlimit:10.43299961;stroke-opacity:1;stroke-dasharray:none;stroke-dashoffset:0">
<path
   d="M 3.7812,14.461 3.8066,14.456 3.8329,14.452 3.8601,14.447 3.8879,14.441 3.9164,14.436 3.9454,14.43 4.0046,14.419 4.0649,14.407 4.1254,14.395 4.1854,14.383 4.2441,14.371 4.2728,14.365 4.3009,14.36 4.3282,14.354 4.3548,14.349 4.3805,14.343 4.4053,14.338 4.4289,14.334 4.4514,14.329 4.4727,14.325 4.4925,14.321 4.511,14.317 4.5279,14.314 4.5431,14.311 4.5566,14.309 4.5683,14.306 4.5781,14.305 C 4.7812,14.242 5.5,13.992 5.5,13.227 c 0,-0.485 -0.4531,-1.782 -2.2969,-1.782 -0.3281,0 -1.5156,0.047 -1.8437,0.922 0.6406,-0.078 0.9531,0.422 0.9531,0.766 0,0.328 -0.2187,0.515 -0.5313,0.515 -0.3593,0 -0.81245,-0.281 -0.81245,-1 0,-0.937 0.95315,-1.515 2.21875,-1.515 2.4219,0 3.1406,1.781 3.1406,2.609 0,0.235 0,0.672 -0.5156,1.188 -0.3906,0.375 -0.7813,0.453 -1.6406,0.64 -0.4219,0.094 -1.1094,0.235 -1.1094,0.953 0,0.313 0.2813,1.454 1.7969,1.454 0.6718,0 1.3281,-0.25 1.4844,-0.829 -0.7032,0 -0.7344,-0.593 -0.7344,-0.609 0,-0.344 0.2968,-0.437 0.4375,-0.437 0.2343,0 0.6719,0.171 0.6719,0.843 0,0.672 -0.6094,1.36 -1.8438,1.36 -2.0781,0 -2.6406,-1.641 -2.6406,-2.297 0,-1.203 1.1875,-1.453 1.5468,-1.547 z"
   id="path9"
   inkscape:connector-curvature="0"
   style="fill:#000000;stroke-width:0" />
<path
   d="m 12.008,13.555 0,0.008 -10e-4,0.009 -10e-4,0.008 -10e-4,0.008 -0.002,0.008 -0.002,0.008 -0.002,0.007 -0.002,0.008 -0.003,0.007 -0.004,0.006 -0.003,0.007 -0.004,0.006 -0.004,0.006 -0.004,0.006 -0.005,0.006 -0.005,0.005 -0.005,0.005 -0.006,0.005 -0.006,0.004 -0.006,0.004 -0.006,0.004 -0.007,0.004 -0.006,0.003 -0.007,0.003 -0.008,0.002 -0.007,0.003 -0.008,10e-4 -0.008,0.002 -0.008,10e-4 -0.008,0.001 -0.009,10e-4 -0.008,0 c -0.141,0 -0.157,-0.047 -0.25,-0.328 -0.407,-1.438 -1.063,-1.938 -1.579,-1.938 -0.1871,0 -0.4214,0.047 -0.4214,0.532 0,0.421 0.1875,0.906 0.375,1.375 l 1.1094,2.953 c 0.047,0.14 0.156,0.422 0.156,0.718 0,0.672 -0.469,1.282 -1.2498,1.282 -1.4688,0 -2.0625,-2.313 -2.0625,-2.438 0,-0.062 0.0781,-0.14 0.1875,-0.14 0.1406,0 0.1562,0.062 0.2187,0.281 0.375,1.344 0.9844,1.969 1.6094,1.969 0.1407,0 0.4067,-0.016 0.4067,-0.516 0,-0.422 -0.204,-0.938 -0.329,-1.297 L 8.9141,13.211 c -0.1094,-0.25 -0.2032,-0.5 -0.2032,-0.797 0,-0.719 0.5,-1.281 1.2657,-1.281 1.4534,0 2.0314,2.312 2.0314,2.422 z"
   id="path11"
   inkscape:connector-curvature="0"
   style="fill:#000000;stroke-width:0" />
<path
   d="m 11.883,21.211 -10e-4,0.022 -10e-4,0.022 -0.003,0.023 -0.004,0.022 -0.005,0.023 -0.006,0.023 -0.007,0.022 -0.008,0.022 -0.009,0.023 -0.011,0.021 -0.011,0.022 -0.012,0.021 -0.014,0.021 -0.015,0.02 -0.015,0.02 -0.017,0.019 -0.018,0.018 -0.018,0.018 -0.02,0.016 -0.021,0.016 -0.022,0.015 -0.023,0.014 -0.024,0.013 -0.025,0.012 -0.026,0.011 -0.027,0.009 -0.028,0.008 -0.029,0.007 -0.031,0.005 -0.031,0.004 -0.032,0.003 -0.033,0.001 c -0.359,0 -0.781,-0.344 -0.781,-0.766 0,-0.391 0.343,-0.516 0.531,-0.516 0.422,0 0.797,0.407 0.797,0.766 z"
   id="path13"
   inkscape:connector-curvature="0"
   style="fill:#000000;stroke-width:0" />
<path
   d="m 16.109,15.945 0.004,0.011 0.006,0.015 0.009,0.018 0.01,0.023 0.012,0.025 0.014,0.029 0.016,0.031 0.018,0.035 0.02,0.037 0.021,0.04 0.024,0.042 0.025,0.045 0.027,0.046 0.029,0.048 0.03,0.049 0.032,0.051 0.034,0.052 0.035,0.054 0.037,0.054 0.039,0.055 0.04,0.055 0.042,0.056 0.043,0.056 0.044,0.055 0.046,0.056 0.047,0.055 0.049,0.055 0.05,0.054 0.051,0.053 0.053,0.052 0.054,0.05 0.055,0.05 c 0.406,0.375 0.953,0.625 1.563,0.625 0.64,0 0.859,-0.469 0.859,-1.11 0,-0.906 -0.641,-2.719 -0.969,-3.578 -0.14,-0.375 -0.219,-0.578 -0.219,-0.875 0,-0.719 0.5,-1.281 1.25,-1.281 1.485,0 2.047,2.328 2.047,2.422 0,0.093 -0.078,0.156 -0.172,0.156 -0.14,0 -0.156,-0.047 -0.234,-0.328 -0.359,-1.297 -0.969,-1.938 -1.594,-1.938 -0.156,0 -0.406,0.016 -0.406,0.532 0,0.39 0.172,0.875 0.266,1.093 0.328,0.875 0.984,2.657 0.984,3.563 0,0.953 -0.547,1.672 -1.766,1.672 -1.406,0 -2.156,-1 -2.437,-1.407 -0.047,0.907 -0.703,1.407 -1.406,1.407 -0.5,0 -0.86,-0.313 -1.125,-0.844 -0.282,-0.578 -0.516,-1.531 -0.516,-1.594 0,-0.062 0.078,-0.14 0.188,-0.14 0.124,0 0.14,0.015 0.234,0.375 0.25,0.968 0.531,1.875 1.172,1.875 0.375,0 0.5,-0.25 0.5,-0.735 0,-0.344 -0.156,-0.969 -0.282,-1.453 L 14.625,14.07 c -0.063,-0.297 -0.234,-1.015 -0.313,-1.297 -0.124,-0.421 -0.296,-1.171 -0.296,-1.25 0,-0.218 0.172,-0.39 0.422,-0.39 0.187,0 0.406,0.094 0.531,0.328 0.031,0.078 0.187,0.641 0.265,0.953 l 0.344,1.438 z"
   id="path15"
   inkscape:connector-curvature="0"
   style="fill:#000000;stroke-width:0" />
<path
   d="M 32.336,17.773 32.29,17.764 32.246,17.753 32.203,17.74 32.162,17.726 32.123,17.71 32.085,17.693 32.049,17.675 32.015,17.656 31.982,17.635 31.951,17.614 31.922,17.591 31.894,17.567 31.867,17.543 31.842,17.518 31.819,17.492 31.797,17.465 31.776,17.437 31.757,17.409 31.74,17.381 l -0.017,-0.029 -0.014,-0.029 -0.014,-0.03 -0.012,-0.03 -0.011,-0.03 -0.009,-0.03 -0.008,-0.031 -0.007,-0.03 -0.005,-0.03 -0.005,-0.031 -0.003,-0.03 -0.002,-0.029 0,-0.03 c 0,-0.375 0.312,-0.5 0.531,-0.5 0.469,0 0.813,0.406 0.813,0.844 0,0.656 -0.766,0.969 -1.438,0.969 -0.969,0 -1.5,-0.953 -1.641,-1.266 -0.375,1.203 -1.359,1.266 -1.64,1.266 -1.625,0 -2.485,-2.094 -2.485,-2.438 0,-0.062 0.063,-0.14 0.172,-0.14 0.125,0 0.157,0.093 0.188,0.156 0.547,1.765 1.609,2.094 2.078,2.094 0.703,0 0.859,-0.657 0.859,-1.047 0,-0.344 -0.093,-0.719 -0.297,-1.469 l -0.531,-2.188 c -0.25,-0.953 -0.703,-1.828 -1.547,-1.828 -0.078,0 -0.468,0 -0.812,0.203 0.578,0.125 0.703,0.594 0.703,0.782 0,0.328 -0.234,0.515 -0.547,0.515 -0.375,0 -0.797,-0.343 -0.797,-0.843 0,-0.672 0.75,-0.969 1.438,-0.969 0.765,0 1.297,0.594 1.64,1.25 0.25,-0.938 1.047,-1.25 1.641,-1.25 1.609,0 2.469,2.078 2.469,2.422 0,0.093 -0.063,0.156 -0.157,0.156 -0.14,0 -0.156,-0.078 -0.203,-0.219 -0.437,-1.39 -1.359,-2.047 -2.062,-2.047 -0.563,0 -0.86,0.422 -0.86,1.063 0,0.359 0.063,0.609 0.313,1.656 l 0.562,2.156 c 0.235,0.953 0.766,1.657 1.5,1.657 0.032,0 0.485,0 0.813,-0.204 z"
   id="path17"
   inkscape:connector-curvature="0"
   style="fill:#000000;stroke-width:0" />
<path
   d="m 48.836,16.445 0.042,0 0.042,0.001 0.043,10e-4 0.022,0.001 0.021,0.002 0.022,0.002 0.021,0.002 0.021,0.003 0.02,0.003 0.02,0.004 0.02,0.005 0.019,0.005 0.019,0.006 0.018,0.007 0.017,0.008 0.017,0.009 0.015,0.01 0.015,0.011 0.014,0.012 0.013,0.013 0.012,0.014 0.005,0.008 0.005,0.007 0.005,0.009 0.005,0.008 0.004,0.009 0.004,0.009 0.003,0.01 0.003,0.01 0.003,0.01 0.003,0.011 0.002,0.011 0.002,0.011 0.001,0.012 10e-4,0.012 10e-4,0.013 0,0.013 c 0,0.296 -0.266,0.296 -0.5,0.296 h -9.375 c -0.219,0 -0.5,0 -0.5,-0.281 0,-0.297 0.266,-0.297 0.5,-0.297 z"
   id="path19"
   inkscape:connector-curvature="0"
   style="fill:#000000;stroke-width:0" />
<path
   d="m 48.836,13.477 0.042,0 0.042,0 0.043,0.002 0.022,0.001 0.021,10e-4 0.022,0.002 0.021,0.003 0.021,0.003 0.02,0.003 0.02,0.004 0.02,0.005 0.019,0.006 0.019,0.007 0.018,0.007 0.017,0.008 0.017,0.01 0.015,0.01 0.015,0.011 0.014,0.013 0.013,0.014 0.012,0.015 0.005,0.008 0.005,0.008 0.005,0.009 0.005,0.009 0.004,0.009 0.004,0.01 0.003,0.01 0.003,0.01 0.003,0.011 0.003,0.012 0.002,0.011 0.002,0.012 0.001,0.013 10e-4,0.012 10e-4,0.014 0,0.013 c 0,0.297 -0.266,0.297 -0.5,0.297 h -9.375 c -0.219,0 -0.5,0 -0.5,-0.281 0,-0.312 0.266,-0.312 0.5,-0.312 z"
   id="path21"
   inkscape:connector-curvature="0"
   style="fill:#000000;stroke-width:0" />
<path
   d="M 62.203,17.773 62.157,17.764 62.113,17.753 62.07,17.74 62.029,17.726 61.99,17.71 61.953,17.693 61.917,17.675 61.882,17.656 61.85,17.635 l -0.032,-0.021 -0.029,-0.023 -0.028,-0.024 -0.027,-0.024 -0.025,-0.025 -0.023,-0.026 -0.022,-0.027 -0.02,-0.028 -0.02,-0.028 -0.017,-0.028 -0.016,-0.029 -0.015,-0.029 -0.014,-0.03 -0.012,-0.03 -0.01,-0.03 -0.01,-0.03 -0.008,-0.031 -0.007,-0.03 -0.005,-0.03 -0.005,-0.031 -0.003,-0.03 -0.001,-0.029 -10e-4,-0.03 c 0,-0.375 0.312,-0.5 0.531,-0.5 0.469,0 0.813,0.406 0.813,0.844 0,0.656 -0.766,0.969 -1.438,0.969 -0.968,0 -1.5,-0.953 -1.64,-1.266 -0.375,1.203 -1.36,1.266 -1.641,1.266 -1.625,0 -2.484,-2.094 -2.484,-2.438 0,-0.062 0.062,-0.14 0.171,-0.14 0.126,0 0.157,0.093 0.188,0.156 0.547,1.765 1.609,2.094 2.078,2.094 0.703,0 0.86,-0.657 0.86,-1.047 0,-0.344 -0.094,-0.719 -0.297,-1.469 l -0.532,-2.188 c -0.25,-0.953 -0.703,-1.828 -1.547,-1.828 -0.078,0 -0.468,0 -0.812,0.203 0.578,0.125 0.703,0.594 0.703,0.782 0,0.328 -0.234,0.515 -0.547,0.515 -0.375,0 -0.797,-0.343 -0.797,-0.843 0,-0.672 0.75,-0.969 1.438,-0.969 0.765,0 1.297,0.594 1.641,1.25 0.25,-0.938 1.046,-1.25 1.64,-1.25 1.61,0 2.469,2.078 2.469,2.422 0,0.093 -0.063,0.156 -0.156,0.156 -0.141,0 -0.157,-0.078 -0.203,-0.219 -0.438,-1.39 -1.36,-2.047 -2.063,-2.047 -0.563,0 -0.859,0.422 -0.859,1.063 0,0.359 0.062,0.609 0.312,1.656 l 0.563,2.156 c 0.234,0.953 0.765,1.657 1.5,1.657 0.031,0 0.484,0 0.812,-0.204 z"
   id="path23"
   inkscape:connector-curvature="0"
   style="fill:#000000;stroke-width:0" />
<path
   d="m 73.426,14.961 h 4.39 c 0.219,0 0.5,0 0.5,0.281 0,0.313 -0.265,0.313 -0.5,0.313 h -4.39 v 4.375 c 0,0.234 0,0.515 -0.281,0.515 -0.313,0 -0.313,-0.265 -0.313,-0.515 v -4.375 h -4.391 c -0.218,0 -0.5,0 -0.5,-0.297 0,-0.297 0.266,-0.297 0.5,-0.297 h 4.391 V 10.57 c 0,-0.218 0,-0.5 0.297,-0.5 0.297,0 0.297,0.266 0.297,0.5 z"
   id="path25"
   inkscape:connector-curvature="0"
   style="fill:#000000;stroke-width:0" />
<path
   d="m 93.234,14.945 0.053,0 0.052,10e-4 0.052,10e-4 0.025,0.002 0.025,10e-4 0.024,0.002 0.024,0.003 0.024,0.003 0.023,0.004 0.022,0.004 0.022,0.005 0.021,0.006 0.02,0.007 0.019,0.008 0.019,0.009 0.017,0.01 0.017,0.011 0.016,0.012 0.014,0.013 0.013,0.014 0.013,0.016 0.01,0.017 0.005,0.009 0.005,0.01 0.004,0.01 0.004,0.01 0.004,0.011 0.003,0.011 0.003,0.011 0.003,0.012 0.002,0.012 0.002,0.013 0.001,0.013 0.001,0.013 10e-4,0.014 0,0.015 c 0,0.328 -0.281,0.328 -0.563,0.328 h -8.593 c -0.266,0 -0.563,0 -0.563,-0.328 0,-0.313 0.297,-0.313 0.563,-0.313 z"
   id="path27"
   inkscape:connector-curvature="0"
   style="fill:#000000;stroke-width:0" />
<path
   d="m 109.98,28.559 -0.05,-0.01 -0.04,-0.011 -0.05,-0.013 -0.04,-0.014 -0.04,-0.016 -0.03,-0.017 -0.04,-0.018 -0.03,-0.019 -0.04,-0.021 -0.03,-0.021 -0.03,-0.023 -0.03,-0.023 -0.02,-0.025 -0.03,-0.025 -0.02,-0.026 -0.02,-0.027 -0.02,-0.027 -0.02,-0.028 -0.02,-0.029 -0.02,-0.029 -0.01,-0.029 -0.01,-0.03 -0.02,-0.03 -0.01,-0.03 -0.01,-0.03 0,-0.031 -0.01,-0.03 -0.01,-0.03 0,-0.03 0,-0.03 -0.01,-0.03 0,-0.03 c 0,-0.375 0.32,-0.5 0.54,-0.5 0.46,0 0.81,0.407 0.81,0.844 0,0.656 -0.77,0.969 -1.44,0.969 -0.97,0 -1.5,-0.953 -1.64,-1.266 -0.38,1.203 -1.36,1.266 -1.64,1.266 -1.63,0 -2.49,-2.094 -2.49,-2.438 0,-0.062 0.07,-0.14 0.18,-0.14 0.12,0 0.15,0.093 0.18,0.156 0.55,1.766 1.61,2.094 2.08,2.094 0.71,0 0.86,-0.657 0.86,-1.047 0,-0.344 -0.09,-0.719 -0.3,-1.469 l -0.53,-2.187 c -0.25,-0.954 -0.7,-1.829 -1.54,-1.829 -0.08,0 -0.47,0 -0.82,0.204 0.58,0.125 0.71,0.593 0.71,0.781 0,0.328 -0.24,0.515 -0.55,0.515 -0.37,0 -0.8,-0.343 -0.8,-0.843 0,-0.672 0.75,-0.969 1.44,-0.969 0.77,0 1.3,0.594 1.64,1.25 0.25,-0.938 1.05,-1.25 1.64,-1.25 1.61,0 2.47,2.078 2.47,2.422 0,0.094 -0.06,0.156 -0.16,0.156 -0.14,0 -0.15,-0.078 -0.2,-0.219 -0.44,-1.39 -1.36,-2.047 -2.06,-2.047 -0.56,0 -0.86,0.422 -0.86,1.063 0,0.359 0.06,0.609 0.31,1.656 l 0.56,2.156 c 0.24,0.954 0.77,1.657 1.5,1.657 0.03,0 0.49,0 0.82,-0.203 z"
   id="path29"
   inkscape:connector-curvature="0"
   style="fill:#000000;stroke-width:0" />
<path
   d="m 114.55,31.781 0.08,0.031 0.09,0.033 0.08,0.036 0.08,0.039 0.08,0.041 0.07,0.043 0.08,0.046 0.07,0.048 0.07,0.05 0.07,0.052 0.06,0.054 0.07,0.057 0.06,0.058 0.06,0.06 0.05,0.062 0.05,0.064 0.05,0.065 0.05,0.067 0.05,0.068 0.04,0.07 0.04,0.071 0.03,0.073 0.04,0.073 0.02,0.075 0.03,0.076 0.02,0.077 0.02,0.078 0.02,0.079 0.01,0.08 0.01,0.08 0.01,0.081 0,0.082 c 0,0.922 -0.99,1.547 -2.05,1.547 -1.12,0 -1.98,-0.672 -1.98,-1.531 0,-0.36 0.25,-0.578 0.58,-0.578 0.34,0 0.56,0.25 0.56,0.578 0,0.546 -0.52,0.546 -0.69,0.546 0.35,0.547 1.08,0.704 1.49,0.704 0.45,0 1.06,-0.25 1.06,-1.25 0,-0.141 -0.02,-0.782 -0.31,-1.282 -0.33,-0.531 -0.71,-0.562 -0.99,-0.578 -0.09,-0.015 -0.36,-0.031 -0.44,-0.031 -0.09,-0.016 -0.17,-0.016 -0.17,-0.141 0,-0.109 0.08,-0.109 0.27,-0.109 h 0.5 c 0.9,0 1.33,-0.766 1.33,-1.859 0,-1.516 -0.79,-1.844 -1.27,-1.844 -0.48,0 -1.31,0.187 -1.7,0.859 0.39,-0.062 0.73,0.188 0.73,0.61 0,0.406 -0.3,0.625 -0.62,0.625 -0.27,0 -0.63,-0.157 -0.63,-0.657 0,-1.015 1.03,-1.75 2.25,-1.75 1.36,0 2.38,1.016 2.38,2.157 0,0.922 -0.71,1.781 -1.86,2.015 z"
   id="path31"
   inkscape:connector-curvature="0"
   style="fill:#000000;stroke-width:0" />
<line
   x1="96.359001"
   y1="15.273"
   x2="123.48"
   y2="15.273"
   id="line33"
   style="stroke-width:0.63800001" />
<path
   d="m 99.281,6.0586 -0.012,-7e-4 -0.012,-8e-4 -0.012,-7e-4 -0.011,-8e-4 -0.011,-7e-4 -0.011,-8e-4 -0.011,-8e-4 -0.01,-8e-4 L 99.171,6.0508 99.152,6.049 99.135,6.047 99.118,6.0449 99.102,6.0426 99.087,6.0401 99.074,6.0374 99.061,6.0344 99.049,6.0312 99.037,6.0276 99.027,6.0237 99.018,6.0195 99.009,6.0149 99.001,6.01 98.993,6.0046 98.987,5.9988 98.981,5.9925 98.976,5.9857 98.971,5.9785 98.967,5.9707 98.964,5.9624 98.961,5.9535 98.958,5.944 98.956,5.9338 98.955,5.9231 98.954,5.9117 98.953,5.8995 l 0,-0.0128 c 0,-0.1562 0.078,-0.1562 0.359,-0.1562 h 0.738 c 1.34,0 1.95,-1.1094 1.95,-2.6407 0,-2.0781 -1.08,-2.64058 -1.86,-2.64058 -0.765,0 -2.062,0.35937 -2.531,1.42188 0.516,-0.0781 0.969,0.2031 0.969,0.7656 0,0.4688 -0.328,0.7813 -0.766,0.7813 -0.39,0 -0.796,-0.2188 -0.796,-0.8282 0,-1.4062 1.406,-2.562456 3.174,-2.562456 1.89,0 3.29,1.437456 3.29,3.046856 0,1.4688 -1.18,2.6094 -2.7,2.875 1.38,0.3906 2.27,1.5625 2.27,2.7969 0,1.25 -1.3,2.1719 -2.85,2.1719 -1.591,0 -2.762,-0.9688 -2.762,-2.125 0,-0.6407 0.5,-0.7657 0.734,-0.7657 0.328,0 0.719,0.25 0.719,0.7188 0,0.5156 -0.391,0.7344 -0.735,0.7344 -0.094,0 -0.125,0 -0.172,-0.0157 0.594,1.0782 2.096,1.0782 2.176,1.0782 0.53,0 1.56,-0.234 1.56,-1.7969 0,-0.2969 -0.05,-1.1875 -0.52,-1.875 -0.47,-0.7031 -1.01,-0.75 -1.434,-0.7656 z"
   id="path35"
   inkscape:connector-curvature="0"
   style="fill:#000000;stroke-width:0" />
<path
   d="m 110.75,4.3242 0,0.0437 0,0.043 -0.01,0.0425 -0.01,0.0417 -0.01,0.0409 -0.01,0.0402 -0.01,0.0392 -0.02,0.0384 -0.01,0.0374 -0.02,0.0364 -0.02,0.0354 -0.02,0.0342 -0.03,0.033 -0.02,0.0319 -0.03,0.0305 -0.03,0.0293 -0.03,0.0278 -0.03,0.0265 -0.03,0.025 -0.03,0.0234 -0.04,0.0219 -0.03,0.0202 -0.04,0.0185 -0.03,0.0169 -0.04,0.015 -0.04,0.0132 -0.04,0.0113 -0.04,0.0093 -0.04,0.0074 -0.05,0.0053 -0.04,0.0033 -0.04,0.0011 c -0.46,0 -0.85,-0.375 -0.85,-0.8438 0,-0.4531 0.39,-0.8437 0.85,-0.8437 0.47,0 0.84,0.3906 0.84,0.8437 z"
   id="path37"
   inkscape:connector-curvature="0"
   style="fill:#000000;stroke-width:0" />
<path
   d="m 122.67,3.0273 h -0.36 c -0.04,-0.2656 -0.17,-1.1406 -0.33,-1.4062 -0.1,-0.1406 -1.01,-0.1406 -1.5,-0.1406 h -2.93 c 0.42,0.375 1.4,1.3906 1.81,1.7656 2.42,2.2344 3.31,3.0469 3.31,4.625 0,1.8281 -1.45,3.0469 -3.29,3.0469 -1.85,0 -2.93,-1.5625 -2.93,-2.9375 0,-0.8125 0.71,-0.8125 0.75,-0.8125 0.33,0 0.74,0.25 0.74,0.75 0,0.4531 -0.3,0.75 -0.74,0.75 -0.15,0 -0.18,0 -0.23,-0.0157 0.31,1.0782 1.17,1.8127 2.2,1.8127 1.35,0 2.17,-1.1252 2.17,-2.5939 0,-1.3438 -0.78,-2.5313 -1.68,-3.5469 l -3.21,-3.59373 v -0.375 h 5.8 z"
   id="path39"
   inkscape:connector-curvature="0"
   style="fill:#000000;stroke-width:0" />
<path
   d="m 134.56,14.961 h 4.39 c 0.22,0 0.5,0 0.5,0.281 0,0.313 -0.27,0.313 -0.5,0.313 h -4.39 v 4.375 c 0,0.234 0,0.515 -0.28,0.515 -0.32,0 -0.32,-0.265 -0.32,-0.515 v -4.375 h -4.39 c -0.22,0 -0.5,0 -0.5,-0.297 0,-0.297 0.27,-0.297 0.5,-0.297 h 4.39 V 10.57 c 0,-0.218 0,-0.5 0.3,-0.5 0.3,0 0.3,0.266 0.3,0.5 z"
   id="path41"
   inkscape:connector-curvature="0"
   style="fill:#000000;stroke-width:0" />
<path
   d="m 178.03,28.559 -0.05,-0.01 -0.04,-0.011 -0.05,-0.013 -0.04,-0.014 -0.04,-0.016 -0.03,-0.017 -0.04,-0.018 -0.03,-0.019 -0.04,-0.021 -0.03,-0.021 -0.03,-0.023 -0.03,-0.023 -0.02,-0.025 -0.03,-0.025 -0.02,-0.026 -0.02,-0.027 -0.02,-0.027 -0.02,-0.028 -0.02,-0.029 -0.02,-0.029 -0.01,-0.029 -0.01,-0.03 -0.02,-0.03 -0.01,-0.03 -0.01,-0.03 0,-0.031 -0.01,-0.03 -0.01,-0.03 0,-0.03 0,-0.03 -0.01,-0.03 0,-0.03 c 0,-0.375 0.32,-0.5 0.53,-0.5 0.47,0 0.82,0.407 0.82,0.844 0,0.656 -0.77,0.969 -1.44,0.969 -0.97,0 -1.5,-0.953 -1.64,-1.266 -0.38,1.203 -1.36,1.266 -1.64,1.266 -1.63,0 -2.49,-2.094 -2.49,-2.438 0,-0.062 0.07,-0.14 0.18,-0.14 0.12,0 0.15,0.093 0.18,0.156 0.55,1.766 1.61,2.094 2.08,2.094 0.7,0 0.86,-0.657 0.86,-1.047 0,-0.344 -0.09,-0.719 -0.3,-1.469 l -0.53,-2.187 c -0.25,-0.954 -0.7,-1.829 -1.54,-1.829 -0.08,0 -0.47,0 -0.82,0.204 0.58,0.125 0.71,0.593 0.71,0.781 0,0.328 -0.24,0.515 -0.55,0.515 -0.38,0 -0.8,-0.343 -0.8,-0.843 0,-0.672 0.75,-0.969 1.44,-0.969 0.77,0 1.3,0.594 1.64,1.25 0.25,-0.938 1.05,-1.25 1.64,-1.25 1.61,0 2.47,2.078 2.47,2.422 0,0.094 -0.06,0.156 -0.16,0.156 -0.14,0 -0.15,-0.078 -0.2,-0.219 -0.44,-1.39 -1.36,-2.047 -2.06,-2.047 -0.56,0 -0.86,0.422 -0.86,1.063 0,0.359 0.06,0.609 0.31,1.656 l 0.56,2.156 c 0.24,0.954 0.77,1.657 1.5,1.657 0.04,0 0.49,0 0.82,-0.203 z"
   id="path43"
   inkscape:connector-curvature="0"
   style="fill:#000000;stroke-width:0" />
<path
   d="m 184.38,30.109 0,0.123 -0.01,0.121 -0.01,0.12 -0.02,0.118 -0.02,0.116 -0.03,0.115 -0.03,0.112 -0.04,0.11 -0.04,0.107 -0.05,0.105 -0.05,0.102 -0.05,0.099 -0.06,0.096 -0.06,0.093 -0.07,0.089 -0.07,0.085 -0.07,0.082 -0.08,0.077 -0.08,0.074 -0.08,0.069 -0.09,0.064 -0.09,0.06 -0.09,0.055 -0.09,0.05 -0.1,0.044 -0.1,0.039 -0.1,0.034 -0.11,0.028 -0.1,0.022 -0.11,0.016 -0.11,0.01 -0.11,0.003 c -0.53,0 -1.02,-0.188 -1.42,-0.578 v 2.187 c 0.23,-0.078 0.59,-0.156 0.95,-0.156 1.37,0 2.16,1.016 2.16,1.172 0,0.062 -0.04,0.125 -0.11,0.125 -0.02,0 -0.05,0 -0.1,-0.047 -0.22,-0.094 -0.76,-0.312 -1.51,-0.312 -0.46,0 -0.97,0.078 -1.49,0.312 -0.09,0.031 -0.11,0.031 -0.14,0.031 -0.11,0 -0.11,-0.093 -0.11,-0.265 v -3.313 c 0,-0.203 0,-0.281 0.16,-0.281 0.08,0 0.11,0.031 0.14,0.094 0.12,0.187 0.55,0.781 1.44,0.781 0.59,0 0.86,-0.516 0.95,-0.719 0.19,-0.406 0.2,-0.844 0.2,-1.39 0,-0.391 0,-1.063 -0.26,-1.532 -0.27,-0.437 -0.69,-0.734 -1.19,-0.734 -0.83,0 -1.45,0.594 -1.64,1.25 0.03,0 0.06,-0.016 0.19,-0.016 0.36,0 0.54,0.282 0.54,0.547 0,0.266 -0.18,0.547 -0.54,0.547 -0.16,0 -0.55,-0.078 -0.55,-0.594 0,-0.953 0.77,-2.047 2.02,-2.047 1.29,0 2.43,1.079 2.43,2.5 z"
   id="path45"
   inkscape:connector-curvature="0"
   style="fill:#000000;stroke-width:0" />
<line
   x1="145.09"
   y1="15.273"
   x2="210.85001"
   y2="15.273"
   id="line47"
   style="stroke-width:0.63800001" />
<path
   d="m 147.12,9.4648 0.07,-0.0199 0.06,-0.0187 0.06,-0.0177 0.07,-0.0165 0.06,-0.0155 0.06,-0.0145 0.06,-0.0135 0.05,-0.0126 0.06,-0.0116 0.05,-0.0107 0.06,-0.01 0.05,-0.009 0.05,-0.0084 0.05,-0.0075 0.05,-0.0069 0.05,-0.0062 0.04,-0.0055 0.05,-0.005 0.04,-0.0043 0.04,-0.0039 0.04,-0.0033 0.04,-0.0028 0.04,-0.0025 0.03,-0.002 0.03,-0.0016 0.03,-0.0013 0.03,-0.0011 0.02,-7e-4 0.03,-6e-4 0.02,-3e-4 0.02,-2e-4 0.02,0 c 1.79,0 2.93,1.3125 2.93,1.5315 0,0.062 -0.03,0.14 -0.12,0.14 -0.03,0 -0.06,0 -0.2,-0.062 -0.89,-0.375 -1.66,-0.422 -2.08,-0.422 -1.05,0 -1.8,0.313 -2.1,0.438 -0.1,0.046 -0.14,0.046 -0.15,0.046 -0.13,0 -0.13,-0.093 -0.13,-0.343 V 5.8398 c 0,-0.2812 0,-0.375 0.19,-0.375 0.08,0 0.09,0.0157 0.25,0.2032 0.45,0.6406 1.2,1.0312 1.98,1.0312 0.85,0 1.27,-0.7812 1.4,-1.0469 0.26,-0.625 0.28,-1.4062 0.28,-2 0,-0.6093 0,-1.5156 -0.44,-2.2343 -0.36,-0.56253 -0.97,-0.96878 -1.67,-0.96878 -1.05,0 -2.08,0.71878 -2.38,1.87498 0.08,-0.0312 0.19,-0.0469 0.27,-0.0469 0.26,0 0.69,0.1563 0.69,0.7032 0,0.4375 -0.3,0.7031 -0.69,0.7031 -0.3,0 -0.7,-0.1563 -0.7,-0.7656 0,-1.3594 1.07,-2.890656 2.84,-2.890656 1.8,0 3.37,1.499956 3.37,3.515656 0,1.9062 -1.28,3.4687 -2.95,3.4687 -0.91,0 -1.59,-0.3906 -2.02,-0.8437 z"
   id="path49"
   inkscape:connector-curvature="0"
   style="fill:#000000;stroke-width:0" />
<path
   d="m 159.48,4.3242 0,0.0437 0,0.043 -0.01,0.0425 0,0.0417 -0.01,0.0409 -0.01,0.0402 -0.02,0.0392 -0.01,0.0384 -0.02,0.0374 -0.02,0.0364 -0.02,0.0354 -0.02,0.0342 -0.02,0.033 -0.03,0.0319 -0.02,0.0305 -0.03,0.0293 -0.03,0.0278 -0.03,0.0265 -0.03,0.025 -0.04,0.0234 -0.03,0.0219 -0.04,0.0202 -0.03,0.0185 -0.04,0.0169 -0.04,0.015 -0.04,0.0132 -0.04,0.0113 -0.04,0.0093 -0.04,0.0074 -0.04,0.0053 -0.05,0.0033 -0.04,0.0011 c -0.45,0 -0.84,-0.375 -0.84,-0.8438 0,-0.4531 0.39,-0.8437 0.84,-0.8437 0.47,0 0.84,0.3906 0.84,0.8437 z"
   id="path51"
   inkscape:connector-curvature="0"
   style="fill:#000000;stroke-width:0" />
<path
   d="m 170.15,10.699 0,0.015 -0.01,0.014 0,0.014 0,0.013 0,0.026 0,0.025 0,0.023 0,0.022 0,0.021 0,0.02 0,0.019 0,0.017 0,0.017 -0.01,0.015 0,0.014 0,0.014 -0.01,0.012 0,0.012 -0.01,0.01 0,0.01 -0.01,0.009 -0.01,0.008 -0.01,0.007 -0.01,0.006 -0.01,0.006 -0.01,0.005 -0.01,0.004 -0.01,0.004 -0.02,0.002 -0.01,0.003 -0.02,0.002 -0.02,0.001 -0.01,10e-4 -0.01,0 -0.01,0 c -0.13,0 -0.18,0 -0.3,-0.203 l -4.8,-7.4222 h 0.41 l 3.86,6 v -6 h -3.86 -0.41 V 3.0117 h 4.19 V 1.5586 c 0,-0.57813 -0.03,-0.75001 -1.19,-0.75001 H 167.5 V 0.35547 c 0.38,0.03125 1.63,0.03125 2.08,0.03125 0.44,0 1.71,0 2.08,-0.03125 v 0.45312 h -0.31 c -1.16,0 -1.2,0.17188 -1.2,0.75001 v 1.4531 h 1.6 v 0.4531 h -1.6 z"
   id="path53"
   inkscape:connector-curvature="0"
   style="fill:#000000;stroke-width:0" />
<path
   d="m 178.8,4.3242 0,0.0437 0,0.043 0,0.0425 -0.01,0.0417 -0.01,0.0409 -0.01,0.0402 -0.02,0.0392 -0.01,0.0384 -0.02,0.0374 -0.02,0.0364 -0.02,0.0354 -0.02,0.0342 -0.02,0.033 -0.03,0.0319 -0.02,0.0305 -0.03,0.0293 -0.03,0.0278 -0.03,0.0265 -0.03,0.025 -0.04,0.0234 -0.03,0.0219 -0.04,0.0202 -0.03,0.0185 -0.04,0.0169 -0.04,0.015 -0.04,0.0132 -0.04,0.0113 -0.04,0.0093 -0.04,0.0074 -0.04,0.0053 -0.05,0.0033 -0.04,0.0011 c -0.45,0 -0.84,-0.375 -0.84,-0.8438 0,-0.4531 0.39,-0.8437 0.84,-0.8437 0.47,0 0.84,0.3906 0.84,0.8437 z"
   id="path55"
   inkscape:connector-curvature="0"
   style="fill:#000000;stroke-width:0" />
<path
   d="m 186.65,6.0586 -0.01,-7e-4 -0.02,-8e-4 -0.01,-7e-4 -0.01,-8e-4 -0.01,-7e-4 -0.01,-8e-4 -0.02,-0.0016 -0.02,-0.0017 -0.02,-0.0018 -0.02,-0.002 -0.02,-0.0021 -0.01,-0.0023 -0.02,-0.0025 -0.01,-0.0027 -0.01,-0.003 -0.01,-0.0032 -0.02,-0.0036 -0.01,-0.0039 -0.01,-0.0042 0,-0.0046 -0.01,-0.0049 -0.01,-0.0054 -0.01,-0.0058 0,-0.0063 -0.01,-0.0068 0,-0.0072 -0.01,-0.0078 0,-0.0083 0,-0.0089 0,-0.0095 -0.01,-0.0102 0,-0.0107 0,-0.0114 0,-0.0122 0,-0.0128 c 0,-0.1562 0.08,-0.1562 0.36,-0.1562 h 0.73 c 1.35,0 1.96,-1.1094 1.96,-2.6407 0,-2.0781 -1.08,-2.64058 -1.86,-2.64058 -0.77,0 -2.06,0.35937 -2.53,1.42188 0.51,-0.0781 0.97,0.2031 0.97,0.7656 0,0.4688 -0.33,0.7813 -0.77,0.7813 -0.39,0 -0.8,-0.2188 -0.8,-0.8282 0,-1.4062 1.41,-2.562456 3.17,-2.562456 1.9,0 3.3,1.437456 3.3,3.046856 0,1.4688 -1.19,2.6094 -2.7,2.875 1.37,0.3906 2.26,1.5625 2.26,2.7969 0,1.25 -1.29,2.1719 -2.84,2.1719 -1.59,0 -2.77,-0.9688 -2.77,-2.125 0,-0.6407 0.5,-0.7657 0.74,-0.7657 0.33,0 0.72,0.25 0.72,0.7188 0,0.5156 -0.39,0.7344 -0.74,0.7344 -0.09,0 -0.12,0 -0.17,-0.0157 0.6,1.0782 2.1,1.0782 2.17,1.0782 0.53,0 1.57,-0.234 1.57,-1.7969 0,-0.2969 -0.05,-1.1875 -0.52,-1.875 -0.47,-0.7031 -1.02,-0.75 -1.44,-0.7656 z"
   id="path57"
   inkscape:connector-curvature="0"
   style="fill:#000000;stroke-width:0" />
<path
   d="m 198.12,4.3242 0,0.0437 -0.01,0.043 0,0.0425 -0.01,0.0417 -0.01,0.0409 -0.01,0.0402 -0.01,0.0392 -0.02,0.0384 -0.02,0.0374 -0.01,0.0364 -0.02,0.0354 -0.03,0.0342 -0.02,0.033 -0.02,0.0319 -0.03,0.0305 -0.03,0.0293 -0.03,0.0278 -0.03,0.0265 -0.03,0.025 -0.03,0.0234 -0.04,0.0219 -0.03,0.0202 -0.04,0.0185 -0.04,0.0169 -0.04,0.015 -0.03,0.0132 -0.05,0.0113 -0.04,0.0093 -0.04,0.0074 -0.04,0.0053 -0.04,0.0033 -0.05,0.0011 c -0.45,0 -0.84,-0.375 -0.84,-0.8438 0,-0.4531 0.39,-0.8437 0.84,-0.8437 0.47,0 0.85,0.3906 0.85,0.8437 z"
   id="path59"
   inkscape:connector-curvature="0"
   style="fill:#000000;stroke-width:0" />
<path
   d="m 210.04,3.0273 h -0.36 c -0.04,-0.2656 -0.17,-1.1406 -0.33,-1.4062 -0.1,-0.1406 -1.01,-0.1406 -1.5,-0.1406 h -2.93 c 0.42,0.375 1.4,1.3906 1.81,1.7656 2.42,2.2344 3.31,3.0469 3.31,4.625 0,1.8281 -1.45,3.0469 -3.29,3.0469 -1.85,0 -2.93,-1.5625 -2.93,-2.9375 0,-0.8125 0.71,-0.8125 0.75,-0.8125 0.33,0 0.74,0.25 0.74,0.75 0,0.4531 -0.3,0.75 -0.74,0.75 -0.15,0 -0.18,0 -0.23,-0.0157 0.31,1.0782 1.17,1.8127 2.2,1.8127 1.35,0 2.17,-1.1252 2.17,-2.5939 0,-1.3438 -0.78,-2.5313 -1.68,-3.5469 l -3.21,-3.59373 v -0.375 h 5.8 z"
   id="path61"
   inkscape:connector-curvature="0"
   style="fill:#000000;stroke-width:0" />
<path
   d="m 226.05,14.945 0.05,0 0.06,10e-4 0.05,10e-4 0.02,0.002 0.03,10e-4 0.02,0.002 0.03,0.003 0.02,0.003 0.02,0.004 0.02,0.004 0.03,0.005 0.02,0.006 0.02,0.007 0.02,0.008 0.02,0.009 0.01,0.01 0.02,0.011 0.01,0.012 0.02,0.013 0.01,0.014 0.01,0.016 0.02,0.017 0,0.009 0.01,0.01 0,0.01 0,0.01 0.01,0.011 0,0.011 0,0.011 0.01,0.012 0,0.012 0,0.013 0,0.013 0,0.013 0,0.014 0,0.015 c 0,0.328 -0.28,0.328 -0.56,0.328 h -8.59 c -0.27,0 -0.56,0 -0.56,-0.328 0,-0.313 0.29,-0.313 0.56,-0.313 z"
   id="path63"
   inkscape:connector-curvature="0"
   style="fill:#000000;stroke-width:0" />
<path
   d="m 234.45,12.055 -0.01,0.042 0,0.041 0,0.041 -0.01,0.039 -0.01,0.039 -0.01,0.038 -0.02,0.037 -0.01,0.036 -0.02,0.035 -0.01,0.034 -0.02,0.032 -0.02,0.032 -0.03,0.03 -0.02,0.03 -0.03,0.028 -0.02,0.026 -0.03,0.026 -0.03,0.024 -0.03,0.022 -0.03,0.021 -0.03,0.02 -0.03,0.018 -0.03,0.017 -0.04,0.015 -0.03,0.013 -0.03,0.012 -0.04,0.01 -0.04,0.008 -0.03,0.006 -0.04,0.005 -0.03,0.003 -0.04,10e-4 c -0.45,0 -0.78,-0.391 -0.78,-0.766 0,-0.468 0.39,-0.781 0.76,-0.781 0.47,0 0.79,0.375 0.79,0.766 z"
   id="path65"
   inkscape:connector-curvature="0"
   style="fill:#000000;stroke-width:0" />
<path
   d="m 241.44,12.055 0,0.042 0,0.041 -0.01,0.041 -0.01,0.039 -0.01,0.039 -0.01,0.038 -0.01,0.037 -0.01,0.036 -0.02,0.035 -0.02,0.034 -0.02,0.032 -0.02,0.032 -0.02,0.03 -0.02,0.03 -0.03,0.028 -0.03,0.026 -0.02,0.026 -0.03,0.024 -0.03,0.022 -0.03,0.021 -0.03,0.02 -0.03,0.018 -0.04,0.017 -0.03,0.015 -0.03,0.013 -0.04,0.012 -0.03,0.01 -0.04,0.008 -0.04,0.006 -0.03,0.005 -0.04,0.003 -0.03,10e-4 c -0.46,0 -0.78,-0.391 -0.78,-0.766 0,-0.468 0.39,-0.781 0.76,-0.781 0.47,0 0.78,0.375 0.78,0.766 z"
   id="path67"
   inkscape:connector-curvature="0"
   style="fill:#000000;stroke-width:0" />
<path
   d="m 248.42,12.055 0,0.042 -0.01,0.041 0,0.041 -0.01,0.039 -0.01,0.039 -0.01,0.038 -0.01,0.037 -0.02,0.036 -0.01,0.035 -0.02,0.034 -0.02,0.032 -0.02,0.032 -0.02,0.03 -0.03,0.03 -0.02,0.028 -0.03,0.026 -0.03,0.026 -0.02,0.024 -0.03,0.022 -0.03,0.021 -0.04,0.02 -0.03,0.018 -0.03,0.017 -0.03,0.015 -0.04,0.013 -0.03,0.012 -0.04,0.01 -0.03,0.008 -0.04,0.006 -0.03,0.005 -0.04,0.003 -0.04,10e-4 c -0.45,0 -0.78,-0.391 -0.78,-0.766 0,-0.468 0.39,-0.781 0.77,-0.781 0.46,0 0.78,0.375 0.78,0.766 z"
   id="path69"
   inkscape:connector-curvature="0"
   style="fill:#000000;stroke-width:0" />
</g></svg>
