<?xml version="1.0" encoding="UTF-8" standalone="no"?>
<svg
   xmlns:dc="http://purl.org/dc/elements/1.1/"
   xmlns:cc="http://creativecommons.org/ns#"
   xmlns:rdf="http://www.w3.org/1999/02/22-rdf-syntax-ns#"
   xmlns:svg="http://www.w3.org/2000/svg"
   xmlns="http://www.w3.org/2000/svg"
   xmlns:sodipodi="http://sodipodi.sourceforge.net/DTD/sodipodi-0.dtd"
   xmlns:inkscape="http://www.inkscape.org/namespaces/inkscape"
   version="1.1"
   id="body"
   width="220.46858"
   height="47.929382"
   viewBox="0 0 0.30620636 0.066568587"
   preserveAspectRatio="none"
   inkscape:version="0.48.3.1 r9886"
   sodipodi:docname="ch3-Z-G-42.svg">
  <metadata
     id="metadata71">
    <rdf:RDF>
      <cc:Work
         rdf:about="">
        <dc:format>image/svg+xml</dc:format>
        <dc:type
           rdf:resource="http://purl.org/dc/dcmitype/StillImage" />
      </cc:Work>
    </rdf:RDF>
  </metadata>
  <defs
     id="defs69" />
  <sodipodi:namedview
     pagecolor="#ffffff"
     bordercolor="#666666"
     borderopacity="1"
     objecttolerance="10"
     gridtolerance="10"
     guidetolerance="10"
     inkscape:pageopacity="0"
     inkscape:pageshadow="2"
     inkscape:window-width="640"
     inkscape:window-height="480"
     id="namedview67"
     showgrid="false"
     inkscape:zoom="0.32777778"
     inkscape:cx="381.75906"
     inkscape:cy="459.91525"
     inkscape:window-x="0"
     inkscape:window-y="24"
     inkscape:window-maximized="0"
     inkscape:current-layer="body" />
  <title
     id="title3">SVG drawing</title>
  <desc
     id="desc5">This was produced by version 4.4 of GNU libplot, a free library for exporting 2-D vector graphics.</desc>
  <g
     id="content"
     transform="matrix(0.0017361,0,0,-0.0017361,-0.00102908,0.06656858)"
     xml:space="preserve"
     stroke-miterlimit="10.433"
     font-style="normal"
     font-variant="normal"
     font-weight="normal"
     font-stretch="normal"
     font-size-adjust="none"
     letter-spacing="normal"
     word-spacing="normal"
     style="font-style:normal;font-variant:normal;font-weight:normal;font-stretch:normal;letter-spacing:normal;word-spacing:normal;text-anchor:start;fill:none;stroke:#000000;stroke-linecap:butt;stroke-linejoin:miter;stroke-miterlimit:10.43299961;stroke-opacity:1;stroke-dasharray:none;stroke-dashoffset:0">
<path
   d="m 9.9258,25.336 -10e-5,0.006 -2e-4,0.007 -4e-4,0.006 -6e-4,0.006 -6e-4,0.005 -8e-4,0.006 -10e-4,0.005 L 9.921,25.382 9.9198,25.387 9.9185,25.392 9.917,25.397 9.9155,25.401 9.9138,25.405 9.912,25.41 9.9102,25.413 9.9082,25.417 9.9061,25.421 9.904,25.424 9.9018,25.428 9.8995,25.431 9.8971,25.434 9.8946,25.437 9.8921,25.44 9.8895,25.442 9.8842,25.447 9.8787,25.452 9.873,25.456 l -0.0058,0.003 -0.0059,0.003 -0.006,0.003 -0.0059,0.002 -0.006,0.002 -0.0059,0.002 -0.0059,0.001 -0.0057,10e-4 -0.0056,0.001 -0.0054,0.001 -0.0052,10e-4 -0.0049,0 -0.0046,0 -0.0043,0 -0.004,0.001 -0.0036,0 -0.0031,0 c -0.0625,0 -0.0782,-0.016 -0.2813,-0.25 -0.0937,-0.11 -0.7344,-0.938 -0.75,-0.954 -0.5312,1.032 -1.5781,1.204 -2.25,1.204 -2.0156,0 -3.8437,-1.844 -3.8437,-3.641 0,-1.188 0.7187,-1.891 1.5,-2.156 0.1718,-0.063 1.1093,-0.328 1.5781,-0.438 0.8125,-0.219 1.0312,-0.281 1.3594,-0.625 0.0625,-0.078 0.375,-0.453 0.375,-1.203 0,-1.469 -1.3594,-3 -2.9532,-3 -1.2968,0 -2.75,0.563 -2.75,2.344 0,0.297 0.0625,0.672 0.1094,0.844 0,0.046 0.0156,0.125 0.0156,0.156 0,0.062 -0.0312,0.14 -0.1562,0.14 -0.1406,0 -0.1563,-0.031 -0.2188,-0.296 L 0.70703,14.336 c 0,-0.016 -0.0625,-0.219 -0.0625,-0.234 0,-0.141 0.125,-0.141 0.15625,-0.141 0.0625,0 0.07813,0.016 0.26562,0.25 l 0.7344,0.953 c 0.3906,-0.578 1.2031,-1.203 2.6875,-1.203 2.0469,0 3.9219,1.984 3.9219,3.969 0,0.672 -0.1563,1.25 -0.7657,1.843 -0.3281,0.329 -0.6093,0.407 -2.0781,0.797 -1.0625,0.282 -1.2031,0.328 -1.4844,0.578 -0.2812,0.282 -0.4843,0.657 -0.4843,1.204 0,1.328 1.3593,2.703 2.8593,2.703 1.5625,0 2.2969,-0.953 2.2969,-2.469 0,-0.406 -0.0781,-0.844 -0.0781,-0.906 0,-0.141 0.125,-0.141 0.1719,-0.141 0.1406,0 0.1562,0.047 0.2187,0.297 z"
   id="path9"
   inkscape:connector-curvature="0"
   style="fill:#000000;stroke-width:0" />
<path
   d="M 10.414,12.555 10.411,12.538 10.408,12.522 10.404,12.505 10.4,12.487 10.392,12.452 10.384,12.415 10.375,12.379 10.366,12.342 10.357,12.306 10.348,12.271 10.343,12.254 10.339,12.238 10.335,12.221 10.331,12.206 10.327,12.19 10.324,12.176 10.32,12.162 10.317,12.148 10.315,12.135 10.312,12.123 10.31,12.112 l -0.002,-0.01 -10e-4,-0.009 -0.001,-0.009 -10e-4,-0.007 0,-0.007 c 0,-0.187 0.156,-0.297 0.328,-0.297 0.14,0 0.344,0.094 0.422,0.313 0,0.031 0.14,0.547 0.203,0.828 l 0.25,1 c 0.062,0.25 0.125,0.5 0.187,0.75 0.047,0.188 0.141,0.516 0.141,0.563 0.172,0.343 0.766,1.359 1.828,1.359 0.5,0 0.594,-0.422 0.594,-0.781 0,-0.688 -0.547,-2.125 -0.719,-2.594 -0.109,-0.266 -0.109,-0.391 -0.109,-0.516 0,-0.531 0.39,-0.922 0.906,-0.922 1.047,0 1.469,1.625 1.469,1.719 0,0.11 -0.11,0.11 -0.141,0.11 -0.109,0 -0.109,-0.032 -0.172,-0.204 -0.219,-0.75 -0.578,-1.375 -1.125,-1.375 -0.203,0 -0.281,0.11 -0.281,0.36 0,0.281 0.109,0.547 0.203,0.797 0.219,0.593 0.688,1.812 0.688,2.453 0,0.75 -0.485,1.203 -1.282,1.203 -1.015,0 -1.547,-0.719 -1.75,-0.984 -0.047,0.625 -0.5,0.984 -1.015,0.984 -0.516,0 -0.735,-0.438 -0.844,-0.641 -0.1719,-0.375 -0.3282,-1.047 -0.3282,-1.078 0,-0.125 0.1094,-0.125 0.125,-0.125 0.1094,0 0.1252,0.016 0.1872,0.266 0.203,0.797 0.422,1.328 0.828,1.328 0.219,0 0.344,-0.141 0.344,-0.516 0,-0.234 -0.031,-0.359 -0.187,-0.937 z"
   id="path11"
   inkscape:connector-curvature="0"
   style="fill:#000000;stroke-width:0" />
<path
   d="m 20.691,14.461 h 3.11 c 0.156,0 0.375,0 0.375,0.234 0,0.219 -0.219,0.219 -0.375,0.219 h -3.11 v 3.125 c 0,0.156 0,0.359 -0.218,0.359 -0.235,0 -0.235,-0.203 -0.235,-0.359 v -3.125 h -3.109 c -0.156,0 -0.375,0 -0.375,-0.219 0,-0.234 0.219,-0.234 0.375,-0.234 h 3.109 v -3.125 c 0,-0.156 0,-0.359 0.235,-0.359 0.218,0 0.218,0.203 0.218,0.359 z"
   id="path13"
   inkscape:connector-curvature="0"
   style="fill:#000000;stroke-width:0" />
<path
   d="m 28.086,19.039 0,0.012 0,0.012 0,0.012 0,0.011 0,0.011 0,0.011 0,0.01 -10e-4,0.01 0,0.01 0,0.009 0,0.009 -0.001,0.009 -0.001,0.017 -10e-4,0.016 -0.002,0.014 -0.002,0.014 -0.003,0.012 -0.003,0.012 -0.004,0.01 -0.004,0.01 -0.005,0.009 -0.006,0.008 -0.007,0.007 -0.007,0.007 -0.009,0.006 -0.009,0.005 -0.01,0.005 -0.006,0.002 -0.005,0.002 -0.006,10e-4 -0.007,0.002 -0.006,10e-4 -0.007,0.002 -0.007,10e-4 -0.008,0.001 -0.008,10e-4 -0.008,0.001 -0.008,0.001 -0.009,10e-4 -0.009,0 -0.009,0.001 -0.01,0.001 -0.01,0 -0.01,0 -0.011,0 -0.011,10e-4 -0.012,0 -0.011,0 -0.013,0 c -0.687,-0.719 -1.672,-0.719 -2.015,-0.719 v -0.344 c 0.218,0 0.875,0 1.453,0.282 v -5.782 c 0,-0.39 -0.031,-0.531 -1.031,-0.531 h -0.36 v -0.344 c 0.391,0.032 1.36,0.032 1.797,0.032 0.453,0 1.422,0 1.813,-0.032 v 0.344 h -0.36 c -1,0 -1.031,0.125 -1.031,0.531 z"
   id="path15"
   inkscape:connector-curvature="0"
   style="fill:#000000;stroke-width:0" />
<path
   d="m 44.895,17.945 0.052,0 0.052,0.001 0.052,10e-4 0.025,0.002 0.025,10e-4 0.025,0.002 0.024,0.003 0.023,0.003 0.023,0.004 0.022,0.004 0.022,0.005 0.021,0.006 0.02,0.007 0.02,0.008 0.018,0.009 0.018,0.01 0.016,0.011 0.016,0.012 0.014,0.013 0.014,0.014 0.012,0.016 0.011,0.017 0.005,0.009 0.004,0.01 0.005,0.01 0.003,0.01 0.004,0.011 0.003,0.011 0.003,0.011 0.003,0.012 0.002,0.012 0.002,0.013 10e-4,0.013 0.001,0.013 10e-4,0.014 0,0.015 c 0,0.328 -0.281,0.328 -0.562,0.328 h -8.594 c -0.266,0 -0.563,0 -0.563,-0.328 0,-0.313 0.297,-0.313 0.563,-0.313 z"
   id="path17"
   inkscape:connector-curvature="0"
   style="fill:#000000;stroke-width:0" />
<path
   d="m 76.664,21.215 0,0.008 0,0.009 -0.001,0.005 -10e-4,0.004 -0.001,0.005 -0.001,0.005 -0.002,0.005 -0.002,0.006 -0.003,0.006 -0.004,0.006 -0.004,0.007 -0.004,0.007 -0.006,0.008 -0.006,0.009 -0.007,0.009 -0.008,0.01 -0.009,0.01 -0.01,0.011 -0.005,0.006 -0.005,0.007 -0.006,0.006 -0.006,0.007 -0.007,0.006 -0.006,0.008 -0.007,0.007 -0.008,0.007 -0.007,0.008 -0.008,0.008 -0.008,0.009 -0.009,0.008 -0.009,0.009 -0.009,0.009 -0.009,0.01 -0.01,0.009 -0.011,0.011 -0.01,0.01 -0.011,0.011 -0.012,0.01 -0.011,0.012 -0.013,0.011 -0.012,0.012 -0.013,0.013 c -1.578,1.609 -2.469,4.234 -2.469,7.468 0,3.094 0.734,5.735 2.578,7.625 0.172,0.141 0.172,0.172 0.172,0.219 0,0.094 -0.078,0.125 -0.156,0.125 -0.203,0 -1.5,-1.141 -2.281,-2.703 -0.813,-1.609 -1.172,-3.313 -1.172,-5.266 0,-1.406 0.218,-3.297 1.047,-5 0.937,-1.906 2.234,-2.937 2.406,-2.937 0.078,0 0.156,0.031 0.156,0.125 z"
   id="path19"
   inkscape:connector-curvature="0"
   style="fill:#000000;stroke-width:0" />
<path
   d="m 87.656,36.121 0,0.007 0,0.006 -0.001,0.006 0,0.006 -0.001,0.006 -10e-4,0.005 0,0.005 -0.002,0.006 -10e-4,0.004 -0.001,0.005 -0.002,0.005 -0.001,0.004 -0.002,0.005 -0.002,0.004 -10e-4,0.004 -0.002,0.003 -0.002,0.004 -0.003,0.003 -0.002,0.004 -0.002,0.003 -0.002,0.003 -0.003,0.003 -0.002,0.003 -0.003,0.002 -0.005,0.005 -0.006,0.005 -0.006,0.004 -0.005,0.003 -0.006,0.003 -0.006,0.003 -0.006,0.002 -0.006,0.002 -0.006,0.002 -0.006,10e-4 -0.006,0.002 -0.005,10e-4 -0.006,0 -0.005,0.001 -0.005,0 -0.004,0 -0.005,10e-4 -0.004,0 -0.003,0 -0.003,0 c -0.063,0 -0.078,-0.016 -0.282,-0.25 -0.093,-0.11 -0.734,-0.938 -0.75,-0.953 -0.531,1.031 -1.578,1.203 -2.25,1.203 -2.015,0 -3.843,-1.844 -3.843,-3.641 0,-1.187 0.718,-1.891 1.5,-2.156 0.171,-0.063 1.109,-0.328 1.578,-0.438 0.812,-0.218 1.031,-0.281 1.359,-0.625 0.063,-0.078 0.375,-0.453 0.375,-1.203 0,-1.469 -1.359,-3 -2.953,-3 -1.297,0 -2.75,0.563 -2.75,2.344 0,0.297 0.062,0.672 0.109,0.844 0,0.047 0.016,0.125 0.016,0.156 0,0.062 -0.031,0.141 -0.156,0.141 -0.141,0 -0.157,-0.032 -0.219,-0.297 l -0.812,-3.266 c 0,-0.016 -0.063,-0.219 -0.063,-0.234 0,-0.141 0.125,-0.141 0.156,-0.141 0.063,0 0.078,0.016 0.266,0.25 l 0.734,0.953 c 0.391,-0.578 1.203,-1.203 2.688,-1.203 2.047,0 3.922,1.984 3.922,3.969 0,0.672 -0.157,1.25 -0.766,1.844 -0.328,0.328 -0.609,0.406 -2.078,0.796 -1.063,0.282 -1.203,0.329 -1.485,0.579 -0.281,0.281 -0.484,0.656 -0.484,1.203 0,1.328 1.36,2.703 2.86,2.703 1.562,0 2.296,-0.953 2.296,-2.469 0,-0.406 -0.078,-0.844 -0.078,-0.906 0,-0.141 0.125,-0.141 0.172,-0.141 0.141,0 0.156,0.047 0.219,0.297 z"
   id="path21"
   inkscape:connector-curvature="0"
   style="fill:#000000;stroke-width:0" />
<path
   d="M 88.148,23.34 88.145,23.323 88.142,23.307 88.138,23.29 88.135,23.272 88.127,23.237 88.118,23.2 88.109,23.164 88.1,23.128 88.091,23.092 88.082,23.057 88.078,23.04 88.073,23.023 88.069,23.007 88.065,22.991 88.062,22.976 88.058,22.961 88.055,22.947 88.052,22.933 88.049,22.921 88.047,22.909 88.044,22.898 88.043,22.887 88.041,22.878 88.04,22.869 l -0.001,-0.007 0,-0.007 c 0,-0.187 0.156,-0.296 0.328,-0.296 0.141,0 0.344,0.093 0.422,0.312 0,0.031 0.141,0.547 0.203,0.828 l 0.25,1 c 0.063,0.25 0.125,0.5 0.188,0.75 0.047,0.188 0.14,0.516 0.14,0.563 0.172,0.343 0.766,1.359 1.828,1.359 0.5,0 0.594,-0.422 0.594,-0.781 0,-0.688 -0.547,-2.125 -0.719,-2.594 -0.109,-0.266 -0.109,-0.391 -0.109,-0.516 0,-0.531 0.391,-0.921 0.906,-0.921 1.047,0 1.469,1.625 1.469,1.718 0,0.11 -0.109,0.11 -0.141,0.11 -0.109,0 -0.109,-0.032 -0.171,-0.203 -0.219,-0.75 -0.579,-1.375 -1.125,-1.375 -0.204,0 -0.282,0.109 -0.282,0.359 0,0.281 0.11,0.547 0.203,0.797 0.219,0.594 0.688,1.812 0.688,2.453 0,0.75 -0.484,1.203 -1.281,1.203 -1.016,0 -1.547,-0.719 -1.75,-0.984 -0.047,0.625 -0.5,0.984 -1.016,0.984 -0.516,0 -0.734,-0.437 -0.844,-0.641 -0.172,-0.375 -0.328,-1.046 -0.328,-1.078 0,-0.125 0.11,-0.125 0.125,-0.125 0.11,0 0.125,0.016 0.188,0.266 0.203,0.797 0.422,1.328 0.828,1.328 0.219,0 0.344,-0.141 0.344,-0.516 0,-0.234 -0.032,-0.359 -0.188,-0.937 z"
   id="path23"
   inkscape:connector-curvature="0"
   style="fill:#000000;stroke-width:0" />
<path
   d="m 98.422,25.246 h 3.108 c 0.16,0 0.38,0 0.38,0.234 0,0.219 -0.22,0.219 -0.38,0.219 h -3.108 v 3.125 c 0,0.156 0,0.36 -0.219,0.36 -0.234,0 -0.234,-0.204 -0.234,-0.36 v -3.125 h -3.11 c -0.156,0 -0.375,0 -0.375,-0.219 0,-0.234 0.219,-0.234 0.375,-0.234 h 3.11 v -3.125 c 0,-0.156 0,-0.359 0.234,-0.359 0.219,0 0.219,0.203 0.219,0.359 z"
   id="path25"
   inkscape:connector-curvature="0"
   style="fill:#000000;stroke-width:0" />
<path
   d="m 105.82,29.824 0,0.012 0,0.012 0,0.012 0,0.011 0,0.011 0,0.011 0,0.01 0,0.01 0,0.01 0,0.009 0,0.009 0,0.009 0,0.017 0,0.016 -0.01,0.014 0,0.014 0,0.012 0,0.012 -0.01,0.011 0,0.009 -0.01,0.009 0,0.008 -0.01,0.008 -0.01,0.006 -0.01,0.006 0,0.005 -0.01,0.005 -0.01,0.002 -0.01,0.002 0,0.002 -0.01,0.001 0,0.002 -0.01,10e-4 -0.01,0.001 -0.01,0.001 0,0.002 -0.01,0 -0.01,0.001 -0.01,10e-4 -0.01,0.001 -0.01,0 -0.01,0.001 -0.01,0 -0.01,0 -0.01,10e-4 -0.01,0 -0.01,0 -0.01,0 -0.01,0 c -0.69,-0.719 -1.68,-0.719 -2.02,-0.719 v -0.343 c 0.22,0 0.87,0 1.45,0.281 v -5.781 c 0,-0.391 -0.03,-0.532 -1.03,-0.532 h -0.36 v -0.343 c 0.39,0.031 1.36,0.031 1.8,0.031 0.45,0 1.42,0 1.81,-0.031 v 0.343 h -0.36 c -1,0 -1.03,0.125 -1.03,0.532 z"
   id="path27"
   inkscape:connector-curvature="0"
   style="fill:#000000;stroke-width:0" />
<path
   d="m 122.63,28.73 0.05,0.001 0.05,0 0.06,0.002 0.02,0.001 0.03,10e-4 0.02,0.002 0.02,0.003 0.03,0.003 0.02,0.004 0.02,0.004 0.02,0.006 0.03,0.006 0.02,0.007 0.01,0.007 0.02,0.009 0.02,0.01 0.02,0.011 0.01,0.012 0.02,0.013 0.01,0.015 0.01,0.015 0.01,0.018 0.01,0.009 0,0.009 0.01,0.01 0,0.01 0.01,0.011 0,0.011 0,0.011 0,0.012 0.01,0.012 0,0.013 0,0.013 0,0.014 0,0.014 0,0.014 c 0,0.328 -0.28,0.328 -0.56,0.328 h -8.59 c -0.27,0 -0.57,0 -0.57,-0.328 0,-0.313 0.3,-0.313 0.57,-0.313 z"
   id="path29"
   inkscape:connector-curvature="0"
   style="fill:#000000;stroke-width:0" />
<path
   d="m 138.19,36.121 0,0.007 0,0.006 0,0.006 0,0.006 0,0.006 0,0.005 0,0.005 0,0.006 0,0.004 -0.01,0.005 0,0.005 0,0.004 0,0.005 0,0.004 0,0.004 -0.01,0.003 0,0.004 0,0.003 0,0.004 -0.01,0.003 0,0.003 0,0.003 0,0.003 -0.01,0.002 0,0.005 -0.01,0.005 0,0.004 -0.01,0.003 0,0.003 -0.01,0.003 -0.01,0.002 0,0.002 -0.01,0.002 0,10e-4 -0.01,0.002 0,10e-4 -0.01,0 0,0.001 -0.01,0 0,0 -0.01,10e-4 0,0 -0.01,0 0,0 c -0.06,0 -0.08,-0.016 -0.28,-0.25 -0.09,-0.11 -0.73,-0.938 -0.75,-0.953 -0.53,1.031 -1.58,1.203 -2.25,1.203 -2.02,0 -3.84,-1.844 -3.84,-3.641 0,-1.187 0.72,-1.891 1.5,-2.156 0.17,-0.063 1.11,-0.328 1.57,-0.438 0.82,-0.218 1.04,-0.281 1.36,-0.625 0.07,-0.078 0.38,-0.453 0.38,-1.203 0,-1.469 -1.36,-3 -2.95,-3 -1.3,0 -2.75,0.563 -2.75,2.344 0,0.297 0.06,0.672 0.11,0.844 0,0.047 0.01,0.125 0.01,0.156 0,0.062 -0.03,0.141 -0.16,0.141 -0.14,0 -0.15,-0.032 -0.21,-0.297 l -0.82,-3.266 c 0,-0.016 -0.06,-0.219 -0.06,-0.234 0,-0.141 0.13,-0.141 0.16,-0.141 0.06,0 0.08,0.016 0.26,0.25 l 0.74,0.953 c 0.39,-0.578 1.2,-1.203 2.68,-1.203 2.05,0 3.93,1.984 3.93,3.969 0,0.672 -0.16,1.25 -0.77,1.844 -0.33,0.328 -0.61,0.406 -2.08,0.796 -1.06,0.282 -1.2,0.329 -1.48,0.579 -0.28,0.281 -0.49,0.656 -0.49,1.203 0,1.328 1.36,2.703 2.86,2.703 1.57,0 2.3,-0.953 2.3,-2.469 0,-0.406 -0.08,-0.844 -0.08,-0.906 0,-0.141 0.13,-0.141 0.17,-0.141 0.14,0 0.16,0.047 0.22,0.297 z"
   id="path31"
   inkscape:connector-curvature="0"
   style="fill:#000000;stroke-width:0" />
<path
   d="m 138.68,23.34 0,-0.017 0,-0.016 -0.01,-0.017 0,-0.018 -0.01,-0.035 -0.01,-0.037 -0.01,-0.036 0,-0.036 -0.01,-0.036 -0.01,-0.035 -0.01,-0.017 0,-0.017 -0.01,-0.016 0,-0.016 0,-0.015 -0.01,-0.015 0,-0.014 0,-0.014 -0.01,-0.012 0,-0.012 0,-0.011 0,-0.011 0,-0.009 -0.01,-0.009 0,-0.007 0,-0.007 c 0,-0.187 0.16,-0.296 0.33,-0.296 0.14,0 0.35,0.093 0.42,0.312 0,0.031 0.14,0.547 0.21,0.828 l 0.25,1 c 0.06,0.25 0.12,0.5 0.18,0.75 0.05,0.188 0.14,0.516 0.14,0.563 0.18,0.343 0.77,1.359 1.83,1.359 0.5,0 0.6,-0.422 0.6,-0.781 0,-0.688 -0.55,-2.125 -0.72,-2.594 -0.11,-0.266 -0.11,-0.391 -0.11,-0.516 0,-0.531 0.39,-0.921 0.9,-0.921 1.05,0 1.47,1.625 1.47,1.718 0,0.11 -0.11,0.11 -0.14,0.11 -0.11,0 -0.11,-0.032 -0.17,-0.203 -0.22,-0.75 -0.58,-1.375 -1.12,-1.375 -0.21,0 -0.29,0.109 -0.29,0.359 0,0.281 0.11,0.547 0.21,0.797 0.22,0.594 0.69,1.812 0.69,2.453 0,0.75 -0.49,1.203 -1.29,1.203 -1.01,0 -1.54,-0.719 -1.75,-0.984 -0.04,0.625 -0.5,0.984 -1.01,0.984 -0.52,0 -0.74,-0.437 -0.85,-0.641 -0.17,-0.375 -0.32,-1.046 -0.32,-1.078 0,-0.125 0.11,-0.125 0.12,-0.125 0.11,0 0.13,0.016 0.19,0.266 0.2,0.797 0.42,1.328 0.83,1.328 0.22,0 0.34,-0.141 0.34,-0.516 0,-0.234 -0.03,-0.359 -0.19,-0.937 z"
   id="path33"
   inkscape:connector-curvature="0"
   style="fill:#000000;stroke-width:0" />
<path
   d="m 149.38,29.027 0,0.117 0,0.12 -0.01,0.125 0,0.129 0,0.132 -0.01,0.136 -0.02,0.282 -0.02,0.295 -0.04,0.306 -0.04,0.315 -0.05,0.325 -0.06,0.331 -0.08,0.338 -0.08,0.342 -0.1,0.346 -0.11,0.348 -0.06,0.175 -0.07,0.174 -0.07,0.174 -0.07,0.175 -0.08,0.173 -0.08,0.174 c -0.93,1.906 -2.25,2.937 -2.42,2.937 -0.06,0 -0.14,-0.031 -0.14,-0.125 0,-0.047 0,-0.078 0.27,-0.359 1.59,-1.594 2.48,-4.219 2.48,-7.469 0,-3.078 -0.75,-5.734 -2.59,-7.609 -0.16,-0.141 -0.16,-0.172 -0.16,-0.219 0,-0.094 0.08,-0.125 0.14,-0.125 0.2,0 1.52,1.14 2.3,2.703 0.79,1.609 1.17,3.328 1.17,5.234 z"
   id="path35"
   inkscape:connector-curvature="0"
   style="fill:#000000;stroke-width:0" />
<path
   d="m 152.39,31.719 1.17,1.156 c 1.75,1.531 2.42,2.141 2.42,3.25 0,1.266 -1.02,2.172 -2.38,2.172 -1.25,0 -2.07,-1.031 -2.07,-2.031 0,-0.625 0.54,-0.625 0.59,-0.625 0.19,0 0.58,0.14 0.58,0.593 0,0.297 -0.2,0.578 -0.6,0.578 -0.09,0 -0.1,0 -0.14,0 0.25,0.719 0.86,1.126 1.5,1.126 1.02,0 1.5,-0.891 1.5,-1.813 0,-0.891 -0.56,-1.781 -1.17,-2.469 l -2.14,-2.39 c -0.12,-0.11 -0.12,-0.141 -0.12,-0.407 h 4.14 l 0.31,1.938 h -0.28 c -0.06,-0.328 -0.14,-0.828 -0.25,-0.985 -0.08,-0.093 -0.81,-0.093 -1.06,-0.093 z"
   id="path37"
   inkscape:connector-curvature="0"
   style="fill:#000000;stroke-width:0" />
<line
   x1="51.562"
   y1="18.273001"
   x2="176.97"
   y2="18.273001"
   id="line39"
   style="stroke-width:0.63800001" />
<path
   d="m 61.656,14.402 0,0.007 0,0.006 -10e-4,0.006 0,0.006 -10e-4,0.006 -0.001,0.005 0,0.006 -0.002,0.005 -0.001,0.005 -10e-4,0.004 -0.002,0.005 -10e-4,0.005 -0.002,0.004 -0.002,0.004 -0.001,0.004 -0.002,0.004 -0.002,0.003 -0.003,0.004 -0.002,0.003 -0.002,0.003 -0.002,0.003 -0.003,0.003 -0.002,0.003 -0.003,0.003 -0.005,0.005 -0.006,0.004 -0.006,0.004 -0.005,0.003 -0.006,0.004 -0.006,0.002 -0.006,0.003 -0.006,0.002 -0.006,0.001 -0.006,0.002 -0.006,10e-4 -0.005,0.001 -0.006,10e-4 -0.005,0 -0.005,0 -0.004,10e-4 -0.005,0 -0.004,0 -0.003,0 -0.003,0 c -0.063,0 -0.078,-0.016 -0.282,-0.25 -0.093,-0.109 -0.734,-0.937 -0.75,-0.953 -0.531,1.031 -1.578,1.203 -2.25,1.203 -2.015,0 -3.843,-1.844 -3.843,-3.641 0,-1.1872 0.718,-1.8903 1.5,-2.1559 C 56.062,8.6836 57,8.418 57.469,8.3086 58.281,8.0898 58.5,8.0273 58.828,7.6836 c 0.063,-0.0781 0.375,-0.4531 0.375,-1.2031 0,-1.4688 -1.359,-3 -2.953,-3 -1.297,0 -2.75,0.5625 -2.75,2.3437 0,0.2969 0.062,0.6719 0.109,0.8438 0,0.0468 0.016,0.125 0.016,0.1562 0,0.0625 -0.031,0.1406 -0.156,0.1406 -0.141,0 -0.157,-0.0312 -0.219,-0.2968 L 52.438,3.4023 c 0,-0.0156 -0.063,-0.2187 -0.063,-0.2343 0,-0.1407 0.125,-0.1407 0.156,-0.1407 0.063,0 0.078,0.0157 0.266,0.25 l 0.734,0.9532 c 0.391,-0.5782 1.203,-1.2032 2.688,-1.2032 2.047,0 3.922,1.9844 3.922,3.9688 0,0.6719 -0.157,1.25 -0.766,1.8437 -0.328,0.3282 -0.609,0.4063 -2.078,0.7969 -1.063,0.2813 -1.203,0.3281 -1.485,0.5783 -0.281,0.281 -0.484,0.656 -0.484,1.203 0,1.328 1.36,2.703 2.86,2.703 1.562,0 2.296,-0.953 2.296,-2.469 0,-0.406 -0.078,-0.843 -0.078,-0.906 0,-0.14 0.125,-0.14 0.172,-0.14 0.141,0 0.156,0.046 0.219,0.296 z"
   id="path41"
   inkscape:connector-curvature="0"
   style="fill:#000000;stroke-width:0" />
<path
   d="M 62.145,1.6211 62.141,1.6048 62.138,1.588 62.135,1.5709 62.131,1.5535 62.123,1.5179 62.114,1.4817 62.105,1.4452 62.096,1.4088 62.087,1.3729 62.078,1.3379 62.074,1.3208 62.07,1.3042 62.065,1.2879 62.062,1.2721 62.058,1.2569 62.054,1.2421 62.051,1.228 62.048,1.2146 62.045,1.2019 62.043,1.1899 62.04,1.1787 62.039,1.1684 62.037,1.159 62.036,1.1506 62.035,1.1431 l 0,-0.0064 c 0,-0.18748 0.156,-0.29686 0.328,-0.29686 0.141,0 0.344,0.09375 0.422,0.31246 0,0.0313 0.141,0.5469 0.203,0.8282 l 0.25,1 c 0.063,0.25 0.125,0.5 0.188,0.75 0.047,0.1875 0.14,0.5156 0.14,0.5625 0.172,0.3437 0.766,1.3593 1.829,1.3593 0.5,0 0.593,-0.4218 0.593,-0.7812 0,-0.6875 -0.547,-2.125 -0.718,-2.5938 -0.11,-0.2656 -0.11,-0.3906 -0.11,-0.5156 0,-0.5312 0.391,-0.92186 0.906,-0.92186 1.047,0 1.469,1.62496 1.469,1.71876 0,0.1094 -0.109,0.1094 -0.14,0.1094 -0.11,0 -0.11,-0.0313 -0.172,-0.2032 -0.219,-0.75 -0.578,-1.375 -1.125,-1.375 -0.203,0 -0.282,0.1094 -0.282,0.3594 0,0.2813 0.11,0.5469 0.204,0.7969 0.218,0.5937 0.687,1.8125 0.687,2.4531 0,0.75 -0.484,1.2031 -1.281,1.2031 -1.016,0 -1.547,-0.7187 -1.75,-0.9843 -0.047,0.625 -0.5,0.9843 -1.016,0.9843 -0.515,0 -0.734,-0.4375 -0.844,-0.6406 -0.171,-0.375 -0.328,-1.0469 -0.328,-1.0781 0,-0.125 0.11,-0.125 0.125,-0.125 0.11,0 0.125,0.0156 0.188,0.2656 0.203,0.7969 0.422,1.3281 0.828,1.3281 0.219,0 0.344,-0.1406 0.344,-0.5156 0,-0.2344 -0.032,-0.3594 -0.188,-0.9375 z"
   id="path43"
   inkscape:connector-curvature="0"
   style="fill:#000000;stroke-width:0" />
<path
   d="m 75.219,3.5273 0.035,1e-4 0.035,4e-4 0.035,0.0011 0.018,9e-4 0.017,0.0012 0.017,0.0016 0.016,0.0019 0.017,0.0024 0.016,0.0028 0.015,0.0034 0.015,0.0039 0.015,0.0045 0.014,0.0051 0.014,0.0059 0.013,0.0066 0.012,0.0073 0.012,0.0082 0.011,0.009 0.011,0.0099 0.009,0.0109 0.009,0.0118 0.004,0.0063 0.004,0.0066 0.003,0.0068 0.003,0.0072 0.004,0.0073 0.002,0.0077 0.003,0.008 0.002,0.0083 0.002,0.0085 0.002,0.0089 0.002,0.0092 0.001,0.0095 0.001,0.0098 10e-4,0.0101 0,0.0105 0,0.0108 c 0,0.2188 -0.203,0.2188 -0.39,0.2188 h -6.047 c -0.188,0 -0.391,0 -0.391,-0.2188 0,-0.2344 0.203,-0.2344 0.391,-0.2344 z"
   id="path45"
   inkscape:connector-curvature="0"
   style="fill:#000000;stroke-width:0" />
<path
   d="m 79.82,8.1055 0,0.0122 0,0.012 0,0.0116 0,0.0113 0,0.0109 0,0.0107 0,0.0103 0,0.01 0,0.0097 -10e-4,0.0094 0,0.0091 0,0.0088 -0.001,0.0168 -0.002,0.0156 -0.002,0.0146 -0.002,0.0135 -0.002,0.0126 -0.004,0.0115 -0.004,0.0107 -0.004,0.0097 -0.005,0.0089 -0.006,0.0081 -0.007,0.0073 -0.007,0.0066 -0.008,0.0058 -0.01,0.0052 -0.01,0.0046 -0.005,0.0021 -0.006,0.0019 -0.006,0.0018 -0.006,0.0016 -0.007,0.0015 -0.007,0.0014 -0.007,0.0013 -0.007,0.0011 -0.008,0.0011 -0.008,9e-4 -0.009,8e-4 -0.008,8e-4 -0.009,6e-4 -0.01,6e-4 -0.009,5e-4 -0.01,3e-4 -0.011,4e-4 -0.011,2e-4 -0.011,2e-4 -0.011,10e-5 -0.012,10e-5 -0.012,0 C 78.867,7.6836 77.883,7.6836 77.539,7.6836 V 7.3398 c 0.219,0 0.875,0 1.453,0.2813 V 1.8398 c 0,-0.3906 -0.031,-0.5312 -1.031,-0.5312 H 77.602 V 0.96484 c 0.39,0.03125 1.359,0.03125 1.796,0.03125 0.454,0 1.422,0 1.813,-0.03125 V 1.3086 h -0.359 c -1,0 -1.032,0.125 -1.032,0.5312 z"
   id="path47"
   inkscape:connector-curvature="0"
   style="fill:#000000;stroke-width:0" />
<path
   d="m 96.625,7.0117 0.053,10e-5 0.052,5e-4 0.051,0.0015 0.026,0.0012 0.025,0.0016 0.024,0.0021 0.024,0.0026 0.024,0.0031 0.023,0.0038 0.022,0.0045 0.022,0.0052 0.021,0.006 0.02,0.0069 0.019,0.0078 0.019,0.0087 0.017,0.0098 0.017,0.0109 0.015,0.012 0.015,0.0133 0.013,0.0145 0.012,0.0158 0.011,0.0171 0.005,0.0092 0.005,0.0094 0.004,0.0099 0.004,0.0102 0.004,0.0107 0.003,0.011 0.003,0.0114 0.002,0.0118 0.002,0.0123 0.002,0.0126 0.002,0.0131 10e-4,0.0135 0,0.014 0.001,0.0144 c 0,0.3281 -0.282,0.3281 -0.563,0.3281 h -8.594 c -0.265,0 -0.562,0 -0.562,-0.3281 0,-0.3125 0.297,-0.3125 0.562,-0.3125 z"
   id="path49"
   inkscape:connector-curvature="0"
   style="fill:#000000;stroke-width:0" />
<path
   d="m 109.1,6.0273 h -0.36 c -0.05,-0.2656 -0.17,-1.1406 -0.33,-1.4062 -0.11,-0.1406 -1.02,-0.1406 -1.5,-0.1406 h -2.94 c 0.42,0.375 1.41,1.3906 1.82,1.7656 2.42,2.2344 3.31,3.0469 3.31,4.6249 0,1.828 -1.46,3.047 -3.3,3.047 -1.84,0 -2.92,-1.562 -2.92,-2.937 0,-0.813 0.7,-0.813 0.75,-0.813 0.33,0 0.73,0.25 0.73,0.75 0,0.453 -0.29,0.75 -0.73,0.75 -0.16,0 -0.19,0 -0.24,-0.016 0.32,1.079 1.18,1.813 2.21,1.813 1.34,0 2.17,-1.125 2.17,-2.594 0,-1.3437 -0.78,-2.5312 -1.69,-3.5468 l -3.2,-3.5937 v -0.375 h 5.8 z"
   id="path51"
   inkscape:connector-curvature="0"
   style="fill:#000000;stroke-width:0" />
<path
   d="m 120,14.402 0,0.007 0,0.006 0,0.006 -0.01,0.006 0,0.006 0,0.005 0,0.006 0,0.005 0,0.005 0,0.004 0,0.005 0,0.005 -0.01,0.004 0,0.004 0,0.004 0,0.004 0,0.003 -0.01,0.004 0,0.003 0,0.003 0,0.003 -0.01,0.003 0,0.003 0,0.003 -0.01,0.005 0,0.004 -0.01,0.004 0,0.003 -0.01,0.004 0,0.002 -0.01,0.003 -0.01,0.002 0,0.001 -0.01,0.002 0,10e-4 -0.01,0.001 0,10e-4 -0.01,0 -0.01,0 0,10e-4 0,0 -0.01,0 0,0 0,0 c -0.07,0 -0.08,-0.016 -0.29,-0.25 -0.09,-0.109 -0.73,-0.937 -0.75,-0.953 -0.53,1.031 -1.57,1.203 -2.25,1.203 -2.01,0 -3.84,-1.844 -3.84,-3.641 0,-1.1872 0.72,-1.8903 1.5,-2.1559 0.17,-0.0625 1.11,-0.3281 1.58,-0.4375 0.81,-0.2188 1.03,-0.2813 1.36,-0.625 0.06,-0.0781 0.37,-0.4531 0.37,-1.2031 0,-1.4688 -1.36,-3 -2.95,-3 -1.3,0 -2.75,0.5625 -2.75,2.3437 0,0.2969 0.06,0.6719 0.11,0.8438 0,0.0468 0.01,0.125 0.01,0.1562 0,0.0625 -0.03,0.1406 -0.15,0.1406 -0.14,0 -0.16,-0.0312 -0.22,-0.2968 l -0.81,-3.2657 c 0,-0.0156 -0.07,-0.2187 -0.07,-0.2343 0,-0.1407 0.13,-0.1407 0.16,-0.1407 0.06,0 0.08,0.0157 0.27,0.25 l 0.73,0.9532 c 0.39,-0.5782 1.2,-1.2032 2.69,-1.2032 2.05,0 3.92,1.9844 3.92,3.9688 0,0.6719 -0.16,1.25 -0.77,1.8437 -0.32,0.3282 -0.6,0.4063 -2.07,0.7969 -1.07,0.2813 -1.21,0.3281 -1.49,0.5783 -0.28,0.281 -0.48,0.656 -0.48,1.203 0,1.328 1.36,2.703 2.86,2.703 1.56,0 2.29,-0.953 2.29,-2.469 0,-0.406 -0.07,-0.843 -0.07,-0.906 0,-0.14 0.12,-0.14 0.17,-0.14 0.14,0 0.15,0.046 0.22,0.296 z"
   id="path53"
   inkscape:connector-curvature="0"
   style="fill:#000000;stroke-width:0" />
<path
   d="m 120.48,1.6211 0,-0.0163 0,-0.0168 -0.01,-0.0171 0,-0.0174 -0.01,-0.0356 -0.01,-0.0362 -0.01,-0.0365 0,-0.0364 -0.01,-0.0359 -0.01,-0.035 -0.01,-0.0171 0,-0.0166 0,-0.0163 -0.01,-0.0158 0,-0.0152 -0.01,-0.0148 0,-0.0141 0,-0.0134 -0.01,-0.0127 0,-0.012 0,-0.0112 0,-0.0103 0,-0.0094 0,-0.0084 0,-0.0075 0,-0.0064 c 0,-0.18748 0.15,-0.29686 0.32,-0.29686 0.14,0 0.35,0.09375 0.42,0.31246 0,0.0313 0.15,0.5469 0.21,0.8282 l 0.25,1 c 0.06,0.25 0.12,0.5 0.19,0.75 0.04,0.1875 0.14,0.5156 0.14,0.5625 0.17,0.3437 0.76,1.3593 1.82,1.3593 0.5,0 0.6,-0.4218 0.6,-0.7812 0,-0.6875 -0.55,-2.125 -0.72,-2.5938 -0.11,-0.2656 -0.11,-0.3906 -0.11,-0.5156 0,-0.5312 0.39,-0.92186 0.91,-0.92186 1.04,0 1.47,1.62496 1.47,1.71876 0,0.1094 -0.11,0.1094 -0.15,0.1094 -0.11,0 -0.11,-0.0313 -0.17,-0.2032 -0.22,-0.75 -0.58,-1.375 -1.12,-1.375 -0.21,0 -0.28,0.1094 -0.28,0.3594 0,0.2813 0.11,0.5469 0.2,0.7969 0.22,0.5937 0.69,1.8125 0.69,2.4531 0,0.75 -0.49,1.2031 -1.28,1.2031 -1.02,0 -1.55,-0.7187 -1.75,-0.9843 -0.05,0.625 -0.5,0.9843 -1.02,0.9843 -0.52,0 -0.73,-0.4375 -0.84,-0.6406 -0.18,-0.375 -0.33,-1.0469 -0.33,-1.0781 0,-0.125 0.11,-0.125 0.12,-0.125 0.11,0 0.13,0.0156 0.19,0.2656 0.2,0.7969 0.42,1.3281 0.83,1.3281 0.22,0 0.34,-0.1406 0.34,-0.5156 0,-0.2344 -0.03,-0.3594 -0.19,-0.9375 z"
   id="path55"
   inkscape:connector-curvature="0"
   style="fill:#000000;stroke-width:0" />
<path
   d="m 136.58,7.0273 h 4.39 c 0.22,0 0.5,0 0.5,0.2813 0,0.3125 -0.26,0.3125 -0.5,0.3125 h -4.39 v 4.3749 c 0,0.235 0,0.516 -0.28,0.516 -0.31,0 -0.31,-0.266 -0.31,-0.516 V 7.6211 h -4.39 c -0.22,0 -0.5,0 -0.5,-0.2969 0,-0.2969 0.26,-0.2969 0.5,-0.2969 h 4.39 V 2.6367 c 0,-0.2187 0,-0.5 0.3,-0.5 0.29,0 0.29,0.2656 0.29,0.5 z"
   id="path57"
   inkscape:connector-curvature="0"
   style="fill:#000000;stroke-width:0" />
<path
   d="m 156.01,14.402 0,0.007 0,0.006 0,0.006 0,0.006 0,0.006 0,0.005 0,0.006 0,0.005 0,0.005 -0.01,0.004 0,0.005 0,0.005 0,0.004 0,0.004 0,0.004 -0.01,0.004 0,0.003 0,0.004 0,0.003 0,0.003 -0.01,0.003 0,0.003 0,0.003 0,0.003 -0.01,0.005 -0.01,0.004 0,0.004 -0.01,0.003 0,0.004 -0.01,0.002 0,0.003 -0.01,0.002 -0.01,0.001 0,0.002 -0.01,10e-4 0,0.001 -0.01,10e-4 0,0 -0.01,0 0,10e-4 -0.01,0 0,0 -0.01,0 0,0 c -0.06,0 -0.08,-0.016 -0.28,-0.25 -0.09,-0.109 -0.74,-0.937 -0.75,-0.953 -0.53,1.031 -1.58,1.203 -2.25,1.203 -2.02,0 -3.84,-1.844 -3.84,-3.641 0,-1.1872 0.71,-1.8903 1.5,-2.1559 0.17,-0.0625 1.1,-0.3281 1.57,-0.4375 0.82,-0.2188 1.03,-0.2813 1.36,-0.625 0.07,-0.0781 0.38,-0.4531 0.38,-1.2031 0,-1.4688 -1.36,-3 -2.96,-3 -1.29,0 -2.75,0.5625 -2.75,2.3437 0,0.2969 0.07,0.6719 0.11,0.8438 0,0.0468 0.02,0.125 0.02,0.1562 0,0.0625 -0.03,0.1406 -0.16,0.1406 -0.14,0 -0.15,-0.0312 -0.22,-0.2968 l -0.81,-3.2657 c 0,-0.0156 -0.06,-0.2187 -0.06,-0.2343 0,-0.1407 0.12,-0.1407 0.16,-0.1407 0.06,0 0.07,0.0157 0.26,0.25 l 0.74,0.9532 c 0.39,-0.5782 1.2,-1.2032 2.68,-1.2032 2.05,0 3.93,1.9844 3.93,3.9688 0,0.6719 -0.16,1.25 -0.77,1.8437 -0.33,0.3282 -0.61,0.4063 -2.08,0.7969 -1.06,0.2813 -1.2,0.3281 -1.48,0.5783 -0.28,0.281 -0.49,0.656 -0.49,1.203 0,1.328 1.36,2.703 2.86,2.703 1.56,0 2.3,-0.953 2.3,-2.469 0,-0.406 -0.08,-0.843 -0.08,-0.906 0,-0.14 0.13,-0.14 0.17,-0.14 0.14,0 0.16,0.046 0.22,0.296 z"
   id="path59"
   inkscape:connector-curvature="0"
   style="fill:#000000;stroke-width:0" />
<path
   d="m 156.5,1.6211 0,-0.0163 0,-0.0168 -0.01,-0.0171 0,-0.0174 -0.01,-0.0356 -0.01,-0.0362 -0.01,-0.0365 0,-0.0364 -0.01,-0.0359 -0.01,-0.035 -0.01,-0.0171 0,-0.0166 0,-0.0163 -0.01,-0.0158 0,-0.0152 -0.01,-0.0148 0,-0.0141 0,-0.0134 -0.01,-0.0127 0,-0.012 0,-0.0112 0,-0.0103 0,-0.0094 0,-0.0084 0,-0.0075 0,-0.0064 c 0,-0.18748 0.15,-0.29686 0.32,-0.29686 0.14,0 0.35,0.09375 0.43,0.31246 0,0.0313 0.14,0.5469 0.2,0.8282 l 0.25,1 c 0.06,0.25 0.12,0.5 0.19,0.75 0.04,0.1875 0.14,0.5156 0.14,0.5625 0.17,0.3437 0.76,1.3593 1.82,1.3593 0.5,0 0.6,-0.4218 0.6,-0.7812 0,-0.6875 -0.55,-2.125 -0.72,-2.5938 -0.11,-0.2656 -0.11,-0.3906 -0.11,-0.5156 0,-0.5312 0.39,-0.92186 0.91,-0.92186 1.04,0 1.47,1.62496 1.47,1.71876 0,0.1094 -0.11,0.1094 -0.15,0.1094 -0.1,0 -0.1,-0.0313 -0.17,-0.2032 -0.22,-0.75 -0.58,-1.375 -1.12,-1.375 -0.21,0 -0.28,0.1094 -0.28,0.3594 0,0.2813 0.11,0.5469 0.2,0.7969 0.22,0.5937 0.69,1.8125 0.69,2.4531 0,0.75 -0.49,1.2031 -1.28,1.2031 -1.02,0 -1.55,-0.7187 -1.75,-0.9843 -0.05,0.625 -0.5,0.9843 -1.02,0.9843 -0.52,0 -0.73,-0.4375 -0.84,-0.6406 -0.18,-0.375 -0.33,-1.0469 -0.33,-1.0781 0,-0.125 0.11,-0.125 0.12,-0.125 0.11,0 0.13,0.0156 0.19,0.2656 0.2,0.7969 0.42,1.3281 0.83,1.3281 0.22,0 0.34,-0.1406 0.34,-0.5156 0,-0.2344 -0.03,-0.3594 -0.18,-0.9375 z"
   id="path61"
   inkscape:connector-curvature="0"
   style="fill:#000000;stroke-width:0" />
<path
   d="m 166.78,3.5273 h 3.11 c 0.16,0 0.38,0 0.38,0.2344 0,0.2188 -0.22,0.2188 -0.38,0.2188 h -3.11 v 3.125 c 0,0.1562 0,0.3593 -0.22,0.3593 -0.23,0 -0.23,-0.2031 -0.23,-0.3593 v -3.125 h -3.11 c -0.16,0 -0.38,0 -0.38,-0.2188 0,-0.2344 0.22,-0.2344 0.38,-0.2344 h 3.11 V 0.40234 c 0,-0.15625 0,-0.359371 0.23,-0.359371 0.22,0 0.22,0.203121 0.22,0.359371 z"
   id="path63"
   inkscape:connector-curvature="0"
   style="fill:#000000;stroke-width:0" />
<path
   d="m 174.18,8.1055 0,0.0122 0,0.012 0,0.0116 0,0.0113 0,0.0109 0,0.0107 0,0.0103 0,0.01 0,0.0097 -0.01,0.0094 0,0.0091 0,0.0088 0,0.0168 0,0.0156 0,0.0146 0,0.0135 0,0.0126 -0.01,0.0115 0,0.0107 -0.01,0.0097 0,0.0089 -0.01,0.0081 0,0.0073 -0.01,0.0066 -0.01,0.0058 -0.01,0.0052 -0.01,0.0046 0,0.0021 -0.01,0.0019 -0.01,0.0018 0,0.0016 -0.01,0.0015 -0.01,0.0014 0,0.0013 -0.01,0.0011 -0.01,0.0011 -0.01,9e-4 -0.01,8e-4 0,8e-4 -0.01,6e-4 -0.01,6e-4 -0.01,5e-4 -0.01,3e-4 -0.01,4e-4 -0.01,2e-4 -0.01,2e-4 -0.02,10e-5 -0.01,10e-5 -0.01,0 C 173.22,7.6836 172.24,7.6836 171.9,7.6836 V 7.3398 c 0.21,0 0.87,0 1.45,0.2813 V 1.8398 c 0,-0.3906 -0.03,-0.5312 -1.03,-0.5312 h -0.36 V 0.96484 c 0.39,0.03125 1.36,0.03125 1.79,0.03125 0.46,0 1.43,0 1.82,-0.03125 V 1.3086 h -0.36 c -1,0 -1.03,0.125 -1.03,0.5312 z"
   id="path65"
   inkscape:connector-curvature="0"
   style="fill:#000000;stroke-width:0" />
</g></svg>
