<?xml version="1.0" encoding="UTF-8" standalone="no"?>
<svg
   xmlns:dc="http://purl.org/dc/elements/1.1/"
   xmlns:cc="http://creativecommons.org/ns#"
   xmlns:rdf="http://www.w3.org/1999/02/22-rdf-syntax-ns#"
   xmlns:svg="http://www.w3.org/2000/svg"
   xmlns="http://www.w3.org/2000/svg"
   xmlns:sodipodi="http://sodipodi.sourceforge.net/DTD/sodipodi-0.dtd"
   xmlns:inkscape="http://www.inkscape.org/namespaces/inkscape"
   version="1.1"
   id="body"
   width="168.6356"
   height="87.240082"
   viewBox="0 0 0.23421612 0.12116678"
   preserveAspectRatio="none"
   inkscape:version="0.48.3.1 r9886"
   sodipodi:docname="ch3-Z-G-57.svg">
  <metadata
     id="metadata83">
    <rdf:RDF>
      <cc:Work
         rdf:about="">
        <dc:format>image/svg+xml</dc:format>
        <dc:type
           rdf:resource="http://purl.org/dc/dcmitype/StillImage" />
      </cc:Work>
    </rdf:RDF>
  </metadata>
  <defs
     id="defs81" />
  <sodipodi:namedview
     pagecolor="#ffffff"
     bordercolor="#666666"
     borderopacity="1"
     objecttolerance="10"
     gridtolerance="10"
     guidetolerance="10"
     inkscape:pageopacity="0"
     inkscape:pageshadow="2"
     inkscape:window-width="640"
     inkscape:window-height="480"
     id="namedview79"
     showgrid="false"
     inkscape:zoom="0.32777778"
     inkscape:cx="381.60157"
     inkscape:cy="459.52463"
     inkscape:window-x="0"
     inkscape:window-y="24"
     inkscape:window-maximized="0"
     inkscape:current-layer="body" />
  <title
     id="title3">SVG drawing</title>
  <desc
     id="desc5">This was produced by version 4.4 of GNU libplot, a free library for exporting 2-D vector graphics.</desc>
  <g
     id="content"
     transform="matrix(0.0017361,0,0,-0.0017361,-0.00124782,0.12170931)"
     xml:space="preserve"
     stroke-miterlimit="10.433"
     font-style="normal"
     font-variant="normal"
     font-weight="normal"
     font-stretch="normal"
     font-size-adjust="none"
     letter-spacing="normal"
     word-spacing="normal"
     style="font-style:normal;font-variant:normal;font-weight:normal;font-stretch:normal;letter-spacing:normal;word-spacing:normal;text-anchor:start;fill:none;stroke:#000000;stroke-linecap:butt;stroke-linejoin:miter;stroke-miterlimit:10.43299961;stroke-opacity:1;stroke-dasharray:none;stroke-dashoffset:0">
<path
   d="m 8.707,69.664 0.0015,0.006 0.0016,0.006 0.0017,0.006 0.0017,0.007 0.0037,0.013 0.0037,0.014 0.0039,0.014 0.0039,0.015 0.0039,0.015 0.0037,0.015 0.0036,0.016 0.0033,0.015 0.003,0.016 0.0026,0.016 0.0021,0.015 0.0016,0.015 6e-4,0.008 5e-4,0.008 2e-4,0.007 10e-5,0.007 c 0,0.157 -0.1562,0.157 -0.1875,0.157 -0.0312,0 -0.7969,-0.063 -0.875,-0.078 C 7.4102,69.961 7.1758,69.93 6.8945,69.914 6.4883,69.883 6.3789,69.867 6.3789,69.57 c 0,-0.156 0.125,-0.156 0.3594,-0.156 0.7656,0 0.7812,-0.141 0.7812,-0.297 0,-0.094 -0.0312,-0.219 -0.0468,-0.265 L 6.5039,64.977 c -0.1719,0.421 -0.5937,1.062 -1.4219,1.062 -1.7968,0 -3.7343,-2.328 -3.7343,-4.672 0,-1.578 0.9218,-2.5 2,-2.5 l 0.0468,0.313 c -0.6562,0 -1.0156,0.593 -1.0156,1.531 0,0.875 0.4844,2.656 0.7969,3.312 0.5312,1.125 1.2812,1.688 1.9062,1.688 1.0469,0 1.25,-1.297 1.25,-1.422 0,-0.016 -0.0468,-0.234 -0.0625,-0.266 L 5.4883,60.914 C 5.4102,60.648 5.4102,60.617 5.1914,60.305 4.832,59.867 4.1445,59.18 3.3945,59.18 L 3.3477,58.867 c 0.875,0 1.625,0.688 2.0625,1.203 0.1562,-0.937 0.9062,-1.203 1.3906,-1.203 0.4687,0 0.8594,0.281 1.1406,0.86 0.25,0.531 0.4688,1.5 0.4688,1.562 0,0.094 -0.0625,0.156 -0.1563,0.156 -0.1406,0 -0.1562,-0.078 -0.2187,-0.328 C 7.8008,60.18 7.4883,59.18 6.8477,59.18 c -0.4688,0 -0.5,0.422 -0.5,0.734 0,0.063 0,0.391 0.1093,0.844 z"
   id="path9"
   inkscape:connector-curvature="0"
   style="fill:#000000;stroke-width:0" />
<path
   d="m 14.238,59.945 0.01,-0.041 0.011,-0.04 0.024,-0.078 0.026,-0.073 0.03,-0.07 0.032,-0.066 0.035,-0.062 0.036,-0.059 0.039,-0.055 0.041,-0.052 0.042,-0.048 0.044,-0.046 0.046,-0.042 0.046,-0.04 0.048,-0.036 0.049,-0.034 0.049,-0.031 0.049,-0.028 0.05,-0.026 0.05,-0.023 0.051,-0.022 0.05,-0.018 0.049,-0.017 0.049,-0.015 0.048,-0.013 0.048,-0.01 0.046,-0.01 0.045,-0.007 0.044,-0.006 0.042,-0.004 0.04,-0.003 0.039,-0.002 0.036,-0.001 c 0.516,0 0.891,0.328 1.156,0.875 0.266,0.563 0.469,1.5 0.469,1.547 0,0.094 -0.062,0.156 -0.156,0.156 -0.141,0 -0.156,-0.078 -0.219,-0.328 -0.297,-1.094 -0.578,-1.937 -1.219,-1.937 -0.469,0 -0.469,0.531 -0.469,0.734 0,0.359 0.047,0.531 0.204,1.188 0.109,0.437 0.218,0.859 0.312,1.312 l 0.656,2.578 c 0.11,0.406 0.11,0.438 0.11,0.485 0,0.234 -0.188,0.39 -0.422,0.39 -0.469,0 -0.578,-0.39 -0.672,-0.781 -0.156,-0.625 -1.016,-4.047 -1.125,-4.594 -0.016,0 -0.641,-1.312 -1.797,-1.312 -0.828,0 -0.984,0.718 -0.984,1.312 0,0.906 0.437,2.172 0.859,3.235 0.188,0.515 0.266,0.718 0.266,1.031 0,0.687 -0.485,1.281 -1.25,1.281 -1.469,0 -2.0627,-2.312 -2.0627,-2.437 0,-0.063 0.0781,-0.141 0.1875,-0.141 0.1406,0 0.1562,0.062 0.2187,0.281 0.3745,1.375 0.9995,1.969 1.6095,1.969 0.156,0 0.406,-0.016 0.406,-0.516 0,-0.422 -0.172,-0.875 -0.406,-1.484 -0.703,-1.891 -0.781,-2.5 -0.781,-2.969 0,-1.625 1.218,-1.875 1.875,-1.875 1.015,0 1.578,0.703 1.89,1.078 z"
   id="path11"
   inkscape:connector-curvature="0"
   style="fill:#000000;stroke-width:0" />
<path
   d="m 26.188,64.383 -10e-4,0.003 0,0.003 0,0.004 -0.001,0.003 -0.001,0.004 -10e-4,0.005 -0.001,0.004 -0.002,0.004 -0.002,0.005 -0.002,0.004 -0.002,0.005 -0.002,0.004 -0.003,0.005 -0.003,0.004 -0.003,0.005 -0.004,0.004 -0.004,0.005 -0.004,0.004 -0.004,0.004 -0.005,0.004 -0.005,0.004 -0.005,0.003 -0.006,0.003 -0.005,0.004 -0.007,0.002 -0.006,0.003 -0.007,0.002 -0.004,0.001 -0.003,0.001 -0.004,10e-4 -0.004,0 -0.004,0.001 -0.004,0 -0.004,0.001 -0.004,0 -0.004,0 -0.005,0 c -0.031,0 -0.046,0 -0.171,-0.125 l -0.782,-0.859 c -0.093,0.156 -0.609,0.984 -1.843,0.984 -2.5,0 -5,-2.453 -5,-5.047 0,-1.843 1.312,-3.062 3.015,-3.062 0.969,0 1.828,0.453 2.407,0.969 1.046,0.906 1.234,1.921 1.234,1.953 0,0.125 -0.11,0.125 -0.141,0.125 -0.062,0 -0.109,-0.032 -0.14,-0.125 -0.094,-0.313 -0.36,-1.11 -1.125,-1.75 -0.766,-0.625 -1.469,-0.828 -2.047,-0.828 -1.016,0 -2.188,0.593 -2.188,2.328 0,0.64 0.235,2.437 1.344,3.75 0.687,0.797 1.734,1.343 2.719,1.343 1.14,0 1.797,-0.859 1.797,-2.156 0,-0.437 -0.032,-0.453 -0.032,-0.562 0,-0.11 0.125,-0.11 0.172,-0.11 0.141,0 0.141,0.016 0.203,0.219 z"
   id="path13"
   inkscape:connector-curvature="0"
   style="fill:#000000;stroke-width:0" />
<line
   x1="0.70703"
   y1="52.227001"
   x2="26.973"
   y2="52.227001"
   id="line15"
   style="stroke-width:0.63800001" />
<path
   d="m 14.969,47.945 0.001,0.006 0.002,0.006 0.002,0.007 10e-4,0.006 0.004,0.013 0.004,0.014 0.004,0.015 0.003,0.014 0.004,0.015 0.004,0.016 0.004,0.015 0.003,0.016 0.003,0.015 0.002,0.016 0.003,0.015 10e-4,0.016 0.001,0.007 0,0.008 10e-4,0.007 0,0.008 c 0,0.156 -0.157,0.156 -0.188,0.156 -0.031,0 -0.797,-0.063 -0.875,-0.078 -0.281,-0.016 -0.515,-0.047 -0.797,-0.063 -0.406,-0.031 -0.515,-0.047 -0.515,-0.343 0,-0.157 0.125,-0.157 0.359,-0.157 0.766,0 0.781,-0.14 0.781,-0.297 0,-0.093 -0.031,-0.218 -0.047,-0.265 l -0.968,-3.875 c -0.172,0.422 -0.594,1.062 -1.422,1.062 -1.7971,0 -3.7346,-2.328 -3.7346,-4.672 0,-1.578 0.9218,-2.5 2,-2.5 l 0.0468,0.313 c -0.6562,0 -1.0156,0.594 -1.0156,1.531 0,0.875 0.4844,2.656 0.7969,3.313 0.5313,1.125 1.2815,1.687 1.9065,1.687 1.047,0 1.25,-1.297 1.25,-1.422 0,-0.015 -0.047,-0.234 -0.063,-0.265 L 11.75,39.195 C 11.672,38.93 11.672,38.898 11.453,38.586 11.094,38.148 10.406,37.461 9.6562,37.461 L 9.6094,37.148 c 0.8746,0 1.6246,0.688 2.0626,1.204 0.156,-0.938 0.906,-1.204 1.39,-1.204 0.469,0 0.86,0.282 1.141,0.86 0.25,0.531 0.469,1.5 0.469,1.562 0,0.094 -0.063,0.157 -0.156,0.157 -0.141,0 -0.157,-0.079 -0.219,-0.329 -0.235,-0.937 -0.547,-1.937 -1.188,-1.937 -0.468,0 -0.5,0.422 -0.5,0.734 0,0.063 0,0.391 0.11,0.844 z"
   id="path17"
   inkscape:connector-curvature="0"
   style="fill:#000000;stroke-width:0" />
<path
   d="m 18.262,43.695 h 1.468 c 0.297,0 0.469,0 0.469,0.282 0,0.171 -0.109,0.171 -0.422,0.171 h -1.39 l 0.578,2.329 c 0.062,0.218 0.062,0.25 0.062,0.359 0,0.266 -0.203,0.406 -0.406,0.406 -0.125,0 -0.5,-0.047 -0.625,-0.562 l -0.625,-2.532 h -1.484 c -0.313,0 -0.469,0 -0.469,-0.296 0,-0.157 0.109,-0.157 0.422,-0.157 h 1.406 l -1.047,-4.203 c -0.125,-0.547 -0.172,-0.703 -0.172,-0.922 0,-0.734 0.532,-1.422 1.422,-1.422 1.594,0 2.453,2.313 2.453,2.422 0,0.11 -0.062,0.157 -0.156,0.157 -0.031,0 -0.094,0 -0.125,-0.063 -0.016,-0.016 -0.031,-0.031 -0.141,-0.297 -0.343,-0.797 -1.062,-1.906 -1.984,-1.906 -0.484,0 -0.516,0.406 -0.516,0.75 0,0.016 0,0.312 0.047,0.516 z"
   id="path19"
   inkscape:connector-curvature="0"
   style="fill:#000000;stroke-width:0" />
<path
   d="m 47.758,53.395 0.041,0 0.043,0 0.043,10e-4 0.022,10e-4 0.021,0.002 0.022,0.002 0.021,0.002 0.021,0.003 0.02,0.003 0.02,0.004 0.02,0.005 0.019,0.005 0.019,0.007 0.018,0.007 0.017,0.008 0.017,0.008 0.015,0.01 0.015,0.011 0.014,0.012 0.013,0.013 0.011,0.014 0.006,0.008 0.005,0.008 0.005,0.008 0.004,0.008 0.005,0.009 0.004,0.009 0.003,0.01 0.003,0.01 0.003,0.01 0.003,0.011 0.002,0.011 0.002,0.011 10e-4,0.012 10e-4,0.012 0.001,0.013 0,0.013 c 0,0.297 -0.266,0.297 -0.5,0.297 h -9.375 c -0.219,0 -0.5,0 -0.5,-0.282 0,-0.296 0.265,-0.296 0.5,-0.296 z"
   id="path21"
   inkscape:connector-curvature="0"
   style="fill:#000000;stroke-width:0" />
<path
   d="m 47.758,50.426 0.041,0 0.043,0 0.043,0.002 0.022,0.001 0.021,10e-4 0.022,0.002 0.021,0.003 0.021,0.003 0.02,0.003 0.02,0.005 0.02,0.005 0.019,0.005 0.019,0.007 0.018,0.007 0.017,0.009 0.017,0.009 0.015,0.01 0.015,0.012 0.014,0.012 0.013,0.014 0.011,0.015 0.006,0.008 0.005,0.008 0.005,0.009 0.004,0.009 0.005,0.009 0.004,0.01 0.003,0.01 0.003,0.011 0.003,0.011 0.003,0.011 0.002,0.011 0.002,0.012 10e-4,0.013 10e-4,0.013 0.001,0.013 0,0.014 c 0,0.297 -0.266,0.297 -0.5,0.297 h -9.375 c -0.219,0 -0.5,0 -0.5,-0.282 0,-0.312 0.265,-0.312 0.5,-0.312 z"
   id="path23"
   inkscape:connector-curvature="0"
   style="fill:#000000;stroke-width:0" />
<path
   d="m 68.488,51.895 0.053,0 0.052,0 0.052,0.002 0.025,0.001 0.025,10e-4 0.024,0.002 0.024,0.003 0.024,0.003 0.023,0.004 0.022,0.004 0.022,0.006 0.021,0.006 0.02,0.007 0.019,0.007 0.019,0.009 0.017,0.01 0.017,0.011 0.016,0.012 0.014,0.013 0.013,0.015 0.012,0.015 0.011,0.018 0.005,0.009 0.005,0.009 0.004,0.01 0.004,0.01 0.004,0.011 0.003,0.011 0.003,0.011 0.003,0.012 0.002,0.012 0.002,0.013 0.001,0.013 10e-4,0.014 0.001,0.014 0,0.014 c 0,0.328 -0.281,0.328 -0.563,0.328 h -8.593 c -0.266,0 -0.563,0 -0.563,-0.328 0,-0.312 0.297,-0.312 0.563,-0.312 z"
   id="path25"
   inkscape:connector-curvature="0"
   style="fill:#000000;stroke-width:0" />
<path
   d="m 76.113,61.289 0,0.009 0,0.008 -0.001,0.009 -0.002,0.008 -0.001,0.008 -0.002,0.007 -0.002,0.008 -0.003,0.007 -0.003,0.007 -0.003,0.007 -0.004,0.006 -0.003,0.007 -0.005,0.006 -0.004,0.006 -0.005,0.005 -0.005,0.005 -0.005,0.005 -0.005,0.005 -0.006,0.004 -0.006,0.005 -0.007,0.003 -0.006,0.004 -0.007,0.003 -0.007,0.003 -0.007,0.003 -0.008,0.002 -0.007,0.002 -0.008,10e-4 -0.008,0.002 -0.009,10e-4 -0.008,0 -0.009,0 c -0.141,0 -0.156,-0.047 -0.25,-0.328 -0.406,-1.437 -1.062,-1.937 -1.578,-1.937 -0.188,0 -0.422,0.047 -0.422,0.531 0,0.422 0.188,0.906 0.375,1.375 l 1.109,2.953 c 0.047,0.141 0.157,0.422 0.157,0.719 0,0.672 -0.469,1.281 -1.25,1.281 -1.469,0 -2.063,-2.312 -2.063,-2.437 0,-0.063 0.078,-0.141 0.188,-0.141 0.14,0 0.156,0.062 0.218,0.281 0.375,1.344 0.985,1.969 1.61,1.969 0.14,0 0.406,-0.016 0.406,-0.516 0,-0.422 -0.203,-0.937 -0.328,-1.297 L 73.02,60.945 c -0.11,-0.25 -0.204,-0.5 -0.204,-0.797 0,-0.718 0.5,-1.281 1.266,-1.281 1.453,0 2.031,2.313 2.031,2.422 z"
   id="path27"
   inkscape:connector-curvature="0"
   style="fill:#000000;stroke-width:0" />
<path
   d="m 75.988,68.945 0,0.022 -0.002,0.023 -0.003,0.022 -0.003,0.023 -0.005,0.022 -0.006,0.023 -0.007,0.022 -0.009,0.023 -0.009,0.022 -0.01,0.022 -0.012,0.021 -0.012,0.021 -0.013,0.021 -0.015,0.02 -0.016,0.02 -0.016,0.019 -0.018,0.018 -0.019,0.018 -0.02,0.017 -0.021,0.016 -0.022,0.015 -0.023,0.014 -0.023,0.012 -0.026,0.012 -0.026,0.011 -0.027,0.009 -0.028,0.009 -0.029,0.006 -0.03,0.006 -0.031,0.004 -0.032,0.002 -0.034,0.001 c -0.359,0 -0.781,-0.344 -0.781,-0.766 0,-0.39 0.344,-0.515 0.531,-0.515 0.422,0 0.797,0.406 0.797,0.765 z"
   id="path29"
   inkscape:connector-curvature="0"
   style="fill:#000000;stroke-width:0" />
<path
   d="m 81.109,63.383 0.009,0.037 0.009,0.036 0.008,0.034 0.009,0.032 0.01,0.031 0.01,0.03 0.011,0.028 0.012,0.026 0.014,0.025 0.014,0.024 0.017,0.022 0.018,0.021 0.021,0.02 0.022,0.019 0.025,0.017 0.028,0.016 0.03,0.015 0.033,0.013 0.037,0.013 0.04,0.011 0.043,0.01 0.023,0.005 0.024,0.005 0.026,0.004 0.026,0.004 0.027,0.004 0.028,0.003 0.029,0.003 0.03,0.004 0.032,0.002 0.033,0.003 0.033,0.002 0.035,0.002 0.037,0.002 0.037,0.002 0.039,10e-4 0.04,0.002 0.041,10e-4 0.043,10e-4 0.044,0 0.046,0.001 0.047,0 0.048,0 c 0.328,0 0.422,0 0.422,0.203 0,0.141 -0.125,0.141 -0.188,0.141 -0.359,0 -1.281,-0.031 -1.64,-0.031 -0.344,0 -1.157,0.031 -1.485,0.031 -0.078,0 -0.218,0 -0.218,-0.235 0,-0.109 0.109,-0.109 0.312,-0.109 0.031,0 0.234,0 0.422,-0.031 0.203,-0.016 0.312,-0.031 0.312,-0.172 0,-0.047 -0.015,-0.078 -0.046,-0.219 l -1.5,-5.984 c -0.11,-0.438 -0.126,-0.531 -1.016,-0.531 -0.188,0 -0.297,0 -0.297,-0.219 0,-0.125 0.094,-0.125 0.297,-0.125 h 5.172 c 0.265,0 0.281,0 0.344,0.187 l 0.874,2.407 c 0.047,0.125 0.047,0.156 0.047,0.156 0,0.047 -0.031,0.125 -0.125,0.125 -0.109,0 -0.125,-0.047 -0.203,-0.235 -0.375,-1.015 -0.859,-2.296 -2.797,-2.296 h -1.046 c -0.157,0 -0.172,0 -0.25,0.015 -0.11,0.016 -0.141,0.016 -0.141,0.11 0,0.031 0,0.062 0.062,0.25 z"
   id="path31"
   inkscape:connector-curvature="0"
   style="fill:#000000;stroke-width:0" />
<line
   x1="71.612999"
   y1="52.227001"
   x2="85.030998"
   y2="52.227001"
   id="line33"
   style="stroke-width:0.63800001" />
<path
   d="m 84.039,48.352 0,0.006 0,0.006 -0.001,0.006 0,0.006 -10e-4,0.006 -0.001,0.006 -0.001,0.005 -10e-4,0.005 -0.001,0.005 -0.001,0.005 -0.002,0.004 -0.001,0.005 -0.002,0.004 -0.002,0.004 -0.002,0.004 -10e-4,0.004 -0.003,0.004 -0.002,0.003 -0.002,0.003 -0.002,0.004 -0.003,0.003 -0.002,0.002 -0.003,0.003 -0.002,0.003 -0.005,0.005 -0.006,0.004 -0.006,0.004 -0.006,0.004 -0.005,0.003 -0.006,0.002 -0.006,0.003 -0.006,0.002 -0.006,10e-4 -0.006,0.002 -0.006,10e-4 -0.005,0.001 -0.006,10e-4 -0.005,0 -0.005,10e-4 -0.005,0 -0.004,0 -0.004,0 -0.003,0 -0.004,0 c -0.031,0 -0.093,0 -0.234,-0.156 L 82.57,46.992 c -0.547,0.969 -1.422,1.5 -2.625,1.5 -3.422,0 -6.984,-3.484 -6.984,-7.219 0,-2.656 1.859,-4.296 4.172,-4.296 1.281,0 2.39,0.531 3.312,1.312 1.375,1.156 1.797,2.703 1.797,2.828 0,0.141 -0.125,0.141 -0.172,0.141 -0.14,0 -0.156,-0.094 -0.187,-0.156 -0.735,-2.485 -2.891,-3.672 -4.469,-3.672 -1.687,0 -3.156,1.078 -3.156,3.343 0,0.5 0.156,3.266 1.953,5.36 0.875,1.015 2.375,1.906 3.891,1.906 1.734,0 2.515,-1.453 2.515,-3.078 0,-0.406 -0.047,-0.766 -0.047,-0.828 0,-0.141 0.157,-0.141 0.203,-0.141 0.188,0 0.204,0.016 0.266,0.313 z"
   id="path35"
   inkscape:connector-curvature="0"
   style="fill:#000000;stroke-width:0" />
<path
   d="m 13.445,32.891 0.002,0.006 0.001,0.006 0.002,0.006 0.002,0.006 0.003,0.014 0.004,0.014 0.004,0.014 0.004,0.015 0.004,0.015 0.004,0.015 0.003,0.015 0.003,0.016 0.003,0.016 0.003,0.015 0.002,0.016 0.002,0.015 0,0.008 0.001,0.007 0,0.008 0,0.007 c 0,0.156 -0.156,0.156 -0.187,0.156 -0.032,0 -0.797,-0.062 -0.875,-0.078 -0.282,-0.015 -0.516,-0.047 -0.797,-0.062 -0.406,-0.032 -0.516,-0.047 -0.516,-0.344 0,-0.156 0.125,-0.156 0.36,-0.156 0.765,0 0.781,-0.141 0.781,-0.297 0,-0.094 -0.031,-0.219 -0.047,-0.266 l -0.969,-3.875 c -0.172,0.422 -0.594,1.063 -1.4217,1.063 -1.7969,0 -3.7344,-2.328 -3.7344,-4.672 0,-1.578 0.9219,-2.5 2,-2.5 l 0.0469,0.312 c -0.6562,0 -1.0156,0.594 -1.0156,1.532 0,0.874 0.4844,2.656 0.7969,3.312 0.5312,1.125 1.2812,1.688 1.9062,1.688 1.0467,0 1.2497,-1.297 1.2497,-1.422 0,-0.016 -0.047,-0.235 -0.062,-0.266 L 10.227,24.141 C 10.148,23.875 10.148,23.844 9.9297,23.531 9.5703,23.094 8.8828,22.406 8.1328,22.406 L 8.0859,22.094 c 0.875,0 1.625,0.687 2.0621,1.203 0.157,-0.938 0.907,-1.203 1.391,-1.203 0.469,0 0.859,0.281 1.141,0.859 0.25,0.531 0.468,1.5 0.468,1.563 0,0.093 -0.062,0.156 -0.156,0.156 -0.14,0 -0.156,-0.078 -0.219,-0.328 -0.234,-0.938 -0.546,-1.938 -1.187,-1.938 -0.469,0 -0.5,0.422 -0.5,0.735 0,0.062 0,0.39 0.109,0.843 z"
   id="path37"
   inkscape:connector-curvature="0"
   style="fill:#000000;stroke-width:0" />
<path
   d="m 18.055,24.516 0,0.008 -0.001,0.009 -10e-4,0.008 -0.001,0.008 -0.002,0.008 -0.002,0.008 -0.002,0.007 -0.003,0.008 -0.002,0.007 -0.004,0.006 -0.003,0.007 -0.004,0.006 -0.004,0.006 -0.005,0.006 -0.004,0.006 -0.005,0.005 -0.006,0.005 -0.005,0.005 -0.006,0.004 -0.006,0.004 -0.006,0.004 -0.007,0.004 -0.007,0.003 -0.007,0.003 -0.007,0.002 -0.007,0.003 -0.008,0.001 -0.008,0.002 -0.008,0.001 -0.008,10e-4 -0.009,0.001 -0.009,0 c -0.14,0 -0.156,-0.047 -0.25,-0.328 -0.406,-1.438 -1.062,-1.938 -1.578,-1.938 -0.187,0 -0.422,0.047 -0.422,0.532 0,0.421 0.188,0.906 0.375,1.374 l 1.11,2.954 c 0.047,0.14 0.156,0.422 0.156,0.718 0,0.672 -0.469,1.282 -1.25,1.282 -1.469,0 -2.062,-2.313 -2.062,-2.438 0,-0.062 0.078,-0.14 0.187,-0.14 0.141,0 0.156,0.062 0.219,0.281 0.375,1.343 0.984,1.969 1.609,1.969 0.141,0 0.406,-0.016 0.406,-0.516 0,-0.422 -0.203,-0.938 -0.328,-1.297 l -1.109,-2.953 c -0.109,-0.25 -0.203,-0.5 -0.203,-0.797 0,-0.719 0.5,-1.281 1.265,-1.281 1.454,0 2.032,2.312 2.032,2.422 z"
   id="path39"
   inkscape:connector-curvature="0"
   style="fill:#000000;stroke-width:0" />
<path
   d="m 17.93,32.172 -0.001,0.022 -10e-4,0.022 -0.003,0.023 -0.004,0.022 -0.005,0.023 -0.006,0.022 -0.007,0.023 -0.008,0.022 -0.009,0.022 -0.011,0.022 -0.011,0.022 -0.013,0.021 -0.013,0.021 -0.015,0.02 -0.015,0.02 -0.017,0.019 -0.018,0.018 -0.019,0.017 -0.019,0.017 -0.021,0.016 -0.022,0.015 -0.023,0.014 -0.024,0.013 -0.025,0.012 -0.026,0.011 -0.027,0.009 -0.028,0.008 -0.03,0.007 -0.03,0.005 -0.031,0.004 -0.032,0.003 -0.033,0.001 c -0.36,0 -0.781,-0.344 -0.781,-0.766 0,-0.391 0.343,-0.516 0.531,-0.516 0.422,0 0.797,0.406 0.797,0.766 z"
   id="path41"
   inkscape:connector-curvature="0"
   style="fill:#000000;stroke-width:0" />
<path
   d="m 23.055,26.609 0.008,0.038 0.009,0.035 0.009,0.034 0.009,0.033 0.009,0.031 0.01,0.029 0.011,0.028 0.013,0.027 0.013,0.025 0.015,0.024 0.016,0.022 0.019,0.021 0.02,0.02 0.022,0.018 0.025,0.017 0.028,0.016 0.03,0.015 0.034,0.014 0.036,0.012 0.04,0.012 0.044,0.01 0.023,0.005 0.024,0.004 0.025,0.004 0.026,0.004 0.027,0.004 0.028,0.004 0.029,0.003 0.031,0.003 0.031,0.003 0.033,0.002 0.034,0.003 0.035,0.002 0.036,0.002 0.037,0.001 0.039,0.002 0.04,0.001 0.042,0.001 0.042,10e-4 0.044,0.001 0.046,0 0.047,10e-4 0.048,0 c 0.328,0 0.422,0 0.422,0.203 0,0.14 -0.125,0.14 -0.187,0.14 -0.36,0 -1.282,-0.031 -1.641,-0.031 -0.344,0 -1.156,0.031 -1.484,0.031 -0.079,0 -0.219,0 -0.219,-0.234 0,-0.109 0.109,-0.109 0.312,-0.109 0.032,0 0.235,0 0.422,-0.032 0.203,-0.015 0.313,-0.031 0.313,-0.171 0,-0.047 -0.016,-0.079 -0.047,-0.219 l -1.5,-5.985 c -0.11,-0.437 -0.125,-0.531 -1.016,-0.531 -0.187,0 -0.297,0 -0.297,-0.219 0,-0.125 0.094,-0.125 0.297,-0.125 h 5.172 c 0.266,0 0.281,0 0.344,0.188 l 0.875,2.406 c 0.047,0.125 0.047,0.156 0.047,0.156 0,0.047 -0.032,0.125 -0.125,0.125 -0.11,0 -0.125,-0.046 -0.203,-0.234 -0.375,-1.016 -0.86,-2.297 -2.797,-2.297 h -1.047 c -0.156,0 -0.172,0 -0.25,0.016 -0.11,0.015 -0.141,0.015 -0.141,0.109 0,0.031 0,0.063 0.063,0.25 z"
   id="path43"
   inkscape:connector-curvature="0"
   style="fill:#000000;stroke-width:0" />
<line
   x1="5.4453001"
   y1="15.453"
   x2="26.973"
   y2="15.453"
   id="line45"
   style="stroke-width:0.63800001" />
<path
   d="m 17.336,11.172 0.001,0.006 0.002,0.006 0.002,0.006 10e-4,0.007 0.004,0.013 0.004,0.014 0.004,0.014 0.004,0.015 0.003,0.015 0.004,0.015 0.004,0.016 0.003,0.015 0.003,0.016 0.003,0.015 0.002,0.016 0.001,0.015 0.001,0.008 0,0.007 10e-4,0.008 0,0.007 c 0,0.156 -0.156,0.156 -0.188,0.156 -0.031,0 -0.797,-0.062 -0.875,-0.078 -0.281,-0.015 -0.515,-0.046 -0.797,-0.062 -0.406,-0.031 -0.515,-0.047 -0.515,-0.344 0,-0.156 0.125,-0.156 0.359,-0.156 0.766,0 0.781,-0.141 0.781,-0.297 0,-0.094 -0.031,-0.219 -0.046,-0.266 L 15.133,6.4844 c -0.172,0.4218 -0.594,1.0625 -1.422,1.0625 -1.797,0 -3.7344,-2.3281 -3.7344,-4.6719 0,-1.5781 0.9214,-2.5 2.0004,-2.5 l 0.046,0.3125 c -0.656,0 -1.015,0.5937 -1.015,1.5313 0,0.875 0.484,2.6562 0.797,3.3124 0.531,1.125 1.281,1.6876 1.906,1.6876 1.047,0 1.25,-1.2969 1.25,-1.4219 0,-0.0157 -0.047,-0.2344 -0.063,-0.2657 L 14.117,2.4219 C 14.039,2.1562 14.039,2.125 13.82,1.8125 13.461,1.375 12.773,0.6875 12.023,0.6875 L 11.977,0.375 c 0.875,0 1.625,0.6875 2.062,1.2031 0.156,-0.93748 0.906,-1.2031 1.391,-1.2031 0.468,0 0.859,0.28125 1.14,0.8594 0.25,0.5312 0.469,1.5 0.469,1.5625 0,0.0937 -0.062,0.1562 -0.156,0.1562 -0.141,0 -0.156,-0.0781 -0.219,-0.3281 -0.234,-0.9375 -0.547,-1.9375 -1.187,-1.9375 -0.469,0 -0.5,0.4219 -0.5,0.7344 0,0.0625 0,0.3906 0.109,0.8437 z"
   id="path47"
   inkscape:connector-curvature="0"
   style="fill:#000000;stroke-width:0" />
<path
   d="m 20.633,6.9219 h 1.469 c 0.296,0 0.468,0 0.468,0.2812 0,0.1719 -0.109,0.1719 -0.422,0.1719 h -1.39 l 0.578,2.3281 c 0.062,0.2188 0.062,0.25 0.062,0.3589 0,0.266 -0.203,0.407 -0.406,0.407 -0.125,0 -0.5,-0.047 -0.625,-0.5628 L 19.742,7.375 h -1.484 c -0.313,0 -0.469,0 -0.469,-0.2969 0,-0.1562 0.109,-0.1562 0.422,-0.1562 h 1.406 L 18.57,2.7188 C 18.445,2.1719 18.398,2.0156 18.398,1.7969 c 0,-0.7344 0.532,-1.4219 1.422,-1.4219 1.594,0 2.453,2.3125 2.453,2.4219 0,0.1093 -0.062,0.1562 -0.156,0.1562 -0.031,0 -0.094,0 -0.125,-0.0625 C 21.977,2.875 21.961,2.8594 21.852,2.5938 21.508,1.7969 20.789,0.6875 19.867,0.6875 c -0.484,0 -0.515,0.4063 -0.515,0.75 0,0.0156 0,0.3125 0.046,0.5156 z"
   id="path49"
   inkscape:connector-curvature="0"
   style="fill:#000000;stroke-width:0" />
<path
   d="m 47.758,16.625 0.041,0 0.043,0.001 0.043,10e-4 0.022,0.001 0.021,0.001 0.022,0.002 0.021,0.003 0.021,0.002 0.02,0.004 0.02,0.004 0.02,0.005 0.019,0.005 0.019,0.006 0.018,0.007 0.017,0.008 0.017,0.009 0.015,0.01 0.015,0.01 0.014,0.012 0.013,0.013 0.011,0.015 0.006,0.007 0.005,0.008 0.005,0.008 0.004,0.009 0.005,0.009 0.004,0.009 0.003,0.009 0.003,0.01 0.003,0.011 0.003,0.01 0.002,0.011 0.002,0.012 10e-4,0.011 10e-4,0.013 0.001,0.012 0,0.013 c 0,0.297 -0.266,0.297 -0.5,0.297 h -9.375 c -0.219,0 -0.5,0 -0.5,-0.281 0,-0.297 0.265,-0.297 0.5,-0.297 z"
   id="path51"
   inkscape:connector-curvature="0"
   style="fill:#000000;stroke-width:0" />
<path
   d="m 47.758,13.656 0.041,0 0.043,10e-4 0.043,10e-4 0.022,0.001 0.021,0.002 0.022,0.002 0.021,0.002 0.021,0.003 0.02,0.004 0.02,0.004 0.02,0.005 0.019,0.006 0.019,0.006 0.018,0.008 0.017,0.008 0.017,0.009 0.015,0.011 0.015,0.011 0.014,0.013 0.013,0.013 0.011,0.015 0.006,0.008 0.005,0.009 0.005,0.008 0.004,0.009 0.005,0.01 0.004,0.01 0.003,0.01 0.003,0.01 0.003,0.011 0.003,0.011 0.002,0.012 0.002,0.012 10e-4,0.012 10e-4,0.013 0.001,0.013 0,0.014 c 0,0.297 -0.266,0.297 -0.5,0.297 h -9.375 c -0.219,0 -0.5,0 -0.5,-0.281 0,-0.313 0.265,-0.313 0.5,-0.313 z"
   id="path53"
   inkscape:connector-curvature="0"
   style="fill:#000000;stroke-width:0" />
<path
   d="m 65.199,32.438 0,0.016 0,0.016 0,0.016 0,0.015 0,0.015 0,0.014 0,0.014 0,0.013 -0.001,0.013 0,0.012 0,0.012 -10e-4,0.012 0,0.011 -0.001,0.01 -0.001,0.011 -10e-4,0.01 -0.001,0.009 -0.001,0.009 -10e-4,0.009 -0.001,0.009 -0.002,0.008 -0.001,0.008 -0.002,0.007 -0.002,0.007 -0.005,0.013 -0.005,0.012 -0.006,0.011 -0.007,0.01 -0.008,0.008 -0.008,0.008 -0.01,0.007 -0.011,0.006 -0.012,0.005 -0.013,0.004 -0.015,0.003 -0.008,0.002 -0.008,0.001 -0.008,0.002 -0.009,0.001 -0.009,10e-4 -0.009,10e-4 -0.01,0 -0.011,0.001 -0.01,10e-4 -0.011,0 -0.012,10e-4 -0.011,0 -0.013,0 -0.012,0 -0.013,0 -0.014,0 -0.014,0 -0.014,0 c -0.391,-0.421 -1.188,-1.015 -2.813,-1.015 v -0.453 c 0.36,0 1.156,0 2.031,0.406 v -8.281 c 0,-0.563 -0.046,-0.766 -1.453,-0.766 H 62.168 V 22.25 c 0.422,0.031 1.969,0.031 2.484,0.031 0.532,0 2.063,0 2.485,-0.031 v 0.453 h -0.485 c -1.406,0 -1.453,0.203 -1.453,0.766 z"
   id="path55"
   inkscape:connector-curvature="0"
   style="fill:#000000;stroke-width:0" />
<line
   x1="59.215"
   y1="15.453"
   x2="69.835999"
   y2="15.453"
   id="line57"
   style="stroke-width:0.63800001" />
<path
   d="m 65.043,10.156 0.013,0.056 0.013,0.053 0.013,0.051 0.013,0.048 0.014,0.046 0.014,0.043 0.016,0.041 0.017,0.039 0.018,0.036 0.021,0.035 0.022,0.032 0.025,0.03 0.028,0.028 0.03,0.027 0.034,0.024 0.037,0.023 0.041,0.02 0.044,0.019 0.049,0.018 0.053,0.015 0.058,0.014 0.031,0.007 0.032,0.006 0.034,0.006 0.034,0.005 0.036,0.005 0.038,0.005 0.039,0.004 0.04,0.004 0.042,0.004 0.043,0.003 0.045,0.004 0.047,0.002 0.048,0.003 0.05,0.002 0.051,0.002 0.053,0.002 0.055,0.001 0.057,10e-4 0.059,10e-4 0.06,0 0.062,0.001 0.065,0 c 0.437,0 0.547,0 0.547,0.312 0,0.157 -0.188,0.157 -0.25,0.157 -0.313,0 -0.672,-0.032 -1,-0.032 h -2.125 c -0.297,0 -0.657,0.032 -0.954,0.032 -0.125,0 -0.296,0 -0.296,-0.313 0,-0.156 0.14,-0.156 0.375,-0.156 0.968,0 0.968,-0.125 0.968,-0.297 0,-0.031 0,-0.125 -0.062,-0.359 L 61.699,1.7031 c -0.14,-0.5469 -0.187,-0.71872 -1.297,-0.71872 -0.297,0 -0.453,0 -0.453,-0.28126 0,-0.17187 0.094,-0.17187 0.406,-0.17187 h 7.125 c 0.344,0 0.36,0.01563 0.469,0.29687 l 1.235,3.39068 c 0.031,0.0781 0.062,0.1718 0.062,0.2187 0,0.0937 -0.078,0.1563 -0.156,0.1563 -0.016,0 -0.094,0 -0.125,-0.0626 C 68.934,4.5156 68.934,4.4844 68.793,4.1875 68.293,2.7812 67.574,0.98438 64.887,0.98438 h -1.532 c -0.218,0 -0.25,0 -0.343,0.03122 -0.172,0.0156 -0.188,0.0469 -0.188,0.1719 0,0.1094 0.031,0.2031 0.063,0.3437 z"
   id="path59"
   inkscape:connector-curvature="0"
   style="fill:#000000;stroke-width:0" />
<path
   d="m 76.453,12.391 0.01,-0.042 0.011,-0.04 0.024,-0.077 0.026,-0.074 0.03,-0.069 0.032,-0.066 0.034,-0.063 0.037,-0.058 0.039,-0.056 0.041,-0.051 0.042,-0.049 0.044,-0.046 0.046,-0.042 0.046,-0.039 0.048,-0.037 0.048,-0.033 0.05,-0.031 0.049,-0.029 0.05,-0.026 0.05,-0.023 0.05,-0.021 0.05,-0.019 0.05,-0.017 0.049,-0.015 0.048,-0.012 0.048,-0.011 0.046,-0.009 0.045,-0.008 0.044,-0.006 0.042,-0.004 0.04,-0.003 0.039,-0.002 0.036,-0.001 c 0.515,0 0.891,0.329 1.156,0.876 0.266,0.562 0.469,1.5 0.469,1.546 0,0.094 -0.063,0.157 -0.156,0.157 -0.141,0 -0.157,-0.079 -0.219,-0.329 -0.297,-1.093 -0.578,-1.937 -1.219,-1.937 -0.469,0 -0.469,0.531 -0.469,0.734 0,0.36 0.047,0.532 0.203,1.188 0.11,0.437 0.219,0.859 0.313,1.312 l 0.656,2.579 c 0.11,0.406 0.11,0.437 0.11,0.484 0,0.234 -0.188,0.39 -0.422,0.39 -0.469,0 -0.578,-0.39 -0.672,-0.781 -0.156,-0.625 -1.016,-4.047 -1.125,-4.593 -0.016,0 -0.641,-1.313 -1.797,-1.313 -0.828,0 -0.984,0.719 -0.984,1.313 0,0.906 0.437,2.171 0.859,3.234 0.188,0.516 0.266,0.719 0.266,1.031 0,0.688 -0.485,1.281 -1.25,1.281 -1.469,0 -2.063,-2.312 -2.063,-2.437 0,-0.063 0.078,-0.141 0.188,-0.141 0.14,0 0.156,0.063 0.218,0.282 0.375,1.374 1,1.968 1.61,1.968 0.156,0 0.406,-0.015 0.406,-0.515 0,-0.422 -0.172,-0.875 -0.406,-1.485 -0.703,-1.89 -0.781,-2.5 -0.781,-2.968 0,-1.626 1.218,-1.876 1.874,-1.876 1.016,0 1.579,0.704 1.891,1.079 z"
   id="path61"
   inkscape:connector-curvature="0"
   style="fill:#000000;stroke-width:0" />
<path
   d="m 88.398,16.828 0,0.003 0,0.003 0,0.004 -10e-4,0.004 -0.001,0.004 -0.001,0.004 -10e-4,0.004 -0.002,0.004 -0.002,0.005 -0.002,0.004 -0.002,0.005 -0.002,0.004 -0.003,0.005 -0.003,0.005 -0.003,0.004 -0.004,0.005 -0.004,0.004 -0.004,0.004 -0.004,0.004 -0.005,0.004 -0.005,0.004 -0.005,0.003 -0.006,0.004 -0.005,0.003 -0.007,0.003 -0.006,0.002 -0.007,0.002 -0.004,0.001 -0.003,0.001 -0.004,10e-4 -0.004,0.001 -0.004,0 -0.004,0.001 -0.004,0 -0.004,0 -0.004,0 -0.005,10e-4 c -0.031,0 -0.046,0 -0.171,-0.126 L 87.32,15.953 c -0.093,0.156 -0.609,0.985 -1.843,0.985 -2.5,0 -5,-2.454 -5,-5.047 0,-1.844 1.312,-3.0629 3.015,-3.0629 0.969,0 1.828,0.4531 2.406,0.9688 1.047,0.9061 1.235,1.9221 1.235,1.9531 0,0.125 -0.11,0.125 -0.141,0.125 -0.062,0 -0.109,-0.031 -0.14,-0.125 C 86.758,11.438 86.492,10.641 85.727,10 84.961,9.375 84.258,9.1719 83.68,9.1719 c -1.016,0 -2.188,0.5937 -2.188,2.3281 0,0.641 0.235,2.438 1.344,3.75 0.687,0.797 1.734,1.344 2.719,1.344 1.14,0 1.797,-0.86 1.797,-2.156 0,-0.438 -0.032,-0.454 -0.032,-0.563 0,-0.109 0.125,-0.109 0.172,-0.109 0.141,0 0.141,0.015 0.203,0.218 z"
   id="path63"
   inkscape:connector-curvature="0"
   style="fill:#000000;stroke-width:0" />
<path
   d="m 103.19,15.125 0.06,0 0.05,10e-4 0.05,0.001 0.03,10e-4 0.02,0.002 0.03,0.002 0.02,0.003 0.02,0.003 0.03,0.003 0.02,0.005 0.02,0.005 0.02,0.006 0.02,0.007 0.02,0.008 0.02,0.009 0.02,0.009 0.01,0.011 0.02,0.012 0.01,0.014 0.02,0.014 0.01,0.016 0.01,0.017 0.01,0.009 0,0.01 0,0.009 0.01,0.011 0,0.01 0.01,0.011 0,0.012 0,0.012 0,0.012 0,0.012 0.01,0.014 0,0.013 0,0.014 0,0.015 c 0,0.328 -0.28,0.328 -0.57,0.328 h -8.588 c -0.266,0 -0.563,0 -0.563,-0.328 0,-0.313 0.297,-0.313 0.563,-0.313 z"
   id="path65"
   inkscape:connector-curvature="0"
   style="fill:#000000;stroke-width:0" />
<path
   d="m 117.93,27.656 0.18,0.042 0.18,0.047 0.18,0.052 0.17,0.056 0.17,0.061 0.17,0.065 0.17,0.069 0.16,0.074 0.15,0.077 0.15,0.081 0.15,0.084 0.14,0.088 0.14,0.092 0.13,0.094 0.13,0.098 0.12,0.1 0.12,0.103 0.11,0.106 0.1,0.108 0.1,0.111 0.09,0.112 0.08,0.115 0.08,0.117 0.07,0.118 0.06,0.12 0.06,0.122 0.04,0.122 0.04,0.124 0.03,0.125 0.02,0.126 0.02,0.127 0,0.127 c 0,1.25 -1.26,2.39 -3.47,2.39 h -4.31 c -0.31,0 -0.45,0 -0.45,-0.312 0,-0.156 0.11,-0.156 0.4,-0.156 0.96,0 0.96,-0.125 0.96,-0.297 0,-0.032 0,-0.125 -0.07,-0.36 l -2.14,-8.562 c -0.14,-0.547 -0.17,-0.719 -1.28,-0.719 -0.36,0 -0.47,0 -0.47,-0.297 0,-0.156 0.18,-0.156 0.22,-0.156 0.28,0 0.63,0.031 0.92,0.031 h 1.88 c 0.28,0 0.62,-0.031 0.91,-0.031 0.12,0 0.29,0 0.29,0.297 0,0.156 -0.14,0.156 -0.37,0.156 -0.97,0 -0.97,0.141 -0.97,0.297 0,0.016 0,0.125 0.03,0.25 l 1.06,4.281 h 1.91 l -0.03,0.313 h -1.8 l 1.05,4.187 c 0.14,0.578 0.22,0.61 0.83,0.61 h 1.14 c 1.37,0 2.39,-0.407 2.39,-1.657 0,-0.796 -0.41,-3.14 -3.61,-3.14 l 0.03,-0.313 c 1.51,0 1.8,-0.953 1.8,-1.484 0,-0.235 -0.16,-0.859 -0.27,-1.266 -0.17,-0.734 -0.22,-0.906 -0.22,-1.219 0,-1.124 0.92,-1.64 1.99,-1.64 1.28,0 1.84,1.562 1.84,1.797 0,0.109 -0.08,0.156 -0.17,0.156 -0.14,0 -0.17,-0.094 -0.21,-0.219 -0.37,-1.14 -1.03,-1.422 -1.42,-1.422 -0.4,0 -0.65,0.172 -0.65,0.891 0,0.375 0.18,1.828 0.2,1.906 0.08,0.594 0.08,0.657 0.08,0.781 0,1.157 -0.94,1.657 -1.53,1.844 z"
   id="path67"
   inkscape:connector-curvature="0"
   style="fill:#000000;stroke-width:0" />
<line
   x1="109.86"
   y1="15.453"
   x2="121.88"
   y2="15.453"
   id="line69"
   style="stroke-width:0.63800001" />
<path
   d="m 116.39,10.156 0.01,0.056 0.01,0.053 0.02,0.051 0.01,0.048 0.01,0.046 0.02,0.043 0.01,0.041 0.02,0.039 0.02,0.036 0.02,0.035 0.02,0.032 0.03,0.03 0.02,0.028 0.03,0.027 0.04,0.024 0.03,0.023 0.05,0.02 0.04,0.019 0.05,0.018 0.05,0.015 0.06,0.014 0.03,0.007 0.03,0.006 0.04,0.006 0.03,0.005 0.04,0.005 0.03,0.005 0.04,0.004 0.04,0.004 0.05,0.004 0.04,0.003 0.04,0.004 0.05,0.002 0.05,0.003 0.05,0.002 0.05,0.002 0.05,0.002 0.06,0.001 0.05,10e-4 0.06,10e-4 0.06,0 0.07,0.001 0.06,0 c 0.44,0 0.55,0 0.55,0.312 0,0.157 -0.19,0.157 -0.25,0.157 -0.32,0 -0.67,-0.032 -1,-0.032 h -2.13 c -0.29,0 -0.65,0.032 -0.95,0.032 -0.13,0 -0.3,0 -0.3,-0.313 0,-0.156 0.14,-0.156 0.38,-0.156 0.97,0 0.97,-0.125 0.97,-0.297 0,-0.031 0,-0.125 -0.07,-0.359 l -2.14,-8.5629 c -0.14,-0.5469 -0.18,-0.71872 -1.29,-0.71872 -0.3,0 -0.46,0 -0.46,-0.28126 0,-0.17187 0.1,-0.17187 0.41,-0.17187 h 7.12 c 0.35,0 0.36,0.01563 0.47,0.29687 l 1.24,3.39068 c 0.03,0.0781 0.06,0.1718 0.06,0.2187 0,0.0937 -0.08,0.1563 -0.16,0.1563 -0.01,0 -0.09,0 -0.12,-0.0626 -0.03,-0.0156 -0.03,-0.0468 -0.17,-0.3437 -0.5,-1.4063 -1.22,-3.20312 -3.91,-3.20312 h -1.53 c -0.22,0 -0.25,0 -0.34,0.03122 -0.18,0.0156 -0.19,0.0469 -0.19,0.1719 0,0.1094 0.03,0.2031 0.06,0.3437 z"
   id="path71"
   inkscape:connector-curvature="0"
   style="fill:#000000;stroke-width:0" />
<path
   d="m 127.57,13.734 0,0.009 0,0.009 0,0.008 0,0.008 0,0.008 -0.01,0.008 0,0.007 0,0.007 0,0.007 -0.01,0.007 0,0.007 0,0.006 -0.01,0.006 0,0.006 -0.01,0.005 0,0.006 -0.01,0.005 0,0.004 -0.01,0.005 -0.01,0.004 0,0.004 -0.01,0.003 0,0.003 -0.01,0.003 -0.01,0.003 -0.01,0.002 0,0.002 -0.01,0.002 -0.01,10e-4 -0.01,0.001 -0.01,0 -0.01,10e-4 c -0.14,0 -0.15,-0.047 -0.25,-0.329 -0.4,-1.437 -1.06,-1.937 -1.57,-1.937 -0.19,0 -0.43,0.047 -0.43,0.531 0,0.422 0.19,0.906 0.38,1.375 l 1.11,2.953 c 0.04,0.141 0.16,0.422 0.16,0.719 0,0.672 -0.47,1.281 -1.25,1.281 -1.47,0 -2.07,-2.312 -2.07,-2.437 0,-0.063 0.08,-0.141 0.19,-0.141 0.14,0 0.16,0.063 0.22,0.282 0.37,1.343 0.98,1.968 1.61,1.968 0.14,0 0.4,-0.015 0.4,-0.515 0,-0.422 -0.2,-0.938 -0.32,-1.297 l -1.11,-2.953 c -0.11,-0.25 -0.21,-0.5 -0.21,-0.797 0,-0.719 0.5,-1.282 1.27,-1.282 1.45,0 2.03,2.313 2.03,2.422 z"
   id="path73"
   inkscape:connector-curvature="0"
   style="fill:#000000;stroke-width:0" />
<path
   d="m 127.44,21.391 0,0.022 0,0.022 0,0.022 0,0.023 -0.01,0.023 0,0.022 -0.01,0.023 -0.01,0.022 -0.01,0.022 -0.01,0.022 -0.01,0.022 -0.01,0.021 -0.02,0.02 -0.01,0.021 -0.02,0.019 -0.01,0.019 -0.02,0.019 -0.02,0.017 -0.02,0.017 -0.02,0.016 -0.02,0.015 -0.03,0.014 -0.02,0.013 -0.02,0.012 -0.03,0.01 -0.03,0.01 -0.03,0.008 -0.03,0.007 -0.03,0.005 -0.03,0.004 -0.03,0.002 -0.03,10e-4 c -0.36,0 -0.78,-0.344 -0.78,-0.765 0,-0.391 0.34,-0.516 0.53,-0.516 0.42,0 0.79,0.406 0.79,0.766 z"
   id="path75"
   inkscape:connector-curvature="0"
   style="fill:#000000;stroke-width:0" />
<path
   d="m 132.57,15.828 0,0.037 0.01,0.036 0.01,0.034 0.01,0.033 0.01,0.031 0.01,0.029 0.01,0.028 0.01,0.027 0.02,0.025 0.01,0.023 0.02,0.023 0.02,0.021 0.02,0.019 0.02,0.019 0.03,0.017 0.02,0.016 0.03,0.015 0.04,0.014 0.03,0.012 0.04,0.011 0.05,0.011 0.02,0.005 0.02,0.004 0.03,0.004 0.02,0.004 0.03,0.004 0.03,0.004 0.03,0.003 0.03,0.003 0.03,0.003 0.03,0.002 0.04,0.003 0.03,0.002 0.04,0.002 0.04,0.001 0.03,0.002 0.05,0.001 0.04,10e-4 0.04,0.001 0.04,0.001 0.05,0 0.05,0 0.04,0 c 0.33,0 0.43,0 0.43,0.203 0,0.141 -0.13,0.141 -0.19,0.141 -0.36,0 -1.28,-0.031 -1.64,-0.031 -0.35,0 -1.16,0.031 -1.49,0.031 -0.07,0 -0.21,0 -0.21,-0.234 0,-0.11 0.1,-0.11 0.31,-0.11 0.03,0 0.23,0 0.42,-0.031 0.2,-0.016 0.31,-0.031 0.31,-0.172 0,-0.047 -0.01,-0.078 -0.04,-0.218 l -1.5,-5.9849 c -0.11,-0.4375 -0.13,-0.5312 -1.02,-0.5312 -0.19,0 -0.3,0 -0.3,-0.2188 0,-0.125 0.1,-0.125 0.3,-0.125 h 5.17 c 0.27,0 0.28,0 0.35,0.1875 l 0.87,2.4064 c 0.05,0.125 0.05,0.156 0.05,0.156 0,0.047 -0.03,0.125 -0.13,0.125 -0.11,0 -0.12,-0.047 -0.2,-0.234 -0.38,-1.016 -0.86,-2.2971 -2.8,-2.2971 h -1.04 c -0.16,0 -0.18,0 -0.25,0.0156 -0.11,0.0156 -0.15,0.0156 -0.15,0.1094 0,0.0312 0,0.0625 0.07,0.25 z"
   id="path77"
   inkscape:connector-curvature="0"
   style="fill:#000000;stroke-width:0" />
</g></svg>
