<?xml version="1.0" encoding="UTF-8" standalone="no"?>
<svg
   xmlns:dc="http://purl.org/dc/elements/1.1/"
   xmlns:cc="http://creativecommons.org/ns#"
   xmlns:rdf="http://www.w3.org/1999/02/22-rdf-syntax-ns#"
   xmlns:svg="http://www.w3.org/2000/svg"
   xmlns="http://www.w3.org/2000/svg"
   xmlns:sodipodi="http://sodipodi.sourceforge.net/DTD/sodipodi-0.dtd"
   xmlns:inkscape="http://www.inkscape.org/namespaces/inkscape"
   version="1.1"
   id="body"
   width="325.70105"
   height="40.859112"
   viewBox="0 0 0.45236257 0.056748766"
   preserveAspectRatio="none"
   inkscape:version="0.48.3.1 r9886"
   sodipodi:docname="ch3-Z-G-39.svg">
  <metadata
     id="metadata79">
    <rdf:RDF>
      <cc:Work
         rdf:about="">
        <dc:format>image/svg+xml</dc:format>
        <dc:type
           rdf:resource="http://purl.org/dc/dcmitype/StillImage" />
      </cc:Work>
    </rdf:RDF>
  </metadata>
  <defs
     id="defs77" />
  <sodipodi:namedview
     pagecolor="#ffffff"
     bordercolor="#666666"
     borderopacity="1"
     objecttolerance="10"
     gridtolerance="10"
     guidetolerance="10"
     inkscape:pageopacity="0"
     inkscape:pageshadow="2"
     inkscape:window-width="640"
     inkscape:window-height="480"
     id="namedview75"
     showgrid="false"
     inkscape:zoom="0.32777778"
     inkscape:cx="382.10938"
     inkscape:cy="459.05588"
     inkscape:window-x="0"
     inkscape:window-y="24"
     inkscape:window-maximized="0"
     inkscape:current-layer="body" />
  <title
     id="title3">SVG drawing</title>
  <desc
     id="desc5">This was produced by version 4.4 of GNU libplot, a free library for exporting 2-D vector graphics.</desc>
  <g
     id="content"
     transform="matrix(0.0017361,0,0,-0.0017361,-5.4253125e-4,0.05794234)"
     xml:space="preserve"
     stroke-miterlimit="10.433"
     font-style="normal"
     font-variant="normal"
     font-weight="normal"
     font-stretch="normal"
     font-size-adjust="none"
     letter-spacing="normal"
     word-spacing="normal"
     style="font-style:normal;font-variant:normal;font-weight:normal;font-stretch:normal;letter-spacing:normal;word-spacing:normal;text-anchor:start;fill:none;stroke:#000000;stroke-linecap:butt;stroke-linejoin:miter;stroke-miterlimit:10.43299961;stroke-opacity:1;stroke-dasharray:none;stroke-dashoffset:0">
<path
   d="m 5.9531,17.961 -0.0288,0 -0.0278,0 -0.0269,0 -0.0261,0 -0.0252,-10e-4 -0.0245,0 L 5.7701,17.959 5.7471,17.958 5.7247,17.957 5.7029,17.955 5.6816,17.953 5.6609,17.951 5.6406,17.948 5.6207,17.945 5.6012,17.942 5.582,17.937 5.5631,17.933 5.5444,17.928 5.5259,17.922 5.5076,17.915 5.4893,17.908 5.4711,17.9 5.4528,17.891 5.4346,17.882 5.4162,17.871 5.3977,17.86 5.379,17.848 5.3601,17.835 5.3409,17.821 5.3214,17.806 5.3015,17.79 5.2812,17.773 C 5.1875,17.695 5.0156,17.461 5.0156,17.211 c 0,-0.328 0.2344,-0.516 0.5313,-0.516 0.3906,0 0.8125,0.313 0.8125,0.953 0,0.766 -0.7344,1.36 -1.8282,1.36 -2.0781,0 -4.1562,-2.281 -4.1562,-4.531 0,-1.391 0.8594,-2.641 2.4688,-2.641 2.1718,0 3.5312,1.687 3.5312,1.891 0,0.093 -0.0938,0.171 -0.1562,0.171 -0.0469,0 -0.0626,-0.015 -0.2032,-0.156 C 5,12.383 3.4844,12.148 2.875,12.148 c -1.0938,0 -1.4375,0.954 -1.4375,1.75 0,0.563 0.2656,2.094 0.8437,3.188 0.4063,0.734 1.2657,1.594 2.2657,1.594 0.2031,0 1.0781,-0.032 1.4062,-0.719 z"
   id="path9"
   inkscape:connector-curvature="0"
   style="fill:#000000;stroke-width:0" />
<path
   d="m 16.336,15.664 h 4.391 c 0.218,0 0.5,0 0.5,0.281 0,0.313 -0.266,0.313 -0.5,0.313 h -4.391 v 4.375 c 0,0.234 0,0.515 -0.281,0.515 -0.313,0 -0.313,-0.265 -0.313,-0.515 v -4.375 h -4.39 c -0.219,0 -0.5,0 -0.5,-0.297 0,-0.297 0.265,-0.297 0.5,-0.297 h 4.39 v -4.391 c 0,-0.218 0,-0.5 0.297,-0.5 0.297,0 0.297,0.266 0.297,0.5 z"
   id="path11"
   inkscape:connector-curvature="0"
   style="fill:#000000;stroke-width:0" />
<path
   d="m 31.473,17.945 -0.017,0.04 -0.018,0.042 -0.02,0.042 -0.022,0.043 -0.023,0.044 -0.024,0.044 -0.027,0.045 -0.028,0.044 -0.029,0.045 -0.031,0.045 -0.034,0.044 -0.034,0.044 -0.037,0.043 -0.039,0.043 -0.04,0.041 -0.042,0.041 -0.044,0.039 -0.046,0.038 -0.049,0.036 -0.05,0.035 -0.052,0.033 -0.054,0.03 -0.056,0.029 -0.059,0.026 -0.06,0.024 -0.063,0.021 -0.065,0.018 -0.067,0.015 -0.07,0.013 -0.072,0.009 -0.074,0.005 -0.076,0.002 c -1.797,0 -3.735,-2.328 -3.735,-4.672 0,-1.578 0.922,-2.5 2,-2.5 l 0.047,0.312 c -0.656,0 -1.015,0.594 -1.015,1.532 0,0.875 0.484,2.656 0.797,3.312 0.531,1.125 1.281,1.688 1.906,1.688 1.047,0 1.25,-1.297 1.25,-1.422 0,-0.016 -0.047,-0.235 -0.063,-0.266 l -0.781,-3.109 c -0.078,-0.266 -0.078,-0.297 -0.297,-0.61 -0.359,-0.437 -1.047,-1.125 -1.797,-1.125 l -0.047,-0.312 c 0.875,0 1.625,0.687 2.063,1.203 0.156,-0.937 0.906,-1.203 1.391,-1.203 0.468,0 0.859,0.281 1.14,0.859 0.25,0.532 0.469,1.5 0.469,1.563 0,0.094 -0.063,0.156 -0.156,0.156 -0.141,0 -0.157,-0.078 -0.219,-0.328 -0.234,-0.938 -0.547,-1.938 -1.188,-1.938 -0.468,0 -0.5,0.422 -0.5,0.735 0,0.359 0.047,0.547 0.188,1.156 0.109,0.406 0.203,0.75 0.328,1.219 0.578,2.375 0.719,2.953 0.719,3.047 0,0.218 -0.172,0.39 -0.406,0.39 -0.516,0 -0.641,-0.547 -0.672,-0.75 z"
   id="path13"
   inkscape:connector-curvature="0"
   style="fill:#000000;stroke-width:0" />
<path
   d="m 38.992,13.164 0,0.17 -0.003,0.169 -0.004,0.169 -0.006,0.168 -0.01,0.168 -0.012,0.167 -0.017,0.166 -0.02,0.165 -0.025,0.164 -0.03,0.164 -0.036,0.162 -0.041,0.161 -0.048,0.16 -0.054,0.159 -0.062,0.157 -0.034,0.078 -0.035,0.078 c -0.516,1.063 -1.438,1.25 -1.891,1.25 -0.672,0 -1.484,-0.297 -1.953,-1.328 -0.359,-0.781 -0.406,-1.641 -0.406,-2.547 0,-0.828 0.047,-1.828 0.5,-2.687 0.484,-0.8911 1.297,-1.1254 1.843,-1.1254 v 0.25 c -0.437,0 -1.093,0.2812 -1.296,1.3434 -0.125,0.672 -0.125,1.703 -0.125,2.36 0,0.718 0,1.453 0.093,2.047 0.203,1.328 1.047,1.437 1.328,1.437 0.36,0 1.094,-0.203 1.313,-1.312 0.109,-0.625 0.109,-1.469 0.109,-2.172 0,-0.844 0,-1.594 -0.125,-2.313 C 37.789,9.9297 37.148,9.6016 36.648,9.6016 h 0 v -0.25 c 0.594,0 1.454,0.2343 1.938,1.2964 0.359,0.766 0.406,1.641 0.406,2.516 z"
   id="path15"
   inkscape:connector-curvature="0"
   style="fill:#000000;stroke-width:0" />
<path
   d="m 47.477,18.477 -0.046,-0.01 -0.045,-0.011 -0.042,-0.013 -0.041,-0.014 -0.039,-0.016 -0.038,-0.017 -0.036,-0.018 -0.034,-0.019 -0.033,-0.021 -0.031,-0.021 -0.03,-0.023 -0.028,-0.023 -0.026,-0.025 -0.025,-0.025 -0.024,-0.026 -0.021,-0.027 -0.021,-0.027 -0.019,-0.028 -0.018,-0.029 -0.016,-0.029 -0.015,-0.029 -0.013,-0.03 -0.012,-0.03 -0.011,-0.03 -0.009,-0.03 -0.009,-0.031 -0.006,-0.03 -0.006,-0.03 -0.004,-0.03 -0.003,-0.03 -0.002,-0.03 -10e-4,-0.03 c 0,-0.375 0.313,-0.5 0.532,-0.5 0.468,0 0.812,0.407 0.812,0.844 0,0.656 -0.765,0.969 -1.437,0.969 -0.969,0 -1.5,-0.953 -1.641,-1.266 -0.375,1.203 -1.359,1.266 -1.641,1.266 -1.625,0 -2.484,-2.094 -2.484,-2.438 0,-0.062 0.063,-0.14 0.172,-0.14 0.125,0 0.156,0.093 0.187,0.156 0.547,1.766 1.61,2.094 2.079,2.094 0.703,0 0.859,-0.657 0.859,-1.047 0,-0.344 -0.094,-0.719 -0.297,-1.469 l -0.531,-2.187 c -0.25,-0.954 -0.703,-1.829 -1.547,-1.829 -0.078,0 -0.469,0 -0.813,0.204 0.579,0.125 0.704,0.593 0.704,0.781 0,0.328 -0.235,0.515 -0.547,0.515 -0.375,0 -0.797,-0.343 -0.797,-0.843 0,-0.672 0.75,-0.969 1.437,-0.969 0.766,0 1.297,0.594 1.641,1.25 0.25,-0.938 1.047,-1.25 1.641,-1.25 1.609,0 2.468,2.078 2.468,2.422 0,0.094 -0.062,0.156 -0.156,0.156 -0.141,0 -0.156,-0.078 -0.203,-0.219 -0.438,-1.39 -1.359,-2.047 -2.063,-2.047 -0.562,0 -0.859,0.422 -0.859,1.063 0,0.359 0.063,0.609 0.313,1.656 l 0.562,2.156 c 0.234,0.954 0.766,1.657 1.5,1.657 0.031,0 0.484,0 0.813,-0.203 z"
   id="path17"
   inkscape:connector-curvature="0"
   style="fill:#000000;stroke-width:0" />
<path
   d="m 58.699,15.664 h 4.391 c 0.219,0 0.5,0 0.5,0.281 0,0.313 -0.266,0.313 -0.5,0.313 h -4.391 v 4.375 c 0,0.234 0,0.515 -0.281,0.515 -0.313,0 -0.313,-0.265 -0.313,-0.515 v -4.375 h -4.39 c -0.219,0 -0.5,0 -0.5,-0.297 0,-0.297 0.265,-0.297 0.5,-0.297 h 4.39 v -4.391 c 0,-0.218 0,-0.5 0.297,-0.5 0.297,0 0.297,0.266 0.297,0.5 z"
   id="path19"
   inkscape:connector-curvature="0"
   style="fill:#000000;stroke-width:0" />
<path
   d="m 73.812,32.965 0,0.016 0,0.016 0,0.016 0,0.015 0,0.015 0,0.014 0,0.014 0,0.013 0,0.013 -10e-4,0.012 0,0.012 -0.001,0.012 0,0.011 -0.001,0.011 -10e-4,0.01 0,0.01 -0.001,0.01 -0.001,0.009 -0.002,0.009 -0.001,0.008 -0.002,0.008 -0.001,0.008 -0.002,0.007 -0.002,0.007 -0.004,0.014 -0.006,0.012 -0.006,0.01 -0.007,0.01 -0.007,0.009 -0.009,0.007 -0.01,0.007 -0.011,0.006 -0.012,0.005 -0.013,0.004 -0.015,0.004 -0.007,10e-4 -0.008,0.002 -0.009,10e-4 -0.009,0.001 -0.009,10e-4 -0.009,10e-4 -0.01,0.001 -0.01,0 -0.011,10e-4 -0.011,0 -0.011,10e-4 -0.012,0 -0.012,0 -0.013,0.001 -0.013,0 -0.014,0 -0.014,0 -0.014,0 c -0.391,-0.422 -1.188,-1.016 -2.812,-1.016 v -0.453 c 0.359,0 1.156,0 2.031,0.406 v -8.281 c 0,-0.562 -0.047,-0.766 -1.453,-0.766 h -0.485 v -0.453 c 0.422,0.032 1.969,0.032 2.485,0.032 0.531,0 2.062,0 2.484,-0.032 v 0.453 h -0.484 c -1.407,0 -1.454,0.204 -1.454,0.766 z"
   id="path21"
   inkscape:connector-curvature="0"
   style="fill:#000000;stroke-width:0" />
<line
   x1="69.234001"
   y1="15.977"
   x2="77.039001"
   y2="15.977"
   id="line23"
   style="stroke-width:0.63800001" />
<path
   d="M 76.234,3.7305 H 75.875 C 75.828,3.4648 75.703,2.5898 75.547,2.3242 75.438,2.1836 74.531,2.1836 74.047,2.1836 h -2.938 c 0.422,0.375 1.407,1.3906 1.813,1.7656 2.422,2.2344 3.312,3.0469 3.312,4.625 0,1.8278 -1.453,3.0468 -3.296,3.0468 -1.844,0 -2.922,-1.562 -2.922,-2.9374 0,-0.8125 0.703,-0.8125 0.75,-0.8125 0.328,0 0.734,0.25 0.734,0.75 0,0.4531 -0.297,0.75 -0.734,0.75 -0.157,0 -0.188,0 -0.235,-0.0156 0.313,1.0785 1.172,1.8125 2.203,1.8125 1.344,0 2.172,-1.125 2.172,-2.5938 0,-1.3437 -0.781,-2.5312 -1.687,-3.5469 L 70.016,1.4336 v -0.375 h 5.796 z"
   id="path25"
   inkscape:connector-curvature="0"
   style="fill:#000000;stroke-width:0" />
<path
   d="m 84.031,17.945 -0.017,0.04 -0.018,0.042 -0.02,0.042 -0.021,0.043 -0.023,0.044 -0.025,0.044 -0.026,0.045 -0.028,0.044 -0.03,0.045 -0.031,0.045 -0.033,0.044 -0.035,0.044 -0.036,0.043 -0.039,0.043 -0.04,0.041 -0.043,0.041 -0.044,0.039 -0.046,0.038 -0.048,0.036 -0.05,0.035 -0.052,0.033 -0.054,0.03 -0.057,0.029 -0.058,0.026 -0.061,0.024 -0.063,0.021 -0.065,0.018 -0.067,0.015 -0.069,0.013 -0.072,0.009 -0.074,0.005 -0.077,0.002 c -1.797,0 -3.734,-2.328 -3.734,-4.672 0,-1.578 0.922,-2.5 2,-2.5 l 0.047,0.312 c -0.656,0 -1.016,0.594 -1.016,1.532 0,0.875 0.485,2.656 0.797,3.312 0.531,1.125 1.281,1.688 1.906,1.688 1.047,0 1.25,-1.297 1.25,-1.422 0,-0.016 -0.047,-0.235 -0.062,-0.266 l -0.781,-3.109 c -0.078,-0.266 -0.078,-0.297 -0.297,-0.61 -0.36,-0.437 -1.047,-1.125 -1.797,-1.125 l -0.047,-0.312 c 0.875,0 1.625,0.687 2.063,1.203 0.156,-0.937 0.906,-1.203 1.39,-1.203 0.469,0 0.86,0.281 1.141,0.859 0.25,0.532 0.469,1.5 0.469,1.563 0,0.094 -0.063,0.156 -0.157,0.156 -0.14,0 -0.156,-0.078 -0.219,-0.328 -0.234,-0.938 -0.546,-1.938 -1.187,-1.938 -0.469,0 -0.5,0.422 -0.5,0.735 0,0.359 0.047,0.547 0.187,1.156 0.11,0.406 0.204,0.75 0.329,1.219 0.578,2.375 0.718,2.953 0.718,3.047 0,0.218 -0.171,0.39 -0.406,0.39 -0.515,0 -0.641,-0.547 -0.672,-0.75 z"
   id="path27"
   inkscape:connector-curvature="0"
   style="fill:#000000;stroke-width:0" />
<path
   d="m 89.707,16.742 0,0.012 0,0.012 0,0.012 0,0.011 0,0.011 0,0.011 0,0.01 -10e-4,0.01 0,0.01 0,0.009 0,0.009 -0.001,0.009 -0.001,0.017 -10e-4,0.016 -0.002,0.014 -0.002,0.014 -0.003,0.012 -0.003,0.012 -0.004,0.011 -0.004,0.009 -0.005,0.009 -0.006,0.008 -0.007,0.008 -0.007,0.006 -0.009,0.006 -0.009,0.005 -0.01,0.005 -0.006,0.002 -0.005,0.002 -0.006,0.002 -0.007,0.001 -0.006,0.002 -0.007,0.001 -0.007,10e-4 -0.008,0.001 -0.007,0.002 -0.008,0 -0.009,0.001 -0.009,0.001 -0.009,10e-4 -0.009,0 -0.01,0.001 -0.01,0 -0.01,0 -0.011,0.001 -0.011,0 -0.011,0 -0.012,0 -0.013,0 C 88.754,16.32 87.77,16.32 87.426,16.32 v -0.343 c 0.219,0 0.875,0 1.453,0.281 v -5.781 c 0,-0.391 -0.031,-0.5317 -1.031,-0.5317 h -0.36 V 9.6016 c 0.391,0.0312 1.36,0.0312 1.797,0.0312 0.453,0 1.422,0 1.813,-0.0312 v 0.3437 h -0.36 c -1,0 -1.031,0.1247 -1.031,0.5317 z"
   id="path29"
   inkscape:connector-curvature="0"
   style="fill:#000000;stroke-width:0" />
<path
   d="m 100.04,18.477 -0.051,-0.01 -0.044,-0.011 -0.043,-0.013 -0.041,-0.014 -0.039,-0.016 -0.037,-0.017 -0.036,-0.018 -0.035,-0.019 -0.032,-0.021 -0.032,-0.021 -0.029,-0.023 -0.028,-0.023 -0.027,-0.025 -0.024,-0.025 -0.024,-0.026 -0.022,-0.027 -0.02,-0.027 -0.019,-0.028 -0.018,-0.029 -0.016,-0.029 -0.015,-0.029 -0.014,-0.03 -0.012,-0.03 -0.01,-0.03 -0.01,-0.03 -0.008,-0.031 -0.007,-0.03 -0.005,-0.03 -0.005,-0.03 -0.003,-0.03 -0.001,-0.03 -0.001,-0.03 c 0,-0.375 0.313,-0.5 0.531,-0.5 0.467,0 0.817,0.407 0.817,0.844 0,0.656 -0.77,0.969 -1.442,0.969 -0.968,0 -1.5,-0.953 -1.64,-1.266 -0.375,1.203 -1.36,1.266 -1.641,1.266 -1.625,0 -2.484,-2.094 -2.484,-2.438 0,-0.062 0.062,-0.14 0.172,-0.14 0.125,0 0.156,0.093 0.187,0.156 0.547,1.766 1.609,2.094 2.078,2.094 0.703,0 0.86,-0.657 0.86,-1.047 0,-0.344 -0.094,-0.719 -0.297,-1.469 l -0.532,-2.187 c -0.25,-0.954 -0.703,-1.829 -1.546,-1.829 -0.079,0 -0.469,0 -0.813,0.204 0.578,0.125 0.703,0.593 0.703,0.781 0,0.328 -0.234,0.515 -0.547,0.515 -0.375,0 -0.797,-0.343 -0.797,-0.843 0,-0.672 0.75,-0.969 1.438,-0.969 0.766,0 1.297,0.594 1.641,1.25 0.25,-0.938 1.046,-1.25 1.64,-1.25 1.61,0 2.47,2.078 2.47,2.422 0,0.094 -0.06,0.156 -0.157,0.156 -0.141,0 -0.157,-0.078 -0.203,-0.219 -0.438,-1.39 -1.36,-2.047 -2.063,-2.047 -0.562,0 -0.859,0.422 -0.859,1.063 0,0.359 0.062,0.609 0.312,1.656 l 0.563,2.156 c 0.234,0.954 0.765,1.657 1.5,1.657 0.031,0 0.484,0 0.817,-0.203 z"
   id="path31"
   inkscape:connector-curvature="0"
   style="fill:#000000;stroke-width:0" />
<path
   d="m 102.79,19.434 1.17,1.156 c 1.75,1.531 2.43,2.14 2.43,3.25 0,1.265 -1.02,2.172 -2.38,2.172 -1.25,0 -2.08,-1.032 -2.08,-2.032 0,-0.625 0.55,-0.625 0.6,-0.625 0.18,0 0.58,0.141 0.58,0.594 0,0.297 -0.21,0.578 -0.6,0.578 -0.09,0 -0.11,0 -0.14,0 0.25,0.719 0.86,1.125 1.5,1.125 1.02,0 1.5,-0.89 1.5,-1.812 0,-0.891 -0.56,-1.781 -1.17,-2.469 l -2.14,-2.391 c -0.13,-0.109 -0.13,-0.14 -0.13,-0.406 h 4.14 l 0.32,1.938 h -0.28 c -0.07,-0.328 -0.15,-0.828 -0.25,-0.985 -0.08,-0.093 -0.82,-0.093 -1.07,-0.093 z"
   id="path33"
   inkscape:connector-curvature="0"
   style="fill:#000000;stroke-width:0" />
<path
   d="m 117.34,15.664 h 4.39 c 0.21,0 0.5,0 0.5,0.281 0,0.313 -0.27,0.313 -0.5,0.313 h -4.39 v 4.375 c 0,0.234 0,0.515 -0.28,0.515 -0.32,0 -0.32,-0.265 -0.32,-0.515 v -4.375 h -4.39 c -0.22,0 -0.5,0 -0.5,-0.297 0,-0.297 0.27,-0.297 0.5,-0.297 h 4.39 v -4.391 c 0,-0.218 0,-0.5 0.3,-0.5 0.3,0 0.3,0.266 0.3,0.5 z"
   id="path35"
   inkscape:connector-curvature="0"
   style="fill:#000000;stroke-width:0" />
<path
   d="m 132.45,32.965 0,0.016 0,0.016 0,0.016 0,0.015 0,0.015 0,0.014 0,0.014 0,0.013 0,0.013 0,0.012 0,0.012 0,0.012 0,0.011 0,0.011 -0.01,0.01 0,0.01 0,0.01 0,0.009 0,0.009 0,0.008 0,0.008 0,0.008 -0.01,0.007 0,0.007 0,0.007 0,0.007 -0.01,0.012 0,0.01 -0.01,0.01 -0.01,0.009 -0.01,0.007 -0.01,0.007 -0.01,0.006 -0.01,0.005 -0.01,0.004 -0.02,0.004 0,10e-4 -0.01,0.002 -0.01,10e-4 -0.01,0.001 -0.01,10e-4 -0.01,10e-4 -0.01,0.001 -0.01,0 -0.01,10e-4 -0.01,0 -0.01,10e-4 -0.01,0 -0.02,0 -0.01,0.001 -0.01,0 -0.01,0 -0.02,0 -0.01,0 c -0.39,-0.422 -1.19,-1.016 -2.82,-1.016 v -0.453 c 0.36,0 1.16,0 2.03,0.406 v -8.281 c 0,-0.562 -0.04,-0.766 -1.45,-0.766 h -0.48 v -0.453 c 0.42,0.032 1.97,0.032 2.48,0.032 0.53,0 2.06,0 2.49,-0.032 v 0.453 h -0.49 c -1.4,0 -1.45,0.204 -1.45,0.766 z"
   id="path37"
   inkscape:connector-curvature="0"
   style="fill:#000000;stroke-width:0" />
<line
   x1="127.87"
   y1="15.977"
   x2="135.67999"
   y2="15.977"
   id="line39"
   style="stroke-width:0.63800001" />
<path
   d="m 130.79,6.7617 -0.01,-7e-4 -0.01,-7e-4 -0.01,-8e-4 -0.01,-7e-4 -0.02,-8e-4 -0.01,-8e-4 -0.01,-8e-4 -0.01,-8e-4 -0.02,-0.0017 -0.02,-0.0018 -0.01,-0.0019 -0.02,-0.0022 -0.02,-0.0022 -0.01,-0.0025 -0.01,-0.0028 -0.02,-0.003 -0.01,-0.0032 -0.01,-0.0036 -0.01,-0.0038 -0.01,-0.0042 -0.01,-0.0046 -0.01,-0.005 0,-0.0054 -0.01,-0.0058 -0.01,-0.0063 0,-0.0067 -0.01,-0.0073 0,-0.0078 0,-0.0083 -0.01,-0.0089 0,-0.0095 0,-0.0101 0,-0.0108 0,-0.0114 0,-0.0121 -0.01,-0.0129 c 0,-0.1562 0.08,-0.1562 0.36,-0.1562 h 0.74 c 1.34,0 1.95,-1.1094 1.95,-2.6406 0,-2.0782 -1.08,-2.6407 -1.86,-2.6407 -0.76,0 -2.06,0.3594 -2.53,1.4219 0.52,-0.0781 0.97,0.2031 0.97,0.7656 0,0.4688 -0.33,0.7813 -0.77,0.7813 -0.39,0 -0.79,-0.2188 -0.79,-0.8281 0,-1.4063 1.4,-2.56253 3.17,-2.56253 1.89,0 3.3,1.43753 3.3,3.04683 0,1.4688 -1.19,2.6094 -2.71,2.875 1.38,0.3907 2.27,1.5625 2.27,2.7969 0,1.2498 -1.3,2.1718 -2.85,2.1718 -1.59,0 -2.76,-0.969 -2.76,-2.1249 0,-0.6406 0.5,-0.7656 0.73,-0.7656 0.33,0 0.72,0.25 0.72,0.7187 0,0.5156 -0.39,0.7348 -0.73,0.7348 -0.1,0 -0.13,0 -0.17,-0.016 0.59,1.078 2.09,1.078 2.17,1.078 0.53,0 1.56,-0.234 1.56,-1.7968 0,-0.2969 -0.05,-1.1875 -0.52,-1.875 -0.46,-0.7031 -1.01,-0.75 -1.43,-0.7656 z"
   id="path41"
   inkscape:connector-curvature="0"
   style="fill:#000000;stroke-width:0" />
<path
   d="m 142.67,17.945 -0.02,0.04 -0.02,0.042 -0.02,0.042 -0.02,0.043 -0.02,0.044 -0.03,0.044 -0.02,0.045 -0.03,0.044 -0.03,0.045 -0.03,0.045 -0.03,0.044 -0.04,0.044 -0.04,0.043 -0.03,0.043 -0.04,0.041 -0.05,0.041 -0.04,0.039 -0.05,0.038 -0.05,0.036 -0.05,0.035 -0.05,0.033 -0.05,0.03 -0.06,0.029 -0.06,0.026 -0.06,0.024 -0.06,0.021 -0.07,0.018 -0.06,0.015 -0.07,0.013 -0.07,0.009 -0.08,0.005 -0.07,0.002 c -1.8,0 -3.74,-2.328 -3.74,-4.672 0,-1.578 0.92,-2.5 2,-2.5 l 0.05,0.312 c -0.66,0 -1.02,0.594 -1.02,1.532 0,0.875 0.49,2.656 0.8,3.312 0.53,1.125 1.28,1.688 1.91,1.688 1.04,0 1.25,-1.297 1.25,-1.422 0,-0.016 -0.05,-0.235 -0.07,-0.266 l -0.78,-3.109 c -0.08,-0.266 -0.08,-0.297 -0.3,-0.61 -0.35,-0.437 -1.04,-1.125 -1.79,-1.125 l -0.05,-0.312 c 0.88,0 1.63,0.687 2.06,1.203 0.16,-0.937 0.91,-1.203 1.39,-1.203 0.47,0 0.86,0.281 1.14,0.859 0.25,0.532 0.47,1.5 0.47,1.563 0,0.094 -0.06,0.156 -0.15,0.156 -0.14,0 -0.16,-0.078 -0.22,-0.328 -0.24,-0.938 -0.55,-1.938 -1.19,-1.938 -0.47,0 -0.5,0.422 -0.5,0.735 0,0.359 0.05,0.547 0.19,1.156 0.11,0.406 0.2,0.75 0.33,1.219 0.57,2.375 0.72,2.953 0.72,3.047 0,0.218 -0.18,0.39 -0.41,0.39 -0.52,0 -0.64,-0.547 -0.67,-0.75 z"
   id="path43"
   inkscape:connector-curvature="0"
   style="fill:#000000;stroke-width:0" />
<path
   d="m 146.48,10.461 1.18,1.156 c 1.75,1.531 2.42,2.141 2.42,3.25 0,1.266 -1.02,2.172 -2.38,2.172 -1.25,0 -2.08,-1.031 -2.08,-2.031 0,-0.625 0.55,-0.625 0.6,-0.625 0.19,0 0.58,0.14 0.58,0.594 0,0.296 -0.21,0.578 -0.6,0.578 -0.09,0 -0.11,0 -0.14,0 0.25,0.718 0.86,1.125 1.5,1.125 1.02,0 1.5,-0.891 1.5,-1.813 0,-0.89 -0.56,-1.781 -1.17,-2.469 l -2.14,-2.39 c -0.13,-0.1096 -0.13,-0.1408 -0.13,-0.4064 h 4.15 l 0.31,1.9374 h -0.28 c -0.07,-0.328 -0.14,-0.828 -0.25,-0.984 -0.08,-0.094 -0.82,-0.094 -1.07,-0.094 z"
   id="path45"
   inkscape:connector-curvature="0"
   style="fill:#000000;stroke-width:0" />
<path
   d="m 158.67,18.477 -0.04,-0.01 -0.05,-0.011 -0.04,-0.013 -0.04,-0.014 -0.04,-0.016 -0.04,-0.017 -0.03,-0.018 -0.04,-0.019 -0.03,-0.021 -0.03,-0.021 -0.03,-0.023 -0.03,-0.023 -0.03,-0.025 -0.02,-0.025 -0.03,-0.026 -0.02,-0.027 -0.02,-0.027 -0.02,-0.028 -0.01,-0.029 -0.02,-0.029 -0.02,-0.029 -0.01,-0.03 -0.01,-0.03 -0.01,-0.03 -0.01,-0.03 -0.01,-0.031 -0.01,-0.03 0,-0.03 -0.01,-0.03 0,-0.03 0,-0.03 0,-0.03 c 0,-0.375 0.31,-0.5 0.53,-0.5 0.47,0 0.81,0.407 0.81,0.844 0,0.656 -0.76,0.969 -1.43,0.969 -0.97,0 -1.5,-0.953 -1.65,-1.266 -0.37,1.203 -1.35,1.266 -1.64,1.266 -1.62,0 -2.48,-2.094 -2.48,-2.438 0,-0.062 0.06,-0.14 0.17,-0.14 0.13,0 0.16,0.093 0.19,0.156 0.55,1.766 1.61,2.094 2.08,2.094 0.7,0 0.86,-0.657 0.86,-1.047 0,-0.344 -0.1,-0.719 -0.3,-1.469 l -0.53,-2.187 c -0.25,-0.954 -0.7,-1.829 -1.55,-1.829 -0.08,0 -0.47,0 -0.81,0.204 0.58,0.125 0.7,0.593 0.7,0.781 0,0.328 -0.23,0.515 -0.54,0.515 -0.38,0 -0.8,-0.343 -0.8,-0.843 0,-0.672 0.75,-0.969 1.44,-0.969 0.76,0 1.29,0.594 1.64,1.25 0.25,-0.938 1.04,-1.25 1.64,-1.25 1.61,0 2.47,2.078 2.47,2.422 0,0.094 -0.07,0.156 -0.16,0.156 -0.14,0 -0.16,-0.078 -0.2,-0.219 -0.44,-1.39 -1.36,-2.047 -2.07,-2.047 -0.56,0 -0.86,0.422 -0.86,1.063 0,0.359 0.07,0.609 0.32,1.656 l 0.56,2.156 c 0.23,0.954 0.76,1.657 1.5,1.657 0.03,0 0.48,0 0.81,-0.203 z"
   id="path47"
   inkscape:connector-curvature="0"
   style="fill:#000000;stroke-width:0" />
<path
   d="m 163.24,22.496 0.09,0.031 0.08,0.033 0.08,0.036 0.08,0.039 0.08,0.04 0.08,0.044 0.07,0.046 0.08,0.047 0.07,0.051 0.06,0.052 0.07,0.054 0.06,0.057 0.06,0.058 0.06,0.06 0.06,0.062 0.05,0.064 0.05,0.065 0.05,0.067 0.04,0.068 0.04,0.07 0.04,0.071 0.04,0.072 0.03,0.074 0.03,0.075 0.03,0.076 0.02,0.077 0.02,0.078 0.02,0.079 0.01,0.079 0.01,0.081 0,0.081 0,0.082 c 0,0.922 -0.98,1.547 -2.04,1.547 -1.13,0 -1.99,-0.672 -1.99,-1.532 0,-0.359 0.25,-0.578 0.58,-0.578 0.35,0 0.56,0.25 0.56,0.578 0,0.547 -0.51,0.547 -0.68,0.547 0.34,0.547 1.07,0.703 1.48,0.703 0.45,0 1.06,-0.25 1.06,-1.25 0,-0.14 -0.01,-0.781 -0.31,-1.281 -0.33,-0.531 -0.7,-0.562 -0.98,-0.578 -0.1,-0.016 -0.36,-0.031 -0.44,-0.031 -0.09,-0.016 -0.17,-0.016 -0.17,-0.141 0,-0.109 0.08,-0.109 0.26,-0.109 h 0.5 c 0.91,0 1.33,-0.766 1.33,-1.86 0,-1.515 -0.78,-1.843 -1.26,-1.843 -0.49,0 -1.32,0.187 -1.71,0.859 0.39,-0.062 0.74,0.188 0.74,0.609 0,0.407 -0.3,0.625 -0.63,0.625 -0.26,0 -0.62,-0.156 -0.62,-0.656 0,-1.015 1.03,-1.75 2.25,-1.75 1.36,0 2.37,1.016 2.37,2.156 0,0.922 -0.7,1.782 -1.86,2.016 z"
   id="path49"
   inkscape:connector-curvature="0"
   style="fill:#000000;stroke-width:0" />
<path
   d="m 175.97,15.664 h 4.39 c 0.22,0 0.5,0 0.5,0.281 0,0.313 -0.26,0.313 -0.5,0.313 h -4.39 v 4.375 c 0,0.234 0,0.515 -0.28,0.515 -0.31,0 -0.31,-0.265 -0.31,-0.515 v -4.375 h -4.39 c -0.22,0 -0.5,0 -0.5,-0.297 0,-0.297 0.26,-0.297 0.5,-0.297 h 4.39 v -4.391 c 0,-0.218 0,-0.5 0.3,-0.5 0.29,0 0.29,0.266 0.29,0.5 z"
   id="path51"
   inkscape:connector-curvature="0"
   style="fill:#000000;stroke-width:0" />
<path
   d="m 191.09,32.965 0,0.016 0,0.016 0,0.016 0,0.015 0,0.015 0,0.014 0,0.014 0,0.013 0,0.013 -0.01,0.012 0,0.012 0,0.012 0,0.011 0,0.011 0,0.01 0,0.01 0,0.01 0,0.009 0,0.009 0,0.008 -0.01,0.008 0,0.008 0,0.007 0,0.007 0,0.014 -0.01,0.012 -0.01,0.01 0,0.01 -0.01,0.009 -0.01,0.007 -0.01,0.007 -0.01,0.006 -0.01,0.005 -0.02,0.004 -0.01,0.004 -0.01,10e-4 -0.01,0.002 0,10e-4 -0.01,0.001 -0.01,10e-4 -0.01,10e-4 -0.01,0.001 -0.01,0 -0.01,10e-4 -0.01,0 -0.02,10e-4 -0.01,0 -0.01,0 -0.01,0.001 -0.02,0 -0.01,0 -0.01,0 -0.02,0 c -0.39,-0.422 -1.18,-1.016 -2.81,-1.016 v -0.453 c 0.36,0 1.16,0 2.03,0.406 v -8.281 c 0,-0.562 -0.04,-0.766 -1.45,-0.766 h -0.49 v -0.453 c 0.43,0.032 1.97,0.032 2.49,0.032 0.53,0 2.06,0 2.48,-0.032 v 0.453 h -0.48 c -1.41,0 -1.45,0.204 -1.45,0.766 z"
   id="path53"
   inkscape:connector-curvature="0"
   style="fill:#000000;stroke-width:0" />
<line
   x1="186.50999"
   y1="15.977"
   x2="194.31"
   y2="15.977"
   id="line55"
   style="stroke-width:0.63800001" />
<path
   d="m 192.24,11.402 0,0.015 0,0.014 0,0.014 0,0.013 0,0.026 0,0.025 0,0.023 0,0.022 0,0.021 0,0.02 0,0.019 0,0.017 -0.01,0.017 0,0.015 0,0.015 -0.01,0.013 0,0.012 -0.01,0.012 0,0.01 -0.01,0.01 0,0.009 -0.01,0.008 -0.01,0.007 -0.01,0.006 -0.01,0.006 -0.01,0.005 -0.01,0.004 -0.02,0.004 -0.01,0.003 -0.01,0.002 -0.02,0.002 -0.02,10e-4 -0.02,10e-4 -0.01,0 -0.01,0 c -0.12,0 -0.17,0 -0.29,-0.203 l -4.8,-7.422 h 0.41 l 3.86,6 v -6 h -3.86 -0.41 V 3.7148 h 4.19 V 2.2617 c 0,-0.5781 -0.03,-0.75 -1.19,-0.75 H 189.6 V 1.0586 c 0.38,0.0312 1.63,0.0312 2.08,0.0312 0.44,0 1.7,0 2.08,-0.0312 v 0.4531 h -0.31 c -1.16,0 -1.21,0.1719 -1.21,0.75 v 1.4531 h 1.61 V 4.168 h -1.61 z"
   id="path57"
   inkscape:connector-curvature="0"
   style="fill:#000000;stroke-width:0" />
<path
   d="m 201.3,17.945 -0.01,0.04 -0.02,0.042 -0.02,0.042 -0.02,0.043 -0.02,0.044 -0.03,0.044 -0.03,0.045 -0.02,0.044 -0.03,0.045 -0.03,0.045 -0.04,0.044 -0.03,0.044 -0.04,0.043 -0.04,0.043 -0.04,0.041 -0.04,0.041 -0.04,0.039 -0.05,0.038 -0.05,0.036 -0.05,0.035 -0.05,0.033 -0.05,0.03 -0.06,0.029 -0.06,0.026 -0.06,0.024 -0.06,0.021 -0.07,0.018 -0.07,0.015 -0.06,0.013 -0.08,0.009 -0.07,0.005 -0.08,0.002 c -1.79,0 -3.73,-2.328 -3.73,-4.672 0,-1.578 0.92,-2.5 2,-2.5 l 0.05,0.312 c -0.66,0 -1.02,0.594 -1.02,1.532 0,0.875 0.48,2.656 0.8,3.312 0.53,1.125 1.28,1.688 1.9,1.688 1.05,0 1.25,-1.297 1.25,-1.422 0,-0.016 -0.04,-0.235 -0.06,-0.266 l -0.78,-3.109 c -0.08,-0.266 -0.08,-0.297 -0.3,-0.61 -0.36,-0.437 -1.04,-1.125 -1.79,-1.125 l -0.05,-0.312 c 0.87,0 1.62,0.687 2.06,1.203 0.16,-0.937 0.91,-1.203 1.39,-1.203 0.47,0 0.86,0.281 1.14,0.859 0.25,0.532 0.47,1.5 0.47,1.563 0,0.094 -0.06,0.156 -0.16,0.156 -0.14,0 -0.15,-0.078 -0.21,-0.328 -0.24,-0.938 -0.55,-1.938 -1.19,-1.938 -0.47,0 -0.5,0.422 -0.5,0.735 0,0.359 0.05,0.547 0.19,1.156 0.11,0.406 0.2,0.75 0.32,1.219 0.58,2.375 0.72,2.953 0.72,3.047 0,0.218 -0.17,0.39 -0.4,0.39 -0.52,0 -0.64,-0.547 -0.68,-0.75 z"
   id="path59"
   inkscape:connector-curvature="0"
   style="fill:#000000;stroke-width:0" />
<path
   d="m 206.93,13.523 0.09,0.031 0.08,0.033 0.09,0.036 0.08,0.039 0.07,0.041 0.08,0.043 0.07,0.046 0.08,0.048 0.07,0.05 0.06,0.052 0.07,0.055 0.06,0.056 0.06,0.058 0.06,0.06 0.06,0.062 0.05,0.064 0.05,0.065 0.05,0.067 0.04,0.068 0.04,0.07 0.04,0.071 0.04,0.073 0.03,0.073 0.03,0.075 0.03,0.076 0.02,0.077 0.02,0.078 0.02,0.079 0.01,0.08 0.01,0.08 0,0.081 0.01,0.082 c 0,0.922 -0.99,1.547 -2.05,1.547 -1.13,0 -1.99,-0.672 -1.99,-1.531 0,-0.36 0.25,-0.578 0.58,-0.578 0.35,0 0.56,0.25 0.56,0.578 0,0.547 -0.51,0.547 -0.68,0.547 0.34,0.547 1.08,0.703 1.48,0.703 0.45,0 1.06,-0.25 1.06,-1.25 0,-0.141 -0.01,-0.781 -0.31,-1.281 -0.33,-0.532 -0.7,-0.563 -0.98,-0.579 -0.1,-0.015 -0.36,-0.031 -0.44,-0.031 -0.09,-0.015 -0.17,-0.015 -0.17,-0.14 0,-0.11 0.08,-0.11 0.26,-0.11 h 0.5 c 0.91,0 1.33,-0.765 1.33,-1.859 0,-1.5158 -0.78,-1.8439 -1.26,-1.8439 -0.49,0 -1.32,0.1875 -1.71,0.8589 0.39,-0.062 0.74,0.188 0.74,0.61 0,0.406 -0.3,0.625 -0.63,0.625 -0.26,0 -0.62,-0.156 -0.62,-0.656 0,-1.016 1.03,-1.7504 2.25,-1.7504 1.36,0 2.37,1.0154 2.37,2.1564 0,0.922 -0.7,1.781 -1.86,2.015 z"
   id="path61"
   inkscape:connector-curvature="0"
   style="fill:#000000;stroke-width:0" />
<path
   d="m 217.31,18.477 -0.05,-0.01 -0.04,-0.011 -0.04,-0.013 -0.04,-0.014 -0.04,-0.016 -0.04,-0.017 -0.04,-0.018 -0.03,-0.019 -0.03,-0.021 -0.04,-0.021 -0.03,-0.023 -0.02,-0.023 -0.03,-0.025 -0.02,-0.025 -0.03,-0.026 -0.02,-0.027 -0.02,-0.027 -0.02,-0.028 -0.02,-0.029 -0.01,-0.029 -0.02,-0.029 -0.01,-0.03 -0.01,-0.03 -0.02,-0.03 0,-0.03 -0.01,-0.031 -0.01,-0.03 -0.01,-0.03 0,-0.03 0,-0.03 0,-0.03 -0.01,-0.03 c 0,-0.375 0.32,-0.5 0.54,-0.5 0.46,0 0.81,0.407 0.81,0.844 0,0.656 -0.77,0.969 -1.44,0.969 -0.97,0 -1.5,-0.953 -1.64,-1.266 -0.37,1.203 -1.36,1.266 -1.64,1.266 -1.63,0 -2.48,-2.094 -2.48,-2.438 0,-0.062 0.06,-0.14 0.17,-0.14 0.12,0 0.15,0.093 0.18,0.156 0.55,1.766 1.61,2.094 2.08,2.094 0.71,0 0.86,-0.657 0.86,-1.047 0,-0.344 -0.09,-0.719 -0.29,-1.469 l -0.54,-2.187 c -0.25,-0.954 -0.7,-1.829 -1.54,-1.829 -0.08,0 -0.47,0 -0.82,0.204 0.58,0.125 0.71,0.593 0.71,0.781 0,0.328 -0.24,0.515 -0.55,0.515 -0.37,0 -0.8,-0.343 -0.8,-0.843 0,-0.672 0.75,-0.969 1.44,-0.969 0.77,0 1.3,0.594 1.64,1.25 0.25,-0.938 1.05,-1.25 1.64,-1.25 1.61,0 2.47,2.078 2.47,2.422 0,0.094 -0.06,0.156 -0.15,0.156 -0.15,0 -0.16,-0.078 -0.21,-0.219 -0.44,-1.39 -1.36,-2.047 -2.06,-2.047 -0.56,0 -0.86,0.422 -0.86,1.063 0,0.359 0.06,0.609 0.31,1.656 l 0.57,2.156 c 0.23,0.954 0.76,1.657 1.5,1.657 0.03,0 0.48,0 0.81,-0.203 z"
   id="path63"
   inkscape:connector-curvature="0"
   style="fill:#000000;stroke-width:0" />
<path
   d="m 221.93,20.418 v -0.969 c 0,-0.406 -0.03,-0.531 -0.85,-0.531 h -0.23 v -0.344 c 0.45,0.031 1.03,0.031 1.5,0.031 0.47,0 1.06,0 1.51,-0.031 v 0.344 h -0.23 c -0.83,0 -0.84,0.125 -0.84,0.531 v 0.969 h 1.11 v 0.344 h -1.11 v 5.078 c 0,0.219 0,0.281 -0.19,0.281 -0.1,0 -0.13,0 -0.22,-0.125 l -3.42,-5.234 h 0.31 l 2.72,4.156 v -4.156 h -2.72 -0.31 v -0.344 z"
   id="path65"
   inkscape:connector-curvature="0"
   style="fill:#000000;stroke-width:0" />
<path
   d="M 234.61,15.664 H 239 c 0.22,0 0.5,0 0.5,0.281 0,0.313 -0.27,0.313 -0.5,0.313 h -4.39 v 4.375 c 0,0.234 0,0.515 -0.28,0.515 -0.31,0 -0.31,-0.265 -0.31,-0.515 v -4.375 h -4.4 c -0.21,0 -0.5,0 -0.5,-0.297 0,-0.297 0.27,-0.297 0.5,-0.297 h 4.4 v -4.391 c 0,-0.218 0,-0.5 0.29,-0.5 0.3,0 0.3,0.266 0.3,0.5 z"
   id="path67"
   inkscape:connector-curvature="0"
   style="fill:#000000;stroke-width:0" />
<path
   d="m 246.87,12.758 0,0.042 -0.01,0.041 0,0.041 -0.01,0.039 -0.01,0.039 -0.01,0.038 -0.01,0.037 -0.02,0.036 -0.01,0.035 -0.02,0.034 -0.02,0.033 -0.02,0.031 -0.02,0.031 -0.03,0.029 -0.02,0.028 -0.03,0.026 -0.03,0.026 -0.02,0.024 -0.03,0.022 -0.03,0.021 -0.04,0.02 -0.03,0.018 -0.03,0.017 -0.03,0.015 -0.04,0.013 -0.03,0.012 -0.04,0.01 -0.03,0.008 -0.04,0.007 -0.04,0.004 -0.03,0.003 -0.04,10e-4 c -0.45,0 -0.78,-0.391 -0.78,-0.766 0,-0.468 0.39,-0.781 0.77,-0.781 0.46,0 0.78,0.375 0.78,0.766 z"
   id="path69"
   inkscape:connector-curvature="0"
   style="fill:#000000;stroke-width:0" />
<path
   d="m 253.86,12.758 0,0.042 0,0.041 -0.01,0.041 0,0.039 -0.01,0.039 -0.01,0.038 -0.02,0.037 -0.01,0.036 -0.02,0.035 -0.02,0.034 -0.02,0.033 -0.02,0.031 -0.02,0.031 -0.02,0.029 -0.03,0.028 -0.02,0.026 -0.03,0.026 -0.03,0.024 -0.03,0.022 -0.03,0.021 -0.03,0.02 -0.03,0.018 -0.03,0.017 -0.04,0.015 -0.03,0.013 -0.04,0.012 -0.03,0.01 -0.04,0.008 -0.03,0.007 -0.04,0.004 -0.04,0.003 -0.03,10e-4 c -0.45,0 -0.78,-0.391 -0.78,-0.766 0,-0.468 0.39,-0.781 0.76,-0.781 0.47,0 0.78,0.375 0.78,0.766 z"
   id="path71"
   inkscape:connector-curvature="0"
   style="fill:#000000;stroke-width:0" />
<path
   d="m 260.84,12.758 0,0.042 0,0.041 -0.01,0.041 -0.01,0.039 -0.01,0.039 -0.01,0.038 -0.01,0.037 -0.01,0.036 -0.02,0.035 -0.02,0.034 -0.02,0.033 -0.02,0.031 -0.02,0.031 -0.03,0.029 -0.02,0.028 -0.03,0.026 -0.02,0.026 -0.03,0.024 -0.03,0.022 -0.03,0.021 -0.03,0.02 -0.04,0.018 -0.03,0.017 -0.03,0.015 -0.04,0.013 -0.03,0.012 -0.04,0.01 -0.03,0.008 -0.04,0.007 -0.03,0.004 -0.04,0.003 -0.04,10e-4 c -0.45,0 -0.78,-0.391 -0.78,-0.766 0,-0.468 0.39,-0.781 0.77,-0.781 0.47,0 0.78,0.375 0.78,0.766 z"
   id="path73"
   inkscape:connector-curvature="0"
   style="fill:#000000;stroke-width:0" />
</g></svg>
