<?xml version="1.0" encoding="UTF-8" standalone="no"?>
<svg
   xmlns:dc="http://purl.org/dc/elements/1.1/"
   xmlns:cc="http://creativecommons.org/ns#"
   xmlns:rdf="http://www.w3.org/1999/02/22-rdf-syntax-ns#"
   xmlns:svg="http://www.w3.org/2000/svg"
   xmlns="http://www.w3.org/2000/svg"
   xmlns:sodipodi="http://sodipodi.sourceforge.net/DTD/sodipodi-0.dtd"
   xmlns:inkscape="http://www.inkscape.org/namespaces/inkscape"
   version="1.1"
   id="body"
   width="483.78598"
   height="20.004747"
   viewBox="0 0 0.67192497 0.027784371"
   preserveAspectRatio="none"
   inkscape:version="0.48.3.1 r9886"
   sodipodi:docname="ch4-Z-G-7.svg">
  <metadata
     id="metadata93">
    <rdf:RDF>
      <cc:Work
         rdf:about="">
        <dc:format>image/svg+xml</dc:format>
        <dc:type
           rdf:resource="http://purl.org/dc/dcmitype/StillImage" />
      </cc:Work>
    </rdf:RDF>
  </metadata>
  <defs
     id="defs91" />
  <sodipodi:namedview
     pagecolor="#ffffff"
     bordercolor="#666666"
     borderopacity="1"
     objecttolerance="10"
     gridtolerance="10"
     guidetolerance="10"
     inkscape:pageopacity="0"
     inkscape:pageshadow="2"
     inkscape:window-width="640"
     inkscape:window-height="480"
     id="namedview89"
     showgrid="false"
     inkscape:zoom="0.32777778"
     inkscape:cx="382.30469"
     inkscape:cy="458.82151"
     inkscape:window-x="0"
     inkscape:window-y="24"
     inkscape:window-maximized="0"
     inkscape:current-layer="body" />
  <title
     id="title3">SVG drawing</title>
  <desc
     id="desc5">This was produced by version 4.4 of GNU libplot, a free library for exporting 2-D vector graphics.</desc>
  <g
     id="content"
     transform="matrix(0.0017361,0,0,-0.0017361,-2.7126562e-4,0.02930346)"
     xml:space="preserve"
     stroke-miterlimit="10.433"
     font-style="normal"
     font-variant="normal"
     font-weight="normal"
     font-stretch="normal"
     font-size-adjust="none"
     letter-spacing="normal"
     word-spacing="normal"
     style="font-style:normal;font-variant:normal;font-weight:normal;font-stretch:normal;letter-spacing:normal;word-spacing:normal;text-anchor:start;fill:none;stroke:#000000;stroke-linecap:butt;stroke-linejoin:miter;stroke-miterlimit:10.43299961;stroke-opacity:1;stroke-dasharray:none;stroke-dashoffset:0">
<path
   d="M 6.4258,7.5898 H 6.0664 C 6.0195,7.3242 5.8945,6.4492 5.7383,6.1836 5.6289,6.043 4.7227,6.043 4.2383,6.043 H 1.3008 c 0.4219,0.375 1.4062,1.3906 1.8125,1.7656 2.4219,2.2344 3.3125,3.0474 3.3125,4.6254 0,1.828 -1.4531,3.047 -3.2969,3.047 -1.8437,0 -2.92187,-1.563 -2.92187,-2.938 0,-0.812 0.70313,-0.812 0.75,-0.812 0.32817,0 0.73437,0.25 0.73437,0.75 0,0.453 -0.2969,0.75 -0.73437,0.75 -0.15625,0 -0.1875,0 -0.23437,-0.016 0.31254,1.078 1.17184,1.812 2.20314,1.812 1.3437,0 2.1719,-1.125 2.1719,-2.593 0,-1.344 -0.7813,-2.5317 -1.6875,-3.5473 L 0.20703,5.293 V 4.918 H 6.0039 z"
   id="path9"
   inkscape:connector-curvature="0"
   style="fill:#000000;stroke-width:0" />
<path
   d="m 22.395,10.074 0.041,0 0.043,10e-4 0.043,0.001 0.021,10e-4 0.022,0.002 0.021,10e-4 0.021,0.003 0.021,0.003 0.021,0.003 0.02,0.004 0.02,0.005 0.019,0.005 0.019,0.006 0.018,0.007 0.017,0.008 0.016,0.009 0.016,0.01 0.015,0.011 0.014,0.012 0.012,0.013 0.012,0.014 0.006,0.007 0.005,0.008 0.005,0.009 0.004,0.008 0.004,0.009 0.004,0.009 0.004,0.01 0.003,0.01 0.003,0.01 0.002,0.011 0.003,0.011 10e-4,0.011 0.002,0.012 10e-4,0.012 0,0.013 0.001,0.013 c 0,0.296 -0.266,0.296 -0.5,0.296 h -9.376 c -0.218,0 -0.5,0 -0.5,-0.281 0,-0.297 0.266,-0.297 0.5,-0.297 z"
   id="path11"
   inkscape:connector-curvature="0"
   style="fill:#000000;stroke-width:0" />
<path
   d="m 22.395,7.1055 0.041,0 0.043,6e-4 0.043,0.0013 0.021,0.0012 0.022,0.0015 0.021,0.002 0.021,0.0024 0.021,0.003 0.021,0.0036 0.02,0.0043 0.02,0.0049 0.019,0.0057 0.019,0.0066 0.018,0.0074 0.017,0.0083 0.016,0.0093 0.016,0.0103 0.015,0.0115 0.014,0.0125 0.012,0.0138 0.012,0.015 0.006,0.008 0.005,0.0083 0.005,0.0087 0.004,0.009 0.004,0.0094 0.004,0.0097 0.004,0.0101 0.003,0.0104 0.003,0.0109 0.002,0.0112 0.003,0.0117 10e-4,0.012 0.002,0.0124 10e-4,0.0129 0,0.0132 0.001,0.0137 c 0,0.2969 -0.266,0.2969 -0.5,0.2969 h -9.376 c -0.218,0 -0.5,0 -0.5,-0.2812 0,-0.3125 0.266,-0.3125 0.5,-0.3125 z"
   id="path13"
   inkscape:connector-curvature="0"
   style="fill:#000000;stroke-width:0" />
<path
   d="M 32.414,3.1367 32.33,3.0235 32.241,2.9127 32.149,2.8052 32.052,2.7014 32.002,2.6512 31.95,2.6021 31.898,2.5544 31.845,2.508 31.791,2.4631 31.736,2.4197 31.68,2.378 31.623,2.3379 31.565,2.2996 31.506,2.2632 31.446,2.2287 31.385,2.1963 31.324,2.166 31.261,2.1379 31.198,2.1121 31.133,2.0886 31.068,2.0676 31.001,2.0491 30.934,2.0333 30.866,2.0201 30.798,2.0097 30.728,2.0022 30.657,1.9976 30.586,1.9961 c -0.203,0 -0.953,0.0312 -1.203,0.7656 0.047,-0.0156 0.125,-0.0156 0.156,-0.0156 0.484,0 0.797,0.4062 0.797,0.7656 0,0.375 -0.297,0.5 -0.531,0.5 -0.266,0 -0.813,-0.1875 -0.813,-0.9687 0,-0.8125 0.688,-1.375 1.594,-1.375 1.578,0 3.187,1.4687 3.625,3.2343 l 1.562,6.2037 c 0.016,0.078 0.047,0.171 0.047,0.265 0,0.235 -0.187,0.391 -0.422,0.391 -0.14,0 -0.484,-0.063 -0.609,-0.531 L 33.617,6.5586 C 33.539,6.2617 33.539,6.2305 33.414,6.0586 33.086,5.6211 32.57,5.0742 31.805,5.0742 c -0.891,0 -0.969,0.875 -0.969,1.3125 0,0.9063 0.422,2.125 0.859,3.2656 0.172,0.4687 0.266,0.6877 0.266,0.9997 0,0.672 -0.469,1.282 -1.25,1.282 -1.469,0 -2.063,-2.3129 -2.063,-2.4379 0,-0.0625 0.079,-0.1406 0.188,-0.1406 0.141,0 0.156,0.0625 0.219,0.2812 0.375,1.3443 0.984,1.9693 1.609,1.9693 0.141,0 0.406,0 0.406,-0.516 0,-0.422 -0.172,-0.875 -0.406,-1.4845 -0.781,-2.0782 -0.781,-2.6094 -0.781,-2.9844 0,-1.5156 1.078,-1.8594 1.875,-1.8594 0.453,0 1.031,0.1406 1.594,0.7344 L 33.367,5.4805 C 33.117,4.543 32.961,3.918 32.414,3.1367 z"
   id="path15"
   inkscape:connector-curvature="0"
   style="fill:#000000;stroke-width:0" />
<path
   d="m 51.57,10.074 0.042,0 0.043,10e-4 0.043,0.001 0.021,10e-4 0.022,0.002 0.021,10e-4 0.021,0.003 0.021,0.003 0.021,0.003 0.02,0.004 0.02,0.005 0.019,0.005 0.018,0.006 0.018,0.007 0.018,0.008 0.016,0.009 0.016,0.01 0.015,0.011 0.013,0.012 0.013,0.013 0.012,0.014 0.005,0.007 0.006,0.008 0.004,0.009 0.005,0.008 0.004,0.009 0.004,0.009 0.004,0.01 0.003,0.01 0.003,0.01 0.002,0.011 0.002,0.011 0.002,0.011 10e-4,0.012 0.001,0.012 10e-4,0.013 0,0.013 c 0,0.296 -0.265,0.296 -0.5,0.296 h -9.375 c -0.218,0 -0.5,0 -0.5,-0.281 0,-0.297 0.266,-0.297 0.5,-0.297 z"
   id="path17"
   inkscape:connector-curvature="0"
   style="fill:#000000;stroke-width:0" />
<path
   d="m 51.57,7.1055 0.042,0 0.043,6e-4 0.043,0.0013 0.021,0.0012 0.022,0.0015 0.021,0.002 0.021,0.0024 0.021,0.003 0.021,0.0036 0.02,0.0043 0.02,0.0049 0.019,0.0057 0.018,0.0066 0.018,0.0074 0.018,0.0083 0.016,0.0093 0.016,0.0103 0.015,0.0115 0.013,0.0125 0.013,0.0138 0.012,0.015 0.005,0.008 0.006,0.0083 0.004,0.0087 0.005,0.009 0.004,0.0094 0.004,0.0097 0.004,0.0101 0.003,0.0104 0.003,0.0109 0.002,0.0112 0.002,0.0117 0.002,0.012 10e-4,0.0124 0.001,0.0129 10e-4,0.0132 0,0.0137 c 0,0.2969 -0.265,0.2969 -0.5,0.2969 h -9.375 c -0.218,0 -0.5,0 -0.5,-0.2812 0,-0.3125 0.266,-0.3125 0.5,-0.3125 z"
   id="path19"
   inkscape:connector-curvature="0"
   style="fill:#000000;stroke-width:0" />
<path
   d="m 61.984,15.106 0,0.016 0,0.016 0,0.016 0,0.015 0,0.015 0,0.014 0,0.013 0,0.014 0,0.013 -0.001,0.012 0,0.012 -10e-4,0.012 0,0.011 -10e-4,0.01 -0.001,0.011 0,0.01 -10e-4,0.009 -0.002,0.009 -10e-4,0.009 -10e-4,0.009 -0.002,0.008 -10e-4,0.008 -0.002,0.007 -0.002,0.007 -0.005,0.013 -0.005,0.012 -0.006,0.011 -0.007,0.01 -0.007,0.008 -0.009,0.008 -0.01,0.007 -0.011,0.006 -0.012,0.005 -0.013,0.004 -0.015,0.003 -0.007,0.002 -0.008,10e-4 -0.009,0.002 -0.009,10e-4 -0.009,0.001 -0.009,10e-4 -0.01,0 -0.01,10e-4 -0.011,10e-4 -0.011,0 -0.011,0.001 -0.012,0 -0.012,0 -0.013,0 -0.013,0 -0.014,0 -0.014,0 -0.014,10e-4 c -0.391,-0.422 -1.188,-1.016 -2.813,-1.016 v -0.453 c 0.36,0 1.157,0 2.032,0.406 V 6.1367 c 0,-0.5625 -0.047,-0.7656 -1.453,-0.7656 H 58.953 V 4.918 c 0.422,0.0312 1.969,0.0312 2.485,0.0312 0.531,0 2.062,0 2.484,-0.0312 v 0.4531 h -0.484 c -1.407,0 -1.454,0.2031 -1.454,0.7656 z"
   id="path21"
   inkscape:connector-curvature="0"
   style="fill:#000000;stroke-width:0" />
<path
   d="m 75.09,8.5898 h 4.39 c 0.219,0 0.5,0 0.5,0.2813 0,0.3125 -0.265,0.3125 -0.5,0.3125 h -4.39 v 4.3754 c 0,0.234 0,0.515 -0.281,0.515 -0.313,0 -0.313,-0.265 -0.313,-0.515 V 9.1836 h -4.391 c -0.218,0 -0.5,0 -0.5,-0.2969 0,-0.2969 0.266,-0.2969 0.5,-0.2969 h 4.391 V 4.1992 c 0,-0.2187 0,-0.5 0.297,-0.5 0.297,0 0.297,0.2656 0.297,0.5 z"
   id="path23"
   inkscape:connector-curvature="0"
   style="fill:#000000;stroke-width:0" />
<path
   d="M 88.617,3.1367 88.533,3.0235 88.444,2.9127 88.352,2.8052 88.255,2.7014 88.205,2.6512 88.154,2.6021 88.101,2.5544 88.048,2.508 87.994,2.4631 87.939,2.4197 87.883,2.378 87.826,2.3379 87.768,2.2996 87.709,2.2632 87.649,2.2287 87.589,2.1963 87.527,2.166 87.464,2.1379 87.401,2.1121 87.336,2.0886 87.271,2.0676 87.205,2.0491 87.137,2.0333 87.07,2.0201 87.001,2.0097 86.931,2.0022 86.86,1.9976 86.789,1.9961 c -0.203,0 -0.953,0.0312 -1.203,0.7656 0.047,-0.0156 0.125,-0.0156 0.156,-0.0156 0.485,0 0.797,0.4062 0.797,0.7656 0,0.375 -0.297,0.5 -0.531,0.5 -0.266,0 -0.813,-0.1875 -0.813,-0.9687 0,-0.8125 0.688,-1.375 1.594,-1.375 1.578,0 3.188,1.4687 3.625,3.2343 l 1.563,6.2037 c 0.015,0.078 0.046,0.171 0.046,0.265 0,0.235 -0.187,0.391 -0.421,0.391 -0.141,0 -0.485,-0.063 -0.61,-0.531 L 89.82,6.5586 C 89.742,6.2617 89.742,6.2305 89.617,6.0586 89.289,5.6211 88.773,5.0742 88.008,5.0742 c -0.891,0 -0.969,0.875 -0.969,1.3125 0,0.9063 0.422,2.125 0.859,3.2656 0.172,0.4687 0.266,0.6877 0.266,0.9997 0,0.672 -0.469,1.282 -1.25,1.282 -1.469,0 -2.062,-2.3129 -2.062,-2.4379 0,-0.0625 0.078,-0.1406 0.187,-0.1406 0.141,0 0.156,0.0625 0.219,0.2812 0.375,1.3443 0.984,1.9693 1.609,1.9693 0.141,0 0.406,0 0.406,-0.516 0,-0.422 -0.171,-0.875 -0.406,-1.4845 -0.781,-2.0782 -0.781,-2.6094 -0.781,-2.9844 0,-1.5156 1.078,-1.8594 1.875,-1.8594 0.453,0 1.031,0.1406 1.594,0.7344 L 89.57,5.4805 C 89.32,4.543 89.164,3.918 88.617,3.1367 z"
   id="path25"
   inkscape:connector-curvature="0"
   style="fill:#000000;stroke-width:0" />
<path
   d="m 99.426,16.246 0,0.001 0,0.001 0,0.002 0.001,0.002 0,0.002 10e-4,0.002 0.001,0.003 0.001,0.003 10e-4,0.003 0.001,0.004 0.001,0.004 10e-4,0.004 0.002,0.004 10e-4,0.004 0.003,0.01 0.004,0.01 0.004,0.011 0.003,0.011 0.004,0.012 0.005,0.012 0.004,0.012 0.009,0.026 0.008,0.025 0.005,0.013 0.004,0.012 0.004,0.013 0.004,0.011 0.003,0.012 0.004,0.011 0.003,0.01 0.003,0.009 0.001,0.005 0.001,0.004 10e-4,0.004 0.001,0.004 0.001,0.003 10e-4,0.004 0.001,0.003 0,0.003 0.001,0.002 0,0.002 0,0.002 10e-4,0.002 c 0,0.187 -0.157,0.297 -0.282,0.297 -0.078,0 -0.218,0 -0.343,-0.344 L 93.566,1.5273 c 0,-0.0156 -0.093,-0.25 -0.093,-0.2812 0,-0.1875 0.156,-0.29688 0.281,-0.29688 0.094,0 0.234,0.01562 0.359,0.34378 z"
   id="path27"
   inkscape:connector-curvature="0"
   style="fill:#000000;stroke-width:0" />
<path
   d="m 107.42,7.5898 h -0.36 C 107.01,7.3242 106.89,6.4492 106.73,6.1836 106.62,6.043 105.71,6.043 105.23,6.043 h -2.94 c 0.42,0.375 1.41,1.3906 1.82,1.7656 2.42,2.2344 3.31,3.0474 3.31,4.6254 0,1.828 -1.46,3.047 -3.3,3.047 -1.84,0 -2.92,-1.563 -2.92,-2.938 0,-0.812 0.7,-0.812 0.75,-0.812 0.33,0 0.73,0.25 0.73,0.75 0,0.453 -0.29,0.75 -0.73,0.75 -0.16,0 -0.19,0 -0.24,-0.016 0.32,1.078 1.18,1.812 2.21,1.812 1.34,0 2.17,-1.125 2.17,-2.593 0,-1.344 -0.78,-2.5317 -1.69,-3.5473 L 101.2,5.293 V 4.918 h 5.8 z"
   id="path29"
   inkscape:connector-curvature="0"
   style="fill:#000000;stroke-width:0" />
<path
   d="m 123.39,10.074 0.04,0 0.04,10e-4 0.04,0.001 0.03,10e-4 0.02,0.002 0.02,10e-4 0.02,0.003 0.02,0.003 0.02,0.003 0.02,0.004 0.02,0.005 0.02,0.005 0.02,0.006 0.02,0.007 0.01,0.008 0.02,0.009 0.02,0.01 0.01,0.011 0.01,0.012 0.02,0.013 0.01,0.014 0,0.007 0.01,0.008 0,0.009 0.01,0.008 0,0.009 0.01,0.009 0,0.01 0,0.01 0.01,0.01 0,0.011 0,0.011 0,0.011 0.01,0.012 0,0.012 0,0.013 0,0.013 c 0,0.296 -0.27,0.296 -0.5,0.296 h -9.38 c -0.22,0 -0.5,0 -0.5,-0.281 0,-0.297 0.27,-0.297 0.5,-0.297 z"
   id="path31"
   inkscape:connector-curvature="0"
   style="fill:#000000;stroke-width:0" />
<path
   d="m 123.39,7.1055 0.04,0 0.04,6e-4 0.04,0.0013 0.03,0.0012 0.02,0.0015 0.02,0.002 0.02,0.0024 0.02,0.003 0.02,0.0036 0.02,0.0043 0.02,0.0049 0.02,0.0057 0.02,0.0066 0.02,0.0074 0.01,0.0083 0.02,0.0093 0.02,0.0103 0.01,0.0115 0.01,0.0125 0.02,0.0138 0.01,0.015 0,0.008 0.01,0.0083 0,0.0087 0.01,0.009 0,0.0094 0.01,0.0097 0,0.0101 0,0.0104 0.01,0.0109 0,0.0112 0,0.0117 0,0.012 0.01,0.0124 0,0.0129 0,0.0132 0,0.0137 c 0,0.2969 -0.27,0.2969 -0.5,0.2969 h -9.38 c -0.22,0 -0.5,0 -0.5,-0.2812 0,-0.3125 0.27,-0.3125 0.5,-0.3125 z"
   id="path33"
   inkscape:connector-curvature="0"
   style="fill:#000000;stroke-width:0" />
<path
   d="m 133.78,15.106 0,0.016 0,0.016 0,0.016 0,0.015 0,0.015 0,0.014 0,0.013 0,0.014 0,0.013 0,0.012 0,0.012 0,0.012 0,0.011 0,0.01 0,0.011 0,0.01 0,0.009 -0.01,0.009 0,0.009 0,0.009 0,0.008 0,0.008 0,0.007 -0.01,0.007 0,0.013 -0.01,0.012 0,0.011 -0.01,0.01 -0.01,0.008 0,0.008 -0.01,0.007 -0.02,0.006 -0.01,0.005 -0.01,0.004 -0.01,0.003 -0.01,0.002 -0.01,10e-4 -0.01,0.002 -0.01,10e-4 -0.01,0.001 -0.01,10e-4 -0.01,0 -0.01,10e-4 -0.01,10e-4 -0.01,0 -0.01,0.001 -0.01,0 -0.01,0 -0.02,0 -0.01,0 -0.01,0 -0.02,0 -0.01,10e-4 c -0.39,-0.422 -1.19,-1.016 -2.81,-1.016 v -0.453 c 0.36,0 1.15,0 2.03,0.406 V 6.1367 c 0,-0.5625 -0.05,-0.7656 -1.46,-0.7656 h -0.48 V 4.918 c 0.42,0.0312 1.97,0.0312 2.48,0.0312 0.54,0 2.07,0 2.49,-0.0312 v 0.4531 h -0.49 c -1.4,0 -1.45,0.2031 -1.45,0.7656 z"
   id="path35"
   inkscape:connector-curvature="0"
   style="fill:#000000;stroke-width:0" />
<path
   d="m 146.91,8.5898 h 4.39 c 0.22,0 0.5,0 0.5,0.2813 0,0.3125 -0.27,0.3125 -0.5,0.3125 h -4.39 v 4.3754 c 0,0.234 0,0.515 -0.29,0.515 -0.31,0 -0.31,-0.265 -0.31,-0.515 V 9.1836 h -4.39 c -0.22,0 -0.5,0 -0.5,-0.2969 0,-0.2969 0.27,-0.2969 0.5,-0.2969 h 4.39 V 4.1992 c 0,-0.2187 0,-0.5 0.3,-0.5 0.3,0 0.3,0.2656 0.3,0.5 z"
   id="path37"
   inkscape:connector-curvature="0"
   style="fill:#000000;stroke-width:0" />
<path
   d="m 161.41,1.0586 0,0.0087 0,0.0086 0,0.0045 0,0.0046 0,0.0047 0,0.005 -0.01,0.0053 0,0.0056 0,0.0059 0,0.0064 -0.01,0.0068 0,0.0074 -0.01,0.0079 -0.01,0.0084 0,0.0092 -0.01,0.0098 -0.01,0.0105 -0.01,0.0113 0,0.006 -0.01,0.0061 -0.01,0.0064 0,0.0067 -0.01,0.0068 0,0.0071 -0.01,0.0073 -0.01,0.0076 -0.01,0.0078 0,0.0081 -0.01,0.0083 -0.01,0.0086 -0.01,0.0089 -0.01,0.0091 -0.01,0.0095 -0.01,0.0097 -0.01,0.0101 -0.01,0.0103 -0.01,0.0107 -0.01,0.0109 -0.01,0.0113 -0.02,0.0116 -0.01,0.012 -0.01,0.0122 c -1.58,1.6094 -2.47,4.2344 -2.47,7.4688 0,3.0939 0.74,5.7349 2.58,7.6249 0.17,0.141 0.17,0.172 0.17,0.219 0,0.094 -0.08,0.125 -0.16,0.125 -0.2,0 -1.5,-1.141 -2.28,-2.703 -0.81,-1.61 -1.17,-3.313 -1.17,-5.2659 0,-1.4063 0.22,-3.2969 1.05,-5 0.94,-1.9063 2.23,-2.93751 2.4,-2.93751 0.08,0 0.16,0.03125 0.16,0.12501 z"
   id="path39"
   inkscape:connector-curvature="0"
   style="fill:#000000;stroke-width:0" />
<path
   d="m 166.89,15.106 0,0.016 0,0.016 0,0.016 0,0.015 0,0.015 0,0.014 0,0.013 0,0.014 0,0.013 0,0.012 0,0.012 -0.01,0.012 0,0.011 0,0.01 0,0.011 0,0.01 0,0.009 0,0.009 0,0.009 0,0.009 0,0.008 -0.01,0.008 0,0.007 0,0.007 0,0.013 -0.01,0.012 -0.01,0.011 0,0.01 -0.01,0.008 -0.01,0.008 -0.01,0.007 -0.01,0.006 -0.01,0.005 -0.01,0.004 -0.02,0.003 -0.01,0.002 -0.01,10e-4 0,0.002 -0.01,10e-4 -0.01,0.001 -0.01,10e-4 -0.01,0 -0.01,10e-4 -0.01,10e-4 -0.01,0 -0.01,0.001 -0.02,0 -0.01,0 -0.01,0 -0.01,0 -0.02,0 -0.01,0 -0.02,10e-4 c -0.39,-0.422 -1.18,-1.016 -2.81,-1.016 v -0.453 c 0.36,0 1.16,0 2.03,0.406 V 6.1367 c 0,-0.5625 -0.04,-0.7656 -1.45,-0.7656 h -0.49 V 4.918 c 0.43,0.0312 1.97,0.0312 2.49,0.0312 0.53,0 2.06,0 2.48,-0.0312 v 0.4531 h -0.48 c -1.41,0 -1.45,0.2031 -1.45,0.7656 z"
   id="path41"
   inkscape:connector-curvature="0"
   style="fill:#000000;stroke-width:0" />
<path
   d="m 179.99,8.5898 h 4.39 c 0.22,0 0.5,0 0.5,0.2813 0,0.3125 -0.26,0.3125 -0.5,0.3125 h -4.39 v 4.3754 c 0,0.234 0,0.515 -0.28,0.515 -0.31,0 -0.31,-0.265 -0.31,-0.515 V 9.1836 h -4.39 c -0.22,0 -0.5,0 -0.5,-0.2969 0,-0.2969 0.26,-0.2969 0.5,-0.2969 h 4.39 V 4.1992 c 0,-0.2187 0,-0.5 0.3,-0.5 0.29,0 0.29,0.2656 0.29,0.5 z"
   id="path43"
   inkscape:connector-curvature="0"
   style="fill:#000000;stroke-width:0" />
<path
   d="M 193.53,3.1367 193.45,3.0235 193.36,2.9127 193.27,2.8052 193.17,2.7014 193.12,2.6512 193.07,2.6021 193.02,2.5544 192.96,2.508 192.91,2.4631 192.85,2.4197 192.8,2.378 192.74,2.3379 192.68,2.2996 192.62,2.2632 192.56,2.2287 192.5,2.1963 192.44,2.166 192.38,2.1379 192.31,2.1121 192.25,2.0886 192.18,2.0676 192.12,2.0491 192.05,2.0333 191.98,2.0201 191.91,2.0097 191.84,2.0022 191.77,1.9976 191.7,1.9961 c -0.2,0 -0.95,0.0312 -1.2,0.7656 0.05,-0.0156 0.12,-0.0156 0.16,-0.0156 0.48,0 0.79,0.4062 0.79,0.7656 0,0.375 -0.29,0.5 -0.53,0.5 -0.26,0 -0.81,-0.1875 -0.81,-0.9687 0,-0.8125 0.69,-1.375 1.59,-1.375 1.58,0 3.19,1.4687 3.63,3.2343 l 1.56,6.2037 c 0.02,0.078 0.05,0.171 0.05,0.265 0,0.235 -0.19,0.391 -0.42,0.391 -0.14,0 -0.49,-0.063 -0.61,-0.531 l -1.18,-4.6724 c -0.07,-0.2969 -0.07,-0.3281 -0.2,-0.5 -0.33,-0.4375 -0.84,-0.9844 -1.61,-0.9844 -0.89,0 -0.97,0.875 -0.97,1.3125 0,0.9063 0.43,2.125 0.86,3.2656 0.17,0.4687 0.27,0.6877 0.27,0.9997 0,0.672 -0.47,1.282 -1.25,1.282 -1.47,0 -2.06,-2.3129 -2.06,-2.4379 0,-0.0625 0.07,-0.1406 0.18,-0.1406 0.14,0 0.16,0.0625 0.22,0.2812 0.38,1.3443 0.99,1.9693 1.61,1.9693 0.14,0 0.41,0 0.41,-0.516 0,-0.422 -0.17,-0.875 -0.41,-1.4845 C 191,7.5273 191,6.9961 191,6.6211 c 0,-1.5156 1.08,-1.8594 1.88,-1.8594 0.45,0 1.03,0.1406 1.59,0.7344 l 0.01,-0.0156 C 194.23,4.543 194.08,3.918 193.53,3.1367 z"
   id="path45"
   inkscape:connector-curvature="0"
   style="fill:#000000;stroke-width:0" />
<path
   d="m 204.34,16.246 0,0.001 0,0.001 0,0.002 0,0.002 0,0.002 0,0.002 0,0.003 0,0.003 0,0.003 0,0.004 0,0.004 0,0.004 0.01,0.004 0,0.004 0,0.01 0,0.01 0.01,0.011 0,0.011 0.01,0.012 0,0.012 0,0.012 0.01,0.026 0.01,0.025 0.01,0.013 0,0.012 0,0.013 0.01,0.011 0,0.012 0.01,0.011 0,0.01 0,0.009 0,0.005 0,0.004 0,0.004 0.01,0.004 0,0.003 0,0.004 0,0.003 0,0.003 0,0.002 0,0.002 0,0.002 0,0.002 c 0,0.187 -0.16,0.297 -0.28,0.297 -0.08,0 -0.22,0 -0.35,-0.344 L 198.48,1.5273 c 0,-0.0156 -0.1,-0.25 -0.1,-0.2812 0,-0.1875 0.16,-0.29688 0.28,-0.29688 0.1,0 0.24,0.01562 0.36,0.34378 z"
   id="path47"
   inkscape:connector-curvature="0"
   style="fill:#000000;stroke-width:0" />
<path
   d="m 212.33,7.5898 h -0.36 C 211.92,7.3242 211.8,6.4492 211.64,6.1836 211.53,6.043 210.62,6.043 210.14,6.043 h -2.94 c 0.42,0.375 1.41,1.3906 1.82,1.7656 2.42,2.2344 3.31,3.0474 3.31,4.6254 0,1.828 -1.45,3.047 -3.3,3.047 -1.84,0 -2.92,-1.563 -2.92,-2.938 0,-0.812 0.7,-0.812 0.75,-0.812 0.33,0 0.73,0.25 0.73,0.75 0,0.453 -0.29,0.75 -0.73,0.75 -0.16,0 -0.19,0 -0.24,-0.016 0.32,1.078 1.18,1.812 2.21,1.812 1.34,0 2.17,-1.125 2.17,-2.593 0,-1.344 -0.78,-2.5317 -1.69,-3.5473 L 206.11,5.293 V 4.918 h 5.8 z"
   id="path49"
   inkscape:connector-curvature="0"
   style="fill:#000000;stroke-width:0" />
<path
   d="m 217.62,8.8711 0,0.1164 0,0.1207 -0.01,0.1247 0,0.1287 -0.01,0.1324 0,0.136 -0.02,0.2821 -0.03,0.2949 -0.03,0.305 -0.04,0.316 -0.05,0.324 -0.06,0.332 -0.08,0.338 -0.08,0.342 -0.1,0.346 -0.11,0.348 -0.06,0.174 -0.07,0.175 -0.07,0.174 -0.07,0.174 -0.08,0.174 -0.08,0.173 c -0.94,1.907 -2.25,2.938 -2.42,2.938 -0.06,0 -0.14,-0.031 -0.14,-0.125 0,-0.047 0,-0.078 0.26,-0.36 1.6,-1.593 2.49,-4.218 2.49,-7.4683 0,-3.0781 -0.75,-5.7344 -2.6,-7.6094 -0.15,-0.1406 -0.15,-0.1718 -0.15,-0.2187 0,-0.09376 0.08,-0.12501 0.14,-0.12501 0.2,0 1.51,1.14061 2.3,2.70311 0.79,1.6094 1.17,3.3281 1.17,5.2344 z"
   id="path51"
   inkscape:connector-curvature="0"
   style="fill:#000000;stroke-width:0" />
<path
   d="m 226.02,16.246 0,0.001 0,0.001 0,0.002 0,0.002 0,0.002 0,0.002 0,0.003 0,0.003 0,0.003 0,0.004 0,0.004 0,0.004 0.01,0.004 0,0.004 0,0.01 0,0.01 0.01,0.011 0,0.011 0.01,0.012 0,0.012 0,0.012 0.01,0.026 0.01,0.025 0.01,0.013 0,0.012 0,0.013 0.01,0.011 0,0.012 0,0.011 0.01,0.01 0,0.009 0,0.005 0,0.004 0,0.004 0,0.004 0.01,0.003 0,0.004 0,0.003 0,0.003 0,0.002 0,0.002 0,0.002 0,0.002 c 0,0.187 -0.16,0.297 -0.28,0.297 -0.08,0 -0.22,0 -0.35,-0.344 L 220.16,1.5273 c 0,-0.0156 -0.1,-0.25 -0.1,-0.2812 0,-0.1875 0.16,-0.29688 0.28,-0.29688 0.1,0 0.24,0.01562 0.36,0.34378 z"
   id="path53"
   inkscape:connector-curvature="0"
   style="fill:#000000;stroke-width:0" />
<path
   d="m 234.01,7.5898 h -0.36 C 233.6,7.3242 233.48,6.4492 233.32,6.1836 233.21,6.043 232.3,6.043 231.82,6.043 h -2.94 c 0.42,0.375 1.41,1.3906 1.82,1.7656 2.42,2.2344 3.31,3.0474 3.31,4.6254 0,1.828 -1.46,3.047 -3.3,3.047 -1.84,0 -2.92,-1.563 -2.92,-2.938 0,-0.812 0.7,-0.812 0.75,-0.812 0.33,0 0.73,0.25 0.73,0.75 0,0.453 -0.29,0.75 -0.73,0.75 -0.16,0 -0.19,0 -0.24,-0.016 0.32,1.078 1.18,1.812 2.21,1.812 1.34,0 2.17,-1.125 2.17,-2.593 0,-1.344 -0.78,-2.5317 -1.69,-3.5473 L 227.79,5.293 V 4.918 h 5.8 z"
   id="path55"
   inkscape:connector-curvature="0"
   style="fill:#000000;stroke-width:0" />
<path
   d="m 249.97,10.074 0.04,0 0.05,10e-4 0.04,0.001 0.02,10e-4 0.02,0.002 0.02,10e-4 0.03,0.003 0.02,0.003 0.02,0.003 0.02,0.004 0.02,0.005 0.02,0.005 0.01,0.006 0.02,0.007 0.02,0.008 0.02,0.009 0.01,0.01 0.02,0.011 0.01,0.012 0.01,0.013 0.02,0.014 0,0.007 0.01,0.008 0,0.009 0.01,0.008 0,0.009 0,0.009 0.01,0.01 0,0.01 0,0.01 0.01,0.011 0,0.011 0,0.011 0,0.012 0,0.012 0,0.013 0,0.013 c 0,0.296 -0.26,0.296 -0.5,0.296 h -9.37 c -0.22,0 -0.5,0 -0.5,-0.281 0,-0.297 0.26,-0.297 0.5,-0.297 z"
   id="path57"
   inkscape:connector-curvature="0"
   style="fill:#000000;stroke-width:0" />
<path
   d="m 249.97,7.1055 0.04,0 0.05,6e-4 0.04,0.0013 0.02,0.0012 0.02,0.0015 0.02,0.002 0.03,0.0024 0.02,0.003 0.02,0.0036 0.02,0.0043 0.02,0.0049 0.02,0.0057 0.01,0.0066 0.02,0.0074 0.02,0.0083 0.02,0.0093 0.01,0.0103 0.02,0.0115 0.01,0.0125 0.01,0.0138 0.02,0.015 0,0.008 0.01,0.0083 0,0.0087 0.01,0.009 0,0.0094 0,0.0097 0.01,0.0101 0,0.0104 0,0.0109 0.01,0.0112 0,0.0117 0,0.012 0,0.0124 0,0.0129 0,0.0132 0,0.0137 c 0,0.2969 -0.26,0.2969 -0.5,0.2969 h -9.37 c -0.22,0 -0.5,0 -0.5,-0.2812 0,-0.3125 0.26,-0.3125 0.5,-0.3125 z"
   id="path59"
   inkscape:connector-curvature="0"
   style="fill:#000000;stroke-width:0" />
<path
   d="m 260.37,15.106 0,0.016 0,0.016 0,0.016 0,0.015 0,0.015 0,0.014 0,0.013 0,0.014 0,0.013 0,0.012 0,0.012 0,0.012 0,0.011 0,0.01 0,0.011 0,0.01 0,0.009 -0.01,0.009 0,0.009 0,0.009 0,0.008 0,0.008 0,0.007 -0.01,0.007 0,0.013 -0.01,0.012 0,0.011 -0.01,0.01 -0.01,0.008 0,0.008 -0.01,0.007 -0.02,0.006 -0.01,0.005 -0.01,0.004 -0.01,0.003 -0.01,0.002 -0.01,10e-4 -0.01,0.002 -0.01,10e-4 -0.01,0.001 -0.01,10e-4 -0.01,0 -0.01,10e-4 -0.01,10e-4 -0.01,0 -0.01,0.001 -0.01,0 -0.01,0 -0.02,0 -0.01,0 -0.01,0 -0.02,0 -0.01,10e-4 c -0.39,-0.422 -1.19,-1.016 -2.81,-1.016 v -0.453 c 0.36,0 1.15,0 2.03,0.406 V 6.1367 c 0,-0.5625 -0.05,-0.7656 -1.46,-0.7656 h -0.48 V 4.918 c 0.42,0.0312 1.97,0.0312 2.48,0.0312 0.54,0 2.07,0 2.49,-0.0312 v 0.4531 h -0.49 c -1.4,0 -1.45,0.2031 -1.45,0.7656 z"
   id="path61"
   inkscape:connector-curvature="0"
   style="fill:#000000;stroke-width:0" />
<path
   d="m 273.5,8.5898 h 4.39 c 0.22,0 0.5,0 0.5,0.2813 0,0.3125 -0.27,0.3125 -0.5,0.3125 h -4.39 v 4.3754 c 0,0.234 0,0.515 -0.29,0.515 -0.31,0 -0.31,-0.265 -0.31,-0.515 V 9.1836 h -4.39 c -0.22,0 -0.5,0 -0.5,-0.2969 0,-0.2969 0.27,-0.2969 0.5,-0.2969 h 4.39 V 4.1992 c 0,-0.2187 0,-0.5 0.3,-0.5 0.3,0 0.3,0.2656 0.3,0.5 z"
   id="path63"
   inkscape:connector-curvature="0"
   style="fill:#000000;stroke-width:0" />
<path
   d="m 287.41,15.106 0,0.016 0,0.016 0,0.016 0,0.015 0,0.015 0,0.014 0,0.013 0,0.014 0,0.013 -0.01,0.012 0,0.012 0,0.012 0,0.011 0,0.01 0,0.011 0,0.01 0,0.009 0,0.009 0,0.009 0,0.009 -0.01,0.008 0,0.008 0,0.007 0,0.007 0,0.013 -0.01,0.012 -0.01,0.011 0,0.01 -0.01,0.008 -0.01,0.008 -0.01,0.007 -0.01,0.006 -0.01,0.005 -0.02,0.004 -0.01,0.003 -0.01,0.002 -0.01,10e-4 0,0.002 -0.01,10e-4 -0.01,0.001 -0.01,10e-4 -0.01,0 -0.01,10e-4 -0.01,10e-4 -0.01,0 -0.01,0.001 -0.02,0 -0.01,0 -0.01,0 -0.01,0 -0.02,0 -0.01,0 -0.02,10e-4 c -0.39,-0.422 -1.18,-1.016 -2.81,-1.016 v -0.453 c 0.36,0 1.16,0 2.03,0.406 V 6.1367 c 0,-0.5625 -0.04,-0.7656 -1.45,-0.7656 h -0.48 V 4.918 c 0.42,0.0312 1.96,0.0312 2.48,0.0312 0.53,0 2.06,0 2.48,-0.0312 v 0.4531 h -0.48 c -1.41,0 -1.45,0.2031 -1.45,0.7656 z"
   id="path65"
   inkscape:connector-curvature="0"
   style="fill:#000000;stroke-width:0" />
<path
   d="m 297.45,16.246 0,0.001 0,0.001 0,0.002 0,0.002 0,0.002 0,0.002 0,0.003 0,0.003 0,0.003 0.01,0.004 0,0.004 0,0.004 0,0.004 0,0.004 0,0.01 0.01,0.01 0,0.011 0,0.011 0.01,0.012 0,0.012 0.01,0.012 0.01,0.026 0,0.025 0.01,0.013 0,0.012 0.01,0.013 0,0.011 0,0.012 0.01,0.011 0,0.01 0,0.009 0.01,0.005 0,0.004 0,0.004 0,0.004 0,0.003 0,0.004 0,0.003 0,0.003 0,0.002 0,0.002 0,0.002 0,0.002 c 0,0.187 -0.15,0.297 -0.28,0.297 -0.08,0 -0.22,0 -0.34,-0.344 L 291.59,1.5273 c 0,-0.0156 -0.09,-0.25 -0.09,-0.2812 0,-0.1875 0.15,-0.29688 0.28,-0.29688 0.09,0 0.23,0.01562 0.36,0.34378 z"
   id="path67"
   inkscape:connector-curvature="0"
   style="fill:#000000;stroke-width:0" />
<path
   d="m 305.44,7.5898 h -0.36 C 305.04,7.3242 304.91,6.4492 304.75,6.1836 304.64,6.043 303.74,6.043 303.25,6.043 h -2.93 c 0.42,0.375 1.4,1.3906 1.81,1.7656 2.42,2.2344 3.31,3.0474 3.31,4.6254 0,1.828 -1.45,3.047 -3.3,3.047 -1.84,0 -2.92,-1.563 -2.92,-2.938 0,-0.812 0.71,-0.812 0.75,-0.812 0.33,0 0.74,0.25 0.74,0.75 0,0.453 -0.3,0.75 -0.74,0.75 -0.15,0 -0.18,0 -0.23,-0.016 0.31,1.078 1.17,1.812 2.2,1.812 1.35,0 2.17,-1.125 2.17,-2.593 0,-1.344 -0.78,-2.5317 -1.68,-3.5473 L 299.22,5.293 V 4.918 h 5.8 z"
   id="path69"
   inkscape:connector-curvature="0"
   style="fill:#000000;stroke-width:0" />
<path
   d="m 316.12,8.5898 h 4.4 c 0.21,0 0.5,0 0.5,0.2813 0,0.3125 -0.27,0.3125 -0.5,0.3125 h -4.4 v 4.3754 c 0,0.234 0,0.515 -0.28,0.515 -0.31,0 -0.31,-0.265 -0.31,-0.515 V 9.1836 h -4.39 c -0.22,0 -0.5,0 -0.5,-0.2969 0,-0.2969 0.27,-0.2969 0.5,-0.2969 h 4.39 V 4.1992 c 0,-0.2187 0,-0.5 0.3,-0.5 0.29,0 0.29,0.2656 0.29,0.5 z"
   id="path71"
   inkscape:connector-curvature="0"
   style="fill:#000000;stroke-width:0" />
<path
   d="M 329.66,3.1367 329.57,3.0235 329.48,2.9127 329.39,2.8052 329.29,2.7014 329.24,2.6512 329.19,2.6021 329.14,2.5544 329.09,2.508 329.03,2.4631 328.98,2.4197 328.92,2.378 328.87,2.3379 328.81,2.2996 328.75,2.2632 328.69,2.2287 328.63,2.1963 328.57,2.166 328.5,2.1379 328.44,2.1121 328.38,2.0886 328.31,2.0676 328.24,2.0491 328.18,2.0333 328.11,2.0201 328.04,2.0097 327.97,2.0022 327.9,1.9976 327.83,1.9961 c -0.21,0 -0.95,0.0312 -1.21,0.7656 0.05,-0.0156 0.13,-0.0156 0.16,-0.0156 0.49,0 0.8,0.4062 0.8,0.7656 0,0.375 -0.3,0.5 -0.53,0.5 -0.27,0 -0.82,-0.1875 -0.82,-0.9687 0,-0.8125 0.69,-1.375 1.6,-1.375 1.58,0 3.19,1.4687 3.62,3.2343 l 1.57,6.2037 c 0.01,0.078 0.04,0.171 0.04,0.265 0,0.235 -0.18,0.391 -0.42,0.391 -0.14,0 -0.48,-0.063 -0.61,-0.531 l -1.17,-4.6724 c -0.08,-0.2969 -0.08,-0.3281 -0.2,-0.5 -0.33,-0.4375 -0.85,-0.9844 -1.61,-0.9844 -0.89,0 -0.97,0.875 -0.97,1.3125 0,0.9063 0.42,2.125 0.86,3.2656 0.17,0.4687 0.26,0.6877 0.26,0.9997 0,0.672 -0.47,1.282 -1.25,1.282 -1.47,0 -2.06,-2.3129 -2.06,-2.4379 0,-0.0625 0.08,-0.1406 0.19,-0.1406 0.14,0 0.15,0.0625 0.22,0.2812 0.37,1.3443 0.98,1.9693 1.61,1.9693 0.14,0 0.4,0 0.4,-0.516 0,-0.422 -0.17,-0.875 -0.4,-1.4845 -0.79,-2.0782 -0.79,-2.6094 -0.79,-2.9844 0,-1.5156 1.08,-1.8594 1.88,-1.8594 0.45,0 1.03,0.1406 1.59,0.7344 l 0.02,-0.0156 C 330.36,4.543 330.2,3.918 329.66,3.1367 z"
   id="path73"
   inkscape:connector-curvature="0"
   style="fill:#000000;stroke-width:0" />
<path
   d="m 340.46,16.246 0.01,0.001 0,0.001 0,0.002 0,0.002 0,0.002 0,0.002 0,0.003 0,0.003 0,0.003 0,0.004 0,0.004 0,0.004 0.01,0.004 0,0.004 0,0.01 0,0.01 0.01,0.011 0,0.011 0,0.012 0.01,0.012 0,0.012 0.01,0.026 0.01,0.025 0.01,0.013 0,0.012 0,0.013 0.01,0.011 0,0.012 0,0.011 0.01,0.01 0,0.009 0,0.005 0,0.004 0,0.004 0,0.004 0.01,0.003 0,0.004 0,0.003 0,0.003 0,0.002 0,0.002 0,0.002 0,0.002 c 0,0.187 -0.16,0.297 -0.28,0.297 -0.08,0 -0.22,0 -0.35,-0.344 L 334.61,1.5273 c 0,-0.0156 -0.1,-0.25 -0.1,-0.2812 0,-0.1875 0.16,-0.29688 0.28,-0.29688 0.1,0 0.24,0.01562 0.36,0.34378 z"
   id="path75"
   inkscape:connector-curvature="0"
   style="fill:#000000;stroke-width:0" />
<path
   d="m 347.19,15.262 0,0.014 0,0.014 0,0.014 0,0.014 0,0.026 0,0.024 0,0.024 0,0.022 0,0.021 0,0.02 0,0.018 -0.01,0.018 0,0.016 0,0.016 0,0.014 -0.01,0.013 0,0.013 -0.01,0.011 0,0.011 -0.01,0.009 0,0.009 -0.01,0.008 -0.01,0.007 -0.01,0.007 -0.01,0.005 -0.01,0.005 -0.01,0.004 -0.02,0.004 -0.01,0.003 -0.02,0.002 -0.01,0.002 -0.02,10e-4 -0.02,10e-4 -0.01,0 -0.01,0 c -0.12,0 -0.17,0 -0.29,-0.203 l -4.8,-7.4217 h 0.41 l 3.85,5.9997 V 8.0273 h -3.85 -0.41 V 7.5742 h 4.19 V 6.1211 c 0,-0.5781 -0.03,-0.75 -1.19,-0.75 h -0.33 V 4.918 c 0.38,0.0312 1.63,0.0312 2.08,0.0312 0.44,0 1.7,0 2.08,-0.0312 v 0.4531 h -0.32 c -1.15,0 -1.2,0.1719 -1.2,0.75 v 1.4531 h 1.61 v 0.4531 h -1.61 z"
   id="path77"
   inkscape:connector-curvature="0"
   style="fill:#000000;stroke-width:0" />
<path
   d="m 364.42,10.074 0.04,0 0.05,10e-4 0.04,0.001 0.02,10e-4 0.02,0.002 0.02,10e-4 0.03,0.003 0.02,0.003 0.02,0.003 0.02,0.004 0.02,0.005 0.02,0.005 0.01,0.006 0.02,0.007 0.02,0.008 0.02,0.009 0.01,0.01 0.02,0.011 0.01,0.012 0.01,0.013 0.01,0.014 0.01,0.007 0.01,0.008 0,0.009 0,0.008 0.01,0.009 0,0.009 0.01,0.01 0,0.01 0,0.01 0,0.011 0.01,0.011 0,0.011 0,0.012 0,0.012 0,0.013 0,0.013 c 0,0.296 -0.26,0.296 -0.5,0.296 h -9.37 c -0.22,0 -0.5,0 -0.5,-0.281 0,-0.297 0.26,-0.297 0.5,-0.297 z"
   id="path79"
   inkscape:connector-curvature="0"
   style="fill:#000000;stroke-width:0" />
<path
   d="m 364.42,7.1055 0.04,0 0.05,6e-4 0.04,0.0013 0.02,0.0012 0.02,0.0015 0.02,0.002 0.03,0.0024 0.02,0.003 0.02,0.0036 0.02,0.0043 0.02,0.0049 0.02,0.0057 0.01,0.0066 0.02,0.0074 0.02,0.0083 0.02,0.0093 0.01,0.0103 0.02,0.0115 0.01,0.0125 0.01,0.0138 0.01,0.015 0.01,0.008 0.01,0.0083 0,0.0087 0,0.009 0.01,0.0094 0,0.0097 0.01,0.0101 0,0.0104 0,0.0109 0,0.0112 0.01,0.0117 0,0.012 0,0.0124 0,0.0129 0,0.0132 0,0.0137 c 0,0.2969 -0.26,0.2969 -0.5,0.2969 h -9.37 c -0.22,0 -0.5,0 -0.5,-0.2812 0,-0.3125 0.26,-0.3125 0.5,-0.3125 z"
   id="path81"
   inkscape:connector-curvature="0"
   style="fill:#000000;stroke-width:0" />
<path
   d="m 373.18,5.6836 -0.01,0.0421 0,0.0413 0,0.0406 -0.01,0.0397 -0.01,0.0388 -0.01,0.0379 -0.01,0.0369 -0.02,0.0359 -0.02,0.0349 -0.01,0.0339 -0.02,0.0327 -0.02,0.0316 -0.03,0.0304 -0.02,0.0292 -0.02,0.028 -0.03,0.0266 -0.03,0.0254 -0.03,0.0239 -0.03,0.0226 -0.03,0.0211 -0.03,0.0197 -0.03,0.0181 -0.03,0.0166 -0.04,0.015 -0.03,0.0134 -0.03,0.0117 -0.04,0.01 -0.03,0.0083 -0.04,0.0065 -0.04,0.0046 -0.03,0.0029 -0.04,9e-4 c -0.45,0 -0.78,-0.3906 -0.78,-0.7656 0,-0.4687 0.39,-0.7812 0.76,-0.7812 0.47,0 0.79,0.375 0.79,0.7656 z"
   id="path83"
   inkscape:connector-curvature="0"
   style="fill:#000000;stroke-width:0" />
<path
   d="m 380.17,5.6836 0,0.0421 0,0.0413 -0.01,0.0406 0,0.0397 -0.01,0.0388 -0.02,0.0379 -0.01,0.0369 -0.01,0.0359 -0.02,0.0349 -0.02,0.0339 -0.02,0.0327 -0.02,0.0316 -0.02,0.0304 -0.02,0.0292 -0.03,0.028 -0.02,0.0266 -0.03,0.0254 -0.03,0.0239 -0.03,0.0226 -0.03,0.0211 -0.03,0.0197 -0.03,0.0181 -0.04,0.0166 -0.03,0.015 -0.03,0.0134 -0.04,0.0117 -0.03,0.01 -0.04,0.0083 -0.03,0.0065 -0.04,0.0046 -0.04,0.0029 -0.03,9e-4 c -0.46,0 -0.79,-0.3906 -0.79,-0.7656 0,-0.4687 0.4,-0.7812 0.77,-0.7812 0.47,0 0.78,0.375 0.78,0.7656 z"
   id="path85"
   inkscape:connector-curvature="0"
   style="fill:#000000;stroke-width:0" />
<path
   d="m 387.15,5.6836 0,0.0421 -0.01,0.0413 0,0.0406 -0.01,0.0397 -0.01,0.0388 -0.01,0.0379 -0.01,0.0369 -0.02,0.0359 -0.01,0.0349 -0.02,0.0339 -0.02,0.0327 -0.02,0.0316 -0.02,0.0304 -0.03,0.0292 -0.02,0.028 -0.03,0.0266 -0.03,0.0254 -0.02,0.0239 -0.03,0.0226 -0.03,0.0211 -0.03,0.0197 -0.04,0.0181 -0.03,0.0166 -0.03,0.015 -0.04,0.0134 -0.03,0.0117 -0.04,0.01 -0.03,0.0083 -0.04,0.0065 -0.03,0.0046 -0.04,0.0029 -0.04,9e-4 c -0.45,0 -0.78,-0.3906 -0.78,-0.7656 0,-0.4687 0.39,-0.7812 0.77,-0.7812 0.47,0 0.78,0.375 0.78,0.7656 z"
   id="path87"
   inkscape:connector-curvature="0"
   style="fill:#000000;stroke-width:0" />
</g></svg>
