<?xml version="1.0" encoding="UTF-8" standalone="no"?>
<svg
   xmlns:dc="http://purl.org/dc/elements/1.1/"
   xmlns:cc="http://creativecommons.org/ns#"
   xmlns:rdf="http://www.w3.org/1999/02/22-rdf-syntax-ns#"
   xmlns:svg="http://www.w3.org/2000/svg"
   xmlns="http://www.w3.org/2000/svg"
   xmlns:sodipodi="http://sodipodi.sourceforge.net/DTD/sodipodi-0.dtd"
   xmlns:inkscape="http://www.inkscape.org/namespaces/inkscape"
   version="1.1"
   id="body"
   width="249.92027"
   height="19.965685"
   viewBox="0 0 0.34711149 0.027730118"
   preserveAspectRatio="none"
   inkscape:version="0.48.3.1 r9886"
   sodipodi:docname="ch4-Z-G-8.svg">
  <metadata
     id="metadata53">
    <rdf:RDF>
      <cc:Work
         rdf:about="">
        <dc:format>image/svg+xml</dc:format>
        <dc:type
           rdf:resource="http://purl.org/dc/dcmitype/StillImage" />
      </cc:Work>
    </rdf:RDF>
  </metadata>
  <defs
     id="defs51" />
  <sodipodi:namedview
     pagecolor="#ffffff"
     bordercolor="#666666"
     borderopacity="1"
     objecttolerance="10"
     gridtolerance="10"
     guidetolerance="10"
     inkscape:pageopacity="0"
     inkscape:pageshadow="2"
     inkscape:window-width="640"
     inkscape:window-height="480"
     id="namedview49"
     showgrid="false"
     inkscape:zoom="0.32777778"
     inkscape:cx="381.60157"
     inkscape:cy="458.78245"
     inkscape:window-x="0"
     inkscape:window-y="24"
     inkscape:window-maximized="0"
     inkscape:current-layer="body" />
  <title
     id="title3">SVG drawing</title>
  <desc
     id="desc5">This was produced by version 4.4 of GNU libplot, a free library for exporting 2-D vector graphics.</desc>
  <g
     id="content"
     transform="matrix(0.0017361,0,0,-0.0017361,-0.00124782,0.02930346)"
     xml:space="preserve"
     stroke-miterlimit="10.433"
     font-style="normal"
     font-variant="normal"
     font-weight="normal"
     font-stretch="normal"
     font-size-adjust="none"
     letter-spacing="normal"
     word-spacing="normal"
     style="font-style:normal;font-variant:normal;font-weight:normal;font-stretch:normal;letter-spacing:normal;word-spacing:normal;text-anchor:start;fill:none;stroke:#000000;stroke-linecap:butt;stroke-linejoin:miter;stroke-miterlimit:10.43299961;stroke-opacity:1;stroke-dasharray:none;stroke-dashoffset:0">
<path
   d="M 6.9727,7.5898 H 6.6133 C 6.5664,7.3242 6.4414,6.4492 6.2852,6.1836 6.1758,6.043 5.2695,6.043 4.7852,6.043 H 1.8477 c 0.4218,0.375 1.4062,1.3906 1.8125,1.7656 2.4218,2.2344 3.3125,3.0474 3.3125,4.6254 0,1.828 -1.4532,3.047 -3.2969,3.047 -1.8438,0 -2.92189,-1.563 -2.92189,-2.938 0,-0.812 0.70309,-0.812 0.74999,-0.812 0.3281,0 0.7344,0.25 0.7344,0.75 0,0.453 -0.2969,0.75 -0.7344,0.75 -0.1562,0 -0.1875,0 -0.2344,-0.016 0.3125,1.078 1.1719,1.812 2.2032,1.812 1.3437,0 2.1718,-1.125 2.1718,-2.593 0,-1.344 -0.7812,-2.5317 -1.6875,-3.5473 L 0.75391,5.293 V 4.918 H 6.5508 z"
   id="path9"
   inkscape:connector-curvature="0"
   style="fill:#000000;stroke-width:0" />
<path
   d="m 22.941,10.074 0.042,0 0.043,10e-4 0.043,0.001 0.021,10e-4 0.022,0.002 0.021,10e-4 0.021,0.003 0.021,0.003 0.021,0.003 0.02,0.004 0.02,0.005 0.019,0.005 0.018,0.006 0.018,0.007 0.018,0.008 0.016,0.009 0.016,0.01 0.015,0.011 0.014,0.012 0.012,0.013 0.012,0.014 0.005,0.007 0.006,0.008 0.004,0.009 0.005,0.008 0.004,0.009 0.004,0.009 0.004,0.01 0.003,0.01 0.003,0.01 0.002,0.011 0.002,0.011 0.002,0.011 0.002,0.012 10e-4,0.012 0,0.013 0,0.013 c 0,0.296 -0.265,0.296 -0.5,0.296 h -9.375 c -0.218,0 -0.5,0 -0.5,-0.281 0,-0.297 0.266,-0.297 0.5,-0.297 z"
   id="path11"
   inkscape:connector-curvature="0"
   style="fill:#000000;stroke-width:0" />
<path
   d="m 22.941,7.1055 0.042,0 0.043,6e-4 0.043,0.0013 0.021,0.0012 0.022,0.0015 0.021,0.002 0.021,0.0024 0.021,0.003 0.021,0.0036 0.02,0.0043 0.02,0.0049 0.019,0.0057 0.018,0.0066 0.018,0.0074 0.018,0.0083 0.016,0.0093 0.016,0.0103 0.015,0.0115 0.014,0.0125 0.012,0.0138 0.012,0.015 0.005,0.008 0.006,0.0083 0.004,0.0087 0.005,0.009 0.004,0.0094 0.004,0.0097 0.004,0.0101 0.003,0.0104 0.003,0.0109 0.002,0.0112 0.002,0.0117 0.002,0.012 0.002,0.0124 10e-4,0.0129 0,0.0132 0,0.0137 c 0,0.2969 -0.265,0.2969 -0.5,0.2969 h -9.375 c -0.218,0 -0.5,0 -0.5,-0.2812 0,-0.3125 0.266,-0.3125 0.5,-0.3125 z"
   id="path13"
   inkscape:connector-curvature="0"
   style="fill:#000000;stroke-width:0" />
<path
   d="m 33.355,15.106 0,0.016 0,0.016 0,0.016 0,0.015 0,0.015 0,0.014 0,0.013 0,0.014 0,0.013 -10e-4,0.012 0,0.012 -10e-4,0.012 0,0.011 -0.001,0.01 -10e-4,0.011 0,0.01 -10e-4,0.009 -0.001,0.009 -0.002,0.009 -0.001,0.009 -0.002,0.008 -10e-4,0.008 -0.002,0.007 -0.002,0.007 -0.004,0.013 -0.006,0.012 -0.006,0.011 -0.007,0.01 -0.007,0.008 -0.009,0.008 -0.01,0.007 -0.011,0.006 -0.012,0.005 -0.013,0.004 -0.015,0.003 -0.007,0.002 -0.008,10e-4 -0.009,0.002 -0.009,10e-4 -0.009,0.001 -0.009,10e-4 -0.01,0 -0.01,10e-4 -0.011,10e-4 -0.011,0 -0.011,0.001 -0.012,0 -0.012,0 -0.013,0 -0.013,0 -0.014,0 -0.014,0 -0.014,10e-4 C 32.652,15.059 31.855,14.465 30.23,14.465 v -0.453 c 0.36,0 1.157,0 2.032,0.406 V 6.1367 c 0,-0.5625 -0.047,-0.7656 -1.453,-0.7656 H 30.324 V 4.918 c 0.422,0.0312 1.969,0.0312 2.485,0.0312 0.531,0 2.062,0 2.484,-0.0312 v 0.4531 h -0.484 c -1.407,0 -1.454,0.2031 -1.454,0.7656 z"
   id="path15"
   inkscape:connector-curvature="0"
   style="fill:#000000;stroke-width:0" />
<path
   d="m 46.461,8.5898 h 4.391 c 0.218,0 0.5,0 0.5,0.2813 0,0.3125 -0.266,0.3125 -0.5,0.3125 h -4.391 v 4.3754 c 0,0.234 0,0.515 -0.281,0.515 -0.313,0 -0.313,-0.265 -0.313,-0.515 V 9.1836 h -4.39 c -0.219,0 -0.5,0 -0.5,-0.2969 0,-0.2969 0.265,-0.2969 0.5,-0.2969 h 4.39 V 4.1992 c 0,-0.2187 0,-0.5 0.297,-0.5 0.297,0 0.297,0.2656 0.297,0.5 z"
   id="path17"
   inkscape:connector-curvature="0"
   style="fill:#000000;stroke-width:0" />
<path
   d="m 60.371,15.106 0,0.016 0,0.016 0,0.016 0,0.015 0,0.015 0,0.014 0,0.013 -0.001,0.014 0,0.013 0,0.012 0,0.012 -10e-4,0.012 -10e-4,0.011 0,0.01 -0.001,0.011 -10e-4,0.01 -10e-4,0.009 -0.001,0.009 -10e-4,0.009 -10e-4,0.009 -0.002,0.008 -0.002,0.008 -10e-4,0.007 -0.002,0.007 -0.005,0.013 -0.005,0.012 -0.006,0.011 -0.007,0.01 -0.008,0.008 -0.009,0.008 -0.009,0.007 -0.011,0.006 -0.012,0.005 -0.013,0.004 -0.015,0.003 -0.008,0.002 -0.008,10e-4 -0.008,0.002 -0.009,10e-4 -0.009,0.001 -0.01,10e-4 -0.009,0 -0.011,10e-4 -0.01,10e-4 -0.011,0 -0.012,0.001 -0.011,0 -0.013,0 -0.012,0 -0.013,0 -0.014,0 -0.014,0 -0.014,10e-4 c -0.391,-0.422 -1.188,-1.016 -2.813,-1.016 v -0.453 c 0.359,0 1.156,0 2.031,0.406 V 6.1367 c 0,-0.5625 -0.047,-0.7656 -1.453,-0.7656 H 57.34 V 4.918 c 0.422,0.0312 1.969,0.0312 2.484,0.0312 0.531,0 2.063,0 2.485,-0.0312 v 0.4531 h -0.485 c -1.406,0 -1.453,0.2031 -1.453,0.7656 z"
   id="path19"
   inkscape:connector-curvature="0"
   style="fill:#000000;stroke-width:0" />
<path
   d="m 70.418,16.246 0,0.001 0,0.001 10e-4,0.002 0,0.002 0.001,0.002 0,0.002 0.001,0.003 10e-4,0.003 0.001,0.003 0.001,0.004 10e-4,0.004 0.002,0.004 10e-4,0.004 0.001,0.004 0.004,0.01 0.003,0.01 0.004,0.011 0.004,0.011 0.004,0.012 0.004,0.012 0.004,0.012 0.009,0.026 0.009,0.025 0.004,0.013 0.004,0.012 0.004,0.013 0.004,0.011 0.004,0.012 0.003,0.011 0.003,0.01 0.003,0.009 0.001,0.005 0.002,0.004 0.001,0.004 10e-4,0.004 0.001,0.003 0,0.004 0.001,0.003 10e-4,0.003 0,0.002 0,0.002 0.001,0.002 0,0.002 c 0,0.187 -0.157,0.297 -0.282,0.297 -0.078,0 -0.218,0 -0.343,-0.344 L 64.559,1.5273 c 0,-0.0156 -0.094,-0.25 -0.094,-0.2812 0,-0.1875 0.156,-0.29688 0.281,-0.29688 0.094,0 0.234,0.01562 0.359,0.34378 z"
   id="path21"
   inkscape:connector-curvature="0"
   style="fill:#000000;stroke-width:0" />
<path
   d="M 78.406,7.5898 H 78.047 C 78,7.3242 77.875,6.4492 77.719,6.1836 77.609,6.043 76.703,6.043 76.219,6.043 h -2.938 c 0.422,0.375 1.407,1.3906 1.813,1.7656 2.422,2.2344 3.312,3.0474 3.312,4.6254 0,1.828 -1.453,3.047 -3.297,3.047 -1.843,0 -2.921,-1.563 -2.921,-2.938 0,-0.812 0.703,-0.812 0.75,-0.812 0.328,0 0.734,0.25 0.734,0.75 0,0.453 -0.297,0.75 -0.734,0.75 -0.157,0 -0.188,0 -0.235,-0.016 0.313,1.078 1.172,1.812 2.203,1.812 1.344,0 2.172,-1.125 2.172,-2.593 0,-1.344 -0.781,-2.5317 -1.687,-3.5473 L 72.188,5.293 V 4.918 h 5.796 z"
   id="path23"
   inkscape:connector-curvature="0"
   style="fill:#000000;stroke-width:0" />
<path
   d="m 89.094,8.5898 h 4.39 c 0.219,0 0.5,0 0.5,0.2813 0,0.3125 -0.265,0.3125 -0.5,0.3125 h -4.39 v 4.3754 c 0,0.234 0,0.515 -0.282,0.515 -0.312,0 -0.312,-0.265 -0.312,-0.515 V 9.1836 h -4.391 c -0.218,0 -0.5,0 -0.5,-0.2969 0,-0.2969 0.266,-0.2969 0.5,-0.2969 H 88.5 V 4.1992 c 0,-0.2187 0,-0.5 0.297,-0.5 0.297,0 0.297,0.2656 0.297,0.5 z"
   id="path25"
   inkscape:connector-curvature="0"
   style="fill:#000000;stroke-width:0" />
<path
   d="m 103,15.106 0,0.016 0,0.016 0,0.016 0,0.015 0,0.015 0,0.014 0,0.013 0,0.014 0,0.013 0,0.012 0,0.012 0,0.012 0,0.011 0,0.01 0,0.011 0,0.01 0,0.009 0,0.009 0,0.009 -0.01,0.009 0,0.008 0,0.008 0,0.007 0,0.007 -0.01,0.013 0,0.012 -0.01,0.011 -0.01,0.01 0,0.008 -0.01,0.008 -0.01,0.007 -0.01,0.006 -0.01,0.005 -0.02,0.004 -0.01,0.003 -0.01,0.002 -0.01,10e-4 -0.01,0.002 -0.01,10e-4 0,0.001 -0.01,10e-4 -0.01,0 -0.01,10e-4 -0.01,10e-4 -0.02,0 -0.01,0.001 -0.01,0 -0.01,0 -0.01,0 -0.02,0 -0.01,0 -0.01,0 -0.02,10e-4 c -0.39,-0.422 -1.19,-1.016 -2.811,-1.016 v -0.453 c 0.361,0 1.161,0 2.031,0.406 V 6.1367 c 0,-0.5625 -0.05,-0.7656 -1.45,-0.7656 H 99.973 V 4.918 c 0.417,0.0312 1.967,0.0312 2.487,0.0312 0.53,0 2.06,0 2.48,-0.0312 v 0.4531 h -0.48 c -1.41,0 -1.46,0.2031 -1.46,0.7656 z"
   id="path27"
   inkscape:connector-curvature="0"
   style="fill:#000000;stroke-width:0" />
<path
   d="m 113.05,16.246 0,0.001 0,0.001 0,0.002 0,0.002 0,0.002 0,0.002 0,0.003 0.01,0.003 0,0.003 0,0.004 0,0.004 0,0.004 0,0.004 0,0.004 0.01,0.01 0,0.01 0,0.011 0.01,0.011 0,0.012 0,0.012 0.01,0.012 0.01,0.026 0.01,0.025 0,0.013 0.01,0.012 0,0.013 0,0.011 0.01,0.012 0,0.011 0,0.01 0.01,0.009 0,0.005 0,0.004 0,0.004 0,0.004 0,0.003 0,0.004 0,0.003 0,0.003 0,0.002 0,0.002 0,0.002 0,0.002 c 0,0.187 -0.15,0.297 -0.28,0.297 -0.07,0 -0.22,0 -0.34,-0.344 L 107.19,1.5273 c 0,-0.0156 -0.09,-0.25 -0.09,-0.2812 0,-0.1875 0.15,-0.29688 0.28,-0.29688 0.09,0 0.23,0.01562 0.36,0.34378 z"
   id="path29"
   inkscape:connector-curvature="0"
   style="fill:#000000;stroke-width:0" />
<path
   d="m 119.78,15.262 0,0.014 0,0.014 0,0.014 0,0.014 0,0.026 0,0.024 0,0.024 0,0.022 -0.01,0.021 0,0.02 0,0.018 0,0.018 0,0.016 0,0.016 -0.01,0.014 0,0.013 -0.01,0.013 0,0.011 -0.01,0.011 0,0.009 -0.01,0.009 -0.01,0.008 0,0.007 -0.01,0.007 -0.01,0.005 -0.01,0.005 -0.02,0.004 -0.01,0.004 -0.01,0.003 -0.02,0.002 -0.02,0.002 -0.01,10e-4 -0.02,10e-4 -0.01,0 -0.01,0 c -0.13,0 -0.17,0 -0.3,-0.203 l -4.8,-7.4217 h 0.41 l 3.86,5.9997 V 8.0273 h -3.86 -0.41 V 7.5742 h 4.19 V 6.1211 c 0,-0.5781 -0.03,-0.75 -1.19,-0.75 h -0.32 V 4.918 c 0.37,0.0312 1.62,0.0312 2.07,0.0312 0.44,0 1.71,0 2.08,-0.0312 v 0.4531 h -0.31 c -1.16,0 -1.2,0.1719 -1.2,0.75 v 1.4531 h 1.61 v 0.4531 h -1.61 z"
   id="path31"
   inkscape:connector-curvature="0"
   style="fill:#000000;stroke-width:0" />
<path
   d="m 131.73,8.5898 h 4.39 c 0.22,0 0.5,0 0.5,0.2813 0,0.3125 -0.27,0.3125 -0.5,0.3125 h -4.39 v 4.3754 c 0,0.234 0,0.515 -0.28,0.515 -0.31,0 -0.31,-0.265 -0.31,-0.515 V 9.1836 h -4.39 c -0.22,0 -0.5,0 -0.5,-0.2969 0,-0.2969 0.26,-0.2969 0.5,-0.2969 h 4.39 V 4.1992 c 0,-0.2187 0,-0.5 0.29,-0.5 0.3,0 0.3,0.2656 0.3,0.5 z"
   id="path33"
   inkscape:connector-curvature="0"
   style="fill:#000000;stroke-width:0" />
<path
   d="m 145.64,15.106 0,0.016 0,0.016 0,0.016 0,0.015 0,0.015 0,0.014 0,0.013 0,0.014 0,0.013 0,0.012 0,0.012 0,0.012 0,0.011 0,0.01 0,0.011 0,0.01 0,0.009 -0.01,0.009 0,0.009 0,0.009 0,0.008 0,0.008 0,0.007 -0.01,0.007 0,0.013 -0.01,0.012 0,0.011 -0.01,0.01 -0.01,0.008 0,0.008 -0.01,0.007 -0.02,0.006 -0.01,0.005 -0.01,0.004 -0.02,0.003 0,0.002 -0.01,10e-4 -0.01,0.002 -0.01,10e-4 -0.01,0.001 -0.01,10e-4 -0.01,0 -0.01,10e-4 -0.01,10e-4 -0.01,0 -0.01,0.001 -0.01,0 -0.01,0 -0.02,0 -0.01,0 -0.01,0 -0.02,0 -0.01,10e-4 c -0.39,-0.422 -1.19,-1.016 -2.81,-1.016 v -0.453 c 0.36,0 1.15,0 2.03,0.406 V 6.1367 c 0,-0.5625 -0.05,-0.7656 -1.46,-0.7656 h -0.48 V 4.918 c 0.42,0.0312 1.97,0.0312 2.48,0.0312 0.53,0 2.07,0 2.49,-0.0312 v 0.4531 h -0.49 c -1.4,0 -1.45,0.2031 -1.45,0.7656 z"
   id="path35"
   inkscape:connector-curvature="0"
   style="fill:#000000;stroke-width:0" />
<path
   d="m 155.69,16.246 0,0.001 0,0.001 0,0.002 0,0.002 0,0.002 0,0.002 0,0.003 0,0.003 0,0.003 0,0.004 0.01,0.004 0,0.004 0,0.004 0,0.004 0,0.01 0.01,0.01 0,0.011 0,0.011 0.01,0.012 0,0.012 0.01,0.012 0,0.026 0.01,0.025 0.01,0.013 0,0.012 0.01,0.013 0,0.011 0,0.012 0.01,0.011 0,0.01 0,0.009 0,0.005 0,0.004 0.01,0.004 0,0.004 0,0.003 0,0.004 0,0.003 0,0.003 0,0.002 0,0.002 0,0.002 0,0.002 c 0,0.187 -0.16,0.297 -0.28,0.297 -0.08,0 -0.22,0 -0.34,-0.344 L 149.83,1.5273 c 0,-0.0156 -0.1,-0.25 -0.1,-0.2812 0,-0.1875 0.16,-0.29688 0.29,-0.29688 0.09,0 0.23,0.01562 0.36,0.34378 z"
   id="path37"
   inkscape:connector-curvature="0"
   style="fill:#000000;stroke-width:0" />
<path
   d="m 161.41,10.652 0.08,0.042 0.08,0.044 0.16,0.092 0.16,0.1 0.17,0.109 0.16,0.116 0.08,0.062 0.08,0.064 0.08,0.067 0.08,0.069 0.08,0.071 0.07,0.074 0.07,0.077 0.07,0.08 0.07,0.082 0.06,0.085 0.06,0.088 0.05,0.091 0.06,0.094 0.04,0.097 0.05,0.101 0.04,0.103 0.03,0.107 0.03,0.11 0.02,0.114 0.01,0.117 0.01,0.12 0.01,0.124 c 0,1.375 -1.33,2.329 -2.8,2.329 l -0.02,-0.375 c 1.15,0 2.18,-0.829 2.18,-1.969 0,-0.969 -0.71,-1.75 -1.63,-2.266 l -1.84,1.219 c -0.21,0.141 -0.85,0.547 -0.85,1.328 0,1.031 1.08,1.688 2.14,1.688 l 0.02,0.375 c -1.56,0 -2.81,-1.157 -2.81,-2.594 0,-0.547 0.15,-1.094 0.61,-1.625 0.17,-0.203 0.18,-0.219 1.29,-1 l 0.35,-0.219 1.92,-1.2657 c 0.41,-0.2656 1.14,-0.7656 1.14,-1.7343 0,-1.2032 -1.22,-2.0313 -2.5,-2.0313 -1.34,0 -2.52,0.9844 -2.52,2.3125 0,1.2344 0.91,2.2344 1.96,2.7188 h 0 l -0.35,0.219 c -1.53,-0.719 -2.32,-1.7815 -2.32,-2.9378 0,-1.6875 1.59,-2.7344 3.21,-2.7344 1.77,0 3.25,1.2969 3.25,2.9688 0,1.625 -1.15,2.3281 -2.39,3.0934 z"
   id="path39"
   inkscape:connector-curvature="0"
   style="fill:#000000;stroke-width:0" />
<path
   d="m 174.36,8.5898 h 4.39 c 0.22,0 0.5,0 0.5,0.2813 0,0.3125 -0.26,0.3125 -0.5,0.3125 h -4.39 v 4.3754 c 0,0.234 0,0.515 -0.28,0.515 -0.31,0 -0.31,-0.265 -0.31,-0.515 V 9.1836 h -4.39 c -0.22,0 -0.5,0 -0.5,-0.2969 0,-0.2969 0.27,-0.2969 0.5,-0.2969 h 4.39 V 4.1992 c 0,-0.2187 0,-0.5 0.3,-0.5 0.29,0 0.29,0.2656 0.29,0.5 z"
   id="path41"
   inkscape:connector-curvature="0"
   style="fill:#000000;stroke-width:0" />
<path
   d="m 186.63,5.6836 0,0.0421 -0.01,0.0413 0,0.0406 -0.01,0.0397 -0.01,0.0388 -0.01,0.0379 -0.01,0.0369 -0.02,0.0359 -0.01,0.0349 -0.02,0.0339 -0.02,0.0327 -0.02,0.0316 -0.02,0.0304 -0.03,0.0292 -0.02,0.028 -0.03,0.0266 -0.02,0.0254 -0.03,0.0239 -0.03,0.0226 -0.03,0.0211 -0.03,0.0197 -0.04,0.0181 -0.03,0.0166 -0.03,0.015 -0.04,0.0134 -0.03,0.0117 -0.04,0.01 -0.03,0.0083 -0.04,0.0065 -0.03,0.0046 -0.04,0.0029 -0.04,9e-4 c -0.45,0 -0.78,-0.3906 -0.78,-0.7656 0,-0.4687 0.39,-0.7812 0.77,-0.7812 0.47,0 0.78,0.375 0.78,0.7656 z"
   id="path43"
   inkscape:connector-curvature="0"
   style="fill:#000000;stroke-width:0" />
<path
   d="m 193.62,5.6836 0,0.0421 0,0.0413 0,0.0406 -0.01,0.0397 -0.01,0.0388 -0.01,0.0379 -0.02,0.0369 -0.01,0.0359 -0.02,0.0349 -0.01,0.0339 -0.02,0.0327 -0.02,0.0316 -0.03,0.0304 -0.02,0.0292 -0.03,0.028 -0.02,0.0266 -0.03,0.0254 -0.03,0.0239 -0.03,0.0226 -0.03,0.0211 -0.03,0.0197 -0.03,0.0181 -0.03,0.0166 -0.04,0.015 -0.03,0.0134 -0.04,0.0117 -0.03,0.01 -0.04,0.0083 -0.03,0.0065 -0.04,0.0046 -0.03,0.0029 -0.04,9e-4 c -0.45,0 -0.78,-0.3906 -0.78,-0.7656 0,-0.4687 0.39,-0.7812 0.76,-0.7812 0.47,0 0.78,0.375 0.78,0.7656 z"
   id="path45"
   inkscape:connector-curvature="0"
   style="fill:#000000;stroke-width:0" />
<path
   d="m 200.6,5.6836 0,0.0421 0,0.0413 -0.01,0.0406 0,0.0397 -0.01,0.0388 -0.02,0.0379 -0.01,0.0369 -0.01,0.0359 -0.02,0.0349 -0.02,0.0339 -0.02,0.0327 -0.02,0.0316 -0.02,0.0304 -0.02,0.0292 -0.03,0.028 -0.02,0.0266 -0.03,0.0254 -0.03,0.0239 -0.03,0.0226 -0.03,0.0211 -0.03,0.0197 -0.03,0.0181 -0.04,0.0166 -0.03,0.015 -0.03,0.0134 -0.04,0.0117 -0.03,0.01 -0.04,0.0083 -0.03,0.0065 -0.04,0.0046 -0.04,0.0029 -0.03,9e-4 c -0.46,0 -0.79,-0.3906 -0.79,-0.7656 0,-0.4687 0.4,-0.7812 0.77,-0.7812 0.47,0 0.78,0.375 0.78,0.7656 z"
   id="path47"
   inkscape:connector-curvature="0"
   style="fill:#000000;stroke-width:0" />
</g></svg>
