<?xml version="1.0" encoding="UTF-8" standalone="no"?>
<svg
   xmlns:dc="http://purl.org/dc/elements/1.1/"
   xmlns:cc="http://creativecommons.org/ns#"
   xmlns:rdf="http://www.w3.org/1999/02/22-rdf-syntax-ns#"
   xmlns:svg="http://www.w3.org/2000/svg"
   xmlns="http://www.w3.org/2000/svg"
   xmlns:sodipodi="http://sodipodi.sourceforge.net/DTD/sodipodi-0.dtd"
   xmlns:inkscape="http://www.inkscape.org/namespaces/inkscape"
   version="1.1"
   id="body"
   width="440.11438"
   height="20.000134"
   viewBox="0 0 0.61126997 0.027777963"
   preserveAspectRatio="none"
   inkscape:version="0.48.3.1 r9886"
   sodipodi:docname="ch4-Z-G-9.svg">
  <metadata
     id="metadata83">
    <rdf:RDF>
      <cc:Work
         rdf:about="">
        <dc:format>image/svg+xml</dc:format>
        <dc:type
           rdf:resource="http://purl.org/dc/dcmitype/StillImage" />
      </cc:Work>
    </rdf:RDF>
  </metadata>
  <defs
     id="defs81" />
  <sodipodi:namedview
     pagecolor="#ffffff"
     bordercolor="#666666"
     borderopacity="1"
     objecttolerance="10"
     gridtolerance="10"
     guidetolerance="10"
     inkscape:pageopacity="0"
     inkscape:pageshadow="2"
     inkscape:window-width="640"
     inkscape:window-height="480"
     id="namedview79"
     showgrid="false"
     inkscape:zoom="0.32777778"
     inkscape:cx="381.36719"
     inkscape:cy="458.82151"
     inkscape:window-x="0"
     inkscape:window-y="24"
     inkscape:window-maximized="0"
     inkscape:current-layer="body" />
  <title
     id="title3">SVG drawing</title>
  <desc
     id="desc5">This was produced by version 4.4 of GNU libplot, a free library for exporting 2-D vector graphics.</desc>
  <g
     id="content"
     transform="matrix(0.0017361,0,0,-0.0017361,-0.00157334,0.02929705)"
     xml:space="preserve"
     stroke-miterlimit="10.433"
     font-style="normal"
     font-variant="normal"
     font-weight="normal"
     font-stretch="normal"
     font-size-adjust="none"
     letter-spacing="normal"
     word-spacing="normal"
     style="font-style:normal;font-variant:normal;font-weight:normal;font-stretch:normal;letter-spacing:normal;word-spacing:normal;text-anchor:start;fill:none;stroke:#000000;stroke-linecap:butt;stroke-linejoin:miter;stroke-miterlimit:10.43299961;stroke-opacity:1;stroke-dasharray:none;stroke-dashoffset:0">
<path
   d="m 10.109,8.5742 0.053,10e-5 0.052,5e-4 0.052,0.0015 0.025,0.0012 0.025,0.0016 0.024,0.0021 0.024,0.0026 0.024,0.0031 0.023,0.0038 0.022,0.0045 0.022,0.0052 0.021,0.006 0.02,0.0069 0.019,0.0078 0.019,0.0087 0.017,0.0098 0.017,0.0109 0.016,0.012 0.014,0.0133 0.013,0.0145 0.013,0.0158 0.01,0.0171 0.005,0.0092 0.005,0.0094 0.004,0.0099 0.004,0.0102 0.004,0.0107 0.003,0.011 0.003,0.0114 0.003,0.0118 0.002,0.0123 0.002,0.0126 10e-4,0.0131 10e-4,0.0135 0.001,0.014 0,0.0144 c 0,0.3281 -0.281,0.3281 -0.563,0.3281 H 1.5156 c -0.2656,0 -0.56248,0 -0.56248,-0.3281 0,-0.3125 0.29688,-0.3125 0.56248,-0.3125 z"
   id="path9"
   inkscape:connector-curvature="0"
   style="fill:#000000;stroke-width:0" />
<path
   d="m 16.613,15.106 0,0.016 0,0.016 0,0.016 0,0.015 0,0.015 0,0.014 0,0.013 0,0.014 -0.001,0.013 0,0.012 0,0.012 -10e-4,0.012 0,0.011 -0.001,0.01 -10e-4,0.011 -0.001,0.01 -0.001,0.009 -10e-4,0.009 -0.001,0.009 -0.001,0.009 -0.002,0.008 -0.001,0.008 -0.002,0.007 -0.002,0.007 -0.005,0.013 -0.005,0.012 -0.006,0.011 -0.007,0.01 -0.008,0.008 -0.008,0.008 -0.01,0.007 -0.011,0.006 -0.012,0.005 -0.013,0.004 -0.015,0.003 -0.007,0.002 -0.009,10e-4 -0.008,0.002 -0.009,10e-4 -0.009,0.001 -0.009,10e-4 -0.01,0 -0.01,10e-4 -0.011,10e-4 -0.011,0 -0.011,0.001 -0.012,0 -0.013,0 -0.012,0 -0.013,0 -0.014,0 -0.014,0 -0.014,10e-4 C 15.91,15.059 15.113,14.465 13.488,14.465 v -0.453 c 0.36,0 1.156,0 2.031,0.406 V 6.1367 c 0,-0.5625 -0.046,-0.7656 -1.453,-0.7656 H 13.582 V 4.918 c 0.422,0.0312 1.969,0.0312 2.484,0.0312 0.532,0 2.063,0 2.485,-0.0312 v 0.4531 h -0.485 c -1.406,0 -1.453,0.2031 -1.453,0.7656 z"
   id="path11"
   inkscape:connector-curvature="0"
   style="fill:#000000;stroke-width:0" />
<path
   d="m 35.004,10.074 0.042,0 0.042,10e-4 0.043,0.001 0.022,10e-4 0.021,0.002 0.022,10e-4 0.021,0.003 0.021,0.003 0.02,0.003 0.02,0.004 0.02,0.005 0.019,0.005 0.019,0.006 0.018,0.007 0.017,0.008 0.017,0.009 0.015,0.01 0.015,0.011 0.014,0.012 0.013,0.013 0.012,0.014 0.005,0.007 0.005,0.008 0.005,0.009 0.005,0.008 0.004,0.009 0.004,0.009 0.003,0.01 0.003,0.01 0.003,0.01 0.003,0.011 0.002,0.011 0.002,0.011 0.001,0.012 10e-4,0.012 10e-4,0.013 0,0.013 c 0,0.296 -0.266,0.296 -0.5,0.296 h -9.375 c -0.219,0 -0.5,0 -0.5,-0.281 0,-0.297 0.266,-0.297 0.5,-0.297 z"
   id="path13"
   inkscape:connector-curvature="0"
   style="fill:#000000;stroke-width:0" />
<path
   d="m 35.004,7.1055 0.042,0 0.042,6e-4 0.043,0.0013 0.022,0.0012 0.021,0.0015 0.022,0.002 0.021,0.0024 0.021,0.003 0.02,0.0036 0.02,0.0043 0.02,0.0049 0.019,0.0057 0.019,0.0066 0.018,0.0074 0.017,0.0083 0.017,0.0093 0.015,0.0103 0.015,0.0115 0.014,0.0125 0.013,0.0138 0.012,0.015 0.005,0.008 0.005,0.0083 0.005,0.0087 0.005,0.009 0.004,0.0094 0.004,0.0097 0.003,0.0101 0.003,0.0104 0.003,0.0109 0.003,0.0112 0.002,0.0117 0.002,0.012 0.001,0.0124 10e-4,0.0129 10e-4,0.0132 0,0.0137 c 0,0.2969 -0.266,0.2969 -0.5,0.2969 h -9.375 c -0.219,0 -0.5,0 -0.5,-0.2812 0,-0.3125 0.266,-0.3125 0.5,-0.3125 z"
   id="path15"
   inkscape:connector-curvature="0"
   style="fill:#000000;stroke-width:0" />
<path
   d="M 45.023,3.1367 44.939,3.0235 44.851,2.9127 44.758,2.8052 44.661,2.7014 44.611,2.6512 44.56,2.6021 44.508,2.5544 44.455,2.508 44.401,2.4631 44.345,2.4197 44.289,2.378 44.232,2.3379 44.174,2.2996 44.115,2.2632 44.056,2.2287 43.995,2.1963 43.933,2.166 43.87,2.1379 43.807,2.1121 43.742,2.0886 43.677,2.0676 43.611,2.0491 43.544,2.0333 43.476,2.0201 43.407,2.0097 43.337,2.0022 43.267,1.9976 43.195,1.9961 c -0.203,0 -0.953,0.0312 -1.203,0.7656 0.047,-0.0156 0.125,-0.0156 0.156,-0.0156 0.485,0 0.797,0.4062 0.797,0.7656 0,0.375 -0.297,0.5 -0.531,0.5 -0.266,0 -0.812,-0.1875 -0.812,-0.9687 0,-0.8125 0.687,-1.375 1.593,-1.375 1.578,0 3.188,1.4687 3.625,3.2343 l 1.563,6.2037 c 0.015,0.078 0.047,0.171 0.047,0.265 0,0.235 -0.188,0.391 -0.422,0.391 -0.141,0 -0.485,-0.063 -0.61,-0.531 L 46.227,6.5586 C 46.148,6.2617 46.148,6.2305 46.023,6.0586 45.695,5.6211 45.18,5.0742 44.414,5.0742 c -0.891,0 -0.969,0.875 -0.969,1.3125 0,0.9063 0.422,2.125 0.86,3.2656 0.172,0.4687 0.265,0.6877 0.265,0.9997 0,0.672 -0.468,1.282 -1.25,1.282 -1.468,0 -2.062,-2.3129 -2.062,-2.4379 0,-0.0625 0.078,-0.1406 0.187,-0.1406 0.141,0 0.157,0.0625 0.219,0.2812 0.375,1.3443 0.984,1.9693 1.609,1.9693 0.141,0 0.407,0 0.407,-0.516 0,-0.422 -0.172,-0.875 -0.407,-1.4845 -0.781,-2.0782 -0.781,-2.6094 -0.781,-2.9844 0,-1.5156 1.078,-1.8594 1.875,-1.8594 0.453,0 1.031,0.1406 1.594,0.7344 L 45.977,5.4805 C 45.727,4.543 45.57,3.918 45.023,3.1367 z"
   id="path17"
   inkscape:connector-curvature="0"
   style="fill:#000000;stroke-width:0" />
<path
   d="m 64.18,10.074 0.041,0 0.043,10e-4 0.043,0.001 0.022,10e-4 0.021,0.002 0.021,10e-4 0.022,0.003 0.02,0.003 0.021,0.003 0.02,0.004 0.02,0.005 0.019,0.005 0.019,0.006 0.018,0.007 0.017,0.008 0.016,0.009 0.016,0.01 0.015,0.011 0.014,0.012 0.013,0.013 0.011,0.014 0.006,0.007 0.005,0.008 0.005,0.009 0.004,0.008 0.005,0.009 0.003,0.009 0.004,0.01 0.003,0.01 0.003,0.01 0.003,0.011 0.002,0.011 0.001,0.011 0.002,0.012 0.001,0.012 0,0.013 0.001,0.013 c 0,0.296 -0.266,0.296 -0.5,0.296 h -9.375 c -0.219,0 -0.5,0 -0.5,-0.281 0,-0.297 0.265,-0.297 0.5,-0.297 z"
   id="path19"
   inkscape:connector-curvature="0"
   style="fill:#000000;stroke-width:0" />
<path
   d="m 64.18,7.1055 0.041,0 0.043,6e-4 0.043,0.0013 0.022,0.0012 0.021,0.0015 0.021,0.002 0.022,0.0024 0.02,0.003 0.021,0.0036 0.02,0.0043 0.02,0.0049 0.019,0.0057 0.019,0.0066 0.018,0.0074 0.017,0.0083 0.016,0.0093 0.016,0.0103 0.015,0.0115 0.014,0.0125 0.013,0.0138 0.011,0.015 0.006,0.008 0.005,0.0083 0.005,0.0087 0.004,0.009 0.005,0.0094 0.003,0.0097 0.004,0.0101 0.003,0.0104 0.003,0.0109 0.003,0.0112 0.002,0.0117 0.001,0.012 0.002,0.0124 0.001,0.0129 0,0.0132 0.001,0.0137 c 0,0.2969 -0.266,0.2969 -0.5,0.2969 h -9.375 c -0.219,0 -0.5,0 -0.5,-0.2812 0,-0.3125 0.265,-0.3125 0.5,-0.3125 z"
   id="path21"
   inkscape:connector-curvature="0"
   style="fill:#000000;stroke-width:0" />
<path
   d="m 74.594,15.106 0,0.016 0,0.016 0,0.016 0,0.015 0,0.015 0,0.014 -10e-4,0.013 0,0.014 0,0.013 0,0.012 -0.001,0.012 0,0.012 -0.001,0.011 0,0.01 -10e-4,0.011 -0.001,0.01 -0.001,0.009 -10e-4,0.009 -0.001,0.009 -0.002,0.009 -0.001,0.008 -0.002,0.008 -0.002,0.007 -0.002,0.007 -0.004,0.013 -0.005,0.012 -0.006,0.011 -0.007,0.01 -0.008,0.008 -0.009,0.008 -0.01,0.007 -0.011,0.006 -0.012,0.005 -0.013,0.004 -0.014,0.003 -0.008,0.002 -0.008,10e-4 -0.008,0.002 -0.009,10e-4 -0.009,0.001 -0.01,10e-4 -0.01,0 -0.01,10e-4 -0.011,10e-4 -0.011,0 -0.011,0.001 -0.012,0 -0.012,0 -0.013,0 -0.013,0 -0.013,0 -0.014,0 -0.015,10e-4 c -0.39,-0.422 -1.187,-1.016 -2.812,-1.016 v -0.453 c 0.359,0 1.156,0 2.031,0.406 V 6.1367 C 73.5,5.5742 73.453,5.3711 72.047,5.3711 H 71.562 V 4.918 c 0.422,0.0312 1.969,0.0312 2.485,0.0312 0.531,0 2.062,0 2.484,-0.0312 v 0.4531 h -0.484 c -1.406,0 -1.453,0.2031 -1.453,0.7656 z"
   id="path23"
   inkscape:connector-curvature="0"
   style="fill:#000000;stroke-width:0" />
<path
   d="m 87.699,8.5898 h 4.391 c 0.219,0 0.5,0 0.5,0.2813 0,0.3125 -0.266,0.3125 -0.5,0.3125 h -4.391 v 4.3754 c 0,0.234 0,0.515 -0.281,0.515 -0.313,0 -0.313,-0.265 -0.313,-0.515 V 9.1836 h -4.39 c -0.219,0 -0.5,0 -0.5,-0.2969 0,-0.2969 0.265,-0.2969 0.5,-0.2969 h 4.39 V 4.1992 c 0,-0.2187 0,-0.5 0.297,-0.5 0.297,0 0.297,0.2656 0.297,0.5 z"
   id="path25"
   inkscape:connector-curvature="0"
   style="fill:#000000;stroke-width:0" />
<path
   d="m 104.04,7.5898 h -0.36 C 103.63,7.3242 103.5,6.4492 103.35,6.1836 103.24,6.043 102.33,6.043 101.85,6.043 h -2.94 c 0.422,0.375 1.41,1.3906 1.81,1.7656 2.42,2.2344 3.32,3.0474 3.32,4.6254 0,1.828 -1.46,3.047 -3.3,3.047 -1.845,0 -2.924,-1.563 -2.924,-2.938 0,-0.812 0.704,-0.812 0.75,-0.812 0.329,0 0.735,0.25 0.735,0.75 0,0.453 -0.297,0.75 -0.735,0.75 -0.156,0 -0.187,0 -0.234,-0.016 0.313,1.078 1.172,1.812 2.208,1.812 1.34,0 2.17,-1.125 2.17,-2.593 0,-1.344 -0.78,-2.5317 -1.69,-3.5473 L 97.816,5.293 V 4.918 h 5.794 z"
   id="path27"
   inkscape:connector-curvature="0"
   style="fill:#000000;stroke-width:0" />
<path
   d="M 109.03,3.1367 108.95,3.0235 108.86,2.9127 108.77,2.8052 108.67,2.7014 108.62,2.6512 108.57,2.6021 108.52,2.5544 108.46,2.508 108.41,2.4631 108.35,2.4197 108.3,2.378 108.24,2.3379 108.18,2.2996 108.12,2.2632 108.06,2.2287 108,2.1963 107.94,2.166 107.88,2.1379 107.81,2.1121 107.75,2.0886 107.68,2.0676 107.62,2.0491 107.55,2.0333 107.48,2.0201 107.41,2.0097 107.34,2.0022 107.27,1.9976 107.2,1.9961 c -0.2,0 -0.95,0.0312 -1.2,0.7656 0.05,-0.0156 0.12,-0.0156 0.16,-0.0156 0.48,0 0.79,0.4062 0.79,0.7656 0,0.375 -0.29,0.5 -0.53,0.5 -0.26,0 -0.81,-0.1875 -0.81,-0.9687 0,-0.8125 0.69,-1.375 1.59,-1.375 1.58,0 3.19,1.4687 3.63,3.2343 l 1.56,6.2037 c 0.02,0.078 0.05,0.171 0.05,0.265 0,0.235 -0.19,0.391 -0.42,0.391 -0.14,0 -0.49,-0.063 -0.61,-0.531 l -1.18,-4.6724 c -0.07,-0.2969 -0.07,-0.3281 -0.2,-0.5 -0.33,-0.4375 -0.84,-0.9844 -1.61,-0.9844 -0.89,0 -0.97,0.875 -0.97,1.3125 0,0.9063 0.43,2.125 0.86,3.2656 0.17,0.4687 0.27,0.6877 0.27,0.9997 0,0.672 -0.47,1.282 -1.25,1.282 -1.47,0 -2.06,-2.3129 -2.06,-2.4379 0,-0.0625 0.07,-0.1406 0.18,-0.1406 0.14,0 0.16,0.0625 0.22,0.2812 0.38,1.3443 0.99,1.9693 1.61,1.9693 0.14,0 0.41,0 0.41,-0.516 0,-0.422 -0.17,-0.875 -0.41,-1.4845 -0.78,-2.0782 -0.78,-2.6094 -0.78,-2.9844 0,-1.5156 1.08,-1.8594 1.88,-1.8594 0.45,0 1.03,0.1406 1.59,0.7344 l 0.01,-0.0156 C 109.73,4.543 109.58,3.918 109.03,3.1367 z"
   id="path29"
   inkscape:connector-curvature="0"
   style="fill:#000000;stroke-width:0" />
<path
   d="m 128.19,10.074 0.04,0 0.05,10e-4 0.04,0.001 0.02,10e-4 0.02,0.002 0.02,10e-4 0.02,0.003 0.02,0.003 0.03,0.003 0.02,0.004 0.02,0.005 0.01,0.005 0.02,0.006 0.02,0.007 0.02,0.008 0.01,0.009 0.02,0.01 0.02,0.011 0.01,0.012 0.01,0.013 0.01,0.014 0.01,0.007 0,0.008 0.01,0.009 0,0.008 0.01,0.009 0,0.009 0.01,0.01 0,0.01 0,0.01 0,0.011 0.01,0.011 0,0.011 0,0.012 0,0.012 0,0.013 0,0.013 c 0,0.296 -0.26,0.296 -0.5,0.296 h -9.37 c -0.22,0 -0.5,0 -0.5,-0.281 0,-0.297 0.26,-0.297 0.5,-0.297 z"
   id="path31"
   inkscape:connector-curvature="0"
   style="fill:#000000;stroke-width:0" />
<path
   d="m 128.19,7.1055 0.04,0 0.05,6e-4 0.04,0.0013 0.02,0.0012 0.02,0.0015 0.02,0.002 0.02,0.0024 0.02,0.003 0.03,0.0036 0.02,0.0043 0.02,0.0049 0.01,0.0057 0.02,0.0066 0.02,0.0074 0.02,0.0083 0.01,0.0093 0.02,0.0103 0.02,0.0115 0.01,0.0125 0.01,0.0138 0.01,0.015 0.01,0.008 0,0.0083 0.01,0.0087 0,0.009 0.01,0.0094 0,0.0097 0.01,0.0101 0,0.0104 0,0.0109 0,0.0112 0.01,0.0117 0,0.012 0,0.0124 0,0.0129 0,0.0132 0,0.0137 c 0,0.2969 -0.26,0.2969 -0.5,0.2969 h -9.37 c -0.22,0 -0.5,0 -0.5,-0.2812 0,-0.3125 0.26,-0.3125 0.5,-0.3125 z"
   id="path33"
   inkscape:connector-curvature="0"
   style="fill:#000000;stroke-width:0" />
<path
   d="m 138.6,15.106 0,0.016 0,0.016 0,0.016 0,0.015 0,0.015 0,0.014 0,0.013 0,0.014 0,0.013 0,0.012 0,0.012 0,0.012 0,0.011 0,0.01 0,0.011 0,0.01 0,0.009 0,0.009 -0.01,0.009 0,0.009 0,0.008 0,0.008 0,0.007 0,0.007 -0.01,0.013 0,0.012 -0.01,0.011 -0.01,0.01 0,0.008 -0.01,0.008 -0.01,0.007 -0.01,0.006 -0.02,0.005 -0.01,0.004 -0.01,0.003 -0.01,0.002 -0.01,10e-4 -0.01,0.002 -0.01,10e-4 -0.01,0.001 -0.01,10e-4 -0.01,0 -0.01,10e-4 -0.01,10e-4 -0.01,0 -0.01,0.001 -0.01,0 -0.01,0 -0.02,0 -0.01,0 -0.01,0 -0.02,0 -0.01,10e-4 c -0.39,-0.422 -1.19,-1.016 -2.81,-1.016 v -0.453 c 0.36,0 1.15,0 2.03,0.406 V 6.1367 c 0,-0.5625 -0.05,-0.7656 -1.46,-0.7656 h -0.48 V 4.918 c 0.42,0.0312 1.97,0.0312 2.48,0.0312 0.54,0 2.07,0 2.49,-0.0312 v 0.4531 h -0.49 c -1.4,0 -1.45,0.2031 -1.45,0.7656 z"
   id="path35"
   inkscape:connector-curvature="0"
   style="fill:#000000;stroke-width:0" />
<path
   d="m 151.71,8.5898 h 4.39 c 0.22,0 0.5,0 0.5,0.2813 0,0.3125 -0.26,0.3125 -0.5,0.3125 h -4.39 v 4.3754 c 0,0.234 0,0.515 -0.28,0.515 -0.31,0 -0.31,-0.265 -0.31,-0.515 V 9.1836 h -4.39 c -0.22,0 -0.5,0 -0.5,-0.2969 0,-0.2969 0.26,-0.2969 0.5,-0.2969 h 4.39 V 4.1992 c 0,-0.2187 0,-0.5 0.29,-0.5 0.3,0 0.3,0.2656 0.3,0.5 z"
   id="path37"
   inkscape:connector-curvature="0"
   style="fill:#000000;stroke-width:0" />
<path
   d="m 168.04,7.5898 h -0.36 C 167.64,7.3242 167.51,6.4492 167.35,6.1836 167.25,6.043 166.34,6.043 165.85,6.043 h -2.93 c 0.42,0.375 1.4,1.3906 1.81,1.7656 2.42,2.2344 3.31,3.0474 3.31,4.6254 0,1.828 -1.45,3.047 -3.29,3.047 -1.85,0 -2.93,-1.563 -2.93,-2.938 0,-0.812 0.71,-0.812 0.75,-0.812 0.33,0 0.74,0.25 0.74,0.75 0,0.453 -0.3,0.75 -0.74,0.75 -0.15,0 -0.18,0 -0.23,-0.016 0.31,1.078 1.17,1.812 2.2,1.812 1.35,0 2.17,-1.125 2.17,-2.593 0,-1.344 -0.78,-2.5317 -1.68,-3.5473 L 161.82,5.293 V 4.918 h 5.8 z"
   id="path39"
   inkscape:connector-curvature="0"
   style="fill:#000000;stroke-width:0" />
<path
   d="m 174.02,1.0586 0,0.0087 0,0.0086 0,0.0045 0,0.0046 0,0.0047 0,0.005 -0.01,0.0053 0,0.0056 0,0.0059 0,0.0064 -0.01,0.0068 0,0.0074 -0.01,0.0079 -0.01,0.0084 0,0.0092 -0.01,0.0098 -0.01,0.0105 -0.01,0.0113 0,0.006 -0.01,0.0061 -0.01,0.0064 0,0.0067 -0.01,0.0068 0,0.0071 -0.01,0.0073 -0.01,0.0076 -0.01,0.0078 0,0.0081 -0.01,0.0083 -0.01,0.0086 -0.01,0.0089 -0.01,0.0091 -0.01,0.0095 -0.01,0.0097 -0.01,0.0101 -0.01,0.0103 -0.01,0.0107 -0.01,0.0109 -0.01,0.0113 -0.02,0.0116 -0.01,0.012 -0.01,0.0122 c -1.58,1.6094 -2.47,4.2344 -2.47,7.4688 0,3.0939 0.73,5.7349 2.58,7.6249 0.17,0.141 0.17,0.172 0.17,0.219 0,0.094 -0.08,0.125 -0.16,0.125 -0.2,0 -1.5,-1.141 -2.28,-2.703 -0.81,-1.61 -1.17,-3.313 -1.17,-5.2659 0,-1.4063 0.22,-3.2969 1.05,-5 0.94,-1.9063 2.23,-2.93751 2.4,-2.93751 0.08,0 0.16,0.03125 0.16,0.12501 z"
   id="path41"
   inkscape:connector-curvature="0"
   style="fill:#000000;stroke-width:0" />
<path
   d="m 179.49,15.106 0,0.016 0,0.016 0,0.016 0,0.015 0,0.015 0,0.014 0,0.013 0,0.014 0,0.013 0,0.012 0,0.012 0,0.012 0,0.011 0,0.01 0,0.011 0,0.01 0,0.009 0,0.009 -0.01,0.009 0,0.009 0,0.008 0,0.008 0,0.007 0,0.007 -0.01,0.013 0,0.012 -0.01,0.011 -0.01,0.01 0,0.008 -0.01,0.008 -0.01,0.007 -0.01,0.006 -0.02,0.005 -0.01,0.004 -0.01,0.003 -0.01,0.002 -0.01,10e-4 -0.01,0.002 -0.01,10e-4 -0.01,0.001 -0.01,10e-4 -0.01,0 -0.01,10e-4 -0.01,10e-4 -0.01,0 -0.01,0.001 -0.01,0 -0.01,0 -0.02,0 -0.01,0 -0.01,0 -0.02,0 -0.01,10e-4 c -0.39,-0.422 -1.19,-1.016 -2.81,-1.016 v -0.453 c 0.36,0 1.15,0 2.03,0.406 V 6.1367 c 0,-0.5625 -0.05,-0.7656 -1.45,-0.7656 h -0.49 V 4.918 c 0.42,0.0312 1.97,0.0312 2.49,0.0312 0.53,0 2.06,0 2.48,-0.0312 v 0.4531 h -0.48 c -1.41,0 -1.46,0.2031 -1.46,0.7656 z"
   id="path43"
   inkscape:connector-curvature="0"
   style="fill:#000000;stroke-width:0" />
<path
   d="m 192.6,8.5898 h 4.39 c 0.22,0 0.5,0 0.5,0.2813 0,0.3125 -0.27,0.3125 -0.5,0.3125 h -4.39 v 4.3754 c 0,0.234 0,0.515 -0.28,0.515 -0.32,0 -0.32,-0.265 -0.32,-0.515 V 9.1836 h -4.39 c -0.21,0 -0.5,0 -0.5,-0.2969 0,-0.2969 0.27,-0.2969 0.5,-0.2969 H 192 V 4.1992 c 0,-0.2187 0,-0.5 0.3,-0.5 0.3,0 0.3,0.2656 0.3,0.5 z"
   id="path45"
   inkscape:connector-curvature="0"
   style="fill:#000000;stroke-width:0" />
<path
   d="m 208.95,7.5898 h -0.36 C 208.54,7.3242 208.42,6.4492 208.26,6.1836 208.15,6.043 207.25,6.043 206.76,6.043 h -2.94 c 0.43,0.375 1.41,1.3906 1.82,1.7656 2.42,2.2344 3.31,3.0474 3.31,4.6254 0,1.828 -1.45,3.047 -3.3,3.047 -1.84,0 -2.92,-1.563 -2.92,-2.938 0,-0.812 0.7,-0.812 0.75,-0.812 0.33,0 0.73,0.25 0.73,0.75 0,0.453 -0.29,0.75 -0.73,0.75 -0.16,0 -0.19,0 -0.23,-0.016 0.31,1.078 1.17,1.812 2.2,1.812 1.34,0 2.17,-1.125 2.17,-2.593 0,-1.344 -0.78,-2.5317 -1.69,-3.5473 L 202.73,5.293 V 4.918 h 5.8 z"
   id="path47"
   inkscape:connector-curvature="0"
   style="fill:#000000;stroke-width:0" />
<path
   d="M 213.95,3.1367 213.86,3.0235 213.77,2.9127 213.68,2.8052 213.58,2.7014 213.53,2.6512 213.48,2.6021 213.43,2.5544 213.38,2.508 213.32,2.4631 213.27,2.4197 213.21,2.378 213.15,2.3379 213.1,2.2996 213.04,2.2632 212.98,2.2287 212.92,2.1963 212.86,2.166 212.79,2.1379 212.73,2.1121 212.66,2.0886 212.6,2.0676 212.53,2.0491 212.47,2.0333 212.4,2.0201 212.33,2.0097 212.26,2.0022 212.19,1.9976 212.12,1.9961 c -0.21,0 -0.96,0.0312 -1.21,0.7656 0.05,-0.0156 0.13,-0.0156 0.16,-0.0156 0.48,0 0.8,0.4062 0.8,0.7656 0,0.375 -0.3,0.5 -0.53,0.5 -0.27,0 -0.82,-0.1875 -0.82,-0.9687 0,-0.8125 0.69,-1.375 1.6,-1.375 1.58,0 3.18,1.4687 3.62,3.2343 l 1.56,6.2037 c 0.02,0.078 0.05,0.171 0.05,0.265 0,0.235 -0.19,0.391 -0.42,0.391 -0.14,0 -0.48,-0.063 -0.61,-0.531 l -1.17,-4.6724 c -0.08,-0.2969 -0.08,-0.3281 -0.2,-0.5 -0.33,-0.4375 -0.85,-0.9844 -1.61,-0.9844 -0.89,0 -0.97,0.875 -0.97,1.3125 0,0.9063 0.42,2.125 0.86,3.2656 0.17,0.4687 0.26,0.6877 0.26,0.9997 0,0.672 -0.47,1.282 -1.25,1.282 -1.47,0 -2.06,-2.3129 -2.06,-2.4379 0,-0.0625 0.08,-0.1406 0.19,-0.1406 0.14,0 0.15,0.0625 0.22,0.2812 0.37,1.3443 0.98,1.9693 1.61,1.9693 0.14,0 0.4,0 0.4,-0.516 0,-0.422 -0.17,-0.875 -0.4,-1.4845 -0.79,-2.0782 -0.79,-2.6094 -0.79,-2.9844 0,-1.5156 1.08,-1.8594 1.88,-1.8594 0.45,0 1.03,0.1406 1.59,0.7344 L 214.9,5.4805 C 214.65,4.543 214.49,3.918 213.95,3.1367 z"
   id="path49"
   inkscape:connector-curvature="0"
   style="fill:#000000;stroke-width:0" />
<path
   d="m 222.42,8.8711 0,0.1164 0,0.1207 0,0.1247 -0.01,0.1287 0,0.1324 -0.01,0.136 -0.02,0.2821 -0.02,0.2949 -0.03,0.305 -0.05,0.316 -0.05,0.324 -0.06,0.332 -0.07,0.338 -0.09,0.342 -0.1,0.346 -0.11,0.348 -0.06,0.174 -0.06,0.175 -0.07,0.174 -0.08,0.174 -0.07,0.174 -0.08,0.173 c -0.94,1.907 -2.26,2.938 -2.43,2.938 -0.06,0 -0.14,-0.031 -0.14,-0.125 0,-0.047 0,-0.078 0.27,-0.36 1.59,-1.593 2.48,-4.218 2.48,-7.4683 0,-3.0781 -0.75,-5.7344 -2.59,-7.6094 -0.16,-0.1406 -0.16,-0.1718 -0.16,-0.2187 0,-0.09376 0.08,-0.12501 0.14,-0.12501 0.21,0 1.52,1.14061 2.3,2.70311 0.8,1.6094 1.17,3.3281 1.17,5.2344 z"
   id="path51"
   inkscape:connector-curvature="0"
   style="fill:#000000;stroke-width:0" />
<path
   d="m 239.17,10.074 0.04,0 0.05,10e-4 0.04,0.001 0.02,10e-4 0.02,0.002 0.02,10e-4 0.03,0.003 0.02,0.003 0.02,0.003 0.02,0.004 0.02,0.005 0.02,0.005 0.01,0.006 0.02,0.007 0.02,0.008 0.02,0.009 0.01,0.01 0.02,0.011 0.01,0.012 0.01,0.013 0.01,0.014 0.01,0.007 0.01,0.008 0,0.009 0,0.008 0.01,0.009 0,0.009 0.01,0.01 0,0.01 0,0.01 0,0.011 0.01,0.011 0,0.011 0,0.012 0,0.012 0,0.013 0,0.013 c 0,0.296 -0.26,0.296 -0.5,0.296 h -9.37 c -0.22,0 -0.5,0 -0.5,-0.281 0,-0.297 0.26,-0.297 0.5,-0.297 z"
   id="path53"
   inkscape:connector-curvature="0"
   style="fill:#000000;stroke-width:0" />
<path
   d="m 239.17,7.1055 0.04,0 0.05,6e-4 0.04,0.0013 0.02,0.0012 0.02,0.0015 0.02,0.002 0.03,0.0024 0.02,0.003 0.02,0.0036 0.02,0.0043 0.02,0.0049 0.02,0.0057 0.01,0.0066 0.02,0.0074 0.02,0.0083 0.02,0.0093 0.01,0.0103 0.02,0.0115 0.01,0.0125 0.01,0.0138 0.01,0.015 0.01,0.008 0.01,0.0083 0,0.0087 0,0.009 0.01,0.0094 0,0.0097 0.01,0.0101 0,0.0104 0,0.0109 0,0.0112 0.01,0.0117 0,0.012 0,0.0124 0,0.0129 0,0.0132 0,0.0137 c 0,0.2969 -0.26,0.2969 -0.5,0.2969 h -9.37 c -0.22,0 -0.5,0 -0.5,-0.2812 0,-0.3125 0.26,-0.3125 0.5,-0.3125 z"
   id="path55"
   inkscape:connector-curvature="0"
   style="fill:#000000;stroke-width:0" />
<path
   d="m 249.57,15.106 0,0.016 0,0.016 0,0.016 0,0.015 0,0.015 0,0.014 0,0.013 0,0.014 0,0.013 0,0.012 0,0.012 0,0.012 0,0.011 0,0.01 0,0.011 0,0.01 -0.01,0.009 0,0.009 0,0.009 0,0.009 0,0.008 0,0.008 0,0.007 -0.01,0.007 0,0.013 -0.01,0.012 0,0.011 -0.01,0.01 -0.01,0.008 -0.01,0.008 -0.01,0.007 -0.01,0.006 -0.01,0.005 -0.01,0.004 -0.02,0.003 0,0.002 -0.01,10e-4 -0.01,0.002 -0.01,10e-4 -0.01,0.001 -0.01,10e-4 -0.01,0 -0.01,10e-4 -0.01,10e-4 -0.01,0 -0.01,0.001 -0.01,0 -0.01,0 -0.02,0 -0.01,0 -0.01,0 -0.02,0 -0.01,10e-4 c -0.39,-0.422 -1.19,-1.016 -2.81,-1.016 v -0.453 c 0.35,0 1.15,0 2.03,0.406 V 6.1367 c 0,-0.5625 -0.05,-0.7656 -1.46,-0.7656 h -0.48 V 4.918 c 0.42,0.0312 1.97,0.0312 2.48,0.0312 0.53,0 2.07,0 2.49,-0.0312 v 0.4531 h -0.49 c -1.4,0 -1.45,0.2031 -1.45,0.7656 z"
   id="path57"
   inkscape:connector-curvature="0"
   style="fill:#000000;stroke-width:0" />
<path
   d="m 262.69,8.5898 h 4.39 c 0.22,0 0.5,0 0.5,0.2813 0,0.3125 -0.26,0.3125 -0.5,0.3125 h -4.39 v 4.3754 c 0,0.234 0,0.515 -0.28,0.515 -0.31,0 -0.31,-0.265 -0.31,-0.515 V 9.1836 h -4.39 c -0.22,0 -0.5,0 -0.5,-0.2969 0,-0.2969 0.26,-0.2969 0.5,-0.2969 h 4.39 V 4.1992 c 0,-0.2187 0,-0.5 0.29,-0.5 0.3,0 0.3,0.2656 0.3,0.5 z"
   id="path59"
   inkscape:connector-curvature="0"
   style="fill:#000000;stroke-width:0" />
<path
   d="m 279.03,7.5898 h -0.36 C 278.62,7.3242 278.5,6.4492 278.34,6.1836 278.23,6.043 277.32,6.043 276.84,6.043 h -2.94 c 0.42,0.375 1.41,1.3906 1.81,1.7656 2.43,2.2344 3.32,3.0474 3.32,4.6254 0,1.828 -1.46,3.047 -3.3,3.047 -1.84,0 -2.92,-1.563 -2.92,-2.938 0,-0.812 0.7,-0.812 0.75,-0.812 0.33,0 0.73,0.25 0.73,0.75 0,0.453 -0.29,0.75 -0.73,0.75 -0.16,0 -0.19,0 -0.24,-0.016 0.32,1.078 1.18,1.812 2.21,1.812 1.34,0 2.17,-1.125 2.17,-2.593 0,-1.344 -0.78,-2.5317 -1.69,-3.5473 L 272.81,5.293 V 4.918 h 5.8 z"
   id="path61"
   inkscape:connector-curvature="0"
   style="fill:#000000;stroke-width:0" />
<path
   d="m 289.71,8.5898 h 4.39 c 0.22,0 0.5,0 0.5,0.2813 0,0.3125 -0.26,0.3125 -0.5,0.3125 h -4.39 v 4.3754 c 0,0.234 0,0.515 -0.28,0.515 -0.31,0 -0.31,-0.265 -0.31,-0.515 V 9.1836 h -4.39 c -0.22,0 -0.5,0 -0.5,-0.2969 0,-0.2969 0.26,-0.2969 0.5,-0.2969 h 4.39 V 4.1992 c 0,-0.2187 0,-0.5 0.29,-0.5 0.3,0 0.3,0.2656 0.3,0.5 z"
   id="path63"
   inkscape:connector-curvature="0"
   style="fill:#000000;stroke-width:0" />
<path
   d="m 304.78,15.262 0,0.014 0,0.014 0,0.014 0,0.014 0,0.026 0,0.024 0,0.024 0,0.022 0,0.021 0,0.02 0,0.018 -0.01,0.018 0,0.016 0,0.016 0,0.014 -0.01,0.013 0,0.013 -0.01,0.011 0,0.011 -0.01,0.009 0,0.009 -0.01,0.008 -0.01,0.007 -0.01,0.007 -0.01,0.005 -0.01,0.005 -0.01,0.004 -0.02,0.004 -0.01,0.003 -0.02,0.002 -0.01,0.002 -0.02,10e-4 -0.02,10e-4 -0.01,0 -0.01,0 c -0.12,0 -0.17,0 -0.29,-0.203 l -4.8,-7.4217 h 0.41 l 3.85,5.9997 V 8.0273 h -3.85 -0.41 V 7.5742 h 4.19 V 6.1211 c 0,-0.5781 -0.04,-0.75 -1.19,-0.75 h -0.33 V 4.918 c 0.38,0.0312 1.63,0.0312 2.08,0.0312 0.44,0 1.7,0 2.08,-0.0312 v 0.4531 h -0.32 c -1.15,0 -1.2,0.1719 -1.2,0.75 v 1.4531 h 1.61 v 0.4531 h -1.61 z"
   id="path65"
   inkscape:connector-curvature="0"
   style="fill:#000000;stroke-width:0" />
<path
   d="M 311.05,3.1367 310.97,3.0235 310.88,2.9127 310.79,2.8052 310.69,2.7014 310.64,2.6512 310.59,2.6021 310.53,2.5544 310.48,2.508 310.43,2.4631 310.37,2.4197 310.32,2.378 310.26,2.3379 310.2,2.2996 310.14,2.2632 310.08,2.2287 310.02,2.1963 309.96,2.166 309.9,2.1379 309.83,2.1121 309.77,2.0886 309.7,2.0676 309.64,2.0491 309.57,2.0333 309.5,2.0201 309.43,2.0097 309.36,2.0022 309.29,1.9976 309.22,1.9961 c -0.2,0 -0.95,0.0312 -1.2,0.7656 0.05,-0.0156 0.12,-0.0156 0.16,-0.0156 0.48,0 0.79,0.4062 0.79,0.7656 0,0.375 -0.29,0.5 -0.53,0.5 -0.26,0 -0.81,-0.1875 -0.81,-0.9687 0,-0.8125 0.69,-1.375 1.59,-1.375 1.58,0 3.19,1.4687 3.63,3.2343 l 1.56,6.2037 c 0.02,0.078 0.05,0.171 0.05,0.265 0,0.235 -0.19,0.391 -0.42,0.391 -0.15,0 -0.49,-0.063 -0.61,-0.531 l -1.18,-4.6724 c -0.07,-0.2969 -0.07,-0.3281 -0.2,-0.5 -0.33,-0.4375 -0.84,-0.9844 -1.61,-0.9844 -0.89,0 -0.97,0.875 -0.97,1.3125 0,0.9063 0.42,2.125 0.86,3.2656 0.17,0.4687 0.27,0.6877 0.27,0.9997 0,0.672 -0.47,1.282 -1.25,1.282 -1.47,0 -2.06,-2.3129 -2.06,-2.4379 0,-0.0625 0.07,-0.1406 0.18,-0.1406 0.14,0 0.16,0.0625 0.22,0.2812 0.38,1.3443 0.99,1.9693 1.61,1.9693 0.14,0 0.41,0 0.41,-0.516 0,-0.422 -0.17,-0.875 -0.41,-1.4845 -0.78,-2.0782 -0.78,-2.6094 -0.78,-2.9844 0,-1.5156 1.08,-1.8594 1.87,-1.8594 0.46,0 1.04,0.1406 1.6,0.7344 L 312,5.4805 C 311.75,4.543 311.6,3.918 311.05,3.1367 z"
   id="path67"
   inkscape:connector-curvature="0"
   style="fill:#000000;stroke-width:0" />
<path
   d="m 330.21,10.074 0.04,0 0.04,10e-4 0.04,0.001 0.03,10e-4 0.02,0.002 0.02,10e-4 0.02,0.003 0.02,0.003 0.02,0.003 0.02,0.004 0.02,0.005 0.02,0.005 0.02,0.006 0.02,0.007 0.01,0.008 0.02,0.009 0.02,0.01 0.01,0.011 0.02,0.012 0.01,0.013 0.01,0.014 0.01,0.007 0,0.008 0.01,0.009 0,0.008 0,0.009 0.01,0.009 0,0.01 0,0.01 0.01,0.01 0,0.011 0,0.011 0,0.011 0.01,0.012 0,0.012 0,0.013 0,0.013 c 0,0.296 -0.27,0.296 -0.5,0.296 h -9.38 c -0.22,0 -0.5,0 -0.5,-0.281 0,-0.297 0.27,-0.297 0.5,-0.297 z"
   id="path69"
   inkscape:connector-curvature="0"
   style="fill:#000000;stroke-width:0" />
<path
   d="m 330.21,7.1055 0.04,0 0.04,6e-4 0.04,0.0013 0.03,0.0012 0.02,0.0015 0.02,0.002 0.02,0.0024 0.02,0.003 0.02,0.0036 0.02,0.0043 0.02,0.0049 0.02,0.0057 0.02,0.0066 0.02,0.0074 0.01,0.0083 0.02,0.0093 0.02,0.0103 0.01,0.0115 0.02,0.0125 0.01,0.0138 0.01,0.015 0.01,0.008 0,0.0083 0.01,0.0087 0,0.009 0,0.0094 0.01,0.0097 0,0.0101 0,0.0104 0.01,0.0109 0,0.0112 0,0.0117 0,0.012 0.01,0.0124 0,0.0129 0,0.0132 0,0.0137 c 0,0.2969 -0.27,0.2969 -0.5,0.2969 h -9.38 c -0.22,0 -0.5,0 -0.5,-0.2812 0,-0.3125 0.27,-0.3125 0.5,-0.3125 z"
   id="path71"
   inkscape:connector-curvature="0"
   style="fill:#000000;stroke-width:0" />
<path
   d="m 338.96,5.6836 0,0.0421 0,0.0413 0,0.0406 -0.01,0.0397 -0.01,0.0388 -0.01,0.0379 -0.02,0.0369 -0.01,0.0359 -0.02,0.0349 -0.01,0.0339 -0.02,0.0327 -0.02,0.0316 -0.03,0.0304 -0.02,0.0292 -0.03,0.028 -0.02,0.0266 -0.03,0.0254 -0.03,0.0239 -0.03,0.0226 -0.03,0.0211 -0.03,0.0197 -0.03,0.0181 -0.03,0.0166 -0.04,0.015 -0.03,0.0134 -0.04,0.0117 -0.03,0.01 -0.04,0.0083 -0.03,0.0065 -0.04,0.0046 -0.03,0.0029 -0.04,9e-4 c -0.45,0 -0.78,-0.3906 -0.78,-0.7656 0,-0.4687 0.39,-0.7812 0.76,-0.7812 0.47,0 0.78,0.375 0.78,0.7656 z"
   id="path73"
   inkscape:connector-curvature="0"
   style="fill:#000000;stroke-width:0" />
<path
   d="m 345.96,5.6836 0,0.0421 -0.01,0.0413 0,0.0406 -0.01,0.0397 -0.01,0.0388 -0.01,0.0379 -0.01,0.0369 -0.02,0.0359 -0.01,0.0349 -0.02,0.0339 -0.02,0.0327 -0.02,0.0316 -0.02,0.0304 -0.03,0.0292 -0.02,0.028 -0.03,0.0266 -0.03,0.0254 -0.03,0.0239 -0.02,0.0226 -0.03,0.0211 -0.04,0.0197 -0.03,0.0181 -0.03,0.0166 -0.03,0.015 -0.04,0.0134 -0.03,0.0117 -0.04,0.01 -0.03,0.0083 -0.04,0.0065 -0.04,0.0046 -0.03,0.0029 -0.04,9e-4 c -0.45,0 -0.78,-0.3906 -0.78,-0.7656 0,-0.4687 0.39,-0.7812 0.77,-0.7812 0.46,0 0.78,0.375 0.78,0.7656 z"
   id="path75"
   inkscape:connector-curvature="0"
   style="fill:#000000;stroke-width:0" />
<path
   d="m 352.94,5.6836 0,0.0421 -0.01,0.0413 0,0.0406 -0.01,0.0397 -0.01,0.0388 -0.01,0.0379 -0.01,0.0369 -0.02,0.0359 -0.01,0.0349 -0.02,0.0339 -0.02,0.0327 -0.02,0.0316 -0.02,0.0304 -0.03,0.0292 -0.02,0.028 -0.03,0.0266 -0.03,0.0254 -0.02,0.0239 -0.03,0.0226 -0.03,0.0211 -0.04,0.0197 -0.03,0.0181 -0.03,0.0166 -0.03,0.015 -0.04,0.0134 -0.03,0.0117 -0.04,0.01 -0.03,0.0083 -0.04,0.0065 -0.04,0.0046 -0.03,0.0029 -0.04,9e-4 c -0.45,0 -0.78,-0.3906 -0.78,-0.7656 0,-0.4687 0.39,-0.7812 0.77,-0.7812 0.46,0 0.78,0.375 0.78,0.7656 z"
   id="path77"
   inkscape:connector-curvature="0"
   style="fill:#000000;stroke-width:0" />
</g></svg>
