<?xml version="1.0" encoding="UTF-8" standalone="no"?>
<svg
   xmlns:dc="http://purl.org/dc/elements/1.1/"
   xmlns:cc="http://creativecommons.org/ns#"
   xmlns:rdf="http://www.w3.org/1999/02/22-rdf-syntax-ns#"
   xmlns:svg="http://www.w3.org/2000/svg"
   xmlns="http://www.w3.org/2000/svg"
   xmlns:sodipodi="http://sodipodi.sourceforge.net/DTD/sodipodi-0.dtd"
   xmlns:inkscape="http://www.inkscape.org/namespaces/inkscape"
   version="1.1"
   id="body"
   width="206.24867"
   height="15.038981"
   viewBox="0 0 0.28645649 0.020887474"
   preserveAspectRatio="none"
   inkscape:version="0.48.3.1 r9886"
   sodipodi:docname="ch4-Z-G-10.svg">
  <metadata
     id="metadata43">
    <rdf:RDF>
      <cc:Work
         rdf:about="">
        <dc:format>image/svg+xml</dc:format>
        <dc:type
           rdf:resource="http://purl.org/dc/dcmitype/StillImage" />
      </cc:Work>
    </rdf:RDF>
  </metadata>
  <defs
     id="defs41" />
  <sodipodi:namedview
     pagecolor="#ffffff"
     bordercolor="#666666"
     borderopacity="1"
     objecttolerance="10"
     gridtolerance="10"
     guidetolerance="10"
     inkscape:pageopacity="0"
     inkscape:pageshadow="2"
     inkscape:window-width="640"
     inkscape:window-height="480"
     id="namedview39"
     showgrid="false"
     inkscape:zoom="0.32777778"
     inkscape:cx="381.95313"
     inkscape:cy="459.09495"
     inkscape:window-x="0"
     inkscape:window-y="24"
     inkscape:window-maximized="0"
     inkscape:current-layer="body" />
  <title
     id="title3">SVG drawing</title>
  <desc
     id="desc5">This was produced by version 4.4 of GNU libplot, a free library for exporting 2-D vector graphics.</desc>
  <g
     id="content"
     transform="matrix(0.0017361,0,0,-0.0017361,-7.5954375e-4,0.02202679)"
     xml:space="preserve"
     stroke-miterlimit="10.433"
     font-style="normal"
     font-variant="normal"
     font-weight="normal"
     font-stretch="normal"
     font-size-adjust="none"
     letter-spacing="normal"
     word-spacing="normal"
     style="font-style:normal;font-variant:normal;font-weight:normal;font-stretch:normal;letter-spacing:normal;word-spacing:normal;text-anchor:start;fill:none;stroke:#000000;stroke-linecap:butt;stroke-linejoin:miter;stroke-miterlimit:10.43299961;stroke-opacity:1;stroke-dasharray:none;stroke-dashoffset:0">
<path
   d="m 9.6523,5.5742 0.0527,10e-5 0.0523,5e-4 0.0514,0.0015 0.0253,0.0012 0.0249,0.0016 0.0245,0.0021 0.024,0.0026 0.0235,0.0031 0.023,0.0038 0.0223,0.0045 0.0217,0.0052 0.0211,0.006 0.02,0.0069 0.019,0.0078 0.019,0.0087 0.017,0.0098 0.017,0.0109 0.016,0.012 0.014,0.0133 0.013,0.0145 0.012,0.0158 0.011,0.0171 0.005,0.0092 0.005,0.0094 0.004,0.0099 0.004,0.0102 0.004,0.0107 0.003,0.011 0.003,0.0114 0.003,0.0118 0.002,0.0123 0.002,0.0126 10e-4,0.0131 0.001,0.0135 10e-4,0.014 0,0.0144 c 0,0.3281 -0.2814,0.3281 -0.5627,0.3281 H 1.0586 c -0.26563,0 -0.56251,0 -0.56251,-0.3281 0,-0.3125 0.29688,-0.3125 0.56251,-0.3125 z"
   id="path9"
   inkscape:connector-curvature="0"
   style="fill:#000000;stroke-width:0" />
<path
   d="m 16.16,12.106 0,0.016 0,0.016 0,0.016 0,0.015 0,0.015 0,0.014 0,0.013 0,0.014 -0.001,0.013 0,0.012 0,0.012 -10e-4,0.012 0,0.011 -0.001,0.01 -0.001,0.011 -10e-4,0.01 -0.001,0.009 -0.001,0.009 -10e-4,0.009 -0.001,0.009 -0.002,0.008 -0.001,0.008 -0.002,0.007 -0.002,0.007 -0.005,0.013 -0.005,0.012 -0.006,0.011 -0.007,0.01 -0.008,0.008 -0.008,0.008 -0.01,0.007 -0.011,0.006 -0.012,0.005 -0.013,0.004 -0.015,0.003 -0.008,0.002 -0.008,10e-4 -0.008,0.002 -0.009,10e-4 -0.009,0.001 -0.009,10e-4 -0.01,0 -0.011,10e-4 -0.01,10e-4 -0.011,0 -0.012,0.001 -0.011,0 -0.013,0 -0.012,0 -0.013,0 -0.014,0 -0.014,0 -0.014,10e-4 C 15.457,12.059 14.66,11.465 13.035,11.465 v -0.453 c 0.359,0 1.156,0 2.031,0.406 V 3.1367 c 0,-0.5625 -0.047,-0.7656 -1.453,-0.7656 H 13.129 V 1.918 c 0.422,0.0312 1.969,0.0312 2.484,0.0312 0.532,0 2.063,0 2.485,-0.0312 v 0.4531 h -0.485 c -1.406,0 -1.453,0.2031 -1.453,0.7656 z"
   id="path11"
   inkscape:connector-curvature="0"
   style="fill:#000000;stroke-width:0" />
<path
   d="m 34.551,7.0742 0.041,10e-5 0.043,5e-4 0.043,0.0013 0.022,0.0011 0.021,0.0014 0.022,0.0019 0.021,0.0023 0.021,0.0028 0.02,0.0035 0.02,0.004 0.02,0.0047 0.019,0.0054 0.019,0.0062 0.018,0.007 0.017,0.0079 0.017,0.0088 0.015,0.0098 0.015,0.0108 0.014,0.0119 0.013,0.0131 0.011,0.0142 0.006,0.0075 0.005,0.0079 0.005,0.0082 0.004,0.0086 0.005,0.0088 0.004,0.0093 0.003,0.0095 0.003,0.0099 0.003,0.0103 0.003,0.0107 0.002,0.011 0.002,0.0114 10e-4,0.0117 10e-4,0.0122 0.001,0.0126 0,0.013 c 0,0.2968 -0.266,0.2968 -0.5,0.2968 h -9.375 c -0.219,0 -0.5,0 -0.5,-0.2812 0,-0.2969 0.265,-0.2969 0.5,-0.2969 z"
   id="path13"
   inkscape:connector-curvature="0"
   style="fill:#000000;stroke-width:0" />
<path
   d="m 34.551,4.1055 0.041,0 0.043,6e-4 0.043,0.0013 0.022,0.0012 0.021,0.0015 0.022,0.002 0.021,0.0024 0.021,0.003 0.02,0.0036 0.02,0.0043 0.02,0.0049 0.019,0.0057 0.019,0.0066 0.018,0.0074 0.017,0.0083 0.017,0.0093 0.015,0.0103 0.015,0.0115 0.014,0.0125 0.013,0.0138 0.011,0.015 0.006,0.008 0.005,0.0083 0.005,0.0087 0.004,0.009 0.005,0.0094 0.004,0.0097 0.003,0.0101 0.003,0.0104 0.003,0.0109 0.003,0.0112 0.002,0.0117 0.002,0.012 10e-4,0.0124 10e-4,0.0129 0.001,0.0132 0,0.0137 c 0,0.2969 -0.266,0.2969 -0.5,0.2969 h -9.375 c -0.219,0 -0.5,0 -0.5,-0.2812 0,-0.3125 0.265,-0.3125 0.5,-0.3125 z"
   id="path15"
   inkscape:connector-curvature="0"
   style="fill:#000000;stroke-width:0" />
<path
   d="m 44.965,12.106 0,0.016 0,0.016 0,0.016 0,0.015 0,0.015 0,0.014 -0.001,0.013 0,0.014 0,0.013 0,0.012 -10e-4,0.012 0,0.012 -10e-4,0.011 0,0.01 -0.001,0.011 -10e-4,0.01 -10e-4,0.009 -0.001,0.009 -10e-4,0.009 -0.002,0.009 -10e-4,0.008 -0.002,0.008 -0.002,0.007 -0.002,0.007 -0.004,0.013 -0.005,0.012 -0.006,0.011 -0.007,0.01 -0.008,0.008 -0.009,0.008 -0.01,0.007 -0.01,0.006 -0.013,0.005 -0.013,0.004 -0.014,0.003 -0.008,0.002 -0.008,10e-4 -0.008,0.002 -0.009,10e-4 -0.009,0.001 -0.01,10e-4 -0.01,0 -0.01,10e-4 -0.011,10e-4 -0.011,0 -0.011,0.001 -0.012,0 -0.012,0 -0.013,0 -0.013,0 -0.013,0 -0.014,0 -0.015,10e-4 c -0.39,-0.422 -1.187,-1.016 -2.812,-1.016 v -0.453 c 0.359,0 1.156,0 2.031,0.406 V 3.1367 c 0,-0.5625 -0.047,-0.7656 -1.453,-0.7656 H 41.934 V 1.918 c 0.421,0.0312 1.968,0.0312 2.484,0.0312 0.531,0 2.062,0 2.484,-0.0312 v 0.4531 h -0.484 c -1.406,0 -1.453,0.2031 -1.453,0.7656 z"
   id="path17"
   inkscape:connector-curvature="0"
   style="fill:#000000;stroke-width:0" />
<path
   d="m 58.07,5.5898 h 4.391 c 0.219,0 0.5,0 0.5,0.2813 0,0.3125 -0.266,0.3125 -0.5,0.3125 H 58.07 v 4.3754 c 0,0.234 0,0.515 -0.281,0.515 -0.312,0 -0.312,-0.265 -0.312,-0.515 V 6.1836 h -4.391 c -0.219,0 -0.5,0 -0.5,-0.2969 0,-0.2969 0.266,-0.2969 0.5,-0.2969 h 4.391 V 1.1992 c 0,-0.21873 0,-0.49998 0.296,-0.49998 0.297,0 0.297,0.26562 0.297,0.49998 z"
   id="path19"
   inkscape:connector-curvature="0"
   style="fill:#000000;stroke-width:0" />
<path
   d="M 74.406,4.5898 H 74.047 C 74,4.3242 73.875,3.4492 73.719,3.1836 73.609,3.043 72.703,3.043 72.219,3.043 h -2.938 c 0.422,0.375 1.407,1.3906 1.813,1.7656 2.422,2.2344 3.312,3.0469 3.312,4.625 0,1.8284 -1.453,3.0474 -3.297,3.0474 -1.843,0 -2.921,-1.563 -2.921,-2.938 0,-0.8125 0.703,-0.8125 0.75,-0.8125 0.328,0 0.734,0.25 0.734,0.75 0,0.4531 -0.297,0.7505 -0.734,0.7505 -0.157,0 -0.188,0 -0.235,-0.016 0.313,1.078 1.172,1.812 2.203,1.812 1.344,0 2.172,-1.125 2.172,-2.5934 0,-1.3438 -0.781,-2.5313 -1.687,-3.5469 L 68.188,2.293 V 1.918 h 5.796 z"
   id="path21"
   inkscape:connector-curvature="0"
   style="fill:#000000;stroke-width:0" />
<path
   d="m 85.09,5.5898 h 4.39 c 0.219,0 0.5,0 0.5,0.2813 0,0.3125 -0.265,0.3125 -0.5,0.3125 h -4.39 v 4.3754 c 0,0.234 0,0.515 -0.281,0.515 -0.313,0 -0.313,-0.265 -0.313,-0.515 V 6.1836 h -4.391 c -0.218,0 -0.5,0 -0.5,-0.2969 0,-0.2969 0.266,-0.2969 0.5,-0.2969 h 4.391 V 1.1992 c 0,-0.21873 0,-0.49998 0.297,-0.49998 0.297,0 0.297,0.26562 0.297,0.49998 z"
   id="path23"
   inkscape:connector-curvature="0"
   style="fill:#000000;stroke-width:0" />
<path
   d="m 100.16,12.262 0,0.014 0,0.014 0,0.014 0,0.014 0,0.026 0,0.024 0,0.024 -0.01,0.022 0,0.021 0,0.02 0,0.018 0,0.018 0,0.016 -0.01,0.016 0,0.014 0,0.013 -0.01,0.013 0,0.011 -0.01,0.011 0,0.009 -0.01,0.009 -0.01,0.008 -0.01,0.007 -0.01,0.007 -0.01,0.005 -0.01,0.005 -0.01,0.004 -0.01,0.004 -0.02,0.003 -0.01,0.002 -0.017,0.002 -0.017,10e-4 -0.019,10e-4 -0.009,0 -0.01,0 c -0.126,0 -0.172,0 -0.297,-0.203 L 94.844,5.0273 h 0.406 l 3.859,5.9997 V 5.0273 H 95.25 94.844 V 4.5742 h 4.187 V 3.1211 c 0,-0.5781 -0.031,-0.75 -1.187,-0.75 H 97.516 V 1.918 c 0.375,0.0312 1.625,0.0312 2.078,0.0312 0.436,0 1.706,0 2.076,-0.0312 v 0.4531 h -0.31 c -1.16,0 -1.2,0.1719 -1.2,0.75 v 1.4531 h 1.61 v 0.4531 h -1.61 z"
   id="path25"
   inkscape:connector-curvature="0"
   style="fill:#000000;stroke-width:0" />
<path
   d="m 112.12,5.5898 h 4.4 c 0.21,0 0.5,0 0.5,0.2813 0,0.3125 -0.27,0.3125 -0.5,0.3125 h -4.4 v 4.3754 c 0,0.234 0,0.515 -0.28,0.515 -0.31,0 -0.31,-0.265 -0.31,-0.515 V 6.1836 h -4.39 c -0.22,0 -0.5,0 -0.5,-0.2969 0,-0.2969 0.27,-0.2969 0.5,-0.2969 h 4.39 V 1.1992 c 0,-0.21873 0,-0.49998 0.3,-0.49998 0.29,0 0.29,0.26562 0.29,0.49998 z"
   id="path27"
   inkscape:connector-curvature="0"
   style="fill:#000000;stroke-width:0" />
<path
   d="m 126.19,7.6523 0.08,0.0419 0.07,0.0436 0.16,0.0925 0.17,0.1001 0.16,0.1082 0.17,0.1168 0.08,0.0618 0.08,0.0641 0.08,0.0665 0.08,0.069 0.07,0.0716 0.08,0.0741 0.07,0.0768 0.07,0.0795 0.06,0.0822 0.07,0.0852 0.06,0.088 0.05,0.091 0.05,0.094 0.05,0.0971 0.04,0.1003 0.04,0.1035 0.04,0.1068 0.02,0.1101 0.03,0.1136 0.01,0.117 0.01,0.1204 0.01,0.124 c 0,1.375 -1.33,2.329 -2.8,2.329 l -0.02,-0.375 c 1.14,0 2.17,-0.829 2.17,-1.969 0,-0.969 -0.7,-1.7503 -1.62,-2.2659 l -1.84,1.2187 c -0.21,0.1407 -0.85,0.5469 -0.85,1.3282 0,1.031 1.08,1.688 2.14,1.688 l 0.02,0.375 c -1.56,0 -2.81,-1.157 -2.81,-2.5943 0,-0.5469 0.15,-1.0937 0.6,-1.625 0.18,-0.2031 0.19,-0.2187 1.3,-1 l 0.35,-0.2187 1.92,-1.2657 c 0.4,-0.2656 1.14,-0.7656 1.14,-1.7343 0,-1.2032 -1.22,-2.0313 -2.5,-2.0313 -1.35,0 -2.52,0.9844 -2.52,2.3125 0,1.2344 0.91,2.2344 1.96,2.7188 h 0 l -0.35,0.2187 c -1.53,-0.7187 -2.33,-1.7812 -2.33,-2.9375 0,-1.6875 1.6,-2.7344 3.22,-2.7344 1.77,0 3.25,1.2969 3.25,2.9688 0,1.625 -1.15,2.3281 -2.39,3.0937 z"
   id="path29"
   inkscape:connector-curvature="0"
   style="fill:#000000;stroke-width:0" />
<path
   d="m 139.15,5.5898 h 4.39 c 0.21,0 0.5,0 0.5,0.2813 0,0.3125 -0.27,0.3125 -0.5,0.3125 h -4.39 v 4.3754 c 0,0.234 0,0.515 -0.29,0.515 -0.31,0 -0.31,-0.265 -0.31,-0.515 V 6.1836 h -4.39 c -0.22,0 -0.5,0 -0.5,-0.2969 0,-0.2969 0.27,-0.2969 0.5,-0.2969 h 4.39 V 1.1992 c 0,-0.21873 0,-0.49998 0.3,-0.49998 0.3,0 0.3,0.26562 0.3,0.49998 z"
   id="path31"
   inkscape:connector-curvature="0"
   style="fill:#000000;stroke-width:0" />
<path
   d="m 151.42,2.6836 0,0.0421 -0.01,0.0413 0,0.0406 -0.01,0.0397 -0.01,0.0388 -0.01,0.0379 -0.01,0.0369 -0.02,0.0359 -0.01,0.0349 -0.02,0.0339 -0.02,0.0327 -0.02,0.0316 -0.02,0.0304 -0.03,0.0292 -0.02,0.028 -0.03,0.0266 -0.03,0.0254 -0.02,0.0239 -0.03,0.0226 -0.03,0.0211 -0.04,0.0197 -0.03,0.0181 -0.03,0.0166 -0.03,0.015 -0.04,0.0134 -0.03,0.0117 -0.04,0.01 -0.03,0.0083 -0.04,0.0065 -0.03,0.0046 -0.04,0.0029 -0.04,9e-4 c -0.45,0 -0.78,-0.3906 -0.78,-0.7656 0,-0.4687 0.39,-0.7812 0.77,-0.7812 0.46,0 0.78,0.375 0.78,0.7656 z"
   id="path33"
   inkscape:connector-curvature="0"
   style="fill:#000000;stroke-width:0" />
<path
   d="m 158.41,2.6836 0,0.0421 0,0.0413 -0.01,0.0406 -0.01,0.0397 -0.01,0.0388 -0.01,0.0379 -0.01,0.0369 -0.01,0.0359 -0.02,0.0349 -0.02,0.0339 -0.02,0.0327 -0.02,0.0316 -0.02,0.0304 -0.03,0.0292 -0.02,0.028 -0.03,0.0266 -0.02,0.0254 -0.03,0.0239 -0.03,0.0226 -0.03,0.0211 -0.03,0.0197 -0.03,0.0181 -0.04,0.0166 -0.03,0.015 -0.03,0.0134 -0.04,0.0117 -0.03,0.01 -0.04,0.0083 -0.04,0.0065 -0.03,0.0046 -0.04,0.0029 -0.03,9e-4 c -0.46,0 -0.79,-0.3906 -0.79,-0.7656 0,-0.4687 0.39,-0.7812 0.77,-0.7812 0.47,0 0.78,0.375 0.78,0.7656 z"
   id="path35"
   inkscape:connector-curvature="0"
   style="fill:#000000;stroke-width:0" />
<path
   d="m 165.39,2.6836 0,0.0421 0,0.0413 -0.01,0.0406 -0.01,0.0397 -0.01,0.0388 -0.01,0.0379 -0.01,0.0369 -0.01,0.0359 -0.02,0.0349 -0.02,0.0339 -0.02,0.0327 -0.02,0.0316 -0.02,0.0304 -0.02,0.0292 -0.03,0.028 -0.03,0.0266 -0.02,0.0254 -0.03,0.0239 -0.03,0.0226 -0.03,0.0211 -0.03,0.0197 -0.03,0.0181 -0.04,0.0166 -0.03,0.015 -0.03,0.0134 -0.04,0.0117 -0.03,0.01 -0.04,0.0083 -0.04,0.0065 -0.03,0.0046 -0.04,0.0029 -0.04,9e-4 c -0.45,0 -0.78,-0.3906 -0.78,-0.7656 0,-0.4687 0.39,-0.7812 0.77,-0.7812 0.47,0 0.78,0.375 0.78,0.7656 z"
   id="path37"
   inkscape:connector-curvature="0"
   style="fill:#000000;stroke-width:0" />
</g></svg>
